<?xml version="1.0" encoding="UTF-8" standalone="no"?>
<!DOCTYPE svg PUBLIC "-//W3C//DTD SVG 1.1//EN"
 "http://www.w3.org/Graphics/SVG/1.1/DTD/svg11.dtd">
<!-- Generated by graphviz version 2.43.0 (0)
 -->
<!-- Title: psim/include/psim/geometry.h Pages: 1 -->
<svg width="1238pt" height="319pt"
 viewBox="0.00 0.00 1237.50 319.00" xmlns="http://www.w3.org/2000/svg" xmlns:xlink="http://www.w3.org/1999/xlink">
<g id="graph0" class="graph" transform="scale(1 1) rotate(0) translate(4 315)">
<title>psim/include/psim/geometry.h</title>
<!-- Node1 -->
<g id="node1" class="node">
<title>Node1</title>
<g id="a_node1"><a xlink:title=" ">
<polygon fill="#bfbfbf" stroke="black" points="587,-291.5 587,-310.5 751,-310.5 751,-291.5 587,-291.5"/>
<text text-anchor="middle" x="669" y="-298.5" font-family="Helvetica,sans-Serif" font-size="10.00">psim/include/psim/geometry.h</text>
</a>
</g>
</g>
<!-- Node2 -->
<g id="node2" class="node">
<title>Node2</title>
<g id="a_node2"><a xlink:href="../../d0/ddd/cell_8h.html" target="_top" xlink:title=" ">
<polygon fill="none" stroke="black" points="420.5,-112.5 420.5,-131.5 555.5,-131.5 555.5,-112.5 420.5,-112.5"/>
<text text-anchor="middle" x="488" y="-119.5" font-family="Helvetica,sans-Serif" font-size="10.00">psim/include/psim/cell.h</text>
</a>
</g>
</g>
<!-- Node1&#45;&gt;Node2 -->
<g id="edge1" class="edge">
<title>Node1&#45;&gt;Node2</title>
<path fill="none" stroke="midnightblue" d="M630.09,-288.04C590.3,-273.65 530.04,-245.44 499,-199 485.07,-178.16 485.67,-146.94 486.97,-131.83"/>
<polygon fill="midnightblue" stroke="midnightblue" points="629.15,-291.41 639.74,-291.4 631.45,-284.81 629.15,-291.41"/>
</g>
<!-- Node3 -->
<g id="node3" class="node">
<title>Node3</title>
<g id="a_node3"><a xlink:href="../../dc/d51/model_8h.html" target="_top" xlink:title=" ">
<polygon fill="none" stroke="black" points="101.5,-56.5 101.5,-75.5 250.5,-75.5 250.5,-56.5 101.5,-56.5"/>
<text text-anchor="middle" x="176" y="-63.5" font-family="Helvetica,sans-Serif" font-size="10.00">psim/include/psim/model.h</text>
</a>
</g>
</g>
<!-- Node1&#45;&gt;Node3 -->
<g id="edge18" class="edge">
<title>Node1&#45;&gt;Node3</title>
<path fill="none" stroke="midnightblue" d="M578.87,-289.91C538.07,-283.25 489.93,-272.42 449,-255 334.63,-206.32 218.91,-105.95 185.54,-75.77"/>
<polygon fill="midnightblue" stroke="midnightblue" points="578.38,-293.37 588.8,-291.47 579.47,-286.46 578.38,-293.37"/>
</g>
<!-- Node5 -->
<g id="node5" class="node">
<title>Node5</title>
<g id="a_node5"><a xlink:href="../../d4/d02/inputManager_8cpp.html" target="_top" xlink:title=" ">
<polygon fill="none" stroke="black" points="0,-0.5 0,-19.5 148,-19.5 148,-0.5 0,-0.5"/>
<text text-anchor="middle" x="74" y="-7.5" font-family="Helvetica,sans-Serif" font-size="10.00">psim/src/inputManager.cpp</text>
</a>
</g>
</g>
<!-- Node1&#45;&gt;Node5 -->
<g id="edge30" class="edge">
<title>Node1&#45;&gt;Node5</title>
<path fill="none" stroke="midnightblue" d="M576.87,-300.9C409.81,-300.03 74,-285.69 74,-184.5 74,-184.5 74,-184.5 74,-121 74,-83.19 74,-38.06 74,-19.56"/>
<polygon fill="midnightblue" stroke="midnightblue" points="576.88,-304.4 586.89,-300.94 576.91,-297.4 576.88,-304.4"/>
</g>
<!-- Node7 -->
<g id="node7" class="node">
<title>Node7</title>
<g id="a_node7"><a xlink:href="../../d6/d68/cell_8cpp.html" target="_top" xlink:title=" ">
<polygon fill="none" stroke="black" points="702,-56.5 702,-75.5 800,-75.5 800,-56.5 702,-56.5"/>
<text text-anchor="middle" x="751" y="-63.5" font-family="Helvetica,sans-Serif" font-size="10.00">psim/src/cell.cpp</text>
</a>
</g>
</g>
<!-- Node1&#45;&gt;Node7 -->
<g id="edge27" class="edge">
<title>Node1&#45;&gt;Node7</title>
<path fill="none" stroke="midnightblue" d="M761.14,-295.01C821.86,-289.57 893.62,-278.28 913,-255 950.24,-210.26 1004.47,-265.73 840,-112 821.79,-94.97 795.9,-82.86 776.74,-75.53"/>
<polygon fill="midnightblue" stroke="midnightblue" points="760.78,-291.53 751.12,-295.86 761.38,-298.5 760.78,-291.53"/>
</g>
<!-- Node8 -->
<g id="node8" class="node">
<title>Node8</title>
<g id="a_node8"><a xlink:href="../../d1/d3b/modelSimulator_8cpp.html" target="_top" xlink:title=" ">
<polygon fill="none" stroke="black" points="442,-56.5 442,-75.5 600,-75.5 600,-56.5 442,-56.5"/>
<text text-anchor="middle" x="521" y="-63.5" font-family="Helvetica,sans-Serif" font-size="10.00">psim/src/modelSimulator.cpp</text>
</a>
</g>
</g>
<!-- Node1&#45;&gt;Node8 -->
<g id="edge31" class="edge">
<title>Node1&#45;&gt;Node8</title>
<path fill="none" stroke="midnightblue" d="M615.04,-289.04C587.67,-281.97 554.68,-271.03 528,-255 460.92,-214.69 432.38,-204.12 402,-132 388.88,-100.87 427.86,-84.21 464.66,-75.59"/>
<polygon fill="midnightblue" stroke="midnightblue" points="614.3,-292.46 624.85,-291.47 615.98,-285.67 614.3,-292.46"/>
</g>
<!-- Node9 -->
<g id="node9" class="node">
<title>Node9</title>
<g id="a_node9"><a xlink:href="../../d6/d7d/phonon_8cpp.html" target="_top" xlink:title=" ">
<polygon fill="none" stroke="black" points="306.5,-56.5 306.5,-75.5 423.5,-75.5 423.5,-56.5 306.5,-56.5"/>
<text text-anchor="middle" x="365" y="-63.5" font-family="Helvetica,sans-Serif" font-size="10.00">psim/src/phonon.cpp</text>
</a>
</g>
</g>
<!-- Node1&#45;&gt;Node9 -->
<g id="edge32" class="edge">
<title>Node1&#45;&gt;Node9</title>
<path fill="none" stroke="midnightblue" d="M586.72,-289.46C529.48,-277.55 456.45,-252.31 416,-199 385.41,-158.68 371.03,-97.78 366.58,-75.53"/>
<polygon fill="midnightblue" stroke="midnightblue" points="586.36,-292.95 596.85,-291.46 587.72,-286.09 586.36,-292.95"/>
</g>
<!-- Node10 -->
<g id="node10" class="node">
<title>Node10</title>
<g id="a_node10"><a xlink:href="../../d5/d8a/phononBuilder_8cpp.html" target="_top" xlink:title=" ">
<polygon fill="none" stroke="black" points="1036.5,-56.5 1036.5,-75.5 1187.5,-75.5 1187.5,-56.5 1036.5,-56.5"/>
<text text-anchor="middle" x="1112" y="-63.5" font-family="Helvetica,sans-Serif" font-size="10.00">psim/src/phononBuilder.cpp</text>
</a>
</g>
</g>
<!-- Node1&#45;&gt;Node10 -->
<g id="edge33" class="edge">
<title>Node1&#45;&gt;Node10</title>
<path fill="none" stroke="midnightblue" d="M761.36,-293.06C833.83,-286.29 927.8,-274.16 961,-255 1039.68,-209.59 1093.47,-106.08 1108.03,-75.6"/>
<polygon fill="midnightblue" stroke="midnightblue" points="760.93,-289.59 751.29,-293.98 761.57,-296.56 760.93,-289.59"/>
</g>
<!-- Node11 -->
<g id="node11" class="node">
<title>Node11</title>
<g id="a_node11"><a xlink:href="../../d7/d13/surface_8cpp.html" target="_top" xlink:title=" ">
<polygon fill="none" stroke="black" points="901.5,-56.5 901.5,-75.5 1018.5,-75.5 1018.5,-56.5 901.5,-56.5"/>
<text text-anchor="middle" x="960" y="-63.5" font-family="Helvetica,sans-Serif" font-size="10.00">psim/src/surface.cpp</text>
</a>
</g>
</g>
<!-- Node1&#45;&gt;Node11 -->
<g id="edge34" class="edge">
<title>Node1&#45;&gt;Node11</title>
<path fill="none" stroke="midnightblue" d="M761.23,-296.14C829.8,-291.23 915.55,-280.13 940,-255 989.45,-204.19 969.69,-105.28 962.31,-75.61"/>
<polygon fill="midnightblue" stroke="midnightblue" points="760.98,-292.65 751.24,-296.82 761.46,-299.63 760.98,-292.65"/>
</g>
<!-- Node12 -->
<g id="node12" class="node">
<title>Node12</title>
<g id="a_node12"><a xlink:href="../../d8/d77/compositeSurface_8h.html" target="_top" xlink:title=" ">
<polygon fill="none" stroke="black" points="508,-168.5 508,-198.5 668,-198.5 668,-168.5 508,-168.5"/>
<text text-anchor="start" x="516" y="-186.5" font-family="Helvetica,sans-Serif" font-size="10.00">psim/include/psim/composite</text>
<text text-anchor="middle" x="588" y="-175.5" font-family="Helvetica,sans-Serif" font-size="10.00">Surface.h</text>
</a>
</g>
</g>
<!-- Node1&#45;&gt;Node12 -->
<g id="edge12" class="edge">
<title>Node1&#45;&gt;Node12</title>
<path fill="none" stroke="midnightblue" d="M657.03,-282.94C640.97,-260.04 612.75,-219.79 597.85,-198.55"/>
<polygon fill="midnightblue" stroke="midnightblue" points="654.3,-285.14 662.91,-291.32 660.04,-281.12 654.3,-285.14"/>
</g>
<!-- Node13 -->
<g id="node13" class="node">
<title>Node13</title>
<g id="a_node13"><a xlink:href="../../dc/d09/compositeSurface_8cpp.html" target="_top" xlink:title=" ">
<polygon fill="none" stroke="black" points="611.5,-112.5 611.5,-131.5 780.5,-131.5 780.5,-112.5 611.5,-112.5"/>
<text text-anchor="middle" x="696" y="-119.5" font-family="Helvetica,sans-Serif" font-size="10.00">psim/src/compositeSurface.cpp</text>
</a>
</g>
</g>
<!-- Node1&#45;&gt;Node13 -->
<g id="edge28" class="edge">
<title>Node1&#45;&gt;Node13</title>
<path fill="none" stroke="midnightblue" d="M671.84,-281.35C677.6,-243.6 690.45,-159.36 694.65,-131.87"/>
<polygon fill="midnightblue" stroke="midnightblue" points="668.35,-281.05 670.3,-291.46 675.27,-282.11 668.35,-281.05"/>
</g>
<!-- Node14 -->
<g id="node14" class="node">
<title>Node14</title>
<g id="a_node14"><a xlink:href="../../d2/d69/surface_8h.html" target="_top" xlink:title=" ">
<polygon fill="none" stroke="black" points="750,-235.5 750,-254.5 904,-254.5 904,-235.5 750,-235.5"/>
<text text-anchor="middle" x="827" y="-242.5" font-family="Helvetica,sans-Serif" font-size="10.00">psim/include/psim/surface.h</text>
</a>
</g>
</g>
<!-- Node1&#45;&gt;Node14 -->
<g id="edge19" class="edge">
<title>Node1&#45;&gt;Node14</title>
<path fill="none" stroke="midnightblue" d="M703.61,-288.17C733.36,-278 775.55,-263.59 802.08,-254.52"/>
<polygon fill="midnightblue" stroke="midnightblue" points="702.37,-284.9 694.04,-291.44 704.63,-291.52 702.37,-284.9"/>
</g>
<!-- Node15 -->
<g id="node15" class="node">
<title>Node15</title>
<g id="a_node15"><a xlink:href="../../d4/d59/geometry_8cpp.html" target="_top" xlink:title=" ">
<polygon fill="none" stroke="black" points="1102.5,-235.5 1102.5,-254.5 1229.5,-254.5 1229.5,-235.5 1102.5,-235.5"/>
<text text-anchor="middle" x="1166" y="-242.5" font-family="Helvetica,sans-Serif" font-size="10.00">psim/src/geometry.cpp</text>
</a>
</g>
</g>
<!-- Node1&#45;&gt;Node15 -->
<g id="edge29" class="edge">
<title>Node1&#45;&gt;Node15</title>
<path fill="none" stroke="midnightblue" d="M760.25,-290.41C845.15,-281.44 975.16,-267.57 1088,-255 1092.61,-254.49 1097.36,-253.95 1102.15,-253.41"/>
<polygon fill="midnightblue" stroke="midnightblue" points="759.71,-286.95 750.13,-291.48 760.44,-293.91 759.71,-286.95"/>
</g>
<!-- Node2&#45;&gt;Node3 -->
<g id="edge2" class="edge">
<title>Node2&#45;&gt;Node3</title>
<path fill="none" stroke="midnightblue" d="M428.65,-110.73C369.69,-100.52 280.34,-85.06 225.21,-75.52"/>
<polygon fill="midnightblue" stroke="midnightblue" points="428.11,-114.19 438.56,-112.44 429.31,-107.29 428.11,-114.19"/>
</g>
<!-- Node6 -->
<g id="node6" class="node">
<title>Node6</title>
<g id="a_node6"><a xlink:href="../../d6/db4/model_8cpp.html" target="_top" xlink:title=" ">
<polygon fill="none" stroke="black" points="422,-0.5 422,-19.5 534,-19.5 534,-0.5 422,-0.5"/>
<text text-anchor="middle" x="478" y="-7.5" font-family="Helvetica,sans-Serif" font-size="10.00">psim/src/model.cpp</text>
</a>
</g>
</g>
<!-- Node2&#45;&gt;Node6 -->
<g id="edge7" class="edge">
<title>Node2&#45;&gt;Node6</title>
<path fill="none" stroke="midnightblue" d="M550.72,-110.11C589.56,-100.43 628.61,-83.46 609,-56 591.95,-32.12 561.4,-20.78 534.09,-15.45"/>
<polygon fill="midnightblue" stroke="midnightblue" points="549.83,-106.72 540.89,-112.41 551.42,-113.54 549.83,-106.72"/>
</g>
<!-- Node2&#45;&gt;Node7 -->
<g id="edge6" class="edge">
<title>Node2&#45;&gt;Node7</title>
<path fill="none" stroke="midnightblue" d="M539.58,-110.41C589.28,-100.2 663.53,-84.96 709.52,-75.52"/>
<polygon fill="midnightblue" stroke="midnightblue" points="538.76,-107 529.67,-112.44 540.17,-113.86 538.76,-107"/>
</g>
<!-- Node2&#45;&gt;Node8 -->
<g id="edge8" class="edge">
<title>Node2&#45;&gt;Node8</title>
<path fill="none" stroke="midnightblue" d="M498.83,-103.27C504.47,-94.05 511.12,-83.17 515.65,-75.75"/>
<polygon fill="midnightblue" stroke="midnightblue" points="495.68,-101.73 493.45,-112.08 501.65,-105.38 495.68,-101.73"/>
</g>
<!-- Node2&#45;&gt;Node9 -->
<g id="edge9" class="edge">
<title>Node2&#45;&gt;Node9</title>
<path fill="none" stroke="midnightblue" d="M459.23,-108.37C436.19,-98.26 404.52,-84.35 384.4,-75.52"/>
<polygon fill="midnightblue" stroke="midnightblue" points="457.95,-111.63 468.51,-112.44 460.76,-105.22 457.95,-111.63"/>
</g>
<!-- Node2&#45;&gt;Node10 -->
<g id="edge10" class="edge">
<title>Node2&#45;&gt;Node10</title>
<path fill="none" stroke="midnightblue" d="M565.58,-114.76C692.83,-104.49 940.47,-84.34 1028,-76 1030.77,-75.74 1033.6,-75.46 1036.45,-75.18"/>
<polygon fill="midnightblue" stroke="midnightblue" points="565.2,-111.28 555.52,-115.57 565.77,-118.26 565.2,-111.28"/>
</g>
<!-- Node2&#45;&gt;Node11 -->
<g id="edge11" class="edge">
<title>Node2&#45;&gt;Node11</title>
<path fill="none" stroke="midnightblue" d="M565.67,-112.11C659.93,-101.33 816.74,-83.39 901.43,-73.7"/>
<polygon fill="midnightblue" stroke="midnightblue" points="565.16,-108.65 555.63,-113.26 565.96,-115.6 565.16,-108.65"/>
</g>
<!-- Node4 -->
<g id="node4" class="node">
<title>Node4</title>
<g id="a_node4"><a xlink:href="../../df/d0a/main_8cpp.html" target="_top" xlink:title=" ">
<polygon fill="none" stroke="black" points="166.5,-0.5 166.5,-19.5 255.5,-19.5 255.5,-0.5 166.5,-0.5"/>
<text text-anchor="middle" x="211" y="-7.5" font-family="Helvetica,sans-Serif" font-size="10.00">psim/main.cpp</text>
</a>
</g>
</g>
<!-- Node3&#45;&gt;Node4 -->
<g id="edge3" class="edge">
<title>Node3&#45;&gt;Node4</title>
<path fill="none" stroke="midnightblue" d="M187.3,-47.57C193.32,-38.27 200.47,-27.25 205.33,-19.75"/>
<polygon fill="midnightblue" stroke="midnightblue" points="184.28,-45.79 181.78,-56.08 190.16,-49.6 184.28,-45.79"/>
</g>
<!-- Node3&#45;&gt;Node5 -->
<g id="edge4" class="edge">
<title>Node3&#45;&gt;Node5</title>
<path fill="none" stroke="midnightblue" d="M150.67,-51.59C131.81,-41.61 106.62,-28.27 90.35,-19.65"/>
<polygon fill="midnightblue" stroke="midnightblue" points="149.14,-54.74 159.61,-56.32 152.41,-48.55 149.14,-54.74"/>
</g>
<!-- Node3&#45;&gt;Node6 -->
<g id="edge5" class="edge">
<title>Node3&#45;&gt;Node6</title>
<path fill="none" stroke="midnightblue" d="M233.8,-54.66C290.88,-44.46 377.12,-29.04 430.37,-19.52"/>
<polygon fill="midnightblue" stroke="midnightblue" points="233.08,-51.24 223.85,-56.44 234.31,-58.13 233.08,-51.24"/>
</g>
<!-- Node12&#45;&gt;Node2 -->
<g id="edge13" class="edge">
<title>Node12&#45;&gt;Node2</title>
<path fill="none" stroke="midnightblue" d="M555.34,-163.07C537.52,-152.46 516.33,-139.86 502.55,-131.66"/>
<polygon fill="midnightblue" stroke="midnightblue" points="553.92,-166.29 564.3,-168.4 557.5,-160.28 553.92,-166.29"/>
</g>
<!-- Node12&#45;&gt;Node6 -->
<g id="edge16" class="edge">
<title>Node12&#45;&gt;Node6</title>
<path fill="none" stroke="midnightblue" d="M497.82,-178.04C428.5,-169.11 337.89,-144.15 297,-76 267.58,-26.97 358.52,-14.45 421.95,-11.53"/>
<polygon fill="midnightblue" stroke="midnightblue" points="497.54,-181.53 507.89,-179.24 498.37,-174.58 497.54,-181.53"/>
</g>
<!-- Node12&#45;&gt;Node7 -->
<g id="edge14" class="edge">
<title>Node12&#45;&gt;Node7</title>
<path fill="none" stroke="midnightblue" d="M587.24,-158.27C588.06,-143.2 591.63,-124.39 603,-112 628.15,-84.6 669.41,-73.67 701.98,-69.42"/>
<polygon fill="midnightblue" stroke="midnightblue" points="583.74,-158.38 587.05,-168.44 590.74,-158.51 583.74,-158.38"/>
</g>
<!-- Node12&#45;&gt;Node8 -->
<g id="edge17" class="edge">
<title>Node12&#45;&gt;Node8</title>
<path fill="none" stroke="midnightblue" d="M497.73,-166.95C460.35,-158.5 423.11,-146.74 412,-132 390.65,-103.67 439.27,-85.26 478.29,-75.51"/>
<polygon fill="midnightblue" stroke="midnightblue" points="497.22,-170.42 507.74,-169.13 498.72,-163.58 497.22,-170.42"/>
</g>
<!-- Node12&#45;&gt;Node13 -->
<g id="edge15" class="edge">
<title>Node12&#45;&gt;Node13</title>
<path fill="none" stroke="midnightblue" d="M622.48,-163.51C641.89,-152.81 665.19,-139.97 680.29,-131.66"/>
<polygon fill="midnightblue" stroke="midnightblue" points="620.66,-160.51 613.59,-168.4 624.04,-166.64 620.66,-160.51"/>
</g>
<!-- Node14&#45;&gt;Node6 -->
<g id="edge23" class="edge">
<title>Node14&#45;&gt;Node6</title>
<path fill="none" stroke="midnightblue" d="M837.76,-226.69C842.18,-218.59 846.77,-208.64 849,-199 863.88,-134.7 863.46,-93.27 809,-56 765.45,-26.19 616.52,-16.02 534.07,-12.63"/>
<polygon fill="midnightblue" stroke="midnightblue" points="834.65,-225.08 832.64,-235.48 840.7,-228.6 834.65,-225.08"/>
</g>
<!-- Node14&#45;&gt;Node7 -->
<g id="edge21" class="edge">
<title>Node14&#45;&gt;Node7</title>
<path fill="none" stroke="midnightblue" d="M831.44,-225.19C836.73,-198.15 842.51,-147.66 822,-112 811.89,-94.42 791.82,-82.66 775.6,-75.59"/>
<polygon fill="midnightblue" stroke="midnightblue" points="827.96,-224.71 829.27,-235.22 834.8,-226.18 827.96,-224.71"/>
</g>
<!-- Node14&#45;&gt;Node8 -->
<g id="edge24" class="edge">
<title>Node14&#45;&gt;Node8</title>
<path fill="none" stroke="midnightblue" d="M827.59,-224.93C827.38,-195.93 822.37,-141.07 790,-112 762.61,-87.4 669.24,-76.09 600.16,-70.99"/>
<polygon fill="midnightblue" stroke="midnightblue" points="824.09,-225.27 827.47,-235.31 831.09,-225.35 824.09,-225.27"/>
</g>
<!-- Node14&#45;&gt;Node10 -->
<g id="edge25" class="edge">
<title>Node14&#45;&gt;Node10</title>
<path fill="none" stroke="midnightblue" d="M857.31,-231.39C876.55,-223 901.73,-211.29 923,-199 994.04,-157.95 1072.5,-98 1100.94,-75.74"/>
<polygon fill="midnightblue" stroke="midnightblue" points="855.92,-228.17 848.12,-235.34 858.69,-234.6 855.92,-228.17"/>
</g>
<!-- Node14&#45;&gt;Node11 -->
<g id="edge26" class="edge">
<title>Node14&#45;&gt;Node11</title>
<path fill="none" stroke="midnightblue" d="M854.54,-230.72C868.74,-222.9 885.62,-212 898,-199 933.97,-161.23 952.2,-98.77 957.94,-75.82"/>
<polygon fill="midnightblue" stroke="midnightblue" points="852.88,-227.63 845.67,-235.4 856.15,-233.82 852.88,-227.63"/>
</g>
<!-- Node14&#45;&gt;Node12 -->
<g id="edge20" class="edge">
<title>Node14&#45;&gt;Node12</title>
<path fill="none" stroke="midnightblue" d="M782.75,-232.98C743.71,-223.27 686.61,-209.05 644.33,-198.52"/>
<polygon fill="midnightblue" stroke="midnightblue" points="782.21,-236.46 792.76,-235.48 783.9,-229.66 782.21,-236.46"/>
</g>
<!-- Node14&#45;&gt;Node13 -->
<g id="edge22" class="edge">
<title>Node14&#45;&gt;Node13</title>
<path fill="none" stroke="midnightblue" d="M810.16,-228.44C782.23,-202.65 727.25,-151.86 705.34,-131.62"/>
<polygon fill="midnightblue" stroke="midnightblue" points="807.86,-231.08 817.58,-235.3 812.61,-225.94 807.86,-231.08"/>
</g>
</g>
</svg>
