<?xml version="1.0" encoding="UTF-8" standalone="no"?>
<!DOCTYPE svg PUBLIC "-//W3C//DTD SVG 1.1//EN"
 "http://www.w3.org/Graphics/SVG/1.1/DTD/svg11.dtd">
<!-- Generated by graphviz version 2.43.0 (0)
 -->
<!-- Title: PhononBuilder Pages: 1 -->
<svg width="242pt" height="140pt"
 viewBox="0.00 0.00 242.00 140.00" xmlns="http://www.w3.org/2000/svg" xmlns:xlink="http://www.w3.org/1999/xlink">
<g id="graph0" class="graph" transform="scale(1 1) rotate(0) translate(4 136)">
<title>PhononBuilder</title>
<!-- Node1 -->
<g id="node1" class="node">
<title>Node1</title>
<g id="a_node1"><a xlink:title=" ">
<polygon fill="#bfbfbf" stroke="black" points="69,-112.5 69,-131.5 156,-131.5 156,-112.5 69,-112.5"/>
<text text-anchor="middle" x="112.5" y="-119.5" font-family="Helvetica,sans-Serif" font-size="10.00">PhononBuilder</text>
</a>
</g>
</g>
<!-- Node2 -->
<g id="node2" class="node">
<title>Node2</title>
<g id="a_node2"><a xlink:href="../../df/da6/classCellOriginBuilder.html" target="_top" xlink:title=" ">
<polygon fill="none" stroke="black" points="0,-56.5 0,-75.5 99,-75.5 99,-56.5 0,-56.5"/>
<text text-anchor="middle" x="49.5" y="-63.5" font-family="Helvetica,sans-Serif" font-size="10.00">CellOriginBuilder</text>
</a>
</g>
</g>
<!-- Node1&#45;&gt;Node2 -->
<g id="edge1" class="edge">
<title>Node1&#45;&gt;Node2</title>
<path fill="none" stroke="midnightblue" d="M94.46,-105.54C83.23,-95.91 69.18,-83.87 59.81,-75.83"/>
<polygon fill="midnightblue" stroke="midnightblue" points="92.51,-108.47 102.38,-112.32 97.06,-103.16 92.51,-108.47"/>
</g>
<!-- Node3 -->
<g id="node3" class="node">
<title>Node3</title>
<g id="a_node3"><a xlink:href="../../d5/dea/classSurfaceOriginBuilder.html" target="_top" xlink:title=" ">
<polygon fill="none" stroke="black" points="117,-56.5 117,-75.5 234,-75.5 234,-56.5 117,-56.5"/>
<text text-anchor="middle" x="175.5" y="-63.5" font-family="Helvetica,sans-Serif" font-size="10.00">SurfaceOriginBuilder</text>
</a>
</g>
</g>
<!-- Node1&#45;&gt;Node3 -->
<g id="edge2" class="edge">
<title>Node1&#45;&gt;Node3</title>
<path fill="none" stroke="midnightblue" d="M130.54,-105.54C141.77,-95.91 155.82,-83.87 165.19,-75.83"/>
<polygon fill="midnightblue" stroke="midnightblue" points="127.94,-103.16 122.62,-112.32 132.49,-108.47 127.94,-103.16"/>
</g>
<!-- Node4 -->
<g id="node4" class="node">
<title>Node4</title>
<g id="a_node4"><a xlink:href="../../d0/dc3/classPhasorBuilder.html" target="_top" xlink:title=" ">
<polygon fill="none" stroke="black" points="133.5,-0.5 133.5,-19.5 217.5,-19.5 217.5,-0.5 133.5,-0.5"/>
<text text-anchor="middle" x="175.5" y="-7.5" font-family="Helvetica,sans-Serif" font-size="10.00">PhasorBuilder</text>
</a>
</g>
</g>
<!-- Node3&#45;&gt;Node4 -->
<g id="edge3" class="edge">
<title>Node3&#45;&gt;Node4</title>
<path fill="none" stroke="midnightblue" d="M175.5,-45.8C175.5,-36.91 175.5,-26.78 175.5,-19.75"/>
<polygon fill="midnightblue" stroke="midnightblue" points="172,-46.08 175.5,-56.08 179,-46.08 172,-46.08"/>
</g>
</g>
</svg>
