<?xml version="1.0" encoding="UTF-8" standalone="no"?>
<!DOCTYPE svg PUBLIC "-//W3C//DTD SVG 1.1//EN"
 "http://www.w3.org/Graphics/SVG/1.1/DTD/svg11.dtd">
<!-- Generated by graphviz version 2.43.0 (0)
 -->
<!-- Title: CellOriginBuilder::addCellPhonons Pages: 1 -->
<svg width="458pt" height="39pt"
 viewBox="0.00 0.00 458.00 39.00" xmlns="http://www.w3.org/2000/svg" xmlns:xlink="http://www.w3.org/1999/xlink">
<g id="graph0" class="graph" transform="scale(1 1) rotate(0) translate(4 35)">
<title>CellOriginBuilder::addCellPhonons</title>
<!-- Node1 -->
<g id="node1" class="node">
<title>Node1</title>
<g id="a_node1"><a xlink:title=" ">
<polygon fill="#bfbfbf" stroke="black" points="345,-0.5 345,-30.5 450,-30.5 450,-0.5 345,-0.5"/>
<text text-anchor="start" x="353" y="-18.5" font-family="Helvetica,sans-Serif" font-size="10.00">CellOriginBuilder::</text>
<text text-anchor="middle" x="397.5" y="-7.5" font-family="Helvetica,sans-Serif" font-size="10.00">addCellPhonons</text>
</a>
</g>
</g>
<!-- Node2 -->
<g id="node2" class="node">
<title>Node2</title>
<g id="a_node2"><a xlink:href="../../df/dce/classModelSimulator.html#ae128a539d7e7d919d6ac237caadb7238" target="_top" xlink:title=" ">
<polygon fill="none" stroke="black" points="157,-0.5 157,-30.5 309,-30.5 309,-0.5 157,-0.5"/>
<text text-anchor="start" x="165" y="-18.5" font-family="Helvetica,sans-Serif" font-size="10.00">ModelSimulator::initPhonon</text>
<text text-anchor="middle" x="233" y="-7.5" font-family="Helvetica,sans-Serif" font-size="10.00">Builders</text>
</a>
</g>
</g>
<!-- Node1&#45;&gt;Node2 -->
<g id="edge1" class="edge">
<title>Node1&#45;&gt;Node2</title>
<path fill="none" stroke="midnightblue" d="M334.62,-15.5C326.26,-15.5 317.61,-15.5 309.06,-15.5"/>
<polygon fill="midnightblue" stroke="midnightblue" points="334.64,-19 344.64,-15.5 334.64,-12 334.64,-19"/>
</g>
<!-- Node3 -->
<g id="node3" class="node">
<title>Node3</title>
<g id="a_node3"><a xlink:href="../../d6/d18/classModel.html#a380396b521b2f20964bde3431ec4e9c6" target="_top" xlink:title=" ">
<polygon fill="none" stroke="black" points="0,-6 0,-25 121,-25 121,-6 0,-6"/>
<text text-anchor="middle" x="60.5" y="-13" font-family="Helvetica,sans-Serif" font-size="10.00">Model::runSimulation</text>
</a>
</g>
</g>
<!-- Node2&#45;&gt;Node3 -->
<g id="edge2" class="edge">
<title>Node2&#45;&gt;Node3</title>
<path fill="none" stroke="midnightblue" d="M146.59,-15.5C137.95,-15.5 129.31,-15.5 121.02,-15.5"/>
<polygon fill="midnightblue" stroke="midnightblue" points="146.72,-19 156.72,-15.5 146.72,-12 146.72,-19"/>
</g>
</g>
</svg>
