<?xml version="1.0" encoding="UTF-8" standalone="no"?>
<!DOCTYPE svg PUBLIC "-//W3C//DTD SVG 1.1//EN"
 "http://www.w3.org/Graphics/SVG/1.1/DTD/svg11.dtd">
<!-- Generated by graphviz version 2.43.0 (0)
 -->
<!-- Title: CompositeSurface::contains Pages: 1 -->
<svg width="472pt" height="28pt"
 viewBox="0.00 0.00 472.00 28.00" xmlns="http://www.w3.org/2000/svg" xmlns:xlink="http://www.w3.org/1999/xlink">
<g id="graph0" class="graph" transform="scale(1 1) rotate(0) translate(4 24)">
<title>CompositeSurface::contains</title>
<!-- Node1 -->
<g id="node1" class="node">
<title>Node1</title>
<g id="a_node1"><a xlink:title=" ">
<polygon fill="#bfbfbf" stroke="black" points="0,-0.5 0,-19.5 153,-19.5 153,-0.5 0,-0.5"/>
<text text-anchor="middle" x="76.5" y="-7.5" font-family="Helvetica,sans-Serif" font-size="10.00">CompositeSurface::contains</text>
</a>
</g>
</g>
<!-- Node2 -->
<g id="node2" class="node">
<title>Node2</title>
<g id="a_node2"><a xlink:href="../../de/d10/classSurface.html#a049dbe26ca36205a76b49b5fa47af174" target="_top" xlink:title=" ">
<polygon fill="none" stroke="black" points="189,-0.5 189,-19.5 290,-19.5 290,-0.5 189,-0.5"/>
<text text-anchor="middle" x="239.5" y="-7.5" font-family="Helvetica,sans-Serif" font-size="10.00">Surface::contains</text>
</a>
</g>
</g>
<!-- Node1&#45;&gt;Node2 -->
<g id="edge1" class="edge">
<title>Node1&#45;&gt;Node2</title>
<path fill="none" stroke="midnightblue" d="M153.29,-10C161.77,-10 170.33,-10 178.58,-10"/>
<polygon fill="midnightblue" stroke="midnightblue" points="178.83,-13.5 188.83,-10 178.83,-6.5 178.83,-13.5"/>
</g>
<!-- Node3 -->
<g id="node3" class="node">
<title>Node3</title>
<g id="a_node3"><a xlink:href="../../d1/d2a/structGeometry_1_1Line.html#a5477a6d73d807cc2173ca0f06e021b2b" target="_top" xlink:title=" ">
<polygon fill="none" stroke="black" points="326,-0.5 326,-19.5 464,-19.5 464,-0.5 326,-0.5"/>
<text text-anchor="middle" x="395" y="-7.5" font-family="Helvetica,sans-Serif" font-size="10.00">Geometry::Line::contains</text>
</a>
</g>
</g>
<!-- Node2&#45;&gt;Node3 -->
<g id="edge2" class="edge">
<title>Node2&#45;&gt;Node3</title>
<path fill="none" stroke="midnightblue" d="M290.34,-10C298.52,-10 307.16,-10 315.83,-10"/>
<polygon fill="midnightblue" stroke="midnightblue" points="316,-13.5 326,-10 316,-6.5 316,-13.5"/>
</g>
</g>
</svg>
