<?xml version="1.0" encoding="UTF-8" standalone="no"?>
<!DOCTYPE svg PUBLIC "-//W3C//DTD SVG 1.1//EN"
 "http://www.w3.org/Graphics/SVG/1.1/DTD/svg11.dtd">
<!-- Generated by graphviz version 2.43.0 (0)
 -->
<!-- Title: EmitSurface::handlePhonon Pages: 1 -->
<svg width="480pt" height="28pt"
 viewBox="0.00 0.00 480.00 28.00" xmlns="http://www.w3.org/2000/svg" xmlns:xlink="http://www.w3.org/1999/xlink">
<g id="graph0" class="graph" transform="scale(1 1) rotate(0) translate(4 24)">
<title>EmitSurface::handlePhonon</title>
<!-- Node1 -->
<g id="node1" class="node">
<title>Node1</title>
<g id="a_node1"><a xlink:title=" ">
<polygon fill="#bfbfbf" stroke="black" points="0,-0.5 0,-19.5 151,-19.5 151,-0.5 0,-0.5"/>
<text text-anchor="middle" x="75.5" y="-7.5" font-family="Helvetica,sans-Serif" font-size="10.00">EmitSurface::handlePhonon</text>
</a>
</g>
</g>
<!-- Node2 -->
<g id="node2" class="node">
<title>Node2</title>
<g id="a_node2"><a xlink:href="../../de/d10/classSurface.html#abbc414c1f041996a070427dfb109b64b" target="_top" xlink:title=" ">
<polygon fill="none" stroke="black" points="187,-0.5 187,-19.5 363,-19.5 363,-0.5 187,-0.5"/>
<text text-anchor="middle" x="275" y="-7.5" font-family="Helvetica,sans-Serif" font-size="10.00">Surface::boundaryHandlePhonon</text>
</a>
</g>
</g>
<!-- Node1&#45;&gt;Node2 -->
<g id="edge1" class="edge">
<title>Node1&#45;&gt;Node2</title>
<path fill="none" stroke="midnightblue" d="M151.17,-10C159.57,-10 168.22,-10 176.85,-10"/>
<polygon fill="midnightblue" stroke="midnightblue" points="176.96,-13.5 186.96,-10 176.96,-6.5 176.96,-13.5"/>
</g>
<!-- Node3 -->
<g id="node3" class="node">
<title>Node3</title>
<g id="a_node3"><a xlink:href="../../d4/d3d/namespaceUtils.html#a43e50478f64886919d326da79ac1921b" target="_top" xlink:title=" ">
<polygon fill="none" stroke="black" points="399,-0.5 399,-19.5 472,-19.5 472,-0.5 399,-0.5"/>
<text text-anchor="middle" x="435.5" y="-7.5" font-family="Helvetica,sans-Serif" font-size="10.00">Utils::urand</text>
</a>
</g>
</g>
<!-- Node2&#45;&gt;Node3 -->
<g id="edge2" class="edge">
<title>Node2&#45;&gt;Node3</title>
<path fill="none" stroke="midnightblue" d="M363.13,-10C372.03,-10 380.8,-10 388.98,-10"/>
<polygon fill="midnightblue" stroke="midnightblue" points="388.99,-13.5 398.99,-10 388.99,-6.5 388.99,-13.5"/>
</g>
</g>
</svg>
