<?xml version="1.0" encoding="UTF-8" standalone="no"?>
<!DOCTYPE svg PUBLIC "-//W3C//DTD SVG 1.1//EN"
 "http://www.w3.org/Graphics/SVG/1.1/DTD/svg11.dtd">
<!-- Generated by graphviz version 2.43.0 (0)
 -->
<!-- Title: psim/include/psim/material.h Pages: 1 -->
<svg width="1837pt" height="341pt"
 viewBox="0.00 0.00 1837.00 341.00" xmlns="http://www.w3.org/2000/svg" xmlns:xlink="http://www.w3.org/1999/xlink">
<g id="graph0" class="graph" transform="scale(1 1) rotate(0) translate(4 337)">
<title>psim/include/psim/material.h</title>
<!-- Node1 -->
<g id="node1" class="node">
<title>Node1</title>
<g id="a_node1"><a xlink:title=" ">
<polygon fill="#bfbfbf" stroke="black" points="792.5,-313.5 792.5,-332.5 951.5,-332.5 951.5,-313.5 792.5,-313.5"/>
<text text-anchor="middle" x="872" y="-320.5" font-family="Helvetica,sans-Serif" font-size="10.00">psim/include/psim/material.h</text>
</a>
</g>
</g>
<!-- Node2 -->
<g id="node2" class="node">
<title>Node2</title>
<g id="a_node2"><a xlink:href="../../d0/ddd/cell_8h.html" target="_top" xlink:title=" ">
<polygon fill="none" stroke="black" points="1025.5,-118 1025.5,-137 1160.5,-137 1160.5,-118 1025.5,-118"/>
<text text-anchor="middle" x="1093" y="-125" font-family="Helvetica,sans-Serif" font-size="10.00">psim/include/psim/cell.h</text>
</a>
</g>
</g>
<!-- Node1&#45;&gt;Node2 -->
<g id="edge1" class="edge">
<title>Node1&#45;&gt;Node2</title>
<path fill="none" stroke="midnightblue" d="M961.94,-315.2C990.84,-308.94 1021.03,-297.53 1043,-277 1084.93,-237.8 1091.71,-162.34 1092.8,-137.02"/>
<polygon fill="midnightblue" stroke="midnightblue" points="960.91,-311.84 951.78,-317.21 962.27,-318.7 960.91,-311.84"/>
</g>
<!-- Node3 -->
<g id="node3" class="node">
<title>Node3</title>
<g id="a_node3"><a xlink:href="../../dc/d51/model_8h.html" target="_top" xlink:title=" ">
<polygon fill="none" stroke="black" points="359.5,-56.5 359.5,-75.5 508.5,-75.5 508.5,-56.5 359.5,-56.5"/>
<text text-anchor="middle" x="434" y="-63.5" font-family="Helvetica,sans-Serif" font-size="10.00">psim/include/psim/model.h</text>
</a>
</g>
</g>
<!-- Node1&#45;&gt;Node3 -->
<g id="edge12" class="edge">
<title>Node1&#45;&gt;Node3</title>
<path fill="none" stroke="midnightblue" d="M809.04,-311.55C770.5,-304.14 720.58,-292.71 678,-277 617.39,-254.64 604.27,-243.45 549,-210 504.49,-183.06 482.52,-185.85 453,-143 438.49,-121.94 435.05,-90.83 434.24,-75.78"/>
<polygon fill="midnightblue" stroke="midnightblue" points="808.61,-315.03 819.09,-313.44 809.91,-308.15 808.61,-315.03"/>
</g>
<!-- Node4 -->
<g id="node4" class="node">
<title>Node4</title>
<g id="a_node4"><a xlink:href="../../d4/d02/inputManager_8cpp.html" target="_top" xlink:title=" ">
<polygon fill="none" stroke="black" points="0,-0.5 0,-19.5 148,-19.5 148,-0.5 0,-0.5"/>
<text text-anchor="middle" x="74" y="-7.5" font-family="Helvetica,sans-Serif" font-size="10.00">psim/src/inputManager.cpp</text>
</a>
</g>
</g>
<!-- Node1&#45;&gt;Node4 -->
<g id="edge47" class="edge">
<title>Node1&#45;&gt;Node4</title>
<path fill="none" stroke="midnightblue" d="M782.1,-319.95C596.67,-315.22 184.07,-302.03 125,-277 75.62,-256.07 36,-249.13 36,-195.5 36,-195.5 36,-195.5 36,-126.5 36,-84.7 58.73,-38.47 69.03,-19.66"/>
<polygon fill="midnightblue" stroke="midnightblue" points="782.29,-323.45 792.37,-320.21 782.46,-316.45 782.29,-323.45"/>
</g>
<!-- Node6 -->
<g id="node6" class="node">
<title>Node6</title>
<g id="a_node6"><a xlink:href="../../d6/db4/model_8cpp.html" target="_top" xlink:title=" ">
<polygon fill="none" stroke="black" points="492,-0.5 492,-19.5 604,-19.5 604,-0.5 492,-0.5"/>
<text text-anchor="middle" x="548" y="-7.5" font-family="Helvetica,sans-Serif" font-size="10.00">psim/src/model.cpp</text>
</a>
</g>
</g>
<!-- Node1&#45;&gt;Node6 -->
<g id="edge49" class="edge">
<title>Node1&#45;&gt;Node6</title>
<path fill="none" stroke="midnightblue" d="M782.11,-319.38C682.5,-315.19 517.5,-304.42 378,-277 256.67,-253.15 112,-319.15 112,-195.5 112,-195.5 112,-195.5 112,-126.5 112,-94.05 106.28,-77.02 131,-56 190.9,-5.06 404.93,-29.39 483,-20 485.94,-19.65 488.95,-19.27 492,-18.88"/>
<polygon fill="midnightblue" stroke="midnightblue" points="782.01,-322.88 792.14,-319.79 782.29,-315.88 782.01,-322.88"/>
</g>
<!-- Node7 -->
<g id="node7" class="node">
<title>Node7</title>
<g id="a_node7"><a xlink:href="../../d6/d68/cell_8cpp.html" target="_top" xlink:title=" ">
<polygon fill="none" stroke="black" points="1216,-56.5 1216,-75.5 1314,-75.5 1314,-56.5 1216,-56.5"/>
<text text-anchor="middle" x="1265" y="-63.5" font-family="Helvetica,sans-Serif" font-size="10.00">psim/src/cell.cpp</text>
</a>
</g>
</g>
<!-- Node1&#45;&gt;Node7 -->
<g id="edge46" class="edge">
<title>Node1&#45;&gt;Node7</title>
<path fill="none" stroke="midnightblue" d="M961.9,-312.55C996.44,-306.1 1035.18,-295.25 1067,-277 1161.75,-222.65 1238.71,-108.58 1259.47,-75.91"/>
<polygon fill="midnightblue" stroke="midnightblue" points="961.04,-309.15 951.8,-314.34 962.26,-316.04 961.04,-309.15"/>
</g>
<!-- Node8 -->
<g id="node8" class="node">
<title>Node8</title>
<g id="a_node8"><a xlink:href="../../d1/d3b/modelSimulator_8cpp.html" target="_top" xlink:title=" ">
<polygon fill="none" stroke="black" points="1485,-56.5 1485,-75.5 1643,-75.5 1643,-56.5 1485,-56.5"/>
<text text-anchor="middle" x="1564" y="-63.5" font-family="Helvetica,sans-Serif" font-size="10.00">psim/src/modelSimulator.cpp</text>
</a>
</g>
</g>
<!-- Node1&#45;&gt;Node8 -->
<g id="edge50" class="edge">
<title>Node1&#45;&gt;Node8</title>
<path fill="none" stroke="midnightblue" d="M961.86,-320.08C1062.29,-316.51 1229.29,-306.28 1370,-277 1462.6,-257.73 1491.5,-259.67 1572,-210 1616.9,-182.29 1665,-157.91 1639,-112 1628.83,-94.03 1608.29,-82.45 1591.28,-75.55"/>
<polygon fill="midnightblue" stroke="midnightblue" points="961.62,-316.59 951.75,-320.43 961.86,-323.59 961.62,-316.59"/>
</g>
<!-- Node9 -->
<g id="node9" class="node">
<title>Node9</title>
<g id="a_node9"><a xlink:href="../../d6/d7d/phonon_8cpp.html" target="_top" xlink:title=" ">
<polygon fill="none" stroke="black" points="737.5,-56.5 737.5,-75.5 854.5,-75.5 854.5,-56.5 737.5,-56.5"/>
<text text-anchor="middle" x="796" y="-63.5" font-family="Helvetica,sans-Serif" font-size="10.00">psim/src/phonon.cpp</text>
</a>
</g>
</g>
<!-- Node1&#45;&gt;Node9 -->
<g id="edge51" class="edge">
<title>Node1&#45;&gt;Node9</title>
<path fill="none" stroke="midnightblue" d="M827.29,-310.03C809.72,-303.13 790.94,-292.64 779,-277 733.98,-218.06 726.8,-181 754,-112 759.96,-96.89 773.65,-83.86 783.79,-75.76"/>
<polygon fill="midnightblue" stroke="midnightblue" points="826.28,-313.38 836.88,-313.49 828.66,-306.8 826.28,-313.38"/>
</g>
<!-- Node11 -->
<g id="node11" class="node">
<title>Node11</title>
<g id="a_node11"><a xlink:href="../../d7/d13/surface_8cpp.html" target="_top" xlink:title=" ">
<polygon fill="none" stroke="black" points="872.5,-56.5 872.5,-75.5 989.5,-75.5 989.5,-56.5 872.5,-56.5"/>
<text text-anchor="middle" x="931" y="-63.5" font-family="Helvetica,sans-Serif" font-size="10.00">psim/src/surface.cpp</text>
</a>
</g>
</g>
<!-- Node1&#45;&gt;Node11 -->
<g id="edge55" class="edge">
<title>Node1&#45;&gt;Node11</title>
<path fill="none" stroke="midnightblue" d="M910.06,-309.96C928.99,-302.61 951.33,-291.75 968,-277 994.32,-253.7 1000.29,-243.78 1010,-210 1013.81,-196.76 1015.36,-191.69 1010,-179 1001.07,-157.86 986.92,-161.24 973,-143 955.99,-120.71 941.52,-90.69 934.89,-75.94"/>
<polygon fill="midnightblue" stroke="midnightblue" points="908.68,-306.74 900.51,-313.48 911.11,-313.3 908.68,-306.74"/>
</g>
<!-- Node12 -->
<g id="node12" class="node">
<title>Node12</title>
<g id="a_node12"><a xlink:href="../../d5/d2e/sensor_8h.html" target="_top" xlink:title=" ">
<polygon fill="none" stroke="black" points="558.5,-185 558.5,-204 707.5,-204 707.5,-185 558.5,-185"/>
<text text-anchor="middle" x="633" y="-192" font-family="Helvetica,sans-Serif" font-size="10.00">psim/include/psim/sensor.h</text>
</a>
</g>
</g>
<!-- Node1&#45;&gt;Node12 -->
<g id="edge13" class="edge">
<title>Node1&#45;&gt;Node12</title>
<path fill="none" stroke="midnightblue" d="M813.48,-311.14C784.4,-304.14 749.48,-293.25 721,-277 685.91,-256.99 653.47,-220.5 639.81,-204"/>
<polygon fill="midnightblue" stroke="midnightblue" points="812.97,-314.61 823.5,-313.45 814.54,-307.79 812.97,-314.61"/>
</g>
<!-- Node16 -->
<g id="node16" class="node">
<title>Node16</title>
<g id="a_node16"><a xlink:href="../../d1/d97/sensorInterpreter_8cpp.html" target="_top" xlink:title=" ">
<polygon fill="none" stroke="black" points="140,-56.5 140,-75.5 304,-75.5 304,-56.5 140,-56.5"/>
<text text-anchor="middle" x="222" y="-63.5" font-family="Helvetica,sans-Serif" font-size="10.00">psim/src/sensorInterpreter.cpp</text>
</a>
</g>
</g>
<!-- Node1&#45;&gt;Node16 -->
<g id="edge54" class="edge">
<title>Node1&#45;&gt;Node16</title>
<path fill="none" stroke="midnightblue" d="M792.09,-312.09C738.88,-304.62 667.67,-292.91 606,-277 431.78,-232.05 329.98,-288.39 224,-143 209.23,-122.73 215.28,-90.69 219.38,-75.51"/>
<polygon fill="midnightblue" stroke="midnightblue" points="791.76,-315.58 802.15,-313.49 792.72,-308.65 791.76,-315.58"/>
</g>
<!-- Node17 -->
<g id="node17" class="node">
<title>Node17</title>
<g id="a_node17"><a xlink:href="../../da/dfa/sensor_8cpp.html" target="_top" xlink:title=" ">
<polygon fill="none" stroke="black" points="763.5,-118 763.5,-137 876.5,-137 876.5,-118 763.5,-118"/>
<text text-anchor="middle" x="820" y="-125" font-family="Helvetica,sans-Serif" font-size="10.00">psim/src/sensor.cpp</text>
</a>
</g>
</g>
<!-- Node1&#45;&gt;Node17 -->
<g id="edge52" class="edge">
<title>Node1&#45;&gt;Node17</title>
<path fill="none" stroke="midnightblue" d="M832.31,-309.58C816.91,-302.59 800.86,-292.15 792,-277 764.45,-229.89 800.15,-161.3 814.51,-137.24"/>
<polygon fill="midnightblue" stroke="midnightblue" points="831.17,-312.89 841.75,-313.49 833.85,-306.43 831.17,-312.89"/>
</g>
<!-- Node18 -->
<g id="node18" class="node">
<title>Node18</title>
<g id="a_node18"><a xlink:href="../../da/d16/sensorController_8h.html" target="_top" xlink:title=" ">
<polygon fill="none" stroke="black" points="801.5,-246.5 801.5,-276.5 942.5,-276.5 942.5,-246.5 801.5,-246.5"/>
<text text-anchor="start" x="809.5" y="-264.5" font-family="Helvetica,sans-Serif" font-size="10.00">psim/include/psim/sensor</text>
<text text-anchor="middle" x="872" y="-253.5" font-family="Helvetica,sans-Serif" font-size="10.00">Controller.h</text>
</a>
</g>
</g>
<!-- Node1&#45;&gt;Node18 -->
<g id="edge29" class="edge">
<title>Node1&#45;&gt;Node18</title>
<path fill="none" stroke="midnightblue" d="M872,-303.23C872,-294.59 872,-284.5 872,-276.52"/>
<polygon fill="midnightblue" stroke="midnightblue" points="868.5,-303.48 872,-313.48 875.5,-303.48 868.5,-303.48"/>
</g>
<!-- Node19 -->
<g id="node19" class="node">
<title>Node19</title>
<g id="a_node19"><a xlink:href="../../d8/db6/sensorController_8cpp.html" target="_top" xlink:title=" ">
<polygon fill="none" stroke="black" points="839.5,-185 839.5,-204 1000.5,-204 1000.5,-185 839.5,-185"/>
<text text-anchor="middle" x="920" y="-192" font-family="Helvetica,sans-Serif" font-size="10.00">psim/src/sensorController.cpp</text>
</a>
</g>
</g>
<!-- Node1&#45;&gt;Node19 -->
<g id="edge53" class="edge">
<title>Node1&#45;&gt;Node19</title>
<path fill="none" stroke="midnightblue" d="M911.69,-309.58C927.09,-302.59 943.14,-292.15 952,-277 966.43,-252.33 942.41,-219.94 928.63,-204.47"/>
<polygon fill="midnightblue" stroke="midnightblue" points="910.15,-306.43 902.25,-313.49 912.83,-312.89 910.15,-306.43"/>
</g>
<!-- Node20 -->
<g id="node20" class="node">
<title>Node20</title>
<g id="a_node20"><a xlink:href="../../d2/d69/surface_8h.html" target="_top" xlink:title=" ">
<polygon fill="none" stroke="black" points="1207,-252 1207,-271 1361,-271 1361,-252 1207,-252"/>
<text text-anchor="middle" x="1284" y="-259" font-family="Helvetica,sans-Serif" font-size="10.00">psim/include/psim/surface.h</text>
</a>
</g>
</g>
<!-- Node1&#45;&gt;Node20 -->
<g id="edge33" class="edge">
<title>Node1&#45;&gt;Node20</title>
<path fill="none" stroke="midnightblue" d="M940.96,-312.04C1020.53,-300.55 1150.02,-281.85 1225.08,-271.01"/>
<polygon fill="midnightblue" stroke="midnightblue" points="940.43,-308.58 931.03,-313.48 941.43,-315.51 940.43,-308.58"/>
</g>
<!-- Node23 -->
<g id="node23" class="node">
<title>Node23</title>
<g id="a_node23"><a xlink:href="../../d7/d5c/material_8cpp.html" target="_top" xlink:title=" ">
<polygon fill="none" stroke="black" points="1707,-252 1707,-271 1829,-271 1829,-252 1707,-252"/>
<text text-anchor="middle" x="1768" y="-259" font-family="Helvetica,sans-Serif" font-size="10.00">psim/src/material.cpp</text>
</a>
</g>
</g>
<!-- Node1&#45;&gt;Node23 -->
<g id="edge48" class="edge">
<title>Node1&#45;&gt;Node23</title>
<path fill="none" stroke="midnightblue" d="M961.74,-321.07C1113.09,-318.62 1428.48,-309.66 1693,-277 1704.85,-275.54 1717.63,-273.31 1729.23,-271.04"/>
<polygon fill="midnightblue" stroke="midnightblue" points="961.52,-317.58 951.57,-321.23 961.63,-324.58 961.52,-317.58"/>
</g>
<!-- Node2&#45;&gt;Node3 -->
<g id="edge2" class="edge">
<title>Node2&#45;&gt;Node3</title>
<path fill="none" stroke="midnightblue" d="M1015.15,-119.47C887.23,-107.92 634.25,-85.08 508.53,-73.73"/>
<polygon fill="midnightblue" stroke="midnightblue" points="1014.99,-122.97 1025.27,-120.38 1015.62,-116 1014.99,-122.97"/>
</g>
<!-- Node2&#45;&gt;Node6 -->
<g id="edge7" class="edge">
<title>Node2&#45;&gt;Node6</title>
<path fill="none" stroke="midnightblue" d="M1077.15,-110.21C1059.72,-93.44 1030.04,-68.09 999,-56 928.34,-28.47 708.41,-16.89 604.05,-12.84"/>
<polygon fill="midnightblue" stroke="midnightblue" points="1075.11,-113.12 1084.68,-117.66 1080.04,-108.14 1075.11,-113.12"/>
</g>
<!-- Node2&#45;&gt;Node7 -->
<g id="edge6" class="edge">
<title>Node2&#45;&gt;Node7</title>
<path fill="none" stroke="midnightblue" d="M1127.45,-114.58C1160.88,-103.02 1210.79,-85.75 1240.4,-75.51"/>
<polygon fill="midnightblue" stroke="midnightblue" points="1125.95,-111.4 1117.64,-117.98 1128.24,-118.01 1125.95,-111.4"/>
</g>
<!-- Node2&#45;&gt;Node8 -->
<g id="edge8" class="edge">
<title>Node2&#45;&gt;Node8</title>
<path fill="none" stroke="midnightblue" d="M1170.45,-116.72C1261.29,-105.24 1410.4,-86.4 1496.64,-75.51"/>
<polygon fill="midnightblue" stroke="midnightblue" points="1169.97,-113.25 1160.48,-117.98 1170.84,-120.19 1169.97,-113.25"/>
</g>
<!-- Node2&#45;&gt;Node9 -->
<g id="edge9" class="edge">
<title>Node2&#45;&gt;Node9</title>
<path fill="none" stroke="midnightblue" d="M1040.46,-115.97C982.9,-104.44 891.7,-86.17 838.47,-75.51"/>
<polygon fill="midnightblue" stroke="midnightblue" points="1039.95,-119.44 1050.45,-117.98 1041.33,-112.58 1039.95,-119.44"/>
</g>
<!-- Node10 -->
<g id="node10" class="node">
<title>Node10</title>
<g id="a_node10"><a xlink:href="../../d5/d8a/phononBuilder_8cpp.html" target="_top" xlink:title=" ">
<polygon fill="none" stroke="black" points="1046.5,-56.5 1046.5,-75.5 1197.5,-75.5 1197.5,-56.5 1046.5,-56.5"/>
<text text-anchor="middle" x="1122" y="-63.5" font-family="Helvetica,sans-Serif" font-size="10.00">psim/src/phononBuilder.cpp</text>
</a>
</g>
</g>
<!-- Node2&#45;&gt;Node10 -->
<g id="edge10" class="edge">
<title>Node2&#45;&gt;Node10</title>
<path fill="none" stroke="midnightblue" d="M1101.61,-108.83C1106.97,-97.83 1113.63,-84.16 1117.85,-75.51"/>
<polygon fill="midnightblue" stroke="midnightblue" points="1098.39,-107.45 1097.15,-117.98 1104.68,-110.52 1098.39,-107.45"/>
</g>
<!-- Node2&#45;&gt;Node11 -->
<g id="edge11" class="edge">
<title>Node2&#45;&gt;Node11</title>
<path fill="none" stroke="midnightblue" d="M1060.15,-114.43C1028.66,-102.87 981.94,-85.71 954.17,-75.51"/>
<polygon fill="midnightblue" stroke="midnightblue" points="1059.2,-117.81 1069.79,-117.98 1061.61,-111.24 1059.2,-117.81"/>
</g>
<!-- Node3&#45;&gt;Node4 -->
<g id="edge3" class="edge">
<title>Node3&#45;&gt;Node4</title>
<path fill="none" stroke="midnightblue" d="M366.78,-54.92C298.77,-44.71 194.78,-29.12 130.78,-19.52"/>
<polygon fill="midnightblue" stroke="midnightblue" points="366.55,-58.42 376.96,-56.44 367.59,-51.5 366.55,-58.42"/>
</g>
<!-- Node5 -->
<g id="node5" class="node">
<title>Node5</title>
<g id="a_node5"><a xlink:href="../../df/d0a/main_8cpp.html" target="_top" xlink:title=" ">
<polygon fill="none" stroke="black" points="368,-0.5 368,-19.5 474,-19.5 474,-0.5 368,-0.5"/>
<text text-anchor="middle" x="421" y="-7.5" font-family="Helvetica,sans-Serif" font-size="10.00">psim/src/main.cpp</text>
</a>
</g>
</g>
<!-- Node3&#45;&gt;Node5 -->
<g id="edge4" class="edge">
<title>Node3&#45;&gt;Node5</title>
<path fill="none" stroke="midnightblue" d="M429.45,-46.1C427.29,-37.14 424.82,-26.86 423.11,-19.75"/>
<polygon fill="midnightblue" stroke="midnightblue" points="426.11,-47.18 431.85,-56.08 432.92,-45.54 426.11,-47.18"/>
</g>
<!-- Node3&#45;&gt;Node6 -->
<g id="edge5" class="edge">
<title>Node3&#45;&gt;Node6</title>
<path fill="none" stroke="midnightblue" d="M461.24,-52.1C482.54,-42.01 511.54,-28.27 530.02,-19.52"/>
<polygon fill="midnightblue" stroke="midnightblue" points="459.6,-49 452.06,-56.44 462.6,-55.33 459.6,-49"/>
</g>
<!-- Node12&#45;&gt;Node2 -->
<g id="edge14" class="edge">
<title>Node12&#45;&gt;Node2</title>
<path fill="none" stroke="midnightblue" d="M703.73,-183.51C793.78,-170.78 947.83,-149.01 1032.62,-137.03"/>
<polygon fill="midnightblue" stroke="midnightblue" points="703.02,-180.07 693.61,-184.94 704,-187 703.02,-180.07"/>
</g>
<!-- Node12&#45;&gt;Node3 -->
<g id="edge15" class="edge">
<title>Node12&#45;&gt;Node3</title>
<path fill="none" stroke="midnightblue" d="M569.77,-182.52C540.77,-175.07 507.29,-162.84 482,-143 458.55,-124.6 443.37,-91.35 437.18,-75.65"/>
<polygon fill="midnightblue" stroke="midnightblue" points="569.28,-186 579.82,-184.96 570.93,-179.2 569.28,-186"/>
</g>
<!-- Node12&#45;&gt;Node4 -->
<g id="edge25" class="edge">
<title>Node12&#45;&gt;Node4</title>
<path fill="none" stroke="midnightblue" d="M548.33,-188.01C446.26,-180.54 281.29,-165.46 224,-143 156.18,-116.41 98.69,-44.62 80.22,-19.68"/>
<polygon fill="midnightblue" stroke="midnightblue" points="548.09,-191.5 558.32,-188.73 548.59,-184.52 548.09,-191.5"/>
</g>
<!-- Node12&#45;&gt;Node7 -->
<g id="edge24" class="edge">
<title>Node12&#45;&gt;Node7</title>
<path fill="none" stroke="midnightblue" d="M649.56,-178.18C671.54,-158.88 712.44,-126.51 754,-112 944.67,-45.4 1006.4,-99.5 1207,-76 1209.94,-75.66 1212.95,-75.27 1215.99,-74.87"/>
<polygon fill="midnightblue" stroke="midnightblue" points="647.21,-175.58 642.1,-184.87 651.88,-180.8 647.21,-175.58"/>
</g>
<!-- Node13 -->
<g id="node13" class="node">
<title>Node13</title>
<g id="a_node13"><a xlink:href="../../df/d92/outputManager_8h.html" target="_top" xlink:title=" ">
<polygon fill="none" stroke="black" points="491,-112.5 491,-142.5 631,-142.5 631,-112.5 491,-112.5"/>
<text text-anchor="start" x="499" y="-130.5" font-family="Helvetica,sans-Serif" font-size="10.00">psim/include/psim/output</text>
<text text-anchor="middle" x="561" y="-119.5" font-family="Helvetica,sans-Serif" font-size="10.00">Manager.h</text>
</a>
</g>
</g>
<!-- Node12&#45;&gt;Node13 -->
<g id="edge16" class="edge">
<title>Node12&#45;&gt;Node13</title>
<path fill="none" stroke="midnightblue" d="M615.75,-177.93C603.84,-167.18 588.14,-153 576.61,-142.59"/>
<polygon fill="midnightblue" stroke="midnightblue" points="613.52,-180.63 623.29,-184.73 618.21,-175.43 613.52,-180.63"/>
</g>
<!-- Node14 -->
<g id="node14" class="node">
<title>Node14</title>
<g id="a_node14"><a xlink:href="../../d4/d91/outputManager_8cpp.html" target="_top" xlink:title=" ">
<polygon fill="none" stroke="black" points="564.5,-56.5 564.5,-75.5 719.5,-75.5 719.5,-56.5 564.5,-56.5"/>
<text text-anchor="middle" x="642" y="-63.5" font-family="Helvetica,sans-Serif" font-size="10.00">psim/src/outputManager.cpp</text>
</a>
</g>
</g>
<!-- Node12&#45;&gt;Node14 -->
<g id="edge26" class="edge">
<title>Node12&#45;&gt;Node14</title>
<path fill="none" stroke="midnightblue" d="M636.06,-175.03C637.52,-165.49 639.12,-153.65 640,-143 641.99,-118.8 642.15,-90.12 642.09,-75.91"/>
<polygon fill="midnightblue" stroke="midnightblue" points="632.6,-174.53 634.48,-184.95 639.51,-175.63 632.6,-174.53"/>
</g>
<!-- Node15 -->
<g id="node15" class="node">
<title>Node15</title>
<g id="a_node15"><a xlink:href="../../d6/d53/sensorInterpreter_8h.html" target="_top" xlink:title=" ">
<polygon fill="none" stroke="black" points="255.5,-112.5 255.5,-142.5 396.5,-142.5 396.5,-112.5 255.5,-112.5"/>
<text text-anchor="start" x="263.5" y="-130.5" font-family="Helvetica,sans-Serif" font-size="10.00">psim/include/psim/sensor</text>
<text text-anchor="middle" x="326" y="-119.5" font-family="Helvetica,sans-Serif" font-size="10.00">Interpreter.h</text>
</a>
</g>
</g>
<!-- Node12&#45;&gt;Node15 -->
<g id="edge20" class="edge">
<title>Node12&#45;&gt;Node15</title>
<path fill="none" stroke="midnightblue" d="M582.57,-182.82C530.66,-171.83 449.51,-154.65 392.4,-142.56"/>
<polygon fill="midnightblue" stroke="midnightblue" points="582.04,-186.29 592.55,-184.94 583.49,-179.44 582.04,-186.29"/>
</g>
<!-- Node12&#45;&gt;Node16 -->
<g id="edge28" class="edge">
<title>Node12&#45;&gt;Node16</title>
<path fill="none" stroke="midnightblue" d="M548.24,-192.8C448.39,-190.25 290.44,-180.23 246,-143 225.64,-125.94 222.32,-91.72 221.93,-75.68"/>
<polygon fill="midnightblue" stroke="midnightblue" points="548.24,-196.31 558.32,-193.04 548.4,-189.31 548.24,-196.31"/>
</g>
<!-- Node12&#45;&gt;Node17 -->
<g id="edge27" class="edge">
<title>Node12&#45;&gt;Node17</title>
<path fill="none" stroke="midnightblue" d="M667.71,-181.44C704.8,-168.54 762.68,-148.42 795.36,-137.06"/>
<polygon fill="midnightblue" stroke="midnightblue" points="666.13,-178.28 657.83,-184.87 668.43,-184.89 666.13,-178.28"/>
</g>
<!-- Node13&#45;&gt;Node3 -->
<g id="edge17" class="edge">
<title>Node13&#45;&gt;Node3</title>
<path fill="none" stroke="midnightblue" d="M521.69,-108.08C498.62,-97.28 470.55,-84.12 452.48,-75.66"/>
<polygon fill="midnightblue" stroke="midnightblue" points="520.36,-111.33 530.9,-112.4 523.33,-104.99 520.36,-111.33"/>
</g>
<!-- Node13&#45;&gt;Node6 -->
<g id="edge18" class="edge">
<title>Node13&#45;&gt;Node6</title>
<path fill="none" stroke="midnightblue" d="M558.06,-102.19C557.07,-93.89 555.97,-84.54 555,-76 552.73,-55.93 550.23,-32.34 548.92,-19.83"/>
<polygon fill="midnightblue" stroke="midnightblue" points="554.61,-102.84 559.28,-112.36 561.56,-102.01 554.61,-102.84"/>
</g>
<!-- Node13&#45;&gt;Node14 -->
<g id="edge19" class="edge">
<title>Node13&#45;&gt;Node14</title>
<path fill="none" stroke="midnightblue" d="M588.65,-106.19C602.83,-95.77 619.36,-83.63 630.21,-75.66"/>
<polygon fill="midnightblue" stroke="midnightblue" points="586.18,-103.66 580.2,-112.4 590.33,-109.3 586.18,-103.66"/>
</g>
<!-- Node15&#45;&gt;Node3 -->
<g id="edge21" class="edge">
<title>Node15&#45;&gt;Node3</title>
<path fill="none" stroke="midnightblue" d="M360.48,-107.51C379.89,-96.81 403.19,-83.97 418.29,-75.66"/>
<polygon fill="midnightblue" stroke="midnightblue" points="358.66,-104.51 351.59,-112.4 362.04,-110.64 358.66,-104.51"/>
</g>
<!-- Node15&#45;&gt;Node6 -->
<g id="edge22" class="edge">
<title>Node15&#45;&gt;Node6</title>
<path fill="none" stroke="midnightblue" d="M328.23,-102.48C330.93,-87.07 336.88,-67.81 350,-56 361.1,-46 444.3,-29.52 499.26,-19.52"/>
<polygon fill="midnightblue" stroke="midnightblue" points="324.77,-102 326.84,-112.39 331.7,-102.97 324.77,-102"/>
</g>
<!-- Node15&#45;&gt;Node16 -->
<g id="edge23" class="edge">
<title>Node15&#45;&gt;Node16</title>
<path fill="none" stroke="midnightblue" d="M292.55,-107.36C273.9,-96.69 251.6,-83.93 237.13,-75.66"/>
<polygon fill="midnightblue" stroke="midnightblue" points="290.94,-110.47 301.35,-112.4 294.41,-104.4 290.94,-110.47"/>
</g>
<!-- Node18&#45;&gt;Node12 -->
<g id="edge30" class="edge">
<title>Node18&#45;&gt;Node12</title>
<path fill="none" stroke="midnightblue" d="M810.71,-243.83C763.93,-231.11 701.41,-214.11 664.36,-204.03"/>
<polygon fill="midnightblue" stroke="midnightblue" points="809.87,-247.23 820.43,-246.48 811.7,-240.47 809.87,-247.23"/>
</g>
<!-- Node18&#45;&gt;Node17 -->
<g id="edge31" class="edge">
<title>Node18&#45;&gt;Node17</title>
<path fill="none" stroke="midnightblue" d="M849.27,-238.77C841.93,-230.47 834.53,-220.47 830,-210 819.26,-185.14 818.95,-152.29 819.51,-137"/>
<polygon fill="midnightblue" stroke="midnightblue" points="846.8,-241.25 856.19,-246.16 851.91,-236.47 846.8,-241.25"/>
</g>
<!-- Node18&#45;&gt;Node19 -->
<g id="edge32" class="edge">
<title>Node18&#45;&gt;Node19</title>
<path fill="none" stroke="midnightblue" d="M888.38,-238.32C897.04,-226.6 907.16,-212.88 913.58,-204.19"/>
<polygon fill="midnightblue" stroke="midnightblue" points="885.54,-236.27 882.42,-246.4 891.17,-240.43 885.54,-236.27"/>
</g>
<!-- Node20&#45;&gt;Node6 -->
<g id="edge42" class="edge">
<title>Node20&#45;&gt;Node6</title>
<path fill="none" stroke="midnightblue" d="M1291.15,-242.33C1308.28,-197.42 1348.38,-82.89 1323,-56 1298.37,-29.9 778.21,-16.08 604.17,-12.17"/>
<polygon fill="midnightblue" stroke="midnightblue" points="1287.87,-241.12 1287.52,-251.71 1294.4,-243.64 1287.87,-241.12"/>
</g>
<!-- Node20&#45;&gt;Node7 -->
<g id="edge40" class="edge">
<title>Node20&#45;&gt;Node7</title>
<path fill="none" stroke="midnightblue" d="M1282.16,-241.79C1278.16,-201.03 1268.78,-105.51 1265.87,-75.91"/>
<polygon fill="midnightblue" stroke="midnightblue" points="1278.7,-242.33 1283.16,-251.94 1285.67,-241.64 1278.7,-242.33"/>
</g>
<!-- Node20&#45;&gt;Node8 -->
<g id="edge43" class="edge">
<title>Node20&#45;&gt;Node8</title>
<path fill="none" stroke="midnightblue" d="M1370.03,-250.44C1416.61,-243.01 1474.4,-230.5 1523,-210 1572.29,-189.2 1597.81,-190.2 1623,-143 1629.49,-130.85 1629.11,-124.35 1623,-112 1614.71,-95.26 1596.89,-83.05 1582.98,-75.6"/>
<polygon fill="midnightblue" stroke="midnightblue" points="1369.32,-247.01 1359.97,-252 1370.39,-253.93 1369.32,-247.01"/>
</g>
<!-- Node20&#45;&gt;Node10 -->
<g id="edge44" class="edge">
<title>Node20&#45;&gt;Node10</title>
<path fill="none" stroke="midnightblue" d="M1272.19,-243.3C1252.37,-214.88 1210.59,-156.79 1170,-112 1157.73,-98.46 1142.05,-84.26 1132.01,-75.52"/>
<polygon fill="midnightblue" stroke="midnightblue" points="1269.46,-245.51 1278.03,-251.74 1275.22,-241.53 1269.46,-245.51"/>
</g>
<!-- Node20&#45;&gt;Node11 -->
<g id="edge45" class="edge">
<title>Node20&#45;&gt;Node11</title>
<path fill="none" stroke="midnightblue" d="M1248.01,-248.69C1195.01,-230.42 1093.95,-192.23 1017,-143 985.45,-122.81 953.86,-91.29 939.3,-75.97"/>
<polygon fill="midnightblue" stroke="midnightblue" points="1247.04,-252.05 1257.64,-251.97 1249.3,-245.43 1247.04,-252.05"/>
</g>
<!-- Node21 -->
<g id="node21" class="node">
<title>Node21</title>
<g id="a_node21"><a xlink:href="../../d8/d77/compositeSurface_8h.html" target="_top" xlink:title=" ">
<polygon fill="none" stroke="black" points="1331,-179.5 1331,-209.5 1491,-209.5 1491,-179.5 1331,-179.5"/>
<text text-anchor="start" x="1339" y="-197.5" font-family="Helvetica,sans-Serif" font-size="10.00">psim/include/psim/composite</text>
<text text-anchor="middle" x="1411" y="-186.5" font-family="Helvetica,sans-Serif" font-size="10.00">Surface.h</text>
</a>
</g>
</g>
<!-- Node20&#45;&gt;Node21 -->
<g id="edge34" class="edge">
<title>Node20&#45;&gt;Node21</title>
<path fill="none" stroke="midnightblue" d="M1310,-247.19C1331.36,-236.26 1361.55,-220.81 1383.35,-209.65"/>
<polygon fill="midnightblue" stroke="midnightblue" points="1308.17,-244.2 1300.86,-251.87 1311.36,-250.43 1308.17,-244.2"/>
</g>
<!-- Node22 -->
<g id="node22" class="node">
<title>Node22</title>
<g id="a_node22"><a xlink:href="../../dc/d09/compositeSurface_8cpp.html" target="_top" xlink:title=" ">
<polygon fill="none" stroke="black" points="1444.5,-118 1444.5,-137 1613.5,-137 1613.5,-118 1444.5,-118"/>
<text text-anchor="middle" x="1529" y="-125" font-family="Helvetica,sans-Serif" font-size="10.00">psim/src/compositeSurface.cpp</text>
</a>
</g>
</g>
<!-- Node20&#45;&gt;Node22 -->
<g id="edge41" class="edge">
<title>Node20&#45;&gt;Node22</title>
<path fill="none" stroke="midnightblue" d="M1361.07,-250.4C1414.45,-241.96 1479.46,-228.35 1500,-210 1521.72,-190.59 1527.18,-153.79 1528.54,-137.11"/>
<polygon fill="midnightblue" stroke="midnightblue" points="1360.25,-246.98 1350.9,-251.97 1361.32,-253.9 1360.25,-246.98"/>
</g>
<!-- Node21&#45;&gt;Node2 -->
<g id="edge35" class="edge">
<title>Node21&#45;&gt;Node2</title>
<path fill="none" stroke="midnightblue" d="M1332.55,-177.47C1270,-164.68 1184.85,-147.27 1134.72,-137.03"/>
<polygon fill="midnightblue" stroke="midnightblue" points="1331.89,-180.9 1342.39,-179.48 1333.29,-174.04 1331.89,-180.9"/>
</g>
<!-- Node21&#45;&gt;Node6 -->
<g id="edge38" class="edge">
<title>Node21&#45;&gt;Node6</title>
<path fill="none" stroke="midnightblue" d="M1408.96,-168.98C1404.87,-137.07 1392.61,-82.3 1356,-56 1295.31,-12.4 777.45,-10.19 604.2,-10.69"/>
<polygon fill="midnightblue" stroke="midnightblue" points="1405.52,-169.67 1410.1,-179.23 1412.48,-168.9 1405.52,-169.67"/>
</g>
<!-- Node21&#45;&gt;Node7 -->
<g id="edge36" class="edge">
<title>Node21&#45;&gt;Node7</title>
<path fill="none" stroke="midnightblue" d="M1387.13,-172.82C1354.7,-144.72 1298.13,-95.7 1275.14,-75.79"/>
<polygon fill="midnightblue" stroke="midnightblue" points="1384.97,-175.58 1394.82,-179.48 1389.55,-170.29 1384.97,-175.58"/>
</g>
<!-- Node21&#45;&gt;Node8 -->
<g id="edge39" class="edge">
<title>Node21&#45;&gt;Node8</title>
<path fill="none" stroke="midnightblue" d="M1412.65,-169.47C1415.11,-151.49 1421.16,-127.45 1436,-112 1454.36,-92.89 1481.3,-81.88 1505.73,-75.55"/>
<polygon fill="midnightblue" stroke="midnightblue" points="1409.16,-169.17 1411.56,-179.49 1416.12,-169.93 1409.16,-169.17"/>
</g>
<!-- Node21&#45;&gt;Node22 -->
<g id="edge37" class="edge">
<title>Node21&#45;&gt;Node22</title>
<path fill="none" stroke="midnightblue" d="M1445.54,-174.47C1468.07,-162.06 1496.37,-146.47 1513.56,-137.01"/>
<polygon fill="midnightblue" stroke="midnightblue" points="1443.67,-171.51 1436.6,-179.4 1447.05,-177.64 1443.67,-171.51"/>
</g>
</g>
</svg>
