<?xml version="1.0" encoding="UTF-8" standalone="no"?>
<!DOCTYPE svg PUBLIC "-//W3C//DTD SVG 1.1//EN"
 "http://www.w3.org/Graphics/SVG/1.1/DTD/svg11.dtd">
<!-- Generated by graphviz version 2.43.0 (0)
 -->
<!-- Title: psim/src/compositeSurface.cpp Pages: 1 -->
<svg width="865pt" height="308pt"
 viewBox="0.00 0.00 865.09 308.00" xmlns="http://www.w3.org/2000/svg" xmlns:xlink="http://www.w3.org/1999/xlink">
<g id="graph0" class="graph" transform="scale(1 1) rotate(0) translate(4 304)">
<title>psim/src/compositeSurface.cpp</title>
<!-- Node1 -->
<g id="node1" class="node">
<title>Node1</title>
<g id="a_node1"><a xlink:title=" ">
<polygon fill="#bfbfbf" stroke="black" points="439.59,-280.5 439.59,-299.5 608.59,-299.5 608.59,-280.5 439.59,-280.5"/>
<text text-anchor="middle" x="524.09" y="-287.5" font-family="Helvetica,sans-Serif" font-size="10.00">psim/src/compositeSurface.cpp</text>
</a>
</g>
</g>
<!-- Node2 -->
<g id="node2" class="node">
<title>Node2</title>
<g id="a_node2"><a xlink:href="../../d8/d77/compositeSurface_8h.html" target="_top" xlink:title=" ">
<polygon fill="none" stroke="black" points="313.09,-224.5 313.09,-243.5 453.09,-243.5 453.09,-224.5 313.09,-224.5"/>
<text text-anchor="middle" x="383.09" y="-231.5" font-family="Helvetica,sans-Serif" font-size="10.00">psim/compositeSurface.h</text>
</a>
</g>
</g>
<!-- Node1&#45;&gt;Node2 -->
<g id="edge1" class="edge">
<title>Node1&#45;&gt;Node2</title>
<path fill="none" stroke="midnightblue" d="M501.74,-280.44C478.33,-271.48 441.35,-257.31 414.9,-247.18"/>
<polygon fill="midnightblue" stroke="midnightblue" points="415.91,-243.82 405.32,-243.52 413.41,-250.36 415.91,-243.82"/>
</g>
<!-- Node3 -->
<g id="node3" class="node">
<title>Node3</title>
<g id="a_node3"><a xlink:href="../../d4/d67/geometry_8h.html" target="_top" xlink:title=" ">
<polygon fill="none" stroke="black" points="440.59,-112.5 440.59,-131.5 511.59,-131.5 511.59,-112.5 440.59,-112.5"/>
<text text-anchor="middle" x="476.09" y="-119.5" font-family="Helvetica,sans-Serif" font-size="10.00">geometry.h</text>
</a>
</g>
</g>
<!-- Node1&#45;&gt;Node3 -->
<g id="edge27" class="edge">
<title>Node1&#45;&gt;Node3</title>
<path fill="none" stroke="midnightblue" d="M521.5,-280.08C513.95,-253.95 491.76,-177.21 481.46,-141.58"/>
<polygon fill="midnightblue" stroke="midnightblue" points="484.7,-140.2 478.56,-131.57 477.98,-142.15 484.7,-140.2"/>
</g>
<!-- Node8 -->
<g id="node8" class="node">
<title>Node8</title>
<g id="a_node8"><a xlink:title=" ">
<polygon fill="none" stroke="#bfbfbf" points="651.09,-56.5 651.09,-75.5 695.09,-75.5 695.09,-56.5 651.09,-56.5"/>
<text text-anchor="middle" x="673.09" y="-63.5" font-family="Helvetica,sans-Serif" font-size="10.00">string</text>
</a>
</g>
</g>
<!-- Node1&#45;&gt;Node8 -->
<g id="edge33" class="edge">
<title>Node1&#45;&gt;Node8</title>
<path fill="none" stroke="midnightblue" d="M528.78,-280.45C535.73,-267.88 549.34,-243.78 562.09,-224 595.85,-171.58 639.43,-112.07 660.54,-83.73"/>
<polygon fill="midnightblue" stroke="midnightblue" points="663.38,-85.78 666.56,-75.67 657.77,-81.59 663.38,-85.78"/>
</g>
<!-- Node10 -->
<g id="node10" class="node">
<title>Node10</title>
<g id="a_node10"><a xlink:title=" ">
<polygon fill="none" stroke="#bfbfbf" points="87.59,-0.5 87.59,-19.5 132.59,-19.5 132.59,-0.5 87.59,-0.5"/>
<text text-anchor="middle" x="110.09" y="-7.5" font-family="Helvetica,sans-Serif" font-size="10.00">utility</text>
</a>
</g>
</g>
<!-- Node1&#45;&gt;Node10 -->
<g id="edge34" class="edge">
<title>Node1&#45;&gt;Node10</title>
<path fill="none" stroke="midnightblue" d="M439.31,-288.48C291.01,-285.27 0.09,-267.66 0.09,-179 0.09,-179 0.09,-179 0.09,-121 0.09,-90.9 -0.26,-79.06 19.09,-56 34.13,-38.06 58.07,-26.62 77.61,-19.77"/>
<polygon fill="midnightblue" stroke="midnightblue" points="78.94,-23.02 87.37,-16.59 76.77,-16.36 78.94,-23.02"/>
</g>
<!-- Node11 -->
<g id="node11" class="node">
<title>Node11</title>
<g id="a_node11"><a xlink:href="../../d2/d69/surface_8h.html" target="_top" xlink:title=" ">
<polygon fill="none" stroke="black" points="235.09,-168.5 235.09,-187.5 297.09,-187.5 297.09,-168.5 235.09,-168.5"/>
<text text-anchor="middle" x="266.09" y="-175.5" font-family="Helvetica,sans-Serif" font-size="10.00">surface.h</text>
</a>
</g>
</g>
<!-- Node1&#45;&gt;Node11 -->
<g id="edge28" class="edge">
<title>Node1&#45;&gt;Node11</title>
<path fill="none" stroke="midnightblue" d="M450.51,-280.47C395.99,-272.97 327.3,-260.63 304.09,-244 288.18,-232.6 277.89,-212.32 272.08,-197.43"/>
<polygon fill="midnightblue" stroke="midnightblue" points="275.28,-195.99 268.62,-187.75 268.69,-198.34 275.28,-195.99"/>
</g>
<!-- Node15 -->
<g id="node15" class="node">
<title>Node15</title>
<g id="a_node15"><a xlink:title=" ">
<polygon fill="none" stroke="#bfbfbf" points="28.59,-56.5 28.59,-75.5 75.59,-75.5 75.59,-56.5 28.59,-56.5"/>
<text text-anchor="middle" x="52.09" y="-63.5" font-family="Helvetica,sans-Serif" font-size="10.00">vector</text>
</a>
</g>
</g>
<!-- Node1&#45;&gt;Node15 -->
<g id="edge35" class="edge">
<title>Node1&#45;&gt;Node15</title>
<path fill="none" stroke="midnightblue" d="M440.52,-280.48C393.26,-273.92 333.69,-262.71 283.09,-244 195.06,-211.46 172.9,-195.8 104.09,-132 88.41,-117.47 73.5,-98.04 63.69,-84.22"/>
<polygon fill="midnightblue" stroke="midnightblue" points="66.35,-81.9 57.77,-75.67 60.59,-85.88 66.35,-81.9"/>
</g>
<!-- Node17 -->
<g id="node17" class="node">
<title>Node17</title>
<g id="a_node17"><a xlink:title=" ">
<polygon fill="none" stroke="#bfbfbf" points="571.09,-224.5 571.09,-243.5 635.09,-243.5 635.09,-224.5 571.09,-224.5"/>
<text text-anchor="middle" x="603.09" y="-231.5" font-family="Helvetica,sans-Serif" font-size="10.00">algorithm</text>
</a>
</g>
</g>
<!-- Node1&#45;&gt;Node17 -->
<g id="edge29" class="edge">
<title>Node1&#45;&gt;Node17</title>
<path fill="none" stroke="midnightblue" d="M536.78,-280.32C548.99,-271.98 567.66,-259.21 582.09,-249.35"/>
<polygon fill="midnightblue" stroke="midnightblue" points="584.14,-252.19 590.42,-243.65 580.19,-246.41 584.14,-252.19"/>
</g>
<!-- Node18 -->
<g id="node18" class="node">
<title>Node18</title>
<g id="a_node18"><a xlink:title=" ">
<polygon fill="none" stroke="#bfbfbf" points="653.59,-224.5 653.59,-243.5 706.59,-243.5 706.59,-224.5 653.59,-224.5"/>
<text text-anchor="middle" x="680.09" y="-231.5" font-family="Helvetica,sans-Serif" font-size="10.00">iterator</text>
</a>
</g>
</g>
<!-- Node1&#45;&gt;Node18 -->
<g id="edge30" class="edge">
<title>Node1&#45;&gt;Node18</title>
<path fill="none" stroke="midnightblue" d="M548.8,-280.44C574.93,-271.4 616.35,-257.06 645.66,-246.92"/>
<polygon fill="midnightblue" stroke="midnightblue" points="647.18,-250.1 655.48,-243.52 644.89,-243.48 647.18,-250.1"/>
</g>
<!-- Node19 -->
<g id="node19" class="node">
<title>Node19</title>
<g id="a_node19"><a xlink:title=" ">
<polygon fill="none" stroke="#bfbfbf" points="725.09,-224.5 725.09,-243.5 783.09,-243.5 783.09,-224.5 725.09,-224.5"/>
<text text-anchor="middle" x="754.09" y="-231.5" font-family="Helvetica,sans-Serif" font-size="10.00">memory</text>
</a>
</g>
</g>
<!-- Node1&#45;&gt;Node19 -->
<g id="edge31" class="edge">
<title>Node1&#45;&gt;Node19</title>
<path fill="none" stroke="midnightblue" d="M560.54,-280.48C597.13,-271.93 655.38,-258.29 715.06,-244.24"/>
<polygon fill="midnightblue" stroke="midnightblue" points="716.11,-247.59 725.04,-241.89 714.51,-240.77 716.11,-247.59"/>
</g>
<!-- Node20 -->
<g id="node20" class="node">
<title>Node20</title>
<g id="a_node20"><a xlink:title=" ">
<polygon fill="none" stroke="#bfbfbf" points="801.09,-224.5 801.09,-243.5 857.09,-243.5 857.09,-224.5 801.09,-224.5"/>
<text text-anchor="middle" x="829.09" y="-231.5" font-family="Helvetica,sans-Serif" font-size="10.00">sstream</text>
</a>
</g>
</g>
<!-- Node1&#45;&gt;Node20 -->
<g id="edge32" class="edge">
<title>Node1&#45;&gt;Node20</title>
<path fill="none" stroke="midnightblue" d="M582.34,-280.46C634.55,-272.53 713.42,-259.85 790.92,-244.12"/>
<polygon fill="midnightblue" stroke="midnightblue" points="791.76,-247.53 800.85,-242.09 790.35,-240.67 791.76,-247.53"/>
</g>
<!-- Node2&#45;&gt;Node3 -->
<g id="edge2" class="edge">
<title>Node2&#45;&gt;Node3</title>
<path fill="none" stroke="midnightblue" d="M386.73,-224.36C392.52,-211.25 404.76,-185.99 420.09,-168 429.92,-156.46 443.03,-145.74 454.1,-137.66"/>
<polygon fill="midnightblue" stroke="midnightblue" points="456.28,-140.4 462.43,-131.78 452.24,-134.68 456.28,-140.4"/>
</g>
<!-- Node5 -->
<g id="node5" class="node">
<title>Node5</title>
<g id="a_node5"><a xlink:title=" ">
<polygon fill="none" stroke="#bfbfbf" points="379.59,-56.5 379.59,-75.5 444.59,-75.5 444.59,-56.5 379.59,-56.5"/>
<text text-anchor="middle" x="412.09" y="-63.5" font-family="Helvetica,sans-Serif" font-size="10.00">exception</text>
</a>
</g>
</g>
<!-- Node2&#45;&gt;Node5 -->
<g id="edge22" class="edge">
<title>Node2&#45;&gt;Node5</title>
<path fill="none" stroke="midnightblue" d="M384.64,-224.08C389.21,-197.95 402.62,-121.21 408.84,-85.58"/>
<polygon fill="midnightblue" stroke="midnightblue" points="412.32,-86.02 410.59,-75.57 405.42,-84.82 412.32,-86.02"/>
</g>
<!-- Node2&#45;&gt;Node8 -->
<g id="edge24" class="edge">
<title>Node2&#45;&gt;Node8</title>
<path fill="none" stroke="midnightblue" d="M409.3,-224.37C430.9,-216.62 461.81,-204 486.09,-188 527.3,-160.83 525.73,-138.95 567.09,-112 590.33,-96.86 619.51,-84.91 641.37,-77.14"/>
<polygon fill="midnightblue" stroke="midnightblue" points="642.54,-80.44 650.85,-73.87 640.26,-73.82 642.54,-80.44"/>
</g>
<!-- Node9 -->
<g id="node9" class="node">
<title>Node9</title>
<g id="a_node9"><a xlink:title=" ">
<polygon fill="none" stroke="#bfbfbf" points="288.59,-56.5 288.59,-75.5 361.59,-75.5 361.59,-56.5 288.59,-56.5"/>
<text text-anchor="middle" x="325.09" y="-63.5" font-family="Helvetica,sans-Serif" font-size="10.00">string_view</text>
</a>
</g>
</g>
<!-- Node2&#45;&gt;Node9 -->
<g id="edge25" class="edge">
<title>Node2&#45;&gt;Node9</title>
<path fill="none" stroke="midnightblue" d="M379.97,-224.08C370.8,-197.83 343.79,-120.55 331.42,-85.12"/>
<polygon fill="midnightblue" stroke="midnightblue" points="334.68,-83.85 328.08,-75.57 328.07,-86.16 334.68,-83.85"/>
</g>
<!-- Node2&#45;&gt;Node11 -->
<g id="edge10" class="edge">
<title>Node2&#45;&gt;Node11</title>
<path fill="none" stroke="midnightblue" d="M364.55,-224.44C345.46,-215.64 315.51,-201.81 293.65,-191.72"/>
<polygon fill="midnightblue" stroke="midnightblue" points="295.08,-188.53 284.54,-187.52 292.15,-194.88 295.08,-188.53"/>
</g>
<!-- Node2&#45;&gt;Node15 -->
<g id="edge26" class="edge">
<title>Node2&#45;&gt;Node15</title>
<path fill="none" stroke="midnightblue" d="M339.05,-224.45C306.78,-217.23 262.46,-205.27 226.09,-188 164.07,-158.55 100.02,-107.75 69.85,-82.37"/>
<polygon fill="midnightblue" stroke="midnightblue" points="71.82,-79.45 61.94,-75.64 67.29,-84.79 71.82,-79.45"/>
</g>
<!-- Node16 -->
<g id="node16" class="node">
<title>Node16</title>
<g id="a_node16"><a xlink:title=" ">
<polygon fill="none" stroke="#bfbfbf" points="429.09,-168.5 429.09,-187.5 477.09,-187.5 477.09,-168.5 429.09,-168.5"/>
<text text-anchor="middle" x="453.09" y="-175.5" font-family="Helvetica,sans-Serif" font-size="10.00">iosfwd</text>
</a>
</g>
</g>
<!-- Node2&#45;&gt;Node16 -->
<g id="edge23" class="edge">
<title>Node2&#45;&gt;Node16</title>
<path fill="none" stroke="midnightblue" d="M394.33,-224.32C404.88,-216.18 420.89,-203.84 433.53,-194.09"/>
<polygon fill="midnightblue" stroke="midnightblue" points="435.85,-196.71 441.63,-187.83 431.58,-191.17 435.85,-196.71"/>
</g>
<!-- Node4 -->
<g id="node4" class="node">
<title>Node4</title>
<g id="a_node4"><a xlink:title=" ">
<polygon fill="none" stroke="#bfbfbf" points="239.09,-0.5 239.09,-19.5 281.09,-19.5 281.09,-0.5 239.09,-0.5"/>
<text text-anchor="middle" x="260.09" y="-7.5" font-family="Helvetica,sans-Serif" font-size="10.00">array</text>
</a>
</g>
</g>
<!-- Node3&#45;&gt;Node4 -->
<g id="edge3" class="edge">
<title>Node3&#45;&gt;Node4</title>
<path fill="none" stroke="midnightblue" d="M481.38,-112.33C488.92,-98.73 500.45,-72.27 487.09,-56 462.65,-26.25 347.58,-15.82 291.27,-12.46"/>
<polygon fill="midnightblue" stroke="midnightblue" points="291.34,-8.96 281.16,-11.9 290.95,-15.95 291.34,-8.96"/>
</g>
<!-- Node3&#45;&gt;Node5 -->
<g id="edge4" class="edge">
<title>Node3&#45;&gt;Node5</title>
<path fill="none" stroke="midnightblue" d="M465.8,-112.32C456.25,-104.26 441.81,-92.08 430.3,-82.37"/>
<polygon fill="midnightblue" stroke="midnightblue" points="432.46,-79.61 422.56,-75.83 427.94,-84.96 432.46,-79.61"/>
</g>
<!-- Node6 -->
<g id="node6" class="node">
<title>Node6</title>
<g id="a_node6"><a xlink:title=" ">
<polygon fill="none" stroke="#bfbfbf" points="577.09,-56.5 577.09,-75.5 633.09,-75.5 633.09,-56.5 577.09,-56.5"/>
<text text-anchor="middle" x="605.09" y="-63.5" font-family="Helvetica,sans-Serif" font-size="10.00">optional</text>
</a>
</g>
</g>
<!-- Node3&#45;&gt;Node6 -->
<g id="edge5" class="edge">
<title>Node3&#45;&gt;Node6</title>
<path fill="none" stroke="midnightblue" d="M496.53,-112.44C517.76,-103.56 551.18,-89.56 575.34,-79.45"/>
<polygon fill="midnightblue" stroke="midnightblue" points="576.87,-82.61 584.74,-75.52 574.16,-76.15 576.87,-82.61"/>
</g>
<!-- Node7 -->
<g id="node7" class="node">
<title>Node7</title>
<g id="a_node7"><a xlink:title=" ">
<polygon fill="none" stroke="#bfbfbf" points="409.59,-0.5 409.59,-19.5 466.59,-19.5 466.59,-0.5 409.59,-0.5"/>
<text text-anchor="middle" x="438.09" y="-7.5" font-family="Helvetica,sans-Serif" font-size="10.00">ostream</text>
</a>
</g>
</g>
<!-- Node3&#45;&gt;Node7 -->
<g id="edge6" class="edge">
<title>Node3&#45;&gt;Node7</title>
<path fill="none" stroke="midnightblue" d="M490.92,-112.35C509.69,-100.26 538.09,-77.37 525.09,-56 514.49,-38.6 494.76,-27.63 476.76,-20.88"/>
<polygon fill="midnightblue" stroke="midnightblue" points="477.6,-17.47 467.01,-17.55 475.34,-24.09 477.6,-17.47"/>
</g>
<!-- Node3&#45;&gt;Node8 -->
<g id="edge7" class="edge">
<title>Node3&#45;&gt;Node8</title>
<path fill="none" stroke="midnightblue" d="M508.27,-112.46C539.78,-104.05 589.41,-90.71 641.36,-76.17"/>
<polygon fill="midnightblue" stroke="midnightblue" points="642.4,-79.51 651.08,-73.44 640.51,-72.77 642.4,-79.51"/>
</g>
<!-- Node3&#45;&gt;Node9 -->
<g id="edge8" class="edge">
<title>Node3&#45;&gt;Node9</title>
<path fill="none" stroke="midnightblue" d="M452.16,-112.44C426.87,-103.4 386.78,-89.06 358.41,-78.92"/>
<polygon fill="midnightblue" stroke="midnightblue" points="359.49,-75.59 348.9,-75.52 357.14,-82.18 359.49,-75.59"/>
</g>
<!-- Node3&#45;&gt;Node10 -->
<g id="edge9" class="edge">
<title>Node3&#45;&gt;Node10</title>
<path fill="none" stroke="midnightblue" d="M475.77,-112.2C474.73,-97.92 470.47,-69.91 453.09,-56 400.49,-13.91 218.54,-31.07 152.09,-20 149.02,-19.49 145.84,-18.91 142.67,-18.29"/>
<polygon fill="midnightblue" stroke="midnightblue" points="143.18,-14.82 132.68,-16.24 141.77,-21.68 143.18,-14.82"/>
</g>
<!-- Node11&#45;&gt;Node3 -->
<g id="edge11" class="edge">
<title>Node11&#45;&gt;Node3</title>
<path fill="none" stroke="midnightblue" d="M297.52,-168.92C333.49,-159.67 392.61,-144.47 432.88,-134.11"/>
<polygon fill="midnightblue" stroke="midnightblue" points="433.88,-137.47 442.69,-131.59 432.14,-130.69 433.88,-137.47"/>
</g>
<!-- Node12 -->
<g id="node12" class="node">
<title>Node12</title>
<g id="a_node12"><a xlink:href="../../d3/d65/material_8h.html" target="_top" xlink:title=" ">
<polygon fill="none" stroke="black" points="160.59,-112.5 160.59,-131.5 227.59,-131.5 227.59,-112.5 160.59,-112.5"/>
<text text-anchor="middle" x="194.09" y="-119.5" font-family="Helvetica,sans-Serif" font-size="10.00">material.h</text>
</a>
</g>
</g>
<!-- Node11&#45;&gt;Node12 -->
<g id="edge12" class="edge">
<title>Node11&#45;&gt;Node12</title>
<path fill="none" stroke="midnightblue" d="M254.52,-168.32C243.67,-160.18 227.21,-147.84 214.2,-138.09"/>
<polygon fill="midnightblue" stroke="midnightblue" points="215.96,-135.03 205.86,-131.83 211.76,-140.63 215.96,-135.03"/>
</g>
<!-- Node12&#45;&gt;Node4 -->
<g id="edge18" class="edge">
<title>Node12&#45;&gt;Node4</title>
<path fill="none" stroke="midnightblue" d="M206.22,-112.34C216.88,-104.13 232.06,-90.87 241.09,-76 249.76,-61.71 254.66,-43.24 257.3,-29.65"/>
<polygon fill="midnightblue" stroke="midnightblue" points="260.79,-30.02 259.02,-19.57 253.89,-28.84 260.79,-30.02"/>
</g>
<!-- Node12&#45;&gt;Node10 -->
<g id="edge20" class="edge">
<title>Node12&#45;&gt;Node10</title>
<path fill="none" stroke="midnightblue" d="M186.29,-112.22C178.44,-103.28 166.1,-88.94 156.09,-76 143.83,-60.16 130.72,-41.44 121.64,-28.16"/>
<polygon fill="midnightblue" stroke="midnightblue" points="124.33,-25.89 115.81,-19.58 118.53,-29.82 124.33,-25.89"/>
</g>
<!-- Node13 -->
<g id="node13" class="node">
<title>Node13</title>
<g id="a_node13"><a xlink:href="../../d3/d34/phonon_8h.html" target="_top" xlink:title=" ">
<polygon fill="none" stroke="black" points="170.09,-56.5 170.09,-75.5 232.09,-75.5 232.09,-56.5 170.09,-56.5"/>
<text text-anchor="middle" x="201.09" y="-63.5" font-family="Helvetica,sans-Serif" font-size="10.00">phonon.h</text>
</a>
</g>
</g>
<!-- Node12&#45;&gt;Node13 -->
<g id="edge13" class="edge">
<title>Node12&#45;&gt;Node13</title>
<path fill="none" stroke="midnightblue" d="M195.24,-112.08C196.17,-104.93 197.5,-94.64 198.66,-85.69"/>
<polygon fill="midnightblue" stroke="midnightblue" points="202.14,-86.12 199.95,-75.75 195.19,-85.22 202.14,-86.12"/>
</g>
<!-- Node14 -->
<g id="node14" class="node">
<title>Node14</title>
<g id="a_node14"><a xlink:title=" ">
<polygon fill="none" stroke="#bfbfbf" points="161.59,-0.5 161.59,-19.5 214.59,-19.5 214.59,-0.5 161.59,-0.5"/>
<text text-anchor="middle" x="188.09" y="-7.5" font-family="Helvetica,sans-Serif" font-size="10.00">cstddef</text>
</a>
</g>
</g>
<!-- Node12&#45;&gt;Node14 -->
<g id="edge19" class="edge">
<title>Node12&#45;&gt;Node14</title>
<path fill="none" stroke="midnightblue" d="M185.07,-112.34C177.01,-103.93 165.79,-90.36 161.09,-76 155.59,-59.2 164.92,-40.64 174.08,-27.67"/>
<polygon fill="midnightblue" stroke="midnightblue" points="176.9,-29.73 180.21,-19.67 171.35,-25.48 176.9,-29.73"/>
</g>
<!-- Node12&#45;&gt;Node15 -->
<g id="edge21" class="edge">
<title>Node12&#45;&gt;Node15</title>
<path fill="none" stroke="midnightblue" d="M171.59,-112.44C148.01,-103.48 110.76,-89.31 84.12,-79.18"/>
<polygon fill="midnightblue" stroke="midnightblue" points="85.07,-75.8 74.48,-75.52 82.58,-82.34 85.07,-75.8"/>
</g>
<!-- Node13&#45;&gt;Node4 -->
<g id="edge14" class="edge">
<title>Node13&#45;&gt;Node4</title>
<path fill="none" stroke="midnightblue" d="M210.57,-56.32C219.29,-48.34 232.43,-36.31 242.98,-26.65"/>
<polygon fill="midnightblue" stroke="midnightblue" points="245.42,-29.17 250.43,-19.83 240.69,-24 245.42,-29.17"/>
</g>
<!-- Node13&#45;&gt;Node7 -->
<g id="edge16" class="edge">
<title>Node13&#45;&gt;Node7</title>
<path fill="none" stroke="midnightblue" d="M232.56,-57.83C275.64,-48.01 352.91,-30.41 399.45,-19.8"/>
<polygon fill="midnightblue" stroke="midnightblue" points="400.48,-23.16 409.45,-17.52 398.93,-16.33 400.48,-23.16"/>
</g>
<!-- Node13&#45;&gt;Node10 -->
<g id="edge17" class="edge">
<title>Node13&#45;&gt;Node10</title>
<path fill="none" stroke="midnightblue" d="M186.46,-56.32C172.14,-47.82 150.07,-34.73 133.34,-24.8"/>
<polygon fill="midnightblue" stroke="midnightblue" points="135.06,-21.75 124.67,-19.65 131.48,-27.77 135.06,-21.75"/>
</g>
<!-- Node13&#45;&gt;Node14 -->
<g id="edge15" class="edge">
<title>Node13&#45;&gt;Node14</title>
<path fill="none" stroke="midnightblue" d="M198.94,-56.08C197.22,-48.93 194.74,-38.64 192.59,-29.69"/>
<polygon fill="midnightblue" stroke="midnightblue" points="195.94,-28.65 190.19,-19.75 189.13,-30.29 195.94,-28.65"/>
</g>
</g>
</svg>
