<?xml version="1.0" encoding="UTF-8" standalone="no"?>
<!DOCTYPE svg PUBLIC "-//W3C//DTD SVG 1.1//EN"
 "http://www.w3.org/Graphics/SVG/1.1/DTD/svg11.dtd">
<!-- Generated by graphviz version 2.43.0 (0)
 -->
<!-- Title: Surface Pages: 1 -->
<svg width="176pt" height="95pt"
 viewBox="0.00 0.00 176.00 95.00" xmlns="http://www.w3.org/2000/svg" xmlns:xlink="http://www.w3.org/1999/xlink">
<g id="graph0" class="graph" transform="scale(1 1) rotate(0) translate(4 91)">
<title>Surface</title>
<!-- Node1 -->
<g id="node1" class="node">
<title>Node1</title>
<g id="a_node1"><a xlink:title=" ">
<polygon fill="#bfbfbf" stroke="black" points="37,-0.5 37,-19.5 90,-19.5 90,-0.5 37,-0.5"/>
<text text-anchor="middle" x="63.5" y="-7.5" font-family="Helvetica,sans-Serif" font-size="10.00">Surface</text>
</a>
</g>
</g>
<!-- Node2 -->
<g id="node2" class="node">
<title>Node2</title>
<g id="a_node2"><a xlink:href="../../de/dfd/classCell.html" target="_top" xlink:title=" ">
<polygon fill="none" stroke="black" points="0,-67.5 0,-86.5 35,-86.5 35,-67.5 0,-67.5"/>
<text text-anchor="middle" x="17.5" y="-74.5" font-family="Helvetica,sans-Serif" font-size="10.00">Cell</text>
</a>
</g>
</g>
<!-- Node2&#45;&gt;Node1 -->
<g id="edge1" class="edge">
<title>Node2&#45;&gt;Node1</title>
<path fill="none" stroke="#9a32cd" stroke-dasharray="5,2" d="M29.6,-58.9C38.54,-46.27 50.33,-29.6 57.39,-19.63"/>
<polygon fill="#9a32cd" stroke="#9a32cd" points="26.62,-57.05 23.7,-67.23 32.34,-61.09 26.62,-57.05"/>
<text text-anchor="middle" x="56.5" y="-41" font-family="Helvetica,sans-Serif" font-size="10.00"> cell_</text>
</g>
<!-- Node3 -->
<g id="node3" class="node">
<title>Node3</title>
<g id="a_node3"><a xlink:href="../../dc/d33/structGeometry_1_1Vector2D.html" target="_top" xlink:title=" ">
<polygon fill="none" stroke="black" points="53,-67.5 53,-86.5 168,-86.5 168,-67.5 53,-67.5"/>
<text text-anchor="middle" x="110.5" y="-74.5" font-family="Helvetica,sans-Serif" font-size="10.00">Geometry::Vector2D</text>
</a>
</g>
</g>
<!-- Node3&#45;&gt;Node1 -->
<g id="edge2" class="edge">
<title>Node3&#45;&gt;Node1</title>
<path fill="none" stroke="#9a32cd" stroke-dasharray="5,2" d="M98.14,-58.9C89.01,-46.27 76.95,-29.6 69.74,-19.63"/>
<polygon fill="#9a32cd" stroke="#9a32cd" points="95.47,-61.18 104.16,-67.23 101.14,-57.08 95.47,-61.18"/>
<text text-anchor="middle" x="111" y="-41" font-family="Helvetica,sans-Serif" font-size="10.00"> normal_</text>
</g>
</g>
</svg>
