<?xml version="1.0" encoding="UTF-8" standalone="no"?>
<!DOCTYPE svg PUBLIC "-//W3C//DTD SVG 1.1//EN"
 "http://www.w3.org/Graphics/SVG/1.1/DTD/svg11.dtd">
<!-- Generated by graphviz version 2.43.0 (0)
 -->
<!-- Title: psim/src/cell.cpp Pages: 1 -->
<svg width="1204pt" height="364pt"
 viewBox="0.00 0.00 1203.50 364.00" xmlns="http://www.w3.org/2000/svg" xmlns:xlink="http://www.w3.org/1999/xlink">
<g id="graph0" class="graph" transform="scale(1 1) rotate(0) translate(4 360)">
<title>psim/src/cell.cpp</title>
<!-- Node1 -->
<g id="node1" class="node">
<title>Node1</title>
<g id="a_node1"><a xlink:title=" ">
<polygon fill="#bfbfbf" stroke="black" points="652.5,-336.5 652.5,-355.5 750.5,-355.5 750.5,-336.5 652.5,-336.5"/>
<text text-anchor="middle" x="701.5" y="-343.5" font-family="Helvetica,sans-Serif" font-size="10.00">psim/src/cell.cpp</text>
</a>
</g>
</g>
<!-- Node2 -->
<g id="node2" class="node">
<title>Node2</title>
<g id="a_node2"><a xlink:href="../../d0/ddd/cell_8h.html" target="_top" xlink:title=" ">
<polygon fill="none" stroke="black" points="666.5,-280.5 666.5,-299.5 736.5,-299.5 736.5,-280.5 666.5,-280.5"/>
<text text-anchor="middle" x="701.5" y="-287.5" font-family="Helvetica,sans-Serif" font-size="10.00">psim/cell.h</text>
</a>
</g>
</g>
<!-- Node1&#45;&gt;Node2 -->
<g id="edge1" class="edge">
<title>Node1&#45;&gt;Node2</title>
<path fill="none" stroke="midnightblue" d="M701.5,-336.08C701.5,-329.01 701.5,-318.86 701.5,-309.99"/>
<polygon fill="midnightblue" stroke="midnightblue" points="705,-309.75 701.5,-299.75 698,-309.75 705,-309.75"/>
</g>
<!-- Node3 -->
<g id="node3" class="node">
<title>Node3</title>
<g id="a_node3"><a xlink:href="../../d8/d77/compositeSurface_8h.html" target="_top" xlink:title=" ">
<polygon fill="none" stroke="black" points="645,-224.5 645,-243.5 758,-243.5 758,-224.5 645,-224.5"/>
<text text-anchor="middle" x="701.5" y="-231.5" font-family="Helvetica,sans-Serif" font-size="10.00">compositeSurface.h</text>
</a>
</g>
</g>
<!-- Node1&#45;&gt;Node3 -->
<g id="edge47" class="edge">
<title>Node1&#45;&gt;Node3</title>
<path fill="none" stroke="midnightblue" d="M688.64,-336.43C672.64,-324.6 648.45,-302.21 657.5,-280 662.3,-268.23 671.83,-257.86 680.79,-250.05"/>
<polygon fill="midnightblue" stroke="midnightblue" points="683.15,-252.64 688.72,-243.63 678.75,-247.2 683.15,-252.64"/>
</g>
<!-- Node4 -->
<g id="node4" class="node">
<title>Node4</title>
<g id="a_node4"><a xlink:href="../../d4/d67/geometry_8h.html" target="_top" xlink:title=" ">
<polygon fill="none" stroke="black" points="615,-112.5 615,-131.5 686,-131.5 686,-112.5 615,-112.5"/>
<text text-anchor="middle" x="650.5" y="-119.5" font-family="Helvetica,sans-Serif" font-size="10.00">geometry.h</text>
</a>
</g>
</g>
<!-- Node1&#45;&gt;Node4 -->
<g id="edge48" class="edge">
<title>Node1&#45;&gt;Node4</title>
<path fill="none" stroke="midnightblue" d="M688.87,-336.43C677.78,-328.28 661.97,-315.06 652.5,-300 638.65,-277.98 639.32,-269.73 635.5,-244 630.11,-207.67 638.92,-165 645.15,-141.27"/>
<polygon fill="midnightblue" stroke="midnightblue" points="648.56,-142.1 647.86,-131.53 641.81,-140.23 648.56,-142.1"/>
</g>
<!-- Node12 -->
<g id="node12" class="node">
<title>Node12</title>
<g id="a_node12"><a xlink:href="../../d2/d69/surface_8h.html" target="_top" xlink:title=" ">
<polygon fill="none" stroke="black" points="510.5,-168.5 510.5,-187.5 572.5,-187.5 572.5,-168.5 510.5,-168.5"/>
<text text-anchor="middle" x="541.5" y="-175.5" font-family="Helvetica,sans-Serif" font-size="10.00">surface.h</text>
</a>
</g>
</g>
<!-- Node1&#45;&gt;Node12 -->
<g id="edge51" class="edge">
<title>Node1&#45;&gt;Node12</title>
<path fill="none" stroke="midnightblue" d="M655.89,-336.49C632.48,-330.02 605.06,-318.88 586.5,-300 558.44,-271.46 547.63,-223.86 543.66,-197.68"/>
<polygon fill="midnightblue" stroke="midnightblue" points="547.1,-197.04 542.31,-187.59 540.17,-197.97 547.1,-197.04"/>
</g>
<!-- Node13 -->
<g id="node13" class="node">
<title>Node13</title>
<g id="a_node13"><a xlink:href="../../d3/d65/material_8h.html" target="_top" xlink:title=" ">
<polygon fill="none" stroke="black" points="373,-112.5 373,-131.5 440,-131.5 440,-112.5 373,-112.5"/>
<text text-anchor="middle" x="406.5" y="-119.5" font-family="Helvetica,sans-Serif" font-size="10.00">material.h</text>
</a>
</g>
</g>
<!-- Node1&#45;&gt;Node13 -->
<g id="edge49" class="edge">
<title>Node1&#45;&gt;Node13</title>
<path fill="none" stroke="midnightblue" d="M652.25,-337.33C537.21,-318.26 256.81,-264.62 207.5,-188 170.74,-130.87 293.73,-122.52 362.8,-122.16"/>
<polygon fill="midnightblue" stroke="midnightblue" points="362.98,-125.66 372.98,-122.17 362.99,-118.66 362.98,-125.66"/>
</g>
<!-- Node16 -->
<g id="node16" class="node">
<title>Node16</title>
<g id="a_node16"><a xlink:title=" ">
<polygon fill="none" stroke="#bfbfbf" points="193,-56.5 193,-75.5 240,-75.5 240,-56.5 193,-56.5"/>
<text text-anchor="middle" x="216.5" y="-63.5" font-family="Helvetica,sans-Serif" font-size="10.00">vector</text>
</a>
</g>
</g>
<!-- Node1&#45;&gt;Node16 -->
<g id="edge58" class="edge">
<title>Node1&#45;&gt;Node16</title>
<path fill="none" stroke="midnightblue" d="M652.32,-341.23C512.42,-329.35 117.7,-287.44 45.5,-188 4.29,-131.25 122.2,-91.34 182.89,-75.1"/>
<polygon fill="midnightblue" stroke="midnightblue" points="184.01,-78.42 192.8,-72.52 182.25,-71.65 184.01,-78.42"/>
</g>
<!-- Node18 -->
<g id="node18" class="node">
<title>Node18</title>
<g id="a_node18"><a xlink:href="../../d5/d2e/sensor_8h.html" target="_top" xlink:title=" ">
<polygon fill="none" stroke="black" points="340,-224.5 340,-243.5 397,-243.5 397,-224.5 340,-224.5"/>
<text text-anchor="middle" x="368.5" y="-231.5" font-family="Helvetica,sans-Serif" font-size="10.00">sensor.h</text>
</a>
</g>
</g>
<!-- Node1&#45;&gt;Node18 -->
<g id="edge50" class="edge">
<title>Node1&#45;&gt;Node18</title>
<path fill="none" stroke="midnightblue" d="M666.33,-336.43C632.91,-328.03 581.4,-314.42 537.5,-300 488.11,-283.77 432,-261.38 398.46,-247.56"/>
<polygon fill="midnightblue" stroke="midnightblue" points="399.39,-244.16 388.82,-243.57 396.72,-250.63 399.39,-244.16"/>
</g>
<!-- Node22 -->
<g id="node22" class="node">
<title>Node22</title>
<g id="a_node22"><a xlink:title=" ">
<polygon fill="none" stroke="#bfbfbf" points="754.5,-280.5 754.5,-299.5 818.5,-299.5 818.5,-280.5 754.5,-280.5"/>
<text text-anchor="middle" x="786.5" y="-287.5" font-family="Helvetica,sans-Serif" font-size="10.00">algorithm</text>
</a>
</g>
</g>
<!-- Node1&#45;&gt;Node22 -->
<g id="edge52" class="edge">
<title>Node1&#45;&gt;Node22</title>
<path fill="none" stroke="midnightblue" d="M715.16,-336.32C728.42,-327.9 748.77,-314.97 764.35,-305.07"/>
<polygon fill="midnightblue" stroke="midnightblue" points="766.31,-307.97 772.88,-299.65 762.56,-302.06 766.31,-307.97"/>
</g>
<!-- Node23 -->
<g id="node23" class="node">
<title>Node23</title>
<g id="a_node23"><a xlink:title=" ">
<polygon fill="none" stroke="#bfbfbf" points="837,-280.5 837,-299.5 884,-299.5 884,-280.5 837,-280.5"/>
<text text-anchor="middle" x="860.5" y="-287.5" font-family="Helvetica,sans-Serif" font-size="10.00">cmath</text>
</a>
</g>
</g>
<!-- Node1&#45;&gt;Node23 -->
<g id="edge53" class="edge">
<title>Node1&#45;&gt;Node23</title>
<path fill="none" stroke="midnightblue" d="M726.69,-336.44C753.91,-327.2 797.41,-312.43 827.38,-302.25"/>
<polygon fill="midnightblue" stroke="midnightblue" points="828.64,-305.52 836.98,-298.99 826.38,-298.89 828.64,-305.52"/>
</g>
<!-- Node24 -->
<g id="node24" class="node">
<title>Node24</title>
<g id="a_node24"><a xlink:title=" ">
<polygon fill="none" stroke="#bfbfbf" points="902.5,-280.5 902.5,-299.5 966.5,-299.5 966.5,-280.5 902.5,-280.5"/>
<text text-anchor="middle" x="934.5" y="-287.5" font-family="Helvetica,sans-Serif" font-size="10.00">execution</text>
</a>
</g>
</g>
<!-- Node1&#45;&gt;Node24 -->
<g id="edge54" class="edge">
<title>Node1&#45;&gt;Node24</title>
<path fill="none" stroke="midnightblue" d="M738.42,-336.44C780.32,-326.73 848.54,-310.92 892.46,-300.74"/>
<polygon fill="midnightblue" stroke="midnightblue" points="893.3,-304.14 902.26,-298.47 891.72,-297.32 893.3,-304.14"/>
</g>
<!-- Node25 -->
<g id="node25" class="node">
<title>Node25</title>
<g id="a_node25"><a xlink:title=" ">
<polygon fill="none" stroke="#bfbfbf" points="985,-280.5 985,-299.5 1050,-299.5 1050,-280.5 985,-280.5"/>
<text text-anchor="middle" x="1017.5" y="-287.5" font-family="Helvetica,sans-Serif" font-size="10.00">functional</text>
</a>
</g>
</g>
<!-- Node1&#45;&gt;Node25 -->
<g id="edge55" class="edge">
<title>Node1&#45;&gt;Node25</title>
<path fill="none" stroke="midnightblue" d="M750.63,-337.66C803.47,-329.61 890.19,-315.92 974.92,-300.03"/>
<polygon fill="midnightblue" stroke="midnightblue" points="975.79,-303.43 984.97,-298.13 974.5,-296.55 975.79,-303.43"/>
</g>
<!-- Node26 -->
<g id="node26" class="node">
<title>Node26</title>
<g id="a_node26"><a xlink:title=" ">
<polygon fill="none" stroke="#bfbfbf" points="1068,-280.5 1068,-299.5 1121,-299.5 1121,-280.5 1068,-280.5"/>
<text text-anchor="middle" x="1094.5" y="-287.5" font-family="Helvetica,sans-Serif" font-size="10.00">iterator</text>
</a>
</g>
</g>
<!-- Node1&#45;&gt;Node26 -->
<g id="edge56" class="edge">
<title>Node1&#45;&gt;Node26</title>
<path fill="none" stroke="midnightblue" d="M750.74,-340.8C818.08,-334.62 942.8,-321.61 1057.8,-300.13"/>
<polygon fill="midnightblue" stroke="midnightblue" points="1058.65,-303.53 1067.83,-298.23 1057.35,-296.65 1058.65,-303.53"/>
</g>
<!-- Node27 -->
<g id="node27" class="node">
<title>Node27</title>
<g id="a_node27"><a xlink:title=" ">
<polygon fill="none" stroke="#bfbfbf" points="1139.5,-280.5 1139.5,-299.5 1195.5,-299.5 1195.5,-280.5 1139.5,-280.5"/>
<text text-anchor="middle" x="1167.5" y="-287.5" font-family="Helvetica,sans-Serif" font-size="10.00">sstream</text>
</a>
</g>
</g>
<!-- Node1&#45;&gt;Node27 -->
<g id="edge57" class="edge">
<title>Node1&#45;&gt;Node27</title>
<path fill="none" stroke="midnightblue" d="M750.69,-341.99C828.87,-336.75 986.38,-324.26 1129.05,-300.04"/>
<polygon fill="midnightblue" stroke="midnightblue" points="1130.04,-303.42 1139.3,-298.27 1128.85,-296.52 1130.04,-303.42"/>
</g>
<!-- Node2&#45;&gt;Node3 -->
<g id="edge2" class="edge">
<title>Node2&#45;&gt;Node3</title>
<path fill="none" stroke="midnightblue" d="M701.5,-280.08C701.5,-273.01 701.5,-262.86 701.5,-253.99"/>
<polygon fill="midnightblue" stroke="midnightblue" points="705,-253.75 701.5,-243.75 698,-253.75 705,-253.75"/>
</g>
<!-- Node2&#45;&gt;Node4 -->
<g id="edge28" class="edge">
<title>Node2&#45;&gt;Node4</title>
<path fill="none" stroke="midnightblue" d="M736.59,-280.47C799.39,-263.59 920.41,-222.78 875.5,-168 853.28,-140.9 755.33,-129.79 696.24,-125.5"/>
<polygon fill="midnightblue" stroke="midnightblue" points="696.26,-121.99 686.04,-124.8 695.77,-128.98 696.26,-121.99"/>
</g>
<!-- Node5 -->
<g id="node5" class="node">
<title>Node5</title>
<g id="a_node5"><a xlink:title=" ">
<polygon fill="none" stroke="#bfbfbf" points="517.5,-0.5 517.5,-19.5 559.5,-19.5 559.5,-0.5 517.5,-0.5"/>
<text text-anchor="middle" x="538.5" y="-7.5" font-family="Helvetica,sans-Serif" font-size="10.00">array</text>
</a>
</g>
</g>
<!-- Node2&#45;&gt;Node5 -->
<g id="edge41" class="edge">
<title>Node2&#45;&gt;Node5</title>
<path fill="none" stroke="midnightblue" d="M736.56,-281.79C739.58,-281.18 742.59,-280.58 745.5,-280 883.89,-252.45 1046.5,-320.11 1046.5,-179 1046.5,-179 1046.5,-179 1046.5,-121 1046.5,-22.97 680.6,-12.1 569.87,-11.06"/>
<polygon fill="midnightblue" stroke="midnightblue" points="569.71,-7.56 559.68,-10.99 569.66,-14.56 569.71,-7.56"/>
</g>
<!-- Node6 -->
<g id="node6" class="node">
<title>Node6</title>
<g id="a_node6"><a xlink:title=" ">
<polygon fill="none" stroke="#bfbfbf" points="832,-56.5 832,-75.5 897,-75.5 897,-56.5 832,-56.5"/>
<text text-anchor="middle" x="864.5" y="-63.5" font-family="Helvetica,sans-Serif" font-size="10.00">exception</text>
</a>
</g>
</g>
<!-- Node2&#45;&gt;Node6 -->
<g id="edge43" class="edge">
<title>Node2&#45;&gt;Node6</title>
<path fill="none" stroke="midnightblue" d="M736.63,-281.68C795.76,-269.33 908.94,-245.54 910.5,-244 934.92,-219.96 931.37,-201.35 923.5,-168 915.77,-135.24 893.31,-102.56 878.44,-83.59"/>
<polygon fill="midnightblue" stroke="midnightblue" points="881.05,-81.24 872.04,-75.67 875.6,-85.64 881.05,-81.24"/>
</g>
<!-- Node9 -->
<g id="node9" class="node">
<title>Node9</title>
<g id="a_node9"><a xlink:title=" ">
<polygon fill="none" stroke="#bfbfbf" points="678.5,-56.5 678.5,-75.5 722.5,-75.5 722.5,-56.5 678.5,-56.5"/>
<text text-anchor="middle" x="700.5" y="-63.5" font-family="Helvetica,sans-Serif" font-size="10.00">string</text>
</a>
</g>
</g>
<!-- Node2&#45;&gt;Node9 -->
<g id="edge45" class="edge">
<title>Node2&#45;&gt;Node9</title>
<path fill="none" stroke="midnightblue" d="M736.81,-280.99C782.2,-270.45 856.4,-252.28 866.5,-244 888.02,-226.36 888.11,-215.08 894.5,-188 896.54,-179.35 899.11,-175.6 894.5,-168 876.17,-137.79 781.98,-98.13 731.9,-78.72"/>
<polygon fill="midnightblue" stroke="midnightblue" points="733.1,-75.43 722.51,-75.12 730.59,-81.97 733.1,-75.43"/>
</g>
<!-- Node10 -->
<g id="node10" class="node">
<title>Node10</title>
<g id="a_node10"><a xlink:title=" ">
<polygon fill="none" stroke="#bfbfbf" points="741,-56.5 741,-75.5 814,-75.5 814,-56.5 741,-56.5"/>
<text text-anchor="middle" x="777.5" y="-63.5" font-family="Helvetica,sans-Serif" font-size="10.00">string_view</text>
</a>
</g>
</g>
<!-- Node2&#45;&gt;Node10 -->
<g id="edge46" class="edge">
<title>Node2&#45;&gt;Node10</title>
<path fill="none" stroke="midnightblue" d="M736.82,-281.45C789.66,-270.03 883.77,-249.14 889.5,-244 909.17,-226.35 904.99,-214.04 909.5,-188 918.83,-134.15 853.09,-97.2 810.99,-79.33"/>
<polygon fill="midnightblue" stroke="midnightblue" points="812.21,-76.05 801.63,-75.5 809.56,-82.53 812.21,-76.05"/>
</g>
<!-- Node2&#45;&gt;Node13 -->
<g id="edge29" class="edge">
<title>Node2&#45;&gt;Node13</title>
<path fill="none" stroke="midnightblue" d="M682.59,-280.47C646.57,-264.01 565.96,-226.1 501.5,-188 474.47,-172.02 444.83,-151.17 425.97,-137.45"/>
<polygon fill="midnightblue" stroke="midnightblue" points="428.01,-134.6 417.88,-131.51 423.87,-140.25 428.01,-134.6"/>
</g>
<!-- Node15 -->
<g id="node15" class="node">
<title>Node15</title>
<g id="a_node15"><a xlink:title=" ">
<polygon fill="none" stroke="#bfbfbf" points="0,-0.5 0,-19.5 53,-19.5 53,-0.5 0,-0.5"/>
<text text-anchor="middle" x="26.5" y="-7.5" font-family="Helvetica,sans-Serif" font-size="10.00">cstddef</text>
</a>
</g>
</g>
<!-- Node2&#45;&gt;Node15 -->
<g id="edge42" class="edge">
<title>Node2&#45;&gt;Node15</title>
<path fill="none" stroke="midnightblue" d="M666.44,-288.69C541.93,-286.88 123.45,-274.34 28.5,-188 -15.8,-147.72 6.17,-66.22 19.2,-29.58"/>
<polygon fill="midnightblue" stroke="midnightblue" points="22.66,-30.34 22.88,-19.75 16.1,-27.89 22.66,-30.34"/>
</g>
<!-- Node17 -->
<g id="node17" class="node">
<title>Node17</title>
<g id="a_node17"><a xlink:title=" ">
<polygon fill="none" stroke="#bfbfbf" points="818.5,-168.5 818.5,-187.5 866.5,-187.5 866.5,-168.5 818.5,-168.5"/>
<text text-anchor="middle" x="842.5" y="-175.5" font-family="Helvetica,sans-Serif" font-size="10.00">iosfwd</text>
</a>
</g>
</g>
<!-- Node2&#45;&gt;Node17 -->
<g id="edge44" class="edge">
<title>Node2&#45;&gt;Node17</title>
<path fill="none" stroke="midnightblue" d="M714.73,-280.42C728.06,-271.63 749.11,-257.4 766.5,-244 787.39,-227.91 810.24,-208.03 825.37,-194.52"/>
<polygon fill="midnightblue" stroke="midnightblue" points="827.83,-197.03 832.93,-187.74 823.15,-191.82 827.83,-197.03"/>
</g>
<!-- Node2&#45;&gt;Node18 -->
<g id="edge30" class="edge">
<title>Node2&#45;&gt;Node18</title>
<path fill="none" stroke="midnightblue" d="M666.49,-283.32C603.72,-273.14 472.5,-251.87 407.17,-241.27"/>
<polygon fill="midnightblue" stroke="midnightblue" points="407.71,-237.81 397.27,-239.67 406.59,-244.72 407.71,-237.81"/>
</g>
<!-- Node3&#45;&gt;Node4 -->
<g id="edge3" class="edge">
<title>Node3&#45;&gt;Node4</title>
<path fill="none" stroke="midnightblue" d="M697.5,-224.37C689.19,-206.46 669.94,-164.92 658.82,-140.95"/>
<polygon fill="midnightblue" stroke="midnightblue" points="661.86,-139.19 654.48,-131.59 655.51,-142.14 661.86,-139.19"/>
</g>
<!-- Node3&#45;&gt;Node6 -->
<g id="edge23" class="edge">
<title>Node3&#45;&gt;Node6</title>
<path fill="none" stroke="midnightblue" d="M710.26,-224.08C736.59,-197.27 815.22,-117.19 848.9,-82.89"/>
<polygon fill="midnightblue" stroke="midnightblue" points="851.58,-85.16 856.09,-75.57 846.58,-80.25 851.58,-85.16"/>
</g>
<!-- Node3&#45;&gt;Node9 -->
<g id="edge25" class="edge">
<title>Node3&#45;&gt;Node9</title>
<path fill="none" stroke="midnightblue" d="M701.45,-224.08C701.29,-197.95 700.83,-121.21 700.61,-85.58"/>
<polygon fill="midnightblue" stroke="midnightblue" points="704.11,-85.55 700.55,-75.57 697.11,-85.59 704.11,-85.55"/>
</g>
<!-- Node3&#45;&gt;Node10 -->
<g id="edge26" class="edge">
<title>Node3&#45;&gt;Node10</title>
<path fill="none" stroke="midnightblue" d="M705.59,-224.08C717.65,-197.72 753.29,-119.88 769.41,-84.66"/>
<polygon fill="midnightblue" stroke="midnightblue" points="772.6,-86.12 773.58,-75.57 766.23,-83.2 772.6,-86.12"/>
</g>
<!-- Node3&#45;&gt;Node12 -->
<g id="edge11" class="edge">
<title>Node3&#45;&gt;Node12</title>
<path fill="none" stroke="midnightblue" d="M676.15,-224.44C649.23,-215.36 606.5,-200.94 576.41,-190.78"/>
<polygon fill="midnightblue" stroke="midnightblue" points="577.33,-187.4 566.73,-187.52 575.09,-194.03 577.33,-187.4"/>
</g>
<!-- Node3&#45;&gt;Node16 -->
<g id="edge27" class="edge">
<title>Node3&#45;&gt;Node16</title>
<path fill="none" stroke="midnightblue" d="M686.59,-224.31C664.14,-211.37 620.16,-186.56 581.5,-168 523.68,-140.25 509.87,-130.65 448.5,-112 379.49,-91.03 295.85,-77.64 250.22,-71.31"/>
<polygon fill="midnightblue" stroke="midnightblue" points="250.65,-67.83 240.27,-69.96 249.71,-74.77 250.65,-67.83"/>
</g>
<!-- Node3&#45;&gt;Node17 -->
<g id="edge24" class="edge">
<title>Node3&#45;&gt;Node17</title>
<path fill="none" stroke="midnightblue" d="M723.84,-224.44C747.25,-215.48 784.24,-201.31 810.69,-191.18"/>
<polygon fill="midnightblue" stroke="midnightblue" points="812.18,-194.36 820.26,-187.52 809.67,-187.82 812.18,-194.36"/>
</g>
<!-- Node4&#45;&gt;Node5 -->
<g id="edge4" class="edge">
<title>Node4&#45;&gt;Node5</title>
<path fill="none" stroke="midnightblue" d="M650.15,-112.39C649.18,-98.87 645.47,-72.51 631.5,-56 615.54,-37.14 589.84,-25.55 569.49,-18.86"/>
<polygon fill="midnightblue" stroke="midnightblue" points="570.3,-15.45 559.71,-15.88 568.26,-22.15 570.3,-15.45"/>
</g>
<!-- Node4&#45;&gt;Node6 -->
<g id="edge5" class="edge">
<title>Node4&#45;&gt;Node6</title>
<path fill="none" stroke="midnightblue" d="M684.41,-112.44C721.68,-103.04 781.6,-87.92 821.98,-77.73"/>
<polygon fill="midnightblue" stroke="midnightblue" points="822.96,-81.09 831.8,-75.25 821.25,-74.3 822.96,-81.09"/>
</g>
<!-- Node7 -->
<g id="node7" class="node">
<title>Node7</title>
<g id="a_node7"><a xlink:title=" ">
<polygon fill="none" stroke="#bfbfbf" points="566.5,-56.5 566.5,-75.5 622.5,-75.5 622.5,-56.5 566.5,-56.5"/>
<text text-anchor="middle" x="594.5" y="-63.5" font-family="Helvetica,sans-Serif" font-size="10.00">optional</text>
</a>
</g>
</g>
<!-- Node4&#45;&gt;Node7 -->
<g id="edge6" class="edge">
<title>Node4&#45;&gt;Node7</title>
<path fill="none" stroke="midnightblue" d="M641.5,-112.32C633.31,-104.42 620.99,-92.55 611.03,-82.94"/>
<polygon fill="midnightblue" stroke="midnightblue" points="613.29,-80.26 603.66,-75.83 608.43,-85.29 613.29,-80.26"/>
</g>
<!-- Node8 -->
<g id="node8" class="node">
<title>Node8</title>
<g id="a_node8"><a xlink:title=" ">
<polygon fill="none" stroke="#bfbfbf" points="410,-0.5 410,-19.5 467,-19.5 467,-0.5 410,-0.5"/>
<text text-anchor="middle" x="438.5" y="-7.5" font-family="Helvetica,sans-Serif" font-size="10.00">ostream</text>
</a>
</g>
</g>
<!-- Node4&#45;&gt;Node8 -->
<g id="edge7" class="edge">
<title>Node4&#45;&gt;Node8</title>
<path fill="none" stroke="midnightblue" d="M632.19,-112.47C613.34,-103.61 583.18,-89.21 557.5,-76 524.24,-58.88 486.42,-37.97 462.52,-24.57"/>
<polygon fill="midnightblue" stroke="midnightblue" points="464.21,-21.51 453.77,-19.66 460.78,-27.61 464.21,-21.51"/>
</g>
<!-- Node4&#45;&gt;Node9 -->
<g id="edge8" class="edge">
<title>Node4&#45;&gt;Node9</title>
<path fill="none" stroke="midnightblue" d="M658.76,-112.08C665.96,-104.3 676.61,-92.8 685.35,-83.37"/>
<polygon fill="midnightblue" stroke="midnightblue" points="688.17,-85.47 692.4,-75.75 683.03,-80.71 688.17,-85.47"/>
</g>
<!-- Node4&#45;&gt;Node10 -->
<g id="edge9" class="edge">
<title>Node4&#45;&gt;Node10</title>
<path fill="none" stroke="midnightblue" d="M670.62,-112.44C691.52,-103.56 724.43,-89.56 748.22,-79.45"/>
<polygon fill="midnightblue" stroke="midnightblue" points="749.64,-82.65 757.47,-75.52 746.9,-76.21 749.64,-82.65"/>
</g>
<!-- Node11 -->
<g id="node11" class="node">
<title>Node11</title>
<g id="a_node11"><a xlink:title=" ">
<polygon fill="none" stroke="#bfbfbf" points="322,-0.5 322,-19.5 367,-19.5 367,-0.5 322,-0.5"/>
<text text-anchor="middle" x="344.5" y="-7.5" font-family="Helvetica,sans-Serif" font-size="10.00">utility</text>
</a>
</g>
</g>
<!-- Node4&#45;&gt;Node11 -->
<g id="edge10" class="edge">
<title>Node4&#45;&gt;Node11</title>
<path fill="none" stroke="midnightblue" d="M614.74,-114.44C609.96,-113.6 605.11,-112.77 600.5,-112 547.95,-103.28 403.6,-111.07 363.5,-76 350.38,-64.53 346.09,-44.55 344.79,-29.76"/>
<polygon fill="midnightblue" stroke="midnightblue" points="348.28,-29.51 344.29,-19.69 341.29,-29.85 348.28,-29.51"/>
</g>
<!-- Node12&#45;&gt;Node4 -->
<g id="edge12" class="edge">
<title>Node12&#45;&gt;Node4</title>
<path fill="none" stroke="midnightblue" d="M559.01,-168.32C576.57,-159.62 603.83,-146.12 624.03,-136.11"/>
<polygon fill="midnightblue" stroke="midnightblue" points="625.62,-139.23 633.03,-131.65 622.52,-132.96 625.62,-139.23"/>
</g>
<!-- Node12&#45;&gt;Node13 -->
<g id="edge13" class="edge">
<title>Node12&#45;&gt;Node13</title>
<path fill="none" stroke="midnightblue" d="M520.11,-168.44C497.79,-159.52 462.6,-145.44 437.29,-135.32"/>
<polygon fill="midnightblue" stroke="midnightblue" points="438.38,-131.98 427.79,-131.52 435.78,-138.48 438.38,-131.98"/>
</g>
<!-- Node13&#45;&gt;Node5 -->
<g id="edge19" class="edge">
<title>Node13&#45;&gt;Node5</title>
<path fill="none" stroke="midnightblue" d="M416.86,-112.37C439.22,-93.73 492.26,-49.53 520.34,-26.13"/>
<polygon fill="midnightblue" stroke="midnightblue" points="522.75,-28.68 528.19,-19.59 518.27,-23.3 522.75,-28.68"/>
</g>
<!-- Node13&#45;&gt;Node11 -->
<g id="edge21" class="edge">
<title>Node13&#45;&gt;Node11</title>
<path fill="none" stroke="midnightblue" d="M378.48,-112.4C361.33,-105.51 340.75,-93.98 330.5,-76 322.13,-61.31 327.92,-42.16 334.4,-28.45"/>
<polygon fill="midnightblue" stroke="midnightblue" points="337.51,-30.06 339.06,-19.58 331.31,-26.81 337.51,-30.06"/>
</g>
<!-- Node14 -->
<g id="node14" class="node">
<title>Node14</title>
<g id="a_node14"><a xlink:href="../../d3/d34/phonon_8h.html" target="_top" xlink:title=" ">
<polygon fill="none" stroke="black" points="372.5,-56.5 372.5,-75.5 434.5,-75.5 434.5,-56.5 372.5,-56.5"/>
<text text-anchor="middle" x="403.5" y="-63.5" font-family="Helvetica,sans-Serif" font-size="10.00">phonon.h</text>
</a>
</g>
</g>
<!-- Node13&#45;&gt;Node14 -->
<g id="edge14" class="edge">
<title>Node13&#45;&gt;Node14</title>
<path fill="none" stroke="midnightblue" d="M406,-112.08C405.61,-105.01 405.05,-94.86 404.55,-85.99"/>
<polygon fill="midnightblue" stroke="midnightblue" points="408.04,-85.54 403.99,-75.75 401.05,-85.93 408.04,-85.54"/>
</g>
<!-- Node13&#45;&gt;Node15 -->
<g id="edge20" class="edge">
<title>Node13&#45;&gt;Node15</title>
<path fill="none" stroke="midnightblue" d="M388.9,-112.46C360.13,-98.8 301,-71.96 248.5,-56 184.58,-36.57 107.74,-23.11 63.27,-16.25"/>
<polygon fill="midnightblue" stroke="midnightblue" points="63.63,-12.77 53.22,-14.73 62.58,-19.69 63.63,-12.77"/>
</g>
<!-- Node13&#45;&gt;Node16 -->
<g id="edge22" class="edge">
<title>Node13&#45;&gt;Node16</title>
<path fill="none" stroke="midnightblue" d="M376.39,-112.44C342.01,-102.67 285.91,-86.73 250.13,-76.56"/>
<polygon fill="midnightblue" stroke="midnightblue" points="250.74,-73.09 240.16,-73.73 248.82,-79.83 250.74,-73.09"/>
</g>
<!-- Node14&#45;&gt;Node5 -->
<g id="edge15" class="edge">
<title>Node14&#45;&gt;Node5</title>
<path fill="none" stroke="midnightblue" d="M424.89,-56.44C447.21,-47.52 482.4,-33.44 507.71,-23.32"/>
<polygon fill="midnightblue" stroke="midnightblue" points="509.22,-26.48 517.21,-19.52 506.62,-19.98 509.22,-26.48"/>
</g>
<!-- Node14&#45;&gt;Node8 -->
<g id="edge17" class="edge">
<title>Node14&#45;&gt;Node8</title>
<path fill="none" stroke="midnightblue" d="M409.28,-56.08C414.17,-48.53 421.33,-37.49 427.33,-28.23"/>
<polygon fill="midnightblue" stroke="midnightblue" points="430.33,-30.05 432.83,-19.75 424.45,-26.24 430.33,-30.05"/>
</g>
<!-- Node14&#45;&gt;Node11 -->
<g id="edge18" class="edge">
<title>Node14&#45;&gt;Node11</title>
<path fill="none" stroke="midnightblue" d="M394.02,-56.32C385.3,-48.34 372.16,-36.31 361.6,-26.65"/>
<polygon fill="midnightblue" stroke="midnightblue" points="363.89,-24 354.15,-19.83 359.17,-29.17 363.89,-24"/>
</g>
<!-- Node14&#45;&gt;Node15 -->
<g id="edge16" class="edge">
<title>Node14&#45;&gt;Node15</title>
<path fill="none" stroke="midnightblue" d="M372.33,-60.54C303.22,-50.64 137.42,-26.89 63.34,-16.28"/>
<polygon fill="midnightblue" stroke="midnightblue" points="63.49,-12.76 53.1,-14.81 62.5,-19.69 63.49,-12.76"/>
</g>
<!-- Node18&#45;&gt;Node5 -->
<g id="edge36" class="edge">
<title>Node18&#45;&gt;Node5</title>
<path fill="none" stroke="midnightblue" d="M375.44,-224.42C389.42,-207.09 421.94,-166.6 448.5,-132 476.79,-95.15 509.1,-51.25 526.27,-27.78"/>
<polygon fill="midnightblue" stroke="midnightblue" points="529.19,-29.72 532.26,-19.58 523.54,-25.59 529.19,-29.72"/>
</g>
<!-- Node18&#45;&gt;Node13 -->
<g id="edge31" class="edge">
<title>Node18&#45;&gt;Node13</title>
<path fill="none" stroke="midnightblue" d="M371.48,-224.37C377.64,-206.54 391.89,-165.3 400.19,-141.27"/>
<polygon fill="midnightblue" stroke="midnightblue" points="403.57,-142.19 403.53,-131.59 396.96,-139.9 403.57,-142.19"/>
</g>
<!-- Node18&#45;&gt;Node15 -->
<g id="edge37" class="edge">
<title>Node18&#45;&gt;Node15</title>
<path fill="none" stroke="midnightblue" d="M339.77,-231C264.49,-225.48 65.89,-209.04 45.5,-188 3.97,-145.14 14.28,-66.23 21.86,-30.04"/>
<polygon fill="midnightblue" stroke="midnightblue" points="25.36,-30.42 24.15,-19.89 18.53,-28.88 25.36,-30.42"/>
</g>
<!-- Node18&#45;&gt;Node16 -->
<g id="edge40" class="edge">
<title>Node18&#45;&gt;Node16</title>
<path fill="none" stroke="midnightblue" d="M367.7,-224.26C366.12,-211.04 361.63,-185.63 349.5,-168 321.91,-127.92 273.33,-96.98 243.14,-80.42"/>
<polygon fill="midnightblue" stroke="midnightblue" points="244.51,-77.18 234.04,-75.56 241.21,-83.36 244.51,-77.18"/>
</g>
<!-- Node19 -->
<g id="node19" class="node">
<title>Node19</title>
<g id="a_node19"><a xlink:href="../../da/d16/sensorController_8h.html" target="_top" xlink:title=" ">
<polygon fill="none" stroke="black" points="55,-168.5 55,-187.5 160,-187.5 160,-168.5 55,-168.5"/>
<text text-anchor="middle" x="107.5" y="-175.5" font-family="Helvetica,sans-Serif" font-size="10.00">sensorController.h</text>
</a>
</g>
</g>
<!-- Node18&#45;&gt;Node19 -->
<g id="edge32" class="edge">
<title>Node18&#45;&gt;Node19</title>
<path fill="none" stroke="midnightblue" d="M339.82,-227.07C296.28,-218.06 212.85,-200.8 158.72,-189.6"/>
<polygon fill="midnightblue" stroke="midnightblue" points="159.14,-186.11 148.64,-187.51 157.72,-192.96 159.14,-186.11"/>
</g>
<!-- Node20 -->
<g id="node20" class="node">
<title>Node20</title>
<g id="a_node20"><a xlink:title=" ">
<polygon fill="none" stroke="#bfbfbf" points="216.5,-168.5 216.5,-187.5 274.5,-187.5 274.5,-168.5 216.5,-168.5"/>
<text text-anchor="middle" x="245.5" y="-175.5" font-family="Helvetica,sans-Serif" font-size="10.00">memory</text>
</a>
</g>
</g>
<!-- Node18&#45;&gt;Node20 -->
<g id="edge38" class="edge">
<title>Node18&#45;&gt;Node20</title>
<path fill="none" stroke="midnightblue" d="M349.01,-224.44C328.86,-215.6 297.18,-201.69 274.17,-191.59"/>
<polygon fill="midnightblue" stroke="midnightblue" points="275.46,-188.33 264.9,-187.52 272.65,-194.74 275.46,-188.33"/>
</g>
<!-- Node21 -->
<g id="node21" class="node">
<title>Node21</title>
<g id="a_node21"><a xlink:title=" ">
<polygon fill="none" stroke="#bfbfbf" points="292.5,-168.5 292.5,-187.5 340.5,-187.5 340.5,-168.5 292.5,-168.5"/>
<text text-anchor="middle" x="316.5" y="-175.5" font-family="Helvetica,sans-Serif" font-size="10.00">mutex</text>
</a>
</g>
</g>
<!-- Node18&#45;&gt;Node21 -->
<g id="edge39" class="edge">
<title>Node18&#45;&gt;Node21</title>
<path fill="none" stroke="midnightblue" d="M359.91,-224.08C352.34,-216.22 341.12,-204.57 331.99,-195.08"/>
<polygon fill="midnightblue" stroke="midnightblue" points="334.38,-192.53 324.93,-187.75 329.34,-197.38 334.38,-192.53"/>
</g>
<!-- Node19&#45;&gt;Node13 -->
<g id="edge33" class="edge">
<title>Node19&#45;&gt;Node13</title>
<path fill="none" stroke="midnightblue" d="M154.88,-168.44C212.08,-158.11 307.49,-140.88 362.93,-130.87"/>
<polygon fill="midnightblue" stroke="midnightblue" points="363.58,-134.31 372.8,-129.09 362.34,-127.42 363.58,-134.31"/>
</g>
<!-- Node19&#45;&gt;Node15 -->
<g id="edge34" class="edge">
<title>Node19&#45;&gt;Node15</title>
<path fill="none" stroke="midnightblue" d="M103.15,-168.08C90.28,-141.72 52.3,-63.88 35.12,-28.66"/>
<polygon fill="midnightblue" stroke="midnightblue" points="38.21,-27.02 30.68,-19.57 31.92,-30.09 38.21,-27.02"/>
</g>
<!-- Node19&#45;&gt;Node16 -->
<g id="edge35" class="edge">
<title>Node19&#45;&gt;Node16</title>
<path fill="none" stroke="midnightblue" d="M116.05,-168.37C134.36,-149.89 177.56,-106.29 200.9,-82.74"/>
<polygon fill="midnightblue" stroke="midnightblue" points="203.43,-85.16 207.99,-75.59 198.46,-80.23 203.43,-85.16"/>
</g>
</g>
</svg>
