<?xml version="1.0" encoding="UTF-8" standalone="no"?>
<!DOCTYPE svg PUBLIC "-//W3C//DTD SVG 1.1//EN"
 "http://www.w3.org/Graphics/SVG/1.1/DTD/svg11.dtd">
<!-- Generated by graphviz version 2.43.0 (0)
 -->
<!-- Title: psim Pages: 1 -->
<svg width="166pt" height="148pt"
 viewBox="0.00 0.00 166.00 148.00" xmlns="http://www.w3.org/2000/svg" xmlns:xlink="http://www.w3.org/1999/xlink">
<g id="graph0" class="graph" transform="scale(1 1) rotate(0) translate(4 144)">
<title>psim</title>
<g id="clust1" class="cluster">
<title>clusterdir_f74aabc9dcbfa264e78d2254132973ee</title>
<g id="a_clust1"><a xlink:href="dir_f74aabc9dcbfa264e78d2254132973ee.html" target="_top">
<polygon fill="#eeeeff" stroke="black" points="8,-8 8,-132 150,-132 150,-8 8,-8"/>
</a>
</g>
</g>
<!-- dir_f74aabc9dcbfa264e78d2254132973ee -->
<g id="node1" class="node">
<title>dir_f74aabc9dcbfa264e78d2254132973ee</title>
<text text-anchor="middle" x="115" y="-103.5" font-family="Helvetica,sans-Serif" font-size="10.00">psim</text>
</g>
<!-- dir_668adefc4ae4ace3450b473833adbddc -->
<g id="node2" class="node">
<title>dir_668adefc4ae4ace3450b473833adbddc</title>
<g id="a_node2"><a xlink:href="dir_668adefc4ae4ace3450b473833adbddc.html" target="_top" xlink:title="include">
<polygon fill="white" stroke="red" points="106,-52 52,-52 52,-16 106,-16 106,-52"/>
<text text-anchor="middle" x="79" y="-31.5" font-family="Helvetica,sans-Serif" font-size="10.00">include</text>
</a>
</g>
</g>
<!-- dir_f74aabc9dcbfa264e78d2254132973ee&#45;&gt;dir_668adefc4ae4ace3450b473833adbddc -->
<g id="edge2" class="edge">
<title>dir_f74aabc9dcbfa264e78d2254132973ee&#45;&gt;dir_668adefc4ae4ace3450b473833adbddc</title>
<path fill="none" stroke="black" d="M106.1,-87.7C102,-79.73 97.05,-70.1 92.51,-61.26"/>
<polygon fill="black" stroke="black" points="95.48,-59.4 87.8,-52.1 89.26,-62.6 95.48,-59.4"/>
<g id="a_edge2&#45;headlabel"><a xlink:href="dir_000000_000001.html" target="_top" xlink:title="67">
<text text-anchor="middle" x="99.65" y="-58.79" font-family="Helvetica,sans-Serif" font-size="10.00">67</text>
</a>
</g>
</g>
<!-- dir_083e4555bc93efc85a49e4c01f43432c -->
<g id="node3" class="node">
<title>dir_083e4555bc93efc85a49e4c01f43432c</title>
<g id="a_node3"><a xlink:href="dir_083e4555bc93efc85a49e4c01f43432c.html" target="_top" xlink:title="src">
<polygon fill="white" stroke="black" points="70,-124 16,-124 16,-88 70,-88 70,-124"/>
<text text-anchor="middle" x="43" y="-103.5" font-family="Helvetica,sans-Serif" font-size="10.00">src</text>
</a>
</g>
</g>
<!-- dir_083e4555bc93efc85a49e4c01f43432c&#45;&gt;dir_668adefc4ae4ace3450b473833adbddc -->
<g id="edge1" class="edge">
<title>dir_083e4555bc93efc85a49e4c01f43432c&#45;&gt;dir_668adefc4ae4ace3450b473833adbddc</title>
<path fill="none" stroke="black" d="M51.9,-87.7C56,-79.73 60.95,-70.1 65.49,-61.26"/>
<polygon fill="black" stroke="black" points="68.74,-62.6 70.2,-52.1 62.52,-59.4 68.74,-62.6"/>
<g id="a_edge1&#45;headlabel"><a xlink:href="dir_000003_000001.html" target="_top" xlink:title="64">
<text text-anchor="middle" x="69.62" y="-64.59" font-family="Helvetica,sans-Serif" font-size="10.00">64</text>
</a>
</g>
</g>
</g>
</svg>
