<?xml version="1.0" encoding="UTF-8" standalone="no"?>
<!DOCTYPE svg PUBLIC "-//W3C//DTD SVG 1.1//EN"
 "http://www.w3.org/Graphics/SVG/1.1/DTD/svg11.dtd">
<!-- Generated by graphviz version 2.43.0 (0)
 -->
<!-- Title: Graphical Class Hierarchy Pages: 1 -->
<svg width="378pt" height="151pt"
 viewBox="0.00 0.00 378.00 151.00" xmlns="http://www.w3.org/2000/svg" xmlns:xlink="http://www.w3.org/1999/xlink">
<g id="graph0" class="graph" transform="scale(1 1) rotate(0) translate(4 147)">
<title>Graphical Class Hierarchy</title>
<!-- Node4 -->
<g id="node1" class="node">
<title>Node4</title>
<g id="a_node1"><a xlink:title=" ">
<polygon fill="none" stroke="#bfbfbf" points="0,-57.5 0,-76.5 86,-76.5 86,-57.5 0,-57.5"/>
<text text-anchor="middle" x="43" y="-64.5" font-family="Helvetica,sans-Serif" font-size="10.00">std::exception</text>
</a>
</g>
</g>
<!-- Node0 -->
<g id="node2" class="node">
<title>Node0</title>
<g id="a_node2"><a xlink:href="db/d16/classCellError.html" target="_top" xlink:title=" ">
<polygon fill="none" stroke="black" points="157,-95.5 157,-114.5 216,-114.5 216,-95.5 157,-95.5"/>
<text text-anchor="middle" x="186.5" y="-102.5" font-family="Helvetica,sans-Serif" font-size="10.00">CellError</text>
</a>
</g>
</g>
<!-- Node4&#45;&gt;Node0 -->
<g id="edge1" class="edge">
<title>Node4&#45;&gt;Node0</title>
<path fill="none" stroke="midnightblue" d="M89.57,-79.24C111.71,-85.18 137.62,-92.14 156.93,-97.33"/>
<polygon fill="midnightblue" stroke="midnightblue" points="90.27,-75.8 79.71,-76.59 88.46,-82.56 90.27,-75.8"/>
</g>
<!-- Node8 -->
<g id="node5" class="node">
<title>Node8</title>
<g id="a_node5"><a xlink:href="d4/d58/classCompositeSurfaceError.html" target="_top" xlink:title=" ">
<polygon fill="none" stroke="black" points="122,-57.5 122,-76.5 251,-76.5 251,-57.5 122,-57.5"/>
<text text-anchor="middle" x="186.5" y="-64.5" font-family="Helvetica,sans-Serif" font-size="10.00">CompositeSurfaceError</text>
</a>
</g>
</g>
<!-- Node4&#45;&gt;Node8 -->
<g id="edge4" class="edge">
<title>Node4&#45;&gt;Node8</title>
<path fill="none" stroke="midnightblue" d="M96.08,-67C104.46,-67 113.22,-67 121.84,-67"/>
<polygon fill="midnightblue" stroke="midnightblue" points="96.07,-63.5 86.07,-67 96.07,-70.5 96.07,-63.5"/>
</g>
<!-- Node9 -->
<g id="node6" class="node">
<title>Node9</title>
<g id="a_node6"><a xlink:href="df/d46/classShapeError.html" target="_top" xlink:title=" ">
<polygon fill="none" stroke="black" points="151.5,-19.5 151.5,-38.5 221.5,-38.5 221.5,-19.5 151.5,-19.5"/>
<text text-anchor="middle" x="186.5" y="-26.5" font-family="Helvetica,sans-Serif" font-size="10.00">ShapeError</text>
</a>
</g>
</g>
<!-- Node4&#45;&gt;Node9 -->
<g id="edge5" class="edge">
<title>Node4&#45;&gt;Node9</title>
<path fill="none" stroke="midnightblue" d="M89.56,-54.76C109.6,-49.38 132.74,-43.17 151.27,-38.19"/>
<polygon fill="midnightblue" stroke="midnightblue" points="88.46,-51.44 79.71,-57.41 90.27,-58.2 88.46,-51.44"/>
</g>
<!-- Node1 -->
<g id="node3" class="node">
<title>Node1</title>
<g id="a_node3"><a xlink:href="db/d99/classIntersectError.html" target="_top" xlink:title=" ">
<polygon fill="none" stroke="black" points="287,-123.5 287,-142.5 370,-142.5 370,-123.5 287,-123.5"/>
<text text-anchor="middle" x="328.5" y="-130.5" font-family="Helvetica,sans-Serif" font-size="10.00">IntersectError</text>
</a>
</g>
</g>
<!-- Node0&#45;&gt;Node1 -->
<g id="edge2" class="edge">
<title>Node0&#45;&gt;Node1</title>
<path fill="none" stroke="midnightblue" d="M226.22,-112.74C245.1,-116.52 267.81,-121.06 286.93,-124.89"/>
<polygon fill="midnightblue" stroke="midnightblue" points="226.66,-109.26 216.17,-110.73 225.29,-116.13 226.66,-109.26"/>
</g>
<!-- Node2 -->
<g id="node4" class="node">
<title>Node2</title>
<g id="a_node4"><a xlink:href="db/d85/classOverlapError.html" target="_top" xlink:title=" ">
<polygon fill="none" stroke="black" points="289.5,-85.5 289.5,-104.5 367.5,-104.5 367.5,-85.5 289.5,-85.5"/>
<text text-anchor="middle" x="328.5" y="-92.5" font-family="Helvetica,sans-Serif" font-size="10.00">OverlapError</text>
</a>
</g>
</g>
<!-- Node0&#45;&gt;Node2 -->
<g id="edge3" class="edge">
<title>Node0&#45;&gt;Node2</title>
<path fill="none" stroke="midnightblue" d="M226.32,-102.23C245.97,-100.82 269.74,-99.13 289.31,-97.73"/>
<polygon fill="midnightblue" stroke="midnightblue" points="225.89,-98.75 216.17,-102.95 226.39,-105.73 225.89,-98.75"/>
</g>
<!-- Node10 -->
<g id="node7" class="node">
<title>Node10</title>
<g id="a_node7"><a xlink:href="dc/d35/classLineError.html" target="_top" xlink:title=" ">
<polygon fill="none" stroke="black" points="298.5,-38.5 298.5,-57.5 358.5,-57.5 358.5,-38.5 298.5,-38.5"/>
<text text-anchor="middle" x="328.5" y="-45.5" font-family="Helvetica,sans-Serif" font-size="10.00">LineError</text>
</a>
</g>
</g>
<!-- Node9&#45;&gt;Node10 -->
<g id="edge6" class="edge">
<title>Node9&#45;&gt;Node10</title>
<path fill="none" stroke="midnightblue" d="M231.75,-35C253.49,-37.96 279.08,-41.43 298.34,-44.04"/>
<polygon fill="midnightblue" stroke="midnightblue" points="232.13,-31.52 221.75,-33.65 231.19,-38.46 232.13,-31.52"/>
</g>
<!-- Node11 -->
<g id="node8" class="node">
<title>Node11</title>
<g id="a_node8"><a xlink:href="d3/d45/classTriangleError.html" target="_top" xlink:title=" ">
<polygon fill="none" stroke="black" points="289.5,-0.5 289.5,-19.5 367.5,-19.5 367.5,-0.5 289.5,-0.5"/>
<text text-anchor="middle" x="328.5" y="-7.5" font-family="Helvetica,sans-Serif" font-size="10.00">TriangleError</text>
</a>
</g>
</g>
<!-- Node9&#45;&gt;Node11 -->
<g id="edge7" class="edge">
<title>Node9&#45;&gt;Node11</title>
<path fill="none" stroke="midnightblue" d="M231.72,-23C250.25,-20.48 271.59,-17.59 289.42,-15.17"/>
<polygon fill="midnightblue" stroke="midnightblue" points="231.19,-19.54 221.75,-24.35 232.13,-26.48 231.19,-19.54"/>
</g>
</g>
</svg>
