<?xml version="1.0" encoding="UTF-8" standalone="no"?>
<!DOCTYPE svg PUBLIC "-//W3C//DTD SVG 1.1//EN"
 "http://www.w3.org/Graphics/SVG/1.1/DTD/svg11.dtd">
<!-- Generated by graphviz version 2.43.0 (0)
 -->
<!-- Title: Graphical Class Hierarchy Pages: 1 -->
<svg width="266pt" height="104pt"
 viewBox="0.00 0.00 266.00 104.00" xmlns="http://www.w3.org/2000/svg" xmlns:xlink="http://www.w3.org/1999/xlink">
<g id="graph0" class="graph" transform="scale(1 1) rotate(0) translate(4 100)">
<title>Graphical Class Hierarchy</title>
<!-- Node0 -->
<g id="node1" class="node">
<title>Node0</title>
<g id="a_node1"><a xlink:href="df/d30/classSensorController.html" target="_top" xlink:title=" ">
<polygon fill="none" stroke="black" points="0,-38.5 0,-57.5 98,-57.5 98,-38.5 0,-38.5"/>
<text text-anchor="middle" x="49" y="-45.5" font-family="Helvetica,sans-Serif" font-size="10.00">SensorController</text>
</a>
</g>
</g>
<!-- Node1 -->
<g id="node2" class="node">
<title>Node1</title>
<g id="a_node2"><a xlink:href="db/d1b/classPeriodicController.html" target="_top" xlink:title=" ">
<polygon fill="none" stroke="black" points="144,-76.5 144,-95.5 248,-95.5 248,-76.5 144,-76.5"/>
<text text-anchor="middle" x="196" y="-83.5" font-family="Helvetica,sans-Serif" font-size="10.00">PeriodicController</text>
</a>
</g>
</g>
<!-- Node0&#45;&gt;Node1 -->
<g id="edge1" class="edge">
<title>Node0&#45;&gt;Node1</title>
<path fill="none" stroke="midnightblue" d="M96.49,-60.18C116.62,-65.46 139.84,-71.54 158.67,-76.48"/>
<polygon fill="midnightblue" stroke="midnightblue" points="97.15,-56.74 86.59,-57.59 95.38,-63.51 97.15,-56.74"/>
</g>
<!-- Node2 -->
<g id="node3" class="node">
<title>Node2</title>
<g id="a_node3"><a xlink:href="d6/d6d/classSteadyStateController.html" target="_top" xlink:title=" ">
<polygon fill="none" stroke="black" points="134,-38.5 134,-57.5 258,-57.5 258,-38.5 134,-38.5"/>
<text text-anchor="middle" x="196" y="-45.5" font-family="Helvetica,sans-Serif" font-size="10.00">SteadyStateController</text>
</a>
</g>
</g>
<!-- Node0&#45;&gt;Node2 -->
<g id="edge2" class="edge">
<title>Node0&#45;&gt;Node2</title>
<path fill="none" stroke="midnightblue" d="M108.34,-48C116.71,-48 125.35,-48 133.77,-48"/>
<polygon fill="midnightblue" stroke="midnightblue" points="108.28,-44.5 98.28,-48 108.28,-51.5 108.28,-44.5"/>
</g>
<!-- Node3 -->
<g id="node4" class="node">
<title>Node3</title>
<g id="a_node4"><a xlink:href="da/deb/classTransientController.html" target="_top" xlink:title=" ">
<polygon fill="none" stroke="black" points="141.5,-0.5 141.5,-19.5 250.5,-19.5 250.5,-0.5 141.5,-0.5"/>
<text text-anchor="middle" x="196" y="-7.5" font-family="Helvetica,sans-Serif" font-size="10.00">TransientController</text>
</a>
</g>
</g>
<!-- Node0&#45;&gt;Node3 -->
<g id="edge3" class="edge">
<title>Node0&#45;&gt;Node3</title>
<path fill="none" stroke="midnightblue" d="M96.49,-35.82C116.62,-30.54 139.84,-24.46 158.67,-19.52"/>
<polygon fill="midnightblue" stroke="midnightblue" points="95.38,-32.49 86.59,-38.41 97.15,-39.26 95.38,-32.49"/>
</g>
</g>
</svg>
