<?xml version="1.0" encoding="UTF-8" standalone="no"?>
<!DOCTYPE svg PUBLIC "-//W3C//DTD SVG 1.1//EN"
 "http://www.w3.org/Graphics/SVG/1.1/DTD/svg11.dtd">
<!-- Generated by graphviz version 2.43.0 (0)
 -->
<!-- Title: Material::scatterTable Pages: 1 -->
<svg width="303pt" height="186pt"
 viewBox="0.00 0.00 303.00 186.00" xmlns="http://www.w3.org/2000/svg" xmlns:xlink="http://www.w3.org/1999/xlink">
<g id="graph0" class="graph" transform="scale(1 1) rotate(0) translate(4 182)">
<title>Material::scatterTable</title>
<!-- Node1 -->
<g id="node1" class="node">
<title>Node1</title>
<g id="a_node1"><a xlink:title=" ">
<polygon fill="#bfbfbf" stroke="black" points="173,-79 173,-98 295,-98 295,-79 173,-79"/>
<text text-anchor="middle" x="234" y="-86" font-family="Helvetica,sans-Serif" font-size="10.00">Material::scatterTable</text>
</a>
</g>
</g>
<!-- Node2 -->
<g id="node2" class="node">
<title>Node2</title>
<g id="a_node2"><a xlink:href="../../d6/d6d/classSteadyStateController.html#ac92a2d389aa29e3a0470a1676ca5bf34" target="_top" xlink:title=" ">
<polygon fill="none" stroke="black" points="6.5,-147.5 6.5,-177.5 130.5,-177.5 130.5,-147.5 6.5,-147.5"/>
<text text-anchor="start" x="14.5" y="-165.5" font-family="Helvetica,sans-Serif" font-size="10.00">SteadyStateController</text>
<text text-anchor="middle" x="68.5" y="-154.5" font-family="Helvetica,sans-Serif" font-size="10.00">::reset</text>
</a>
</g>
</g>
<!-- Node1&#45;&gt;Node2 -->
<g id="edge1" class="edge">
<title>Node1&#45;&gt;Node2</title>
<path fill="none" stroke="midnightblue" d="M207.4,-103.07C188.33,-113.62 161.46,-127.84 137,-138.5 129.82,-141.63 122.08,-144.67 114.5,-147.48"/>
<polygon fill="midnightblue" stroke="midnightblue" points="209.33,-106.01 216.35,-98.07 205.91,-99.89 209.33,-106.01"/>
</g>
<!-- Node3 -->
<g id="node3" class="node">
<title>Node3</title>
<g id="a_node3"><a xlink:href="../../db/d1b/classPeriodicController.html#afe8ba1ebac480dcc6b30e7fcd96a5930" target="_top" xlink:title=" ">
<polygon fill="none" stroke="black" points="16.5,-98.5 16.5,-128.5 120.5,-128.5 120.5,-98.5 16.5,-98.5"/>
<text text-anchor="start" x="24.5" y="-116.5" font-family="Helvetica,sans-Serif" font-size="10.00">PeriodicController</text>
<text text-anchor="middle" x="68.5" y="-105.5" font-family="Helvetica,sans-Serif" font-size="10.00">::reset</text>
</a>
</g>
</g>
<!-- Node1&#45;&gt;Node3 -->
<g id="edge2" class="edge">
<title>Node1&#45;&gt;Node3</title>
<path fill="none" stroke="midnightblue" d="M162.43,-99.29C148.35,-101.44 133.82,-103.67 120.55,-105.69"/>
<polygon fill="midnightblue" stroke="midnightblue" points="163.23,-102.71 172.58,-97.74 162.17,-95.79 163.23,-102.71"/>
</g>
<!-- Node4 -->
<g id="node4" class="node">
<title>Node4</title>
<g id="a_node4"><a xlink:href="../../da/deb/classTransientController.html#a3b3fa7475d4babe886c2098b8e6d5d4c" target="_top" xlink:title=" ">
<polygon fill="none" stroke="black" points="14,-49.5 14,-79.5 123,-79.5 123,-49.5 14,-49.5"/>
<text text-anchor="start" x="22" y="-67.5" font-family="Helvetica,sans-Serif" font-size="10.00">TransientController</text>
<text text-anchor="middle" x="68.5" y="-56.5" font-family="Helvetica,sans-Serif" font-size="10.00">::reset</text>
</a>
</g>
</g>
<!-- Node1&#45;&gt;Node4 -->
<g id="edge3" class="edge">
<title>Node1&#45;&gt;Node4</title>
<path fill="none" stroke="midnightblue" d="M162.59,-78.16C149.39,-76.23 135.79,-74.23 123.2,-72.38"/>
<polygon fill="midnightblue" stroke="midnightblue" points="162.18,-81.64 172.58,-79.63 163.2,-74.72 162.18,-81.64"/>
</g>
<!-- Node5 -->
<g id="node5" class="node">
<title>Node5</title>
<g id="a_node5"><a xlink:href="../../df/d30/classSensorController.html#ac524f89a0a28002efe4a9be5e277b884" target="_top" xlink:title=" ">
<polygon fill="none" stroke="black" points="0,-0.5 0,-30.5 137,-30.5 137,-0.5 0,-0.5"/>
<text text-anchor="start" x="8" y="-18.5" font-family="Helvetica,sans-Serif" font-size="10.00">SensorController::update</text>
<text text-anchor="middle" x="68.5" y="-7.5" font-family="Helvetica,sans-Serif" font-size="10.00">Tables</text>
</a>
</g>
</g>
<!-- Node1&#45;&gt;Node5 -->
<g id="edge4" class="edge">
<title>Node1&#45;&gt;Node5</title>
<path fill="none" stroke="midnightblue" d="M206.24,-74.14C187.19,-64.15 160.84,-50.84 137,-40.5 129.09,-37.07 120.54,-33.67 112.27,-30.54"/>
<polygon fill="midnightblue" stroke="midnightblue" points="204.75,-77.31 215.23,-78.88 208.02,-71.12 204.75,-77.31"/>
</g>
</g>
</svg>
