<?xml version="1.0" encoding="UTF-8" standalone="no"?>
<!DOCTYPE svg PUBLIC "-//W3C//DTD SVG 1.1//EN"
 "http://www.w3.org/Graphics/SVG/1.1/DTD/svg11.dtd">
<!-- Generated by graphviz version 2.43.0 (0)
 -->
<!-- Title: Material::baseTable Pages: 1 -->
<svg width="293pt" height="137pt"
 viewBox="0.00 0.00 293.00 137.00" xmlns="http://www.w3.org/2000/svg" xmlns:xlink="http://www.w3.org/1999/xlink">
<g id="graph0" class="graph" transform="scale(1 1) rotate(0) translate(4 133)">
<title>Material::baseTable</title>
<!-- Node1 -->
<g id="node1" class="node">
<title>Node1</title>
<g id="a_node1"><a xlink:title=" ">
<polygon fill="#bfbfbf" stroke="black" points="173,-55 173,-74 285,-74 285,-55 173,-55"/>
<text text-anchor="middle" x="229" y="-62" font-family="Helvetica,sans-Serif" font-size="10.00">Material::baseTable</text>
</a>
</g>
</g>
<!-- Node2 -->
<g id="node2" class="node">
<title>Node2</title>
<g id="a_node2"><a xlink:href="../../d6/d6d/classSteadyStateController.html#ac92a2d389aa29e3a0470a1676ca5bf34" target="_top" xlink:title=" ">
<polygon fill="none" stroke="black" points="6.5,-98.5 6.5,-128.5 130.5,-128.5 130.5,-98.5 6.5,-98.5"/>
<text text-anchor="start" x="14.5" y="-116.5" font-family="Helvetica,sans-Serif" font-size="10.00">SteadyStateController</text>
<text text-anchor="middle" x="68.5" y="-105.5" font-family="Helvetica,sans-Serif" font-size="10.00">::reset</text>
</a>
</g>
</g>
<!-- Node1&#45;&gt;Node2 -->
<g id="edge1" class="edge">
<title>Node1&#45;&gt;Node2</title>
<path fill="none" stroke="midnightblue" d="M187.43,-77.04C166.31,-83.57 140.33,-91.6 118.14,-98.46"/>
<polygon fill="midnightblue" stroke="midnightblue" points="188.54,-80.36 197.06,-74.06 186.48,-73.67 188.54,-80.36"/>
</g>
<!-- Node3 -->
<g id="node3" class="node">
<title>Node3</title>
<g id="a_node3"><a xlink:href="../../db/d1b/classPeriodicController.html#afe8ba1ebac480dcc6b30e7fcd96a5930" target="_top" xlink:title=" ">
<polygon fill="none" stroke="black" points="16.5,-49.5 16.5,-79.5 120.5,-79.5 120.5,-49.5 16.5,-49.5"/>
<text text-anchor="start" x="24.5" y="-67.5" font-family="Helvetica,sans-Serif" font-size="10.00">PeriodicController</text>
<text text-anchor="middle" x="68.5" y="-56.5" font-family="Helvetica,sans-Serif" font-size="10.00">::reset</text>
</a>
</g>
</g>
<!-- Node1&#45;&gt;Node3 -->
<g id="edge2" class="edge">
<title>Node1&#45;&gt;Node3</title>
<path fill="none" stroke="midnightblue" d="M162.52,-64.5C148.55,-64.5 133.99,-64.5 120.66,-64.5"/>
<polygon fill="midnightblue" stroke="midnightblue" points="162.56,-68 172.56,-64.5 162.56,-61 162.56,-68"/>
</g>
<!-- Node4 -->
<g id="node4" class="node">
<title>Node4</title>
<g id="a_node4"><a xlink:href="../../df/d30/classSensorController.html#ac524f89a0a28002efe4a9be5e277b884" target="_top" xlink:title=" ">
<polygon fill="none" stroke="black" points="0,-0.5 0,-30.5 137,-30.5 137,-0.5 0,-0.5"/>
<text text-anchor="start" x="8" y="-18.5" font-family="Helvetica,sans-Serif" font-size="10.00">SensorController::update</text>
<text text-anchor="middle" x="68.5" y="-7.5" font-family="Helvetica,sans-Serif" font-size="10.00">Tables</text>
</a>
</g>
</g>
<!-- Node1&#45;&gt;Node4 -->
<g id="edge3" class="edge">
<title>Node1&#45;&gt;Node4</title>
<path fill="none" stroke="midnightblue" d="M187.43,-51.96C166.31,-45.43 140.33,-37.4 118.14,-30.54"/>
<polygon fill="midnightblue" stroke="midnightblue" points="186.48,-55.33 197.06,-54.94 188.54,-48.64 186.48,-55.33"/>
</g>
</g>
</svg>
