<?xml version="1.0" encoding="UTF-8" standalone="no"?>
<!DOCTYPE svg PUBLIC "-//W3C//DTD SVG 1.1//EN"
 "http://www.w3.org/Graphics/SVG/1.1/DTD/svg11.dtd">
<!-- Generated by graphviz version 2.43.0 (0)
 -->
<!-- Title: Material::baseEnergy Pages: 1 -->
<svg width="301pt" height="137pt"
 viewBox="0.00 0.00 301.00 137.00" xmlns="http://www.w3.org/2000/svg" xmlns:xlink="http://www.w3.org/1999/xlink">
<g id="graph0" class="graph" transform="scale(1 1) rotate(0) translate(4 133)">
<title>Material::baseEnergy</title>
<!-- Node1 -->
<g id="node1" class="node">
<title>Node1</title>
<g id="a_node1"><a xlink:title=" ">
<polygon fill="#bfbfbf" stroke="black" points="173,-55 173,-74 293,-74 293,-55 173,-55"/>
<text text-anchor="middle" x="233" y="-62" font-family="Helvetica,sans-Serif" font-size="10.00">Material::baseEnergy</text>
</a>
</g>
</g>
<!-- Node2 -->
<g id="node2" class="node">
<title>Node2</title>
<g id="a_node2"><a xlink:href="../../d6/d6d/classSteadyStateController.html#ac92a2d389aa29e3a0470a1676ca5bf34" target="_top" xlink:title=" ">
<polygon fill="none" stroke="black" points="6.5,-98.5 6.5,-128.5 130.5,-128.5 130.5,-98.5 6.5,-98.5"/>
<text text-anchor="start" x="14.5" y="-116.5" font-family="Helvetica,sans-Serif" font-size="10.00">SteadyStateController</text>
<text text-anchor="middle" x="68.5" y="-105.5" font-family="Helvetica,sans-Serif" font-size="10.00">::reset</text>
</a>
</g>
</g>
<!-- Node1&#45;&gt;Node2 -->
<g id="edge1" class="edge">
<title>Node1&#45;&gt;Node2</title>
<path fill="none" stroke="midnightblue" d="M190.7,-76.95C168.99,-83.5 142.22,-91.57 119.37,-98.46"/>
<polygon fill="midnightblue" stroke="midnightblue" points="191.72,-80.3 200.28,-74.06 189.7,-73.6 191.72,-80.3"/>
</g>
<!-- Node3 -->
<g id="node3" class="node">
<title>Node3</title>
<g id="a_node3"><a xlink:href="../../da/deb/classTransientController.html#a3b3fa7475d4babe886c2098b8e6d5d4c" target="_top" xlink:title=" ">
<polygon fill="none" stroke="black" points="14,-49.5 14,-79.5 123,-79.5 123,-49.5 14,-49.5"/>
<text text-anchor="start" x="22" y="-67.5" font-family="Helvetica,sans-Serif" font-size="10.00">TransientController</text>
<text text-anchor="middle" x="68.5" y="-56.5" font-family="Helvetica,sans-Serif" font-size="10.00">::reset</text>
</a>
</g>
</g>
<!-- Node1&#45;&gt;Node3 -->
<g id="edge2" class="edge">
<title>Node1&#45;&gt;Node3</title>
<path fill="none" stroke="midnightblue" d="M162.84,-64.5C149.58,-64.5 135.88,-64.5 123.19,-64.5"/>
<polygon fill="midnightblue" stroke="midnightblue" points="162.87,-68 172.87,-64.5 162.87,-61 162.87,-68"/>
</g>
<!-- Node4 -->
<g id="node4" class="node">
<title>Node4</title>
<g id="a_node4"><a xlink:href="../../df/d30/classSensorController.html#ac524f89a0a28002efe4a9be5e277b884" target="_top" xlink:title=" ">
<polygon fill="none" stroke="black" points="0,-0.5 0,-30.5 137,-30.5 137,-0.5 0,-0.5"/>
<text text-anchor="start" x="8" y="-18.5" font-family="Helvetica,sans-Serif" font-size="10.00">SensorController::update</text>
<text text-anchor="middle" x="68.5" y="-7.5" font-family="Helvetica,sans-Serif" font-size="10.00">Tables</text>
</a>
</g>
</g>
<!-- Node1&#45;&gt;Node4 -->
<g id="edge3" class="edge">
<title>Node1&#45;&gt;Node4</title>
<path fill="none" stroke="midnightblue" d="M190.7,-52.05C168.99,-45.5 142.22,-37.43 119.37,-30.54"/>
<polygon fill="midnightblue" stroke="midnightblue" points="189.7,-55.4 200.28,-54.94 191.72,-48.7 189.7,-55.4"/>
</g>
</g>
</svg>
