<?xml version="1.0" encoding="UTF-8" standalone="no"?>
<!DOCTYPE svg PUBLIC "-//W3C//DTD SVG 1.1//EN"
 "http://www.w3.org/Graphics/SVG/1.1/DTD/svg11.dtd">
<!-- Generated by graphviz version 2.43.0 (0)
 -->
<!-- Title: Material::freqIndex Pages: 1 -->
<svg width="291pt" height="137pt"
 viewBox="0.00 0.00 291.00 137.00" xmlns="http://www.w3.org/2000/svg" xmlns:xlink="http://www.w3.org/1999/xlink">
<g id="graph0" class="graph" transform="scale(1 1) rotate(0) translate(4 133)">
<title>Material::freqIndex</title>
<!-- Node1 -->
<g id="node1" class="node">
<title>Node1</title>
<g id="a_node1"><a xlink:title=" ">
<polygon fill="#bfbfbf" stroke="black" points="173,-55 173,-74 283,-74 283,-55 173,-55"/>
<text text-anchor="middle" x="228" y="-62" font-family="Helvetica,sans-Serif" font-size="10.00">Material::freqIndex</text>
</a>
</g>
</g>
<!-- Node2 -->
<g id="node2" class="node">
<title>Node2</title>
<g id="a_node2"><a xlink:href="../../df/d30/classSensorController.html#a5c663fffce448dbf127661cc4d92e76c" target="_top" xlink:title=" ">
<polygon fill="none" stroke="black" points="3,-98.5 3,-128.5 134,-128.5 134,-98.5 3,-98.5"/>
<text text-anchor="start" x="11" y="-116.5" font-family="Helvetica,sans-Serif" font-size="10.00">SensorController::initial</text>
<text text-anchor="middle" x="68.5" y="-105.5" font-family="Helvetica,sans-Serif" font-size="10.00">Update</text>
</a>
</g>
</g>
<!-- Node1&#45;&gt;Node2 -->
<g id="edge1" class="edge">
<title>Node1&#45;&gt;Node2</title>
<path fill="none" stroke="midnightblue" d="M186.68,-77.04C165.7,-83.57 139.89,-91.6 117.83,-98.46"/>
<polygon fill="midnightblue" stroke="midnightblue" points="187.75,-80.38 196.26,-74.06 185.67,-73.69 187.75,-80.38"/>
</g>
<!-- Node3 -->
<g id="node3" class="node">
<title>Node3</title>
<g id="a_node3"><a xlink:href="../../df/d30/classSensorController.html#ac03baa5b610a000e027a2c73aa301b63" target="_top" xlink:title=" ">
<polygon fill="none" stroke="black" points="0,-49.5 0,-79.5 137,-79.5 137,-49.5 0,-49.5"/>
<text text-anchor="start" x="8" y="-67.5" font-family="Helvetica,sans-Serif" font-size="10.00">SensorController::scatter</text>
<text text-anchor="middle" x="68.5" y="-56.5" font-family="Helvetica,sans-Serif" font-size="10.00">Update</text>
</a>
</g>
</g>
<!-- Node1&#45;&gt;Node3 -->
<g id="edge2" class="edge">
<title>Node1&#45;&gt;Node3</title>
<path fill="none" stroke="midnightblue" d="M162.68,-64.5C154.26,-64.5 145.62,-64.5 137.16,-64.5"/>
<polygon fill="midnightblue" stroke="midnightblue" points="162.8,-68 172.8,-64.5 162.8,-61 162.8,-68"/>
</g>
<!-- Node4 -->
<g id="node4" class="node">
<title>Node4</title>
<g id="a_node4"><a xlink:href="../../da/deb/classTransientController.html#ac722072017a3d92763fd100ed390b386" target="_top" xlink:title=" ">
<polygon fill="none" stroke="black" points="14,-0.5 14,-30.5 123,-30.5 123,-0.5 14,-0.5"/>
<text text-anchor="start" x="22" y="-18.5" font-family="Helvetica,sans-Serif" font-size="10.00">TransientController</text>
<text text-anchor="middle" x="68.5" y="-7.5" font-family="Helvetica,sans-Serif" font-size="10.00">::scatterUpdate</text>
</a>
</g>
</g>
<!-- Node1&#45;&gt;Node4 -->
<g id="edge3" class="edge">
<title>Node1&#45;&gt;Node4</title>
<path fill="none" stroke="midnightblue" d="M186.68,-51.96C165.7,-45.43 139.89,-37.4 117.83,-30.54"/>
<polygon fill="midnightblue" stroke="midnightblue" points="185.67,-55.31 196.26,-54.94 187.75,-48.62 185.67,-55.31"/>
</g>
</g>
</svg>
