<?xml version="1.0" encoding="UTF-8" standalone="no"?>
<!DOCTYPE svg PUBLIC "-//W3C//DTD SVG 1.1//EN"
 "http://www.w3.org/Graphics/SVG/1.1/DTD/svg11.dtd">
<!-- Generated by graphviz version 2.43.0 (0)
 -->
<!-- Title: Model::exportResults Pages: 1 -->
<svg width="333pt" height="78pt"
 viewBox="0.00 0.00 333.00 77.50" xmlns="http://www.w3.org/2000/svg" xmlns:xlink="http://www.w3.org/1999/xlink">
<g id="graph0" class="graph" transform="scale(1 1) rotate(0) translate(4 73.5)">
<title>Model::exportResults</title>
<!-- Node1 -->
<g id="node1" class="node">
<title>Node1</title>
<g id="a_node1"><a xlink:title=" ">
<polygon fill="#bfbfbf" stroke="black" points="0,-28 0,-47 120,-47 120,-28 0,-28"/>
<text text-anchor="middle" x="60" y="-35" font-family="Helvetica,sans-Serif" font-size="10.00">Model::exportResults</text>
</a>
</g>
</g>
<!-- Node2 -->
<g id="node2" class="node">
<title>Node2</title>
<g id="a_node2"><a xlink:href="../../d1/d22/classOutputManager.html#a09380f9910c007ffbf1f3bf251bf9ca7" target="_top" xlink:title=" ">
<polygon fill="none" stroke="black" points="156,-50 156,-69 325,-69 325,-50 156,-50"/>
<text text-anchor="middle" x="240.5" y="-57" font-family="Helvetica,sans-Serif" font-size="10.00">OutputManager::periodicExport</text>
</a>
</g>
</g>
<!-- Node1&#45;&gt;Node2 -->
<g id="edge1" class="edge">
<title>Node1&#45;&gt;Node2</title>
<path fill="none" stroke="midnightblue" d="M120.44,-44.83C130.58,-46.08 141.31,-47.4 152,-48.72"/>
<polygon fill="midnightblue" stroke="midnightblue" points="151.87,-52.23 162.22,-49.98 152.72,-45.28 151.87,-52.23"/>
</g>
<!-- Node3 -->
<g id="node3" class="node">
<title>Node3</title>
<g id="a_node3"><a xlink:href="../../d1/d22/classOutputManager.html#aa3f3ce0db4ab572e78228da7b0dccb84" target="_top" xlink:title=" ">
<polygon fill="none" stroke="black" points="162,-0.5 162,-30.5 319,-30.5 319,-0.5 162,-0.5"/>
<text text-anchor="start" x="170" y="-18.5" font-family="Helvetica,sans-Serif" font-size="10.00">OutputManager::steadyState</text>
<text text-anchor="middle" x="240.5" y="-7.5" font-family="Helvetica,sans-Serif" font-size="10.00">Export</text>
</a>
</g>
</g>
<!-- Node1&#45;&gt;Node3 -->
<g id="edge2" class="edge">
<title>Node1&#45;&gt;Node3</title>
<path fill="none" stroke="midnightblue" d="M120.44,-30.17C130.51,-28.93 141.15,-27.62 151.76,-26.31"/>
<polygon fill="midnightblue" stroke="midnightblue" points="152.41,-29.76 161.9,-25.06 151.55,-22.81 152.41,-29.76"/>
</g>
</g>
</svg>
