<?xml version="1.0" encoding="UTF-8" standalone="no"?>
<!DOCTYPE svg PUBLIC "-//W3C//DTD SVG 1.1//EN"
 "http://www.w3.org/Graphics/SVG/1.1/DTD/svg11.dtd">
<!-- Generated by graphviz version 2.43.0 (0)
 -->
<!-- Title: Model::runSimulation Pages: 1 -->
<svg width="474pt" height="149pt"
 viewBox="0.00 0.00 474.00 149.00" xmlns="http://www.w3.org/2000/svg" xmlns:xlink="http://www.w3.org/1999/xlink">
<g id="graph0" class="graph" transform="scale(1 1) rotate(0) translate(4 145)">
<title>Model::runSimulation</title>
<!-- Node1 -->
<g id="node1" class="node">
<title>Node1</title>
<g id="a_node1"><a xlink:title=" ">
<polygon fill="#bfbfbf" stroke="black" points="0,-50 0,-69 121,-69 121,-50 0,-50"/>
<text text-anchor="middle" x="60.5" y="-57" font-family="Helvetica,sans-Serif" font-size="10.00">Model::runSimulation</text>
</a>
</g>
</g>
<!-- Node2 -->
<g id="node2" class="node">
<title>Node2</title>
<g id="a_node2"><a xlink:href="../../df/dce/classModelSimulator.html#ae128a539d7e7d919d6ac237caadb7238" target="_top" xlink:title=" ">
<polygon fill="none" stroke="black" points="165,-88.5 165,-118.5 317,-118.5 317,-88.5 165,-88.5"/>
<text text-anchor="start" x="173" y="-106.5" font-family="Helvetica,sans-Serif" font-size="10.00">ModelSimulator::initPhonon</text>
<text text-anchor="middle" x="241" y="-95.5" font-family="Helvetica,sans-Serif" font-size="10.00">Builders</text>
</a>
</g>
</g>
<!-- Node1&#45;&gt;Node2 -->
<g id="edge1" class="edge">
<title>Node1&#45;&gt;Node2</title>
<path fill="none" stroke="midnightblue" d="M100.23,-69.05C120.33,-74 145.52,-80.21 168.96,-85.99"/>
<polygon fill="midnightblue" stroke="midnightblue" points="168.34,-89.44 178.88,-88.43 170.01,-82.64 168.34,-89.44"/>
</g>
<!-- Node5 -->
<g id="node5" class="node">
<title>Node5</title>
<g id="a_node5"><a xlink:href="../../df/dce/classModelSimulator.html#a72cf366dc3b3232837d715463bc23551" target="_top" xlink:title=" ">
<polygon fill="none" stroke="black" points="157,-50 157,-69 325,-69 325,-50 157,-50"/>
<text text-anchor="middle" x="241" y="-57" font-family="Helvetica,sans-Serif" font-size="10.00">ModelSimulator::runSimulation</text>
</a>
</g>
</g>
<!-- Node1&#45;&gt;Node5 -->
<g id="edge4" class="edge">
<title>Node1&#45;&gt;Node5</title>
<path fill="none" stroke="midnightblue" d="M121.43,-59.5C129.59,-59.5 138.11,-59.5 146.68,-59.5"/>
<polygon fill="midnightblue" stroke="midnightblue" points="146.74,-63 156.74,-59.5 146.74,-56 146.74,-63"/>
</g>
<!-- Node6 -->
<g id="node6" class="node">
<title>Node6</title>
<g id="a_node6"><a xlink:href="../../d6/de9/classSensorInterpreter.html#ae42812cdabfb4fac5bf37433eba1bfd3" target="_top" xlink:title=" ">
<polygon fill="none" stroke="black" points="187.5,-0.5 187.5,-30.5 294.5,-30.5 294.5,-0.5 187.5,-0.5"/>
<text text-anchor="start" x="195.5" y="-18.5" font-family="Helvetica,sans-Serif" font-size="10.00">SensorInterpreter::</text>
<text text-anchor="middle" x="241" y="-7.5" font-family="Helvetica,sans-Serif" font-size="10.00">setParams</text>
</a>
</g>
</g>
<!-- Node1&#45;&gt;Node6 -->
<g id="edge5" class="edge">
<title>Node1&#45;&gt;Node6</title>
<path fill="none" stroke="midnightblue" d="M100.23,-49.95C122.77,-44.4 151.72,-37.26 177.42,-30.93"/>
<polygon fill="midnightblue" stroke="midnightblue" points="178.59,-34.24 187.46,-28.45 176.91,-27.45 178.59,-34.24"/>
</g>
<!-- Node3 -->
<g id="node3" class="node">
<title>Node3</title>
<g id="a_node3"><a xlink:href="../../df/da6/classCellOriginBuilder.html#a1d6d9f54026fd800bedfb214cdc0247a" target="_top" xlink:title=" ">
<polygon fill="none" stroke="black" points="361,-110.5 361,-140.5 466,-140.5 466,-110.5 361,-110.5"/>
<text text-anchor="start" x="369" y="-128.5" font-family="Helvetica,sans-Serif" font-size="10.00">CellOriginBuilder::</text>
<text text-anchor="middle" x="413.5" y="-117.5" font-family="Helvetica,sans-Serif" font-size="10.00">addCellPhonons</text>
</a>
</g>
</g>
<!-- Node2&#45;&gt;Node3 -->
<g id="edge2" class="edge">
<title>Node2&#45;&gt;Node3</title>
<path fill="none" stroke="midnightblue" d="M317.28,-113.21C328.37,-114.64 339.68,-116.1 350.46,-117.49"/>
<polygon fill="midnightblue" stroke="midnightblue" points="350.24,-121 360.61,-118.8 351.14,-114.05 350.24,-121"/>
</g>
<!-- Node4 -->
<g id="node4" class="node">
<title>Node4</title>
<g id="a_node4"><a xlink:href="../../d4/d3d/namespaceUtils.html#a43e50478f64886919d326da79ac1921b" target="_top" xlink:title=" ">
<polygon fill="none" stroke="black" points="377,-72 377,-91 450,-91 450,-72 377,-72"/>
<text text-anchor="middle" x="413.5" y="-79" font-family="Helvetica,sans-Serif" font-size="10.00">Utils::urand</text>
</a>
</g>
</g>
<!-- Node2&#45;&gt;Node4 -->
<g id="edge3" class="edge">
<title>Node2&#45;&gt;Node4</title>
<path fill="none" stroke="midnightblue" d="M317.28,-93.79C334.1,-91.62 351.44,-89.38 366.64,-87.42"/>
<polygon fill="midnightblue" stroke="midnightblue" points="367.31,-90.86 376.78,-86.11 366.42,-83.92 367.31,-90.86"/>
</g>
</g>
</svg>
