<?xml version="1.0" encoding="UTF-8" standalone="no"?>
<!DOCTYPE svg PUBLIC "-//W3C//DTD SVG 1.1//EN"
 "http://www.w3.org/Graphics/SVG/1.1/DTD/svg11.dtd">
<!-- Generated by graphviz version 2.43.0 (0)
 -->
<!-- Title: Model::addCell Pages: 1 -->
<svg width="647pt" height="127pt"
 viewBox="0.00 0.00 647.00 126.50" xmlns="http://www.w3.org/2000/svg" xmlns:xlink="http://www.w3.org/1999/xlink">
<g id="graph0" class="graph" transform="scale(1 1) rotate(0) translate(4 122.5)">
<title>Model::addCell</title>
<!-- Node1 -->
<g id="node1" class="node">
<title>Node1</title>
<g id="a_node1"><a xlink:title=" ">
<polygon fill="#bfbfbf" stroke="black" points="0,-74 0,-93 89,-93 89,-74 0,-74"/>
<text text-anchor="middle" x="44.5" y="-81" font-family="Helvetica,sans-Serif" font-size="10.00">Model::addCell</text>
</a>
</g>
</g>
<!-- Node2 -->
<g id="node2" class="node">
<title>Node2</title>
<g id="a_node2"><a xlink:href="../../de/dfd/classCell.html#ad8ab033d3db9b26d175b2c8481235acf" target="_top" xlink:title=" ">
<polygon fill="none" stroke="black" points="125,-96 125,-115 268,-115 268,-96 125,-96"/>
<text text-anchor="middle" x="196.5" y="-103" font-family="Helvetica,sans-Serif" font-size="10.00">Cell::findTransitionSurface</text>
</a>
</g>
</g>
<!-- Node1&#45;&gt;Node2 -->
<g id="edge1" class="edge">
<title>Node1&#45;&gt;Node2</title>
<path fill="none" stroke="midnightblue" d="M89.29,-89.92C99.05,-91.35 109.68,-92.91 120.3,-94.47"/>
<polygon fill="midnightblue" stroke="midnightblue" points="120.07,-97.97 130.47,-95.96 121.08,-91.05 120.07,-97.97"/>
</g>
<!-- Node4 -->
<g id="node4" class="node">
<title>Node4</title>
<g id="a_node4"><a xlink:href="../../de/dfd/classCell.html#a0e3a7f08a0e22182119f37c2d2ab66c1" target="_top" xlink:title=" ">
<polygon fill="none" stroke="black" points="156,-55 156,-74 237,-74 237,-55 156,-55"/>
<text text-anchor="middle" x="196.5" y="-62" font-family="Helvetica,sans-Serif" font-size="10.00">Cell::validate</text>
</a>
</g>
</g>
<!-- Node1&#45;&gt;Node4 -->
<g id="edge3" class="edge">
<title>Node1&#45;&gt;Node4</title>
<path fill="none" stroke="midnightblue" d="M89.29,-77.95C106.94,-75.72 127.39,-73.13 145.61,-70.82"/>
<polygon fill="midnightblue" stroke="midnightblue" points="146.27,-74.26 155.75,-69.53 145.39,-67.32 146.27,-74.26"/>
</g>
<!-- Node3 -->
<g id="node3" class="node">
<title>Node3</title>
<g id="a_node3"><a xlink:href="../../de/dfd/classCell.html#ae0c074eb534531bc3e2877526565e7a4" target="_top" xlink:title=" ">
<polygon fill="none" stroke="black" points="304,-99 304,-118 433,-118 433,-99 304,-99"/>
<text text-anchor="middle" x="368.5" y="-106" font-family="Helvetica,sans-Serif" font-size="10.00">Cell::getBoundaryLines</text>
</a>
</g>
</g>
<!-- Node2&#45;&gt;Node3 -->
<g id="edge2" class="edge">
<title>Node2&#45;&gt;Node3</title>
<path fill="none" stroke="midnightblue" d="M268.12,-106.75C276.55,-106.89 285.18,-107.05 293.65,-107.2"/>
<polygon fill="midnightblue" stroke="midnightblue" points="293.83,-110.7 303.89,-107.38 293.95,-103.7 293.83,-110.7"/>
</g>
<!-- Node5 -->
<g id="node5" class="node">
<title>Node5</title>
<g id="a_node5"><a xlink:href="../../d9/d10/structGeometry_1_1Triangle.html#ac527aee8f182051052aa2bb775c5f074" target="_top" xlink:title=" ">
<polygon fill="none" stroke="black" points="314,-49.5 314,-79.5 423,-79.5 423,-49.5 314,-49.5"/>
<text text-anchor="start" x="322" y="-67.5" font-family="Helvetica,sans-Serif" font-size="10.00">Geometry::Triangle</text>
<text text-anchor="middle" x="368.5" y="-56.5" font-family="Helvetica,sans-Serif" font-size="10.00">::contains</text>
</a>
</g>
</g>
<!-- Node4&#45;&gt;Node5 -->
<g id="edge4" class="edge">
<title>Node4&#45;&gt;Node5</title>
<path fill="none" stroke="midnightblue" d="M237.36,-64.5C257.1,-64.5 281.42,-64.5 303.68,-64.5"/>
<polygon fill="midnightblue" stroke="midnightblue" points="303.73,-68 313.73,-64.5 303.73,-61 303.73,-68"/>
</g>
<!-- Node6 -->
<g id="node6" class="node">
<title>Node6</title>
<g id="a_node6"><a xlink:href="../../d9/d10/structGeometry_1_1Triangle.html#a6ae6d3c182510419ac7f3a0f1e0358f0" target="_top" xlink:title=" ">
<polygon fill="none" stroke="black" points="314,-0.5 314,-30.5 423,-30.5 423,-0.5 314,-0.5"/>
<text text-anchor="start" x="322" y="-18.5" font-family="Helvetica,sans-Serif" font-size="10.00">Geometry::Triangle</text>
<text text-anchor="middle" x="368.5" y="-7.5" font-family="Helvetica,sans-Serif" font-size="10.00">::intersects</text>
</a>
</g>
</g>
<!-- Node4&#45;&gt;Node6 -->
<g id="edge5" class="edge">
<title>Node4&#45;&gt;Node6</title>
<path fill="none" stroke="midnightblue" d="M230.68,-54.94C251.92,-48.81 280.14,-40.68 305.44,-33.39"/>
<polygon fill="midnightblue" stroke="midnightblue" points="306.69,-36.67 315.33,-30.54 304.75,-29.94 306.69,-36.67"/>
</g>
<!-- Node7 -->
<g id="node7" class="node">
<title>Node7</title>
<g id="a_node7"><a xlink:href="../../d1/d2a/structGeometry_1_1Line.html#ae966bdee0ed4b93828819766a677090c" target="_top" xlink:title=" ">
<polygon fill="none" stroke="black" points="469,-6 469,-25 639,-25 639,-6 469,-6"/>
<text text-anchor="middle" x="554" y="-13" font-family="Helvetica,sans-Serif" font-size="10.00">Geometry::Line::getIntersection</text>
</a>
</g>
</g>
<!-- Node6&#45;&gt;Node7 -->
<g id="edge6" class="edge">
<title>Node6&#45;&gt;Node7</title>
<path fill="none" stroke="midnightblue" d="M423.07,-15.5C434.31,-15.5 446.48,-15.5 458.71,-15.5"/>
<polygon fill="midnightblue" stroke="midnightblue" points="458.98,-19 468.98,-15.5 458.98,-12 458.98,-19"/>
</g>
</g>
</svg>
