<?xml version="1.0" encoding="UTF-8" standalone="no"?>
<!DOCTYPE svg PUBLIC "-//W3C//DTD SVG 1.1//EN"
 "http://www.w3.org/Graphics/SVG/1.1/DTD/svg11.dtd">
<!-- Generated by graphviz version 2.43.0 (0)
 -->
<!-- Title: Model::setSimulationType Pages: 1 -->
<svg width="380pt" height="66pt"
 viewBox="0.00 0.00 380.00 66.00" xmlns="http://www.w3.org/2000/svg" xmlns:xlink="http://www.w3.org/1999/xlink">
<g id="graph0" class="graph" transform="scale(1 1) rotate(0) translate(4 62)">
<title>Model::setSimulationType</title>
<!-- Node1 -->
<g id="node1" class="node">
<title>Node1</title>
<g id="a_node1"><a xlink:title=" ">
<polygon fill="#bfbfbf" stroke="black" points="0,-19.5 0,-38.5 143,-38.5 143,-19.5 0,-19.5"/>
<text text-anchor="middle" x="71.5" y="-26.5" font-family="Helvetica,sans-Serif" font-size="10.00">Model::setSimulationType</text>
</a>
</g>
</g>
<!-- Node2 -->
<g id="node2" class="node">
<title>Node2</title>
<g id="a_node2"><a xlink:href="../../df/dce/classModelSimulator.html#a0936c8625ed5b91e568b01e13ebe9ab0" target="_top" xlink:title=" ">
<polygon fill="none" stroke="black" points="179,-38.5 179,-57.5 372,-57.5 372,-38.5 179,-38.5"/>
<text text-anchor="middle" x="275.5" y="-45.5" font-family="Helvetica,sans-Serif" font-size="10.00">ModelSimulator::setStepAdjustment</text>
</a>
</g>
</g>
<!-- Node1&#45;&gt;Node2 -->
<g id="edge1" class="edge">
<title>Node1&#45;&gt;Node2</title>
<path fill="none" stroke="midnightblue" d="M143.15,-35.65C151.41,-36.42 159.97,-37.23 168.57,-38.04"/>
<polygon fill="midnightblue" stroke="midnightblue" points="168.4,-41.54 178.68,-38.99 169.05,-34.57 168.4,-41.54"/>
</g>
<!-- Node3 -->
<g id="node3" class="node">
<title>Node3</title>
<g id="a_node3"><a xlink:href="../../d1/d22/classOutputManager.html#a8422b62b1bd3f6136fdf971bebaca414" target="_top" xlink:title=" ">
<polygon fill="none" stroke="black" points="189,-0.5 189,-19.5 362,-19.5 362,-0.5 189,-0.5"/>
<text text-anchor="middle" x="275.5" y="-7.5" font-family="Helvetica,sans-Serif" font-size="10.00">OutputManager::setStepInterval</text>
</a>
</g>
</g>
<!-- Node1&#45;&gt;Node3 -->
<g id="edge2" class="edge">
<title>Node1&#45;&gt;Node3</title>
<path fill="none" stroke="midnightblue" d="M143.15,-22.35C154.7,-21.27 166.84,-20.13 178.88,-18.99"/>
<polygon fill="midnightblue" stroke="midnightblue" points="179.32,-22.47 188.95,-18.05 178.67,-15.5 179.32,-22.47"/>
</g>
</g>
</svg>
