<?xml version="1.0" encoding="UTF-8" standalone="no"?>
<!DOCTYPE svg PUBLIC "-//W3C//DTD SVG 1.1//EN"
 "http://www.w3.org/Graphics/SVG/1.1/DTD/svg11.dtd">
<!-- Generated by graphviz version 2.43.0 (0)
 -->
<!-- Title: Model::addCell Pages: 1 -->
<svg width="772pt" height="127pt"
 viewBox="0.00 0.00 772.00 126.50" xmlns="http://www.w3.org/2000/svg" xmlns:xlink="http://www.w3.org/1999/xlink">
<g id="graph0" class="graph" transform="scale(1 1) rotate(0) translate(4 122.5)">
<title>Model::addCell</title>
<!-- Node1 -->
<g id="node1" class="node">
<title>Node1</title>
<g id="a_node1"><a xlink:title=" ">
<polygon fill="#bfbfbf" stroke="black" points="0,-74 0,-93 89,-93 89,-74 0,-74"/>
<text text-anchor="middle" x="44.5" y="-81" font-family="Helvetica,sans-Serif" font-size="10.00">Model::addCell</text>
</a>
</g>
</g>
<!-- Node2 -->
<g id="node2" class="node">
<title>Node2</title>
<g id="a_node2"><a xlink:href="../../d6/d18/classModel.html#af1a3ec716c6789100bffad58515b3fd1" target="_top" xlink:title=" ">
<polygon fill="none" stroke="black" points="125,-74 125,-93 214,-93 214,-74 125,-74"/>
<text text-anchor="middle" x="169.5" y="-81" font-family="Helvetica,sans-Serif" font-size="10.00">Model::addCell</text>
</a>
</g>
</g>
<!-- Node1&#45;&gt;Node2 -->
<g id="edge1" class="edge">
<title>Node1&#45;&gt;Node2</title>
<path fill="none" stroke="midnightblue" d="M89.21,-83.5C97.46,-83.5 106.17,-83.5 114.69,-83.5"/>
<polygon fill="midnightblue" stroke="midnightblue" points="114.93,-87 124.93,-83.5 114.93,-80 114.93,-87"/>
</g>
<!-- Node3 -->
<g id="node3" class="node">
<title>Node3</title>
<g id="a_node3"><a xlink:href="../../de/dfd/classCell.html#ad8ab033d3db9b26d175b2c8481235acf" target="_top" xlink:title=" ">
<polygon fill="none" stroke="black" points="250,-96 250,-115 393,-115 393,-96 250,-96"/>
<text text-anchor="middle" x="321.5" y="-103" font-family="Helvetica,sans-Serif" font-size="10.00">Cell::findTransitionSurface</text>
</a>
</g>
</g>
<!-- Node2&#45;&gt;Node3 -->
<g id="edge2" class="edge">
<title>Node2&#45;&gt;Node3</title>
<path fill="none" stroke="midnightblue" d="M214.29,-89.92C224.05,-91.35 234.68,-92.91 245.3,-94.47"/>
<polygon fill="midnightblue" stroke="midnightblue" points="245.07,-97.97 255.47,-95.96 246.08,-91.05 245.07,-97.97"/>
</g>
<!-- Node5 -->
<g id="node5" class="node">
<title>Node5</title>
<g id="a_node5"><a xlink:href="../../de/dfd/classCell.html#a0e3a7f08a0e22182119f37c2d2ab66c1" target="_top" xlink:title=" ">
<polygon fill="none" stroke="black" points="281,-55 281,-74 362,-74 362,-55 281,-55"/>
<text text-anchor="middle" x="321.5" y="-62" font-family="Helvetica,sans-Serif" font-size="10.00">Cell::validate</text>
</a>
</g>
</g>
<!-- Node2&#45;&gt;Node5 -->
<g id="edge4" class="edge">
<title>Node2&#45;&gt;Node5</title>
<path fill="none" stroke="midnightblue" d="M214.29,-77.95C231.94,-75.72 252.39,-73.13 270.61,-70.82"/>
<polygon fill="midnightblue" stroke="midnightblue" points="271.27,-74.26 280.75,-69.53 270.39,-67.32 271.27,-74.26"/>
</g>
<!-- Node4 -->
<g id="node4" class="node">
<title>Node4</title>
<g id="a_node4"><a xlink:href="../../de/dfd/classCell.html#ae0c074eb534531bc3e2877526565e7a4" target="_top" xlink:title=" ">
<polygon fill="none" stroke="black" points="429,-99 429,-118 558,-118 558,-99 429,-99"/>
<text text-anchor="middle" x="493.5" y="-106" font-family="Helvetica,sans-Serif" font-size="10.00">Cell::getBoundaryLines</text>
</a>
</g>
</g>
<!-- Node3&#45;&gt;Node4 -->
<g id="edge3" class="edge">
<title>Node3&#45;&gt;Node4</title>
<path fill="none" stroke="midnightblue" d="M393.12,-106.75C401.55,-106.89 410.18,-107.05 418.65,-107.2"/>
<polygon fill="midnightblue" stroke="midnightblue" points="418.83,-110.7 428.89,-107.38 418.95,-103.7 418.83,-110.7"/>
</g>
<!-- Node6 -->
<g id="node6" class="node">
<title>Node6</title>
<g id="a_node6"><a xlink:href="../../d9/d10/structGeometry_1_1Triangle.html#ac527aee8f182051052aa2bb775c5f074" target="_top" xlink:title=" ">
<polygon fill="none" stroke="black" points="439,-49.5 439,-79.5 548,-79.5 548,-49.5 439,-49.5"/>
<text text-anchor="start" x="447" y="-67.5" font-family="Helvetica,sans-Serif" font-size="10.00">Geometry::Triangle</text>
<text text-anchor="middle" x="493.5" y="-56.5" font-family="Helvetica,sans-Serif" font-size="10.00">::contains</text>
</a>
</g>
</g>
<!-- Node5&#45;&gt;Node6 -->
<g id="edge5" class="edge">
<title>Node5&#45;&gt;Node6</title>
<path fill="none" stroke="midnightblue" d="M362.36,-64.5C382.1,-64.5 406.42,-64.5 428.68,-64.5"/>
<polygon fill="midnightblue" stroke="midnightblue" points="428.73,-68 438.73,-64.5 428.73,-61 428.73,-68"/>
</g>
<!-- Node7 -->
<g id="node7" class="node">
<title>Node7</title>
<g id="a_node7"><a xlink:href="../../d9/d10/structGeometry_1_1Triangle.html#a6ae6d3c182510419ac7f3a0f1e0358f0" target="_top" xlink:title=" ">
<polygon fill="none" stroke="black" points="439,-0.5 439,-30.5 548,-30.5 548,-0.5 439,-0.5"/>
<text text-anchor="start" x="447" y="-18.5" font-family="Helvetica,sans-Serif" font-size="10.00">Geometry::Triangle</text>
<text text-anchor="middle" x="493.5" y="-7.5" font-family="Helvetica,sans-Serif" font-size="10.00">::intersects</text>
</a>
</g>
</g>
<!-- Node5&#45;&gt;Node7 -->
<g id="edge6" class="edge">
<title>Node5&#45;&gt;Node7</title>
<path fill="none" stroke="midnightblue" d="M355.68,-54.94C376.92,-48.81 405.14,-40.68 430.44,-33.39"/>
<polygon fill="midnightblue" stroke="midnightblue" points="431.69,-36.67 440.33,-30.54 429.75,-29.94 431.69,-36.67"/>
</g>
<!-- Node8 -->
<g id="node8" class="node">
<title>Node8</title>
<g id="a_node8"><a xlink:href="../../d1/d2a/structGeometry_1_1Line.html#ae966bdee0ed4b93828819766a677090c" target="_top" xlink:title=" ">
<polygon fill="none" stroke="black" points="594,-6 594,-25 764,-25 764,-6 594,-6"/>
<text text-anchor="middle" x="679" y="-13" font-family="Helvetica,sans-Serif" font-size="10.00">Geometry::Line::getIntersection</text>
</a>
</g>
</g>
<!-- Node7&#45;&gt;Node8 -->
<g id="edge7" class="edge">
<title>Node7&#45;&gt;Node8</title>
<path fill="none" stroke="midnightblue" d="M548.07,-15.5C559.31,-15.5 571.48,-15.5 583.71,-15.5"/>
<polygon fill="midnightblue" stroke="midnightblue" points="583.98,-19 593.98,-15.5 583.98,-12 583.98,-19"/>
</g>
</g>
</svg>
