<?xml version="1.0" encoding="UTF-8" standalone="no"?>
<!DOCTYPE svg PUBLIC "-//W3C//DTD SVG 1.1//EN"
 "http://www.w3.org/Graphics/SVG/1.1/DTD/svg11.dtd">
<!-- Generated by graphviz version 2.43.0 (0)
 -->
<!-- Title: psim/include/psim/compositeSurface.h Pages: 1 -->
<svg width="675pt" height="263pt"
 viewBox="0.00 0.00 675.00 263.00" xmlns="http://www.w3.org/2000/svg" xmlns:xlink="http://www.w3.org/1999/xlink">
<g id="graph0" class="graph" transform="scale(1 1) rotate(0) translate(4 259)">
<title>psim/include/psim/compositeSurface.h</title>
<!-- Node1 -->
<g id="node1" class="node">
<title>Node1</title>
<g id="a_node1"><a xlink:title=" ">
<polygon fill="#bfbfbf" stroke="black" points="270.5,-224.5 270.5,-254.5 430.5,-254.5 430.5,-224.5 270.5,-224.5"/>
<text text-anchor="start" x="278.5" y="-242.5" font-family="Helvetica,sans-Serif" font-size="10.00">psim/include/psim/composite</text>
<text text-anchor="middle" x="350.5" y="-231.5" font-family="Helvetica,sans-Serif" font-size="10.00">Surface.h</text>
</a>
</g>
</g>
<!-- Node2 -->
<g id="node2" class="node">
<title>Node2</title>
<g id="a_node2"><a xlink:href="../../d4/d67/geometry_8h.html" target="_top" xlink:title=" ">
<polygon fill="none" stroke="black" points="232,-112.5 232,-131.5 303,-131.5 303,-112.5 232,-112.5"/>
<text text-anchor="middle" x="267.5" y="-119.5" font-family="Helvetica,sans-Serif" font-size="10.00">geometry.h</text>
</a>
</g>
</g>
<!-- Node1&#45;&gt;Node2 -->
<g id="edge1" class="edge">
<title>Node1&#45;&gt;Node2</title>
<path fill="none" stroke="midnightblue" d="M340.32,-224.34C325.03,-203.05 296.16,-162.89 279.74,-140.03"/>
<polygon fill="midnightblue" stroke="midnightblue" points="282.41,-137.75 273.73,-131.67 276.72,-141.83 282.41,-137.75"/>
</g>
<!-- Node4 -->
<g id="node4" class="node">
<title>Node4</title>
<g id="a_node4"><a xlink:title=" ">
<polygon fill="none" stroke="#bfbfbf" points="0,-56.5 0,-75.5 65,-75.5 65,-56.5 0,-56.5"/>
<text text-anchor="middle" x="32.5" y="-63.5" font-family="Helvetica,sans-Serif" font-size="10.00">exception</text>
</a>
</g>
</g>
<!-- Node1&#45;&gt;Node4 -->
<g id="edge21" class="edge">
<title>Node1&#45;&gt;Node4</title>
<path fill="none" stroke="midnightblue" d="M321.9,-224.43C301.82,-214.46 274.39,-200.66 250.5,-188 179.15,-150.2 96.03,-103.24 56.18,-80.54"/>
<polygon fill="midnightblue" stroke="midnightblue" points="57.87,-77.48 47.45,-75.57 54.41,-83.56 57.87,-77.48"/>
</g>
<!-- Node7 -->
<g id="node7" class="node">
<title>Node7</title>
<g id="a_node7"><a xlink:title=" ">
<polygon fill="none" stroke="#bfbfbf" points="83.5,-56.5 83.5,-75.5 127.5,-75.5 127.5,-56.5 83.5,-56.5"/>
<text text-anchor="middle" x="105.5" y="-63.5" font-family="Helvetica,sans-Serif" font-size="10.00">string</text>
</a>
</g>
</g>
<!-- Node1&#45;&gt;Node7 -->
<g id="edge23" class="edge">
<title>Node1&#45;&gt;Node7</title>
<path fill="none" stroke="midnightblue" d="M330.45,-224.47C284.59,-192.37 172.45,-113.87 126.09,-81.41"/>
<polygon fill="midnightblue" stroke="midnightblue" points="127.93,-78.43 117.73,-75.56 123.91,-84.16 127.93,-78.43"/>
</g>
<!-- Node8 -->
<g id="node8" class="node">
<title>Node8</title>
<g id="a_node8"><a xlink:title=" ">
<polygon fill="none" stroke="#bfbfbf" points="334,-56.5 334,-75.5 407,-75.5 407,-56.5 334,-56.5"/>
<text text-anchor="middle" x="370.5" y="-63.5" font-family="Helvetica,sans-Serif" font-size="10.00">string_view</text>
</a>
</g>
</g>
<!-- Node1&#45;&gt;Node8 -->
<g id="edge24" class="edge">
<title>Node1&#45;&gt;Node8</title>
<path fill="none" stroke="midnightblue" d="M352.14,-224.47C355.72,-193.7 364.28,-120.33 368.32,-85.7"/>
<polygon fill="midnightblue" stroke="midnightblue" points="371.82,-85.9 369.5,-75.56 364.87,-85.09 371.82,-85.9"/>
</g>
<!-- Node10 -->
<g id="node10" class="node">
<title>Node10</title>
<g id="a_node10"><a xlink:href="../../d2/d69/surface_8h.html" target="_top" xlink:title=" ">
<polygon fill="none" stroke="black" points="378.5,-168.5 378.5,-187.5 440.5,-187.5 440.5,-168.5 378.5,-168.5"/>
<text text-anchor="middle" x="409.5" y="-175.5" font-family="Helvetica,sans-Serif" font-size="10.00">surface.h</text>
</a>
</g>
</g>
<!-- Node1&#45;&gt;Node10 -->
<g id="edge9" class="edge">
<title>Node1&#45;&gt;Node10</title>
<path fill="none" stroke="midnightblue" d="M364.48,-224.4C373.23,-215.58 384.53,-204.18 393.62,-195.02"/>
<polygon fill="midnightblue" stroke="midnightblue" points="396.36,-197.22 400.91,-187.66 391.39,-192.29 396.36,-197.22"/>
</g>
<!-- Node14 -->
<g id="node14" class="node">
<title>Node14</title>
<g id="a_node14"><a xlink:title=" ">
<polygon fill="none" stroke="#bfbfbf" points="620,-56.5 620,-75.5 667,-75.5 667,-56.5 620,-56.5"/>
<text text-anchor="middle" x="643.5" y="-63.5" font-family="Helvetica,sans-Serif" font-size="10.00">vector</text>
</a>
</g>
</g>
<!-- Node1&#45;&gt;Node14 -->
<g id="edge25" class="edge">
<title>Node1&#45;&gt;Node14</title>
<path fill="none" stroke="midnightblue" d="M379.87,-224.34C399.76,-214.56 426.49,-201.01 449.5,-188 513.57,-151.77 586.61,-104.54 622.01,-81.26"/>
<polygon fill="midnightblue" stroke="midnightblue" points="624.14,-84.04 630.56,-75.61 620.29,-78.2 624.14,-84.04"/>
</g>
<!-- Node15 -->
<g id="node15" class="node">
<title>Node15</title>
<g id="a_node15"><a xlink:title=" ">
<polygon fill="none" stroke="#bfbfbf" points="584.5,-168.5 584.5,-187.5 632.5,-187.5 632.5,-168.5 584.5,-168.5"/>
<text text-anchor="middle" x="608.5" y="-175.5" font-family="Helvetica,sans-Serif" font-size="10.00">iosfwd</text>
</a>
</g>
</g>
<!-- Node1&#45;&gt;Node15 -->
<g id="edge22" class="edge">
<title>Node1&#45;&gt;Node15</title>
<path fill="none" stroke="midnightblue" d="M412.17,-224.46C456.28,-214.39 517.07,-200.46 570.5,-188 571.76,-187.71 573.05,-187.4 574.35,-187.1"/>
<polygon fill="midnightblue" stroke="midnightblue" points="575.45,-190.44 584.38,-184.74 573.85,-183.62 575.45,-190.44"/>
</g>
<!-- Node3 -->
<g id="node3" class="node">
<title>Node3</title>
<g id="a_node3"><a xlink:title=" ">
<polygon fill="none" stroke="#bfbfbf" points="343.5,-0.5 343.5,-19.5 385.5,-19.5 385.5,-0.5 343.5,-0.5"/>
<text text-anchor="middle" x="364.5" y="-7.5" font-family="Helvetica,sans-Serif" font-size="10.00">array</text>
</a>
</g>
</g>
<!-- Node2&#45;&gt;Node3 -->
<g id="edge2" class="edge">
<title>Node2&#45;&gt;Node3</title>
<path fill="none" stroke="midnightblue" d="M234.81,-112.44C200.44,-101.84 153.97,-81.96 174.5,-56 193.94,-31.41 284.44,-18.87 333.2,-13.79"/>
<polygon fill="midnightblue" stroke="midnightblue" points="333.6,-17.27 343.21,-12.8 332.91,-10.31 333.6,-17.27"/>
</g>
<!-- Node2&#45;&gt;Node4 -->
<g id="edge3" class="edge">
<title>Node2&#45;&gt;Node4</title>
<path fill="none" stroke="midnightblue" d="M231.81,-112.8C189.76,-103.14 119.96,-87.1 75.11,-76.79"/>
<polygon fill="midnightblue" stroke="midnightblue" points="75.64,-73.32 65.11,-74.49 74.07,-80.14 75.64,-73.32"/>
</g>
<!-- Node5 -->
<g id="node5" class="node">
<title>Node5</title>
<g id="a_node5"><a xlink:title=" ">
<polygon fill="none" stroke="#bfbfbf" points="183.5,-56.5 183.5,-75.5 239.5,-75.5 239.5,-56.5 183.5,-56.5"/>
<text text-anchor="middle" x="211.5" y="-63.5" font-family="Helvetica,sans-Serif" font-size="10.00">optional</text>
</a>
</g>
</g>
<!-- Node2&#45;&gt;Node5 -->
<g id="edge4" class="edge">
<title>Node2&#45;&gt;Node5</title>
<path fill="none" stroke="midnightblue" d="M258.5,-112.32C250.31,-104.42 237.99,-92.55 228.03,-82.94"/>
<polygon fill="midnightblue" stroke="midnightblue" points="230.29,-80.26 220.66,-75.83 225.43,-85.29 230.29,-80.26"/>
</g>
<!-- Node6 -->
<g id="node6" class="node">
<title>Node6</title>
<g id="a_node6"><a xlink:title=" ">
<polygon fill="none" stroke="#bfbfbf" points="404,-0.5 404,-19.5 461,-19.5 461,-0.5 404,-0.5"/>
<text text-anchor="middle" x="432.5" y="-7.5" font-family="Helvetica,sans-Serif" font-size="10.00">ostream</text>
</a>
</g>
</g>
<!-- Node2&#45;&gt;Node6 -->
<g id="edge5" class="edge">
<title>Node2&#45;&gt;Node6</title>
<path fill="none" stroke="midnightblue" d="M268.33,-112.1C270.1,-98.18 275.5,-71.3 291.5,-56 299.11,-48.73 354.74,-32.33 393.81,-21.47"/>
<polygon fill="midnightblue" stroke="midnightblue" points="395.13,-24.73 403.84,-18.7 393.26,-17.98 395.13,-24.73"/>
</g>
<!-- Node2&#45;&gt;Node7 -->
<g id="edge6" class="edge">
<title>Node2&#45;&gt;Node7</title>
<path fill="none" stroke="midnightblue" d="M241.83,-112.44C213.54,-103.01 167.98,-87.83 137.41,-77.64"/>
<polygon fill="midnightblue" stroke="midnightblue" points="138.26,-74.23 127.67,-74.39 136.05,-80.87 138.26,-74.23"/>
</g>
<!-- Node2&#45;&gt;Node8 -->
<g id="edge7" class="edge">
<title>Node2&#45;&gt;Node8</title>
<path fill="none" stroke="midnightblue" d="M284.05,-112.32C300.49,-103.7 325.93,-90.36 344.97,-80.39"/>
<polygon fill="midnightblue" stroke="midnightblue" points="346.76,-83.4 353.99,-75.65 343.51,-77.2 346.76,-83.4"/>
</g>
<!-- Node9 -->
<g id="node9" class="node">
<title>Node9</title>
<g id="a_node9"><a xlink:title=" ">
<polygon fill="none" stroke="#bfbfbf" points="479,-0.5 479,-19.5 524,-19.5 524,-0.5 479,-0.5"/>
<text text-anchor="middle" x="501.5" y="-7.5" font-family="Helvetica,sans-Serif" font-size="10.00">utility</text>
</a>
</g>
</g>
<!-- Node2&#45;&gt;Node9 -->
<g id="edge8" class="edge">
<title>Node2&#45;&gt;Node9</title>
<path fill="none" stroke="midnightblue" d="M272.6,-112.33C281.37,-98.24 300.65,-70.5 324.5,-56 378.93,-22.91 403.6,-35.93 468.9,-20.23"/>
<polygon fill="midnightblue" stroke="midnightblue" points="470.02,-23.56 478.84,-17.69 468.29,-16.77 470.02,-23.56"/>
</g>
<!-- Node10&#45;&gt;Node2 -->
<g id="edge10" class="edge">
<title>Node10&#45;&gt;Node2</title>
<path fill="none" stroke="midnightblue" d="M387,-168.44C363.42,-159.48 326.18,-145.31 299.54,-135.18"/>
<polygon fill="midnightblue" stroke="midnightblue" points="300.49,-131.8 289.9,-131.52 298,-138.34 300.49,-131.8"/>
</g>
<!-- Node11 -->
<g id="node11" class="node">
<title>Node11</title>
<g id="a_node11"><a xlink:href="../../d3/d65/material_8h.html" target="_top" xlink:title=" ">
<polygon fill="none" stroke="black" points="461,-112.5 461,-131.5 528,-131.5 528,-112.5 461,-112.5"/>
<text text-anchor="middle" x="494.5" y="-119.5" font-family="Helvetica,sans-Serif" font-size="10.00">material.h</text>
</a>
</g>
</g>
<!-- Node10&#45;&gt;Node11 -->
<g id="edge11" class="edge">
<title>Node10&#45;&gt;Node11</title>
<path fill="none" stroke="midnightblue" d="M423.16,-168.32C436.42,-159.9 456.77,-146.97 472.35,-137.07"/>
<polygon fill="midnightblue" stroke="midnightblue" points="474.31,-139.97 480.88,-131.65 470.56,-134.06 474.31,-139.97"/>
</g>
<!-- Node11&#45;&gt;Node3 -->
<g id="edge17" class="edge">
<title>Node11&#45;&gt;Node3</title>
<path fill="none" stroke="midnightblue" d="M484.3,-112.37C462.28,-93.73 410.04,-49.53 382.39,-26.13"/>
<polygon fill="midnightblue" stroke="midnightblue" points="384.55,-23.38 374.65,-19.59 380.03,-28.72 384.55,-23.38"/>
</g>
<!-- Node11&#45;&gt;Node9 -->
<g id="edge19" class="edge">
<title>Node11&#45;&gt;Node9</title>
<path fill="none" stroke="midnightblue" d="M505.77,-112.43C515.47,-104.27 528.78,-91.05 534.5,-76 541.07,-58.73 529.41,-40.01 518.18,-27.12"/>
<polygon fill="midnightblue" stroke="midnightblue" points="520.46,-24.44 511.05,-19.56 515.36,-29.24 520.46,-24.44"/>
</g>
<!-- Node12 -->
<g id="node12" class="node">
<title>Node12</title>
<g id="a_node12"><a xlink:href="../../d3/d34/phonon_8h.html" target="_top" xlink:title=" ">
<polygon fill="none" stroke="black" points="463.5,-56.5 463.5,-75.5 525.5,-75.5 525.5,-56.5 463.5,-56.5"/>
<text text-anchor="middle" x="494.5" y="-63.5" font-family="Helvetica,sans-Serif" font-size="10.00">phonon.h</text>
</a>
</g>
</g>
<!-- Node11&#45;&gt;Node12 -->
<g id="edge12" class="edge">
<title>Node11&#45;&gt;Node12</title>
<path fill="none" stroke="midnightblue" d="M494.5,-112.08C494.5,-105.01 494.5,-94.86 494.5,-85.99"/>
<polygon fill="midnightblue" stroke="midnightblue" points="498,-85.75 494.5,-75.75 491,-85.75 498,-85.75"/>
</g>
<!-- Node13 -->
<g id="node13" class="node">
<title>Node13</title>
<g id="a_node13"><a xlink:title=" ">
<polygon fill="none" stroke="#bfbfbf" points="557,-0.5 557,-19.5 610,-19.5 610,-0.5 557,-0.5"/>
<text text-anchor="middle" x="583.5" y="-7.5" font-family="Helvetica,sans-Serif" font-size="10.00">cstddef</text>
</a>
</g>
</g>
<!-- Node11&#45;&gt;Node13 -->
<g id="edge18" class="edge">
<title>Node11&#45;&gt;Node13</title>
<path fill="none" stroke="midnightblue" d="M507.72,-112.19C519.48,-103.88 536.61,-90.55 548.5,-76 560.26,-61.6 569.93,-42.66 576.1,-28.94"/>
<polygon fill="midnightblue" stroke="midnightblue" points="579.37,-30.19 580.12,-19.63 572.94,-27.42 579.37,-30.19"/>
</g>
<!-- Node11&#45;&gt;Node14 -->
<g id="edge20" class="edge">
<title>Node11&#45;&gt;Node14</title>
<path fill="none" stroke="midnightblue" d="M518.11,-112.44C542.96,-103.44 582.27,-89.19 610.25,-79.05"/>
<polygon fill="midnightblue" stroke="midnightblue" points="611.79,-82.21 620,-75.52 609.41,-75.63 611.79,-82.21"/>
</g>
<!-- Node12&#45;&gt;Node3 -->
<g id="edge13" class="edge">
<title>Node12&#45;&gt;Node3</title>
<path fill="none" stroke="midnightblue" d="M473.9,-56.44C452.51,-47.56 418.82,-33.56 394.48,-23.45"/>
<polygon fill="midnightblue" stroke="midnightblue" points="395.58,-20.12 385,-19.52 392.89,-26.58 395.58,-20.12"/>
</g>
<!-- Node12&#45;&gt;Node6 -->
<g id="edge15" class="edge">
<title>Node12&#45;&gt;Node6</title>
<path fill="none" stroke="midnightblue" d="M484.54,-56.32C475.37,-48.34 461.56,-36.31 450.47,-26.65"/>
<polygon fill="midnightblue" stroke="midnightblue" points="452.48,-23.76 442.64,-19.83 447.88,-29.04 452.48,-23.76"/>
</g>
<!-- Node12&#45;&gt;Node9 -->
<g id="edge16" class="edge">
<title>Node12&#45;&gt;Node9</title>
<path fill="none" stroke="midnightblue" d="M495.66,-56.08C496.58,-48.93 497.92,-38.64 499.08,-29.69"/>
<polygon fill="midnightblue" stroke="midnightblue" points="502.55,-30.12 500.37,-19.75 495.61,-29.22 502.55,-30.12"/>
</g>
<!-- Node12&#45;&gt;Node13 -->
<g id="edge14" class="edge">
<title>Node12&#45;&gt;Node13</title>
<path fill="none" stroke="midnightblue" d="M508.8,-56.32C522.68,-47.9 543.99,-34.97 560.3,-25.07"/>
<polygon fill="midnightblue" stroke="midnightblue" points="562.5,-27.83 569.24,-19.65 558.87,-21.85 562.5,-27.83"/>
</g>
</g>
</svg>
