<?xml version="1.0" encoding="UTF-8" standalone="no"?>
<!DOCTYPE svg PUBLIC "-//W3C//DTD SVG 1.1//EN"
 "http://www.w3.org/Graphics/SVG/1.1/DTD/svg11.dtd">
<!-- Generated by graphviz version 2.43.0 (0)
 -->
<!-- Title: psim/include/psim/modelSimulator.h Pages: 1 -->
<svg width="513pt" height="196pt"
 viewBox="0.00 0.00 512.50 196.00" xmlns="http://www.w3.org/2000/svg" xmlns:xlink="http://www.w3.org/1999/xlink">
<g id="graph0" class="graph" transform="scale(1 1) rotate(0) translate(4 192)">
<title>psim/include/psim/modelSimulator.h</title>
<!-- Node1 -->
<g id="node1" class="node">
<title>Node1</title>
<g id="a_node1"><a xlink:title=" ">
<polygon fill="#bfbfbf" stroke="black" points="216.5,-168.5 216.5,-187.5 411.5,-187.5 411.5,-168.5 216.5,-168.5"/>
<text text-anchor="middle" x="314" y="-175.5" font-family="Helvetica,sans-Serif" font-size="10.00">psim/include/psim/modelSimulator.h</text>
</a>
</g>
</g>
<!-- Node2 -->
<g id="node2" class="node">
<title>Node2</title>
<g id="a_node2"><a xlink:href="../../db/dd3/phononBuilder_8h.html" target="_top" xlink:title=" ">
<polygon fill="none" stroke="black" points="150.5,-112.5 150.5,-131.5 245.5,-131.5 245.5,-112.5 150.5,-112.5"/>
<text text-anchor="middle" x="198" y="-119.5" font-family="Helvetica,sans-Serif" font-size="10.00">phononBuilder.h</text>
</a>
</g>
</g>
<!-- Node1&#45;&gt;Node2 -->
<g id="edge1" class="edge">
<title>Node1&#45;&gt;Node2</title>
<path fill="none" stroke="midnightblue" d="M295.62,-168.44C276.78,-159.68 247.27,-145.94 225.62,-135.86"/>
<polygon fill="midnightblue" stroke="midnightblue" points="226.84,-132.56 216.29,-131.52 223.88,-138.91 226.84,-132.56"/>
</g>
<!-- Node4 -->
<g id="node4" class="node">
<title>Node4</title>
<g id="a_node4"><a xlink:title=" ">
<polygon fill="none" stroke="#bfbfbf" points="0,-0.5 0,-19.5 42,-19.5 42,-0.5 0,-0.5"/>
<text text-anchor="middle" x="21" y="-7.5" font-family="Helvetica,sans-Serif" font-size="10.00">array</text>
</a>
</g>
</g>
<!-- Node1&#45;&gt;Node4 -->
<g id="edge10" class="edge">
<title>Node1&#45;&gt;Node4</title>
<path fill="none" stroke="midnightblue" d="M242.33,-168.45C182.03,-157.42 98.01,-132.4 49,-76 37.43,-62.68 30.03,-43.85 25.76,-29.88"/>
<polygon fill="midnightblue" stroke="midnightblue" points="29.04,-28.62 22.99,-19.92 22.3,-30.49 29.04,-28.62"/>
</g>
<!-- Node5 -->
<g id="node5" class="node">
<title>Node5</title>
<g id="a_node5"><a xlink:title=" ">
<polygon fill="none" stroke="#bfbfbf" points="221.5,-0.5 221.5,-19.5 274.5,-19.5 274.5,-0.5 221.5,-0.5"/>
<text text-anchor="middle" x="248" y="-7.5" font-family="Helvetica,sans-Serif" font-size="10.00">cstddef</text>
</a>
</g>
</g>
<!-- Node1&#45;&gt;Node5 -->
<g id="edge11" class="edge">
<title>Node1&#45;&gt;Node5</title>
<path fill="none" stroke="midnightblue" d="M310.45,-168.08C300.02,-141.83 269.29,-64.55 255.2,-29.12"/>
<polygon fill="midnightblue" stroke="midnightblue" points="258.35,-27.57 251.41,-19.57 251.85,-30.15 258.35,-27.57"/>
</g>
<!-- Node9 -->
<g id="node9" class="node">
<title>Node9</title>
<g id="a_node9"><a xlink:title=" ">
<polygon fill="none" stroke="#bfbfbf" points="314,-112.5 314,-131.5 370,-131.5 370,-112.5 314,-112.5"/>
<text text-anchor="middle" x="342" y="-119.5" font-family="Helvetica,sans-Serif" font-size="10.00">optional</text>
</a>
</g>
</g>
<!-- Node1&#45;&gt;Node9 -->
<g id="edge12" class="edge">
<title>Node1&#45;&gt;Node9</title>
<path fill="none" stroke="midnightblue" d="M318.62,-168.08C322.46,-160.69 328.02,-149.95 332.76,-140.81"/>
<polygon fill="midnightblue" stroke="midnightblue" points="335.97,-142.24 337.46,-131.75 329.75,-139.02 335.97,-142.24"/>
</g>
<!-- Node10 -->
<g id="node10" class="node">
<title>Node10</title>
<g id="a_node10"><a xlink:title=" ">
<polygon fill="none" stroke="#bfbfbf" points="388.5,-112.5 388.5,-131.5 439.5,-131.5 439.5,-112.5 388.5,-112.5"/>
<text text-anchor="middle" x="414" y="-119.5" font-family="Helvetica,sans-Serif" font-size="10.00">variant</text>
</a>
</g>
</g>
<!-- Node1&#45;&gt;Node10 -->
<g id="edge13" class="edge">
<title>Node1&#45;&gt;Node10</title>
<path fill="none" stroke="midnightblue" d="M330.07,-168.32C345.96,-159.74 370.51,-146.49 388.96,-136.52"/>
<polygon fill="midnightblue" stroke="midnightblue" points="390.84,-139.49 397.97,-131.65 387.51,-133.33 390.84,-139.49"/>
</g>
<!-- Node11 -->
<g id="node11" class="node">
<title>Node11</title>
<g id="a_node11"><a xlink:title=" ">
<polygon fill="none" stroke="#bfbfbf" points="457.5,-112.5 457.5,-131.5 504.5,-131.5 504.5,-112.5 457.5,-112.5"/>
<text text-anchor="middle" x="481" y="-119.5" font-family="Helvetica,sans-Serif" font-size="10.00">vector</text>
</a>
</g>
</g>
<!-- Node1&#45;&gt;Node11 -->
<g id="edge14" class="edge">
<title>Node1&#45;&gt;Node11</title>
<path fill="none" stroke="midnightblue" d="M340.46,-168.44C369.51,-159.05 416.19,-143.96 447.71,-133.77"/>
<polygon fill="midnightblue" stroke="midnightblue" points="448.92,-137.05 457.36,-130.64 446.77,-130.39 448.92,-137.05"/>
</g>
<!-- Node3 -->
<g id="node3" class="node">
<title>Node3</title>
<g id="a_node3"><a xlink:href="../../d3/d34/phonon_8h.html" target="_top" xlink:title=" ">
<polygon fill="none" stroke="black" points="58,-56.5 58,-75.5 120,-75.5 120,-56.5 58,-56.5"/>
<text text-anchor="middle" x="89" y="-63.5" font-family="Helvetica,sans-Serif" font-size="10.00">phonon.h</text>
</a>
</g>
</g>
<!-- Node2&#45;&gt;Node3 -->
<g id="edge2" class="edge">
<title>Node2&#45;&gt;Node3</title>
<path fill="none" stroke="midnightblue" d="M180.49,-112.32C162.93,-103.62 135.67,-90.12 115.47,-80.11"/>
<polygon fill="midnightblue" stroke="midnightblue" points="116.98,-76.96 106.47,-75.65 113.88,-83.23 116.98,-76.96"/>
</g>
<!-- Node2&#45;&gt;Node5 -->
<g id="edge7" class="edge">
<title>Node2&#45;&gt;Node5</title>
<path fill="none" stroke="midnightblue" d="M204.77,-112.49C211.45,-103.76 221.56,-89.57 228,-76 235.12,-61 240.45,-42.87 243.81,-29.57"/>
<polygon fill="midnightblue" stroke="midnightblue" points="247.25,-30.25 246.17,-19.71 240.44,-28.62 247.25,-30.25"/>
</g>
<!-- Node7 -->
<g id="node7" class="node">
<title>Node7</title>
<g id="a_node7"><a xlink:title=" ">
<polygon fill="none" stroke="#bfbfbf" points="135.5,-0.5 135.5,-19.5 180.5,-19.5 180.5,-0.5 135.5,-0.5"/>
<text text-anchor="middle" x="158" y="-7.5" font-family="Helvetica,sans-Serif" font-size="10.00">utility</text>
</a>
</g>
</g>
<!-- Node2&#45;&gt;Node7 -->
<g id="edge9" class="edge">
<title>Node2&#45;&gt;Node7</title>
<path fill="none" stroke="midnightblue" d="M190.23,-112.41C182.96,-103.84 172.43,-89.97 167,-76 161.26,-61.22 159.1,-43.29 158.33,-30.01"/>
<polygon fill="midnightblue" stroke="midnightblue" points="161.81,-29.59 157.95,-19.73 154.82,-29.85 161.81,-29.59"/>
</g>
<!-- Node8 -->
<g id="node8" class="node">
<title>Node8</title>
<g id="a_node8"><a xlink:title=" ">
<polygon fill="none" stroke="#bfbfbf" points="176.5,-56.5 176.5,-75.5 219.5,-75.5 219.5,-56.5 176.5,-56.5"/>
<text text-anchor="middle" x="198" y="-63.5" font-family="Helvetica,sans-Serif" font-size="10.00">stack</text>
</a>
</g>
</g>
<!-- Node2&#45;&gt;Node8 -->
<g id="edge8" class="edge">
<title>Node2&#45;&gt;Node8</title>
<path fill="none" stroke="midnightblue" d="M198,-112.08C198,-105.01 198,-94.86 198,-85.99"/>
<polygon fill="midnightblue" stroke="midnightblue" points="201.5,-85.75 198,-75.75 194.5,-85.75 201.5,-85.75"/>
</g>
<!-- Node3&#45;&gt;Node4 -->
<g id="edge3" class="edge">
<title>Node3&#45;&gt;Node4</title>
<path fill="none" stroke="midnightblue" d="M78.07,-56.32C67.83,-48.18 52.28,-35.84 40,-26.09"/>
<polygon fill="midnightblue" stroke="midnightblue" points="42.13,-23.31 32.12,-19.83 37.78,-28.79 42.13,-23.31"/>
</g>
<!-- Node3&#45;&gt;Node5 -->
<g id="edge4" class="edge">
<title>Node3&#45;&gt;Node5</title>
<path fill="none" stroke="midnightblue" d="M114.19,-56.44C140.94,-47.36 183.4,-32.94 213.31,-22.78"/>
<polygon fill="midnightblue" stroke="midnightblue" points="214.58,-26.05 222.92,-19.52 212.33,-19.42 214.58,-26.05"/>
</g>
<!-- Node6 -->
<g id="node6" class="node">
<title>Node6</title>
<g id="a_node6"><a xlink:title=" ">
<polygon fill="none" stroke="#bfbfbf" points="60.5,-0.5 60.5,-19.5 117.5,-19.5 117.5,-0.5 60.5,-0.5"/>
<text text-anchor="middle" x="89" y="-7.5" font-family="Helvetica,sans-Serif" font-size="10.00">ostream</text>
</a>
</g>
</g>
<!-- Node3&#45;&gt;Node6 -->
<g id="edge5" class="edge">
<title>Node3&#45;&gt;Node6</title>
<path fill="none" stroke="midnightblue" d="M89,-56.08C89,-49.01 89,-38.86 89,-29.99"/>
<polygon fill="midnightblue" stroke="midnightblue" points="92.5,-29.75 89,-19.75 85.5,-29.75 92.5,-29.75"/>
</g>
<!-- Node3&#45;&gt;Node7 -->
<g id="edge6" class="edge">
<title>Node3&#45;&gt;Node7</title>
<path fill="none" stroke="midnightblue" d="M100.09,-56.32C110.49,-48.18 126.26,-35.84 138.72,-26.09"/>
<polygon fill="midnightblue" stroke="midnightblue" points="140.99,-28.75 146.71,-19.83 136.68,-23.24 140.99,-28.75"/>
</g>
</g>
</svg>
