<?xml version="1.0" encoding="UTF-8" standalone="no"?>
<!DOCTYPE svg PUBLIC "-//W3C//DTD SVG 1.1//EN"
 "http://www.w3.org/Graphics/SVG/1.1/DTD/svg11.dtd">
<!-- Generated by graphviz version 2.43.0 (0)
 -->
<!-- Title: psim/include/psim/material.h Pages: 1 -->
<svg width="289pt" height="140pt"
 viewBox="0.00 0.00 288.50 140.00" xmlns="http://www.w3.org/2000/svg" xmlns:xlink="http://www.w3.org/1999/xlink">
<g id="graph0" class="graph" transform="scale(1 1) rotate(0) translate(4 136)">
<title>psim/include/psim/material.h</title>
<!-- Node1 -->
<g id="node1" class="node">
<title>Node1</title>
<g id="a_node1"><a xlink:title=" ">
<polygon fill="#bfbfbf" stroke="black" points="66.5,-112.5 66.5,-131.5 225.5,-131.5 225.5,-112.5 66.5,-112.5"/>
<text text-anchor="middle" x="146" y="-119.5" font-family="Helvetica,sans-Serif" font-size="10.00">psim/include/psim/material.h</text>
</a>
</g>
</g>
<!-- Node2 -->
<g id="node2" class="node">
<title>Node2</title>
<g id="a_node2"><a xlink:href="../../d3/d34/phonon_8h.html" target="_top" xlink:title=" ">
<polygon fill="none" stroke="black" points="115,-56.5 115,-75.5 177,-75.5 177,-56.5 115,-56.5"/>
<text text-anchor="middle" x="146" y="-63.5" font-family="Helvetica,sans-Serif" font-size="10.00">phonon.h</text>
</a>
</g>
</g>
<!-- Node1&#45;&gt;Node2 -->
<g id="edge1" class="edge">
<title>Node1&#45;&gt;Node2</title>
<path fill="none" stroke="midnightblue" d="M146,-112.08C146,-105.01 146,-94.86 146,-85.99"/>
<polygon fill="midnightblue" stroke="midnightblue" points="149.5,-85.75 146,-75.75 142.5,-85.75 149.5,-85.75"/>
</g>
<!-- Node3 -->
<g id="node3" class="node">
<title>Node3</title>
<g id="a_node3"><a xlink:title=" ">
<polygon fill="none" stroke="#bfbfbf" points="0,-0.5 0,-19.5 42,-19.5 42,-0.5 0,-0.5"/>
<text text-anchor="middle" x="21" y="-7.5" font-family="Helvetica,sans-Serif" font-size="10.00">array</text>
</a>
</g>
</g>
<!-- Node1&#45;&gt;Node3 -->
<g id="edge6" class="edge">
<title>Node1&#45;&gt;Node3</title>
<path fill="none" stroke="midnightblue" d="M135.76,-112.46C125.03,-103.48 107.71,-88.88 93,-76 73.94,-59.31 52.41,-39.78 37.9,-26.52"/>
<polygon fill="midnightblue" stroke="midnightblue" points="39.98,-23.68 30.24,-19.51 35.25,-28.84 39.98,-23.68"/>
</g>
<!-- Node4 -->
<g id="node4" class="node">
<title>Node4</title>
<g id="a_node4"><a xlink:title=" ">
<polygon fill="none" stroke="#bfbfbf" points="60.5,-0.5 60.5,-19.5 113.5,-19.5 113.5,-0.5 60.5,-0.5"/>
<text text-anchor="middle" x="87" y="-7.5" font-family="Helvetica,sans-Serif" font-size="10.00">cstddef</text>
</a>
</g>
</g>
<!-- Node1&#45;&gt;Node4 -->
<g id="edge7" class="edge">
<title>Node1&#45;&gt;Node4</title>
<path fill="none" stroke="midnightblue" d="M136.07,-112.3C127.02,-103.86 113.9,-90.27 106,-76 97.99,-61.53 93.05,-43.35 90.22,-29.89"/>
<polygon fill="midnightblue" stroke="midnightblue" points="93.62,-29.06 88.32,-19.89 86.75,-30.37 93.62,-29.06"/>
</g>
<!-- Node6 -->
<g id="node6" class="node">
<title>Node6</title>
<g id="a_node6"><a xlink:title=" ">
<polygon fill="none" stroke="#bfbfbf" points="206.5,-0.5 206.5,-19.5 251.5,-19.5 251.5,-0.5 206.5,-0.5"/>
<text text-anchor="middle" x="229" y="-7.5" font-family="Helvetica,sans-Serif" font-size="10.00">utility</text>
</a>
</g>
</g>
<!-- Node1&#45;&gt;Node6 -->
<g id="edge8" class="edge">
<title>Node1&#45;&gt;Node6</title>
<path fill="none" stroke="midnightblue" d="M154.36,-112.35C162.73,-103.52 175.8,-89.26 186,-76 197.95,-60.46 210.14,-41.7 218.48,-28.33"/>
<polygon fill="midnightblue" stroke="midnightblue" points="221.54,-30.03 223.81,-19.68 215.58,-26.36 221.54,-30.03"/>
</g>
<!-- Node7 -->
<g id="node7" class="node">
<title>Node7</title>
<g id="a_node7"><a xlink:title=" ">
<polygon fill="none" stroke="#bfbfbf" points="233.5,-56.5 233.5,-75.5 280.5,-75.5 280.5,-56.5 233.5,-56.5"/>
<text text-anchor="middle" x="257" y="-63.5" font-family="Helvetica,sans-Serif" font-size="10.00">vector</text>
</a>
</g>
</g>
<!-- Node1&#45;&gt;Node7 -->
<g id="edge9" class="edge">
<title>Node1&#45;&gt;Node7</title>
<path fill="none" stroke="midnightblue" d="M163.83,-112.32C181.72,-103.62 209.48,-90.12 230.05,-80.11"/>
<polygon fill="midnightblue" stroke="midnightblue" points="231.75,-83.18 239.21,-75.65 228.69,-76.88 231.75,-83.18"/>
</g>
<!-- Node2&#45;&gt;Node3 -->
<g id="edge2" class="edge">
<title>Node2&#45;&gt;Node3</title>
<path fill="none" stroke="midnightblue" d="M126.19,-56.44C105.71,-47.6 73.52,-33.69 50.14,-23.59"/>
<polygon fill="midnightblue" stroke="midnightblue" points="51.28,-20.27 40.71,-19.52 48.51,-26.7 51.28,-20.27"/>
</g>
<!-- Node2&#45;&gt;Node4 -->
<g id="edge3" class="edge">
<title>Node2&#45;&gt;Node4</title>
<path fill="none" stroke="midnightblue" d="M136.52,-56.32C127.8,-48.34 114.66,-36.31 104.1,-26.65"/>
<polygon fill="midnightblue" stroke="midnightblue" points="106.39,-24 96.65,-19.83 101.67,-29.17 106.39,-24"/>
</g>
<!-- Node5 -->
<g id="node5" class="node">
<title>Node5</title>
<g id="a_node5"><a xlink:title=" ">
<polygon fill="none" stroke="#bfbfbf" points="131.5,-0.5 131.5,-19.5 188.5,-19.5 188.5,-0.5 131.5,-0.5"/>
<text text-anchor="middle" x="160" y="-7.5" font-family="Helvetica,sans-Serif" font-size="10.00">ostream</text>
</a>
</g>
</g>
<!-- Node2&#45;&gt;Node5 -->
<g id="edge4" class="edge">
<title>Node2&#45;&gt;Node5</title>
<path fill="none" stroke="midnightblue" d="M148.31,-56.08C150.17,-48.93 152.84,-38.64 155.15,-29.69"/>
<polygon fill="midnightblue" stroke="midnightblue" points="158.61,-30.31 157.73,-19.75 151.83,-28.55 158.61,-30.31"/>
</g>
<!-- Node2&#45;&gt;Node6 -->
<g id="edge5" class="edge">
<title>Node2&#45;&gt;Node6</title>
<path fill="none" stroke="midnightblue" d="M159.34,-56.32C172.16,-47.98 191.78,-35.21 206.94,-25.35"/>
<polygon fill="midnightblue" stroke="midnightblue" points="209.22,-28.04 215.7,-19.65 205.41,-22.17 209.22,-28.04"/>
</g>
</g>
</svg>
