<?xml version="1.0" encoding="UTF-8" standalone="no"?>
<!DOCTYPE svg PUBLIC "-//W3C//DTD SVG 1.1//EN"
 "http://www.w3.org/Graphics/SVG/1.1/DTD/svg11.dtd">
<!-- Generated by graphviz version 2.43.0 (0)
 -->
<!-- Title: psim/include/psim/cell.h Pages: 1 -->
<svg width="990pt" height="308pt"
 viewBox="0.00 0.00 990.00 308.00" xmlns="http://www.w3.org/2000/svg" xmlns:xlink="http://www.w3.org/1999/xlink">
<g id="graph0" class="graph" transform="scale(1 1) rotate(0) translate(4 304)">
<title>psim/include/psim/cell.h</title>
<!-- Node1 -->
<g id="node1" class="node">
<title>Node1</title>
<g id="a_node1"><a xlink:title=" ">
<polygon fill="#bfbfbf" stroke="black" points="689.5,-280.5 689.5,-299.5 824.5,-299.5 824.5,-280.5 689.5,-280.5"/>
<text text-anchor="middle" x="757" y="-287.5" font-family="Helvetica,sans-Serif" font-size="10.00">psim/include/psim/cell.h</text>
</a>
</g>
</g>
<!-- Node2 -->
<g id="node2" class="node">
<title>Node2</title>
<g id="a_node2"><a xlink:href="../../d8/d77/compositeSurface_8h.html" target="_top" xlink:title=" ">
<polygon fill="none" stroke="black" points="626.5,-224.5 626.5,-243.5 739.5,-243.5 739.5,-224.5 626.5,-224.5"/>
<text text-anchor="middle" x="683" y="-231.5" font-family="Helvetica,sans-Serif" font-size="10.00">compositeSurface.h</text>
</a>
</g>
</g>
<!-- Node1&#45;&gt;Node2 -->
<g id="edge1" class="edge">
<title>Node1&#45;&gt;Node2</title>
<path fill="none" stroke="midnightblue" d="M745.11,-280.32C733.85,-272.11 716.71,-259.6 703.29,-249.81"/>
<polygon fill="midnightblue" stroke="midnightblue" points="705.25,-246.9 695.11,-243.83 701.12,-252.56 705.25,-246.9"/>
</g>
<!-- Node3 -->
<g id="node3" class="node">
<title>Node3</title>
<g id="a_node3"><a xlink:href="../../d4/d67/geometry_8h.html" target="_top" xlink:title=" ">
<polygon fill="none" stroke="black" points="693.5,-112.5 693.5,-131.5 764.5,-131.5 764.5,-112.5 693.5,-112.5"/>
<text text-anchor="middle" x="729" y="-119.5" font-family="Helvetica,sans-Serif" font-size="10.00">geometry.h</text>
</a>
</g>
</g>
<!-- Node1&#45;&gt;Node3 -->
<g id="edge27" class="edge">
<title>Node1&#45;&gt;Node3</title>
<path fill="none" stroke="midnightblue" d="M824.25,-280.45C846.32,-274.08 868.6,-263.06 882,-244 901.42,-216.36 902.24,-195.05 882,-168 869.04,-150.68 814.9,-137.74 774.68,-130.28"/>
<polygon fill="midnightblue" stroke="midnightblue" points="775.25,-126.83 764.78,-128.51 774.01,-133.72 775.25,-126.83"/>
</g>
<!-- Node4 -->
<g id="node4" class="node">
<title>Node4</title>
<g id="a_node4"><a xlink:title=" ">
<polygon fill="none" stroke="#bfbfbf" points="508,-0.5 508,-19.5 550,-19.5 550,-0.5 508,-0.5"/>
<text text-anchor="middle" x="529" y="-7.5" font-family="Helvetica,sans-Serif" font-size="10.00">array</text>
</a>
</g>
</g>
<!-- Node1&#45;&gt;Node4 -->
<g id="edge40" class="edge">
<title>Node1&#45;&gt;Node4</title>
<path fill="none" stroke="midnightblue" d="M824.51,-284.06C890.78,-275.09 982,-249.87 982,-179 982,-179 982,-179 982,-121 982,-89.54 979.33,-74.65 954,-56 891.49,-9.96 647.17,-9.12 560.06,-10.35"/>
<polygon fill="midnightblue" stroke="midnightblue" points="559.95,-6.85 550.01,-10.51 560.06,-13.85 559.95,-6.85"/>
</g>
<!-- Node5 -->
<g id="node5" class="node">
<title>Node5</title>
<g id="a_node5"><a xlink:title=" ">
<polygon fill="none" stroke="#bfbfbf" points="537.5,-56.5 537.5,-75.5 602.5,-75.5 602.5,-56.5 537.5,-56.5"/>
<text text-anchor="middle" x="570" y="-63.5" font-family="Helvetica,sans-Serif" font-size="10.00">exception</text>
</a>
</g>
</g>
<!-- Node1&#45;&gt;Node5 -->
<g id="edge42" class="edge">
<title>Node1&#45;&gt;Node5</title>
<path fill="none" stroke="midnightblue" d="M690.23,-280.42C664.56,-274.09 636.71,-263.09 617,-244 572.69,-201.09 568.55,-121.56 569.14,-85.56"/>
<polygon fill="midnightblue" stroke="midnightblue" points="572.64,-85.61 569.45,-75.51 565.64,-85.39 572.64,-85.61"/>
</g>
<!-- Node8 -->
<g id="node8" class="node">
<title>Node8</title>
<g id="a_node8"><a xlink:title=" ">
<polygon fill="none" stroke="#bfbfbf" points="621,-56.5 621,-75.5 665,-75.5 665,-56.5 621,-56.5"/>
<text text-anchor="middle" x="643" y="-63.5" font-family="Helvetica,sans-Serif" font-size="10.00">string</text>
</a>
</g>
</g>
<!-- Node1&#45;&gt;Node8 -->
<g id="edge44" class="edge">
<title>Node1&#45;&gt;Node8</title>
<path fill="none" stroke="midnightblue" d="M772.52,-280.37C806.58,-260.34 882.27,-209.31 849,-168 801.92,-109.54 745.46,-175.09 684,-132 667.65,-120.54 656.4,-100.26 649.88,-85.39"/>
<polygon fill="midnightblue" stroke="midnightblue" points="652.96,-83.68 645.96,-75.73 646.48,-86.31 652.96,-83.68"/>
</g>
<!-- Node9 -->
<g id="node9" class="node">
<title>Node9</title>
<g id="a_node9"><a xlink:title=" ">
<polygon fill="none" stroke="#bfbfbf" points="871.5,-56.5 871.5,-75.5 944.5,-75.5 944.5,-56.5 871.5,-56.5"/>
<text text-anchor="middle" x="908" y="-63.5" font-family="Helvetica,sans-Serif" font-size="10.00">string_view</text>
</a>
</g>
</g>
<!-- Node1&#45;&gt;Node9 -->
<g id="edge45" class="edge">
<title>Node1&#45;&gt;Node9</title>
<path fill="none" stroke="midnightblue" d="M824.75,-284.56C852.83,-279.02 883,-267.5 901,-244 937.11,-196.86 922.73,-120.13 913.48,-85.27"/>
<polygon fill="midnightblue" stroke="midnightblue" points="916.81,-84.19 910.73,-75.51 910.07,-86.09 916.81,-84.19"/>
</g>
<!-- Node12 -->
<g id="node12" class="node">
<title>Node12</title>
<g id="a_node12"><a xlink:href="../../d3/d65/material_8h.html" target="_top" xlink:title=" ">
<polygon fill="none" stroke="black" points="391.5,-112.5 391.5,-131.5 458.5,-131.5 458.5,-112.5 391.5,-112.5"/>
<text text-anchor="middle" x="425" y="-119.5" font-family="Helvetica,sans-Serif" font-size="10.00">material.h</text>
</a>
</g>
</g>
<!-- Node1&#45;&gt;Node12 -->
<g id="edge28" class="edge">
<title>Node1&#45;&gt;Node12</title>
<path fill="none" stroke="midnightblue" d="M689.27,-288.95C638.71,-286.05 569.72,-275.77 518,-244 476.76,-218.67 447.02,-167.88 433.37,-140.86"/>
<polygon fill="midnightblue" stroke="midnightblue" points="436.47,-139.23 428.93,-131.78 430.18,-142.3 436.47,-139.23"/>
</g>
<!-- Node14 -->
<g id="node14" class="node">
<title>Node14</title>
<g id="a_node14"><a xlink:title=" ">
<polygon fill="none" stroke="#bfbfbf" points="184.5,-0.5 184.5,-19.5 237.5,-19.5 237.5,-0.5 184.5,-0.5"/>
<text text-anchor="middle" x="211" y="-7.5" font-family="Helvetica,sans-Serif" font-size="10.00">cstddef</text>
</a>
</g>
</g>
<!-- Node1&#45;&gt;Node14 -->
<g id="edge41" class="edge">
<title>Node1&#45;&gt;Node14</title>
<path fill="none" stroke="midnightblue" d="M689.49,-286.24C503.95,-277.76 0,-248.35 0,-179 0,-179 0,-179 0,-121 0,-43.45 113.47,-20.48 173.98,-13.75"/>
<polygon fill="midnightblue" stroke="midnightblue" points="174.68,-17.2 184.28,-12.7 173.97,-10.23 174.68,-17.2"/>
</g>
<!-- Node16 -->
<g id="node16" class="node">
<title>Node16</title>
<g id="a_node16"><a xlink:title=" ">
<polygon fill="none" stroke="#bfbfbf" points="792,-168.5 792,-187.5 840,-187.5 840,-168.5 792,-168.5"/>
<text text-anchor="middle" x="816" y="-175.5" font-family="Helvetica,sans-Serif" font-size="10.00">iosfwd</text>
</a>
</g>
</g>
<!-- Node1&#45;&gt;Node16 -->
<g id="edge43" class="edge">
<title>Node1&#45;&gt;Node16</title>
<path fill="none" stroke="midnightblue" d="M761.63,-280.37C771.28,-262.38 793.71,-220.55 806.55,-196.63"/>
<polygon fill="midnightblue" stroke="midnightblue" points="809.75,-198.06 811.39,-187.59 803.58,-194.75 809.75,-198.06"/>
</g>
<!-- Node17 -->
<g id="node17" class="node">
<title>Node17</title>
<g id="a_node17"><a xlink:href="../../d5/d2e/sensor_8h.html" target="_top" xlink:title=" ">
<polygon fill="none" stroke="black" points="229.5,-224.5 229.5,-243.5 286.5,-243.5 286.5,-224.5 229.5,-224.5"/>
<text text-anchor="middle" x="258" y="-231.5" font-family="Helvetica,sans-Serif" font-size="10.00">sensor.h</text>
</a>
</g>
</g>
<!-- Node1&#45;&gt;Node17 -->
<g id="edge29" class="edge">
<title>Node1&#45;&gt;Node17</title>
<path fill="none" stroke="midnightblue" d="M689.44,-281.69C583.37,-270.21 381.16,-248.33 296.64,-239.18"/>
<polygon fill="midnightblue" stroke="midnightblue" points="297.01,-235.7 286.69,-238.1 296.26,-242.66 297.01,-235.7"/>
</g>
<!-- Node2&#45;&gt;Node3 -->
<g id="edge2" class="edge">
<title>Node2&#45;&gt;Node3</title>
<path fill="none" stroke="midnightblue" d="M688.22,-224.25C693.41,-215.33 701.38,-201 707,-188 713.65,-172.62 719.63,-154.53 723.67,-141.34"/>
<polygon fill="midnightblue" stroke="midnightblue" points="727.08,-142.16 726.58,-131.58 720.37,-140.16 727.08,-142.16"/>
</g>
<!-- Node2&#45;&gt;Node5 -->
<g id="edge22" class="edge">
<title>Node2&#45;&gt;Node5</title>
<path fill="none" stroke="midnightblue" d="M664.79,-224.47C650.1,-216.77 629.86,-204.18 617,-188 592.21,-156.8 579.24,-110.97 573.59,-85.61"/>
<polygon fill="midnightblue" stroke="midnightblue" points="577.02,-84.88 571.55,-75.81 570.16,-86.31 577.02,-84.88"/>
</g>
<!-- Node2&#45;&gt;Node8 -->
<g id="edge24" class="edge">
<title>Node2&#45;&gt;Node8</title>
<path fill="none" stroke="midnightblue" d="M665.5,-224.46C652.21,-216.92 634.92,-204.53 627,-188 610.81,-154.23 624.6,-109.41 634.7,-84.9"/>
<polygon fill="midnightblue" stroke="midnightblue" points="637.91,-86.29 638.7,-75.73 631.49,-83.49 637.91,-86.29"/>
</g>
<!-- Node2&#45;&gt;Node9 -->
<g id="edge25" class="edge">
<title>Node2&#45;&gt;Node9</title>
<path fill="none" stroke="midnightblue" d="M694.78,-224.31C731.23,-197.42 842.46,-115.35 888.12,-81.67"/>
<polygon fill="midnightblue" stroke="midnightblue" points="890.37,-84.36 896.34,-75.61 886.21,-78.73 890.37,-84.36"/>
</g>
<!-- Node11 -->
<g id="node11" class="node">
<title>Node11</title>
<g id="a_node11"><a xlink:href="../../d2/d69/surface_8h.html" target="_top" xlink:title=" ">
<polygon fill="none" stroke="black" points="636,-168.5 636,-187.5 698,-187.5 698,-168.5 636,-168.5"/>
<text text-anchor="middle" x="667" y="-175.5" font-family="Helvetica,sans-Serif" font-size="10.00">surface.h</text>
</a>
</g>
</g>
<!-- Node2&#45;&gt;Node11 -->
<g id="edge10" class="edge">
<title>Node2&#45;&gt;Node11</title>
<path fill="none" stroke="midnightblue" d="M680.36,-224.08C678.21,-216.85 675.12,-206.41 672.45,-197.4"/>
<polygon fill="midnightblue" stroke="midnightblue" points="675.79,-196.34 669.59,-187.75 669.08,-198.33 675.79,-196.34"/>
</g>
<!-- Node15 -->
<g id="node15" class="node">
<title>Node15</title>
<g id="a_node15"><a xlink:title=" ">
<polygon fill="none" stroke="#bfbfbf" points="239.5,-56.5 239.5,-75.5 286.5,-75.5 286.5,-56.5 239.5,-56.5"/>
<text text-anchor="middle" x="263" y="-63.5" font-family="Helvetica,sans-Serif" font-size="10.00">vector</text>
</a>
</g>
</g>
<!-- Node2&#45;&gt;Node15 -->
<g id="edge26" class="edge">
<title>Node2&#45;&gt;Node15</title>
<path fill="none" stroke="midnightblue" d="M651.56,-224.44C596.03,-208.88 477.47,-173.7 382,-132 347.3,-116.84 309.23,-95.07 285.72,-80.98"/>
<polygon fill="midnightblue" stroke="midnightblue" points="287.25,-77.82 276.88,-75.64 283.62,-83.81 287.25,-77.82"/>
</g>
<!-- Node2&#45;&gt;Node16 -->
<g id="edge23" class="edge">
<title>Node2&#45;&gt;Node16</title>
<path fill="none" stroke="midnightblue" d="M704.07,-224.44C726.06,-215.52 760.73,-201.44 785.66,-191.32"/>
<polygon fill="midnightblue" stroke="midnightblue" points="787.08,-194.52 795.02,-187.52 784.44,-188.04 787.08,-194.52"/>
</g>
<!-- Node3&#45;&gt;Node4 -->
<g id="edge3" class="edge">
<title>Node3&#45;&gt;Node4</title>
<path fill="none" stroke="midnightblue" d="M735.29,-112.4C744.32,-98.91 758.49,-72.59 745,-56 722.06,-27.79 614.36,-16.67 560.22,-12.81"/>
<polygon fill="midnightblue" stroke="midnightblue" points="560.36,-9.31 550.15,-12.13 559.89,-16.3 560.36,-9.31"/>
</g>
<!-- Node3&#45;&gt;Node5 -->
<g id="edge4" class="edge">
<title>Node3&#45;&gt;Node5</title>
<path fill="none" stroke="midnightblue" d="M703.81,-112.44C677.06,-103.36 634.6,-88.94 604.69,-78.78"/>
<polygon fill="midnightblue" stroke="midnightblue" points="605.67,-75.42 595.08,-75.52 603.42,-82.05 605.67,-75.42"/>
</g>
<!-- Node6 -->
<g id="node6" class="node">
<title>Node6</title>
<g id="a_node6"><a xlink:title=" ">
<polygon fill="none" stroke="#bfbfbf" points="797,-56.5 797,-75.5 853,-75.5 853,-56.5 797,-56.5"/>
<text text-anchor="middle" x="825" y="-63.5" font-family="Helvetica,sans-Serif" font-size="10.00">optional</text>
</a>
</g>
</g>
<!-- Node3&#45;&gt;Node6 -->
<g id="edge5" class="edge">
<title>Node3&#45;&gt;Node6</title>
<path fill="none" stroke="midnightblue" d="M744.42,-112.32C759.54,-103.82 782.82,-90.73 800.47,-80.8"/>
<polygon fill="midnightblue" stroke="midnightblue" points="802.61,-83.61 809.61,-75.65 799.18,-77.51 802.61,-83.61"/>
</g>
<!-- Node7 -->
<g id="node7" class="node">
<title>Node7</title>
<g id="a_node7"><a xlink:title=" ">
<polygon fill="none" stroke="#bfbfbf" points="432.5,-0.5 432.5,-19.5 489.5,-19.5 489.5,-0.5 432.5,-0.5"/>
<text text-anchor="middle" x="461" y="-7.5" font-family="Helvetica,sans-Serif" font-size="10.00">ostream</text>
</a>
</g>
</g>
<!-- Node3&#45;&gt;Node7 -->
<g id="edge6" class="edge">
<title>Node3&#45;&gt;Node7</title>
<path fill="none" stroke="midnightblue" d="M728.74,-112.31C727.82,-98.19 723.83,-70.41 707,-56 638.09,2.98 593.92,-36.03 499.5,-19.84"/>
<polygon fill="midnightblue" stroke="midnightblue" points="500.07,-16.38 489.59,-17.97 498.77,-23.26 500.07,-16.38"/>
</g>
<!-- Node3&#45;&gt;Node8 -->
<g id="edge7" class="edge">
<title>Node3&#45;&gt;Node8</title>
<path fill="none" stroke="midnightblue" d="M715.18,-112.32C701.77,-103.9 681.18,-90.97 665.41,-81.07"/>
<polygon fill="midnightblue" stroke="midnightblue" points="667.11,-78.01 656.78,-75.65 663.39,-83.94 667.11,-78.01"/>
</g>
<!-- Node3&#45;&gt;Node9 -->
<g id="edge8" class="edge">
<title>Node3&#45;&gt;Node9</title>
<path fill="none" stroke="midnightblue" d="M757.36,-112.44C787.74,-103.28 836.11,-88.69 869.82,-78.52"/>
<polygon fill="midnightblue" stroke="midnightblue" points="871.21,-81.76 879.77,-75.52 869.18,-75.05 871.21,-81.76"/>
</g>
<!-- Node10 -->
<g id="node10" class="node">
<title>Node10</title>
<g id="a_node10"><a xlink:title=" ">
<polygon fill="none" stroke="#bfbfbf" points="369.5,-0.5 369.5,-19.5 414.5,-19.5 414.5,-0.5 369.5,-0.5"/>
<text text-anchor="middle" x="392" y="-7.5" font-family="Helvetica,sans-Serif" font-size="10.00">utility</text>
</a>
</g>
</g>
<!-- Node3&#45;&gt;Node10 -->
<g id="edge9" class="edge">
<title>Node3&#45;&gt;Node10</title>
<path fill="none" stroke="midnightblue" d="M724.31,-112.06C716.19,-97.59 698.06,-69.31 674,-56 578.19,-2.97 535.6,-41.45 424.49,-19.99"/>
<polygon fill="midnightblue" stroke="midnightblue" points="425.09,-16.54 414.59,-17.96 423.68,-23.4 425.09,-16.54"/>
</g>
<!-- Node11&#45;&gt;Node3 -->
<g id="edge11" class="edge">
<title>Node11&#45;&gt;Node3</title>
<path fill="none" stroke="midnightblue" d="M676.96,-168.32C686.13,-160.34 699.94,-148.31 711.03,-138.65"/>
<polygon fill="midnightblue" stroke="midnightblue" points="713.62,-141.04 718.86,-131.83 709.02,-135.76 713.62,-141.04"/>
</g>
<!-- Node11&#45;&gt;Node12 -->
<g id="edge12" class="edge">
<title>Node11&#45;&gt;Node12</title>
<path fill="none" stroke="midnightblue" d="M635.86,-170.05C593.31,-160.56 516.81,-143.49 468.58,-132.72"/>
<polygon fill="midnightblue" stroke="midnightblue" points="469.27,-129.29 458.74,-130.53 467.74,-136.12 469.27,-129.29"/>
</g>
<!-- Node12&#45;&gt;Node4 -->
<g id="edge18" class="edge">
<title>Node12&#45;&gt;Node4</title>
<path fill="none" stroke="midnightblue" d="M433.16,-112.37C450.55,-93.97 491.49,-50.67 513.82,-27.05"/>
<polygon fill="midnightblue" stroke="midnightblue" points="516.55,-29.26 520.88,-19.59 511.46,-24.45 516.55,-29.26"/>
</g>
<!-- Node12&#45;&gt;Node10 -->
<g id="edge20" class="edge">
<title>Node12&#45;&gt;Node10</title>
<path fill="none" stroke="midnightblue" d="M408.67,-112.39C396.04,-104.72 379.5,-92.21 372,-76 364.82,-60.48 372.17,-41.71 379.9,-28.34"/>
<polygon fill="midnightblue" stroke="midnightblue" points="382.99,-30 385.4,-19.69 377.08,-26.25 382.99,-30"/>
</g>
<!-- Node13 -->
<g id="node13" class="node">
<title>Node13</title>
<g id="a_node13"><a xlink:href="../../d3/d34/phonon_8h.html" target="_top" xlink:title=" ">
<polygon fill="none" stroke="black" points="381,-56.5 381,-75.5 443,-75.5 443,-56.5 381,-56.5"/>
<text text-anchor="middle" x="412" y="-63.5" font-family="Helvetica,sans-Serif" font-size="10.00">phonon.h</text>
</a>
</g>
</g>
<!-- Node12&#45;&gt;Node13 -->
<g id="edge13" class="edge">
<title>Node12&#45;&gt;Node13</title>
<path fill="none" stroke="midnightblue" d="M422.85,-112.08C421.13,-104.93 418.65,-94.64 416.5,-85.69"/>
<polygon fill="midnightblue" stroke="midnightblue" points="419.85,-84.65 414.11,-75.75 413.04,-86.29 419.85,-84.65"/>
</g>
<!-- Node12&#45;&gt;Node14 -->
<g id="edge19" class="edge">
<title>Node12&#45;&gt;Node14</title>
<path fill="none" stroke="midnightblue" d="M408.21,-112.37C370.94,-93.21 281.11,-47.04 236.71,-24.22"/>
<polygon fill="midnightblue" stroke="midnightblue" points="238.21,-21.05 227.71,-19.59 235.01,-27.28 238.21,-21.05"/>
</g>
<!-- Node12&#45;&gt;Node15 -->
<g id="edge21" class="edge">
<title>Node12&#45;&gt;Node15</title>
<path fill="none" stroke="midnightblue" d="M399.33,-112.44C371.52,-103.17 327.03,-88.34 296.48,-78.16"/>
<polygon fill="midnightblue" stroke="midnightblue" points="297.3,-74.74 286.7,-74.9 295.08,-81.38 297.3,-74.74"/>
</g>
<!-- Node13&#45;&gt;Node4 -->
<g id="edge14" class="edge">
<title>Node13&#45;&gt;Node4</title>
<path fill="none" stroke="midnightblue" d="M430.54,-56.44C449.62,-47.64 479.57,-33.81 501.44,-23.72"/>
<polygon fill="midnightblue" stroke="midnightblue" points="502.93,-26.88 510.55,-19.52 500,-20.53 502.93,-26.88"/>
</g>
<!-- Node13&#45;&gt;Node7 -->
<g id="edge16" class="edge">
<title>Node13&#45;&gt;Node7</title>
<path fill="none" stroke="midnightblue" d="M420.09,-56.08C427.16,-48.3 437.59,-36.8 446.15,-27.37"/>
<polygon fill="midnightblue" stroke="midnightblue" points="448.93,-29.51 453.06,-19.75 443.75,-24.8 448.93,-29.51"/>
</g>
<!-- Node13&#45;&gt;Node10 -->
<g id="edge17" class="edge">
<title>Node13&#45;&gt;Node10</title>
<path fill="none" stroke="midnightblue" d="M408.7,-56.08C406.02,-48.85 402.15,-38.41 398.81,-29.4"/>
<polygon fill="midnightblue" stroke="midnightblue" points="402,-27.91 395.24,-19.75 395.43,-30.34 402,-27.91"/>
</g>
<!-- Node13&#45;&gt;Node14 -->
<g id="edge15" class="edge">
<title>Node13&#45;&gt;Node14</title>
<path fill="none" stroke="midnightblue" d="M380.59,-56.56C344.51,-46.87 285.4,-30.99 247.35,-20.77"/>
<polygon fill="midnightblue" stroke="midnightblue" points="248.26,-17.39 237.69,-18.17 246.44,-24.15 248.26,-17.39"/>
</g>
<!-- Node17&#45;&gt;Node4 -->
<g id="edge35" class="edge">
<title>Node17&#45;&gt;Node4</title>
<path fill="none" stroke="midnightblue" d="M286.7,-226.76C331.54,-215.54 418.12,-187.76 467,-132 494.51,-100.61 513.6,-54.85 522.77,-29.55"/>
<polygon fill="midnightblue" stroke="midnightblue" points="526.19,-30.37 526.19,-19.78 519.59,-28.06 526.19,-30.37"/>
</g>
<!-- Node17&#45;&gt;Node12 -->
<g id="edge30" class="edge">
<title>Node17&#45;&gt;Node12</title>
<path fill="none" stroke="midnightblue" d="M284.52,-224.37C305.97,-216.7 336.37,-204.19 360,-188 380.06,-174.26 399.27,-153.85 411.53,-139.58"/>
<polygon fill="midnightblue" stroke="midnightblue" points="414.48,-141.51 418.22,-131.6 409.11,-137.01 414.48,-141.51"/>
</g>
<!-- Node17&#45;&gt;Node14 -->
<g id="edge36" class="edge">
<title>Node17&#45;&gt;Node14</title>
<path fill="none" stroke="midnightblue" d="M251.19,-224.26C244.82,-215.58 235.62,-201.63 231,-188 212.28,-132.71 210.29,-62.74 210.54,-29.78"/>
<polygon fill="midnightblue" stroke="midnightblue" points="214.04,-29.81 210.7,-19.76 207.04,-29.7 214.04,-29.81"/>
</g>
<!-- Node17&#45;&gt;Node15 -->
<g id="edge39" class="edge">
<title>Node17&#45;&gt;Node15</title>
<path fill="none" stroke="midnightblue" d="M252.62,-224.44C247.44,-215.68 239.99,-201.47 237,-188 228.85,-151.27 244.01,-108.18 254.41,-84.61"/>
<polygon fill="midnightblue" stroke="midnightblue" points="257.59,-86.06 258.62,-75.52 251.24,-83.12 257.59,-86.06"/>
</g>
<!-- Node18 -->
<g id="node18" class="node">
<title>Node18</title>
<g id="a_node18"><a xlink:href="../../da/d16/sensorController_8h.html" target="_top" xlink:title=" ">
<polygon fill="none" stroke="black" points="246.5,-168.5 246.5,-187.5 351.5,-187.5 351.5,-168.5 246.5,-168.5"/>
<text text-anchor="middle" x="299" y="-175.5" font-family="Helvetica,sans-Serif" font-size="10.00">sensorController.h</text>
</a>
</g>
</g>
<!-- Node17&#45;&gt;Node18 -->
<g id="edge31" class="edge">
<title>Node17&#45;&gt;Node18</title>
<path fill="none" stroke="midnightblue" d="M264.77,-224.08C270.56,-216.46 279.06,-205.26 286.14,-195.94"/>
<polygon fill="midnightblue" stroke="midnightblue" points="289.1,-197.83 292.36,-187.75 283.52,-193.6 289.1,-197.83"/>
</g>
<!-- Node19 -->
<g id="node19" class="node">
<title>Node19</title>
<g id="a_node19"><a xlink:title=" ">
<polygon fill="none" stroke="#bfbfbf" points="28,-168.5 28,-187.5 86,-187.5 86,-168.5 28,-168.5"/>
<text text-anchor="middle" x="57" y="-175.5" font-family="Helvetica,sans-Serif" font-size="10.00">memory</text>
</a>
</g>
</g>
<!-- Node17&#45;&gt;Node19 -->
<g id="edge37" class="edge">
<title>Node17&#45;&gt;Node19</title>
<path fill="none" stroke="midnightblue" d="M229.2,-225.26C194.23,-215.87 135.07,-199.98 96.03,-189.48"/>
<polygon fill="midnightblue" stroke="midnightblue" points="96.64,-186.02 86.07,-186.81 94.82,-192.78 96.64,-186.02"/>
</g>
<!-- Node20 -->
<g id="node20" class="node">
<title>Node20</title>
<g id="a_node20"><a xlink:title=" ">
<polygon fill="none" stroke="#bfbfbf" points="104,-168.5 104,-187.5 152,-187.5 152,-168.5 104,-168.5"/>
<text text-anchor="middle" x="128" y="-175.5" font-family="Helvetica,sans-Serif" font-size="10.00">mutex</text>
</a>
</g>
</g>
<!-- Node17&#45;&gt;Node20 -->
<g id="edge38" class="edge">
<title>Node17&#45;&gt;Node20</title>
<path fill="none" stroke="midnightblue" d="M237.4,-224.44C216.01,-215.56 182.32,-201.56 157.98,-191.45"/>
<polygon fill="midnightblue" stroke="midnightblue" points="159.08,-188.12 148.5,-187.52 156.39,-194.58 159.08,-188.12"/>
</g>
<!-- Node18&#45;&gt;Node12 -->
<g id="edge32" class="edge">
<title>Node18&#45;&gt;Node12</title>
<path fill="none" stroke="midnightblue" d="M318.97,-168.44C339.61,-159.6 372.06,-145.69 395.63,-135.59"/>
<polygon fill="midnightblue" stroke="midnightblue" points="397.32,-138.67 405.13,-131.52 394.56,-132.24 397.32,-138.67"/>
</g>
<!-- Node18&#45;&gt;Node14 -->
<g id="edge33" class="edge">
<title>Node18&#45;&gt;Node14</title>
<path fill="none" stroke="midnightblue" d="M291.7,-168.39C277.84,-151.64 247.53,-113.05 230,-76 222.93,-61.05 217.89,-42.92 214.79,-29.6"/>
<polygon fill="midnightblue" stroke="midnightblue" points="218.19,-28.75 212.64,-19.73 211.35,-30.24 218.19,-28.75"/>
</g>
<!-- Node18&#45;&gt;Node15 -->
<g id="edge34" class="edge">
<title>Node18&#45;&gt;Node15</title>
<path fill="none" stroke="midnightblue" d="M296.18,-168.37C290.34,-150.54 276.84,-109.3 268.98,-85.27"/>
<polygon fill="midnightblue" stroke="midnightblue" points="272.25,-84.01 265.81,-75.59 265.6,-86.18 272.25,-84.01"/>
</g>
</g>
</svg>
