<?xml version="1.0" encoding="UTF-8" standalone="no"?>
<!DOCTYPE svg PUBLIC "-//W3C//DTD SVG 1.1//EN"
 "http://www.w3.org/Graphics/SVG/1.1/DTD/svg11.dtd">
<!-- Generated by graphviz version 2.43.0 (0)
 -->
<!-- Title: psim/src/sensorInterpreter.cpp Pages: 1 -->
<svg width="840pt" height="364pt"
 viewBox="0.00 0.00 839.50 364.00" xmlns="http://www.w3.org/2000/svg" xmlns:xlink="http://www.w3.org/1999/xlink">
<g id="graph0" class="graph" transform="scale(1 1) rotate(0) translate(4 360)">
<title>psim/src/sensorInterpreter.cpp</title>
<!-- Node1 -->
<g id="node1" class="node">
<title>Node1</title>
<g id="a_node1"><a xlink:title=" ">
<polygon fill="#bfbfbf" stroke="black" points="318,-336.5 318,-355.5 482,-355.5 482,-336.5 318,-336.5"/>
<text text-anchor="middle" x="400" y="-343.5" font-family="Helvetica,sans-Serif" font-size="10.00">psim/src/sensorInterpreter.cpp</text>
</a>
</g>
</g>
<!-- Node2 -->
<g id="node2" class="node">
<title>Node2</title>
<g id="a_node2"><a xlink:href="../../d6/d53/sensorInterpreter_8h.html" target="_top" xlink:title=" ">
<polygon fill="none" stroke="black" points="177,-280.5 177,-299.5 313,-299.5 313,-280.5 177,-280.5"/>
<text text-anchor="middle" x="245" y="-287.5" font-family="Helvetica,sans-Serif" font-size="10.00">psim/sensorInterpreter.h</text>
</a>
</g>
</g>
<!-- Node1&#45;&gt;Node2 -->
<g id="edge1" class="edge">
<title>Node1&#45;&gt;Node2</title>
<path fill="none" stroke="midnightblue" d="M375.44,-336.44C349.48,-327.4 308.33,-313.06 279.2,-302.92"/>
<polygon fill="midnightblue" stroke="midnightblue" points="280.04,-299.5 269.45,-299.52 277.74,-306.11 280.04,-299.5"/>
</g>
<!-- Node3 -->
<g id="node3" class="node">
<title>Node3</title>
<g id="a_node3"><a xlink:href="../../d5/d2e/sensor_8h.html" target="_top" xlink:title=" ">
<polygon fill="none" stroke="black" points="216.5,-224.5 216.5,-243.5 273.5,-243.5 273.5,-224.5 216.5,-224.5"/>
<text text-anchor="middle" x="245" y="-231.5" font-family="Helvetica,sans-Serif" font-size="10.00">sensor.h</text>
</a>
</g>
</g>
<!-- Node1&#45;&gt;Node3 -->
<g id="edge25" class="edge">
<title>Node1&#45;&gt;Node3</title>
<path fill="none" stroke="midnightblue" d="M317.95,-339.93C259.09,-334.38 186.96,-322.99 168,-300 150.68,-278.99 182.88,-259.5 210.79,-247.45"/>
<polygon fill="midnightblue" stroke="midnightblue" points="212.48,-250.54 220.4,-243.51 209.82,-244.07 212.48,-250.54"/>
</g>
<!-- Node4 -->
<g id="node4" class="node">
<title>Node4</title>
<g id="a_node4"><a xlink:href="../../d3/d65/material_8h.html" target="_top" xlink:title=" ">
<polygon fill="none" stroke="black" points="185.5,-112.5 185.5,-131.5 252.5,-131.5 252.5,-112.5 185.5,-112.5"/>
<text text-anchor="middle" x="219" y="-119.5" font-family="Helvetica,sans-Serif" font-size="10.00">material.h</text>
</a>
</g>
</g>
<!-- Node1&#45;&gt;Node4 -->
<g id="edge24" class="edge">
<title>Node1&#45;&gt;Node4</title>
<path fill="none" stroke="midnightblue" d="M317.94,-340.64C256.27,-335.45 179.09,-324.19 159,-300 143.12,-280.88 82.05,-331.41 164,-168 170.46,-155.12 182.47,-144.63 193.62,-137.02"/>
<polygon fill="midnightblue" stroke="midnightblue" points="195.69,-139.86 202.26,-131.55 191.94,-133.95 195.69,-139.86"/>
</g>
<!-- Node6 -->
<g id="node6" class="node">
<title>Node6</title>
<g id="a_node6"><a xlink:title=" ">
<polygon fill="none" stroke="#bfbfbf" points="164,-0.5 164,-19.5 206,-19.5 206,-0.5 164,-0.5"/>
<text text-anchor="middle" x="185" y="-7.5" font-family="Helvetica,sans-Serif" font-size="10.00">array</text>
</a>
</g>
</g>
<!-- Node1&#45;&gt;Node6 -->
<g id="edge27" class="edge">
<title>Node1&#45;&gt;Node6</title>
<path fill="none" stroke="midnightblue" d="M317.8,-343.1C259.77,-339.12 181.37,-328.32 118,-300 76.17,-281.31 38,-280.81 38,-235 38,-235 38,-235 38,-121 38,-91.22 116.33,-46.3 158.63,-24.22"/>
<polygon fill="midnightblue" stroke="midnightblue" points="160.27,-27.31 167.56,-19.61 157.07,-21.08 160.27,-27.31"/>
</g>
<!-- Node9 -->
<g id="node9" class="node">
<title>Node9</title>
<g id="a_node9"><a xlink:title=" ">
<polygon fill="none" stroke="#bfbfbf" points="100.5,-0.5 100.5,-19.5 145.5,-19.5 145.5,-0.5 100.5,-0.5"/>
<text text-anchor="middle" x="123" y="-7.5" font-family="Helvetica,sans-Serif" font-size="10.00">utility</text>
</a>
</g>
</g>
<!-- Node1&#45;&gt;Node9 -->
<g id="edge34" class="edge">
<title>Node1&#45;&gt;Node9</title>
<path fill="none" stroke="midnightblue" d="M317.73,-340.1C232.93,-333.96 107.18,-321.56 64,-300 27.73,-281.89 0,-275.54 0,-235 0,-235 0,-235 0,-121 0,-72.09 54.72,-39.49 91.16,-23.2"/>
<polygon fill="midnightblue" stroke="midnightblue" points="92.63,-26.38 100.44,-19.22 89.87,-19.94 92.63,-26.38"/>
</g>
<!-- Node14 -->
<g id="node14" class="node">
<title>Node14</title>
<g id="a_node14"><a xlink:title=" ">
<polygon fill="none" stroke="#bfbfbf" points="331,-280.5 331,-299.5 395,-299.5 395,-280.5 331,-280.5"/>
<text text-anchor="middle" x="363" y="-287.5" font-family="Helvetica,sans-Serif" font-size="10.00">algorithm</text>
</a>
</g>
</g>
<!-- Node1&#45;&gt;Node14 -->
<g id="edge26" class="edge">
<title>Node1&#45;&gt;Node14</title>
<path fill="none" stroke="midnightblue" d="M393.89,-336.08C388.72,-328.53 381.15,-317.49 374.81,-308.23"/>
<polygon fill="midnightblue" stroke="midnightblue" points="377.54,-306.02 369,-299.75 371.76,-309.98 377.54,-306.02"/>
</g>
<!-- Node15 -->
<g id="node15" class="node">
<title>Node15</title>
<g id="a_node15"><a xlink:title=" ">
<polygon fill="none" stroke="#bfbfbf" points="413.5,-280.5 413.5,-299.5 460.5,-299.5 460.5,-280.5 413.5,-280.5"/>
<text text-anchor="middle" x="437" y="-287.5" font-family="Helvetica,sans-Serif" font-size="10.00">cmath</text>
</a>
</g>
</g>
<!-- Node1&#45;&gt;Node15 -->
<g id="edge28" class="edge">
<title>Node1&#45;&gt;Node15</title>
<path fill="none" stroke="midnightblue" d="M406.11,-336.08C411.28,-328.53 418.85,-317.49 425.19,-308.23"/>
<polygon fill="midnightblue" stroke="midnightblue" points="428.24,-309.98 431,-299.75 422.46,-306.02 428.24,-309.98"/>
</g>
<!-- Node16 -->
<g id="node16" class="node">
<title>Node16</title>
<g id="a_node16"><a xlink:title=" ">
<polygon fill="none" stroke="#bfbfbf" points="479,-280.5 479,-299.5 543,-299.5 543,-280.5 479,-280.5"/>
<text text-anchor="middle" x="511" y="-287.5" font-family="Helvetica,sans-Serif" font-size="10.00">execution</text>
</a>
</g>
</g>
<!-- Node1&#45;&gt;Node16 -->
<g id="edge29" class="edge">
<title>Node1&#45;&gt;Node16</title>
<path fill="none" stroke="midnightblue" d="M417.83,-336.32C435.72,-327.62 463.48,-314.12 484.05,-304.11"/>
<polygon fill="midnightblue" stroke="midnightblue" points="485.75,-307.18 493.21,-299.65 482.69,-300.88 485.75,-307.18"/>
</g>
<!-- Node17 -->
<g id="node17" class="node">
<title>Node17</title>
<g id="a_node17"><a xlink:title=" ">
<polygon fill="none" stroke="#bfbfbf" points="561.5,-280.5 561.5,-299.5 626.5,-299.5 626.5,-280.5 561.5,-280.5"/>
<text text-anchor="middle" x="594" y="-287.5" font-family="Helvetica,sans-Serif" font-size="10.00">functional</text>
</a>
</g>
</g>
<!-- Node1&#45;&gt;Node17 -->
<g id="edge30" class="edge">
<title>Node1&#45;&gt;Node17</title>
<path fill="none" stroke="midnightblue" d="M430.74,-336.44C463.94,-327.2 516.99,-312.44 553.56,-302.26"/>
<polygon fill="midnightblue" stroke="midnightblue" points="554.71,-305.57 563.4,-299.52 552.83,-298.83 554.71,-305.57"/>
</g>
<!-- Node18 -->
<g id="node18" class="node">
<title>Node18</title>
<g id="a_node18"><a xlink:title=" ">
<polygon fill="none" stroke="#bfbfbf" points="644.5,-280.5 644.5,-299.5 697.5,-299.5 697.5,-280.5 644.5,-280.5"/>
<text text-anchor="middle" x="671" y="-287.5" font-family="Helvetica,sans-Serif" font-size="10.00">iterator</text>
</a>
</g>
</g>
<!-- Node1&#45;&gt;Node18 -->
<g id="edge31" class="edge">
<title>Node1&#45;&gt;Node18</title>
<path fill="none" stroke="midnightblue" d="M449.91,-336.43C495.56,-328.38 565.19,-315.57 634.13,-300.32"/>
<polygon fill="midnightblue" stroke="midnightblue" points="635.29,-303.65 644.29,-298.05 633.77,-296.81 635.29,-303.65"/>
</g>
<!-- Node19 -->
<g id="node19" class="node">
<title>Node19</title>
<g id="a_node19"><a xlink:title=" ">
<polygon fill="none" stroke="#bfbfbf" points="716,-280.5 716,-299.5 772,-299.5 772,-280.5 716,-280.5"/>
<text text-anchor="middle" x="744" y="-287.5" font-family="Helvetica,sans-Serif" font-size="10.00">numeric</text>
</a>
</g>
</g>
<!-- Node1&#45;&gt;Node19 -->
<g id="edge32" class="edge">
<title>Node1&#45;&gt;Node19</title>
<path fill="none" stroke="midnightblue" d="M471.04,-336.49C531.15,-328.86 619.75,-316.58 705.84,-300.08"/>
<polygon fill="midnightblue" stroke="midnightblue" points="706.63,-303.49 715.78,-298.15 705.29,-296.62 706.63,-303.49"/>
</g>
<!-- Node20 -->
<g id="node20" class="node">
<title>Node20</title>
<g id="a_node20"><a xlink:title=" ">
<polygon fill="none" stroke="#bfbfbf" points="790.5,-280.5 790.5,-299.5 831.5,-299.5 831.5,-280.5 790.5,-280.5"/>
<text text-anchor="middle" x="811" y="-287.5" font-family="Helvetica,sans-Serif" font-size="10.00">tuple</text>
</a>
</g>
</g>
<!-- Node1&#45;&gt;Node20 -->
<g id="edge33" class="edge">
<title>Node1&#45;&gt;Node20</title>
<path fill="none" stroke="midnightblue" d="M482.04,-339.45C557.38,-333.42 672.13,-321.84 780.66,-299.71"/>
<polygon fill="midnightblue" stroke="midnightblue" points="781.38,-303.13 790.46,-297.67 779.96,-296.28 781.38,-303.13"/>
</g>
<!-- Node2&#45;&gt;Node3 -->
<g id="edge2" class="edge">
<title>Node2&#45;&gt;Node3</title>
<path fill="none" stroke="midnightblue" d="M245,-280.08C245,-273.01 245,-262.86 245,-253.99"/>
<polygon fill="midnightblue" stroke="midnightblue" points="248.5,-253.75 245,-243.75 241.5,-253.75 248.5,-253.75"/>
</g>
<!-- Node7 -->
<g id="node7" class="node">
<title>Node7</title>
<g id="a_node7"><a xlink:title=" ">
<polygon fill="none" stroke="#bfbfbf" points="348.5,-0.5 348.5,-19.5 401.5,-19.5 401.5,-0.5 348.5,-0.5"/>
<text text-anchor="middle" x="375" y="-7.5" font-family="Helvetica,sans-Serif" font-size="10.00">cstddef</text>
</a>
</g>
</g>
<!-- Node2&#45;&gt;Node7 -->
<g id="edge22" class="edge">
<title>Node2&#45;&gt;Node7</title>
<path fill="none" stroke="midnightblue" d="M309.99,-280.45C404.83,-266.12 570,-233.36 570,-179 570,-179 570,-179 570,-121 570,-49.1 468.18,-23.67 411.69,-15.1"/>
<polygon fill="midnightblue" stroke="midnightblue" points="412.1,-11.62 401.71,-13.69 411.12,-18.55 412.1,-11.62"/>
</g>
<!-- Node10 -->
<g id="node10" class="node">
<title>Node10</title>
<g id="a_node10"><a xlink:title=" ">
<polygon fill="none" stroke="#bfbfbf" points="411.5,-56.5 411.5,-75.5 458.5,-75.5 458.5,-56.5 411.5,-56.5"/>
<text text-anchor="middle" x="435" y="-63.5" font-family="Helvetica,sans-Serif" font-size="10.00">vector</text>
</a>
</g>
</g>
<!-- Node2&#45;&gt;Node10 -->
<g id="edge23" class="edge">
<title>Node2&#45;&gt;Node10</title>
<path fill="none" stroke="midnightblue" d="M290.11,-280.48C339.23,-268.68 416.11,-242.35 456,-188 476.1,-160.62 473.59,-144.58 464,-112 460.99,-101.76 454.85,-91.66 448.99,-83.63"/>
<polygon fill="midnightblue" stroke="midnightblue" points="451.59,-81.27 442.67,-75.54 446.07,-85.58 451.59,-81.27"/>
</g>
<!-- Node3&#45;&gt;Node4 -->
<g id="edge3" class="edge">
<title>Node3&#45;&gt;Node4</title>
<path fill="none" stroke="midnightblue" d="M218.07,-224.36C201.28,-217.41 181.02,-205.82 171,-188 160.64,-169.57 179.12,-150.31 196.07,-137.59"/>
<polygon fill="midnightblue" stroke="midnightblue" points="198.46,-140.18 204.63,-131.57 194.44,-134.45 198.46,-140.18"/>
</g>
<!-- Node3&#45;&gt;Node6 -->
<g id="edge17" class="edge">
<title>Node3&#45;&gt;Node6</title>
<path fill="none" stroke="midnightblue" d="M216.41,-225.33C197.92,-218.72 175.26,-207.13 164,-188 133.85,-136.76 160.78,-62.74 176.1,-28.99"/>
<polygon fill="midnightblue" stroke="midnightblue" points="179.3,-30.41 180.4,-19.88 172.97,-27.42 179.3,-30.41"/>
</g>
<!-- Node3&#45;&gt;Node7 -->
<g id="edge18" class="edge">
<title>Node3&#45;&gt;Node7</title>
<path fill="none" stroke="midnightblue" d="M273.77,-230.86C325.59,-226.39 431.52,-214.21 456,-188 496.21,-144.95 499.29,-105.91 468,-56 455.63,-36.28 431.91,-24.99 411.52,-18.65"/>
<polygon fill="midnightblue" stroke="midnightblue" points="412.41,-15.27 401.84,-15.92 410.51,-22 412.41,-15.27"/>
</g>
<!-- Node3&#45;&gt;Node10 -->
<g id="edge21" class="edge">
<title>Node3&#45;&gt;Node10</title>
<path fill="none" stroke="midnightblue" d="M273.83,-230.54C322.33,-225.73 416.95,-213.29 437,-188 460.3,-158.61 450.13,-111.38 441.84,-85.47"/>
<polygon fill="midnightblue" stroke="midnightblue" points="445.08,-84.11 438.51,-75.79 438.46,-86.39 445.08,-84.11"/>
</g>
<!-- Node11 -->
<g id="node11" class="node">
<title>Node11</title>
<g id="a_node11"><a xlink:href="../../da/d16/sensorController_8h.html" target="_top" xlink:title=" ">
<polygon fill="none" stroke="black" points="322.5,-168.5 322.5,-187.5 427.5,-187.5 427.5,-168.5 322.5,-168.5"/>
<text text-anchor="middle" x="375" y="-175.5" font-family="Helvetica,sans-Serif" font-size="10.00">sensorController.h</text>
</a>
</g>
</g>
<!-- Node3&#45;&gt;Node11 -->
<g id="edge13" class="edge">
<title>Node3&#45;&gt;Node11</title>
<path fill="none" stroke="midnightblue" d="M265.6,-224.44C286.99,-215.56 320.68,-201.56 345.02,-191.45"/>
<polygon fill="midnightblue" stroke="midnightblue" points="346.61,-194.58 354.5,-187.52 343.92,-188.12 346.61,-194.58"/>
</g>
<!-- Node12 -->
<g id="node12" class="node">
<title>Node12</title>
<g id="a_node12"><a xlink:title=" ">
<polygon fill="none" stroke="#bfbfbf" points="180,-168.5 180,-187.5 238,-187.5 238,-168.5 180,-168.5"/>
<text text-anchor="middle" x="209" y="-175.5" font-family="Helvetica,sans-Serif" font-size="10.00">memory</text>
</a>
</g>
</g>
<!-- Node3&#45;&gt;Node12 -->
<g id="edge19" class="edge">
<title>Node3&#45;&gt;Node12</title>
<path fill="none" stroke="midnightblue" d="M239.06,-224.08C234.02,-216.53 226.66,-205.49 220.49,-196.23"/>
<polygon fill="midnightblue" stroke="midnightblue" points="223.29,-194.13 214.83,-187.75 217.47,-198.01 223.29,-194.13"/>
</g>
<!-- Node13 -->
<g id="node13" class="node">
<title>Node13</title>
<g id="a_node13"><a xlink:title=" ">
<polygon fill="none" stroke="#bfbfbf" points="256,-168.5 256,-187.5 304,-187.5 304,-168.5 256,-168.5"/>
<text text-anchor="middle" x="280" y="-175.5" font-family="Helvetica,sans-Serif" font-size="10.00">mutex</text>
</a>
</g>
</g>
<!-- Node3&#45;&gt;Node13 -->
<g id="edge20" class="edge">
<title>Node3&#45;&gt;Node13</title>
<path fill="none" stroke="midnightblue" d="M250.78,-224.08C255.67,-216.53 262.83,-205.49 268.83,-196.23"/>
<polygon fill="midnightblue" stroke="midnightblue" points="271.83,-198.05 274.33,-187.75 265.95,-194.24 271.83,-198.05"/>
</g>
<!-- Node5 -->
<g id="node5" class="node">
<title>Node5</title>
<g id="a_node5"><a xlink:href="../../d3/d34/phonon_8h.html" target="_top" xlink:title=" ">
<polygon fill="none" stroke="black" points="218,-56.5 218,-75.5 280,-75.5 280,-56.5 218,-56.5"/>
<text text-anchor="middle" x="249" y="-63.5" font-family="Helvetica,sans-Serif" font-size="10.00">phonon.h</text>
</a>
</g>
</g>
<!-- Node4&#45;&gt;Node5 -->
<g id="edge4" class="edge">
<title>Node4&#45;&gt;Node5</title>
<path fill="none" stroke="midnightblue" d="M223.95,-112.08C228.1,-104.61 234.15,-93.72 239.27,-84.52"/>
<polygon fill="midnightblue" stroke="midnightblue" points="242.34,-86.19 244.14,-75.75 236.22,-82.79 242.34,-86.19"/>
</g>
<!-- Node4&#45;&gt;Node6 -->
<g id="edge9" class="edge">
<title>Node4&#45;&gt;Node6</title>
<path fill="none" stroke="midnightblue" d="M216.33,-112.37C210.82,-94.54 198.07,-53.3 190.65,-29.27"/>
<polygon fill="midnightblue" stroke="midnightblue" points="193.95,-28.11 187.66,-19.59 187.26,-30.18 193.95,-28.11"/>
</g>
<!-- Node4&#45;&gt;Node7 -->
<g id="edge10" class="edge">
<title>Node4&#45;&gt;Node7</title>
<path fill="none" stroke="midnightblue" d="M233.15,-112.34C247.44,-103.5 270.04,-89.23 289,-76 312.53,-59.58 338.71,-39.52 355.94,-26.07"/>
<polygon fill="midnightblue" stroke="midnightblue" points="358.36,-28.61 364.07,-19.69 354.04,-23.11 358.36,-28.61"/>
</g>
<!-- Node4&#45;&gt;Node9 -->
<g id="edge11" class="edge">
<title>Node4&#45;&gt;Node9</title>
<path fill="none" stroke="midnightblue" d="M211.47,-112.37C195.48,-94.05 157.95,-51.05 137.28,-27.36"/>
<polygon fill="midnightblue" stroke="midnightblue" points="139.71,-24.82 130.5,-19.59 134.44,-29.43 139.71,-24.82"/>
</g>
<!-- Node4&#45;&gt;Node10 -->
<g id="edge12" class="edge">
<title>Node4&#45;&gt;Node10</title>
<path fill="none" stroke="midnightblue" d="M252.75,-112.56C293.35,-102.41 361.1,-85.48 401.56,-75.36"/>
<polygon fill="midnightblue" stroke="midnightblue" points="402.62,-78.7 411.47,-72.88 400.92,-71.91 402.62,-78.7"/>
</g>
<!-- Node5&#45;&gt;Node6 -->
<g id="edge5" class="edge">
<title>Node5&#45;&gt;Node6</title>
<path fill="none" stroke="midnightblue" d="M238.72,-56.32C229.16,-48.26 214.72,-36.08 203.22,-26.37"/>
<polygon fill="midnightblue" stroke="midnightblue" points="205.37,-23.61 195.47,-19.83 200.86,-28.96 205.37,-23.61"/>
</g>
<!-- Node5&#45;&gt;Node7 -->
<g id="edge6" class="edge">
<title>Node5&#45;&gt;Node7</title>
<path fill="none" stroke="midnightblue" d="M268.97,-56.44C289.61,-47.6 322.06,-33.69 345.63,-23.59"/>
<polygon fill="midnightblue" stroke="midnightblue" points="347.32,-26.67 355.13,-19.52 344.56,-20.24 347.32,-26.67"/>
</g>
<!-- Node8 -->
<g id="node8" class="node">
<title>Node8</title>
<g id="a_node8"><a xlink:title=" ">
<polygon fill="none" stroke="#bfbfbf" points="224.5,-0.5 224.5,-19.5 281.5,-19.5 281.5,-0.5 224.5,-0.5"/>
<text text-anchor="middle" x="253" y="-7.5" font-family="Helvetica,sans-Serif" font-size="10.00">ostream</text>
</a>
</g>
</g>
<!-- Node5&#45;&gt;Node8 -->
<g id="edge7" class="edge">
<title>Node5&#45;&gt;Node8</title>
<path fill="none" stroke="midnightblue" d="M249.66,-56.08C250.18,-49.01 250.94,-38.86 251.59,-29.99"/>
<polygon fill="midnightblue" stroke="midnightblue" points="255.1,-29.98 252.35,-19.75 248.12,-29.47 255.1,-29.98"/>
</g>
<!-- Node5&#45;&gt;Node9 -->
<g id="edge8" class="edge">
<title>Node5&#45;&gt;Node9</title>
<path fill="none" stroke="midnightblue" d="M229.03,-56.44C208.39,-47.6 175.94,-33.69 152.37,-23.59"/>
<polygon fill="midnightblue" stroke="midnightblue" points="153.44,-20.24 142.87,-19.52 150.68,-26.67 153.44,-20.24"/>
</g>
<!-- Node11&#45;&gt;Node4 -->
<g id="edge14" class="edge">
<title>Node11&#45;&gt;Node4</title>
<path fill="none" stroke="midnightblue" d="M350.28,-168.44C324.15,-159.4 282.74,-145.06 253.42,-134.92"/>
<polygon fill="midnightblue" stroke="midnightblue" points="254.2,-131.48 243.6,-131.52 251.91,-138.1 254.2,-131.48"/>
</g>
<!-- Node11&#45;&gt;Node7 -->
<g id="edge15" class="edge">
<title>Node11&#45;&gt;Node7</title>
<path fill="none" stroke="midnightblue" d="M375,-168.08C375,-141.95 375,-65.21 375,-29.58"/>
<polygon fill="midnightblue" stroke="midnightblue" points="378.5,-29.57 375,-19.57 371.5,-29.57 378.5,-29.57"/>
</g>
<!-- Node11&#45;&gt;Node10 -->
<g id="edge16" class="edge">
<title>Node11&#45;&gt;Node10</title>
<path fill="none" stroke="midnightblue" d="M379.71,-168.37C389.52,-150.38 412.34,-108.55 425.39,-84.63"/>
<polygon fill="midnightblue" stroke="midnightblue" points="428.6,-86.05 430.31,-75.59 422.45,-82.69 428.6,-86.05"/>
</g>
</g>
</svg>
