<?xml version="1.0" encoding="UTF-8" standalone="no"?>
<!DOCTYPE svg PUBLIC "-//W3C//DTD SVG 1.1//EN"
 "http://www.w3.org/Graphics/SVG/1.1/DTD/svg11.dtd">
<!-- Generated by graphviz version 2.43.0 (0)
 -->
<!-- Title: Phonon::setRandPoint Pages: 1 -->
<svg width="425pt" height="72pt"
 viewBox="0.00 0.00 425.00 71.50" xmlns="http://www.w3.org/2000/svg" xmlns:xlink="http://www.w3.org/1999/xlink">
<g id="graph0" class="graph" transform="scale(1 1) rotate(0) translate(4 67.5)">
<title>Phonon::setRandPoint</title>
<!-- Node1 -->
<g id="node1" class="node">
<title>Node1</title>
<g id="a_node1"><a xlink:title=" ">
<polygon fill="#bfbfbf" stroke="black" points="0,-19.5 0,-38.5 123,-38.5 123,-19.5 0,-19.5"/>
<text text-anchor="middle" x="61.5" y="-26.5" font-family="Helvetica,sans-Serif" font-size="10.00">Phonon::setRandPoint</text>
</a>
</g>
</g>
<!-- Node2 -->
<g id="node2" class="node">
<title>Node2</title>
<g id="a_node2"><a xlink:href="../../de/dfd/classCell.html#a9a72850af7a0e66c32566356ccbcf3c9" target="_top" xlink:title=" ">
<polygon fill="none" stroke="black" points="162,-38.5 162,-57.5 269,-57.5 269,-38.5 162,-38.5"/>
<text text-anchor="middle" x="215.5" y="-45.5" font-family="Helvetica,sans-Serif" font-size="10.00">Cell::getRandPoint</text>
</a>
</g>
</g>
<!-- Node1&#45;&gt;Node2 -->
<g id="edge1" class="edge">
<title>Node1&#45;&gt;Node2</title>
<path fill="none" stroke="midnightblue" d="M123.01,-36.56C132.37,-37.73 142.06,-38.95 151.48,-40.12"/>
<polygon fill="midnightblue" stroke="midnightblue" points="151.21,-43.62 161.56,-41.38 152.07,-36.67 151.21,-43.62"/>
</g>
<!-- Node4 -->
<g id="node4" class="node">
<title>Node4</title>
<g id="a_node4"><a xlink:href="../../d2/db2/classPhonon.html#ad8de3544825fdae2b8d0c5ac1baeb9db" target="_top" xlink:title=" ">
<polygon fill="none" stroke="black" points="159,-0.5 159,-19.5 272,-19.5 272,-0.5 159,-0.5"/>
<text text-anchor="middle" x="215.5" y="-7.5" font-family="Helvetica,sans-Serif" font-size="10.00">Phonon::setPosition</text>
</a>
</g>
</g>
<!-- Node1&#45;&gt;Node4 -->
<g id="edge3" class="edge">
<title>Node1&#45;&gt;Node4</title>
<path fill="none" stroke="midnightblue" d="M123.01,-21.44C131.37,-20.39 139.99,-19.31 148.44,-18.26"/>
<polygon fill="midnightblue" stroke="midnightblue" points="149.15,-21.7 158.64,-16.98 148.28,-14.75 149.15,-21.7"/>
</g>
<!-- Node3 -->
<g id="node3" class="node">
<title>Node3</title>
<g id="a_node3"><a xlink:href="../../d9/d10/structGeometry_1_1Triangle.html#aa5bb650eea931abda6b599c6231d57a8" target="_top" xlink:title=" ">
<polygon fill="none" stroke="black" points="308,-33 308,-63 417,-63 417,-33 308,-33"/>
<text text-anchor="start" x="316" y="-51" font-family="Helvetica,sans-Serif" font-size="10.00">Geometry::Triangle</text>
<text text-anchor="middle" x="362.5" y="-40" font-family="Helvetica,sans-Serif" font-size="10.00">::getRandPoint</text>
</a>
</g>
</g>
<!-- Node2&#45;&gt;Node3 -->
<g id="edge2" class="edge">
<title>Node2&#45;&gt;Node3</title>
<path fill="none" stroke="midnightblue" d="M269.26,-48C278.42,-48 288.03,-48 297.45,-48"/>
<polygon fill="midnightblue" stroke="midnightblue" points="297.56,-51.5 307.56,-48 297.56,-44.5 297.56,-51.5"/>
</g>
</g>
</svg>
