<?xml version="1.0" encoding="UTF-8" standalone="no"?>
<!DOCTYPE svg PUBLIC "-//W3C//DTD SVG 1.1//EN"
 "http://www.w3.org/Graphics/SVG/1.1/DTD/svg11.dtd">
<!-- Generated by graphviz version 2.43.0 (0)
 -->
<!-- Title: Phonon::scatterUpdate Pages: 1 -->
<svg width="443pt" height="28pt"
 viewBox="0.00 0.00 443.00 28.00" xmlns="http://www.w3.org/2000/svg" xmlns:xlink="http://www.w3.org/1999/xlink">
<g id="graph0" class="graph" transform="scale(1 1) rotate(0) translate(4 24)">
<title>Phonon::scatterUpdate</title>
<!-- Node1 -->
<g id="node1" class="node">
<title>Node1</title>
<g id="a_node1"><a xlink:title=" ">
<polygon fill="#bfbfbf" stroke="black" points="0,-0.5 0,-19.5 128,-19.5 128,-0.5 0,-0.5"/>
<text text-anchor="middle" x="64" y="-7.5" font-family="Helvetica,sans-Serif" font-size="10.00">Phonon::scatterUpdate</text>
</a>
</g>
</g>
<!-- Node2 -->
<g id="node2" class="node">
<title>Node2</title>
<g id="a_node2"><a xlink:href="../../de/dfd/classCell.html#a16e0d4e0065c004ea4d4d8feed4514de" target="_top" xlink:title=" ">
<polygon fill="none" stroke="black" points="164,-0.5 164,-19.5 274,-19.5 274,-0.5 164,-0.5"/>
<text text-anchor="middle" x="219" y="-7.5" font-family="Helvetica,sans-Serif" font-size="10.00">Cell::scatterUpdate</text>
</a>
</g>
</g>
<!-- Node1&#45;&gt;Node2 -->
<g id="edge1" class="edge">
<title>Node1&#45;&gt;Node2</title>
<path fill="none" stroke="midnightblue" d="M128.11,-10C136.54,-10 145.19,-10 153.64,-10"/>
<polygon fill="midnightblue" stroke="midnightblue" points="153.82,-13.5 163.82,-10 153.82,-6.5 153.82,-13.5"/>
</g>
<!-- Node3 -->
<g id="node3" class="node">
<title>Node3</title>
<g id="a_node3"><a xlink:href="../../d1/dd6/classSensor.html#ac7940976e382d0b8a8fd628159a91f42" target="_top" xlink:title=" ">
<polygon fill="none" stroke="black" points="310,-0.5 310,-19.5 435,-19.5 435,-0.5 310,-0.5"/>
<text text-anchor="middle" x="372.5" y="-7.5" font-family="Helvetica,sans-Serif" font-size="10.00">Sensor::scatterUpdate</text>
</a>
</g>
</g>
<!-- Node2&#45;&gt;Node3 -->
<g id="edge2" class="edge">
<title>Node2&#45;&gt;Node3</title>
<path fill="none" stroke="midnightblue" d="M274.27,-10C282.57,-10 291.24,-10 299.84,-10"/>
<polygon fill="midnightblue" stroke="midnightblue" points="299.89,-13.5 309.89,-10 299.89,-6.5 299.89,-13.5"/>
</g>
</g>
</svg>
