<?xml version="1.0" encoding="UTF-8" standalone="no"?>
<!DOCTYPE svg PUBLIC "-//W3C//DTD SVG 1.1//EN"
 "http://www.w3.org/Graphics/SVG/1.1/DTD/svg11.dtd">
<!-- Generated by graphviz version 2.43.0 (0)
 -->
<!-- Title: Phonon::getRelaxRates Pages: 1 -->
<svg width="458pt" height="104pt"
 viewBox="0.00 0.00 458.00 104.00" xmlns="http://www.w3.org/2000/svg" xmlns:xlink="http://www.w3.org/1999/xlink">
<g id="graph0" class="graph" transform="scale(1 1) rotate(0) translate(4 100)">
<title>Phonon::getRelaxRates</title>
<!-- Node1 -->
<g id="node1" class="node">
<title>Node1</title>
<g id="a_node1"><a xlink:title=" ">
<polygon fill="#bfbfbf" stroke="black" points="0,-38.5 0,-57.5 130,-57.5 130,-38.5 0,-38.5"/>
<text text-anchor="middle" x="65" y="-45.5" font-family="Helvetica,sans-Serif" font-size="10.00">Phonon::getRelaxRates</text>
</a>
</g>
</g>
<!-- Node2 -->
<g id="node2" class="node">
<title>Node2</title>
<g id="a_node2"><a xlink:href="../../de/dfd/classCell.html#a0d7a245c41acd87a2d2de2813644a228" target="_top" xlink:title=" ">
<polygon fill="none" stroke="black" points="175.5,-76.5 175.5,-95.5 273.5,-95.5 273.5,-76.5 175.5,-76.5"/>
<text text-anchor="middle" x="224.5" y="-83.5" font-family="Helvetica,sans-Serif" font-size="10.00">Cell::getMaterial</text>
</a>
</g>
</g>
<!-- Node1&#45;&gt;Node2 -->
<g id="edge1" class="edge">
<title>Node1&#45;&gt;Node2</title>
<path fill="none" stroke="midnightblue" d="M105.74,-57.59C126.53,-62.6 152.16,-68.79 174.2,-74.11"/>
<polygon fill="midnightblue" stroke="midnightblue" points="173.5,-77.54 184.04,-76.48 175.14,-70.73 173.5,-77.54"/>
</g>
<!-- Node4 -->
<g id="node4" class="node">
<title>Node4</title>
<g id="a_node4"><a xlink:href="../../de/dfd/classCell.html#ad9aeee386c8119dcd4680a5f3da6f2fe" target="_top" xlink:title=" ">
<polygon fill="none" stroke="black" points="166,-38.5 166,-57.5 283,-57.5 283,-38.5 166,-38.5"/>
<text text-anchor="middle" x="224.5" y="-45.5" font-family="Helvetica,sans-Serif" font-size="10.00">Cell::getSteadyTemp</text>
</a>
</g>
</g>
<!-- Node1&#45;&gt;Node4 -->
<g id="edge3" class="edge">
<title>Node1&#45;&gt;Node4</title>
<path fill="none" stroke="midnightblue" d="M130.06,-48C138.48,-48 147.13,-48 155.6,-48"/>
<polygon fill="midnightblue" stroke="midnightblue" points="155.83,-51.5 165.83,-48 155.83,-44.5 155.83,-51.5"/>
</g>
<!-- Node6 -->
<g id="node6" class="node">
<title>Node6</title>
<g id="a_node6"><a xlink:href="../../d3/d89/classMaterial.html#afb9271afbb5281c18ae9c94fea180b07" target="_top" xlink:title=" ">
<polygon fill="none" stroke="black" points="166.5,-0.5 166.5,-19.5 282.5,-19.5 282.5,-0.5 166.5,-0.5"/>
<text text-anchor="middle" x="224.5" y="-7.5" font-family="Helvetica,sans-Serif" font-size="10.00">Material::relaxRates</text>
</a>
</g>
</g>
<!-- Node1&#45;&gt;Node6 -->
<g id="edge5" class="edge">
<title>Node1&#45;&gt;Node6</title>
<path fill="none" stroke="midnightblue" d="M105.74,-38.41C126.53,-33.4 152.16,-27.21 174.2,-21.89"/>
<polygon fill="midnightblue" stroke="midnightblue" points="175.14,-25.27 184.04,-19.52 173.5,-18.46 175.14,-25.27"/>
</g>
<!-- Node3 -->
<g id="node3" class="node">
<title>Node3</title>
<g id="a_node3"><a xlink:href="../../d1/dd6/classSensor.html#ac6d0d5438d629573ead2a0319cbac540" target="_top" xlink:title=" ">
<polygon fill="none" stroke="black" points="328.5,-76.5 328.5,-95.5 440.5,-95.5 440.5,-76.5 328.5,-76.5"/>
<text text-anchor="middle" x="384.5" y="-83.5" font-family="Helvetica,sans-Serif" font-size="10.00">Sensor::getMaterial</text>
</a>
</g>
</g>
<!-- Node2&#45;&gt;Node3 -->
<g id="edge2" class="edge">
<title>Node2&#45;&gt;Node3</title>
<path fill="none" stroke="midnightblue" d="M273.76,-86C287.77,-86 303.31,-86 318.18,-86"/>
<polygon fill="midnightblue" stroke="midnightblue" points="318.34,-89.5 328.34,-86 318.34,-82.5 318.34,-89.5"/>
</g>
<!-- Node5 -->
<g id="node5" class="node">
<title>Node5</title>
<g id="a_node5"><a xlink:href="../../d1/dd6/classSensor.html#acdd4a4c2e92fabde94ad4f3a18cb41c0" target="_top" xlink:title=" ">
<polygon fill="none" stroke="black" points="319,-38.5 319,-57.5 450,-57.5 450,-38.5 319,-38.5"/>
<text text-anchor="middle" x="384.5" y="-45.5" font-family="Helvetica,sans-Serif" font-size="10.00">Sensor::getSteadyTemp</text>
</a>
</g>
</g>
<!-- Node4&#45;&gt;Node5 -->
<g id="edge4" class="edge">
<title>Node4&#45;&gt;Node5</title>
<path fill="none" stroke="midnightblue" d="M283.44,-48C291.64,-48 300.17,-48 308.63,-48"/>
<polygon fill="midnightblue" stroke="midnightblue" points="308.9,-51.5 318.9,-48 308.9,-44.5 308.9,-51.5"/>
</g>
</g>
</svg>
