<?xml version="1.0" encoding="UTF-8" standalone="no"?>
<!DOCTYPE svg PUBLIC "-//W3C//DTD SVG 1.1//EN"
 "http://www.w3.org/Graphics/SVG/1.1/DTD/svg11.dtd">
<!-- Generated by graphviz version 2.43.0 (0)
 -->
<!-- Title: Phonon::getCellMaterialID Pages: 1 -->
<svg width="444pt" height="66pt"
 viewBox="0.00 0.00 444.00 66.00" xmlns="http://www.w3.org/2000/svg" xmlns:xlink="http://www.w3.org/1999/xlink">
<g id="graph0" class="graph" transform="scale(1 1) rotate(0) translate(4 62)">
<title>Phonon::getCellMaterialID</title>
<!-- Node1 -->
<g id="node1" class="node">
<title>Node1</title>
<g id="a_node1"><a xlink:title=" ">
<polygon fill="#bfbfbf" stroke="black" points="0,-19.5 0,-38.5 144,-38.5 144,-19.5 0,-19.5"/>
<text text-anchor="middle" x="72" y="-26.5" font-family="Helvetica,sans-Serif" font-size="10.00">Phonon::getCellMaterialID</text>
</a>
</g>
</g>
<!-- Node2 -->
<g id="node2" class="node">
<title>Node2</title>
<g id="a_node2"><a xlink:href="../../de/dfd/classCell.html#a13a66a71a76c6742a3faeb603d7d0d4c" target="_top" xlink:title=" ">
<polygon fill="none" stroke="black" points="180,-19.5 180,-38.5 288,-38.5 288,-19.5 180,-19.5"/>
<text text-anchor="middle" x="234" y="-26.5" font-family="Helvetica,sans-Serif" font-size="10.00">Cell::getMaterialID</text>
</a>
</g>
</g>
<!-- Node1&#45;&gt;Node2 -->
<g id="edge1" class="edge">
<title>Node1&#45;&gt;Node2</title>
<path fill="none" stroke="midnightblue" d="M144.11,-29C152.65,-29 161.34,-29 169.76,-29"/>
<polygon fill="midnightblue" stroke="midnightblue" points="169.88,-32.5 179.88,-29 169.88,-25.5 169.88,-32.5"/>
</g>
<!-- Node3 -->
<g id="node3" class="node">
<title>Node3</title>
<g id="a_node3"><a xlink:href="../../d1/dd6/classSensor.html#ac6d0d5438d629573ead2a0319cbac540" target="_top" xlink:title=" ">
<polygon fill="none" stroke="black" points="324,-38.5 324,-57.5 436,-57.5 436,-38.5 324,-38.5"/>
<text text-anchor="middle" x="380" y="-45.5" font-family="Helvetica,sans-Serif" font-size="10.00">Sensor::getMaterial</text>
</a>
</g>
</g>
<!-- Node2&#45;&gt;Node3 -->
<g id="edge2" class="edge">
<title>Node2&#45;&gt;Node3</title>
<path fill="none" stroke="midnightblue" d="M288.21,-36.02C296.5,-37.12 305.15,-38.26 313.68,-39.38"/>
<polygon fill="midnightblue" stroke="midnightblue" points="313.22,-42.85 323.6,-40.69 314.14,-35.91 313.22,-42.85"/>
</g>
<!-- Node4 -->
<g id="node4" class="node">
<title>Node4</title>
<g id="a_node4"><a xlink:href="../../d3/d89/classMaterial.html#aaf06db34d39225b1439506a370f56547" target="_top" xlink:title=" ">
<polygon fill="none" stroke="black" points="344,-0.5 344,-19.5 416,-19.5 416,-0.5 344,-0.5"/>
<text text-anchor="middle" x="380" y="-7.5" font-family="Helvetica,sans-Serif" font-size="10.00">Material::id</text>
</a>
</g>
</g>
<!-- Node2&#45;&gt;Node4 -->
<g id="edge3" class="edge">
<title>Node2&#45;&gt;Node4</title>
<path fill="none" stroke="midnightblue" d="M288.21,-21.98C303.17,-20.01 319.29,-17.88 333.73,-15.97"/>
<polygon fill="midnightblue" stroke="midnightblue" points="334.46,-19.41 343.92,-14.63 333.55,-12.47 334.46,-19.41"/>
</g>
</g>
</svg>
