<?xml version="1.0" encoding="UTF-8" standalone="no"?>
<!DOCTYPE svg PUBLIC "-//W3C//DTD SVG 1.1//EN"
 "http://www.w3.org/Graphics/SVG/1.1/DTD/svg11.dtd">
<!-- Generated by graphviz version 2.43.0 (0)
 -->
<!-- Title: Phonon::setPosition Pages: 1 -->
<svg width="455pt" height="127pt"
 viewBox="0.00 0.00 455.00 126.50" xmlns="http://www.w3.org/2000/svg" xmlns:xlink="http://www.w3.org/1999/xlink">
<g id="graph0" class="graph" transform="scale(1 1) rotate(0) translate(4 122.5)">
<title>Phonon::setPosition</title>
<!-- Node1 -->
<g id="node1" class="node">
<title>Node1</title>
<g id="a_node1"><a xlink:title=" ">
<polygon fill="#bfbfbf" stroke="black" points="334,-44.5 334,-63.5 447,-63.5 447,-44.5 334,-44.5"/>
<text text-anchor="middle" x="390.5" y="-51.5" font-family="Helvetica,sans-Serif" font-size="10.00">Phonon::setPosition</text>
</a>
</g>
</g>
<!-- Node2 -->
<g id="node2" class="node">
<title>Node2</title>
<g id="a_node2"><a xlink:href="../../df/da6/classCellOriginBuilder.html#a7ff9a60a3deb8870d9bc860ad362800c" target="_top" xlink:title=" ">
<polygon fill="none" stroke="black" points="184,-88 184,-118 289,-118 289,-88 184,-88"/>
<text text-anchor="start" x="192" y="-106" font-family="Helvetica,sans-Serif" font-size="10.00">CellOriginBuilder::</text>
<text text-anchor="middle" x="236.5" y="-95" font-family="Helvetica,sans-Serif" font-size="10.00">operator()</text>
</a>
</g>
</g>
<!-- Node1&#45;&gt;Node2 -->
<g id="edge1" class="edge">
<title>Node1&#45;&gt;Node2</title>
<path fill="none" stroke="midnightblue" d="M350.04,-66.72C329.89,-73.22 305.23,-81.16 284.15,-87.96"/>
<polygon fill="midnightblue" stroke="midnightblue" points="351.39,-69.96 359.83,-63.56 349.24,-63.3 351.39,-69.96"/>
</g>
<!-- Node3 -->
<g id="node3" class="node">
<title>Node3</title>
<g id="a_node3"><a xlink:href="../../d5/dea/classSurfaceOriginBuilder.html#a984740642c40ced8bcbde51f6230c191" target="_top" xlink:title=" ">
<polygon fill="none" stroke="black" points="178,-39 178,-69 295,-69 295,-39 178,-39"/>
<text text-anchor="start" x="186" y="-57" font-family="Helvetica,sans-Serif" font-size="10.00">SurfaceOriginBuilder</text>
<text text-anchor="middle" x="236.5" y="-46" font-family="Helvetica,sans-Serif" font-size="10.00">::operator()</text>
</a>
</g>
</g>
<!-- Node1&#45;&gt;Node3 -->
<g id="edge2" class="edge">
<title>Node1&#45;&gt;Node3</title>
<path fill="none" stroke="midnightblue" d="M323.56,-54C314.06,-54 304.34,-54 295.01,-54"/>
<polygon fill="midnightblue" stroke="midnightblue" points="323.76,-57.5 333.76,-54 323.76,-50.5 323.76,-57.5"/>
</g>
<!-- Node5 -->
<g id="node5" class="node">
<title>Node5</title>
<g id="a_node5"><a xlink:href="../../d2/db2/classPhonon.html#a0b5147a5d6ff73df069253d01ea80679" target="_top" xlink:title=" ">
<polygon fill="none" stroke="black" points="175,-0.5 175,-19.5 298,-19.5 298,-0.5 175,-0.5"/>
<text text-anchor="middle" x="236.5" y="-7.5" font-family="Helvetica,sans-Serif" font-size="10.00">Phonon::setRandPoint</text>
</a>
</g>
</g>
<!-- Node1&#45;&gt;Node5 -->
<g id="edge4" class="edge">
<title>Node1&#45;&gt;Node5</title>
<path fill="none" stroke="midnightblue" d="M346.87,-41.66C322.66,-34.65 292.81,-26.01 270.42,-19.53"/>
<polygon fill="midnightblue" stroke="midnightblue" points="345.94,-45.03 356.52,-44.45 347.89,-38.31 345.94,-45.03"/>
</g>
<!-- Node4 -->
<g id="node4" class="node">
<title>Node4</title>
<g id="a_node4"><a xlink:href="../../d0/dc3/classPhasorBuilder.html#aa4570d09d81cd359dd66cc389cd55104" target="_top" xlink:title=" ">
<polygon fill="none" stroke="black" points="0,-44.5 0,-63.5 139,-63.5 139,-44.5 0,-44.5"/>
<text text-anchor="middle" x="69.5" y="-51.5" font-family="Helvetica,sans-Serif" font-size="10.00">PhasorBuilder::operator()</text>
</a>
</g>
</g>
<!-- Node3&#45;&gt;Node4 -->
<g id="edge3" class="edge">
<title>Node3&#45;&gt;Node4</title>
<path fill="none" stroke="midnightblue" d="M167.72,-54C158.31,-54 148.65,-54 139.23,-54"/>
<polygon fill="midnightblue" stroke="midnightblue" points="167.79,-57.5 177.79,-54 167.79,-50.5 167.79,-57.5"/>
</g>
</g>
</svg>
