<?xml version="1.0" encoding="UTF-8" standalone="no"?>
<!DOCTYPE svg PUBLIC "-//W3C//DTD SVG 1.1//EN"
 "http://www.w3.org/Graphics/SVG/1.1/DTD/svg11.dtd">
<!-- Generated by graphviz version 2.43.0 (0)
 -->
<!-- Title: Phonon::getCellHeatCapacityAtFreq Pages: 1 -->
<svg width="563pt" height="39pt"
 viewBox="0.00 0.00 563.00 39.00" xmlns="http://www.w3.org/2000/svg" xmlns:xlink="http://www.w3.org/1999/xlink">
<g id="graph0" class="graph" transform="scale(1 1) rotate(0) translate(4 35)">
<title>Phonon::getCellHeatCapacityAtFreq</title>
<!-- Node1 -->
<g id="node1" class="node">
<title>Node1</title>
<g id="a_node1"><a xlink:title=" ">
<polygon fill="#bfbfbf" stroke="black" points="0,-0.5 0,-30.5 159,-30.5 159,-0.5 0,-0.5"/>
<text text-anchor="start" x="8" y="-18.5" font-family="Helvetica,sans-Serif" font-size="10.00">Phonon::getCellHeatCapacity</text>
<text text-anchor="middle" x="79.5" y="-7.5" font-family="Helvetica,sans-Serif" font-size="10.00">AtFreq</text>
</a>
</g>
</g>
<!-- Node2 -->
<g id="node2" class="node">
<title>Node2</title>
<g id="a_node2"><a xlink:href="../../de/dfd/classCell.html#a14239b223a51ee83355912e74ef27ef1" target="_top" xlink:title=" ">
<polygon fill="none" stroke="black" points="195,-6 195,-25 350,-25 350,-6 195,-6"/>
<text text-anchor="middle" x="272.5" y="-13" font-family="Helvetica,sans-Serif" font-size="10.00">Cell::getHeatCapacityAtFreq</text>
</a>
</g>
</g>
<!-- Node1&#45;&gt;Node2 -->
<g id="edge1" class="edge">
<title>Node1&#45;&gt;Node2</title>
<path fill="none" stroke="midnightblue" d="M159.01,-15.5C167.52,-15.5 176.21,-15.5 184.8,-15.5"/>
<polygon fill="midnightblue" stroke="midnightblue" points="184.83,-19 194.83,-15.5 184.83,-12 184.83,-19"/>
</g>
<!-- Node3 -->
<g id="node3" class="node">
<title>Node3</title>
<g id="a_node3"><a xlink:href="../../d1/dd6/classSensor.html#a5b185447a62a949c2a3d07c6a36f6125" target="_top" xlink:title=" ">
<polygon fill="none" stroke="black" points="386,-6 386,-25 555,-25 555,-6 386,-6"/>
<text text-anchor="middle" x="470.5" y="-13" font-family="Helvetica,sans-Serif" font-size="10.00">Sensor::getHeatCapacityAtFreq</text>
</a>
</g>
</g>
<!-- Node2&#45;&gt;Node3 -->
<g id="edge2" class="edge">
<title>Node2&#45;&gt;Node3</title>
<path fill="none" stroke="midnightblue" d="M350.12,-15.5C358.53,-15.5 367.16,-15.5 375.75,-15.5"/>
<polygon fill="midnightblue" stroke="midnightblue" points="375.8,-19 385.8,-15.5 375.8,-12 375.8,-19"/>
</g>
</g>
</svg>
