<?xml version="1.0" encoding="UTF-8" standalone="no"?>
<!DOCTYPE svg PUBLIC "-//W3C//DTD SVG 1.1//EN"
 "http://www.w3.org/Graphics/SVG/1.1/DTD/svg11.dtd">
<!-- Generated by graphviz version 2.43.0 (0)
 -->
<!-- Title: psim/include/psim/sensorController.h Pages: 1 -->
<svg width="297pt" height="207pt"
 viewBox="0.00 0.00 297.00 207.00" xmlns="http://www.w3.org/2000/svg" xmlns:xlink="http://www.w3.org/1999/xlink">
<g id="graph0" class="graph" transform="scale(1 1) rotate(0) translate(4 203)">
<title>psim/include/psim/sensorController.h</title>
<!-- Node1 -->
<g id="node1" class="node">
<title>Node1</title>
<g id="a_node1"><a xlink:title=" ">
<polygon fill="#bfbfbf" stroke="black" points="105,-168.5 105,-198.5 246,-198.5 246,-168.5 105,-168.5"/>
<text text-anchor="start" x="113" y="-186.5" font-family="Helvetica,sans-Serif" font-size="10.00">psim/include/psim/sensor</text>
<text text-anchor="middle" x="175.5" y="-175.5" font-family="Helvetica,sans-Serif" font-size="10.00">Controller.h</text>
</a>
</g>
</g>
<!-- Node2 -->
<g id="node2" class="node">
<title>Node2</title>
<g id="a_node2"><a xlink:href="../../d3/d65/material_8h.html" target="_top" xlink:title=" ">
<polygon fill="none" stroke="black" points="142,-112.5 142,-131.5 209,-131.5 209,-112.5 142,-112.5"/>
<text text-anchor="middle" x="175.5" y="-119.5" font-family="Helvetica,sans-Serif" font-size="10.00">material.h</text>
</a>
</g>
</g>
<!-- Node1&#45;&gt;Node2 -->
<g id="edge1" class="edge">
<title>Node1&#45;&gt;Node2</title>
<path fill="none" stroke="midnightblue" d="M175.5,-168.4C175.5,-160.47 175.5,-150.46 175.5,-141.86"/>
<polygon fill="midnightblue" stroke="midnightblue" points="179,-141.66 175.5,-131.66 172,-141.66 179,-141.66"/>
</g>
<!-- Node5 -->
<g id="node5" class="node">
<title>Node5</title>
<g id="a_node5"><a xlink:title=" ">
<polygon fill="none" stroke="#bfbfbf" points="0,-0.5 0,-19.5 53,-19.5 53,-0.5 0,-0.5"/>
<text text-anchor="middle" x="26.5" y="-7.5" font-family="Helvetica,sans-Serif" font-size="10.00">cstddef</text>
</a>
</g>
</g>
<!-- Node1&#45;&gt;Node5 -->
<g id="edge11" class="edge">
<title>Node1&#45;&gt;Node5</title>
<path fill="none" stroke="midnightblue" d="M153.83,-168.31C127.1,-149.84 81.73,-115.26 53.5,-76 43.26,-61.75 36.01,-43.04 31.62,-29.35"/>
<polygon fill="midnightblue" stroke="midnightblue" points="34.93,-28.2 28.71,-19.63 28.22,-30.21 34.93,-28.2"/>
</g>
<!-- Node8 -->
<g id="node8" class="node">
<title>Node8</title>
<g id="a_node8"><a xlink:title=" ">
<polygon fill="none" stroke="#bfbfbf" points="242,-56.5 242,-75.5 289,-75.5 289,-56.5 242,-56.5"/>
<text text-anchor="middle" x="265.5" y="-63.5" font-family="Helvetica,sans-Serif" font-size="10.00">vector</text>
</a>
</g>
</g>
<!-- Node1&#45;&gt;Node8 -->
<g id="edge12" class="edge">
<title>Node1&#45;&gt;Node8</title>
<path fill="none" stroke="midnightblue" d="M187.86,-168.1C196.34,-158.09 207.79,-144.38 217.5,-132 230.16,-115.85 244.02,-96.94 253.58,-83.69"/>
<polygon fill="midnightblue" stroke="midnightblue" points="256.45,-85.69 259.44,-75.53 250.76,-81.61 256.45,-85.69"/>
</g>
<!-- Node3 -->
<g id="node3" class="node">
<title>Node3</title>
<g id="a_node3"><a xlink:href="../../d3/d34/phonon_8h.html" target="_top" xlink:title=" ">
<polygon fill="none" stroke="black" points="85.5,-56.5 85.5,-75.5 147.5,-75.5 147.5,-56.5 85.5,-56.5"/>
<text text-anchor="middle" x="116.5" y="-63.5" font-family="Helvetica,sans-Serif" font-size="10.00">phonon.h</text>
</a>
</g>
</g>
<!-- Node2&#45;&gt;Node3 -->
<g id="edge2" class="edge">
<title>Node2&#45;&gt;Node3</title>
<path fill="none" stroke="midnightblue" d="M166.02,-112.32C157.3,-104.34 144.16,-92.31 133.6,-82.65"/>
<polygon fill="midnightblue" stroke="midnightblue" points="135.89,-80 126.15,-75.83 131.17,-85.17 135.89,-80"/>
</g>
<!-- Node4 -->
<g id="node4" class="node">
<title>Node4</title>
<g id="a_node4"><a xlink:title=" ">
<polygon fill="none" stroke="#bfbfbf" points="209.5,-0.5 209.5,-19.5 251.5,-19.5 251.5,-0.5 209.5,-0.5"/>
<text text-anchor="middle" x="230.5" y="-7.5" font-family="Helvetica,sans-Serif" font-size="10.00">array</text>
</a>
</g>
</g>
<!-- Node2&#45;&gt;Node4 -->
<g id="edge7" class="edge">
<title>Node2&#45;&gt;Node4</title>
<path fill="none" stroke="midnightblue" d="M179.82,-112.37C188.81,-94.38 209.72,-52.55 221.69,-28.63"/>
<polygon fill="midnightblue" stroke="midnightblue" points="224.86,-30.1 226.2,-19.59 218.6,-26.97 224.86,-30.1"/>
</g>
<!-- Node2&#45;&gt;Node5 -->
<g id="edge8" class="edge">
<title>Node2&#45;&gt;Node5</title>
<path fill="none" stroke="midnightblue" d="M147.46,-112.4C126.46,-105.03 97.8,-92.9 76.5,-76 59.83,-62.77 45.58,-42.82 36.6,-28.52"/>
<polygon fill="midnightblue" stroke="midnightblue" points="39.43,-26.43 31.27,-19.67 33.43,-30.04 39.43,-26.43"/>
</g>
<!-- Node7 -->
<g id="node7" class="node">
<title>Node7</title>
<g id="a_node7"><a xlink:title=" ">
<polygon fill="none" stroke="#bfbfbf" points="146,-0.5 146,-19.5 191,-19.5 191,-0.5 146,-0.5"/>
<text text-anchor="middle" x="168.5" y="-7.5" font-family="Helvetica,sans-Serif" font-size="10.00">utility</text>
</a>
</g>
</g>
<!-- Node2&#45;&gt;Node7 -->
<g id="edge9" class="edge">
<title>Node2&#45;&gt;Node7</title>
<path fill="none" stroke="midnightblue" d="M174.95,-112.37C173.82,-94.62 171.22,-53.67 169.68,-29.6"/>
<polygon fill="midnightblue" stroke="midnightblue" points="173.17,-29.35 169.05,-19.59 166.19,-29.79 173.17,-29.35"/>
</g>
<!-- Node2&#45;&gt;Node8 -->
<g id="edge10" class="edge">
<title>Node2&#45;&gt;Node8</title>
<path fill="none" stroke="midnightblue" d="M189.96,-112.32C204,-103.9 225.55,-90.97 242.04,-81.07"/>
<polygon fill="midnightblue" stroke="midnightblue" points="244.3,-83.8 251.08,-75.65 240.7,-77.8 244.3,-83.8"/>
</g>
<!-- Node3&#45;&gt;Node4 -->
<g id="edge3" class="edge">
<title>Node3&#45;&gt;Node4</title>
<path fill="none" stroke="midnightblue" d="M134.56,-56.44C153.07,-47.68 182.08,-33.94 203.36,-23.86"/>
<polygon fill="midnightblue" stroke="midnightblue" points="204.98,-26.96 212.52,-19.52 201.99,-20.63 204.98,-26.96"/>
</g>
<!-- Node3&#45;&gt;Node5 -->
<g id="edge4" class="edge">
<title>Node3&#45;&gt;Node5</title>
<path fill="none" stroke="midnightblue" d="M102.04,-56.32C88,-47.9 66.45,-34.97 49.96,-25.07"/>
<polygon fill="midnightblue" stroke="midnightblue" points="51.3,-21.8 40.92,-19.65 47.7,-27.8 51.3,-21.8"/>
</g>
<!-- Node6 -->
<g id="node6" class="node">
<title>Node6</title>
<g id="a_node6"><a xlink:title=" ">
<polygon fill="none" stroke="#bfbfbf" points="71,-0.5 71,-19.5 128,-19.5 128,-0.5 71,-0.5"/>
<text text-anchor="middle" x="99.5" y="-7.5" font-family="Helvetica,sans-Serif" font-size="10.00">ostream</text>
</a>
</g>
</g>
<!-- Node3&#45;&gt;Node6 -->
<g id="edge5" class="edge">
<title>Node3&#45;&gt;Node6</title>
<path fill="none" stroke="midnightblue" d="M113.69,-56.08C111.42,-48.85 108.13,-38.41 105.29,-29.4"/>
<polygon fill="midnightblue" stroke="midnightblue" points="108.6,-28.24 102.25,-19.75 101.92,-30.34 108.6,-28.24"/>
</g>
<!-- Node3&#45;&gt;Node7 -->
<g id="edge6" class="edge">
<title>Node3&#45;&gt;Node7</title>
<path fill="none" stroke="midnightblue" d="M125.09,-56.08C132.66,-48.22 143.88,-36.57 153.01,-27.08"/>
<polygon fill="midnightblue" stroke="midnightblue" points="155.66,-29.38 160.07,-19.75 150.62,-24.53 155.66,-29.38"/>
</g>
</g>
</svg>
