<?xml version="1.0" encoding="UTF-8" standalone="no"?>
<!DOCTYPE svg PUBLIC "-//W3C//DTD SVG 1.1//EN"
 "http://www.w3.org/Graphics/SVG/1.1/DTD/svg11.dtd">
<!-- Generated by graphviz version 2.43.0 (0)
 -->
<!-- Title: psim/include/psim/sensor.h Pages: 1 -->
<svg width="510pt" height="252pt"
 viewBox="0.00 0.00 510.00 252.00" xmlns="http://www.w3.org/2000/svg" xmlns:xlink="http://www.w3.org/1999/xlink">
<g id="graph0" class="graph" transform="scale(1 1) rotate(0) translate(4 248)">
<title>psim/include/psim/sensor.h</title>
<!-- Node1 -->
<g id="node1" class="node">
<title>Node1</title>
<g id="a_node1"><a xlink:title=" ">
<polygon fill="#bfbfbf" stroke="black" points="237.5,-224.5 237.5,-243.5 386.5,-243.5 386.5,-224.5 237.5,-224.5"/>
<text text-anchor="middle" x="312" y="-231.5" font-family="Helvetica,sans-Serif" font-size="10.00">psim/include/psim/sensor.h</text>
</a>
</g>
</g>
<!-- Node2 -->
<g id="node2" class="node">
<title>Node2</title>
<g id="a_node2"><a xlink:href="../../d3/d65/material_8h.html" target="_top" xlink:title=" ">
<polygon fill="none" stroke="black" points="116.5,-112.5 116.5,-131.5 183.5,-131.5 183.5,-112.5 116.5,-112.5"/>
<text text-anchor="middle" x="150" y="-119.5" font-family="Helvetica,sans-Serif" font-size="10.00">material.h</text>
</a>
</g>
</g>
<!-- Node1&#45;&gt;Node2 -->
<g id="edge1" class="edge">
<title>Node1&#45;&gt;Node2</title>
<path fill="none" stroke="midnightblue" d="M239.55,-224.42C214.31,-218.07 187.67,-207.06 169,-188 157.05,-175.81 152.55,-156.54 150.88,-142.14"/>
<polygon fill="midnightblue" stroke="midnightblue" points="154.35,-141.56 150.07,-131.87 147.37,-142.11 154.35,-141.56"/>
</g>
<!-- Node4 -->
<g id="node4" class="node">
<title>Node4</title>
<g id="a_node4"><a xlink:title=" ">
<polygon fill="none" stroke="#bfbfbf" points="0,-0.5 0,-19.5 42,-19.5 42,-0.5 0,-0.5"/>
<text text-anchor="middle" x="21" y="-7.5" font-family="Helvetica,sans-Serif" font-size="10.00">array</text>
</a>
</g>
</g>
<!-- Node1&#45;&gt;Node4 -->
<g id="edge15" class="edge">
<title>Node1&#45;&gt;Node4</title>
<path fill="none" stroke="midnightblue" d="M251.45,-224.47C220.45,-218.03 183.2,-206.92 154,-188 90.88,-147.09 46.55,-65.3 29.16,-29.03"/>
<polygon fill="midnightblue" stroke="midnightblue" points="32.21,-27.29 24.81,-19.71 25.86,-30.25 32.21,-27.29"/>
</g>
<!-- Node5 -->
<g id="node5" class="node">
<title>Node5</title>
<g id="a_node5"><a xlink:title=" ">
<polygon fill="none" stroke="#bfbfbf" points="205.5,-0.5 205.5,-19.5 258.5,-19.5 258.5,-0.5 205.5,-0.5"/>
<text text-anchor="middle" x="232" y="-7.5" font-family="Helvetica,sans-Serif" font-size="10.00">cstddef</text>
</a>
</g>
</g>
<!-- Node1&#45;&gt;Node5 -->
<g id="edge16" class="edge">
<title>Node1&#45;&gt;Node5</title>
<path fill="none" stroke="midnightblue" d="M315.58,-224.42C326.3,-197.29 355.33,-111.83 321,-56 309.49,-37.29 287.53,-26.07 268.3,-19.51"/>
<polygon fill="midnightblue" stroke="midnightblue" points="269.15,-16.11 258.56,-16.5 267.08,-22.8 269.15,-16.11"/>
</g>
<!-- Node8 -->
<g id="node8" class="node">
<title>Node8</title>
<g id="a_node8"><a xlink:title=" ">
<polygon fill="none" stroke="#bfbfbf" points="264.5,-56.5 264.5,-75.5 311.5,-75.5 311.5,-56.5 264.5,-56.5"/>
<text text-anchor="middle" x="288" y="-63.5" font-family="Helvetica,sans-Serif" font-size="10.00">vector</text>
</a>
</g>
</g>
<!-- Node1&#45;&gt;Node8 -->
<g id="edge19" class="edge">
<title>Node1&#45;&gt;Node8</title>
<path fill="none" stroke="midnightblue" d="M310.71,-224.08C306.93,-197.95 295.84,-121.21 290.69,-85.58"/>
<polygon fill="midnightblue" stroke="midnightblue" points="294.13,-84.96 289.24,-75.57 287.21,-85.97 294.13,-84.96"/>
</g>
<!-- Node9 -->
<g id="node9" class="node">
<title>Node9</title>
<g id="a_node9"><a xlink:href="../../da/d16/sensorController_8h.html" target="_top" xlink:title=" ">
<polygon fill="none" stroke="black" points="178.5,-168.5 178.5,-187.5 283.5,-187.5 283.5,-168.5 178.5,-168.5"/>
<text text-anchor="middle" x="231" y="-175.5" font-family="Helvetica,sans-Serif" font-size="10.00">sensorController.h</text>
</a>
</g>
</g>
<!-- Node1&#45;&gt;Node9 -->
<g id="edge11" class="edge">
<title>Node1&#45;&gt;Node9</title>
<path fill="none" stroke="midnightblue" d="M298.99,-224.32C286.47,-215.98 267.32,-203.21 252.53,-193.35"/>
<polygon fill="midnightblue" stroke="midnightblue" points="254.24,-190.29 243.98,-187.65 250.36,-196.11 254.24,-190.29"/>
</g>
<!-- Node10 -->
<g id="node10" class="node">
<title>Node10</title>
<g id="a_node10"><a xlink:title=" ">
<polygon fill="none" stroke="#bfbfbf" points="378,-168.5 378,-187.5 436,-187.5 436,-168.5 378,-168.5"/>
<text text-anchor="middle" x="407" y="-175.5" font-family="Helvetica,sans-Serif" font-size="10.00">memory</text>
</a>
</g>
</g>
<!-- Node1&#45;&gt;Node10 -->
<g id="edge17" class="edge">
<title>Node1&#45;&gt;Node10</title>
<path fill="none" stroke="midnightblue" d="M327.26,-224.32C342.22,-215.82 365.25,-202.73 382.73,-192.8"/>
<polygon fill="midnightblue" stroke="midnightblue" points="384.81,-195.64 391.77,-187.65 381.35,-189.55 384.81,-195.64"/>
</g>
<!-- Node11 -->
<g id="node11" class="node">
<title>Node11</title>
<g id="a_node11"><a xlink:title=" ">
<polygon fill="none" stroke="#bfbfbf" points="454,-168.5 454,-187.5 502,-187.5 502,-168.5 454,-168.5"/>
<text text-anchor="middle" x="478" y="-175.5" font-family="Helvetica,sans-Serif" font-size="10.00">mutex</text>
</a>
</g>
</g>
<!-- Node1&#45;&gt;Node11 -->
<g id="edge18" class="edge">
<title>Node1&#45;&gt;Node11</title>
<path fill="none" stroke="midnightblue" d="M338.3,-224.44C367.01,-215.1 413.05,-200.13 444.37,-189.94"/>
<polygon fill="midnightblue" stroke="midnightblue" points="445.55,-193.24 453.98,-186.82 443.38,-186.58 445.55,-193.24"/>
</g>
<!-- Node3 -->
<g id="node3" class="node">
<title>Node3</title>
<g id="a_node3"><a xlink:href="../../d3/d34/phonon_8h.html" target="_top" xlink:title=" ">
<polygon fill="none" stroke="black" points="108,-56.5 108,-75.5 170,-75.5 170,-56.5 108,-56.5"/>
<text text-anchor="middle" x="139" y="-63.5" font-family="Helvetica,sans-Serif" font-size="10.00">phonon.h</text>
</a>
</g>
</g>
<!-- Node2&#45;&gt;Node3 -->
<g id="edge2" class="edge">
<title>Node2&#45;&gt;Node3</title>
<path fill="none" stroke="midnightblue" d="M148.18,-112.08C146.73,-104.93 144.63,-94.64 142.81,-85.69"/>
<polygon fill="midnightblue" stroke="midnightblue" points="146.21,-84.85 140.78,-75.75 139.35,-86.25 146.21,-84.85"/>
</g>
<!-- Node2&#45;&gt;Node4 -->
<g id="edge7" class="edge">
<title>Node2&#45;&gt;Node4</title>
<path fill="none" stroke="midnightblue" d="M136.52,-112.27C123.44,-103.6 103.26,-89.67 87,-76 68.65,-60.57 49.29,-41.08 36.32,-27.48"/>
<polygon fill="midnightblue" stroke="midnightblue" points="38.55,-24.73 29.14,-19.86 33.45,-29.54 38.55,-24.73"/>
</g>
<!-- Node2&#45;&gt;Node5 -->
<g id="edge8" class="edge">
<title>Node2&#45;&gt;Node5</title>
<path fill="none" stroke="midnightblue" d="M156.43,-112.37C170.03,-94.14 201.86,-51.43 219.57,-27.68"/>
<polygon fill="midnightblue" stroke="midnightblue" points="222.42,-29.7 225.6,-19.59 216.81,-25.52 222.42,-29.7"/>
</g>
<!-- Node7 -->
<g id="node7" class="node">
<title>Node7</title>
<g id="a_node7"><a xlink:title=" ">
<polygon fill="none" stroke="#bfbfbf" points="60.5,-0.5 60.5,-19.5 105.5,-19.5 105.5,-0.5 60.5,-0.5"/>
<text text-anchor="middle" x="83" y="-7.5" font-family="Helvetica,sans-Serif" font-size="10.00">utility</text>
</a>
</g>
</g>
<!-- Node2&#45;&gt;Node7 -->
<g id="edge9" class="edge">
<title>Node2&#45;&gt;Node7</title>
<path fill="none" stroke="midnightblue" d="M136.19,-112.35C124.53,-104.34 108.3,-91.35 99,-76 90.44,-61.87 86.45,-43.38 84.6,-29.74"/>
<polygon fill="midnightblue" stroke="midnightblue" points="88.06,-29.18 83.49,-19.62 81.1,-29.94 88.06,-29.18"/>
</g>
<!-- Node2&#45;&gt;Node8 -->
<g id="edge10" class="edge">
<title>Node2&#45;&gt;Node8</title>
<path fill="none" stroke="midnightblue" d="M171.87,-112.44C194.78,-103.48 230.98,-89.31 256.87,-79.18"/>
<polygon fill="midnightblue" stroke="midnightblue" points="258.2,-82.42 266.24,-75.52 255.65,-75.9 258.2,-82.42"/>
</g>
<!-- Node3&#45;&gt;Node4 -->
<g id="edge3" class="edge">
<title>Node3&#45;&gt;Node4</title>
<path fill="none" stroke="midnightblue" d="M120.3,-56.44C101.06,-47.64 70.85,-33.81 48.8,-23.72"/>
<polygon fill="midnightblue" stroke="midnightblue" points="50.16,-20.5 39.61,-19.52 47.25,-26.86 50.16,-20.5"/>
</g>
<!-- Node3&#45;&gt;Node5 -->
<g id="edge4" class="edge">
<title>Node3&#45;&gt;Node5</title>
<path fill="none" stroke="midnightblue" d="M153.94,-56.32C168.59,-47.82 191.13,-34.73 208.24,-24.8"/>
<polygon fill="midnightblue" stroke="midnightblue" points="210.2,-27.7 217.1,-19.65 206.69,-21.65 210.2,-27.7"/>
</g>
<!-- Node6 -->
<g id="node6" class="node">
<title>Node6</title>
<g id="a_node6"><a xlink:title=" ">
<polygon fill="none" stroke="#bfbfbf" points="123.5,-0.5 123.5,-19.5 180.5,-19.5 180.5,-0.5 123.5,-0.5"/>
<text text-anchor="middle" x="152" y="-7.5" font-family="Helvetica,sans-Serif" font-size="10.00">ostream</text>
</a>
</g>
</g>
<!-- Node3&#45;&gt;Node6 -->
<g id="edge5" class="edge">
<title>Node3&#45;&gt;Node6</title>
<path fill="none" stroke="midnightblue" d="M141.15,-56.08C142.87,-48.93 145.35,-38.64 147.5,-29.69"/>
<polygon fill="midnightblue" stroke="midnightblue" points="150.96,-30.29 149.89,-19.75 144.15,-28.65 150.96,-30.29"/>
</g>
<!-- Node3&#45;&gt;Node7 -->
<g id="edge6" class="edge">
<title>Node3&#45;&gt;Node7</title>
<path fill="none" stroke="midnightblue" d="M130,-56.32C121.81,-48.42 109.49,-36.55 99.53,-26.94"/>
<polygon fill="midnightblue" stroke="midnightblue" points="101.79,-24.26 92.16,-19.83 96.93,-29.29 101.79,-24.26"/>
</g>
<!-- Node9&#45;&gt;Node2 -->
<g id="edge12" class="edge">
<title>Node9&#45;&gt;Node2</title>
<path fill="none" stroke="midnightblue" d="M217.99,-168.32C205.47,-159.98 186.32,-147.21 171.53,-137.35"/>
<polygon fill="midnightblue" stroke="midnightblue" points="173.24,-134.29 162.98,-131.65 169.36,-140.11 173.24,-134.29"/>
</g>
<!-- Node9&#45;&gt;Node5 -->
<g id="edge13" class="edge">
<title>Node9&#45;&gt;Node5</title>
<path fill="none" stroke="midnightblue" d="M231.05,-168.08C231.21,-141.95 231.67,-65.21 231.89,-29.58"/>
<polygon fill="midnightblue" stroke="midnightblue" points="235.39,-29.59 231.95,-19.57 228.39,-29.55 235.39,-29.59"/>
</g>
<!-- Node9&#45;&gt;Node8 -->
<g id="edge14" class="edge">
<title>Node9&#45;&gt;Node8</title>
<path fill="none" stroke="midnightblue" d="M235.47,-168.37C244.8,-150.38 266.47,-108.55 278.87,-84.63"/>
<polygon fill="midnightblue" stroke="midnightblue" points="282.05,-86.08 283.55,-75.59 275.84,-82.86 282.05,-86.08"/>
</g>
</g>
</svg>
