<?xml version="1.0" encoding="UTF-8" standalone="no"?>
<!DOCTYPE svg PUBLIC "-//W3C//DTD SVG 1.1//EN"
 "http://www.w3.org/Graphics/SVG/1.1/DTD/svg11.dtd">
<!-- Generated by graphviz version 2.43.0 (0)
 -->
<!-- Title: psim/include/psim/sensor.h Pages: 1 -->
<svg width="1406pt" height="207pt"
 viewBox="0.00 0.00 1405.90 207.00" xmlns="http://www.w3.org/2000/svg" xmlns:xlink="http://www.w3.org/1999/xlink">
<g id="graph0" class="graph" transform="scale(1 1) rotate(0) translate(4 203)">
<title>psim/include/psim/sensor.h</title>
<!-- Node1 -->
<g id="node1" class="node">
<title>Node1</title>
<g id="a_node1"><a xlink:title=" ">
<polygon fill="#bfbfbf" stroke="black" points="885.9,-179.5 885.9,-198.5 1034.9,-198.5 1034.9,-179.5 885.9,-179.5"/>
<text text-anchor="middle" x="960.4" y="-186.5" font-family="Helvetica,sans-Serif" font-size="10.00">psim/include/psim/sensor.h</text>
</a>
</g>
</g>
<!-- Node2 -->
<g id="node2" class="node">
<title>Node2</title>
<g id="a_node2"><a xlink:href="../../d0/ddd/cell_8h.html" target="_top" xlink:title=" ">
<polygon fill="none" stroke="black" points="528.9,-118 528.9,-137 663.9,-137 663.9,-118 528.9,-118"/>
<text text-anchor="middle" x="596.4" y="-125" font-family="Helvetica,sans-Serif" font-size="10.00">psim/include/psim/cell.h</text>
</a>
</g>
</g>
<!-- Node1&#45;&gt;Node2 -->
<g id="edge1" class="edge">
<title>Node1&#45;&gt;Node2</title>
<path fill="none" stroke="midnightblue" d="M898.18,-177.83C827.78,-166.32 714.36,-147.78 648.45,-137.01"/>
<polygon fill="midnightblue" stroke="midnightblue" points="897.81,-181.32 908.24,-179.48 898.94,-174.41 897.81,-181.32"/>
</g>
<!-- Node3 -->
<g id="node3" class="node">
<title>Node3</title>
<g id="a_node3"><a xlink:href="../../dc/d51/model_8h.html" target="_top" xlink:title=" ">
<polygon fill="none" stroke="black" points="784.9,-56.5 784.9,-75.5 933.9,-75.5 933.9,-56.5 784.9,-56.5"/>
<text text-anchor="middle" x="859.4" y="-63.5" font-family="Helvetica,sans-Serif" font-size="10.00">psim/include/psim/model.h</text>
</a>
</g>
</g>
<!-- Node1&#45;&gt;Node3 -->
<g id="edge12" class="edge">
<title>Node1&#45;&gt;Node3</title>
<path fill="none" stroke="midnightblue" d="M925.83,-175.39C910.24,-168.11 892.8,-157.48 881.4,-143 865.41,-122.72 861.04,-91.24 859.84,-75.94"/>
<polygon fill="midnightblue" stroke="midnightblue" points="924.67,-178.7 935.23,-179.5 927.47,-172.29 924.67,-178.7"/>
</g>
<!-- Node4 -->
<g id="node4" class="node">
<title>Node4</title>
<g id="a_node4"><a xlink:href="../../d4/d02/inputManager_8cpp.html" target="_top" xlink:title=" ">
<polygon fill="none" stroke="black" points="263.4,-0.5 263.4,-19.5 411.4,-19.5 411.4,-0.5 263.4,-0.5"/>
<text text-anchor="middle" x="337.4" y="-7.5" font-family="Helvetica,sans-Serif" font-size="10.00">psim/src/inputManager.cpp</text>
</a>
</g>
</g>
<!-- Node1&#45;&gt;Node4 -->
<g id="edge22" class="edge">
<title>Node1&#45;&gt;Node4</title>
<path fill="none" stroke="midnightblue" d="M875.62,-184.43C652.38,-174.16 61.52,-141.03 4.4,-76 -1.47,-69.32 -1.45,-62.69 4.4,-56 37.31,-18.33 175.58,-10.94 263.26,-10.16"/>
<polygon fill="midnightblue" stroke="midnightblue" points="875.5,-187.93 885.65,-184.89 875.82,-180.94 875.5,-187.93"/>
</g>
<!-- Node7 -->
<g id="node7" class="node">
<title>Node7</title>
<g id="a_node7"><a xlink:href="../../d6/d68/cell_8cpp.html" target="_top" xlink:title=" ">
<polygon fill="none" stroke="black" points="668.4,-56.5 668.4,-75.5 766.4,-75.5 766.4,-56.5 668.4,-56.5"/>
<text text-anchor="middle" x="717.4" y="-63.5" font-family="Helvetica,sans-Serif" font-size="10.00">psim/src/cell.cpp</text>
</a>
</g>
</g>
<!-- Node1&#45;&gt;Node7 -->
<g id="edge21" class="edge">
<title>Node1&#45;&gt;Node7</title>
<path fill="none" stroke="midnightblue" d="M931.79,-175.34C912.15,-166.53 885.54,-154.37 862.4,-143 814.95,-119.69 759.9,-90.13 733.35,-75.71"/>
<polygon fill="midnightblue" stroke="midnightblue" points="930.54,-178.62 941.1,-179.5 933.4,-172.23 930.54,-178.62"/>
</g>
<!-- Node12 -->
<g id="node12" class="node">
<title>Node12</title>
<g id="a_node12"><a xlink:href="../../df/d92/outputManager_8h.html" target="_top" xlink:title=" ">
<polygon fill="none" stroke="black" points="890.4,-112.5 890.4,-142.5 1030.4,-142.5 1030.4,-112.5 890.4,-112.5"/>
<text text-anchor="start" x="898.4" y="-130.5" font-family="Helvetica,sans-Serif" font-size="10.00">psim/include/psim/output</text>
<text text-anchor="middle" x="960.4" y="-119.5" font-family="Helvetica,sans-Serif" font-size="10.00">Manager.h</text>
</a>
</g>
</g>
<!-- Node1&#45;&gt;Node12 -->
<g id="edge13" class="edge">
<title>Node1&#45;&gt;Node12</title>
<path fill="none" stroke="midnightblue" d="M960.4,-169.23C960.4,-160.59 960.4,-150.5 960.4,-142.52"/>
<polygon fill="midnightblue" stroke="midnightblue" points="956.9,-169.48 960.4,-179.48 963.9,-169.48 956.9,-169.48"/>
</g>
<!-- Node13 -->
<g id="node13" class="node">
<title>Node13</title>
<g id="a_node13"><a xlink:href="../../d4/d91/outputManager_8cpp.html" target="_top" xlink:title=" ">
<polygon fill="none" stroke="black" points="989.9,-56.5 989.9,-75.5 1144.9,-75.5 1144.9,-56.5 989.9,-56.5"/>
<text text-anchor="middle" x="1067.4" y="-63.5" font-family="Helvetica,sans-Serif" font-size="10.00">psim/src/outputManager.cpp</text>
</a>
</g>
</g>
<!-- Node1&#45;&gt;Node13 -->
<g id="edge23" class="edge">
<title>Node1&#45;&gt;Node13</title>
<path fill="none" stroke="midnightblue" d="M994.18,-175.18C1009.75,-167.81 1027.4,-157.16 1039.4,-143 1056.49,-122.83 1063.58,-91.3 1066.14,-75.97"/>
<polygon fill="midnightblue" stroke="midnightblue" points="992.53,-172.08 984.82,-179.35 995.38,-178.48 992.53,-172.08"/>
</g>
<!-- Node14 -->
<g id="node14" class="node">
<title>Node14</title>
<g id="a_node14"><a xlink:href="../../d6/d53/sensorInterpreter_8h.html" target="_top" xlink:title=" ">
<polygon fill="none" stroke="black" points="1086.9,-112.5 1086.9,-142.5 1227.9,-142.5 1227.9,-112.5 1086.9,-112.5"/>
<text text-anchor="start" x="1094.9" y="-130.5" font-family="Helvetica,sans-Serif" font-size="10.00">psim/include/psim/sensor</text>
<text text-anchor="middle" x="1157.4" y="-119.5" font-family="Helvetica,sans-Serif" font-size="10.00">Interpreter.h</text>
</a>
</g>
</g>
<!-- Node1&#45;&gt;Node14 -->
<g id="edge17" class="edge">
<title>Node1&#45;&gt;Node14</title>
<path fill="none" stroke="midnightblue" d="M998.53,-176.48C1030.65,-166.78 1076.7,-152.87 1110.97,-142.52"/>
<polygon fill="midnightblue" stroke="midnightblue" points="997.18,-173.23 988.62,-179.48 999.21,-179.93 997.18,-173.23"/>
</g>
<!-- Node15 -->
<g id="node15" class="node">
<title>Node15</title>
<g id="a_node15"><a xlink:href="../../d1/d97/sensorInterpreter_8cpp.html" target="_top" xlink:title=" ">
<polygon fill="none" stroke="black" points="1201.4,-56.5 1201.4,-75.5 1365.4,-75.5 1365.4,-56.5 1201.4,-56.5"/>
<text text-anchor="middle" x="1283.4" y="-63.5" font-family="Helvetica,sans-Serif" font-size="10.00">psim/src/sensorInterpreter.cpp</text>
</a>
</g>
</g>
<!-- Node1&#45;&gt;Node15 -->
<g id="edge25" class="edge">
<title>Node1&#45;&gt;Node15</title>
<path fill="none" stroke="midnightblue" d="M1045.17,-182.01C1114.78,-175.7 1206.7,-163.72 1237.4,-143 1261.94,-126.43 1275.54,-91.97 1280.81,-75.77"/>
<polygon fill="midnightblue" stroke="midnightblue" points="1044.73,-178.54 1035.07,-182.91 1045.34,-185.51 1044.73,-178.54"/>
</g>
<!-- Node16 -->
<g id="node16" class="node">
<title>Node16</title>
<g id="a_node16"><a xlink:href="../../da/dfa/sensor_8cpp.html" target="_top" xlink:title=" ">
<polygon fill="none" stroke="black" points="1284.9,-118 1284.9,-137 1397.9,-137 1397.9,-118 1284.9,-118"/>
<text text-anchor="middle" x="1341.4" y="-125" font-family="Helvetica,sans-Serif" font-size="10.00">psim/src/sensor.cpp</text>
</a>
</g>
</g>
<!-- Node1&#45;&gt;Node16 -->
<g id="edge24" class="edge">
<title>Node1&#45;&gt;Node16</title>
<path fill="none" stroke="midnightblue" d="M1037.01,-178.12C1099.87,-169.72 1191.1,-156.84 1270.4,-143 1280.56,-141.23 1291.49,-139.1 1301.67,-137.03"/>
<polygon fill="midnightblue" stroke="midnightblue" points="1036.24,-174.69 1026.79,-179.48 1037.16,-181.63 1036.24,-174.69"/>
</g>
<!-- Node2&#45;&gt;Node3 -->
<g id="edge2" class="edge">
<title>Node2&#45;&gt;Node3</title>
<path fill="none" stroke="midnightblue" d="M643.88,-115.76C694.89,-104.22 774.95,-86.11 821.78,-75.51"/>
<polygon fill="midnightblue" stroke="midnightblue" points="643.06,-112.35 634.08,-117.98 644.6,-119.18 643.06,-112.35"/>
</g>
<!-- Node6 -->
<g id="node6" class="node">
<title>Node6</title>
<g id="a_node6"><a xlink:href="../../d6/db4/model_8cpp.html" target="_top" xlink:title=" ">
<polygon fill="none" stroke="black" points="905.4,-0.5 905.4,-19.5 1017.4,-19.5 1017.4,-0.5 905.4,-0.5"/>
<text text-anchor="middle" x="961.4" y="-7.5" font-family="Helvetica,sans-Serif" font-size="10.00">psim/src/model.cpp</text>
</a>
</g>
</g>
<!-- Node2&#45;&gt;Node6 -->
<g id="edge7" class="edge">
<title>Node2&#45;&gt;Node6</title>
<path fill="none" stroke="midnightblue" d="M606.82,-109.09C617.73,-92.53 636.45,-68.38 659.4,-56 664.78,-53.1 819.26,-31.01 905.14,-18.89"/>
<polygon fill="midnightblue" stroke="midnightblue" points="603.69,-107.48 601.33,-117.81 609.62,-111.21 603.69,-107.48"/>
</g>
<!-- Node2&#45;&gt;Node7 -->
<g id="edge6" class="edge">
<title>Node2&#45;&gt;Node7</title>
<path fill="none" stroke="midnightblue" d="M622.79,-113.52C646.26,-101.98 679.89,-85.44 700.09,-75.51"/>
<polygon fill="midnightblue" stroke="midnightblue" points="621.16,-110.42 613.73,-117.98 624.25,-116.7 621.16,-110.42"/>
</g>
<!-- Node8 -->
<g id="node8" class="node">
<title>Node8</title>
<g id="a_node8"><a xlink:href="../../d1/d3b/modelSimulator_8cpp.html" target="_top" xlink:title=" ">
<polygon fill="none" stroke="black" points="318.4,-56.5 318.4,-75.5 476.4,-75.5 476.4,-56.5 318.4,-56.5"/>
<text text-anchor="middle" x="397.4" y="-63.5" font-family="Helvetica,sans-Serif" font-size="10.00">psim/src/modelSimulator.cpp</text>
</a>
</g>
</g>
<!-- Node2&#45;&gt;Node8 -->
<g id="edge8" class="edge">
<title>Node2&#45;&gt;Node8</title>
<path fill="none" stroke="midnightblue" d="M558.03,-115.03C519.35,-103.46 460.56,-85.88 425.85,-75.51"/>
<polygon fill="midnightblue" stroke="midnightblue" points="557.3,-118.46 567.88,-117.98 559.31,-111.76 557.3,-118.46"/>
</g>
<!-- Node9 -->
<g id="node9" class="node">
<title>Node9</title>
<g id="a_node9"><a xlink:href="../../d6/d7d/phonon_8cpp.html" target="_top" xlink:title=" ">
<polygon fill="none" stroke="black" points="494.9,-56.5 494.9,-75.5 611.9,-75.5 611.9,-56.5 494.9,-56.5"/>
<text text-anchor="middle" x="553.4" y="-63.5" font-family="Helvetica,sans-Serif" font-size="10.00">psim/src/phonon.cpp</text>
</a>
</g>
</g>
<!-- Node2&#45;&gt;Node9 -->
<g id="edge9" class="edge">
<title>Node2&#45;&gt;Node9</title>
<path fill="none" stroke="midnightblue" d="M584.35,-109.84C576.28,-98.67 565.99,-84.43 559.54,-75.51"/>
<polygon fill="midnightblue" stroke="midnightblue" points="581.54,-111.92 590.23,-117.98 587.21,-107.82 581.54,-111.92"/>
</g>
<!-- Node10 -->
<g id="node10" class="node">
<title>Node10</title>
<g id="a_node10"><a xlink:href="../../d5/d8a/phononBuilder_8cpp.html" target="_top" xlink:title=" ">
<polygon fill="none" stroke="black" points="13.9,-56.5 13.9,-75.5 164.9,-75.5 164.9,-56.5 13.9,-56.5"/>
<text text-anchor="middle" x="89.4" y="-63.5" font-family="Helvetica,sans-Serif" font-size="10.00">psim/src/phononBuilder.cpp</text>
</a>
</g>
</g>
<!-- Node2&#45;&gt;Node10 -->
<g id="edge10" class="edge">
<title>Node2&#45;&gt;Node10</title>
<path fill="none" stroke="midnightblue" d="M518.75,-117.39C421.6,-105.99 256.5,-86.61 161.84,-75.5"/>
<polygon fill="midnightblue" stroke="midnightblue" points="518.47,-120.88 528.81,-118.57 519.28,-113.93 518.47,-120.88"/>
</g>
<!-- Node11 -->
<g id="node11" class="node">
<title>Node11</title>
<g id="a_node11"><a xlink:href="../../d7/d13/surface_8cpp.html" target="_top" xlink:title=" ">
<polygon fill="none" stroke="black" points="182.9,-56.5 182.9,-75.5 299.9,-75.5 299.9,-56.5 182.9,-56.5"/>
<text text-anchor="middle" x="241.4" y="-63.5" font-family="Helvetica,sans-Serif" font-size="10.00">psim/src/surface.cpp</text>
</a>
</g>
</g>
<!-- Node2&#45;&gt;Node11 -->
<g id="edge11" class="edge">
<title>Node2&#45;&gt;Node11</title>
<path fill="none" stroke="midnightblue" d="M535.29,-116.26C466.6,-104.75 356.31,-86.26 292.16,-75.51"/>
<polygon fill="midnightblue" stroke="midnightblue" points="535.09,-119.77 545.53,-117.98 536.25,-112.87 535.09,-119.77"/>
</g>
<!-- Node3&#45;&gt;Node4 -->
<g id="edge3" class="edge">
<title>Node3&#45;&gt;Node4</title>
<path fill="none" stroke="midnightblue" d="M774.67,-55.93C640.25,-41.84 496.39,-27.14 411.42,-18.51"/>
<polygon fill="midnightblue" stroke="midnightblue" points="774.43,-59.42 784.74,-56.98 775.16,-52.46 774.43,-59.42"/>
</g>
<!-- Node5 -->
<g id="node5" class="node">
<title>Node5</title>
<g id="a_node5"><a xlink:href="../../df/d0a/main_8cpp.html" target="_top" xlink:title=" ">
<polygon fill="none" stroke="black" points="781.4,-0.5 781.4,-19.5 887.4,-19.5 887.4,-0.5 781.4,-0.5"/>
<text text-anchor="middle" x="834.4" y="-7.5" font-family="Helvetica,sans-Serif" font-size="10.00">psim/src/main.cpp</text>
</a>
</g>
</g>
<!-- Node3&#45;&gt;Node5 -->
<g id="edge4" class="edge">
<title>Node3&#45;&gt;Node5</title>
<path fill="none" stroke="midnightblue" d="M851.05,-46.98C846.81,-37.82 841.85,-27.09 838.45,-19.75"/>
<polygon fill="midnightblue" stroke="midnightblue" points="847.89,-48.48 855.27,-56.08 854.24,-45.54 847.89,-48.48"/>
</g>
<!-- Node3&#45;&gt;Node6 -->
<g id="edge5" class="edge">
<title>Node3&#45;&gt;Node6</title>
<path fill="none" stroke="midnightblue" d="M884.73,-51.59C903.59,-41.61 928.78,-28.27 945.05,-19.65"/>
<polygon fill="midnightblue" stroke="midnightblue" points="882.98,-48.55 875.78,-56.32 886.26,-54.74 882.98,-48.55"/>
</g>
<!-- Node12&#45;&gt;Node3 -->
<g id="edge14" class="edge">
<title>Node12&#45;&gt;Node3</title>
<path fill="none" stroke="midnightblue" d="M927.41,-107.07C909.41,-96.46 888.01,-83.86 874.09,-75.66"/>
<polygon fill="midnightblue" stroke="midnightblue" points="926.07,-110.34 936.46,-112.4 929.62,-104.31 926.07,-110.34"/>
</g>
<!-- Node12&#45;&gt;Node6 -->
<g id="edge15" class="edge">
<title>Node12&#45;&gt;Node6</title>
<path fill="none" stroke="midnightblue" d="M960.61,-102.21C960.83,-76.41 961.17,-36.99 961.32,-19.67"/>
<polygon fill="midnightblue" stroke="midnightblue" points="957.1,-102.31 960.52,-112.34 964.1,-102.37 957.1,-102.31"/>
</g>
<!-- Node12&#45;&gt;Node13 -->
<g id="edge16" class="edge">
<title>Node12&#45;&gt;Node13</title>
<path fill="none" stroke="midnightblue" d="M994.55,-107.51C1013.79,-96.81 1036.88,-83.97 1051.83,-75.66"/>
<polygon fill="midnightblue" stroke="midnightblue" points="992.79,-104.48 985.75,-112.4 996.19,-110.6 992.79,-104.48"/>
</g>
<!-- Node14&#45;&gt;Node3 -->
<g id="edge18" class="edge">
<title>Node14&#45;&gt;Node3</title>
<path fill="none" stroke="midnightblue" d="M1077.18,-110.48C1020.78,-99.22 947.53,-84.6 902,-75.51"/>
<polygon fill="midnightblue" stroke="midnightblue" points="1076.66,-113.95 1087.15,-112.47 1078.03,-107.08 1076.66,-113.95"/>
</g>
<!-- Node14&#45;&gt;Node6 -->
<g id="edge19" class="edge">
<title>Node14&#45;&gt;Node6</title>
<path fill="none" stroke="midnightblue" d="M1163.16,-102.2C1165.2,-87.24 1164.84,-68.6 1154.4,-56 1137.1,-35.14 1068.04,-22.91 1017.45,-16.59"/>
<polygon fill="midnightblue" stroke="midnightblue" points="1159.67,-101.83 1161.36,-112.29 1166.56,-103.06 1159.67,-101.83"/>
</g>
<!-- Node14&#45;&gt;Node15 -->
<g id="edge20" class="edge">
<title>Node14&#45;&gt;Node15</title>
<path fill="none" stroke="midnightblue" d="M1196.39,-108.08C1219.28,-97.28 1247.14,-84.12 1265.06,-75.66"/>
<polygon fill="midnightblue" stroke="midnightblue" points="1194.8,-104.96 1187.26,-112.4 1197.79,-111.29 1194.8,-104.96"/>
</g>
</g>
</svg>
