<?xml version="1.0" encoding="UTF-8" standalone="no"?>
<!DOCTYPE svg PUBLIC "-//W3C//DTD SVG 1.1//EN"
 "http://www.w3.org/Graphics/SVG/1.1/DTD/svg11.dtd">
<!-- Generated by graphviz version 2.43.0 (0)
 -->
<!-- Title: psim/include/psim/model.h Pages: 1 -->
<svg width="1806pt" height="364pt"
 viewBox="0.00 0.00 1805.50 364.00" xmlns="http://www.w3.org/2000/svg" xmlns:xlink="http://www.w3.org/1999/xlink">
<g id="graph0" class="graph" transform="scale(1 1) rotate(0) translate(4 360)">
<title>psim/include/psim/model.h</title>
<!-- Node1 -->
<g id="node1" class="node">
<title>Node1</title>
<g id="a_node1"><a xlink:title=" ">
<polygon fill="#bfbfbf" stroke="black" points="924.5,-336.5 924.5,-355.5 1073.5,-355.5 1073.5,-336.5 924.5,-336.5"/>
<text text-anchor="middle" x="999" y="-343.5" font-family="Helvetica,sans-Serif" font-size="10.00">psim/include/psim/model.h</text>
</a>
</g>
</g>
<!-- Node2 -->
<g id="node2" class="node">
<title>Node2</title>
<g id="a_node2"><a xlink:href="../../d0/ddd/cell_8h.html" target="_top" xlink:title=" ">
<polygon fill="none" stroke="black" points="542.5,-280.5 542.5,-299.5 585.5,-299.5 585.5,-280.5 542.5,-280.5"/>
<text text-anchor="middle" x="564" y="-287.5" font-family="Helvetica,sans-Serif" font-size="10.00">cell.h</text>
</a>
</g>
</g>
<!-- Node1&#45;&gt;Node2 -->
<g id="edge1" class="edge">
<title>Node1&#45;&gt;Node2</title>
<path fill="none" stroke="midnightblue" d="M930.07,-336.44C834.6,-324.59 665.95,-303.66 595.9,-294.96"/>
<polygon fill="midnightblue" stroke="midnightblue" points="596.27,-291.48 585.91,-293.72 595.4,-298.43 596.27,-291.48"/>
</g>
<!-- Node4 -->
<g id="node4" class="node">
<title>Node4</title>
<g id="a_node4"><a xlink:href="../../d4/d67/geometry_8h.html" target="_top" xlink:title=" ">
<polygon fill="none" stroke="black" points="370.5,-112.5 370.5,-131.5 441.5,-131.5 441.5,-112.5 370.5,-112.5"/>
<text text-anchor="middle" x="406" y="-119.5" font-family="Helvetica,sans-Serif" font-size="10.00">geometry.h</text>
</a>
</g>
</g>
<!-- Node1&#45;&gt;Node4 -->
<g id="edge66" class="edge">
<title>Node1&#45;&gt;Node4</title>
<path fill="none" stroke="midnightblue" d="M924.22,-342.54C761.85,-335.95 383.19,-313.36 278,-244 246.13,-222.99 214.76,-198.28 238,-168 252.84,-148.67 315.76,-135.82 360.23,-128.97"/>
<polygon fill="midnightblue" stroke="midnightblue" points="360.88,-132.41 370.25,-127.48 359.85,-125.49 360.88,-132.41"/>
</g>
<!-- Node7 -->
<g id="node7" class="node">
<title>Node7</title>
<g id="a_node7"><a xlink:title=" ">
<polygon fill="none" stroke="#bfbfbf" points="525,-56.5 525,-75.5 581,-75.5 581,-56.5 525,-56.5"/>
<text text-anchor="middle" x="553" y="-63.5" font-family="Helvetica,sans-Serif" font-size="10.00">optional</text>
</a>
</g>
</g>
<!-- Node1&#45;&gt;Node7 -->
<g id="edge76" class="edge">
<title>Node1&#45;&gt;Node7</title>
<path fill="none" stroke="midnightblue" d="M967.88,-336.48C939.91,-328.42 897.98,-315.28 863,-300 768.57,-258.75 740.42,-252.43 660,-188 620.41,-156.28 583.35,-108.98 565,-83.95"/>
<polygon fill="midnightblue" stroke="midnightblue" points="567.62,-81.58 558.92,-75.52 561.94,-85.68 567.62,-81.58"/>
</g>
<!-- Node9 -->
<g id="node9" class="node">
<title>Node9</title>
<g id="a_node9"><a xlink:title=" ">
<polygon fill="none" stroke="#bfbfbf" points="168,-56.5 168,-75.5 212,-75.5 212,-56.5 168,-56.5"/>
<text text-anchor="middle" x="190" y="-63.5" font-family="Helvetica,sans-Serif" font-size="10.00">string</text>
</a>
</g>
</g>
<!-- Node1&#45;&gt;Node9 -->
<g id="edge77" class="edge">
<title>Node1&#45;&gt;Node9</title>
<path fill="none" stroke="midnightblue" d="M924.39,-344.27C698.6,-341.07 38,-324.11 38,-235 38,-235 38,-235 38,-177 38,-118.22 113.52,-87.65 158.09,-74.73"/>
<polygon fill="midnightblue" stroke="midnightblue" points="159.19,-78.06 167.9,-72.03 157.33,-71.31 159.19,-78.06"/>
</g>
<!-- Node11 -->
<g id="node11" class="node">
<title>Node11</title>
<g id="a_node11"><a xlink:title=" ">
<polygon fill="none" stroke="#bfbfbf" points="586.5,-0.5 586.5,-19.5 631.5,-19.5 631.5,-0.5 586.5,-0.5"/>
<text text-anchor="middle" x="609" y="-7.5" font-family="Helvetica,sans-Serif" font-size="10.00">utility</text>
</a>
</g>
</g>
<!-- Node1&#45;&gt;Node11 -->
<g id="edge79" class="edge">
<title>Node1&#45;&gt;Node11</title>
<path fill="none" stroke="midnightblue" d="M924.24,-345.51C739.89,-346.09 267.62,-343.15 117,-300 59.81,-283.62 0,-294.49 0,-235 0,-235 0,-235 0,-121 0,-44.66 84.92,-74.43 159,-56 311.5,-18.05 500.62,-11.94 575.87,-11.07"/>
<polygon fill="midnightblue" stroke="midnightblue" points="576.16,-14.57 586.13,-10.98 576.1,-7.57 576.16,-14.57"/>
</g>
<!-- Node13 -->
<g id="node13" class="node">
<title>Node13</title>
<g id="a_node13"><a xlink:href="../../d3/d65/material_8h.html" target="_top" xlink:title=" ">
<polygon fill="none" stroke="black" points="965.5,-112.5 965.5,-131.5 1032.5,-131.5 1032.5,-112.5 965.5,-112.5"/>
<text text-anchor="middle" x="999" y="-119.5" font-family="Helvetica,sans-Serif" font-size="10.00">material.h</text>
</a>
</g>
</g>
<!-- Node1&#45;&gt;Node13 -->
<g id="edge47" class="edge">
<title>Node1&#45;&gt;Node13</title>
<path fill="none" stroke="midnightblue" d="M993.81,-336.21C980.44,-312.98 945.04,-247.71 933,-188 931.24,-179.29 928.85,-175.86 933,-168 940.42,-153.95 954.42,-143.47 967.62,-136.17"/>
<polygon fill="midnightblue" stroke="midnightblue" points="969.22,-139.28 976.54,-131.62 966.04,-133.04 969.22,-139.28"/>
</g>
<!-- Node15 -->
<g id="node15" class="node">
<title>Node15</title>
<g id="a_node15"><a xlink:title=" ">
<polygon fill="none" stroke="#bfbfbf" points="1167.5,-0.5 1167.5,-19.5 1220.5,-19.5 1220.5,-0.5 1167.5,-0.5"/>
<text text-anchor="middle" x="1194" y="-7.5" font-family="Helvetica,sans-Serif" font-size="10.00">cstddef</text>
</a>
</g>
</g>
<!-- Node1&#45;&gt;Node15 -->
<g id="edge72" class="edge">
<title>Node1&#45;&gt;Node15</title>
<path fill="none" stroke="midnightblue" d="M1073.7,-343.59C1207.47,-340.33 1482.4,-330.08 1573,-300 1624.37,-282.94 1676,-289.13 1676,-235 1676,-235 1676,-235 1676,-121 1676,-29.74 1343.45,-14.19 1230.8,-11.54"/>
<polygon fill="midnightblue" stroke="midnightblue" points="1230.67,-8.04 1220.6,-11.33 1230.52,-15.04 1230.67,-8.04"/>
</g>
<!-- Node16 -->
<g id="node16" class="node">
<title>Node16</title>
<g id="a_node16"><a xlink:title=" ">
<polygon fill="none" stroke="#bfbfbf" points="1256.5,-56.5 1256.5,-75.5 1303.5,-75.5 1303.5,-56.5 1256.5,-56.5"/>
<text text-anchor="middle" x="1280" y="-63.5" font-family="Helvetica,sans-Serif" font-size="10.00">vector</text>
</a>
</g>
</g>
<!-- Node1&#45;&gt;Node16 -->
<g id="edge80" class="edge">
<title>Node1&#45;&gt;Node16</title>
<path fill="none" stroke="midnightblue" d="M1073.54,-340.2C1191.51,-330.54 1408,-303.47 1408,-235 1408,-235 1408,-235 1408,-177 1408,-127.11 1351.37,-94.92 1313.44,-78.96"/>
<polygon fill="midnightblue" stroke="midnightblue" points="1314.36,-75.55 1303.78,-75.07 1311.75,-82.05 1314.36,-75.55"/>
</g>
<!-- Node18 -->
<g id="node18" class="node">
<title>Node18</title>
<g id="a_node18"><a xlink:href="../../d5/d2e/sensor_8h.html" target="_top" xlink:title=" ">
<polygon fill="none" stroke="black" points="1103.5,-224.5 1103.5,-243.5 1160.5,-243.5 1160.5,-224.5 1103.5,-224.5"/>
<text text-anchor="middle" x="1132" y="-231.5" font-family="Helvetica,sans-Serif" font-size="10.00">sensor.h</text>
</a>
</g>
</g>
<!-- Node1&#45;&gt;Node18 -->
<g id="edge67" class="edge">
<title>Node1&#45;&gt;Node18</title>
<path fill="none" stroke="midnightblue" d="M1009.44,-336.37C1031.97,-317.73 1085.41,-273.53 1113.7,-250.13"/>
<polygon fill="midnightblue" stroke="midnightblue" points="1116.14,-252.66 1121.61,-243.59 1111.68,-247.27 1116.14,-252.66"/>
</g>
<!-- Node20 -->
<g id="node20" class="node">
<title>Node20</title>
<g id="a_node20"><a xlink:title=" ">
<polygon fill="none" stroke="#bfbfbf" points="942,-168.5 942,-187.5 1000,-187.5 1000,-168.5 942,-168.5"/>
<text text-anchor="middle" x="971" y="-175.5" font-family="Helvetica,sans-Serif" font-size="10.00">memory</text>
</a>
</g>
</g>
<!-- Node1&#45;&gt;Node20 -->
<g id="edge74" class="edge">
<title>Node1&#45;&gt;Node20</title>
<path fill="none" stroke="midnightblue" d="M997.49,-336.08C993.09,-309.95 980.14,-233.21 974.13,-197.58"/>
<polygon fill="midnightblue" stroke="midnightblue" points="977.56,-196.85 972.45,-187.57 970.66,-198.01 977.56,-196.85"/>
</g>
<!-- Node21 -->
<g id="node21" class="node">
<title>Node21</title>
<g id="a_node21"><a xlink:title=" ">
<polygon fill="none" stroke="#bfbfbf" points="1018,-168.5 1018,-187.5 1066,-187.5 1066,-168.5 1018,-168.5"/>
<text text-anchor="middle" x="1042" y="-175.5" font-family="Helvetica,sans-Serif" font-size="10.00">mutex</text>
</a>
</g>
</g>
<!-- Node1&#45;&gt;Node21 -->
<g id="edge75" class="edge">
<title>Node1&#45;&gt;Node21</title>
<path fill="none" stroke="midnightblue" d="M1001.31,-336.08C1008.08,-309.95 1027.96,-233.21 1037.19,-197.58"/>
<polygon fill="midnightblue" stroke="midnightblue" points="1040.66,-198.13 1039.78,-187.57 1033.88,-196.37 1040.66,-198.13"/>
</g>
<!-- Node22 -->
<g id="node22" class="node">
<title>Node22</title>
<g id="a_node22"><a xlink:href="../../db/d26/modelSimulator_8h.html" target="_top" xlink:title=" ">
<polygon fill="none" stroke="black" points="668.5,-168.5 668.5,-187.5 771.5,-187.5 771.5,-168.5 668.5,-168.5"/>
<text text-anchor="middle" x="720" y="-175.5" font-family="Helvetica,sans-Serif" font-size="10.00">modelSimulator.h</text>
</a>
</g>
</g>
<!-- Node1&#45;&gt;Node22 -->
<g id="edge48" class="edge">
<title>Node1&#45;&gt;Node22</title>
<path fill="none" stroke="midnightblue" d="M977.65,-336.5C957.25,-328.1 925.88,-314.45 900,-300 839,-265.94 771.86,-217.68 739.53,-193.71"/>
<polygon fill="midnightblue" stroke="midnightblue" points="741.48,-190.79 731.37,-187.62 737.29,-196.4 741.48,-190.79"/>
</g>
<!-- Node26 -->
<g id="node26" class="node">
<title>Node26</title>
<g id="a_node26"><a xlink:href="../../df/d92/outputManager_8h.html" target="_top" xlink:title=" ">
<polygon fill="none" stroke="black" points="1436.5,-280.5 1436.5,-299.5 1535.5,-299.5 1535.5,-280.5 1436.5,-280.5"/>
<text text-anchor="middle" x="1486" y="-287.5" font-family="Helvetica,sans-Serif" font-size="10.00">outputManager.h</text>
</a>
</g>
</g>
<!-- Node1&#45;&gt;Node26 -->
<g id="edge59" class="edge">
<title>Node1&#45;&gt;Node26</title>
<path fill="none" stroke="midnightblue" d="M1073.59,-337.83C1158.16,-329.53 1300.15,-315.05 1422,-300 1423.46,-299.82 1424.94,-299.63 1426.43,-299.44"/>
<polygon fill="midnightblue" stroke="midnightblue" points="1426.94,-302.91 1436.41,-298.14 1426.04,-295.97 1426.94,-302.91"/>
</g>
<!-- Node28 -->
<g id="node28" class="node">
<title>Node28</title>
<g id="a_node28"><a xlink:title=" ">
<polygon fill="none" stroke="#bfbfbf" points="1580,-224.5 1580,-243.5 1648,-243.5 1648,-224.5 1580,-224.5"/>
<text text-anchor="middle" x="1614" y="-231.5" font-family="Helvetica,sans-Serif" font-size="10.00">filesystem</text>
</a>
</g>
</g>
<!-- Node1&#45;&gt;Node28 -->
<g id="edge73" class="edge">
<title>Node1&#45;&gt;Node28</title>
<path fill="none" stroke="midnightblue" d="M1073.72,-344.89C1203.05,-343.7 1462.67,-336.66 1545,-300 1568.63,-289.48 1589.25,-267.38 1601.65,-251.88"/>
<polygon fill="midnightblue" stroke="midnightblue" points="1604.65,-253.72 1607.96,-243.66 1599.1,-249.46 1604.65,-253.72"/>
</g>
<!-- Node29 -->
<g id="node29" class="node">
<title>Node29</title>
<g id="a_node29"><a xlink:href="../../d6/d53/sensorInterpreter_8h.html" target="_top" xlink:title=" ">
<polygon fill="none" stroke="black" points="1093.5,-280.5 1093.5,-299.5 1202.5,-299.5 1202.5,-280.5 1093.5,-280.5"/>
<text text-anchor="middle" x="1148" y="-287.5" font-family="Helvetica,sans-Serif" font-size="10.00">sensorInterpreter.h</text>
</a>
</g>
</g>
<!-- Node1&#45;&gt;Node29 -->
<g id="edge68" class="edge">
<title>Node1&#45;&gt;Node29</title>
<path fill="none" stroke="midnightblue" d="M1022.61,-336.44C1047.46,-327.44 1086.77,-313.19 1114.75,-303.05"/>
<polygon fill="midnightblue" stroke="midnightblue" points="1116.29,-306.21 1124.5,-299.52 1113.91,-299.63 1116.29,-306.21"/>
</g>
<!-- Node30 -->
<g id="node30" class="node">
<title>Node30</title>
<g id="a_node30"><a xlink:title=" ">
<polygon fill="none" stroke="#bfbfbf" points="1704.5,-280.5 1704.5,-299.5 1797.5,-299.5 1797.5,-280.5 1704.5,-280.5"/>
<text text-anchor="middle" x="1751" y="-287.5" font-family="Helvetica,sans-Serif" font-size="10.00">unordered_map</text>
</a>
</g>
</g>
<!-- Node1&#45;&gt;Node30 -->
<g id="edge78" class="edge">
<title>Node1&#45;&gt;Node30</title>
<path fill="none" stroke="midnightblue" d="M1073.56,-342.14C1200.43,-336.82 1466.3,-323.75 1690,-300 1691.46,-299.84 1692.95,-299.68 1694.44,-299.51"/>
<polygon fill="midnightblue" stroke="midnightblue" points="1694.93,-302.97 1704.42,-298.27 1694.07,-296.03 1694.93,-302.97"/>
</g>
<!-- Node3 -->
<g id="node3" class="node">
<title>Node3</title>
<g id="a_node3"><a xlink:href="../../d8/d77/compositeSurface_8h.html" target="_top" xlink:title=" ">
<polygon fill="none" stroke="black" points="385.5,-224.5 385.5,-243.5 498.5,-243.5 498.5,-224.5 385.5,-224.5"/>
<text text-anchor="middle" x="442" y="-231.5" font-family="Helvetica,sans-Serif" font-size="10.00">compositeSurface.h</text>
</a>
</g>
</g>
<!-- Node2&#45;&gt;Node3 -->
<g id="edge2" class="edge">
<title>Node2&#45;&gt;Node3</title>
<path fill="none" stroke="midnightblue" d="M544.67,-280.44C524.68,-271.6 493.26,-257.69 470.44,-247.59"/>
<polygon fill="midnightblue" stroke="midnightblue" points="471.8,-244.36 461.24,-243.52 468.97,-250.76 471.8,-244.36"/>
</g>
<!-- Node2&#45;&gt;Node4 -->
<g id="edge28" class="edge">
<title>Node2&#45;&gt;Node4</title>
<path fill="none" stroke="midnightblue" d="M542.2,-287.36C500.73,-283.67 408.18,-272.68 336,-244 292.57,-226.74 269.59,-228.91 247,-188 221.82,-142.41 304.98,-128.77 360.39,-124.71"/>
<polygon fill="midnightblue" stroke="midnightblue" points="360.63,-128.2 370.38,-124.06 360.17,-121.22 360.63,-128.2"/>
</g>
<!-- Node5 -->
<g id="node5" class="node">
<title>Node5</title>
<g id="a_node5"><a xlink:title=" ">
<polygon fill="none" stroke="#bfbfbf" points="863,-0.5 863,-19.5 905,-19.5 905,-0.5 863,-0.5"/>
<text text-anchor="middle" x="884" y="-7.5" font-family="Helvetica,sans-Serif" font-size="10.00">array</text>
</a>
</g>
</g>
<!-- Node2&#45;&gt;Node5 -->
<g id="edge41" class="edge">
<title>Node2&#45;&gt;Node5</title>
<path fill="none" stroke="midnightblue" d="M568.53,-280.23C580.43,-258.06 614.8,-199.29 660,-168 702.99,-138.24 727.91,-160.11 772,-132 816.07,-103.91 854.25,-54.34 872.52,-28.22"/>
<polygon fill="midnightblue" stroke="midnightblue" points="875.57,-29.97 878.33,-19.74 869.79,-26.01 875.57,-29.97"/>
</g>
<!-- Node6 -->
<g id="node6" class="node">
<title>Node6</title>
<g id="a_node6"><a xlink:title=" ">
<polygon fill="none" stroke="#bfbfbf" points="235.5,-56.5 235.5,-75.5 300.5,-75.5 300.5,-56.5 235.5,-56.5"/>
<text text-anchor="middle" x="268" y="-63.5" font-family="Helvetica,sans-Serif" font-size="10.00">exception</text>
</a>
</g>
</g>
<!-- Node2&#45;&gt;Node6 -->
<g id="edge43" class="edge">
<title>Node2&#45;&gt;Node6</title>
<path fill="none" stroke="midnightblue" d="M542.3,-287.74C483.48,-284.01 322.47,-271.47 278,-244 251.98,-227.93 247.33,-217.13 238,-188 226.38,-151.75 244.89,-108.2 257.61,-84.49"/>
<polygon fill="midnightblue" stroke="midnightblue" points="260.75,-86.05 262.6,-75.62 254.65,-82.62 260.75,-86.05"/>
</g>
<!-- Node2&#45;&gt;Node9 -->
<g id="edge45" class="edge">
<title>Node2&#45;&gt;Node9</title>
<path fill="none" stroke="midnightblue" d="M542.41,-288.18C479.71,-285.45 298.97,-275.02 250,-244 199.6,-212.07 193.17,-189.14 176,-132 171.28,-116.3 176.11,-98.01 181.34,-84.84"/>
<polygon fill="midnightblue" stroke="midnightblue" points="184.62,-86.09 185.45,-75.52 178.21,-83.26 184.62,-86.09"/>
</g>
<!-- Node10 -->
<g id="node10" class="node">
<title>Node10</title>
<g id="a_node10"><a xlink:title=" ">
<polygon fill="none" stroke="#bfbfbf" points="433.5,-56.5 433.5,-75.5 506.5,-75.5 506.5,-56.5 433.5,-56.5"/>
<text text-anchor="middle" x="470" y="-63.5" font-family="Helvetica,sans-Serif" font-size="10.00">string_view</text>
</a>
</g>
</g>
<!-- Node2&#45;&gt;Node10 -->
<g id="edge46" class="edge">
<title>Node2&#45;&gt;Node10</title>
<path fill="none" stroke="midnightblue" d="M563.44,-280.24C561.36,-253.28 552.37,-169.87 518,-112 511.05,-100.3 500.18,-89.75 490.54,-81.81"/>
<polygon fill="midnightblue" stroke="midnightblue" points="492.55,-78.93 482.51,-75.54 488.24,-84.45 492.55,-78.93"/>
</g>
<!-- Node2&#45;&gt;Node13 -->
<g id="edge29" class="edge">
<title>Node2&#45;&gt;Node13</title>
<path fill="none" stroke="midnightblue" d="M583.7,-280.46C631.17,-259.98 755.84,-206.94 862,-168 895.39,-155.75 933.91,-143.24 961.58,-134.53"/>
<polygon fill="midnightblue" stroke="midnightblue" points="962.76,-137.83 971.26,-131.5 960.67,-131.15 962.76,-137.83"/>
</g>
<!-- Node2&#45;&gt;Node15 -->
<g id="edge42" class="edge">
<title>Node2&#45;&gt;Node15</title>
<path fill="none" stroke="midnightblue" d="M585.52,-282.44C613.71,-273.82 664.66,-258.09 708,-244 808.38,-211.37 832.89,-201.44 933,-168 981.39,-151.84 997.12,-156.27 1042,-132 1097.12,-102.2 1152.29,-51.93 1178.41,-26.59"/>
<polygon fill="midnightblue" stroke="midnightblue" points="1180.87,-29.08 1185.55,-19.58 1175.96,-24.09 1180.87,-29.08"/>
</g>
<!-- Node17 -->
<g id="node17" class="node">
<title>Node17</title>
<g id="a_node17"><a xlink:title=" ">
<polygon fill="none" stroke="#bfbfbf" points="256,-168.5 256,-187.5 304,-187.5 304,-168.5 256,-168.5"/>
<text text-anchor="middle" x="280" y="-175.5" font-family="Helvetica,sans-Serif" font-size="10.00">iosfwd</text>
</a>
</g>
</g>
<!-- Node2&#45;&gt;Node17 -->
<g id="edge44" class="edge">
<title>Node2&#45;&gt;Node17</title>
<path fill="none" stroke="midnightblue" d="M542.46,-286.34C506.82,-281.4 433.88,-268.94 377,-244 347.19,-230.93 316.61,-208.68 297.96,-193.91"/>
<polygon fill="midnightblue" stroke="midnightblue" points="300.03,-191.08 290.05,-187.53 295.63,-196.53 300.03,-191.08"/>
</g>
<!-- Node2&#45;&gt;Node18 -->
<g id="edge30" class="edge">
<title>Node2&#45;&gt;Node18</title>
<path fill="none" stroke="midnightblue" d="M585.57,-286.95C670.57,-278.87 983.06,-249.16 1093.24,-238.69"/>
<polygon fill="midnightblue" stroke="midnightblue" points="1093.63,-242.16 1103.25,-237.73 1092.97,-235.2 1093.63,-242.16"/>
</g>
<!-- Node3&#45;&gt;Node4 -->
<g id="edge3" class="edge">
<title>Node3&#45;&gt;Node4</title>
<path fill="none" stroke="midnightblue" d="M439.1,-224.38C436.06,-215.33 431.16,-200.68 427,-188 421.86,-172.33 416.11,-154.5 411.92,-141.49"/>
<polygon fill="midnightblue" stroke="midnightblue" points="415.22,-140.29 408.83,-131.84 408.55,-142.43 415.22,-140.29"/>
</g>
<!-- Node3&#45;&gt;Node6 -->
<g id="edge23" class="edge">
<title>Node3&#45;&gt;Node6</title>
<path fill="none" stroke="midnightblue" d="M432.65,-224.08C404.54,-197.27 320.61,-117.19 284.65,-82.89"/>
<polygon fill="midnightblue" stroke="midnightblue" points="286.63,-79.94 276.98,-75.57 281.8,-85 286.63,-79.94"/>
</g>
<!-- Node3&#45;&gt;Node9 -->
<g id="edge25" class="edge">
<title>Node3&#45;&gt;Node9</title>
<path fill="none" stroke="midnightblue" d="M428.76,-224.4C414.85,-215.36 392.37,-200.72 373,-188 314.51,-149.59 245.72,-103.99 211.54,-81.3"/>
<polygon fill="midnightblue" stroke="midnightblue" points="213.12,-78.15 202.85,-75.54 209.25,-83.98 213.12,-78.15"/>
</g>
<!-- Node3&#45;&gt;Node10 -->
<g id="edge26" class="edge">
<title>Node3&#45;&gt;Node10</title>
<path fill="none" stroke="midnightblue" d="M463.81,-224.45C478.94,-217.22 497.95,-205.26 507,-188 525.26,-153.15 499.86,-107.83 482.95,-83.75"/>
<polygon fill="midnightblue" stroke="midnightblue" points="485.73,-81.63 476.99,-75.63 480.08,-85.77 485.73,-81.63"/>
</g>
<!-- Node12 -->
<g id="node12" class="node">
<title>Node12</title>
<g id="a_node12"><a xlink:href="../../d2/d69/surface_8h.html" target="_top" xlink:title=" ">
<polygon fill="none" stroke="black" points="436,-168.5 436,-187.5 498,-187.5 498,-168.5 436,-168.5"/>
<text text-anchor="middle" x="467" y="-175.5" font-family="Helvetica,sans-Serif" font-size="10.00">surface.h</text>
</a>
</g>
</g>
<!-- Node3&#45;&gt;Node12 -->
<g id="edge11" class="edge">
<title>Node3&#45;&gt;Node12</title>
<path fill="none" stroke="midnightblue" d="M446.13,-224.08C449.51,-216.77 454.42,-206.18 458.62,-197.1"/>
<polygon fill="midnightblue" stroke="midnightblue" points="461.92,-198.3 462.95,-187.75 455.57,-195.36 461.92,-198.3"/>
</g>
<!-- Node3&#45;&gt;Node16 -->
<g id="edge27" class="edge">
<title>Node3&#45;&gt;Node16</title>
<path fill="none" stroke="midnightblue" d="M498.76,-227.47C610.66,-215.79 867.09,-185.25 1077,-132 1137.84,-116.57 1207.18,-93.05 1247.05,-78.93"/>
<polygon fill="midnightblue" stroke="midnightblue" points="1248.28,-82.21 1256.52,-75.56 1245.93,-75.62 1248.28,-82.21"/>
</g>
<!-- Node3&#45;&gt;Node17 -->
<g id="edge24" class="edge">
<title>Node3&#45;&gt;Node17</title>
<path fill="none" stroke="midnightblue" d="M416.33,-224.44C388.68,-215.23 344.54,-200.51 314.01,-190.34"/>
<polygon fill="midnightblue" stroke="midnightblue" points="314.82,-186.92 304.23,-187.08 312.61,-193.56 314.82,-186.92"/>
</g>
<!-- Node4&#45;&gt;Node5 -->
<g id="edge4" class="edge">
<title>Node4&#45;&gt;Node5</title>
<path fill="none" stroke="midnightblue" d="M405.71,-112.21C405.76,-97.94 408.16,-69.95 425,-56 433.28,-49.14 751.09,-22.09 852.94,-13.58"/>
<polygon fill="midnightblue" stroke="midnightblue" points="853.24,-17.06 862.92,-12.75 852.66,-10.09 853.24,-17.06"/>
</g>
<!-- Node4&#45;&gt;Node6 -->
<g id="edge5" class="edge">
<title>Node4&#45;&gt;Node6</title>
<path fill="none" stroke="midnightblue" d="M384.13,-112.44C361.22,-103.48 325.02,-89.31 299.13,-79.18"/>
<polygon fill="midnightblue" stroke="midnightblue" points="300.35,-75.9 289.76,-75.52 297.8,-82.42 300.35,-75.9"/>
</g>
<!-- Node4&#45;&gt;Node7 -->
<g id="edge6" class="edge">
<title>Node4&#45;&gt;Node7</title>
<path fill="none" stroke="midnightblue" d="M429.29,-112.44C453.81,-103.44 492.6,-89.19 520.2,-79.05"/>
<polygon fill="midnightblue" stroke="midnightblue" points="521.64,-82.25 529.82,-75.52 519.22,-75.68 521.64,-82.25"/>
</g>
<!-- Node8 -->
<g id="node8" class="node">
<title>Node8</title>
<g id="a_node8"><a xlink:title=" ">
<polygon fill="none" stroke="#bfbfbf" points="694.5,-0.5 694.5,-19.5 751.5,-19.5 751.5,-0.5 694.5,-0.5"/>
<text text-anchor="middle" x="723" y="-7.5" font-family="Helvetica,sans-Serif" font-size="10.00">ostream</text>
</a>
</g>
</g>
<!-- Node4&#45;&gt;Node8 -->
<g id="edge7" class="edge">
<title>Node4&#45;&gt;Node8</title>
<path fill="none" stroke="midnightblue" d="M399.78,-112.28C390.86,-98.61 376.98,-72.05 391,-56 395.81,-50.49 597.89,-25.88 684.38,-15.57"/>
<polygon fill="midnightblue" stroke="midnightblue" points="684.81,-19.04 694.33,-14.38 683.99,-12.09 684.81,-19.04"/>
</g>
<!-- Node4&#45;&gt;Node9 -->
<g id="edge8" class="edge">
<title>Node4&#45;&gt;Node9</title>
<path fill="none" stroke="midnightblue" d="M371.77,-112.44C330.63,-102.16 262.12,-85.03 221.99,-75"/>
<polygon fill="midnightblue" stroke="midnightblue" points="222.75,-71.58 212.2,-72.55 221.05,-78.37 222.75,-71.58"/>
</g>
<!-- Node4&#45;&gt;Node10 -->
<g id="edge9" class="edge">
<title>Node4&#45;&gt;Node10</title>
<path fill="none" stroke="midnightblue" d="M416.28,-112.32C425.84,-104.26 440.28,-92.08 451.78,-82.37"/>
<polygon fill="midnightblue" stroke="midnightblue" points="454.14,-84.96 459.53,-75.83 449.63,-79.61 454.14,-84.96"/>
</g>
<!-- Node4&#45;&gt;Node11 -->
<g id="edge10" class="edge">
<title>Node4&#45;&gt;Node11</title>
<path fill="none" stroke="midnightblue" d="M389.95,-112.31C368.83,-99.79 336.24,-75.96 353,-56 381.11,-22.51 513.36,-13.94 575.97,-11.75"/>
<polygon fill="midnightblue" stroke="midnightblue" points="576.22,-15.24 586.11,-11.43 576,-8.25 576.22,-15.24"/>
</g>
<!-- Node12&#45;&gt;Node4 -->
<g id="edge12" class="edge">
<title>Node12&#45;&gt;Node4</title>
<path fill="none" stroke="midnightblue" d="M457.2,-168.32C448.18,-160.34 434.59,-148.31 423.68,-138.65"/>
<polygon fill="midnightblue" stroke="midnightblue" points="425.79,-135.84 415.98,-131.83 421.15,-141.08 425.79,-135.84"/>
</g>
<!-- Node12&#45;&gt;Node13 -->
<g id="edge13" class="edge">
<title>Node12&#45;&gt;Node13</title>
<path fill="none" stroke="midnightblue" d="M498.18,-174.01C571.45,-166.96 760.32,-148.63 918,-132 929.97,-130.74 942.93,-129.32 954.9,-127.99"/>
<polygon fill="midnightblue" stroke="midnightblue" points="955.57,-131.44 965.12,-126.85 954.79,-124.48 955.57,-131.44"/>
</g>
<!-- Node13&#45;&gt;Node5 -->
<g id="edge19" class="edge">
<title>Node13&#45;&gt;Node5</title>
<path fill="none" stroke="midnightblue" d="M989.98,-112.37C970.66,-93.89 925.08,-50.29 900.46,-26.74"/>
<polygon fill="midnightblue" stroke="midnightblue" points="902.63,-23.97 892.98,-19.59 897.79,-29.03 902.63,-23.97"/>
</g>
<!-- Node13&#45;&gt;Node11 -->
<g id="edge21" class="edge">
<title>Node13&#45;&gt;Node11</title>
<path fill="none" stroke="midnightblue" d="M965.26,-116.83C902.76,-108.87 771.39,-90.97 728,-76 723.04,-74.29 667.21,-43.4 633.81,-24.83"/>
<polygon fill="midnightblue" stroke="midnightblue" points="635.09,-21.53 624.65,-19.73 631.68,-27.65 635.09,-21.53"/>
</g>
<!-- Node14 -->
<g id="node14" class="node">
<title>Node14</title>
<g id="a_node14"><a xlink:href="../../d3/d34/phonon_8h.html" target="_top" xlink:title=" ">
<polygon fill="none" stroke="black" points="737,-56.5 737,-75.5 799,-75.5 799,-56.5 737,-56.5"/>
<text text-anchor="middle" x="768" y="-63.5" font-family="Helvetica,sans-Serif" font-size="10.00">phonon.h</text>
</a>
</g>
</g>
<!-- Node13&#45;&gt;Node14 -->
<g id="edge14" class="edge">
<title>Node13&#45;&gt;Node14</title>
<path fill="none" stroke="midnightblue" d="M965.41,-113.15C923.97,-103.46 853.53,-87 808.96,-76.58"/>
<polygon fill="midnightblue" stroke="midnightblue" points="809.57,-73.12 799.04,-74.26 807.98,-79.94 809.57,-73.12"/>
</g>
<!-- Node13&#45;&gt;Node15 -->
<g id="edge20" class="edge">
<title>Node13&#45;&gt;Node15</title>
<path fill="none" stroke="midnightblue" d="M1014.3,-112.37C1048.12,-93.29 1129.43,-47.42 1170.06,-24.51"/>
<polygon fill="midnightblue" stroke="midnightblue" points="1171.78,-27.55 1178.77,-19.59 1168.34,-21.46 1171.78,-27.55"/>
</g>
<!-- Node13&#45;&gt;Node16 -->
<g id="edge22" class="edge">
<title>Node13&#45;&gt;Node16</title>
<path fill="none" stroke="midnightblue" d="M1032.62,-114.54C1086.56,-104.17 1191.88,-83.93 1246.04,-73.53"/>
<polygon fill="midnightblue" stroke="midnightblue" points="1247,-76.9 1256.16,-71.58 1245.68,-70.03 1247,-76.9"/>
</g>
<!-- Node14&#45;&gt;Node5 -->
<g id="edge15" class="edge">
<title>Node14&#45;&gt;Node5</title>
<path fill="none" stroke="midnightblue" d="M786.38,-56.44C805.22,-47.68 834.73,-33.94 856.38,-23.86"/>
<polygon fill="midnightblue" stroke="midnightblue" points="858.12,-26.91 865.71,-19.52 855.16,-20.56 858.12,-26.91"/>
</g>
<!-- Node14&#45;&gt;Node8 -->
<g id="edge17" class="edge">
<title>Node14&#45;&gt;Node8</title>
<path fill="none" stroke="midnightblue" d="M760.57,-56.08C754.15,-48.38 744.69,-37.03 736.88,-27.65"/>
<polygon fill="midnightblue" stroke="midnightblue" points="739.38,-25.19 730.29,-19.75 734.01,-29.67 739.38,-25.19"/>
</g>
<!-- Node14&#45;&gt;Node11 -->
<g id="edge18" class="edge">
<title>Node14&#45;&gt;Node11</title>
<path fill="none" stroke="midnightblue" d="M742.81,-56.44C715.27,-47.09 671.09,-32.09 641.09,-21.9"/>
<polygon fill="midnightblue" stroke="midnightblue" points="642.1,-18.55 631.51,-18.64 639.85,-25.17 642.1,-18.55"/>
</g>
<!-- Node14&#45;&gt;Node15 -->
<g id="edge16" class="edge">
<title>Node14&#45;&gt;Node15</title>
<path fill="none" stroke="midnightblue" d="M799.41,-58.38C803.96,-57.52 808.59,-56.7 813,-56 938.51,-36.07 1088.56,-20.85 1156.86,-14.39"/>
<polygon fill="midnightblue" stroke="midnightblue" points="1157.48,-17.85 1167.11,-13.43 1156.82,-10.88 1157.48,-17.85"/>
</g>
<!-- Node18&#45;&gt;Node5 -->
<g id="edge36" class="edge">
<title>Node18&#45;&gt;Node5</title>
<path fill="none" stroke="midnightblue" d="M1128.56,-224.07C1123.31,-211.05 1112.46,-186.38 1099,-168 1048.02,-98.37 957.03,-46.79 911.51,-23.97"/>
<polygon fill="midnightblue" stroke="midnightblue" points="913.04,-20.82 902.52,-19.54 909.95,-27.1 913.04,-20.82"/>
</g>
<!-- Node18&#45;&gt;Node13 -->
<g id="edge31" class="edge">
<title>Node18&#45;&gt;Node13</title>
<path fill="none" stroke="midnightblue" d="M1125.73,-224.22C1115.96,-210.94 1096.02,-185.45 1075,-168 1059.95,-155.51 1041.04,-144.3 1025.84,-136.19"/>
<polygon fill="midnightblue" stroke="midnightblue" points="1027.41,-133.06 1016.93,-131.56 1024.19,-139.27 1027.41,-133.06"/>
</g>
<!-- Node18&#45;&gt;Node15 -->
<g id="edge37" class="edge">
<title>Node18&#45;&gt;Node15</title>
<path fill="none" stroke="midnightblue" d="M1160.74,-233.51C1197.02,-232.5 1258.82,-224.98 1293,-188 1333.28,-144.43 1346.73,-104.82 1313,-56 1294.63,-29.41 1258.39,-18.52 1230.7,-14.06"/>
<polygon fill="midnightblue" stroke="midnightblue" points="1230.95,-10.56 1220.57,-12.65 1229.99,-17.5 1230.95,-10.56"/>
</g>
<!-- Node18&#45;&gt;Node16 -->
<g id="edge40" class="edge">
<title>Node18&#45;&gt;Node16</title>
<path fill="none" stroke="midnightblue" d="M1160.76,-233.05C1194.18,-231.4 1248.18,-223.02 1275,-188 1297.72,-158.34 1291.31,-111.55 1285.26,-85.71"/>
<polygon fill="midnightblue" stroke="midnightblue" points="1288.57,-84.55 1282.69,-75.73 1281.79,-86.29 1288.57,-84.55"/>
</g>
<!-- Node19 -->
<g id="node19" class="node">
<title>Node19</title>
<g id="a_node19"><a xlink:href="../../da/d16/sensorController_8h.html" target="_top" xlink:title=" ">
<polygon fill="none" stroke="black" points="1160.5,-168.5 1160.5,-187.5 1265.5,-187.5 1265.5,-168.5 1160.5,-168.5"/>
<text text-anchor="middle" x="1213" y="-175.5" font-family="Helvetica,sans-Serif" font-size="10.00">sensorController.h</text>
</a>
</g>
</g>
<!-- Node18&#45;&gt;Node19 -->
<g id="edge32" class="edge">
<title>Node18&#45;&gt;Node19</title>
<path fill="none" stroke="midnightblue" d="M1145.01,-224.32C1157.53,-215.98 1176.68,-203.21 1191.47,-193.35"/>
<polygon fill="midnightblue" stroke="midnightblue" points="1193.64,-196.11 1200.02,-187.65 1189.76,-190.29 1193.64,-196.11"/>
</g>
<!-- Node18&#45;&gt;Node20 -->
<g id="edge38" class="edge">
<title>Node18&#45;&gt;Node20</title>
<path fill="none" stroke="midnightblue" d="M1106.49,-224.44C1079.4,-215.36 1036.41,-200.94 1006.13,-190.78"/>
<polygon fill="midnightblue" stroke="midnightblue" points="1006.99,-187.38 996.39,-187.52 1004.76,-194.01 1006.99,-187.38"/>
</g>
<!-- Node18&#45;&gt;Node21 -->
<g id="edge39" class="edge">
<title>Node18&#45;&gt;Node21</title>
<path fill="none" stroke="midnightblue" d="M1117.54,-224.32C1103.5,-215.9 1081.95,-202.97 1065.46,-193.07"/>
<polygon fill="midnightblue" stroke="midnightblue" points="1066.8,-189.8 1056.42,-187.65 1063.2,-195.8 1066.8,-189.8"/>
</g>
<!-- Node19&#45;&gt;Node13 -->
<g id="edge33" class="edge">
<title>Node19&#45;&gt;Node13</title>
<path fill="none" stroke="midnightblue" d="M1179.09,-168.44C1142.15,-159.12 1082.95,-144.18 1042.58,-134"/>
<polygon fill="midnightblue" stroke="midnightblue" points="1043.3,-130.57 1032.75,-131.52 1041.59,-137.36 1043.3,-130.57"/>
</g>
<!-- Node19&#45;&gt;Node15 -->
<g id="edge34" class="edge">
<title>Node19&#45;&gt;Node15</title>
<path fill="none" stroke="midnightblue" d="M1211.98,-168.08C1208.99,-141.95 1200.2,-65.21 1196.13,-29.58"/>
<polygon fill="midnightblue" stroke="midnightblue" points="1199.6,-29.11 1194.98,-19.57 1192.64,-29.9 1199.6,-29.11"/>
</g>
<!-- Node19&#45;&gt;Node16 -->
<g id="edge35" class="edge">
<title>Node19&#45;&gt;Node16</title>
<path fill="none" stroke="midnightblue" d="M1218.26,-168.37C1229.27,-150.3 1254.92,-108.18 1269.46,-84.31"/>
<polygon fill="midnightblue" stroke="midnightblue" points="1272.55,-85.95 1274.77,-75.59 1266.58,-82.31 1272.55,-85.95"/>
</g>
<!-- Node22&#45;&gt;Node5 -->
<g id="edge54" class="edge">
<title>Node22&#45;&gt;Node5</title>
<path fill="none" stroke="midnightblue" d="M737.82,-168.46C775.98,-149.75 863.4,-104.56 879,-76 886.71,-61.88 887.4,-43.39 886.49,-29.74"/>
<polygon fill="midnightblue" stroke="midnightblue" points="889.95,-29.22 885.46,-19.62 882.99,-29.92 889.95,-29.22"/>
</g>
<!-- Node22&#45;&gt;Node7 -->
<g id="edge56" class="edge">
<title>Node22&#45;&gt;Node7</title>
<path fill="none" stroke="midnightblue" d="M706.9,-168.37C678.24,-149.49 609.76,-104.38 574.61,-81.24"/>
<polygon fill="midnightblue" stroke="midnightblue" points="576.32,-78.17 566.04,-75.59 572.47,-84.02 576.32,-78.17"/>
</g>
<!-- Node22&#45;&gt;Node15 -->
<g id="edge55" class="edge">
<title>Node22&#45;&gt;Node15</title>
<path fill="none" stroke="midnightblue" d="M771.88,-168.88C812.43,-161.66 869.8,-149.52 918,-132 936.31,-125.34 939.53,-120.62 957,-112 1009.06,-86.31 1021.58,-78.73 1075,-56 1103.28,-43.97 1135.96,-31.72 1159.92,-23.05"/>
<polygon fill="midnightblue" stroke="midnightblue" points="1161.39,-26.24 1169.61,-19.56 1159.02,-19.66 1161.39,-26.24"/>
</g>
<!-- Node22&#45;&gt;Node16 -->
<g id="edge58" class="edge">
<title>Node22&#45;&gt;Node16</title>
<path fill="none" stroke="midnightblue" d="M771.82,-169.86C862.04,-157.41 1038.78,-132.95 1042,-132 1062.21,-126.03 1065.07,-118.85 1085,-112 1140.23,-93.02 1207,-79.56 1246.35,-72.56"/>
<polygon fill="midnightblue" stroke="midnightblue" points="1247.2,-75.96 1256.45,-70.8 1245.99,-69.07 1247.2,-75.96"/>
</g>
<!-- Node23 -->
<g id="node23" class="node">
<title>Node23</title>
<g id="a_node23"><a xlink:href="../../db/dd3/phononBuilder_8h.html" target="_top" xlink:title=" ">
<polygon fill="none" stroke="black" points="667.5,-112.5 667.5,-131.5 762.5,-131.5 762.5,-112.5 667.5,-112.5"/>
<text text-anchor="middle" x="715" y="-119.5" font-family="Helvetica,sans-Serif" font-size="10.00">phononBuilder.h</text>
</a>
</g>
</g>
<!-- Node22&#45;&gt;Node23 -->
<g id="edge49" class="edge">
<title>Node22&#45;&gt;Node23</title>
<path fill="none" stroke="midnightblue" d="M719.17,-168.08C718.52,-161.01 717.58,-150.86 716.76,-141.99"/>
<polygon fill="midnightblue" stroke="midnightblue" points="720.22,-141.39 715.81,-131.75 713.25,-142.03 720.22,-141.39"/>
</g>
<!-- Node25 -->
<g id="node25" class="node">
<title>Node25</title>
<g id="a_node25"><a xlink:title=" ">
<polygon fill="none" stroke="#bfbfbf" points="857.5,-112.5 857.5,-131.5 908.5,-131.5 908.5,-112.5 857.5,-112.5"/>
<text text-anchor="middle" x="883" y="-119.5" font-family="Helvetica,sans-Serif" font-size="10.00">variant</text>
</a>
</g>
</g>
<!-- Node22&#45;&gt;Node25 -->
<g id="edge57" class="edge">
<title>Node22&#45;&gt;Node25</title>
<path fill="none" stroke="midnightblue" d="M745.83,-168.44C773.25,-159.36 816.78,-144.94 847.43,-134.78"/>
<polygon fill="midnightblue" stroke="midnightblue" points="848.9,-137.98 857.29,-131.52 846.7,-131.34 848.9,-137.98"/>
</g>
<!-- Node23&#45;&gt;Node11 -->
<g id="edge53" class="edge">
<title>Node23&#45;&gt;Node11</title>
<path fill="none" stroke="midnightblue" d="M686.1,-112.38C667.35,-105.39 643.76,-93.75 629,-76 618.04,-62.82 613.08,-43.68 610.84,-29.58"/>
<polygon fill="midnightblue" stroke="midnightblue" points="614.3,-29.05 609.56,-19.57 607.35,-29.93 614.3,-29.05"/>
</g>
<!-- Node23&#45;&gt;Node14 -->
<g id="edge50" class="edge">
<title>Node23&#45;&gt;Node14</title>
<path fill="none" stroke="midnightblue" d="M723.75,-112.08C731.47,-104.22 742.9,-92.57 752.22,-83.08"/>
<polygon fill="midnightblue" stroke="midnightblue" points="754.9,-85.34 759.41,-75.75 749.91,-80.44 754.9,-85.34"/>
</g>
<!-- Node23&#45;&gt;Node15 -->
<g id="edge51" class="edge">
<title>Node23&#45;&gt;Node15</title>
<path fill="none" stroke="midnightblue" d="M739.2,-112.45C778.27,-98.89 857.88,-72.35 927,-56 1008.32,-36.77 1105.43,-22.55 1157.21,-15.65"/>
<polygon fill="midnightblue" stroke="midnightblue" points="1157.78,-19.11 1167.24,-14.33 1156.87,-12.17 1157.78,-19.11"/>
</g>
<!-- Node24 -->
<g id="node24" class="node">
<title>Node24</title>
<g id="a_node24"><a xlink:title=" ">
<polygon fill="none" stroke="#bfbfbf" points="637.5,-56.5 637.5,-75.5 680.5,-75.5 680.5,-56.5 637.5,-56.5"/>
<text text-anchor="middle" x="659" y="-63.5" font-family="Helvetica,sans-Serif" font-size="10.00">stack</text>
</a>
</g>
</g>
<!-- Node23&#45;&gt;Node24 -->
<g id="edge52" class="edge">
<title>Node23&#45;&gt;Node24</title>
<path fill="none" stroke="midnightblue" d="M706,-112.32C697.81,-104.42 685.49,-92.55 675.53,-82.94"/>
<polygon fill="midnightblue" stroke="midnightblue" points="677.79,-80.26 668.16,-75.83 672.93,-85.29 677.79,-80.26"/>
</g>
<!-- Node26&#45;&gt;Node9 -->
<g id="edge64" class="edge">
<title>Node26&#45;&gt;Node9</title>
<path fill="none" stroke="midnightblue" d="M1436.42,-287.23C1224.34,-279.65 403.17,-249.95 377,-244 315.66,-230.05 292.22,-231.73 247,-188 217.19,-159.17 201.23,-111.69 194.31,-85.6"/>
<polygon fill="midnightblue" stroke="midnightblue" points="197.62,-84.41 191.81,-75.55 190.83,-86.1 197.62,-84.41"/>
</g>
<!-- Node26&#45;&gt;Node15 -->
<g id="edge62" class="edge">
<title>Node26&#45;&gt;Node15</title>
<path fill="none" stroke="midnightblue" d="M1498.14,-280.34C1508.8,-272.13 1523.97,-258.87 1533,-244 1548.62,-218.27 1552,-209.1 1552,-179 1552,-179 1552,-179 1552,-121 1552,-54.31 1322.15,-23.87 1230.79,-14.4"/>
<polygon fill="midnightblue" stroke="midnightblue" points="1230.92,-10.9 1220.62,-13.38 1230.21,-17.86 1230.92,-10.9"/>
</g>
<!-- Node26&#45;&gt;Node16 -->
<g id="edge65" class="edge">
<title>Node26&#45;&gt;Node16</title>
<path fill="none" stroke="midnightblue" d="M1481.49,-280.18C1477,-271.2 1470.06,-256.83 1465,-244 1442.36,-186.6 1465.8,-155.45 1422,-112 1393.05,-83.28 1345.89,-72.87 1313.94,-69.11"/>
<polygon fill="midnightblue" stroke="midnightblue" points="1314.04,-65.6 1303.73,-68.07 1313.33,-72.56 1314.04,-65.6"/>
</g>
<!-- Node26&#45;&gt;Node18 -->
<g id="edge60" class="edge">
<title>Node26&#45;&gt;Node18</title>
<path fill="none" stroke="midnightblue" d="M1436.41,-281.43C1365.21,-270.57 1235.5,-250.79 1170.82,-240.92"/>
<polygon fill="midnightblue" stroke="midnightblue" points="1171.06,-237.42 1160.65,-239.37 1170.01,-244.34 1171.06,-237.42"/>
</g>
<!-- Node27 -->
<g id="node27" class="node">
<title>Node27</title>
<g id="a_node27"><a xlink:title=" ">
<polygon fill="none" stroke="#bfbfbf" points="1474,-224.5 1474,-243.5 1524,-243.5 1524,-224.5 1474,-224.5"/>
<text text-anchor="middle" x="1499" y="-231.5" font-family="Helvetica,sans-Serif" font-size="10.00">chrono</text>
</a>
</g>
</g>
<!-- Node26&#45;&gt;Node27 -->
<g id="edge61" class="edge">
<title>Node26&#45;&gt;Node27</title>
<path fill="none" stroke="midnightblue" d="M1488.15,-280.08C1489.87,-272.93 1492.35,-262.64 1494.5,-253.69"/>
<polygon fill="midnightblue" stroke="midnightblue" points="1497.96,-254.29 1496.89,-243.75 1491.15,-252.65 1497.96,-254.29"/>
</g>
<!-- Node26&#45;&gt;Node28 -->
<g id="edge63" class="edge">
<title>Node26&#45;&gt;Node28</title>
<path fill="none" stroke="midnightblue" d="M1506.28,-280.44C1527.35,-271.56 1560.52,-257.56 1584.49,-247.45"/>
<polygon fill="midnightblue" stroke="midnightblue" points="1585.96,-250.63 1593.81,-243.52 1583.24,-244.18 1585.96,-250.63"/>
</g>
<!-- Node29&#45;&gt;Node15 -->
<g id="edge70" class="edge">
<title>Node29&#45;&gt;Node15</title>
<path fill="none" stroke="midnightblue" d="M1180.1,-280.48C1203.82,-273.21 1236.17,-261.19 1261,-244 1311.94,-208.73 1328.1,-191.88 1344,-132 1352.78,-98.95 1354.89,-81.41 1332,-56 1306.24,-27.4 1262.09,-16.91 1230.67,-13.1"/>
<polygon fill="midnightblue" stroke="midnightblue" points="1230.86,-9.6 1220.55,-12.05 1230.13,-16.56 1230.86,-9.6"/>
</g>
<!-- Node29&#45;&gt;Node16 -->
<g id="edge71" class="edge">
<title>Node29&#45;&gt;Node16</title>
<path fill="none" stroke="midnightblue" d="M1169.43,-280.4C1201.74,-266.25 1262.4,-234.89 1293,-188 1311.65,-159.42 1312.28,-145.11 1304,-112 1301.56,-102.25 1296.56,-92.29 1291.76,-84.23"/>
<polygon fill="midnightblue" stroke="midnightblue" points="1294.69,-82.32 1286.37,-75.77 1288.79,-86.08 1294.69,-82.32"/>
</g>
<!-- Node29&#45;&gt;Node18 -->
<g id="edge69" class="edge">
<title>Node29&#45;&gt;Node18</title>
<path fill="none" stroke="midnightblue" d="M1145.36,-280.08C1143.21,-272.85 1140.12,-262.41 1137.45,-253.4"/>
<polygon fill="midnightblue" stroke="midnightblue" points="1140.79,-252.34 1134.59,-243.75 1134.08,-254.33 1140.79,-252.34"/>
</g>
</g>
</svg>
