<?xml version="1.0" encoding="UTF-8" standalone="no"?>
<!DOCTYPE svg PUBLIC "-//W3C//DTD SVG 1.1//EN"
 "http://www.w3.org/Graphics/SVG/1.1/DTD/svg11.dtd">
<!-- Generated by graphviz version 2.43.0 (0)
 -->
<!-- Title: Utils::urand Pages: 1 -->
<svg width="480pt" height="407pt"
 viewBox="0.00 0.00 480.00 407.00" xmlns="http://www.w3.org/2000/svg" xmlns:xlink="http://www.w3.org/1999/xlink">
<g id="graph0" class="graph" transform="scale(1 1) rotate(0) translate(4 403)">
<title>Utils::urand</title>
<!-- Node1 -->
<g id="node1" class="node">
<title>Node1</title>
<g id="a_node1"><a xlink:title=" ">
<polygon fill="#bfbfbf" stroke="black" points="399,-180.5 399,-199.5 472,-199.5 472,-180.5 399,-180.5"/>
<text text-anchor="middle" x="435.5" y="-187.5" font-family="Helvetica,sans-Serif" font-size="10.00">Utils::urand</text>
</a>
</g>
</g>
<!-- Node2 -->
<g id="node2" class="node">
<title>Node2</title>
<g id="a_node2"><a xlink:href="../../de/d10/classSurface.html#abbc414c1f041996a070427dfb109b64b" target="_top" xlink:title=" ">
<polygon fill="none" stroke="black" points="187,-359.5 187,-378.5 363,-378.5 363,-359.5 187,-359.5"/>
<text text-anchor="middle" x="275" y="-366.5" font-family="Helvetica,sans-Serif" font-size="10.00">Surface::boundaryHandlePhonon</text>
</a>
</g>
</g>
<!-- Node1&#45;&gt;Node2 -->
<g id="edge1" class="edge">
<title>Node1&#45;&gt;Node2</title>
<path fill="none" stroke="midnightblue" d="M428.94,-209.68C419.72,-239.14 398.64,-294.9 363,-329 348.11,-343.25 327.23,-353.08 309.66,-359.43"/>
<polygon fill="midnightblue" stroke="midnightblue" points="432.39,-210.36 431.9,-199.77 425.69,-208.35 432.39,-210.36"/>
</g>
<!-- Node4 -->
<g id="node4" class="node">
<title>Node4</title>
<g id="a_node4"><a xlink:href="../../d3/d89/classMaterial.html#a47a4c76d7347a7f1b8fdbe326a791437" target="_top" xlink:title=" ">
<polygon fill="none" stroke="black" points="220,-300.5 220,-319.5 330,-319.5 330,-300.5 220,-300.5"/>
<text text-anchor="middle" x="275" y="-307.5" font-family="Helvetica,sans-Serif" font-size="10.00">Material::freqIndex</text>
</a>
</g>
</g>
<!-- Node1&#45;&gt;Node4 -->
<g id="edge3" class="edge">
<title>Node1&#45;&gt;Node4</title>
<path fill="none" stroke="midnightblue" d="M426.5,-208.71C415.62,-231.8 393.89,-270.54 363,-291 353.2,-297.49 341.56,-301.8 330.02,-304.65"/>
<polygon fill="midnightblue" stroke="midnightblue" points="429.69,-210.14 430.61,-199.59 423.31,-207.26 429.69,-210.14"/>
</g>
<!-- Node8 -->
<g id="node8" class="node">
<title>Node8</title>
<g id="a_node8"><a xlink:href="../../d3/d89/classMaterial.html#ac743170a5d48432446df49fc1aba9222" target="_top" xlink:title=" ">
<polygon fill="none" stroke="black" points="225,-262.5 225,-281.5 325,-281.5 325,-262.5 225,-262.5"/>
<text text-anchor="middle" x="275" y="-269.5" font-family="Helvetica,sans-Serif" font-size="10.00">Material::getFreq</text>
</a>
</g>
</g>
<!-- Node1&#45;&gt;Node8 -->
<g id="edge7" class="edge">
<title>Node1&#45;&gt;Node8</title>
<path fill="none" stroke="midnightblue" d="M419.39,-207.56C406.01,-221.96 385.21,-241.76 363,-253 351.41,-258.87 338.06,-262.93 325.36,-265.74"/>
<polygon fill="midnightblue" stroke="midnightblue" points="422.28,-209.58 426.36,-199.8 417.07,-204.9 422.28,-209.58"/>
</g>
<!-- Node9 -->
<g id="node9" class="node">
<title>Node9</title>
<g id="a_node9"><a xlink:href="../../d4/de9/classEmitSurface.html#ae8230dafb6932cb7065b0e5af112c83c" target="_top" xlink:title=" ">
<polygon fill="none" stroke="black" points="196,-224.5 196,-243.5 354,-243.5 354,-224.5 196,-224.5"/>
<text text-anchor="middle" x="275" y="-231.5" font-family="Helvetica,sans-Serif" font-size="10.00">EmitSurface::getPhononTime</text>
</a>
</g>
</g>
<!-- Node1&#45;&gt;Node9 -->
<g id="edge8" class="edge">
<title>Node1&#45;&gt;Node9</title>
<path fill="none" stroke="midnightblue" d="M400.18,-202.95C388.48,-207.11 375.26,-211.53 363,-215 350.65,-218.49 337.17,-221.72 324.58,-224.48"/>
<polygon fill="midnightblue" stroke="midnightblue" points="401.38,-206.24 409.59,-199.55 399,-199.66 401.38,-206.24"/>
</g>
<!-- Node10 -->
<g id="node10" class="node">
<title>Node10</title>
<g id="a_node10"><a xlink:href="../../df/dce/classModelSimulator.html#ae128a539d7e7d919d6ac237caadb7238" target="_top" xlink:title=" ">
<polygon fill="none" stroke="black" points="199,-175 199,-205 351,-205 351,-175 199,-175"/>
<text text-anchor="start" x="207" y="-193" font-family="Helvetica,sans-Serif" font-size="10.00">ModelSimulator::initPhonon</text>
<text text-anchor="middle" x="275" y="-182" font-family="Helvetica,sans-Serif" font-size="10.00">Builders</text>
</a>
</g>
</g>
<!-- Node1&#45;&gt;Node10 -->
<g id="edge9" class="edge">
<title>Node1&#45;&gt;Node10</title>
<path fill="none" stroke="midnightblue" d="M388.58,-190C376.9,-190 364.04,-190 351.32,-190"/>
<polygon fill="midnightblue" stroke="midnightblue" points="388.93,-193.5 398.93,-190 388.93,-186.5 388.93,-193.5"/>
</g>
<!-- Node12 -->
<g id="node12" class="node">
<title>Node12</title>
<g id="a_node12"><a xlink:href="../../df/da6/classCellOriginBuilder.html#a7ff9a60a3deb8870d9bc860ad362800c" target="_top" xlink:title=" ">
<polygon fill="none" stroke="black" points="222.5,-126 222.5,-156 327.5,-156 327.5,-126 222.5,-126"/>
<text text-anchor="start" x="230.5" y="-144" font-family="Helvetica,sans-Serif" font-size="10.00">CellOriginBuilder::</text>
<text text-anchor="middle" x="275" y="-133" font-family="Helvetica,sans-Serif" font-size="10.00">operator()</text>
</a>
</g>
</g>
<!-- Node1&#45;&gt;Node12 -->
<g id="edge11" class="edge">
<title>Node1&#45;&gt;Node12</title>
<path fill="none" stroke="midnightblue" d="M397.34,-177.18C386.32,-173.47 374.2,-169.49 363,-166 351.6,-162.45 339.3,-158.8 327.64,-155.43"/>
<polygon fill="midnightblue" stroke="midnightblue" points="396.5,-180.59 407.09,-180.48 398.74,-173.96 396.5,-180.59"/>
</g>
<!-- Node13 -->
<g id="node13" class="node">
<title>Node13</title>
<g id="a_node13"><a xlink:href="../../d5/dea/classSurfaceOriginBuilder.html#a984740642c40ced8bcbde51f6230c191" target="_top" xlink:title=" ">
<polygon fill="none" stroke="black" points="216.5,-77 216.5,-107 333.5,-107 333.5,-77 216.5,-77"/>
<text text-anchor="start" x="224.5" y="-95" font-family="Helvetica,sans-Serif" font-size="10.00">SurfaceOriginBuilder</text>
<text text-anchor="middle" x="275" y="-84" font-family="Helvetica,sans-Serif" font-size="10.00">::operator()</text>
</a>
</g>
</g>
<!-- Node1&#45;&gt;Node13 -->
<g id="edge12" class="edge">
<title>Node1&#45;&gt;Node13</title>
<path fill="none" stroke="midnightblue" d="M421.41,-172.07C408.38,-155.47 386.91,-131.26 363,-117 354.09,-111.69 343.99,-107.45 333.91,-104.09"/>
<polygon fill="midnightblue" stroke="midnightblue" points="418.9,-174.56 427.74,-180.4 424.47,-170.32 418.9,-174.56"/>
</g>
<!-- Node15 -->
<g id="node15" class="node">
<title>Node15</title>
<g id="a_node15"><a xlink:href="../../de/d10/classSurface.html#ad808e7802208d491c81820c4dc70d6fb" target="_top" xlink:title=" ">
<polygon fill="none" stroke="black" points="208.5,-38.5 208.5,-57.5 341.5,-57.5 341.5,-38.5 208.5,-38.5"/>
<text text-anchor="middle" x="275" y="-45.5" font-family="Helvetica,sans-Serif" font-size="10.00">Surface::redirectPhonon</text>
</a>
</g>
</g>
<!-- Node1&#45;&gt;Node15 -->
<g id="edge14" class="edge">
<title>Node1&#45;&gt;Node15</title>
<path fill="none" stroke="midnightblue" d="M428.72,-170.47C419.5,-142.91 398.78,-93.07 363,-67 356.63,-62.36 349.34,-58.81 341.76,-56.11"/>
<polygon fill="midnightblue" stroke="midnightblue" points="425.43,-171.69 431.79,-180.16 432.1,-169.57 425.43,-171.69"/>
</g>
<!-- Node16 -->
<g id="node16" class="node">
<title>Node16</title>
<g id="a_node16"><a xlink:href="../../d2/db2/classPhonon.html#af54ce885a0f054d12360ae0a842d70f2" target="_top" xlink:title=" ">
<polygon fill="none" stroke="black" points="203.5,-0.5 203.5,-19.5 346.5,-19.5 346.5,-0.5 203.5,-0.5"/>
<text text-anchor="middle" x="275" y="-7.5" font-family="Helvetica,sans-Serif" font-size="10.00">Phonon::setRandDirection</text>
</a>
</g>
</g>
<!-- Node1&#45;&gt;Node16 -->
<g id="edge15" class="edge">
<title>Node1&#45;&gt;Node16</title>
<path fill="none" stroke="midnightblue" d="M431.55,-170.01C425.36,-135.63 407.73,-65.46 363,-29 358.09,-24.99 352.52,-21.79 346.62,-19.22"/>
<polygon fill="midnightblue" stroke="midnightblue" points="428.15,-170.91 433.23,-180.2 435.05,-169.77 428.15,-170.91"/>
</g>
<!-- Node3 -->
<g id="node3" class="node">
<title>Node3</title>
<g id="a_node3"><a xlink:href="../../d4/de9/classEmitSurface.html#a339ed2e1f42d27a9aeb0ba7371d79dd4" target="_top" xlink:title=" ">
<polygon fill="none" stroke="black" points="0,-379.5 0,-398.5 151,-398.5 151,-379.5 0,-379.5"/>
<text text-anchor="middle" x="75.5" y="-386.5" font-family="Helvetica,sans-Serif" font-size="10.00">EmitSurface::handlePhonon</text>
</a>
</g>
</g>
<!-- Node2&#45;&gt;Node3 -->
<g id="edge2" class="edge">
<title>Node2&#45;&gt;Node3</title>
<path fill="none" stroke="midnightblue" d="M176.73,-378.85C168.14,-379.72 159.53,-380.59 151.17,-381.44"/>
<polygon fill="midnightblue" stroke="midnightblue" points="177.2,-382.32 186.8,-377.83 176.5,-375.36 177.2,-382.32"/>
</g>
<!-- Node5 -->
<g id="node5" class="node">
<title>Node5</title>
<g id="a_node5"><a xlink:href="../../df/d30/classSensorController.html#a5c663fffce448dbf127661cc4d92e76c" target="_top" xlink:title=" ">
<polygon fill="none" stroke="black" points="10,-330 10,-360 141,-360 141,-330 10,-330"/>
<text text-anchor="start" x="18" y="-348" font-family="Helvetica,sans-Serif" font-size="10.00">SensorController::initial</text>
<text text-anchor="middle" x="75.5" y="-337" font-family="Helvetica,sans-Serif" font-size="10.00">Update</text>
</a>
</g>
</g>
<!-- Node4&#45;&gt;Node5 -->
<g id="edge4" class="edge">
<title>Node4&#45;&gt;Node5</title>
<path fill="none" stroke="midnightblue" d="M210.32,-321.28C188.17,-325.21 163.31,-329.62 141.09,-333.55"/>
<polygon fill="midnightblue" stroke="midnightblue" points="211.06,-324.71 220.29,-319.52 209.84,-317.82 211.06,-324.71"/>
</g>
<!-- Node6 -->
<g id="node6" class="node">
<title>Node6</title>
<g id="a_node6"><a xlink:href="../../df/d30/classSensorController.html#ac03baa5b610a000e027a2c73aa301b63" target="_top" xlink:title=" ">
<polygon fill="none" stroke="black" points="7,-281 7,-311 144,-311 144,-281 7,-281"/>
<text text-anchor="start" x="15" y="-299" font-family="Helvetica,sans-Serif" font-size="10.00">SensorController::scatter</text>
<text text-anchor="middle" x="75.5" y="-288" font-family="Helvetica,sans-Serif" font-size="10.00">Update</text>
</a>
</g>
</g>
<!-- Node4&#45;&gt;Node6 -->
<g id="edge5" class="edge">
<title>Node4&#45;&gt;Node6</title>
<path fill="none" stroke="midnightblue" d="M209.66,-305.44C188.65,-303.95 165.25,-302.29 144.01,-300.79"/>
<polygon fill="midnightblue" stroke="midnightblue" points="209.55,-308.94 219.77,-306.16 210.04,-301.96 209.55,-308.94"/>
</g>
<!-- Node7 -->
<g id="node7" class="node">
<title>Node7</title>
<g id="a_node7"><a xlink:href="../../da/deb/classTransientController.html#ac722072017a3d92763fd100ed390b386" target="_top" xlink:title=" ">
<polygon fill="none" stroke="black" points="21,-232 21,-262 130,-262 130,-232 21,-232"/>
<text text-anchor="start" x="29" y="-250" font-family="Helvetica,sans-Serif" font-size="10.00">TransientController</text>
<text text-anchor="middle" x="75.5" y="-239" font-family="Helvetica,sans-Serif" font-size="10.00">::scatterUpdate</text>
</a>
</g>
</g>
<!-- Node4&#45;&gt;Node7 -->
<g id="edge6" class="edge">
<title>Node4&#45;&gt;Node7</title>
<path fill="none" stroke="midnightblue" d="M210.06,-298.12C202.2,-296.05 194.35,-293.69 187,-291 170.01,-284.79 167.63,-279.12 151,-272 142.72,-268.45 133.76,-265.08 125.02,-262.01"/>
<polygon fill="midnightblue" stroke="midnightblue" points="209.43,-301.57 219.98,-300.58 211.12,-294.78 209.43,-301.57"/>
</g>
<!-- Node11 -->
<g id="node11" class="node">
<title>Node11</title>
<g id="a_node11"><a xlink:href="../../d6/d18/classModel.html#a380396b521b2f20964bde3431ec4e9c6" target="_top" xlink:title=" ">
<polygon fill="none" stroke="black" points="15,-180.5 15,-199.5 136,-199.5 136,-180.5 15,-180.5"/>
<text text-anchor="middle" x="75.5" y="-187.5" font-family="Helvetica,sans-Serif" font-size="10.00">Model::runSimulation</text>
</a>
</g>
</g>
<!-- Node10&#45;&gt;Node11 -->
<g id="edge10" class="edge">
<title>Node10&#45;&gt;Node11</title>
<path fill="none" stroke="midnightblue" d="M188.48,-190C170.85,-190 152.65,-190 136.18,-190"/>
<polygon fill="midnightblue" stroke="midnightblue" points="188.77,-193.5 198.77,-190 188.77,-186.5 188.77,-193.5"/>
</g>
<!-- Node14 -->
<g id="node14" class="node">
<title>Node14</title>
<g id="a_node14"><a xlink:href="../../d0/dc3/classPhasorBuilder.html#aa4570d09d81cd359dd66cc389cd55104" target="_top" xlink:title=" ">
<polygon fill="none" stroke="black" points="6,-82.5 6,-101.5 145,-101.5 145,-82.5 6,-82.5"/>
<text text-anchor="middle" x="75.5" y="-89.5" font-family="Helvetica,sans-Serif" font-size="10.00">PhasorBuilder::operator()</text>
</a>
</g>
</g>
<!-- Node13&#45;&gt;Node14 -->
<g id="edge13" class="edge">
<title>Node13&#45;&gt;Node14</title>
<path fill="none" stroke="midnightblue" d="M206.2,-92C186.45,-92 164.85,-92 145.05,-92"/>
<polygon fill="midnightblue" stroke="midnightblue" points="206.34,-95.5 216.34,-92 206.34,-88.5 206.34,-95.5"/>
</g>
</g>
</svg>
