<?xml version="1.0" encoding="UTF-8" standalone="no"?>
<!DOCTYPE svg PUBLIC "-//W3C//DTD SVG 1.1//EN"
 "http://www.w3.org/Graphics/SVG/1.1/DTD/svg11.dtd">
<!-- Generated by graphviz version 2.43.0 (0)
 -->
<!-- Title: psim/src/outputManager.cpp Pages: 1 -->
<svg width="1334pt" height="364pt"
 viewBox="0.00 0.00 1334.00 364.00" xmlns="http://www.w3.org/2000/svg" xmlns:xlink="http://www.w3.org/1999/xlink">
<g id="graph0" class="graph" transform="scale(1 1) rotate(0) translate(4 360)">
<title>psim/src/outputManager.cpp</title>
<!-- Node1 -->
<g id="node1" class="node">
<title>Node1</title>
<g id="a_node1"><a xlink:title=" ">
<polygon fill="#bfbfbf" stroke="black" points="693.5,-336.5 693.5,-355.5 848.5,-355.5 848.5,-336.5 693.5,-336.5"/>
<text text-anchor="middle" x="771" y="-343.5" font-family="Helvetica,sans-Serif" font-size="10.00">psim/src/outputManager.cpp</text>
</a>
</g>
</g>
<!-- Node2 -->
<g id="node2" class="node">
<title>Node2</title>
<g id="a_node2"><a xlink:href="../../df/d92/outputManager_8h.html" target="_top" xlink:title=" ">
<polygon fill="none" stroke="black" points="408,-280.5 408,-299.5 534,-299.5 534,-280.5 408,-280.5"/>
<text text-anchor="middle" x="471" y="-287.5" font-family="Helvetica,sans-Serif" font-size="10.00">psim/outputManager.h</text>
</a>
</g>
</g>
<!-- Node1&#45;&gt;Node2 -->
<g id="edge1" class="edge">
<title>Node1&#45;&gt;Node2</title>
<path fill="none" stroke="midnightblue" d="M723.46,-336.44C670.47,-326.9 584.8,-311.48 528.18,-301.29"/>
<polygon fill="midnightblue" stroke="midnightblue" points="528.78,-297.84 518.31,-299.52 527.54,-304.73 528.78,-297.84"/>
</g>
<!-- Node3 -->
<g id="node3" class="node">
<title>Node3</title>
<g id="a_node3"><a xlink:href="../../d5/d2e/sensor_8h.html" target="_top" xlink:title=" ">
<polygon fill="none" stroke="black" points="247.5,-224.5 247.5,-243.5 304.5,-243.5 304.5,-224.5 247.5,-224.5"/>
<text text-anchor="middle" x="276" y="-231.5" font-family="Helvetica,sans-Serif" font-size="10.00">sensor.h</text>
</a>
</g>
</g>
<!-- Node1&#45;&gt;Node3 -->
<g id="edge27" class="edge">
<title>Node1&#45;&gt;Node3</title>
<path fill="none" stroke="midnightblue" d="M693.08,-345.17C580.76,-344.1 380.11,-336.86 319,-300 301.3,-289.32 289.42,-268.25 282.71,-252.98"/>
<polygon fill="midnightblue" stroke="midnightblue" points="285.88,-251.49 278.88,-243.54 279.39,-254.12 285.88,-251.49"/>
</g>
<!-- Node8 -->
<g id="node8" class="node">
<title>Node8</title>
<g id="a_node8"><a xlink:title=" ">
<polygon fill="none" stroke="#bfbfbf" points="446.5,-0.5 446.5,-19.5 503.5,-19.5 503.5,-0.5 446.5,-0.5"/>
<text text-anchor="middle" x="475" y="-7.5" font-family="Helvetica,sans-Serif" font-size="10.00">ostream</text>
</a>
</g>
</g>
<!-- Node1&#45;&gt;Node8 -->
<g id="edge39" class="edge">
<title>Node1&#45;&gt;Node8</title>
<path fill="none" stroke="midnightblue" d="M715.09,-336.46C693.53,-330.14 670.98,-319.14 658,-300 653.01,-292.64 657.78,-288.89 658,-280 659.11,-235.07 663,-223.94 663,-179 663,-179 663,-179 663,-121 663,-52.44 568.69,-25.81 513.67,-16.12"/>
<polygon fill="midnightblue" stroke="midnightblue" points="513.99,-12.62 503.55,-14.45 512.85,-19.53 513.99,-12.62"/>
</g>
<!-- Node12 -->
<g id="node12" class="node">
<title>Node12</title>
<g id="a_node12"><a xlink:title=" ">
<polygon fill="none" stroke="#bfbfbf" points="347,-168.5 347,-187.5 405,-187.5 405,-168.5 347,-168.5"/>
<text text-anchor="middle" x="376" y="-175.5" font-family="Helvetica,sans-Serif" font-size="10.00">memory</text>
</a>
</g>
</g>
<!-- Node1&#45;&gt;Node12 -->
<g id="edge37" class="edge">
<title>Node1&#45;&gt;Node12</title>
<path fill="none" stroke="midnightblue" d="M693.43,-342.27C599.65,-337.83 448.26,-326.69 399,-300 370.43,-284.52 363.11,-274.53 352,-244 346.11,-227.81 354.32,-209.39 362.7,-196.3"/>
<polygon fill="midnightblue" stroke="midnightblue" points="365.77,-198.02 368.63,-187.82 360.03,-194.01 365.77,-198.02"/>
</g>
<!-- Node14 -->
<g id="node14" class="node">
<title>Node14</title>
<g id="a_node14"><a xlink:title=" ">
<polygon fill="none" stroke="#bfbfbf" points="499,-224.5 499,-243.5 549,-243.5 549,-224.5 499,-224.5"/>
<text text-anchor="middle" x="524" y="-231.5" font-family="Helvetica,sans-Serif" font-size="10.00">chrono</text>
</a>
</g>
</g>
<!-- Node1&#45;&gt;Node14 -->
<g id="edge29" class="edge">
<title>Node1&#45;&gt;Node14</title>
<path fill="none" stroke="midnightblue" d="M719.95,-336.43C686.59,-329.53 642.74,-317.98 607,-300 581.38,-287.11 556.03,-265.65 540.22,-250.94"/>
<polygon fill="midnightblue" stroke="midnightblue" points="542.52,-248.3 532.86,-243.94 537.69,-253.37 542.52,-248.3"/>
</g>
<!-- Node15 -->
<g id="node15" class="node">
<title>Node15</title>
<g id="a_node15"><a xlink:title=" ">
<polygon fill="none" stroke="#bfbfbf" points="567,-224.5 567,-243.5 635,-243.5 635,-224.5 567,-224.5"/>
<text text-anchor="middle" x="601" y="-231.5" font-family="Helvetica,sans-Serif" font-size="10.00">filesystem</text>
</a>
</g>
</g>
<!-- Node1&#45;&gt;Node15 -->
<g id="edge32" class="edge">
<title>Node1&#45;&gt;Node15</title>
<path fill="none" stroke="midnightblue" d="M699.65,-336.49C673.42,-330.16 645.22,-319.15 625,-300 612.19,-287.87 606.18,-268.32 603.39,-253.82"/>
<polygon fill="midnightblue" stroke="midnightblue" points="606.84,-253.25 601.81,-243.92 599.93,-254.35 606.84,-253.25"/>
</g>
<!-- Node17 -->
<g id="node17" class="node">
<title>Node17</title>
<g id="a_node17"><a xlink:title=" ">
<polygon fill="none" stroke="#bfbfbf" points="667,-280.5 667,-299.5 731,-299.5 731,-280.5 667,-280.5"/>
<text text-anchor="middle" x="699" y="-287.5" font-family="Helvetica,sans-Serif" font-size="10.00">algorithm</text>
</a>
</g>
</g>
<!-- Node1&#45;&gt;Node17 -->
<g id="edge28" class="edge">
<title>Node1&#45;&gt;Node17</title>
<path fill="none" stroke="midnightblue" d="M759.43,-336.32C748.58,-328.18 732.12,-315.84 719.12,-306.09"/>
<polygon fill="midnightblue" stroke="midnightblue" points="720.88,-303.03 710.78,-299.83 716.68,-308.63 720.88,-303.03"/>
</g>
<!-- Node18 -->
<g id="node18" class="node">
<title>Node18</title>
<g id="a_node18"><a xlink:title=" ">
<polygon fill="none" stroke="#bfbfbf" points="749,-280.5 749,-299.5 793,-299.5 793,-280.5 749,-280.5"/>
<text text-anchor="middle" x="771" y="-287.5" font-family="Helvetica,sans-Serif" font-size="10.00">ctime</text>
</a>
</g>
</g>
<!-- Node1&#45;&gt;Node18 -->
<g id="edge30" class="edge">
<title>Node1&#45;&gt;Node18</title>
<path fill="none" stroke="midnightblue" d="M771,-336.08C771,-329.01 771,-318.86 771,-309.99"/>
<polygon fill="midnightblue" stroke="midnightblue" points="774.5,-309.75 771,-299.75 767.5,-309.75 774.5,-309.75"/>
</g>
<!-- Node19 -->
<g id="node19" class="node">
<title>Node19</title>
<g id="a_node19"><a xlink:title=" ">
<polygon fill="none" stroke="#bfbfbf" points="811,-280.5 811,-299.5 875,-299.5 875,-280.5 811,-280.5"/>
<text text-anchor="middle" x="843" y="-287.5" font-family="Helvetica,sans-Serif" font-size="10.00">execution</text>
</a>
</g>
</g>
<!-- Node1&#45;&gt;Node19 -->
<g id="edge31" class="edge">
<title>Node1&#45;&gt;Node19</title>
<path fill="none" stroke="midnightblue" d="M782.57,-336.32C793.42,-328.18 809.88,-315.84 822.88,-306.09"/>
<polygon fill="midnightblue" stroke="midnightblue" points="825.32,-308.63 831.22,-299.83 821.12,-303.03 825.32,-308.63"/>
</g>
<!-- Node20 -->
<g id="node20" class="node">
<title>Node20</title>
<g id="a_node20"><a xlink:title=" ">
<polygon fill="none" stroke="#bfbfbf" points="893.5,-280.5 893.5,-299.5 948.5,-299.5 948.5,-280.5 893.5,-280.5"/>
<text text-anchor="middle" x="921" y="-287.5" font-family="Helvetica,sans-Serif" font-size="10.00">fstream</text>
</a>
</g>
</g>
<!-- Node1&#45;&gt;Node20 -->
<g id="edge33" class="edge">
<title>Node1&#45;&gt;Node20</title>
<path fill="none" stroke="midnightblue" d="M794.77,-336.44C819.89,-327.4 859.71,-313.06 887.9,-302.92"/>
<polygon fill="midnightblue" stroke="midnightblue" points="889.12,-306.2 897.34,-299.52 886.75,-299.61 889.12,-306.2"/>
</g>
<!-- Node21 -->
<g id="node21" class="node">
<title>Node21</title>
<g id="a_node21"><a xlink:title=" ">
<polygon fill="none" stroke="#bfbfbf" points="966.5,-280.5 966.5,-299.5 1031.5,-299.5 1031.5,-280.5 966.5,-280.5"/>
<text text-anchor="middle" x="999" y="-287.5" font-family="Helvetica,sans-Serif" font-size="10.00">functional</text>
</a>
</g>
</g>
<!-- Node1&#45;&gt;Node21 -->
<g id="edge34" class="edge">
<title>Node1&#45;&gt;Node21</title>
<path fill="none" stroke="midnightblue" d="M807.13,-336.44C847.7,-326.83 913.47,-311.26 956.49,-301.07"/>
<polygon fill="midnightblue" stroke="midnightblue" points="957.44,-304.44 966.37,-298.73 955.83,-297.63 957.44,-304.44"/>
</g>
<!-- Node22 -->
<g id="node22" class="node">
<title>Node22</title>
<g id="a_node22"><a xlink:title=" ">
<polygon fill="none" stroke="#bfbfbf" points="1050,-280.5 1050,-299.5 1106,-299.5 1106,-280.5 1050,-280.5"/>
<text text-anchor="middle" x="1078" y="-287.5" font-family="Helvetica,sans-Serif" font-size="10.00">iomanip</text>
</a>
</g>
</g>
<!-- Node1&#45;&gt;Node22 -->
<g id="edge35" class="edge">
<title>Node1&#45;&gt;Node22</title>
<path fill="none" stroke="midnightblue" d="M829.69,-336.49C882.29,-328.58 961.76,-315.91 1039.77,-300.13"/>
<polygon fill="midnightblue" stroke="midnightblue" points="1040.67,-303.52 1049.77,-298.09 1039.27,-296.66 1040.67,-303.52"/>
</g>
<!-- Node23 -->
<g id="node23" class="node">
<title>Node23</title>
<g id="a_node23"><a xlink:title=" ">
<polygon fill="none" stroke="#bfbfbf" points="1124.5,-280.5 1124.5,-299.5 1177.5,-299.5 1177.5,-280.5 1124.5,-280.5"/>
<text text-anchor="middle" x="1151" y="-287.5" font-family="Helvetica,sans-Serif" font-size="10.00">iterator</text>
</a>
</g>
</g>
<!-- Node1&#45;&gt;Node23 -->
<g id="edge36" class="edge">
<title>Node1&#45;&gt;Node23</title>
<path fill="none" stroke="midnightblue" d="M848.6,-337.42C916.26,-330.23 1017.19,-318.08 1114.34,-299.92"/>
<polygon fill="midnightblue" stroke="midnightblue" points="1115.16,-303.33 1124.34,-298.03 1113.86,-296.45 1115.16,-303.33"/>
</g>
<!-- Node24 -->
<g id="node24" class="node">
<title>Node24</title>
<g id="a_node24"><a xlink:title=" ">
<polygon fill="none" stroke="#bfbfbf" points="1196,-280.5 1196,-299.5 1252,-299.5 1252,-280.5 1196,-280.5"/>
<text text-anchor="middle" x="1224" y="-287.5" font-family="Helvetica,sans-Serif" font-size="10.00">numeric</text>
</a>
</g>
</g>
<!-- Node1&#45;&gt;Node24 -->
<g id="edge38" class="edge">
<title>Node1&#45;&gt;Node24</title>
<path fill="none" stroke="midnightblue" d="M848.86,-339.64C930.55,-333.32 1062.8,-321.13 1185.83,-300"/>
<polygon fill="midnightblue" stroke="midnightblue" points="1186.55,-303.43 1195.8,-298.26 1185.35,-296.53 1186.55,-303.43"/>
</g>
<!-- Node25 -->
<g id="node25" class="node">
<title>Node25</title>
<g id="a_node25"><a xlink:title=" ">
<polygon fill="none" stroke="#bfbfbf" points="1270,-280.5 1270,-299.5 1326,-299.5 1326,-280.5 1270,-280.5"/>
<text text-anchor="middle" x="1298" y="-287.5" font-family="Helvetica,sans-Serif" font-size="10.00">sstream</text>
</a>
</g>
</g>
<!-- Node1&#45;&gt;Node25 -->
<g id="edge40" class="edge">
<title>Node1&#45;&gt;Node25</title>
<path fill="none" stroke="midnightblue" d="M848.68,-341.4C943.6,-336.21 1109.18,-324.59 1259.9,-299.95"/>
<polygon fill="midnightblue" stroke="midnightblue" points="1260.51,-303.4 1269.81,-298.31 1259.37,-296.49 1260.51,-303.4"/>
</g>
<!-- Node2&#45;&gt;Node3 -->
<g id="edge2" class="edge">
<title>Node2&#45;&gt;Node3</title>
<path fill="none" stroke="midnightblue" d="M440.1,-280.44C406.04,-271.01 351.2,-255.83 314.4,-245.63"/>
<polygon fill="midnightblue" stroke="midnightblue" points="315.1,-242.2 304.53,-242.9 313.24,-248.94 315.1,-242.2"/>
</g>
<!-- Node7 -->
<g id="node7" class="node">
<title>Node7</title>
<g id="a_node7"><a xlink:title=" ">
<polygon fill="none" stroke="#bfbfbf" points="188.5,-0.5 188.5,-19.5 241.5,-19.5 241.5,-0.5 188.5,-0.5"/>
<text text-anchor="middle" x="215" y="-7.5" font-family="Helvetica,sans-Serif" font-size="10.00">cstddef</text>
</a>
</g>
</g>
<!-- Node2&#45;&gt;Node7 -->
<g id="edge23" class="edge">
<title>Node2&#45;&gt;Node7</title>
<path fill="none" stroke="midnightblue" d="M471,-280.44C471,-261.94 471,-216.81 471,-179 471,-179 471,-179 471,-121 471,-26.91 323.2,-12.3 252.21,-10.7"/>
<polygon fill="midnightblue" stroke="midnightblue" points="251.96,-7.2 241.91,-10.55 251.86,-14.2 251.96,-7.2"/>
</g>
<!-- Node10 -->
<g id="node10" class="node">
<title>Node10</title>
<g id="a_node10"><a xlink:title=" ">
<polygon fill="none" stroke="#bfbfbf" points="243.5,-56.5 243.5,-75.5 290.5,-75.5 290.5,-56.5 243.5,-56.5"/>
<text text-anchor="middle" x="267" y="-63.5" font-family="Helvetica,sans-Serif" font-size="10.00">vector</text>
</a>
</g>
</g>
<!-- Node2&#45;&gt;Node10 -->
<g id="edge26" class="edge">
<title>Node2&#45;&gt;Node10</title>
<path fill="none" stroke="midnightblue" d="M468.61,-280.21C462.48,-258.96 444.53,-203.92 414,-168 380.2,-128.23 327.18,-97.05 294.9,-80.38"/>
<polygon fill="midnightblue" stroke="midnightblue" points="296.1,-77.07 285.6,-75.68 292.94,-83.31 296.1,-77.07"/>
</g>
<!-- Node2&#45;&gt;Node14 -->
<g id="edge22" class="edge">
<title>Node2&#45;&gt;Node14</title>
<path fill="none" stroke="midnightblue" d="M479.75,-280.08C487.47,-272.22 498.9,-260.57 508.22,-251.08"/>
<polygon fill="midnightblue" stroke="midnightblue" points="510.9,-253.34 515.41,-243.75 505.91,-248.44 510.9,-253.34"/>
</g>
<!-- Node2&#45;&gt;Node15 -->
<g id="edge24" class="edge">
<title>Node2&#45;&gt;Node15</title>
<path fill="none" stroke="midnightblue" d="M491.6,-280.44C512.99,-271.56 546.68,-257.56 571.02,-247.45"/>
<polygon fill="midnightblue" stroke="midnightblue" points="572.61,-250.58 580.5,-243.52 569.92,-244.12 572.61,-250.58"/>
</g>
<!-- Node16 -->
<g id="node16" class="node">
<title>Node16</title>
<g id="a_node16"><a xlink:title=" ">
<polygon fill="none" stroke="#bfbfbf" points="361,-224.5 361,-243.5 405,-243.5 405,-224.5 361,-224.5"/>
<text text-anchor="middle" x="383" y="-231.5" font-family="Helvetica,sans-Serif" font-size="10.00">string</text>
</a>
</g>
</g>
<!-- Node2&#45;&gt;Node16 -->
<g id="edge25" class="edge">
<title>Node2&#45;&gt;Node16</title>
<path fill="none" stroke="midnightblue" d="M456.86,-280.32C443.13,-271.9 422.06,-258.97 405.94,-249.07"/>
<polygon fill="midnightblue" stroke="midnightblue" points="407.46,-245.9 397.1,-243.65 403.8,-251.87 407.46,-245.9"/>
</g>
<!-- Node4 -->
<g id="node4" class="node">
<title>Node4</title>
<g id="a_node4"><a xlink:href="../../d3/d65/material_8h.html" target="_top" xlink:title=" ">
<polygon fill="none" stroke="black" points="84.5,-112.5 84.5,-131.5 151.5,-131.5 151.5,-112.5 84.5,-112.5"/>
<text text-anchor="middle" x="118" y="-119.5" font-family="Helvetica,sans-Serif" font-size="10.00">material.h</text>
</a>
</g>
</g>
<!-- Node3&#45;&gt;Node4 -->
<g id="edge3" class="edge">
<title>Node3&#45;&gt;Node4</title>
<path fill="none" stroke="midnightblue" d="M247.42,-230.99C196.57,-226.76 93.69,-215 72,-188 58.61,-171.33 78.19,-151.07 95.8,-137.65"/>
<polygon fill="midnightblue" stroke="midnightblue" points="98.05,-140.34 104.12,-131.66 93.96,-134.66 98.05,-140.34"/>
</g>
<!-- Node6 -->
<g id="node6" class="node">
<title>Node6</title>
<g id="a_node6"><a xlink:title=" ">
<polygon fill="none" stroke="#bfbfbf" points="0,-0.5 0,-19.5 42,-19.5 42,-0.5 0,-0.5"/>
<text text-anchor="middle" x="21" y="-7.5" font-family="Helvetica,sans-Serif" font-size="10.00">array</text>
</a>
</g>
</g>
<!-- Node3&#45;&gt;Node6 -->
<g id="edge17" class="edge">
<title>Node3&#45;&gt;Node6</title>
<path fill="none" stroke="midnightblue" d="M247.33,-230.65C195.65,-225.83 89.84,-213.1 64,-188 19.99,-145.26 17.99,-65.65 19.6,-29.59"/>
<polygon fill="midnightblue" stroke="midnightblue" points="23.1,-29.71 20.2,-19.52 16.11,-29.29 23.1,-29.71"/>
</g>
<!-- Node3&#45;&gt;Node7 -->
<g id="edge18" class="edge">
<title>Node3&#45;&gt;Node7</title>
<path fill="none" stroke="midnightblue" d="M280.6,-224.49C294.47,-197.56 332.91,-112.63 299,-56 288.6,-38.63 268.96,-27.59 251.28,-20.79"/>
<polygon fill="midnightblue" stroke="midnightblue" points="252.33,-17.45 241.73,-17.44 250.01,-24.05 252.33,-17.45"/>
</g>
<!-- Node3&#45;&gt;Node10 -->
<g id="edge21" class="edge">
<title>Node3&#45;&gt;Node10</title>
<path fill="none" stroke="midnightblue" d="M275.52,-224.08C274.1,-197.95 269.94,-121.21 268.01,-85.58"/>
<polygon fill="midnightblue" stroke="midnightblue" points="271.5,-85.36 267.46,-75.57 264.51,-85.74 271.5,-85.36"/>
</g>
<!-- Node11 -->
<g id="node11" class="node">
<title>Node11</title>
<g id="a_node11"><a xlink:href="../../da/d16/sensorController_8h.html" target="_top" xlink:title=" ">
<polygon fill="none" stroke="black" points="81.5,-168.5 81.5,-187.5 186.5,-187.5 186.5,-168.5 81.5,-168.5"/>
<text text-anchor="middle" x="134" y="-175.5" font-family="Helvetica,sans-Serif" font-size="10.00">sensorController.h</text>
</a>
</g>
</g>
<!-- Node3&#45;&gt;Node11 -->
<g id="edge13" class="edge">
<title>Node3&#45;&gt;Node11</title>
<path fill="none" stroke="midnightblue" d="M253.5,-224.44C229.92,-215.48 192.68,-201.31 166.04,-191.18"/>
<polygon fill="midnightblue" stroke="midnightblue" points="166.99,-187.8 156.4,-187.52 164.5,-194.34 166.99,-187.8"/>
</g>
<!-- Node3&#45;&gt;Node12 -->
<g id="edge19" class="edge">
<title>Node3&#45;&gt;Node12</title>
<path fill="none" stroke="midnightblue" d="M292.07,-224.32C307.96,-215.74 332.51,-202.49 350.96,-192.52"/>
<polygon fill="midnightblue" stroke="midnightblue" points="352.84,-195.49 359.97,-187.65 349.51,-189.33 352.84,-195.49"/>
</g>
<!-- Node13 -->
<g id="node13" class="node">
<title>Node13</title>
<g id="a_node13"><a xlink:title=" ">
<polygon fill="none" stroke="#bfbfbf" points="205,-168.5 205,-187.5 253,-187.5 253,-168.5 205,-168.5"/>
<text text-anchor="middle" x="229" y="-175.5" font-family="Helvetica,sans-Serif" font-size="10.00">mutex</text>
</a>
</g>
</g>
<!-- Node3&#45;&gt;Node13 -->
<g id="edge20" class="edge">
<title>Node3&#45;&gt;Node13</title>
<path fill="none" stroke="midnightblue" d="M268.24,-224.08C261.46,-216.3 251.46,-204.8 243.24,-195.37"/>
<polygon fill="midnightblue" stroke="midnightblue" points="245.82,-193 236.62,-187.75 240.54,-197.59 245.82,-193"/>
</g>
<!-- Node5 -->
<g id="node5" class="node">
<title>Node5</title>
<g id="a_node5"><a xlink:href="../../d3/d34/phonon_8h.html" target="_top" xlink:title=" ">
<polygon fill="none" stroke="black" points="87,-56.5 87,-75.5 149,-75.5 149,-56.5 87,-56.5"/>
<text text-anchor="middle" x="118" y="-63.5" font-family="Helvetica,sans-Serif" font-size="10.00">phonon.h</text>
</a>
</g>
</g>
<!-- Node4&#45;&gt;Node5 -->
<g id="edge4" class="edge">
<title>Node4&#45;&gt;Node5</title>
<path fill="none" stroke="midnightblue" d="M118,-112.08C118,-105.01 118,-94.86 118,-85.99"/>
<polygon fill="midnightblue" stroke="midnightblue" points="121.5,-85.75 118,-75.75 114.5,-85.75 121.5,-85.75"/>
</g>
<!-- Node4&#45;&gt;Node6 -->
<g id="edge9" class="edge">
<title>Node4&#45;&gt;Node6</title>
<path fill="none" stroke="midnightblue" d="M108.48,-112.38C98.92,-103.56 83.93,-89.31 72,-76 58,-60.38 43.35,-41.39 33.36,-27.98"/>
<polygon fill="midnightblue" stroke="midnightblue" points="36.01,-25.68 27.26,-19.7 30.37,-29.83 36.01,-25.68"/>
</g>
<!-- Node4&#45;&gt;Node7 -->
<g id="edge10" class="edge">
<title>Node4&#45;&gt;Node7</title>
<path fill="none" stroke="midnightblue" d="M125.69,-112.39C133.75,-103.34 146.79,-88.69 158,-76 172.5,-59.57 189.01,-40.74 200.51,-27.59"/>
<polygon fill="midnightblue" stroke="midnightblue" points="203.33,-29.68 207.27,-19.85 198.06,-25.07 203.33,-29.68"/>
</g>
<!-- Node9 -->
<g id="node9" class="node">
<title>Node9</title>
<g id="a_node9"><a xlink:title=" ">
<polygon fill="none" stroke="#bfbfbf" points="78.5,-0.5 78.5,-19.5 123.5,-19.5 123.5,-0.5 78.5,-0.5"/>
<text text-anchor="middle" x="101" y="-7.5" font-family="Helvetica,sans-Serif" font-size="10.00">utility</text>
</a>
</g>
</g>
<!-- Node4&#45;&gt;Node9 -->
<g id="edge11" class="edge">
<title>Node4&#45;&gt;Node9</title>
<path fill="none" stroke="midnightblue" d="M106.73,-112.43C97.03,-104.27 83.72,-91.05 78,-76 71.91,-59.97 79.83,-41.53 88,-28.4"/>
<polygon fill="midnightblue" stroke="midnightblue" points="91.06,-30.12 93.79,-19.88 85.27,-26.18 91.06,-30.12"/>
</g>
<!-- Node4&#45;&gt;Node10 -->
<g id="edge12" class="edge">
<title>Node4&#45;&gt;Node10</title>
<path fill="none" stroke="midnightblue" d="M141.61,-112.44C166.46,-103.44 205.77,-89.19 233.75,-79.05"/>
<polygon fill="midnightblue" stroke="midnightblue" points="235.29,-82.21 243.5,-75.52 232.91,-75.63 235.29,-82.21"/>
</g>
<!-- Node5&#45;&gt;Node6 -->
<g id="edge5" class="edge">
<title>Node5&#45;&gt;Node6</title>
<path fill="none" stroke="midnightblue" d="M102.42,-56.32C87,-47.74 63.19,-34.49 45.29,-24.52"/>
<polygon fill="midnightblue" stroke="midnightblue" points="46.99,-21.46 36.55,-19.65 43.58,-27.58 46.99,-21.46"/>
</g>
<!-- Node5&#45;&gt;Node7 -->
<g id="edge6" class="edge">
<title>Node5&#45;&gt;Node7</title>
<path fill="none" stroke="midnightblue" d="M133.58,-56.32C149,-47.74 172.81,-34.49 190.71,-24.52"/>
<polygon fill="midnightblue" stroke="midnightblue" points="192.42,-27.58 199.45,-19.65 189.01,-21.46 192.42,-27.58"/>
</g>
<!-- Node5&#45;&gt;Node8 -->
<g id="edge7" class="edge">
<title>Node5&#45;&gt;Node8</title>
<path fill="none" stroke="midnightblue" d="M149.06,-60.3C214.22,-50.45 365.06,-27.63 436.35,-16.85"/>
<polygon fill="midnightblue" stroke="midnightblue" points="436.9,-20.3 446.27,-15.35 435.86,-13.38 436.9,-20.3"/>
</g>
<!-- Node5&#45;&gt;Node9 -->
<g id="edge8" class="edge">
<title>Node5&#45;&gt;Node9</title>
<path fill="none" stroke="midnightblue" d="M115.19,-56.08C112.92,-48.85 109.63,-38.41 106.79,-29.4"/>
<polygon fill="midnightblue" stroke="midnightblue" points="110.1,-28.24 103.75,-19.75 103.42,-30.34 110.1,-28.24"/>
</g>
<!-- Node11&#45;&gt;Node4 -->
<g id="edge14" class="edge">
<title>Node11&#45;&gt;Node4</title>
<path fill="none" stroke="midnightblue" d="M131.36,-168.08C129.21,-160.85 126.12,-150.41 123.45,-141.4"/>
<polygon fill="midnightblue" stroke="midnightblue" points="126.79,-140.34 120.59,-131.75 120.08,-142.33 126.79,-140.34"/>
</g>
<!-- Node11&#45;&gt;Node7 -->
<g id="edge15" class="edge">
<title>Node11&#45;&gt;Node7</title>
<path fill="none" stroke="midnightblue" d="M139.44,-168.18C144.89,-159.21 153.39,-144.84 160,-132 178.4,-96.24 197.24,-53.08 207.39,-29.18"/>
<polygon fill="midnightblue" stroke="midnightblue" points="210.75,-30.22 211.41,-19.64 204.3,-27.5 210.75,-30.22"/>
</g>
<!-- Node11&#45;&gt;Node10 -->
<g id="edge16" class="edge">
<title>Node11&#45;&gt;Node10</title>
<path fill="none" stroke="midnightblue" d="M156.25,-168.49C174.44,-160.81 200.15,-148.23 219,-132 234.89,-118.32 248.59,-98.45 257.24,-84.28"/>
<polygon fill="midnightblue" stroke="midnightblue" points="260.33,-85.93 262.39,-75.54 254.3,-82.38 260.33,-85.93"/>
</g>
</g>
</svg>
