<?xml version="1.0" encoding="UTF-8" standalone="no"?>
<!DOCTYPE svg PUBLIC "-//W3C//DTD SVG 1.1//EN"
 "http://www.w3.org/Graphics/SVG/1.1/DTD/svg11.dtd">
<!-- Generated by graphviz version 2.43.0 (0)
 -->
<!-- Title: SteadyStateController::reset Pages: 1 -->
<svg width="290pt" height="104pt"
 viewBox="0.00 0.00 290.00 104.00" xmlns="http://www.w3.org/2000/svg" xmlns:xlink="http://www.w3.org/1999/xlink">
<g id="graph0" class="graph" transform="scale(1 1) rotate(0) translate(4 100)">
<title>SteadyStateController::reset</title>
<!-- Node1 -->
<g id="node1" class="node">
<title>Node1</title>
<g id="a_node1"><a xlink:title=" ">
<polygon fill="#bfbfbf" stroke="black" points="0,-33 0,-63 124,-63 124,-33 0,-33"/>
<text text-anchor="start" x="8" y="-51" font-family="Helvetica,sans-Serif" font-size="10.00">SteadyStateController</text>
<text text-anchor="middle" x="62" y="-40" font-family="Helvetica,sans-Serif" font-size="10.00">::reset</text>
</a>
</g>
</g>
<!-- Node2 -->
<g id="node2" class="node">
<title>Node2</title>
<g id="a_node2"><a xlink:href="../../d3/d89/classMaterial.html#a2b90129e78c2caf2376b680700706165" target="_top" xlink:title=" ">
<polygon fill="none" stroke="black" points="161,-76.5 161,-95.5 281,-95.5 281,-76.5 161,-76.5"/>
<text text-anchor="middle" x="221" y="-83.5" font-family="Helvetica,sans-Serif" font-size="10.00">Material::baseEnergy</text>
</a>
</g>
</g>
<!-- Node1&#45;&gt;Node2 -->
<g id="edge1" class="edge">
<title>Node1&#45;&gt;Node2</title>
<path fill="none" stroke="midnightblue" d="M124.15,-62.8C139.54,-66.53 155.87,-70.48 170.6,-74.04"/>
<polygon fill="midnightblue" stroke="midnightblue" points="169.97,-77.49 180.52,-76.44 171.62,-70.69 169.97,-77.49"/>
</g>
<!-- Node3 -->
<g id="node3" class="node">
<title>Node3</title>
<g id="a_node3"><a xlink:href="../../d3/d89/classMaterial.html#a9ef58f9cef57163ca5b135530e1b0bdf" target="_top" xlink:title=" ">
<polygon fill="none" stroke="black" points="165,-38.5 165,-57.5 277,-57.5 277,-38.5 165,-38.5"/>
<text text-anchor="middle" x="221" y="-45.5" font-family="Helvetica,sans-Serif" font-size="10.00">Material::baseTable</text>
</a>
</g>
</g>
<!-- Node1&#45;&gt;Node3 -->
<g id="edge2" class="edge">
<title>Node1&#45;&gt;Node3</title>
<path fill="none" stroke="midnightblue" d="M124.15,-48C134.22,-48 144.7,-48 154.87,-48"/>
<polygon fill="midnightblue" stroke="midnightblue" points="154.9,-51.5 164.9,-48 154.9,-44.5 154.9,-51.5"/>
</g>
<!-- Node4 -->
<g id="node4" class="node">
<title>Node4</title>
<g id="a_node4"><a xlink:href="../../d3/d89/classMaterial.html#a89f7a28aa3822cd3b2ac3e16be21fe1b" target="_top" xlink:title=" ">
<polygon fill="none" stroke="black" points="160,-0.5 160,-19.5 282,-19.5 282,-0.5 160,-0.5"/>
<text text-anchor="middle" x="221" y="-7.5" font-family="Helvetica,sans-Serif" font-size="10.00">Material::scatterTable</text>
</a>
</g>
</g>
<!-- Node1&#45;&gt;Node4 -->
<g id="edge3" class="edge">
<title>Node1&#45;&gt;Node4</title>
<path fill="none" stroke="midnightblue" d="M124.15,-33.2C139.54,-29.47 155.87,-25.52 170.6,-21.96"/>
<polygon fill="midnightblue" stroke="midnightblue" points="171.62,-25.31 180.52,-19.56 169.97,-18.51 171.62,-25.31"/>
</g>
</g>
</svg>
