<?xml version="1.0" encoding="UTF-8" standalone="no"?>
<!DOCTYPE svg PUBLIC "-//W3C//DTD SVG 1.1//EN"
 "http://www.w3.org/Graphics/SVG/1.1/DTD/svg11.dtd">
<!-- Generated by graphviz version 2.43.0 (0)
 -->
<!-- Title: psim/src/inputManager.cpp Pages: 1 -->
<svg width="2258pt" height="420pt"
 viewBox="0.00 0.00 2257.50 420.00" xmlns="http://www.w3.org/2000/svg" xmlns:xlink="http://www.w3.org/1999/xlink">
<g id="graph0" class="graph" transform="scale(1 1) rotate(0) translate(4 416)">
<title>psim/src/inputManager.cpp</title>
<!-- Node1 -->
<g id="node1" class="node">
<title>Node1</title>
<g id="a_node1"><a xlink:title=" ">
<polygon fill="#bfbfbf" stroke="black" points="1666,-392.5 1666,-411.5 1814,-411.5 1814,-392.5 1666,-392.5"/>
<text text-anchor="middle" x="1740" y="-399.5" font-family="Helvetica,sans-Serif" font-size="10.00">psim/src/inputManager.cpp</text>
</a>
</g>
</g>
<!-- Node2 -->
<g id="node2" class="node">
<title>Node2</title>
<g id="a_node2"><a xlink:href="../../dc/d0e/inputManager_8h.html" target="_top" xlink:title=" ">
<polygon fill="none" stroke="black" points="66.5,-280.5 66.5,-299.5 185.5,-299.5 185.5,-280.5 66.5,-280.5"/>
<text text-anchor="middle" x="126" y="-287.5" font-family="Helvetica,sans-Serif" font-size="10.00">psim/inputManager.h</text>
</a>
</g>
</g>
<!-- Node1&#45;&gt;Node2 -->
<g id="edge1" class="edge">
<title>Node1&#45;&gt;Node2</title>
<path fill="none" stroke="midnightblue" d="M1665.74,-400.4C1485.28,-398.44 1009.44,-390.16 614,-356 460.11,-342.7 280.29,-315.79 187.85,-301.11"/>
<polygon fill="midnightblue" stroke="midnightblue" points="188.25,-297.63 177.83,-299.51 187.15,-304.54 188.25,-297.63"/>
</g>
<!-- Node5 -->
<g id="node5" class="node">
<title>Node5</title>
<g id="a_node5"><a xlink:href="../../d4/d67/geometry_8h.html" target="_top" xlink:title=" ">
<polygon fill="none" stroke="black" points="1500,-112.5 1500,-131.5 1598,-131.5 1598,-112.5 1500,-112.5"/>
<text text-anchor="middle" x="1549" y="-119.5" font-family="Helvetica,sans-Serif" font-size="10.00">psim/geometry.h</text>
</a>
</g>
</g>
<!-- Node1&#45;&gt;Node5 -->
<g id="edge4" class="edge">
<title>Node1&#45;&gt;Node5</title>
<path fill="none" stroke="midnightblue" d="M1740,-392.44C1740,-373.94 1740,-328.81 1740,-291 1740,-291 1740,-291 1740,-233 1740,-171.27 1664.16,-143.66 1608.06,-131.68"/>
<polygon fill="midnightblue" stroke="midnightblue" points="1608.68,-128.23 1598.19,-129.69 1607.3,-135.1 1608.68,-128.23"/>
</g>
<!-- Node6 -->
<g id="node6" class="node">
<title>Node6</title>
<g id="a_node6"><a xlink:title=" ">
<polygon fill="none" stroke="#bfbfbf" points="1007,-0.5 1007,-19.5 1049,-19.5 1049,-0.5 1007,-0.5"/>
<text text-anchor="middle" x="1028" y="-7.5" font-family="Helvetica,sans-Serif" font-size="10.00">array</text>
</a>
</g>
</g>
<!-- Node1&#45;&gt;Node6 -->
<g id="edge89" class="edge">
<title>Node1&#45;&gt;Node6</title>
<path fill="none" stroke="midnightblue" d="M1665.8,-393.63C1540.38,-380.03 1293.03,-347.93 1221,-300 1115.72,-229.95 1053.46,-80.89 1034.35,-29.14"/>
<polygon fill="midnightblue" stroke="midnightblue" points="1037.61,-27.86 1030.93,-19.64 1031.02,-30.24 1037.61,-27.86"/>
</g>
<!-- Node7 -->
<g id="node7" class="node">
<title>Node7</title>
<g id="a_node7"><a xlink:title=" ">
<polygon fill="none" stroke="#bfbfbf" points="1731.5,-56.5 1731.5,-75.5 1796.5,-75.5 1796.5,-56.5 1731.5,-56.5"/>
<text text-anchor="middle" x="1764" y="-63.5" font-family="Helvetica,sans-Serif" font-size="10.00">exception</text>
</a>
</g>
</g>
<!-- Node1&#45;&gt;Node7 -->
<g id="edge91" class="edge">
<title>Node1&#45;&gt;Node7</title>
<path fill="none" stroke="midnightblue" d="M1795.83,-392.46C1820.66,-386.11 1848.61,-375.09 1868,-356 1889.95,-334.4 1892,-321.8 1892,-291 1892,-291 1892,-291 1892,-233 1892,-164.56 1822.92,-107.09 1786.26,-81.41"/>
<polygon fill="midnightblue" stroke="midnightblue" points="1787.93,-78.31 1777.7,-75.58 1783.99,-84.1 1787.93,-78.31"/>
</g>
<!-- Node9 -->
<g id="node9" class="node">
<title>Node9</title>
<g id="a_node9"><a xlink:title=" ">
<polygon fill="none" stroke="#bfbfbf" points="1316,-56.5 1316,-75.5 1360,-75.5 1360,-56.5 1316,-56.5"/>
<text text-anchor="middle" x="1338" y="-63.5" font-family="Helvetica,sans-Serif" font-size="10.00">string</text>
</a>
</g>
</g>
<!-- Node1&#45;&gt;Node9 -->
<g id="edge96" class="edge">
<title>Node1&#45;&gt;Node9</title>
<path fill="none" stroke="midnightblue" d="M1743.6,-392.22C1747.06,-383.28 1752.03,-368.94 1754,-356 1766.69,-272.48 1786.44,-227.02 1726,-168 1684.18,-127.16 1662.79,-129.43 1607,-112 1523.88,-86.03 1421.35,-74.15 1370.2,-69.52"/>
<polygon fill="midnightblue" stroke="midnightblue" points="1370.36,-66.02 1360.09,-68.64 1369.75,-72.99 1370.36,-66.02"/>
</g>
<!-- Node11 -->
<g id="node11" class="node">
<title>Node11</title>
<g id="a_node11"><a xlink:title=" ">
<polygon fill="none" stroke="#bfbfbf" points="1430.5,-0.5 1430.5,-19.5 1475.5,-19.5 1475.5,-0.5 1430.5,-0.5"/>
<text text-anchor="middle" x="1453" y="-7.5" font-family="Helvetica,sans-Serif" font-size="10.00">utility</text>
</a>
</g>
</g>
<!-- Node1&#45;&gt;Node11 -->
<g id="edge97" class="edge">
<title>Node1&#45;&gt;Node11</title>
<path fill="none" stroke="midnightblue" d="M1797.52,-392.48C1853.44,-380.57 1930,-352.94 1930,-291 1930,-291 1930,-291 1930,-121 1930,-29.7 1593.96,-14.17 1485.98,-11.54"/>
<polygon fill="midnightblue" stroke="midnightblue" points="1485.76,-8.03 1475.69,-11.31 1485.61,-15.03 1485.76,-8.03"/>
</g>
<!-- Node12 -->
<g id="node12" class="node">
<title>Node12</title>
<g id="a_node12"><a xlink:title=" ">
<polygon fill="none" stroke="#bfbfbf" points="1638.5,-336.5 1638.5,-355.5 1711.5,-355.5 1711.5,-336.5 1638.5,-336.5"/>
<text text-anchor="middle" x="1675" y="-343.5" font-family="Helvetica,sans-Serif" font-size="10.00">psim/json.h</text>
</a>
</g>
</g>
<!-- Node1&#45;&gt;Node12 -->
<g id="edge12" class="edge">
<title>Node1&#45;&gt;Node12</title>
<path fill="none" stroke="midnightblue" d="M1729.56,-392.32C1719.85,-384.26 1705.18,-372.08 1693.5,-362.37"/>
<polygon fill="midnightblue" stroke="midnightblue" points="1695.56,-359.53 1685.63,-355.83 1691.09,-364.92 1695.56,-359.53"/>
</g>
<!-- Node13 -->
<g id="node13" class="node">
<title>Node13</title>
<g id="a_node13"><a xlink:href="../../d3/d65/material_8h.html" target="_top" xlink:title=" ">
<polygon fill="none" stroke="black" points="938,-112.5 938,-131.5 1032,-131.5 1032,-112.5 938,-112.5"/>
<text text-anchor="middle" x="985" y="-119.5" font-family="Helvetica,sans-Serif" font-size="10.00">psim/material.h</text>
</a>
</g>
</g>
<!-- Node1&#45;&gt;Node13 -->
<g id="edge13" class="edge">
<title>Node1&#45;&gt;Node13</title>
<path fill="none" stroke="midnightblue" d="M1665.87,-400.19C1504.57,-397.81 1132.41,-388.8 1086,-356 1012.65,-304.16 992.08,-187.26 986.74,-141.69"/>
<polygon fill="midnightblue" stroke="midnightblue" points="990.22,-141.3 985.69,-131.72 983.26,-142.03 990.22,-141.3"/>
</g>
<!-- Node15 -->
<g id="node15" class="node">
<title>Node15</title>
<g id="a_node15"><a xlink:title=" ">
<polygon fill="none" stroke="#bfbfbf" points="389.5,-0.5 389.5,-19.5 442.5,-19.5 442.5,-0.5 389.5,-0.5"/>
<text text-anchor="middle" x="416" y="-7.5" font-family="Helvetica,sans-Serif" font-size="10.00">cstddef</text>
</a>
</g>
</g>
<!-- Node1&#45;&gt;Node15 -->
<g id="edge90" class="edge">
<title>Node1&#45;&gt;Node15</title>
<path fill="none" stroke="midnightblue" d="M1665.79,-400.25C1333.67,-396.43 0,-375.8 0,-291 0,-291 0,-291 0,-121 0,-77.23 34.13,-74.08 74,-56 127.91,-31.55 302.52,-18.03 379.26,-13.13"/>
<polygon fill="midnightblue" stroke="midnightblue" points="379.65,-16.62 389.41,-12.5 379.21,-9.63 379.65,-16.62"/>
</g>
<!-- Node17 -->
<g id="node17" class="node">
<title>Node17</title>
<g id="a_node17"><a xlink:href="../../dc/d51/model_8h.html" target="_top" xlink:title=" ">
<polygon fill="none" stroke="black" points="623.5,-336.5 623.5,-355.5 706.5,-355.5 706.5,-336.5 623.5,-336.5"/>
<text text-anchor="middle" x="665" y="-343.5" font-family="Helvetica,sans-Serif" font-size="10.00">psim/model.h</text>
</a>
</g>
</g>
<!-- Node1&#45;&gt;Node17 -->
<g id="edge23" class="edge">
<title>Node1&#45;&gt;Node17</title>
<path fill="none" stroke="midnightblue" d="M1665.69,-397.27C1460.88,-386.98 891.91,-358.4 716.9,-349.61"/>
<polygon fill="midnightblue" stroke="midnightblue" points="716.83,-346.1 706.67,-349.09 716.48,-353.09 716.83,-346.1"/>
</g>
<!-- Node22 -->
<g id="node22" class="node">
<title>Node22</title>
<g id="a_node22"><a xlink:href="../../d5/d2e/sensor_8h.html" target="_top" xlink:title=" ">
<polygon fill="none" stroke="black" points="709.5,-224.5 709.5,-243.5 766.5,-243.5 766.5,-224.5 709.5,-224.5"/>
<text text-anchor="middle" x="738" y="-231.5" font-family="Helvetica,sans-Serif" font-size="10.00">sensor.h</text>
</a>
</g>
</g>
<!-- Node1&#45;&gt;Node22 -->
<g id="edge88" class="edge">
<title>Node1&#45;&gt;Node22</title>
<path fill="none" stroke="midnightblue" d="M1665.89,-399.49C1512.17,-395.83 1163.33,-384.55 1048,-356 967.66,-336.11 955.29,-309.6 878,-280 844.24,-267.07 804.99,-254.68 776.65,-246.18"/>
<polygon fill="midnightblue" stroke="midnightblue" points="777.32,-242.73 766.74,-243.23 775.33,-249.44 777.32,-242.73"/>
</g>
<!-- Node34 -->
<g id="node34" class="node">
<title>Node34</title>
<g id="a_node34"><a xlink:title=" ">
<polygon fill="none" stroke="#bfbfbf" points="1958.5,-336.5 1958.5,-355.5 2013.5,-355.5 2013.5,-336.5 1958.5,-336.5"/>
<text text-anchor="middle" x="1986" y="-343.5" font-family="Helvetica,sans-Serif" font-size="10.00">fstream</text>
</a>
</g>
</g>
<!-- Node1&#45;&gt;Node34 -->
<g id="edge92" class="edge">
<title>Node1&#45;&gt;Node34</title>
<path fill="none" stroke="midnightblue" d="M1778.98,-392.44C1825.46,-382.24 1902.59,-365.31 1948.43,-355.25"/>
<polygon fill="midnightblue" stroke="midnightblue" points="1949.26,-358.65 1958.27,-353.09 1947.75,-351.81 1949.26,-358.65"/>
</g>
<!-- Node35 -->
<g id="node35" class="node">
<title>Node35</title>
<g id="a_node35"><a xlink:title=" ">
<polygon fill="none" stroke="#bfbfbf" points="2032,-336.5 2032,-355.5 2092,-355.5 2092,-336.5 2032,-336.5"/>
<text text-anchor="middle" x="2062" y="-343.5" font-family="Helvetica,sans-Serif" font-size="10.00">iostream</text>
</a>
</g>
</g>
<!-- Node1&#45;&gt;Node35 -->
<g id="edge93" class="edge">
<title>Node1&#45;&gt;Node35</title>
<path fill="none" stroke="midnightblue" d="M1801.49,-392.47C1856.72,-384.53 1940.23,-371.82 2021.87,-356.11"/>
<polygon fill="midnightblue" stroke="midnightblue" points="2022.66,-359.53 2031.81,-354.18 2021.33,-352.65 2022.66,-359.53"/>
</g>
<!-- Node36 -->
<g id="node36" class="node">
<title>Node36</title>
<g id="a_node36"><a xlink:title=" ">
<polygon fill="none" stroke="#bfbfbf" points="2110,-336.5 2110,-355.5 2166,-355.5 2166,-336.5 2110,-336.5"/>
<text text-anchor="middle" x="2138" y="-343.5" font-family="Helvetica,sans-Serif" font-size="10.00">sstream</text>
</a>
</g>
</g>
<!-- Node1&#45;&gt;Node36 -->
<g id="edge94" class="edge">
<title>Node1&#45;&gt;Node36</title>
<path fill="none" stroke="midnightblue" d="M1814.01,-394.28C1884.96,-387.27 1995.22,-374.88 2099.7,-356.06"/>
<polygon fill="midnightblue" stroke="midnightblue" points="2100.58,-359.45 2109.79,-354.21 2099.32,-352.57 2100.58,-359.45"/>
</g>
<!-- Node37 -->
<g id="node37" class="node">
<title>Node37</title>
<g id="a_node37"><a xlink:title=" ">
<polygon fill="none" stroke="#bfbfbf" points="2184.5,-336.5 2184.5,-355.5 2249.5,-355.5 2249.5,-336.5 2184.5,-336.5"/>
<text text-anchor="middle" x="2217" y="-343.5" font-family="Helvetica,sans-Serif" font-size="10.00">stdexcept</text>
</a>
</g>
</g>
<!-- Node1&#45;&gt;Node37 -->
<g id="edge95" class="edge">
<title>Node1&#45;&gt;Node37</title>
<path fill="none" stroke="midnightblue" d="M1814.21,-395.78C1898.93,-389.26 2041.83,-376.59 2174.14,-355.98"/>
<polygon fill="midnightblue" stroke="midnightblue" points="2174.72,-359.43 2184.05,-354.41 2173.62,-352.51 2174.72,-359.43"/>
</g>
<!-- Node3 -->
<g id="node3" class="node">
<title>Node3</title>
<g id="a_node3"><a xlink:title=" ">
<polygon fill="none" stroke="#bfbfbf" points="318,-224.5 318,-243.5 386,-243.5 386,-224.5 318,-224.5"/>
<text text-anchor="middle" x="352" y="-231.5" font-family="Helvetica,sans-Serif" font-size="10.00">filesystem</text>
</a>
</g>
</g>
<!-- Node2&#45;&gt;Node3 -->
<g id="edge2" class="edge">
<title>Node2&#45;&gt;Node3</title>
<path fill="none" stroke="midnightblue" d="M161.81,-280.44C201.45,-270.97 265.36,-255.7 308.01,-245.51"/>
<polygon fill="midnightblue" stroke="midnightblue" points="308.92,-248.89 317.84,-243.16 307.3,-242.08 308.92,-248.89"/>
</g>
<!-- Node4 -->
<g id="node4" class="node">
<title>Node4</title>
<g id="a_node4"><a xlink:title=" ">
<polygon fill="none" stroke="#bfbfbf" points="173,-56.5 173,-75.5 229,-75.5 229,-56.5 173,-56.5"/>
<text text-anchor="middle" x="201" y="-63.5" font-family="Helvetica,sans-Serif" font-size="10.00">optional</text>
</a>
</g>
</g>
<!-- Node2&#45;&gt;Node4 -->
<g id="edge3" class="edge">
<title>Node2&#45;&gt;Node4</title>
<path fill="none" stroke="midnightblue" d="M124.45,-280.19C120.16,-253.07 110.37,-169.26 142,-112 149.3,-98.79 162.27,-88.25 174.2,-80.7"/>
<polygon fill="midnightblue" stroke="midnightblue" points="176.16,-83.6 183,-75.51 172.61,-77.57 176.16,-83.6"/>
</g>
<!-- Node5&#45;&gt;Node4 -->
<g id="edge7" class="edge">
<title>Node5&#45;&gt;Node4</title>
<path fill="none" stroke="midnightblue" d="M1499.83,-119.03C1285.01,-110.42 431.12,-76.22 239.36,-68.54"/>
<polygon fill="midnightblue" stroke="midnightblue" points="239.34,-65.03 229.21,-68.13 239.06,-72.03 239.34,-65.03"/>
</g>
<!-- Node5&#45;&gt;Node6 -->
<g id="edge5" class="edge">
<title>Node5&#45;&gt;Node6</title>
<path fill="none" stroke="midnightblue" d="M1517.11,-112.45C1488.17,-104.31 1444.58,-91.1 1408,-76 1389.99,-68.57 1387.6,-61.8 1369,-56 1258.76,-21.59 1120.48,-13.49 1059.43,-11.58"/>
<polygon fill="midnightblue" stroke="midnightblue" points="1059.39,-8.08 1049.3,-11.3 1059.19,-15.08 1059.39,-8.08"/>
</g>
<!-- Node5&#45;&gt;Node7 -->
<g id="edge6" class="edge">
<title>Node5&#45;&gt;Node7</title>
<path fill="none" stroke="midnightblue" d="M1583.07,-112.44C1620.62,-103.01 1681.06,-87.83 1721.64,-77.64"/>
<polygon fill="midnightblue" stroke="midnightblue" points="1722.65,-80.99 1731.5,-75.16 1720.95,-74.2 1722.65,-80.99"/>
</g>
<!-- Node8 -->
<g id="node8" class="node">
<title>Node8</title>
<g id="a_node8"><a xlink:title=" ">
<polygon fill="none" stroke="#bfbfbf" points="1259.5,-0.5 1259.5,-19.5 1316.5,-19.5 1316.5,-0.5 1259.5,-0.5"/>
<text text-anchor="middle" x="1288" y="-7.5" font-family="Helvetica,sans-Serif" font-size="10.00">ostream</text>
</a>
</g>
</g>
<!-- Node5&#45;&gt;Node8 -->
<g id="edge8" class="edge">
<title>Node5&#45;&gt;Node8</title>
<path fill="none" stroke="midnightblue" d="M1531.38,-112.37C1504.87,-99.5 1453.02,-74.79 1408,-56 1379.31,-44.02 1346.18,-31.71 1322.01,-23"/>
<polygon fill="midnightblue" stroke="midnightblue" points="1323.16,-19.7 1312.57,-19.62 1320.8,-26.29 1323.16,-19.7"/>
</g>
<!-- Node5&#45;&gt;Node9 -->
<g id="edge9" class="edge">
<title>Node5&#45;&gt;Node9</title>
<path fill="none" stroke="midnightblue" d="M1515.57,-112.44C1475.67,-102.23 1409.44,-85.28 1370.13,-75.22"/>
<polygon fill="midnightblue" stroke="midnightblue" points="1370.83,-71.79 1360.27,-72.7 1369.09,-78.57 1370.83,-71.79"/>
</g>
<!-- Node10 -->
<g id="node10" class="node">
<title>Node10</title>
<g id="a_node10"><a xlink:title=" ">
<polygon fill="none" stroke="#bfbfbf" points="1589.5,-56.5 1589.5,-75.5 1662.5,-75.5 1662.5,-56.5 1589.5,-56.5"/>
<text text-anchor="middle" x="1626" y="-63.5" font-family="Helvetica,sans-Serif" font-size="10.00">string_view</text>
</a>
</g>
</g>
<!-- Node5&#45;&gt;Node10 -->
<g id="edge10" class="edge">
<title>Node5&#45;&gt;Node10</title>
<path fill="none" stroke="midnightblue" d="M1561.37,-112.32C1573.16,-104.06 1591.13,-91.45 1605.14,-81.63"/>
<polygon fill="midnightblue" stroke="midnightblue" points="1607.48,-84.26 1613.66,-75.65 1603.46,-78.53 1607.48,-84.26"/>
</g>
<!-- Node5&#45;&gt;Node11 -->
<g id="edge11" class="edge">
<title>Node5&#45;&gt;Node11</title>
<path fill="none" stroke="midnightblue" d="M1541.47,-112.37C1525.48,-94.05 1487.95,-51.05 1467.28,-27.36"/>
<polygon fill="midnightblue" stroke="midnightblue" points="1469.71,-24.82 1460.5,-19.59 1464.44,-29.43 1469.71,-24.82"/>
</g>
<!-- Node13&#45;&gt;Node6 -->
<g id="edge19" class="edge">
<title>Node13&#45;&gt;Node6</title>
<path fill="none" stroke="midnightblue" d="M990.34,-112.3C995.61,-103.42 1003.65,-89.12 1009,-76 1015.24,-60.69 1020.36,-42.59 1023.7,-29.38"/>
<polygon fill="midnightblue" stroke="midnightblue" points="1027.12,-30.15 1026.08,-19.6 1020.32,-28.49 1027.12,-30.15"/>
</g>
<!-- Node13&#45;&gt;Node11 -->
<g id="edge21" class="edge">
<title>Node13&#45;&gt;Node11</title>
<path fill="none" stroke="midnightblue" d="M1021.33,-112.46C1109.98,-91.62 1336.27,-38.44 1420.64,-18.61"/>
<polygon fill="midnightblue" stroke="midnightblue" points="1421.5,-22 1430.44,-16.3 1419.9,-15.18 1421.5,-22"/>
</g>
<!-- Node14 -->
<g id="node14" class="node">
<title>Node14</title>
<g id="a_node14"><a xlink:href="../../d3/d34/phonon_8h.html" target="_top" xlink:title=" ">
<polygon fill="none" stroke="black" points="938,-56.5 938,-75.5 1000,-75.5 1000,-56.5 938,-56.5"/>
<text text-anchor="middle" x="969" y="-63.5" font-family="Helvetica,sans-Serif" font-size="10.00">phonon.h</text>
</a>
</g>
</g>
<!-- Node13&#45;&gt;Node14 -->
<g id="edge14" class="edge">
<title>Node13&#45;&gt;Node14</title>
<path fill="none" stroke="midnightblue" d="M982.36,-112.08C980.21,-104.85 977.12,-94.41 974.45,-85.4"/>
<polygon fill="midnightblue" stroke="midnightblue" points="977.79,-84.34 971.59,-75.75 971.08,-86.33 977.79,-84.34"/>
</g>
<!-- Node13&#45;&gt;Node15 -->
<g id="edge20" class="edge">
<title>Node13&#45;&gt;Node15</title>
<path fill="none" stroke="midnightblue" d="M970.84,-112.28C946.65,-97.85 895.4,-69.29 848,-56 705.96,-16.17 528.74,-10.94 453.05,-10.68"/>
<polygon fill="midnightblue" stroke="midnightblue" points="452.63,-7.18 442.63,-10.68 452.63,-14.18 452.63,-7.18"/>
</g>
<!-- Node16 -->
<g id="node16" class="node">
<title>Node16</title>
<g id="a_node16"><a xlink:title=" ">
<polygon fill="none" stroke="#bfbfbf" points="746.5,-56.5 746.5,-75.5 793.5,-75.5 793.5,-56.5 746.5,-56.5"/>
<text text-anchor="middle" x="770" y="-63.5" font-family="Helvetica,sans-Serif" font-size="10.00">vector</text>
</a>
</g>
</g>
<!-- Node13&#45;&gt;Node16 -->
<g id="edge22" class="edge">
<title>Node13&#45;&gt;Node16</title>
<path fill="none" stroke="midnightblue" d="M950.93,-112.44C910.52,-102.29 843.59,-85.48 803.45,-75.4"/>
<polygon fill="midnightblue" stroke="midnightblue" points="804.16,-71.97 793.61,-72.93 802.46,-78.76 804.16,-71.97"/>
</g>
<!-- Node14&#45;&gt;Node6 -->
<g id="edge15" class="edge">
<title>Node14&#45;&gt;Node6</title>
<path fill="none" stroke="midnightblue" d="M978.48,-56.32C987.2,-48.34 1000.34,-36.31 1010.9,-26.65"/>
<polygon fill="midnightblue" stroke="midnightblue" points="1013.33,-29.17 1018.35,-19.83 1008.61,-24 1013.33,-29.17"/>
</g>
<!-- Node14&#45;&gt;Node8 -->
<g id="edge17" class="edge">
<title>Node14&#45;&gt;Node8</title>
<path fill="none" stroke="midnightblue" d="M1000.17,-59.72C1058.83,-49.79 1185.47,-28.36 1249.41,-17.53"/>
<polygon fill="midnightblue" stroke="midnightblue" points="1250.2,-20.95 1259.48,-15.83 1249.04,-14.05 1250.2,-20.95"/>
</g>
<!-- Node14&#45;&gt;Node11 -->
<g id="edge18" class="edge">
<title>Node14&#45;&gt;Node11</title>
<path fill="none" stroke="midnightblue" d="M1000.01,-61.54C1086.82,-51.85 1331.7,-24.53 1420.41,-14.64"/>
<polygon fill="midnightblue" stroke="midnightblue" points="1420.88,-18.11 1430.43,-13.52 1420.1,-11.15 1420.88,-18.11"/>
</g>
<!-- Node14&#45;&gt;Node15 -->
<g id="edge16" class="edge">
<title>Node14&#45;&gt;Node15</title>
<path fill="none" stroke="midnightblue" d="M937.6,-58.27C933.05,-57.42 928.42,-56.64 924,-56 748.35,-30.73 536.35,-17.45 452.59,-12.87"/>
<polygon fill="midnightblue" stroke="midnightblue" points="452.73,-9.37 442.56,-12.33 452.36,-16.36 452.73,-9.37"/>
</g>
<!-- Node17&#45;&gt;Node3 -->
<g id="edge80" class="edge">
<title>Node17&#45;&gt;Node3</title>
<path fill="none" stroke="midnightblue" d="M623.38,-341.73C558.46,-336.01 436.72,-322.59 400,-300 381.94,-288.89 368.48,-268.25 360.48,-253.2"/>
<polygon fill="midnightblue" stroke="midnightblue" points="363.41,-251.24 355.82,-243.86 357.15,-254.37 363.41,-251.24"/>
</g>
<!-- Node17&#45;&gt;Node4 -->
<g id="edge83" class="edge">
<title>Node17&#45;&gt;Node4</title>
<path fill="none" stroke="midnightblue" d="M623.47,-341.35C535.23,-333.36 334.83,-313.94 307,-300 222.1,-257.48 194.09,-225.02 175,-132 173.21,-123.29 172.7,-120.59 175,-112 177.65,-102.1 183.07,-92.13 188.27,-84.1"/>
<polygon fill="midnightblue" stroke="midnightblue" points="191.29,-85.89 194.11,-75.68 185.54,-81.91 191.29,-85.89"/>
</g>
<!-- Node17&#45;&gt;Node5 -->
<g id="edge73" class="edge">
<title>Node17&#45;&gt;Node5</title>
<path fill="none" stroke="midnightblue" d="M706.75,-344.02C806.63,-341.22 1067.04,-331.28 1282,-300 1396.82,-283.29 1448.15,-318.63 1537,-244 1564.02,-221.3 1564.22,-203.04 1560,-168 1558.93,-159.11 1556.71,-149.43 1554.54,-141.34"/>
<polygon fill="midnightblue" stroke="midnightblue" points="1557.84,-140.17 1551.73,-131.51 1551.11,-142.09 1557.84,-140.17"/>
</g>
<!-- Node17&#45;&gt;Node9 -->
<g id="edge84" class="edge">
<title>Node17&#45;&gt;Node9</title>
<path fill="none" stroke="midnightblue" d="M706.85,-340.99C755.19,-335.47 836.58,-323.44 903,-300 1072.44,-240.2 1256.22,-121.99 1317.11,-81.22"/>
<polygon fill="midnightblue" stroke="midnightblue" points="1319.16,-84.06 1325.5,-75.57 1315.25,-78.25 1319.16,-84.06"/>
</g>
<!-- Node17&#45;&gt;Node11 -->
<g id="edge86" class="edge">
<title>Node17&#45;&gt;Node11</title>
<path fill="none" stroke="midnightblue" d="M706.5,-345.44C818.46,-345.99 1135.74,-343.27 1395,-300 1487.32,-284.59 1513.32,-283.86 1598,-244 1705.52,-193.39 1756.9,-184.21 1806,-76 1809.67,-67.91 1811.87,-62.67 1806,-56 1784.98,-32.13 1569.27,-17.54 1485.77,-12.75"/>
<polygon fill="midnightblue" stroke="midnightblue" points="1485.76,-9.24 1475.57,-12.18 1485.36,-16.23 1485.76,-9.24"/>
</g>
<!-- Node17&#45;&gt;Node13 -->
<g id="edge54" class="edge">
<title>Node17&#45;&gt;Node13</title>
<path fill="none" stroke="midnightblue" d="M706.5,-345.7C752.48,-344.47 826.85,-336.33 878,-300 935.04,-259.48 967.24,-178.11 979.36,-141.54"/>
<polygon fill="midnightblue" stroke="midnightblue" points="982.79,-142.32 982.49,-131.73 976.12,-140.19 982.79,-142.32"/>
</g>
<!-- Node17&#45;&gt;Node15 -->
<g id="edge79" class="edge">
<title>Node17&#45;&gt;Node15</title>
<path fill="none" stroke="midnightblue" d="M623.47,-344.62C493.54,-343.08 100.87,-335.49 57,-300 33.6,-281.07 38,-265.1 38,-235 38,-235 38,-235 38,-121 38,-50.35 284.55,-22.07 379.41,-13.8"/>
<polygon fill="midnightblue" stroke="midnightblue" points="379.75,-17.29 389.42,-12.96 379.16,-10.31 379.75,-17.29"/>
</g>
<!-- Node17&#45;&gt;Node16 -->
<g id="edge87" class="edge">
<title>Node17&#45;&gt;Node16</title>
<path fill="none" stroke="midnightblue" d="M623.33,-341.08C573.1,-335.39 493.14,-322.93 475,-300 469.49,-293.03 473.84,-288.81 475,-280 482.57,-222.49 492.76,-198.66 542,-168 589.27,-138.57 611.08,-154.53 662,-132 666.44,-130.03 716.71,-99.5 747.08,-80.99"/>
<polygon fill="midnightblue" stroke="midnightblue" points="749.08,-83.88 755.79,-75.68 745.43,-77.9 749.08,-83.88"/>
</g>
<!-- Node18 -->
<g id="node18" class="node">
<title>Node18</title>
<g id="a_node18"><a xlink:href="../../d0/ddd/cell_8h.html" target="_top" xlink:title=" ">
<polygon fill="none" stroke="black" points="1230.5,-280.5 1230.5,-299.5 1273.5,-299.5 1273.5,-280.5 1230.5,-280.5"/>
<text text-anchor="middle" x="1252" y="-287.5" font-family="Helvetica,sans-Serif" font-size="10.00">cell.h</text>
</a>
</g>
</g>
<!-- Node17&#45;&gt;Node18 -->
<g id="edge24" class="edge">
<title>Node17&#45;&gt;Node18</title>
<path fill="none" stroke="midnightblue" d="M706.75,-341.16C818.32,-330.9 1121.67,-302.99 1220.45,-293.9"/>
<polygon fill="midnightblue" stroke="midnightblue" points="1220.77,-297.39 1230.41,-292.99 1220.13,-290.42 1220.77,-297.39"/>
</g>
<!-- Node17&#45;&gt;Node22 -->
<g id="edge74" class="edge">
<title>Node17&#45;&gt;Node22</title>
<path fill="none" stroke="midnightblue" d="M684.2,-336.47C698.67,-329 717.72,-316.71 728,-300 736.51,-286.17 738.65,-267.65 738.87,-253.92"/>
<polygon fill="midnightblue" stroke="midnightblue" points="742.37,-253.66 738.71,-243.72 735.37,-253.77 742.37,-253.66"/>
</g>
<!-- Node24 -->
<g id="node24" class="node">
<title>Node24</title>
<g id="a_node24"><a xlink:title=" ">
<polygon fill="none" stroke="#bfbfbf" points="330,-168.5 330,-187.5 388,-187.5 388,-168.5 330,-168.5"/>
<text text-anchor="middle" x="359" y="-175.5" font-family="Helvetica,sans-Serif" font-size="10.00">memory</text>
</a>
</g>
</g>
<!-- Node17&#45;&gt;Node24 -->
<g id="edge81" class="edge">
<title>Node17&#45;&gt;Node24</title>
<path fill="none" stroke="midnightblue" d="M623.43,-341.35C554.18,-334.81 418.5,-319.89 375,-300 340.01,-284.01 325.16,-278.91 309,-244 300.09,-224.75 318.49,-205.88 335.43,-193.48"/>
<polygon fill="midnightblue" stroke="midnightblue" points="337.73,-196.15 344.01,-187.61 333.78,-190.37 337.73,-196.15"/>
</g>
<!-- Node25 -->
<g id="node25" class="node">
<title>Node25</title>
<g id="a_node25"><a xlink:title=" ">
<polygon fill="none" stroke="#bfbfbf" points="558,-168.5 558,-187.5 606,-187.5 606,-168.5 558,-168.5"/>
<text text-anchor="middle" x="582" y="-175.5" font-family="Helvetica,sans-Serif" font-size="10.00">mutex</text>
</a>
</g>
</g>
<!-- Node17&#45;&gt;Node25 -->
<g id="edge82" class="edge">
<title>Node17&#45;&gt;Node25</title>
<path fill="none" stroke="midnightblue" d="M623.18,-340.52C575.21,-334.41 500.95,-321.68 484,-300 467.19,-278.5 494.42,-240.65 509,-224 520.83,-210.49 537.71,-199.73 552.26,-192.11"/>
<polygon fill="midnightblue" stroke="midnightblue" points="554.01,-195.15 561.41,-187.57 550.89,-188.88 554.01,-195.15"/>
</g>
<!-- Node26 -->
<g id="node26" class="node">
<title>Node26</title>
<g id="a_node26"><a xlink:href="../../db/d26/modelSimulator_8h.html" target="_top" xlink:title=" ">
<polygon fill="none" stroke="black" points="208.5,-168.5 208.5,-187.5 311.5,-187.5 311.5,-168.5 208.5,-168.5"/>
<text text-anchor="middle" x="260" y="-175.5" font-family="Helvetica,sans-Serif" font-size="10.00">modelSimulator.h</text>
</a>
</g>
</g>
<!-- Node17&#45;&gt;Node26 -->
<g id="edge55" class="edge">
<title>Node17&#45;&gt;Node26</title>
<path fill="none" stroke="midnightblue" d="M623.4,-341.38C539.71,-333.81 356.88,-315.69 333,-300 295.7,-275.49 274.55,-224.7 265.43,-197.37"/>
<polygon fill="midnightblue" stroke="midnightblue" points="268.67,-196.03 262.33,-187.54 262,-198.13 268.67,-196.03"/>
</g>
<!-- Node30 -->
<g id="node30" class="node">
<title>Node30</title>
<g id="a_node30"><a xlink:href="../../df/d92/outputManager_8h.html" target="_top" xlink:title=" ">
<polygon fill="none" stroke="black" points="493.5,-280.5 493.5,-299.5 592.5,-299.5 592.5,-280.5 493.5,-280.5"/>
<text text-anchor="middle" x="543" y="-287.5" font-family="Helvetica,sans-Serif" font-size="10.00">outputManager.h</text>
</a>
</g>
</g>
<!-- Node17&#45;&gt;Node30 -->
<g id="edge66" class="edge">
<title>Node17&#45;&gt;Node30</title>
<path fill="none" stroke="midnightblue" d="M645.67,-336.44C625.68,-327.6 594.26,-313.69 571.44,-303.59"/>
<polygon fill="midnightblue" stroke="midnightblue" points="572.8,-300.36 562.24,-299.52 569.97,-306.76 572.8,-300.36"/>
</g>
<!-- Node32 -->
<g id="node32" class="node">
<title>Node32</title>
<g id="a_node32"><a xlink:href="../../d6/d53/sensorInterpreter_8h.html" target="_top" xlink:title=" ">
<polygon fill="none" stroke="black" points="610.5,-280.5 610.5,-299.5 719.5,-299.5 719.5,-280.5 610.5,-280.5"/>
<text text-anchor="middle" x="665" y="-287.5" font-family="Helvetica,sans-Serif" font-size="10.00">sensorInterpreter.h</text>
</a>
</g>
</g>
<!-- Node17&#45;&gt;Node32 -->
<g id="edge75" class="edge">
<title>Node17&#45;&gt;Node32</title>
<path fill="none" stroke="midnightblue" d="M665,-336.08C665,-329.01 665,-318.86 665,-309.99"/>
<polygon fill="midnightblue" stroke="midnightblue" points="668.5,-309.75 665,-299.75 661.5,-309.75 668.5,-309.75"/>
</g>
<!-- Node33 -->
<g id="node33" class="node">
<title>Node33</title>
<g id="a_node33"><a xlink:title=" ">
<polygon fill="none" stroke="#bfbfbf" points="776.5,-280.5 776.5,-299.5 869.5,-299.5 869.5,-280.5 776.5,-280.5"/>
<text text-anchor="middle" x="823" y="-287.5" font-family="Helvetica,sans-Serif" font-size="10.00">unordered_map</text>
</a>
</g>
</g>
<!-- Node17&#45;&gt;Node33 -->
<g id="edge85" class="edge">
<title>Node17&#45;&gt;Node33</title>
<path fill="none" stroke="midnightblue" d="M690.04,-336.44C716.62,-327.36 758.81,-312.94 788.52,-302.78"/>
<polygon fill="midnightblue" stroke="midnightblue" points="789.75,-306.06 798.08,-299.52 787.49,-299.44 789.75,-306.06"/>
</g>
<!-- Node18&#45;&gt;Node5 -->
<g id="edge35" class="edge">
<title>Node18&#45;&gt;Node5</title>
<path fill="none" stroke="midnightblue" d="M1273.71,-288.19C1330.13,-285.66 1479.46,-276.01 1515,-244 1544.1,-217.8 1549.11,-168.88 1549.5,-141.96"/>
<polygon fill="midnightblue" stroke="midnightblue" points="1553,-141.58 1549.44,-131.6 1546,-141.62 1553,-141.58"/>
</g>
<!-- Node18&#45;&gt;Node6 -->
<g id="edge48" class="edge">
<title>Node18&#45;&gt;Node6</title>
<path fill="none" stroke="midnightblue" d="M1250.98,-280.4C1246.54,-246.71 1225.83,-122.24 1156,-56 1129.48,-30.84 1088.08,-19.65 1059.58,-14.74"/>
<polygon fill="midnightblue" stroke="midnightblue" points="1059.77,-11.22 1049.35,-13.14 1058.69,-18.14 1059.77,-11.22"/>
</g>
<!-- Node18&#45;&gt;Node7 -->
<g id="edge50" class="edge">
<title>Node18&#45;&gt;Node7</title>
<path fill="none" stroke="midnightblue" d="M1273.69,-287.53C1335.87,-283.06 1513.58,-268.41 1566,-244 1649.23,-205.23 1722.78,-119.69 1751.35,-83.59"/>
<polygon fill="midnightblue" stroke="midnightblue" points="1754.24,-85.57 1757.62,-75.53 1748.71,-81.27 1754.24,-85.57"/>
</g>
<!-- Node18&#45;&gt;Node9 -->
<g id="edge52" class="edge">
<title>Node18&#45;&gt;Node9</title>
<path fill="none" stroke="midnightblue" d="M1251.54,-280.21C1250.84,-259.43 1251.26,-206.15 1271,-168 1281.54,-147.62 1294.75,-150.73 1308,-132 1318.31,-117.43 1326.49,-98.75 1331.69,-85.16"/>
<polygon fill="midnightblue" stroke="midnightblue" points="1335.07,-86.12 1335.2,-75.52 1328.49,-83.72 1335.07,-86.12"/>
</g>
<!-- Node18&#45;&gt;Node10 -->
<g id="edge53" class="edge">
<title>Node18&#45;&gt;Node10</title>
<path fill="none" stroke="midnightblue" d="M1273.55,-287.6C1331.95,-283.5 1491.93,-270.12 1537,-244 1592.25,-211.98 1605.8,-192.24 1627,-132 1632.27,-117.03 1631.45,-98.89 1629.64,-85.58"/>
<polygon fill="midnightblue" stroke="midnightblue" points="1633.09,-85.01 1628,-75.72 1626.18,-86.16 1633.09,-85.01"/>
</g>
<!-- Node18&#45;&gt;Node13 -->
<g id="edge36" class="edge">
<title>Node18&#45;&gt;Node13</title>
<path fill="none" stroke="midnightblue" d="M1238.02,-280.31C1194.5,-253.25 1061.12,-170.32 1007.58,-137.04"/>
<polygon fill="midnightblue" stroke="midnightblue" points="1009.18,-133.91 998.84,-131.61 1005.49,-139.86 1009.18,-133.91"/>
</g>
<!-- Node18&#45;&gt;Node15 -->
<g id="edge49" class="edge">
<title>Node18&#45;&gt;Node15</title>
<path fill="none" stroke="midnightblue" d="M1231.32,-280.39C1210.41,-271.58 1177.23,-257.34 1149,-244 1049.8,-197.13 1025.02,-185.09 929,-132 871.43,-100.17 864.28,-77.17 802,-56 678.96,-14.18 522.56,-9.81 452.65,-10.22"/>
<polygon fill="midnightblue" stroke="midnightblue" points="452.55,-6.72 442.58,-10.31 452.61,-13.72 452.55,-6.72"/>
</g>
<!-- Node19 -->
<g id="node19" class="node">
<title>Node19</title>
<g id="a_node19"><a xlink:href="../../d8/d77/compositeSurface_8h.html" target="_top" xlink:title=" ">
<polygon fill="none" stroke="black" points="1393.5,-224.5 1393.5,-243.5 1506.5,-243.5 1506.5,-224.5 1393.5,-224.5"/>
<text text-anchor="middle" x="1450" y="-231.5" font-family="Helvetica,sans-Serif" font-size="10.00">compositeSurface.h</text>
</a>
</g>
</g>
<!-- Node18&#45;&gt;Node19 -->
<g id="edge25" class="edge">
<title>Node18&#45;&gt;Node19</title>
<path fill="none" stroke="midnightblue" d="M1273.57,-283.12C1305.97,-274.28 1367.82,-257.41 1408.99,-246.18"/>
<polygon fill="midnightblue" stroke="midnightblue" points="1410,-249.54 1418.72,-243.53 1408.16,-242.78 1410,-249.54"/>
</g>
<!-- Node21 -->
<g id="node21" class="node">
<title>Node21</title>
<g id="a_node21"><a xlink:title=" ">
<polygon fill="none" stroke="#bfbfbf" points="1280,-168.5 1280,-187.5 1328,-187.5 1328,-168.5 1280,-168.5"/>
<text text-anchor="middle" x="1304" y="-175.5" font-family="Helvetica,sans-Serif" font-size="10.00">iosfwd</text>
</a>
</g>
</g>
<!-- Node18&#45;&gt;Node21 -->
<g id="edge51" class="edge">
<title>Node18&#45;&gt;Node21</title>
<path fill="none" stroke="midnightblue" d="M1256.08,-280.37C1264.55,-262.46 1284.18,-220.92 1295.52,-196.95"/>
<polygon fill="midnightblue" stroke="midnightblue" points="1298.83,-198.13 1299.94,-187.59 1292.5,-195.14 1298.83,-198.13"/>
</g>
<!-- Node18&#45;&gt;Node22 -->
<g id="edge37" class="edge">
<title>Node18&#45;&gt;Node22</title>
<path fill="none" stroke="midnightblue" d="M1230.24,-286.71C1151.26,-278.42 878.95,-249.81 776.97,-239.09"/>
<polygon fill="midnightblue" stroke="midnightblue" points="777.11,-235.59 766.8,-238.03 776.38,-242.55 777.11,-235.59"/>
</g>
<!-- Node19&#45;&gt;Node5 -->
<g id="edge26" class="edge">
<title>Node19&#45;&gt;Node5</title>
<path fill="none" stroke="midnightblue" d="M1457.77,-224.37C1474.32,-205.97 1513.3,-162.67 1534.55,-139.05"/>
<polygon fill="midnightblue" stroke="midnightblue" points="1537.18,-141.37 1541.27,-131.59 1531.98,-136.68 1537.18,-141.37"/>
</g>
<!-- Node19&#45;&gt;Node7 -->
<g id="edge30" class="edge">
<title>Node19&#45;&gt;Node7</title>
<path fill="none" stroke="midnightblue" d="M1478.56,-224.47C1503.95,-216.44 1541.79,-203.37 1573,-188 1638.94,-155.52 1710.61,-105.81 1744.35,-81.46"/>
<polygon fill="midnightblue" stroke="midnightblue" points="1746.42,-84.28 1752.45,-75.57 1742.3,-78.62 1746.42,-84.28"/>
</g>
<!-- Node19&#45;&gt;Node9 -->
<g id="edge32" class="edge">
<title>Node19&#45;&gt;Node9</title>
<path fill="none" stroke="midnightblue" d="M1452.18,-224.12C1454.9,-211.15 1458.25,-186.56 1450,-168 1432.3,-128.2 1390.29,-97.47 1363.06,-80.83"/>
<polygon fill="midnightblue" stroke="midnightblue" points="1364.49,-77.62 1354.1,-75.54 1360.93,-83.64 1364.49,-77.62"/>
</g>
<!-- Node19&#45;&gt;Node10 -->
<g id="edge33" class="edge">
<title>Node19&#45;&gt;Node10</title>
<path fill="none" stroke="midnightblue" d="M1472.92,-224.41C1507.23,-210.37 1571.69,-179.25 1607,-132 1617.01,-118.61 1621.76,-100.04 1624.01,-86.18"/>
<polygon fill="midnightblue" stroke="midnightblue" points="1627.53,-86.23 1625.37,-75.86 1620.59,-85.31 1627.53,-86.23"/>
</g>
<!-- Node19&#45;&gt;Node16 -->
<g id="edge34" class="edge">
<title>Node19&#45;&gt;Node16</title>
<path fill="none" stroke="midnightblue" d="M1448.22,-224.18C1444.84,-209.88 1436.05,-181.83 1417,-168 1366.66,-131.46 929.46,-83.57 803.71,-70.45"/>
<polygon fill="midnightblue" stroke="midnightblue" points="803.83,-66.95 793.52,-69.39 803.11,-73.91 803.83,-66.95"/>
</g>
<!-- Node20 -->
<g id="node20" class="node">
<title>Node20</title>
<g id="a_node20"><a xlink:href="../../d2/d69/surface_8h.html" target="_top" xlink:title=" ">
<polygon fill="none" stroke="black" points="1346,-168.5 1346,-187.5 1408,-187.5 1408,-168.5 1346,-168.5"/>
<text text-anchor="middle" x="1377" y="-175.5" font-family="Helvetica,sans-Serif" font-size="10.00">surface.h</text>
</a>
</g>
</g>
<!-- Node19&#45;&gt;Node20 -->
<g id="edge27" class="edge">
<title>Node19&#45;&gt;Node20</title>
<path fill="none" stroke="midnightblue" d="M1438.27,-224.32C1427.16,-216.11 1410.26,-203.6 1397.02,-193.81"/>
<polygon fill="midnightblue" stroke="midnightblue" points="1399.06,-190.97 1388.94,-187.83 1394.9,-196.59 1399.06,-190.97"/>
</g>
<!-- Node19&#45;&gt;Node21 -->
<g id="edge31" class="edge">
<title>Node19&#45;&gt;Node21</title>
<path fill="none" stroke="midnightblue" d="M1426.87,-224.44C1402.52,-215.44 1363.99,-201.19 1336.58,-191.05"/>
<polygon fill="midnightblue" stroke="midnightblue" points="1337.62,-187.7 1327.03,-187.52 1335.19,-194.27 1337.62,-187.7"/>
</g>
<!-- Node20&#45;&gt;Node5 -->
<g id="edge28" class="edge">
<title>Node20&#45;&gt;Node5</title>
<path fill="none" stroke="midnightblue" d="M1404.25,-168.44C1433.44,-159.28 1479.92,-144.69 1512.31,-134.52"/>
<polygon fill="midnightblue" stroke="midnightblue" points="1513.38,-137.85 1521.87,-131.52 1511.28,-131.17 1513.38,-137.85"/>
</g>
<!-- Node20&#45;&gt;Node13 -->
<g id="edge29" class="edge">
<title>Node20&#45;&gt;Node13</title>
<path fill="none" stroke="midnightblue" d="M1345.61,-169.64C1342.71,-169.05 1339.8,-168.49 1337,-168 1233.84,-149.84 1112.44,-135.95 1042.53,-128.67"/>
<polygon fill="midnightblue" stroke="midnightblue" points="1042.49,-125.15 1032.19,-127.6 1041.77,-132.11 1042.49,-125.15"/>
</g>
<!-- Node22&#45;&gt;Node6 -->
<g id="edge43" class="edge">
<title>Node22&#45;&gt;Node6</title>
<path fill="none" stroke="midnightblue" d="M766.52,-227.31C791.4,-221.14 827.3,-209.2 852,-188 903.54,-143.76 878.6,-101.53 929,-56 948.5,-38.38 976.07,-26.62 997.17,-19.55"/>
<polygon fill="midnightblue" stroke="midnightblue" points="998.46,-22.81 1006.94,-16.45 996.35,-16.14 998.46,-22.81"/>
</g>
<!-- Node22&#45;&gt;Node13 -->
<g id="edge38" class="edge">
<title>Node22&#45;&gt;Node13</title>
<path fill="none" stroke="midnightblue" d="M766.71,-226.85C797.2,-219.74 846.36,-206.57 886,-188 915.74,-174.07 946.9,-152.22 966.14,-137.76"/>
<polygon fill="midnightblue" stroke="midnightblue" points="968.51,-140.35 974.33,-131.5 964.26,-134.79 968.51,-140.35"/>
</g>
<!-- Node22&#45;&gt;Node15 -->
<g id="edge44" class="edge">
<title>Node22&#45;&gt;Node15</title>
<path fill="none" stroke="midnightblue" d="M723.58,-224.48C700.94,-211.33 655.49,-185.73 615,-168 570.96,-148.72 554.21,-156.76 513,-132 481.45,-113.05 474.77,-104.92 452,-76 440.43,-61.3 430.41,-42.39 423.9,-28.77"/>
<polygon fill="midnightblue" stroke="midnightblue" points="427.01,-27.14 419.64,-19.53 420.66,-30.08 427.01,-27.14"/>
</g>
<!-- Node22&#45;&gt;Node16 -->
<g id="edge47" class="edge">
<title>Node22&#45;&gt;Node16</title>
<path fill="none" stroke="midnightblue" d="M733.8,-224.13C728.3,-211.17 720.32,-186.58 729,-168 739.55,-145.42 761.45,-154.58 772,-132 778.72,-117.61 777.45,-99.42 774.95,-85.94"/>
<polygon fill="midnightblue" stroke="midnightblue" points="778.3,-84.91 772.7,-75.92 771.47,-86.44 778.3,-84.91"/>
</g>
<!-- Node23 -->
<g id="node23" class="node">
<title>Node23</title>
<g id="a_node23"><a xlink:href="../../da/d16/sensorController_8h.html" target="_top" xlink:title=" ">
<polygon fill="none" stroke="black" points="738.5,-168.5 738.5,-187.5 843.5,-187.5 843.5,-168.5 738.5,-168.5"/>
<text text-anchor="middle" x="791" y="-175.5" font-family="Helvetica,sans-Serif" font-size="10.00">sensorController.h</text>
</a>
</g>
</g>
<!-- Node22&#45;&gt;Node23 -->
<g id="edge39" class="edge">
<title>Node22&#45;&gt;Node23</title>
<path fill="none" stroke="midnightblue" d="M746.75,-224.08C754.47,-216.22 765.9,-204.57 775.22,-195.08"/>
<polygon fill="midnightblue" stroke="midnightblue" points="777.9,-197.34 782.41,-187.75 772.91,-192.44 777.9,-197.34"/>
</g>
<!-- Node22&#45;&gt;Node24 -->
<g id="edge45" class="edge">
<title>Node22&#45;&gt;Node24</title>
<path fill="none" stroke="midnightblue" d="M709.2,-228.9C641.97,-219.32 474.6,-195.47 398.17,-184.58"/>
<polygon fill="midnightblue" stroke="midnightblue" points="398.41,-181.08 388.01,-183.13 397.42,-188.01 398.41,-181.08"/>
</g>
<!-- Node22&#45;&gt;Node25 -->
<g id="edge46" class="edge">
<title>Node22&#45;&gt;Node25</title>
<path fill="none" stroke="midnightblue" d="M713.28,-224.44C687,-215.35 645.25,-200.9 615.91,-190.74"/>
<polygon fill="midnightblue" stroke="midnightblue" points="616.69,-187.3 606.09,-187.34 614.4,-193.92 616.69,-187.3"/>
</g>
<!-- Node23&#45;&gt;Node13 -->
<g id="edge40" class="edge">
<title>Node23&#45;&gt;Node13</title>
<path fill="none" stroke="midnightblue" d="M821.74,-168.44C854.94,-159.2 907.99,-144.44 944.56,-134.26"/>
<polygon fill="midnightblue" stroke="midnightblue" points="945.71,-137.57 954.4,-131.52 943.83,-130.83 945.71,-137.57"/>
</g>
<!-- Node23&#45;&gt;Node15 -->
<g id="edge41" class="edge">
<title>Node23&#45;&gt;Node15</title>
<path fill="none" stroke="midnightblue" d="M738.35,-175.47C687.48,-172.14 609.47,-162.04 549,-132 497.26,-106.3 450.82,-54.52 429.05,-27.8"/>
<polygon fill="midnightblue" stroke="midnightblue" points="431.62,-25.4 422.65,-19.77 426.15,-29.77 431.62,-25.4"/>
</g>
<!-- Node23&#45;&gt;Node16 -->
<g id="edge42" class="edge">
<title>Node23&#45;&gt;Node16</title>
<path fill="none" stroke="midnightblue" d="M797.02,-168.45C805.07,-155.88 817.52,-131.78 810,-112 805.66,-100.6 796.97,-90.24 788.79,-82.34"/>
<polygon fill="midnightblue" stroke="midnightblue" points="791.04,-79.66 781.27,-75.57 786.36,-84.86 791.04,-79.66"/>
</g>
<!-- Node26&#45;&gt;Node4 -->
<g id="edge63" class="edge">
<title>Node26&#45;&gt;Node4</title>
<path fill="none" stroke="midnightblue" d="M259.31,-168.49C257.97,-155.57 254.18,-130.54 244,-112 237.93,-100.95 228.46,-90.62 219.95,-82.65"/>
<polygon fill="midnightblue" stroke="midnightblue" points="222.03,-79.82 212.23,-75.79 217.38,-85.05 222.03,-79.82"/>
</g>
<!-- Node26&#45;&gt;Node6 -->
<g id="edge61" class="edge">
<title>Node26&#45;&gt;Node6</title>
<path fill="none" stroke="midnightblue" d="M277.23,-168.47C323.88,-145.83 457.01,-83.99 575,-56 730.39,-19.15 922.7,-12.43 996.84,-11.24"/>
<polygon fill="midnightblue" stroke="midnightblue" points="996.95,-14.74 1006.9,-11.1 996.85,-7.74 996.95,-14.74"/>
</g>
<!-- Node26&#45;&gt;Node15 -->
<g id="edge62" class="edge">
<title>Node26&#45;&gt;Node15</title>
<path fill="none" stroke="midnightblue" d="M262.72,-168.25C269.82,-146.61 290.87,-89.9 326,-56 341.17,-41.36 362.03,-30.53 379.85,-23.16"/>
<polygon fill="midnightblue" stroke="midnightblue" points="381.35,-26.33 389.38,-19.42 378.79,-19.82 381.35,-26.33"/>
</g>
<!-- Node26&#45;&gt;Node16 -->
<g id="edge65" class="edge">
<title>Node26&#45;&gt;Node16</title>
<path fill="none" stroke="midnightblue" d="M301.12,-168.47C343.14,-159.67 410.23,-145.38 468,-132 504.13,-123.63 512.82,-120.15 549,-112 615.17,-97.1 692.97,-81.76 736.37,-73.4"/>
<polygon fill="midnightblue" stroke="midnightblue" points="737.22,-76.8 746.38,-71.48 735.9,-69.93 737.22,-76.8"/>
</g>
<!-- Node27 -->
<g id="node27" class="node">
<title>Node27</title>
<g id="a_node27"><a xlink:href="../../db/dd3/phononBuilder_8h.html" target="_top" xlink:title=" ">
<polygon fill="none" stroke="black" points="558.5,-112.5 558.5,-131.5 653.5,-131.5 653.5,-112.5 558.5,-112.5"/>
<text text-anchor="middle" x="606" y="-119.5" font-family="Helvetica,sans-Serif" font-size="10.00">phononBuilder.h</text>
</a>
</g>
</g>
<!-- Node26&#45;&gt;Node27 -->
<g id="edge56" class="edge">
<title>Node26&#45;&gt;Node27</title>
<path fill="none" stroke="midnightblue" d="M311.8,-168.92C375.15,-159.03 482.06,-142.34 548.08,-132.04"/>
<polygon fill="midnightblue" stroke="midnightblue" points="548.97,-135.44 558.31,-130.44 547.89,-128.53 548.97,-135.44"/>
</g>
<!-- Node29 -->
<g id="node29" class="node">
<title>Node29</title>
<g id="a_node29"><a xlink:title=" ">
<polygon fill="none" stroke="#bfbfbf" points="184.5,-112.5 184.5,-131.5 235.5,-131.5 235.5,-112.5 184.5,-112.5"/>
<text text-anchor="middle" x="210" y="-119.5" font-family="Helvetica,sans-Serif" font-size="10.00">variant</text>
</a>
</g>
</g>
<!-- Node26&#45;&gt;Node29 -->
<g id="edge64" class="edge">
<title>Node26&#45;&gt;Node29</title>
<path fill="none" stroke="midnightblue" d="M251.74,-168.08C244.54,-160.3 233.89,-148.8 225.15,-139.37"/>
<polygon fill="midnightblue" stroke="midnightblue" points="227.47,-136.71 218.1,-131.75 222.33,-141.47 227.47,-136.71"/>
</g>
<!-- Node27&#45;&gt;Node11 -->
<g id="edge60" class="edge">
<title>Node27&#45;&gt;Node11</title>
<path fill="none" stroke="midnightblue" d="M653.52,-116.22C728.96,-108.53 880.7,-92.55 1009,-76 1163.28,-56.1 1347.01,-27.7 1420.39,-16.16"/>
<polygon fill="midnightblue" stroke="midnightblue" points="1421.06,-19.6 1430.4,-14.59 1419.97,-12.69 1421.06,-19.6"/>
</g>
<!-- Node27&#45;&gt;Node14 -->
<g id="edge57" class="edge">
<title>Node27&#45;&gt;Node14</title>
<path fill="none" stroke="midnightblue" d="M653.83,-113.88C725.46,-103.23 859.44,-83.3 927.31,-73.2"/>
<polygon fill="midnightblue" stroke="midnightblue" points="928.24,-76.6 937.61,-71.67 927.21,-69.68 928.24,-76.6"/>
</g>
<!-- Node27&#45;&gt;Node15 -->
<g id="edge58" class="edge">
<title>Node27&#45;&gt;Node15</title>
<path fill="none" stroke="midnightblue" d="M591.09,-112.37C558.21,-93.33 479.24,-47.62 439.58,-24.65"/>
<polygon fill="midnightblue" stroke="midnightblue" points="441.25,-21.57 430.84,-19.59 437.74,-27.63 441.25,-21.57"/>
</g>
<!-- Node28 -->
<g id="node28" class="node">
<title>Node28</title>
<g id="a_node28"><a xlink:title=" ">
<polygon fill="none" stroke="#bfbfbf" points="584.5,-56.5 584.5,-75.5 627.5,-75.5 627.5,-56.5 584.5,-56.5"/>
<text text-anchor="middle" x="606" y="-63.5" font-family="Helvetica,sans-Serif" font-size="10.00">stack</text>
</a>
</g>
</g>
<!-- Node27&#45;&gt;Node28 -->
<g id="edge59" class="edge">
<title>Node27&#45;&gt;Node28</title>
<path fill="none" stroke="midnightblue" d="M606,-112.08C606,-105.01 606,-94.86 606,-85.99"/>
<polygon fill="midnightblue" stroke="midnightblue" points="609.5,-85.75 606,-75.75 602.5,-85.75 609.5,-85.75"/>
</g>
<!-- Node30&#45;&gt;Node3 -->
<g id="edge70" class="edge">
<title>Node30&#45;&gt;Node3</title>
<path fill="none" stroke="midnightblue" d="M512.74,-280.44C480.04,-271.2 427.82,-256.44 391.82,-246.26"/>
<polygon fill="midnightblue" stroke="midnightblue" points="392.7,-242.87 382.12,-243.52 390.79,-249.61 392.7,-242.87"/>
</g>
<!-- Node30&#45;&gt;Node9 -->
<g id="edge71" class="edge">
<title>Node30&#45;&gt;Node9</title>
<path fill="none" stroke="midnightblue" d="M592.69,-281.04C639.91,-273.07 712.76,-259.77 775,-244 980.44,-191.96 1221.44,-108.46 1306.42,-78.32"/>
<polygon fill="midnightblue" stroke="midnightblue" points="1307.75,-81.56 1316,-74.91 1305.4,-74.96 1307.75,-81.56"/>
</g>
<!-- Node30&#45;&gt;Node15 -->
<g id="edge69" class="edge">
<title>Node30&#45;&gt;Node15</title>
<path fill="none" stroke="midnightblue" d="M532.19,-280.4C494.87,-250.58 373.23,-152.38 364,-132 350.06,-101.23 349.96,-86.72 364,-56 369.78,-43.36 381.05,-32.91 391.63,-25.27"/>
<polygon fill="midnightblue" stroke="midnightblue" points="393.85,-28 400.22,-19.53 389.96,-22.18 393.85,-28"/>
</g>
<!-- Node30&#45;&gt;Node16 -->
<g id="edge72" class="edge">
<title>Node30&#45;&gt;Node16</title>
<path fill="none" stroke="midnightblue" d="M552.29,-280.39C560.58,-272.02 572.14,-258.48 577,-244 579.83,-235.57 579.88,-232.41 577,-224 570.42,-204.83 555.58,-207.17 549,-188 546.12,-179.59 543.51,-174.99 549,-168 590.52,-115.08 636.35,-163.09 696,-132 719.8,-119.6 742.23,-97.97 756.02,-83.09"/>
<polygon fill="midnightblue" stroke="midnightblue" points="758.66,-85.4 762.75,-75.62 753.46,-80.71 758.66,-85.4"/>
</g>
<!-- Node30&#45;&gt;Node22 -->
<g id="edge67" class="edge">
<title>Node30&#45;&gt;Node22</title>
<path fill="none" stroke="midnightblue" d="M573.9,-280.44C607.96,-271.01 662.8,-255.83 699.6,-245.63"/>
<polygon fill="midnightblue" stroke="midnightblue" points="700.76,-248.94 709.47,-242.9 698.9,-242.2 700.76,-248.94"/>
</g>
<!-- Node31 -->
<g id="node31" class="node">
<title>Node31</title>
<g id="a_node31"><a xlink:title=" ">
<polygon fill="none" stroke="#bfbfbf" points="518,-224.5 518,-243.5 568,-243.5 568,-224.5 518,-224.5"/>
<text text-anchor="middle" x="543" y="-231.5" font-family="Helvetica,sans-Serif" font-size="10.00">chrono</text>
</a>
</g>
</g>
<!-- Node30&#45;&gt;Node31 -->
<g id="edge68" class="edge">
<title>Node30&#45;&gt;Node31</title>
<path fill="none" stroke="midnightblue" d="M543,-280.08C543,-273.01 543,-262.86 543,-253.99"/>
<polygon fill="midnightblue" stroke="midnightblue" points="546.5,-253.75 543,-243.75 539.5,-253.75 546.5,-253.75"/>
</g>
<!-- Node32&#45;&gt;Node15 -->
<g id="edge77" class="edge">
<title>Node32&#45;&gt;Node15</title>
<path fill="none" stroke="midnightblue" d="M653.62,-280.44C623.81,-257.78 541.59,-193.74 481,-132 458.44,-109.01 450.05,-104.48 435,-76 427.28,-61.38 422.31,-43.21 419.39,-29.8"/>
<polygon fill="midnightblue" stroke="midnightblue" points="422.8,-28.96 417.42,-19.84 415.93,-30.33 422.8,-28.96"/>
</g>
<!-- Node32&#45;&gt;Node16 -->
<g id="edge78" class="edge">
<title>Node32&#45;&gt;Node16</title>
<path fill="none" stroke="midnightblue" d="M669,-280.49C678.28,-260.72 702.04,-210.19 722,-168 735.79,-138.86 751.88,-105.03 761.49,-84.85"/>
<polygon fill="midnightblue" stroke="midnightblue" points="764.74,-86.18 765.88,-75.64 758.42,-83.16 764.74,-86.18"/>
</g>
<!-- Node32&#45;&gt;Node22 -->
<g id="edge76" class="edge">
<title>Node32&#45;&gt;Node22</title>
<path fill="none" stroke="midnightblue" d="M676.73,-280.32C687.84,-272.11 704.74,-259.6 717.98,-249.81"/>
<polygon fill="midnightblue" stroke="midnightblue" points="720.1,-252.59 726.06,-243.83 715.94,-246.97 720.1,-252.59"/>
</g>
</g>
</svg>
