<?xml version="1.0" encoding="UTF-8" standalone="no"?>
<!DOCTYPE svg PUBLIC "-//W3C//DTD SVG 1.1//EN"
 "http://www.w3.org/Graphics/SVG/1.1/DTD/svg11.dtd">
<!-- Generated by graphviz version 2.43.0 (0)
 -->
<!-- Title: main Pages: 1 -->
<svg width="636pt" height="123pt"
 viewBox="0.00 0.00 636.00 123.00" xmlns="http://www.w3.org/2000/svg" xmlns:xlink="http://www.w3.org/1999/xlink">
<g id="graph0" class="graph" transform="scale(1 1) rotate(0) translate(4 119)">
<title>main</title>
<!-- Node1 -->
<g id="node1" class="node">
<title>Node1</title>
<g id="a_node1"><a xlink:title=" ">
<polygon fill="#bfbfbf" stroke="black" points="0,-38.5 0,-57.5 41,-57.5 41,-38.5 0,-38.5"/>
<text text-anchor="middle" x="20.5" y="-45.5" font-family="Helvetica,sans-Serif" font-size="10.00">main</text>
</a>
</g>
</g>
<!-- Node2 -->
<g id="node2" class="node">
<title>Node2</title>
<g id="a_node2"><a xlink:href="../../d5/d39/classInputManager.html#aa78ebe717da9ff99979e6501403779e2" target="_top" xlink:title=" ">
<polygon fill="none" stroke="black" points="77,-57.5 77,-76.5 220,-76.5 220,-57.5 77,-57.5"/>
<text text-anchor="middle" x="148.5" y="-64.5" font-family="Helvetica,sans-Serif" font-size="10.00">InputManager::deserialize</text>
</a>
</g>
</g>
<!-- Node1&#45;&gt;Node2 -->
<g id="edge1" class="edge">
<title>Node1&#45;&gt;Node2</title>
<path fill="none" stroke="midnightblue" d="M41.19,-50.97C50.47,-52.37 62.19,-54.14 74.43,-55.98"/>
<polygon fill="midnightblue" stroke="midnightblue" points="73.91,-59.44 84.32,-57.47 74.95,-52.52 73.91,-59.44"/>
</g>
<!-- Node8 -->
<g id="node8" class="node">
<title>Node8</title>
<g id="a_node8"><a xlink:href="../../dc/dea/classTimer.html#a2527af37d206ae67c9f912c8da67e082" target="_top" xlink:title=" ">
<polygon fill="none" stroke="black" points="90.5,-19.5 90.5,-38.5 206.5,-38.5 206.5,-19.5 90.5,-19.5"/>
<text text-anchor="middle" x="148.5" y="-26.5" font-family="Helvetica,sans-Serif" font-size="10.00">Timer::get_time_diff</text>
</a>
</g>
</g>
<!-- Node1&#45;&gt;Node8 -->
<g id="edge7" class="edge">
<title>Node1&#45;&gt;Node8</title>
<path fill="none" stroke="midnightblue" d="M41.19,-45.03C51.98,-43.4 66.07,-41.28 80.44,-39.11"/>
<polygon fill="midnightblue" stroke="midnightblue" points="81.03,-42.56 90.4,-37.61 79.99,-35.64 81.03,-42.56"/>
</g>
<!-- Node3 -->
<g id="node3" class="node">
<title>Node3</title>
<g id="a_node3"><a xlink:href="../../d6/d18/classModel.html#ae01870b09072266df016ee00c7753f49" target="_top" xlink:title=" ">
<polygon fill="none" stroke="black" points="275.5,-95.5 275.5,-114.5 379.5,-114.5 379.5,-95.5 275.5,-95.5"/>
<text text-anchor="middle" x="327.5" y="-102.5" font-family="Helvetica,sans-Serif" font-size="10.00">Model::addSensor</text>
</a>
</g>
</g>
<!-- Node2&#45;&gt;Node3 -->
<g id="edge2" class="edge">
<title>Node2&#45;&gt;Node3</title>
<path fill="none" stroke="midnightblue" d="M194.16,-76.59C217.84,-81.67 247.11,-87.96 272.1,-93.32"/>
<polygon fill="midnightblue" stroke="midnightblue" points="271.64,-96.8 282.16,-95.48 273.11,-89.96 271.64,-96.8"/>
</g>
<!-- Node4 -->
<g id="node4" class="node">
<title>Node4</title>
<g id="a_node4"><a xlink:href="../../d6/d18/classModel.html#ad5a2ea46701f29eadc1a5a236bb12eb8" target="_top" xlink:title=" ">
<polygon fill="none" stroke="black" points="264,-57.5 264,-76.5 391,-76.5 391,-57.5 264,-57.5"/>
<text text-anchor="middle" x="327.5" y="-64.5" font-family="Helvetica,sans-Serif" font-size="10.00">Model::setEmitSurface</text>
</a>
</g>
</g>
<!-- Node2&#45;&gt;Node4 -->
<g id="edge3" class="edge">
<title>Node2&#45;&gt;Node4</title>
<path fill="none" stroke="midnightblue" d="M220.22,-67C231.28,-67 242.72,-67 253.82,-67"/>
<polygon fill="midnightblue" stroke="midnightblue" points="253.9,-70.5 263.9,-67 253.9,-63.5 253.9,-70.5"/>
</g>
<!-- Node5 -->
<g id="node5" class="node">
<title>Node5</title>
<g id="a_node5"><a xlink:href="../../d6/d18/classModel.html#a5a1a8f2b95d4ae9931313225278bd715" target="_top" xlink:title=" ">
<polygon fill="none" stroke="black" points="256,-19.5 256,-38.5 399,-38.5 399,-19.5 256,-19.5"/>
<text text-anchor="middle" x="327.5" y="-26.5" font-family="Helvetica,sans-Serif" font-size="10.00">Model::setSimulationType</text>
</a>
</g>
</g>
<!-- Node2&#45;&gt;Node5 -->
<g id="edge4" class="edge">
<title>Node2&#45;&gt;Node5</title>
<path fill="none" stroke="midnightblue" d="M194.16,-57.41C217.84,-52.33 247.11,-46.04 272.1,-40.68"/>
<polygon fill="midnightblue" stroke="midnightblue" points="273.11,-44.04 282.16,-38.52 271.64,-37.2 273.11,-44.04"/>
</g>
<!-- Node6 -->
<g id="node6" class="node">
<title>Node6</title>
<g id="a_node6"><a xlink:href="../../df/dce/classModelSimulator.html#a0936c8625ed5b91e568b01e13ebe9ab0" target="_top" xlink:title=" ">
<polygon fill="none" stroke="black" points="435,-38.5 435,-57.5 628,-57.5 628,-38.5 435,-38.5"/>
<text text-anchor="middle" x="531.5" y="-45.5" font-family="Helvetica,sans-Serif" font-size="10.00">ModelSimulator::setStepAdjustment</text>
</a>
</g>
</g>
<!-- Node5&#45;&gt;Node6 -->
<g id="edge5" class="edge">
<title>Node5&#45;&gt;Node6</title>
<path fill="none" stroke="midnightblue" d="M399.15,-35.65C407.41,-36.42 415.97,-37.23 424.57,-38.04"/>
<polygon fill="midnightblue" stroke="midnightblue" points="424.4,-41.54 434.68,-38.99 425.05,-34.57 424.4,-41.54"/>
</g>
<!-- Node7 -->
<g id="node7" class="node">
<title>Node7</title>
<g id="a_node7"><a xlink:href="../../d1/d22/classOutputManager.html#a8422b62b1bd3f6136fdf971bebaca414" target="_top" xlink:title=" ">
<polygon fill="none" stroke="black" points="445,-0.5 445,-19.5 618,-19.5 618,-0.5 445,-0.5"/>
<text text-anchor="middle" x="531.5" y="-7.5" font-family="Helvetica,sans-Serif" font-size="10.00">OutputManager::setStepInterval</text>
</a>
</g>
</g>
<!-- Node5&#45;&gt;Node7 -->
<g id="edge6" class="edge">
<title>Node5&#45;&gt;Node7</title>
<path fill="none" stroke="midnightblue" d="M399.15,-22.35C410.7,-21.27 422.84,-20.13 434.88,-18.99"/>
<polygon fill="midnightblue" stroke="midnightblue" points="435.32,-22.47 444.95,-18.05 434.67,-15.5 435.32,-22.47"/>
</g>
</g>
</svg>
