<?xml version="1.0" encoding="UTF-8" standalone="no"?>
<!DOCTYPE svg PUBLIC "-//W3C//DTD SVG 1.1//EN"
 "http://www.w3.org/Graphics/SVG/1.1/DTD/svg11.dtd">
<!-- Generated by graphviz version 2.43.0 (0)
 -->
<!-- Title: psim/src/surface.cpp Pages: 1 -->
<svg width="1313pt" height="364pt"
 viewBox="0.00 0.00 1313.40 364.00" xmlns="http://www.w3.org/2000/svg" xmlns:xlink="http://www.w3.org/1999/xlink">
<g id="graph0" class="graph" transform="scale(1 1) rotate(0) translate(4 360)">
<title>psim/src/surface.cpp</title>
<!-- Node1 -->
<g id="node1" class="node">
<title>Node1</title>
<g id="a_node1"><a xlink:title=" ">
<polygon fill="#bfbfbf" stroke="black" points="468.9,-336.5 468.9,-355.5 585.9,-355.5 585.9,-336.5 468.9,-336.5"/>
<text text-anchor="middle" x="527.4" y="-343.5" font-family="Helvetica,sans-Serif" font-size="10.00">psim/src/surface.cpp</text>
</a>
</g>
</g>
<!-- Node2 -->
<g id="node2" class="node">
<title>Node2</title>
<g id="a_node2"><a xlink:href="../../d4/d67/geometry_8h.html" target="_top" xlink:title=" ">
<polygon fill="none" stroke="black" points="115.4,-112.5 115.4,-131.5 213.4,-131.5 213.4,-112.5 115.4,-112.5"/>
<text text-anchor="middle" x="164.4" y="-119.5" font-family="Helvetica,sans-Serif" font-size="10.00">psim/geometry.h</text>
</a>
</g>
</g>
<!-- Node1&#45;&gt;Node2 -->
<g id="edge1" class="edge">
<title>Node1&#45;&gt;Node2</title>
<path fill="none" stroke="midnightblue" d="M468.72,-345.34C390.01,-342.47 251.07,-325.25 172.4,-244 146.13,-216.87 152.74,-168.35 159.06,-141.74"/>
<polygon fill="midnightblue" stroke="midnightblue" points="162.51,-142.36 161.65,-131.8 155.74,-140.6 162.51,-142.36"/>
</g>
<!-- Node9 -->
<g id="node9" class="node">
<title>Node9</title>
<g id="a_node9"><a xlink:title=" ">
<polygon fill="none" stroke="#bfbfbf" points="120.9,-0.5 120.9,-19.5 165.9,-19.5 165.9,-0.5 120.9,-0.5"/>
<text text-anchor="middle" x="143.4" y="-7.5" font-family="Helvetica,sans-Serif" font-size="10.00">utility</text>
</a>
</g>
</g>
<!-- Node1&#45;&gt;Node9 -->
<g id="edge56" class="edge">
<title>Node1&#45;&gt;Node9</title>
<path fill="none" stroke="midnightblue" d="M468.73,-345C331.37,-343.43 0.4,-329.81 0.4,-235 0.4,-235 0.4,-235 0.4,-121 0.4,-90.9 -1.2,-77.95 19.4,-56 43.3,-30.53 82.73,-19.43 110.71,-14.63"/>
<polygon fill="midnightblue" stroke="midnightblue" points="111.46,-18.05 120.81,-13.08 110.4,-11.13 111.46,-18.05"/>
</g>
<!-- Node10 -->
<g id="node10" class="node">
<title>Node10</title>
<g id="a_node10"><a xlink:href="../../d3/d65/material_8h.html" target="_top" xlink:title=" ">
<polygon fill="none" stroke="black" points="605.4,-112.5 605.4,-131.5 699.4,-131.5 699.4,-112.5 605.4,-112.5"/>
<text text-anchor="middle" x="652.4" y="-119.5" font-family="Helvetica,sans-Serif" font-size="10.00">psim/material.h</text>
</a>
</g>
</g>
<!-- Node1&#45;&gt;Node10 -->
<g id="edge9" class="edge">
<title>Node1&#45;&gt;Node10</title>
<path fill="none" stroke="midnightblue" d="M586.16,-341.79C615.59,-336.85 648.83,-325.48 667.4,-300 702.46,-251.89 676.12,-175.7 661.04,-141.13"/>
<polygon fill="midnightblue" stroke="midnightblue" points="664.13,-139.46 656.8,-131.81 657.76,-142.36 664.13,-139.46"/>
</g>
<!-- Node11 -->
<g id="node11" class="node">
<title>Node11</title>
<g id="a_node11"><a xlink:href="../../d3/d34/phonon_8h.html" target="_top" xlink:title=" ">
<polygon fill="none" stroke="black" points="567.4,-56.5 567.4,-75.5 629.4,-75.5 629.4,-56.5 567.4,-56.5"/>
<text text-anchor="middle" x="598.4" y="-63.5" font-family="Helvetica,sans-Serif" font-size="10.00">phonon.h</text>
</a>
</g>
</g>
<!-- Node1&#45;&gt;Node11 -->
<g id="edge19" class="edge">
<title>Node1&#45;&gt;Node11</title>
<path fill="none" stroke="midnightblue" d="M577.17,-336.45C598.23,-330.1 620.76,-319.09 633.4,-300 638.3,-292.59 634.48,-288.82 633.4,-280 625.11,-212.71 604.68,-199.29 596.4,-132 594.5,-116.57 595.22,-98.94 596.29,-85.94"/>
<polygon fill="midnightblue" stroke="midnightblue" points="599.79,-86.16 597.27,-75.87 592.82,-85.49 599.79,-86.16"/>
</g>
<!-- Node14 -->
<g id="node14" class="node">
<title>Node14</title>
<g id="a_node14"><a xlink:title=" ">
<polygon fill="none" stroke="#bfbfbf" points="495.4,-280.5 495.4,-299.5 559.4,-299.5 559.4,-280.5 495.4,-280.5"/>
<text text-anchor="middle" x="527.4" y="-287.5" font-family="Helvetica,sans-Serif" font-size="10.00">algorithm</text>
</a>
</g>
</g>
<!-- Node1&#45;&gt;Node14 -->
<g id="edge20" class="edge">
<title>Node1&#45;&gt;Node14</title>
<path fill="none" stroke="midnightblue" d="M527.4,-336.08C527.4,-329.01 527.4,-318.86 527.4,-309.99"/>
<polygon fill="midnightblue" stroke="midnightblue" points="530.9,-309.75 527.4,-299.75 523.9,-309.75 530.9,-309.75"/>
</g>
<!-- Node15 -->
<g id="node15" class="node">
<title>Node15</title>
<g id="a_node15"><a xlink:title=" ">
<polygon fill="none" stroke="#bfbfbf" points="577.9,-280.5 577.9,-299.5 624.9,-299.5 624.9,-280.5 577.9,-280.5"/>
<text text-anchor="middle" x="601.4" y="-287.5" font-family="Helvetica,sans-Serif" font-size="10.00">cmath</text>
</a>
</g>
</g>
<!-- Node1&#45;&gt;Node15 -->
<g id="edge21" class="edge">
<title>Node1&#45;&gt;Node15</title>
<path fill="none" stroke="midnightblue" d="M539.29,-336.32C550.55,-328.11 567.68,-315.6 581.11,-305.81"/>
<polygon fill="midnightblue" stroke="midnightblue" points="583.28,-308.56 589.29,-299.83 579.15,-302.9 583.28,-308.56"/>
</g>
<!-- Node16 -->
<g id="node16" class="node">
<title>Node16</title>
<g id="a_node16"><a xlink:href="../../d0/ddd/cell_8h.html" target="_top" xlink:title=" ">
<polygon fill="none" stroke="black" points="407.4,-280.5 407.4,-299.5 477.4,-299.5 477.4,-280.5 407.4,-280.5"/>
<text text-anchor="middle" x="442.4" y="-287.5" font-family="Helvetica,sans-Serif" font-size="10.00">psim/cell.h</text>
</a>
</g>
</g>
<!-- Node1&#45;&gt;Node16 -->
<g id="edge22" class="edge">
<title>Node1&#45;&gt;Node16</title>
<path fill="none" stroke="midnightblue" d="M513.74,-336.32C500.48,-327.9 480.13,-314.97 464.55,-305.07"/>
<polygon fill="midnightblue" stroke="midnightblue" points="466.34,-302.06 456.02,-299.65 462.59,-307.97 466.34,-302.06"/>
</g>
<!-- Node18 -->
<g id="node18" class="node">
<title>Node18</title>
<g id="a_node18"><a xlink:href="../../d2/d69/surface_8h.html" target="_top" xlink:title=" ">
<polygon fill="none" stroke="black" points="345.4,-168.5 345.4,-187.5 407.4,-187.5 407.4,-168.5 345.4,-168.5"/>
<text text-anchor="middle" x="376.4" y="-175.5" font-family="Helvetica,sans-Serif" font-size="10.00">surface.h</text>
</a>
</g>
</g>
<!-- Node1&#45;&gt;Node18 -->
<g id="edge52" class="edge">
<title>Node1&#45;&gt;Node18</title>
<path fill="none" stroke="midnightblue" d="M468.58,-337.79C443.48,-331.72 415.97,-320.55 398.4,-300 373.62,-271.02 372.7,-223.6 374.42,-197.56"/>
<polygon fill="midnightblue" stroke="midnightblue" points="377.91,-197.8 375.28,-187.53 370.94,-197.19 377.91,-197.8"/>
</g>
<!-- Node24 -->
<g id="node24" class="node">
<title>Node24</title>
<g id="a_node24"><a xlink:href="../../d5/d60/utils_8h.html" target="_top" xlink:title=" ">
<polygon fill="none" stroke="black" points="1072.4,-280.5 1072.4,-299.5 1146.4,-299.5 1146.4,-280.5 1072.4,-280.5"/>
<text text-anchor="middle" x="1109.4" y="-287.5" font-family="Helvetica,sans-Serif" font-size="10.00">psim/utils.h</text>
</a>
</g>
</g>
<!-- Node1&#45;&gt;Node24 -->
<g id="edge53" class="edge">
<title>Node1&#45;&gt;Node24</title>
<path fill="none" stroke="midnightblue" d="M586.14,-339.55C701.78,-328.82 956.86,-305.15 1062.33,-295.37"/>
<polygon fill="midnightblue" stroke="midnightblue" points="1062.72,-298.85 1072.36,-294.44 1062.08,-291.88 1062.72,-298.85"/>
</g>
<!-- Node3 -->
<g id="node3" class="node">
<title>Node3</title>
<g id="a_node3"><a xlink:title=" ">
<polygon fill="none" stroke="#bfbfbf" points="606.4,-0.5 606.4,-19.5 648.4,-19.5 648.4,-0.5 606.4,-0.5"/>
<text text-anchor="middle" x="627.4" y="-7.5" font-family="Helvetica,sans-Serif" font-size="10.00">array</text>
</a>
</g>
</g>
<!-- Node2&#45;&gt;Node3 -->
<g id="edge2" class="edge">
<title>Node2&#45;&gt;Node3</title>
<path fill="none" stroke="midnightblue" d="M182.9,-112.38C201.61,-103.56 231.26,-89.31 256.4,-76 272.23,-67.62 274.43,-61.74 291.4,-56 399.22,-19.53 535.88,-12.48 596.28,-11.21"/>
<polygon fill="midnightblue" stroke="midnightblue" points="596.38,-14.71 606.31,-11.04 596.26,-7.71 596.38,-14.71"/>
</g>
<!-- Node4 -->
<g id="node4" class="node">
<title>Node4</title>
<g id="a_node4"><a xlink:title=" ">
<polygon fill="none" stroke="#bfbfbf" points="28.9,-56.5 28.9,-75.5 93.9,-75.5 93.9,-56.5 28.9,-56.5"/>
<text text-anchor="middle" x="61.4" y="-63.5" font-family="Helvetica,sans-Serif" font-size="10.00">exception</text>
</a>
</g>
</g>
<!-- Node2&#45;&gt;Node4 -->
<g id="edge3" class="edge">
<title>Node2&#45;&gt;Node4</title>
<path fill="none" stroke="midnightblue" d="M147.85,-112.32C131.41,-103.7 105.96,-90.36 86.93,-80.39"/>
<polygon fill="midnightblue" stroke="midnightblue" points="88.39,-77.2 77.91,-75.65 85.14,-83.4 88.39,-77.2"/>
</g>
<!-- Node5 -->
<g id="node5" class="node">
<title>Node5</title>
<g id="a_node5"><a xlink:title=" ">
<polygon fill="none" stroke="#bfbfbf" points="150.4,-56.5 150.4,-75.5 206.4,-75.5 206.4,-56.5 150.4,-56.5"/>
<text text-anchor="middle" x="178.4" y="-63.5" font-family="Helvetica,sans-Serif" font-size="10.00">optional</text>
</a>
</g>
</g>
<!-- Node2&#45;&gt;Node5 -->
<g id="edge4" class="edge">
<title>Node2&#45;&gt;Node5</title>
<path fill="none" stroke="midnightblue" d="M166.71,-112.08C168.57,-104.93 171.23,-94.64 173.55,-85.69"/>
<polygon fill="midnightblue" stroke="midnightblue" points="177.01,-86.31 176.13,-75.75 170.23,-84.55 177.01,-86.31"/>
</g>
<!-- Node6 -->
<g id="node6" class="node">
<title>Node6</title>
<g id="a_node6"><a xlink:title=" ">
<polygon fill="none" stroke="#bfbfbf" points="367.9,-0.5 367.9,-19.5 424.9,-19.5 424.9,-0.5 367.9,-0.5"/>
<text text-anchor="middle" x="396.4" y="-7.5" font-family="Helvetica,sans-Serif" font-size="10.00">ostream</text>
</a>
</g>
</g>
<!-- Node2&#45;&gt;Node6 -->
<g id="edge5" class="edge">
<title>Node2&#45;&gt;Node6</title>
<path fill="none" stroke="midnightblue" d="M174.76,-112.31C191.44,-98.7 225.69,-72.21 258.4,-56 290.47,-40.1 329.44,-27.99 357.78,-20.36"/>
<polygon fill="midnightblue" stroke="midnightblue" points="358.92,-23.68 367.71,-17.75 357.15,-16.91 358.92,-23.68"/>
</g>
<!-- Node7 -->
<g id="node7" class="node">
<title>Node7</title>
<g id="a_node7"><a xlink:title=" ">
<polygon fill="none" stroke="#bfbfbf" points="392.4,-56.5 392.4,-75.5 436.4,-75.5 436.4,-56.5 392.4,-56.5"/>
<text text-anchor="middle" x="414.4" y="-63.5" font-family="Helvetica,sans-Serif" font-size="10.00">string</text>
</a>
</g>
</g>
<!-- Node2&#45;&gt;Node7 -->
<g id="edge6" class="edge">
<title>Node2&#45;&gt;Node7</title>
<path fill="none" stroke="midnightblue" d="M210.54,-112.46C252.65,-104.44 316.8,-91.68 382.02,-75.94"/>
<polygon fill="midnightblue" stroke="midnightblue" points="383.18,-79.26 392.07,-73.5 381.53,-72.46 383.18,-79.26"/>
</g>
<!-- Node8 -->
<g id="node8" class="node">
<title>Node8</title>
<g id="a_node8"><a xlink:title=" ">
<polygon fill="none" stroke="#bfbfbf" points="300.9,-56.5 300.9,-75.5 373.9,-75.5 373.9,-56.5 300.9,-56.5"/>
<text text-anchor="middle" x="337.4" y="-63.5" font-family="Helvetica,sans-Serif" font-size="10.00">string_view</text>
</a>
</g>
</g>
<!-- Node2&#45;&gt;Node8 -->
<g id="edge7" class="edge">
<title>Node2&#45;&gt;Node8</title>
<path fill="none" stroke="midnightblue" d="M191.81,-112.44C221.17,-103.28 267.92,-88.69 300.49,-78.52"/>
<polygon fill="midnightblue" stroke="midnightblue" points="301.61,-81.84 310.11,-75.52 299.53,-75.16 301.61,-81.84"/>
</g>
<!-- Node2&#45;&gt;Node9 -->
<g id="edge8" class="edge">
<title>Node2&#45;&gt;Node9</title>
<path fill="none" stroke="midnightblue" d="M158.29,-112.19C152.64,-103.46 144.64,-89.48 141.4,-76 137.72,-60.72 138.63,-42.83 140.23,-29.7"/>
<polygon fill="midnightblue" stroke="midnightblue" points="143.73,-29.96 141.72,-19.56 136.81,-28.95 143.73,-29.96"/>
</g>
<!-- Node10&#45;&gt;Node3 -->
<g id="edge15" class="edge">
<title>Node10&#45;&gt;Node3</title>
<path fill="none" stroke="midnightblue" d="M650.57,-112.15C647.97,-99.63 643,-76.03 638.4,-56 636.39,-47.27 634.05,-37.62 632.04,-29.5"/>
<polygon fill="midnightblue" stroke="midnightblue" points="635.39,-28.47 629.58,-19.61 628.6,-30.16 635.39,-28.47"/>
</g>
<!-- Node10&#45;&gt;Node9 -->
<g id="edge17" class="edge">
<title>Node10&#45;&gt;Node9</title>
<path fill="none" stroke="midnightblue" d="M629.44,-112.49C591.59,-98.76 513.49,-71.66 445.4,-56 348.58,-33.73 231.65,-19.95 175.96,-14.16"/>
<polygon fill="midnightblue" stroke="midnightblue" points="176.28,-10.68 165.98,-13.14 175.57,-17.64 176.28,-10.68"/>
</g>
<!-- Node10&#45;&gt;Node11 -->
<g id="edge10" class="edge">
<title>Node10&#45;&gt;Node11</title>
<path fill="none" stroke="midnightblue" d="M643.48,-112.08C635.62,-104.22 623.97,-92.57 614.48,-83.08"/>
<polygon fill="midnightblue" stroke="midnightblue" points="616.7,-80.35 607.15,-75.75 611.75,-85.3 616.7,-80.35"/>
</g>
<!-- Node12 -->
<g id="node12" class="node">
<title>Node12</title>
<g id="a_node12"><a xlink:title=" ">
<polygon fill="none" stroke="#bfbfbf" points="1120.9,-0.5 1120.9,-19.5 1173.9,-19.5 1173.9,-0.5 1120.9,-0.5"/>
<text text-anchor="middle" x="1147.4" y="-7.5" font-family="Helvetica,sans-Serif" font-size="10.00">cstddef</text>
</a>
</g>
</g>
<!-- Node10&#45;&gt;Node12 -->
<g id="edge16" class="edge">
<title>Node10&#45;&gt;Node12</title>
<path fill="none" stroke="midnightblue" d="M676.94,-112.4C716.56,-98.79 797.29,-72.15 867.4,-56 953.53,-36.15 1056.56,-22.01 1110.43,-15.33"/>
<polygon fill="midnightblue" stroke="midnightblue" points="1111.03,-18.79 1120.53,-14.1 1110.18,-11.84 1111.03,-18.79"/>
</g>
<!-- Node13 -->
<g id="node13" class="node">
<title>Node13</title>
<g id="a_node13"><a xlink:title=" ">
<polygon fill="none" stroke="#bfbfbf" points="876.9,-56.5 876.9,-75.5 923.9,-75.5 923.9,-56.5 876.9,-56.5"/>
<text text-anchor="middle" x="900.4" y="-63.5" font-family="Helvetica,sans-Serif" font-size="10.00">vector</text>
</a>
</g>
</g>
<!-- Node10&#45;&gt;Node13 -->
<g id="edge18" class="edge">
<title>Node10&#45;&gt;Node13</title>
<path fill="none" stroke="midnightblue" d="M691.69,-112.44C739.97,-101.93 821.06,-84.28 866.65,-74.35"/>
<polygon fill="midnightblue" stroke="midnightblue" points="867.6,-77.72 876.62,-72.18 866.11,-70.88 867.6,-77.72"/>
</g>
<!-- Node11&#45;&gt;Node3 -->
<g id="edge11" class="edge">
<title>Node11&#45;&gt;Node3</title>
<path fill="none" stroke="midnightblue" d="M603.19,-56.08C607.16,-48.69 612.92,-37.95 617.83,-28.81"/>
<polygon fill="midnightblue" stroke="midnightblue" points="621.05,-30.22 622.7,-19.75 614.88,-26.91 621.05,-30.22"/>
</g>
<!-- Node11&#45;&gt;Node6 -->
<g id="edge13" class="edge">
<title>Node11&#45;&gt;Node6</title>
<path fill="none" stroke="midnightblue" d="M567.28,-56.68C531.62,-47.15 473.17,-31.52 434.73,-21.25"/>
<polygon fill="midnightblue" stroke="midnightblue" points="435.5,-17.83 424.94,-18.63 433.7,-24.59 435.5,-17.83"/>
</g>
<!-- Node11&#45;&gt;Node9 -->
<g id="edge14" class="edge">
<title>Node11&#45;&gt;Node9</title>
<path fill="none" stroke="midnightblue" d="M567.12,-61.29C484.43,-51.47 260.57,-24.91 176.18,-14.89"/>
<polygon fill="midnightblue" stroke="midnightblue" points="176.48,-11.4 166.14,-13.7 175.66,-18.35 176.48,-11.4"/>
</g>
<!-- Node11&#45;&gt;Node12 -->
<g id="edge12" class="edge">
<title>Node11&#45;&gt;Node12</title>
<path fill="none" stroke="midnightblue" d="M629.49,-61.94C724.13,-52.63 1008.46,-24.67 1110.47,-14.63"/>
<polygon fill="midnightblue" stroke="midnightblue" points="1110.98,-18.1 1120.59,-13.64 1110.3,-11.13 1110.98,-18.1"/>
</g>
<!-- Node16&#45;&gt;Node2 -->
<g id="edge33" class="edge">
<title>Node16&#45;&gt;Node2</title>
<path fill="none" stroke="midnightblue" d="M407.17,-287.49C345.08,-284.08 219.86,-273.63 189.4,-244 161.81,-217.16 160.61,-168.5 162.37,-141.79"/>
<polygon fill="midnightblue" stroke="midnightblue" points="165.88,-141.78 163.26,-131.52 158.91,-141.18 165.88,-141.78"/>
</g>
<!-- Node16&#45;&gt;Node3 -->
<g id="edge46" class="edge">
<title>Node16&#45;&gt;Node3</title>
<path fill="none" stroke="midnightblue" d="M458.42,-280.48C485.97,-264.54 539.4,-227.38 539.4,-179 539.4,-179 539.4,-179 539.4,-121 539.4,-90.9 540.46,-80.17 558.4,-56 568.44,-42.47 583.85,-31.86 597.57,-24.35"/>
<polygon fill="midnightblue" stroke="midnightblue" points="599.41,-27.34 606.7,-19.65 596.21,-21.12 599.41,-27.34"/>
</g>
<!-- Node16&#45;&gt;Node4 -->
<g id="edge48" class="edge">
<title>Node16&#45;&gt;Node4</title>
<path fill="none" stroke="midnightblue" d="M407.31,-286.33C343.52,-280.96 211.53,-267.34 172.4,-244 111.15,-207.47 78.51,-122.66 66.66,-85.27"/>
<polygon fill="midnightblue" stroke="midnightblue" points="70,-84.23 63.75,-75.67 63.31,-86.26 70,-84.23"/>
</g>
<!-- Node16&#45;&gt;Node7 -->
<g id="edge50" class="edge">
<title>Node16&#45;&gt;Node7</title>
<path fill="none" stroke="midnightblue" d="M449.16,-280.24C463.64,-260.37 495.32,-210.32 482.4,-168 472.12,-134.34 446.45,-101.74 429.75,-83.06"/>
<polygon fill="midnightblue" stroke="midnightblue" points="432.15,-80.49 422.8,-75.5 427,-85.23 432.15,-80.49"/>
</g>
<!-- Node16&#45;&gt;Node8 -->
<g id="edge51" class="edge">
<title>Node16&#45;&gt;Node8</title>
<path fill="none" stroke="midnightblue" d="M407.25,-286.83C352.43,-282.63 250.53,-271.27 228.4,-244 183.29,-188.42 273.5,-112.72 316.43,-81.44"/>
<polygon fill="midnightblue" stroke="midnightblue" points="318.47,-84.28 324.57,-75.62 314.4,-78.59 318.47,-84.28"/>
</g>
<!-- Node16&#45;&gt;Node10 -->
<g id="edge34" class="edge">
<title>Node16&#45;&gt;Node10</title>
<path fill="none" stroke="midnightblue" d="M475.18,-280.45C498.52,-273.28 529.8,-261.39 553.4,-244 593.12,-214.73 626.34,-166.02 642.27,-140.23"/>
<polygon fill="midnightblue" stroke="midnightblue" points="645.34,-141.93 647.51,-131.56 639.34,-138.31 645.34,-141.93"/>
</g>
<!-- Node16&#45;&gt;Node12 -->
<g id="edge47" class="edge">
<title>Node16&#45;&gt;Node12</title>
<path fill="none" stroke="midnightblue" d="M477.87,-281.35C480.75,-280.85 483.62,-280.39 486.4,-280 687.7,-251.58 741.48,-274.99 942.4,-244 1069.09,-224.46 1223.4,-307.19 1223.4,-179 1223.4,-179 1223.4,-179 1223.4,-121 1223.4,-81.28 1189.43,-45.5 1166.92,-26.15"/>
<polygon fill="midnightblue" stroke="midnightblue" points="1168.88,-23.24 1158.94,-19.57 1164.42,-28.63 1168.88,-23.24"/>
</g>
<!-- Node17 -->
<g id="node17" class="node">
<title>Node17</title>
<g id="a_node17"><a xlink:href="../../d8/d77/compositeSurface_8h.html" target="_top" xlink:title=" ">
<polygon fill="none" stroke="black" points="237.9,-224.5 237.9,-243.5 350.9,-243.5 350.9,-224.5 237.9,-224.5"/>
<text text-anchor="middle" x="294.4" y="-231.5" font-family="Helvetica,sans-Serif" font-size="10.00">compositeSurface.h</text>
</a>
</g>
</g>
<!-- Node16&#45;&gt;Node17 -->
<g id="edge23" class="edge">
<title>Node16&#45;&gt;Node17</title>
<path fill="none" stroke="midnightblue" d="M418.95,-280.44C394.27,-271.44 355.21,-257.19 327.42,-247.05"/>
<polygon fill="midnightblue" stroke="midnightblue" points="328.33,-243.66 317.74,-243.52 325.93,-250.23 328.33,-243.66"/>
</g>
<!-- Node19 -->
<g id="node19" class="node">
<title>Node19</title>
<g id="a_node19"><a xlink:title=" ">
<polygon fill="none" stroke="#bfbfbf" points="425.4,-168.5 425.4,-187.5 473.4,-187.5 473.4,-168.5 425.4,-168.5"/>
<text text-anchor="middle" x="449.4" y="-175.5" font-family="Helvetica,sans-Serif" font-size="10.00">iosfwd</text>
</a>
</g>
</g>
<!-- Node16&#45;&gt;Node19 -->
<g id="edge49" class="edge">
<title>Node16&#45;&gt;Node19</title>
<path fill="none" stroke="midnightblue" d="M442.95,-280.37C444.08,-262.62 446.68,-221.67 448.21,-197.6"/>
<polygon fill="midnightblue" stroke="midnightblue" points="451.71,-197.79 448.85,-187.59 444.72,-197.35 451.71,-197.79"/>
</g>
<!-- Node20 -->
<g id="node20" class="node">
<title>Node20</title>
<g id="a_node20"><a xlink:href="../../d5/d2e/sensor_8h.html" target="_top" xlink:title=" ">
<polygon fill="none" stroke="black" points="876.9,-224.5 876.9,-243.5 933.9,-243.5 933.9,-224.5 876.9,-224.5"/>
<text text-anchor="middle" x="905.4" y="-231.5" font-family="Helvetica,sans-Serif" font-size="10.00">sensor.h</text>
</a>
</g>
</g>
<!-- Node16&#45;&gt;Node20 -->
<g id="edge35" class="edge">
<title>Node16&#45;&gt;Node20</title>
<path fill="none" stroke="midnightblue" d="M477.41,-281.53C480.44,-280.97 483.47,-280.46 486.4,-280 625.58,-258.34 792.41,-243.81 866.57,-237.93"/>
<polygon fill="midnightblue" stroke="midnightblue" points="867.13,-241.4 876.83,-237.13 866.58,-234.42 867.13,-241.4"/>
</g>
<!-- Node17&#45;&gt;Node2 -->
<g id="edge24" class="edge">
<title>Node17&#45;&gt;Node2</title>
<path fill="none" stroke="midnightblue" d="M284.2,-224.37C262.17,-205.73 209.94,-161.53 182.28,-138.13"/>
<polygon fill="midnightblue" stroke="midnightblue" points="184.45,-135.38 174.55,-131.59 179.92,-140.72 184.45,-135.38"/>
</g>
<!-- Node17&#45;&gt;Node4 -->
<g id="edge28" class="edge">
<title>Node17&#45;&gt;Node4</title>
<path fill="none" stroke="midnightblue" d="M270.52,-224.42C232.52,-209.9 157.38,-177.54 106.4,-132 91.24,-118.46 78.57,-98.84 70.57,-84.7"/>
<polygon fill="midnightblue" stroke="midnightblue" points="73.45,-82.67 65.61,-75.54 67.29,-86 73.45,-82.67"/>
</g>
<!-- Node17&#45;&gt;Node7 -->
<g id="edge30" class="edge">
<title>Node17&#45;&gt;Node7</title>
<path fill="none" stroke="midnightblue" d="M299.61,-224.44C307.34,-211.86 322.43,-187.74 336.4,-168 357.92,-137.57 384.84,-103.52 400.77,-83.74"/>
<polygon fill="midnightblue" stroke="midnightblue" points="403.69,-85.7 407.26,-75.73 398.25,-81.3 403.69,-85.7"/>
</g>
<!-- Node17&#45;&gt;Node8 -->
<g id="edge31" class="edge">
<title>Node17&#45;&gt;Node8</title>
<path fill="none" stroke="midnightblue" d="M293.43,-224.43C291.46,-204.13 288.38,-151.81 303.4,-112 307.4,-101.39 314.74,-91.18 321.57,-83.16"/>
<polygon fill="midnightblue" stroke="midnightblue" points="324.23,-85.45 328.35,-75.69 319.04,-80.74 324.23,-85.45"/>
</g>
<!-- Node17&#45;&gt;Node13 -->
<g id="edge32" class="edge">
<title>Node17&#45;&gt;Node13</title>
<path fill="none" stroke="midnightblue" d="M330.46,-224.46C368.32,-215.47 429.57,-200.87 482.4,-188 582.94,-163.51 609.08,-161.06 708.4,-132 764.98,-115.44 829.73,-92.72 867.73,-78.99"/>
<polygon fill="midnightblue" stroke="midnightblue" points="869.04,-82.24 877.25,-75.54 866.65,-75.66 869.04,-82.24"/>
</g>
<!-- Node17&#45;&gt;Node18 -->
<g id="edge25" class="edge">
<title>Node17&#45;&gt;Node18</title>
<path fill="none" stroke="midnightblue" d="M307.57,-224.32C320.25,-215.98 339.63,-203.21 354.6,-193.35"/>
<polygon fill="midnightblue" stroke="midnightblue" points="356.83,-196.08 363.26,-187.65 352.98,-190.23 356.83,-196.08"/>
</g>
<!-- Node17&#45;&gt;Node19 -->
<g id="edge29" class="edge">
<title>Node17&#45;&gt;Node19</title>
<path fill="none" stroke="midnightblue" d="M318.96,-224.44C345,-215.37 386.31,-200.98 415.45,-190.83"/>
<polygon fill="midnightblue" stroke="midnightblue" points="416.92,-194.02 425.21,-187.43 414.61,-187.41 416.92,-194.02"/>
</g>
<!-- Node18&#45;&gt;Node2 -->
<g id="edge26" class="edge">
<title>Node18&#45;&gt;Node2</title>
<path fill="none" stroke="midnightblue" d="M345.12,-169.03C308.8,-159.78 248.69,-144.47 207.85,-134.07"/>
<polygon fill="midnightblue" stroke="midnightblue" points="208.46,-130.61 197.91,-131.54 206.74,-137.4 208.46,-130.61"/>
</g>
<!-- Node18&#45;&gt;Node10 -->
<g id="edge27" class="edge">
<title>Node18&#45;&gt;Node10</title>
<path fill="none" stroke="midnightblue" d="M407.82,-169.83C410.72,-169.2 413.61,-168.58 416.4,-168 477.4,-155.32 547.56,-142.12 595.43,-133.32"/>
<polygon fill="midnightblue" stroke="midnightblue" points="596.09,-136.76 605.29,-131.51 594.82,-129.87 596.09,-136.76"/>
</g>
<!-- Node20&#45;&gt;Node3 -->
<g id="edge41" class="edge">
<title>Node20&#45;&gt;Node3</title>
<path fill="none" stroke="midnightblue" d="M934.12,-231.6C963.56,-228.45 1007.97,-218.57 1029.4,-188 1048.36,-160.94 1005.64,-125.42 994.4,-112 970.55,-83.54 965.98,-71.83 932.4,-56 884.14,-33.25 726.11,-18.65 658.52,-13.29"/>
<polygon fill="midnightblue" stroke="midnightblue" points="658.72,-9.8 648.48,-12.52 658.18,-16.78 658.72,-9.8"/>
</g>
<!-- Node20&#45;&gt;Node10 -->
<g id="edge36" class="edge">
<title>Node20&#45;&gt;Node10</title>
<path fill="none" stroke="midnightblue" d="M876.64,-227.61C844.39,-220.93 791.04,-207.93 748.4,-188 719.28,-174.39 689.13,-152.46 670.57,-137.89"/>
<polygon fill="midnightblue" stroke="midnightblue" points="672.67,-135.09 662.67,-131.59 668.3,-140.56 672.67,-135.09"/>
</g>
<!-- Node20&#45;&gt;Node12 -->
<g id="edge42" class="edge">
<title>Node20&#45;&gt;Node12</title>
<path fill="none" stroke="midnightblue" d="M934.21,-233.77C973.35,-233.22 1043.27,-226.42 1085.4,-188 1132.07,-145.43 1143.61,-65.73 1146.46,-29.62"/>
<polygon fill="midnightblue" stroke="midnightblue" points="1149.96,-29.74 1147.12,-19.54 1142.98,-29.29 1149.96,-29.74"/>
</g>
<!-- Node20&#45;&gt;Node13 -->
<g id="edge45" class="edge">
<title>Node20&#45;&gt;Node13</title>
<path fill="none" stroke="midnightblue" d="M934.11,-228.41C971.21,-220.99 1029.26,-203.46 1013.4,-168 995.44,-127.86 952.78,-97.09 925.31,-80.56"/>
<polygon fill="midnightblue" stroke="midnightblue" points="927.04,-77.51 916.64,-75.5 923.52,-83.56 927.04,-77.51"/>
</g>
<!-- Node21 -->
<g id="node21" class="node">
<title>Node21</title>
<g id="a_node21"><a xlink:href="../../da/d16/sensorController_8h.html" target="_top" xlink:title=" ">
<polygon fill="none" stroke="black" points="899.9,-168.5 899.9,-187.5 1004.9,-187.5 1004.9,-168.5 899.9,-168.5"/>
<text text-anchor="middle" x="952.4" y="-175.5" font-family="Helvetica,sans-Serif" font-size="10.00">sensorController.h</text>
</a>
</g>
</g>
<!-- Node20&#45;&gt;Node21 -->
<g id="edge37" class="edge">
<title>Node20&#45;&gt;Node21</title>
<path fill="none" stroke="midnightblue" d="M913.16,-224.08C919.94,-216.3 929.94,-204.8 938.15,-195.37"/>
<polygon fill="midnightblue" stroke="midnightblue" points="940.86,-197.59 944.78,-187.75 935.58,-193 940.86,-197.59"/>
</g>
<!-- Node22 -->
<g id="node22" class="node">
<title>Node22</title>
<g id="a_node22"><a xlink:title=" ">
<polygon fill="none" stroke="#bfbfbf" points="757.4,-168.5 757.4,-187.5 815.4,-187.5 815.4,-168.5 757.4,-168.5"/>
<text text-anchor="middle" x="786.4" y="-175.5" font-family="Helvetica,sans-Serif" font-size="10.00">memory</text>
</a>
</g>
</g>
<!-- Node20&#45;&gt;Node22 -->
<g id="edge43" class="edge">
<title>Node20&#45;&gt;Node22</title>
<path fill="none" stroke="midnightblue" d="M886.54,-224.44C867.13,-215.64 836.67,-201.81 814.43,-191.72"/>
<polygon fill="midnightblue" stroke="midnightblue" points="815.72,-188.46 805.17,-187.52 812.83,-194.84 815.72,-188.46"/>
</g>
<!-- Node23 -->
<g id="node23" class="node">
<title>Node23</title>
<g id="a_node23"><a xlink:title=" ">
<polygon fill="none" stroke="#bfbfbf" points="833.4,-168.5 833.4,-187.5 881.4,-187.5 881.4,-168.5 833.4,-168.5"/>
<text text-anchor="middle" x="857.4" y="-175.5" font-family="Helvetica,sans-Serif" font-size="10.00">mutex</text>
</a>
</g>
</g>
<!-- Node20&#45;&gt;Node23 -->
<g id="edge44" class="edge">
<title>Node20&#45;&gt;Node23</title>
<path fill="none" stroke="midnightblue" d="M897.47,-224.08C890.55,-216.3 880.33,-204.8 871.95,-195.37"/>
<polygon fill="midnightblue" stroke="midnightblue" points="874.44,-192.9 865.18,-187.75 869.2,-197.55 874.44,-192.9"/>
</g>
<!-- Node21&#45;&gt;Node10 -->
<g id="edge38" class="edge">
<title>Node21&#45;&gt;Node10</title>
<path fill="none" stroke="midnightblue" d="M904.86,-168.44C851.87,-158.9 766.19,-143.48 709.58,-133.29"/>
<polygon fill="midnightblue" stroke="midnightblue" points="710.17,-129.84 699.71,-131.52 708.93,-136.73 710.17,-129.84"/>
</g>
<!-- Node21&#45;&gt;Node12 -->
<g id="edge39" class="edge">
<title>Node21&#45;&gt;Node12</title>
<path fill="none" stroke="midnightblue" d="M962.61,-168.31C994.07,-141.53 1089.8,-60.03 1129.67,-26.09"/>
<polygon fill="midnightblue" stroke="midnightblue" points="1131.94,-28.75 1137.29,-19.61 1127.41,-23.42 1131.94,-28.75"/>
</g>
<!-- Node21&#45;&gt;Node13 -->
<g id="edge40" class="edge">
<title>Node21&#45;&gt;Node13</title>
<path fill="none" stroke="midnightblue" d="M948.32,-168.37C939.85,-150.46 920.22,-108.92 908.88,-84.95"/>
<polygon fill="midnightblue" stroke="midnightblue" points="911.9,-83.14 904.46,-75.59 905.57,-86.13 911.9,-83.14"/>
</g>
<!-- Node24&#45;&gt;Node3 -->
<g id="edge54" class="edge">
<title>Node24&#45;&gt;Node3</title>
<path fill="none" stroke="midnightblue" d="M1109.4,-280.44C1109.4,-261.94 1109.4,-216.81 1109.4,-179 1109.4,-179 1109.4,-179 1109.4,-121 1109.4,-28.16 765.24,-13.68 658.55,-11.42"/>
<polygon fill="midnightblue" stroke="midnightblue" points="658.48,-7.92 648.42,-11.23 658.35,-14.91 658.48,-7.92"/>
</g>
<!-- Node25 -->
<g id="node25" class="node">
<title>Node25</title>
<g id="a_node25"><a xlink:title=" ">
<polygon fill="none" stroke="#bfbfbf" points="1251.4,-224.5 1251.4,-243.5 1305.4,-243.5 1305.4,-224.5 1251.4,-224.5"/>
<text text-anchor="middle" x="1278.4" y="-231.5" font-family="Helvetica,sans-Serif" font-size="10.00">random</text>
</a>
</g>
</g>
<!-- Node24&#45;&gt;Node25 -->
<g id="edge55" class="edge">
<title>Node24&#45;&gt;Node25</title>
<path fill="none" stroke="midnightblue" d="M1136.18,-280.44C1164.73,-271.32 1210.13,-256.81 1241.94,-246.65"/>
<polygon fill="midnightblue" stroke="midnightblue" points="1243.28,-249.89 1251.75,-243.52 1241.15,-243.23 1243.28,-249.89"/>
</g>
</g>
</svg>
