<?xml version="1.0" encoding="UTF-8" standalone="no"?>
<!DOCTYPE svg PUBLIC "-//W3C//DTD SVG 1.1//EN"
 "http://www.w3.org/Graphics/SVG/1.1/DTD/svg11.dtd">
<!-- Generated by graphviz version 2.43.0 (0)
 -->
<!-- Title: psim/include/psim/outputManager.h Pages: 1 -->
<svg width="697pt" height="319pt"
 viewBox="0.00 0.00 697.00 319.00" xmlns="http://www.w3.org/2000/svg" xmlns:xlink="http://www.w3.org/1999/xlink">
<g id="graph0" class="graph" transform="scale(1 1) rotate(0) translate(4 315)">
<title>psim/include/psim/outputManager.h</title>
<!-- Node1 -->
<g id="node1" class="node">
<title>Node1</title>
<g id="a_node1"><a xlink:title=" ">
<polygon fill="#bfbfbf" stroke="black" points="419,-280.5 419,-310.5 559,-310.5 559,-280.5 419,-280.5"/>
<text text-anchor="start" x="427" y="-298.5" font-family="Helvetica,sans-Serif" font-size="10.00">psim/include/psim/output</text>
<text text-anchor="middle" x="489" y="-287.5" font-family="Helvetica,sans-Serif" font-size="10.00">Manager.h</text>
</a>
</g>
</g>
<!-- Node2 -->
<g id="node2" class="node">
<title>Node2</title>
<g id="a_node2"><a xlink:href="../../d5/d2e/sensor_8h.html" target="_top" xlink:title=" ">
<polygon fill="none" stroke="black" points="244.5,-224.5 244.5,-243.5 301.5,-243.5 301.5,-224.5 244.5,-224.5"/>
<text text-anchor="middle" x="273" y="-231.5" font-family="Helvetica,sans-Serif" font-size="10.00">sensor.h</text>
</a>
</g>
</g>
<!-- Node1&#45;&gt;Node2 -->
<g id="edge1" class="edge">
<title>Node1&#45;&gt;Node2</title>
<path fill="none" stroke="midnightblue" d="M438.08,-280.47C399.37,-269.81 346.93,-255.37 311.63,-245.64"/>
<polygon fill="midnightblue" stroke="midnightblue" points="312.28,-242.19 301.71,-242.91 310.42,-248.94 312.28,-242.19"/>
</g>
<!-- Node6 -->
<g id="node6" class="node">
<title>Node6</title>
<g id="a_node6"><a xlink:title=" ">
<polygon fill="none" stroke="#bfbfbf" points="49.5,-0.5 49.5,-19.5 102.5,-19.5 102.5,-0.5 49.5,-0.5"/>
<text text-anchor="middle" x="76" y="-7.5" font-family="Helvetica,sans-Serif" font-size="10.00">cstddef</text>
</a>
</g>
</g>
<!-- Node1&#45;&gt;Node6 -->
<g id="edge22" class="edge">
<title>Node1&#45;&gt;Node6</title>
<path fill="none" stroke="midnightblue" d="M418.94,-292.44C283.73,-286.55 0,-264.05 0,-179 0,-179 0,-179 0,-121 0,-81.28 33.96,-45.5 56.48,-26.15"/>
<polygon fill="midnightblue" stroke="midnightblue" points="58.98,-28.63 64.46,-19.57 54.52,-23.24 58.98,-28.63"/>
</g>
<!-- Node9 -->
<g id="node9" class="node">
<title>Node9</title>
<g id="a_node9"><a xlink:title=" ">
<polygon fill="none" stroke="#bfbfbf" points="298.5,-56.5 298.5,-75.5 345.5,-75.5 345.5,-56.5 298.5,-56.5"/>
<text text-anchor="middle" x="322" y="-63.5" font-family="Helvetica,sans-Serif" font-size="10.00">vector</text>
</a>
</g>
</g>
<!-- Node1&#45;&gt;Node9 -->
<g id="edge25" class="edge">
<title>Node1&#45;&gt;Node9</title>
<path fill="none" stroke="midnightblue" d="M480.53,-280.49C466.04,-256.78 435.22,-207.48 406,-168 383.07,-137.02 353.81,-102.93 336.57,-83.34"/>
<polygon fill="midnightblue" stroke="midnightblue" points="339.01,-80.81 329.76,-75.65 333.77,-85.45 339.01,-80.81"/>
</g>
<!-- Node13 -->
<g id="node13" class="node">
<title>Node13</title>
<g id="a_node13"><a xlink:title=" ">
<polygon fill="none" stroke="#bfbfbf" points="491,-224.5 491,-243.5 541,-243.5 541,-224.5 491,-224.5"/>
<text text-anchor="middle" x="516" y="-231.5" font-family="Helvetica,sans-Serif" font-size="10.00">chrono</text>
</a>
</g>
</g>
<!-- Node1&#45;&gt;Node13 -->
<g id="edge21" class="edge">
<title>Node1&#45;&gt;Node13</title>
<path fill="none" stroke="midnightblue" d="M495.4,-280.4C499.12,-272.2 503.85,-261.78 507.83,-252.99"/>
<polygon fill="midnightblue" stroke="midnightblue" points="511.13,-254.21 512.07,-243.66 504.75,-251.32 511.13,-254.21"/>
</g>
<!-- Node14 -->
<g id="node14" class="node">
<title>Node14</title>
<g id="a_node14"><a xlink:title=" ">
<polygon fill="none" stroke="#bfbfbf" points="559,-224.5 559,-243.5 627,-243.5 627,-224.5 559,-224.5"/>
<text text-anchor="middle" x="593" y="-231.5" font-family="Helvetica,sans-Serif" font-size="10.00">filesystem</text>
</a>
</g>
</g>
<!-- Node1&#45;&gt;Node14 -->
<g id="edge23" class="edge">
<title>Node1&#45;&gt;Node14</title>
<path fill="none" stroke="midnightblue" d="M513.65,-280.4C530.32,-270.86 552.23,-258.32 568.81,-248.84"/>
<polygon fill="midnightblue" stroke="midnightblue" points="570.93,-251.66 577.87,-243.66 567.45,-245.59 570.93,-251.66"/>
</g>
<!-- Node15 -->
<g id="node15" class="node">
<title>Node15</title>
<g id="a_node15"><a xlink:title=" ">
<polygon fill="none" stroke="#bfbfbf" points="645,-224.5 645,-243.5 689,-243.5 689,-224.5 645,-224.5"/>
<text text-anchor="middle" x="667" y="-231.5" font-family="Helvetica,sans-Serif" font-size="10.00">string</text>
</a>
</g>
</g>
<!-- Node1&#45;&gt;Node15 -->
<g id="edge24" class="edge">
<title>Node1&#45;&gt;Node15</title>
<path fill="none" stroke="midnightblue" d="M531.18,-280.4C563,-269.76 605.98,-255.4 635,-245.7"/>
<polygon fill="midnightblue" stroke="midnightblue" points="636.27,-248.96 644.64,-242.47 634.05,-242.32 636.27,-248.96"/>
</g>
<!-- Node3 -->
<g id="node3" class="node">
<title>Node3</title>
<g id="a_node3"><a xlink:href="../../d3/d65/material_8h.html" target="_top" xlink:title=" ">
<polygon fill="none" stroke="black" points="115.5,-112.5 115.5,-131.5 182.5,-131.5 182.5,-112.5 115.5,-112.5"/>
<text text-anchor="middle" x="149" y="-119.5" font-family="Helvetica,sans-Serif" font-size="10.00">material.h</text>
</a>
</g>
</g>
<!-- Node2&#45;&gt;Node3 -->
<g id="edge2" class="edge">
<title>Node2&#45;&gt;Node3</title>
<path fill="none" stroke="midnightblue" d="M263.27,-224.37C242.35,-205.81 192.87,-161.91 166.4,-138.44"/>
<polygon fill="midnightblue" stroke="midnightblue" points="168.49,-135.61 158.68,-131.59 163.84,-140.85 168.49,-135.61"/>
</g>
<!-- Node5 -->
<g id="node5" class="node">
<title>Node5</title>
<g id="a_node5"><a xlink:title=" ">
<polygon fill="none" stroke="#bfbfbf" points="263,-0.5 263,-19.5 305,-19.5 305,-0.5 263,-0.5"/>
<text text-anchor="middle" x="284" y="-7.5" font-family="Helvetica,sans-Serif" font-size="10.00">array</text>
</a>
</g>
</g>
<!-- Node2&#45;&gt;Node5 -->
<g id="edge16" class="edge">
<title>Node2&#45;&gt;Node5</title>
<path fill="none" stroke="midnightblue" d="M301.73,-232.44C333.2,-230.09 382.34,-220.98 406,-188 433.2,-150.08 450.71,-165.87 355,-56 343.36,-42.64 326.79,-31.83 312.59,-24.16"/>
<polygon fill="midnightblue" stroke="midnightblue" points="314.17,-21.03 303.67,-19.57 310.97,-27.26 314.17,-21.03"/>
</g>
<!-- Node2&#45;&gt;Node6 -->
<g id="edge17" class="edge">
<title>Node2&#45;&gt;Node6</title>
<path fill="none" stroke="midnightblue" d="M244.14,-231.13C192.2,-227.11 86.33,-215.65 64,-188 26.47,-141.53 52.69,-63.89 67.61,-28.97"/>
<polygon fill="midnightblue" stroke="midnightblue" points="70.92,-30.15 71.79,-19.59 64.52,-27.3 70.92,-30.15"/>
</g>
<!-- Node2&#45;&gt;Node9 -->
<g id="edge20" class="edge">
<title>Node2&#45;&gt;Node9</title>
<path fill="none" stroke="midnightblue" d="M269.69,-224.45C265.31,-211.9 258.72,-187.81 264,-168 272.64,-135.62 294.4,-102.83 308.68,-83.73"/>
<polygon fill="midnightblue" stroke="midnightblue" points="311.5,-85.81 314.81,-75.75 305.95,-81.54 311.5,-85.81"/>
</g>
<!-- Node10 -->
<g id="node10" class="node">
<title>Node10</title>
<g id="a_node10"><a xlink:href="../../da/d16/sensorController_8h.html" target="_top" xlink:title=" ">
<polygon fill="none" stroke="black" points="73.5,-168.5 73.5,-187.5 178.5,-187.5 178.5,-168.5 73.5,-168.5"/>
<text text-anchor="middle" x="126" y="-175.5" font-family="Helvetica,sans-Serif" font-size="10.00">sensorController.h</text>
</a>
</g>
</g>
<!-- Node2&#45;&gt;Node10 -->
<g id="edge12" class="edge">
<title>Node2&#45;&gt;Node10</title>
<path fill="none" stroke="midnightblue" d="M249.71,-224.44C225.19,-215.44 186.4,-201.19 158.8,-191.05"/>
<polygon fill="midnightblue" stroke="midnightblue" points="159.78,-187.68 149.18,-187.52 157.36,-194.25 159.78,-187.68"/>
</g>
<!-- Node11 -->
<g id="node11" class="node">
<title>Node11</title>
<g id="a_node11"><a xlink:title=" ">
<polygon fill="none" stroke="#bfbfbf" points="273,-168.5 273,-187.5 331,-187.5 331,-168.5 273,-168.5"/>
<text text-anchor="middle" x="302" y="-175.5" font-family="Helvetica,sans-Serif" font-size="10.00">memory</text>
</a>
</g>
</g>
<!-- Node2&#45;&gt;Node11 -->
<g id="edge18" class="edge">
<title>Node2&#45;&gt;Node11</title>
<path fill="none" stroke="midnightblue" d="M277.79,-224.08C281.76,-216.69 287.53,-205.95 292.43,-196.81"/>
<polygon fill="midnightblue" stroke="midnightblue" points="295.65,-198.22 297.3,-187.75 289.49,-194.91 295.65,-198.22"/>
</g>
<!-- Node12 -->
<g id="node12" class="node">
<title>Node12</title>
<g id="a_node12"><a xlink:title=" ">
<polygon fill="none" stroke="#bfbfbf" points="349,-168.5 349,-187.5 397,-187.5 397,-168.5 349,-168.5"/>
<text text-anchor="middle" x="373" y="-175.5" font-family="Helvetica,sans-Serif" font-size="10.00">mutex</text>
</a>
</g>
</g>
<!-- Node2&#45;&gt;Node12 -->
<g id="edge19" class="edge">
<title>Node2&#45;&gt;Node12</title>
<path fill="none" stroke="midnightblue" d="M289.07,-224.32C304.96,-215.74 329.51,-202.49 347.96,-192.52"/>
<polygon fill="midnightblue" stroke="midnightblue" points="349.84,-195.49 356.97,-187.65 346.51,-189.33 349.84,-195.49"/>
</g>
<!-- Node4 -->
<g id="node4" class="node">
<title>Node4</title>
<g id="a_node4"><a xlink:href="../../d3/d34/phonon_8h.html" target="_top" xlink:title=" ">
<polygon fill="none" stroke="black" points="180,-56.5 180,-75.5 242,-75.5 242,-56.5 180,-56.5"/>
<text text-anchor="middle" x="211" y="-63.5" font-family="Helvetica,sans-Serif" font-size="10.00">phonon.h</text>
</a>
</g>
</g>
<!-- Node3&#45;&gt;Node4 -->
<g id="edge3" class="edge">
<title>Node3&#45;&gt;Node4</title>
<path fill="none" stroke="midnightblue" d="M158.96,-112.32C168.13,-104.34 181.94,-92.31 193.03,-82.65"/>
<polygon fill="midnightblue" stroke="midnightblue" points="195.62,-85.04 200.86,-75.83 191.02,-79.76 195.62,-85.04"/>
</g>
<!-- Node3&#45;&gt;Node5 -->
<g id="edge8" class="edge">
<title>Node3&#45;&gt;Node5</title>
<path fill="none" stroke="midnightblue" d="M182.63,-112.54C204.3,-105.67 231.89,-94.1 251,-76 264.47,-63.24 273.34,-43.77 278.45,-29.47"/>
<polygon fill="midnightblue" stroke="midnightblue" points="281.86,-30.33 281.65,-19.73 275.21,-28.14 281.86,-30.33"/>
</g>
<!-- Node3&#45;&gt;Node6 -->
<g id="edge9" class="edge">
<title>Node3&#45;&gt;Node6</title>
<path fill="none" stroke="midnightblue" d="M143.27,-112.37C131.22,-94.22 103.08,-51.8 87.28,-27.99"/>
<polygon fill="midnightblue" stroke="midnightblue" points="90.15,-25.99 81.7,-19.59 84.31,-29.86 90.15,-25.99"/>
</g>
<!-- Node8 -->
<g id="node8" class="node">
<title>Node8</title>
<g id="a_node8"><a xlink:title=" ">
<polygon fill="none" stroke="#bfbfbf" points="124.5,-0.5 124.5,-19.5 169.5,-19.5 169.5,-0.5 124.5,-0.5"/>
<text text-anchor="middle" x="147" y="-7.5" font-family="Helvetica,sans-Serif" font-size="10.00">utility</text>
</a>
</g>
</g>
<!-- Node3&#45;&gt;Node8 -->
<g id="edge10" class="edge">
<title>Node3&#45;&gt;Node8</title>
<path fill="none" stroke="midnightblue" d="M148.84,-112.37C148.52,-94.62 147.78,-53.67 147.34,-29.6"/>
<polygon fill="midnightblue" stroke="midnightblue" points="150.84,-29.53 147.16,-19.59 143.84,-29.65 150.84,-29.53"/>
</g>
<!-- Node3&#45;&gt;Node9 -->
<g id="edge11" class="edge">
<title>Node3&#45;&gt;Node9</title>
<path fill="none" stroke="midnightblue" d="M176.41,-112.44C206.89,-102.93 256.12,-87.56 288.77,-77.37"/>
<polygon fill="midnightblue" stroke="midnightblue" points="289.83,-80.71 298.33,-74.39 287.74,-74.03 289.83,-80.71"/>
</g>
<!-- Node4&#45;&gt;Node5 -->
<g id="edge4" class="edge">
<title>Node4&#45;&gt;Node5</title>
<path fill="none" stroke="midnightblue" d="M222.73,-56.32C233.84,-48.11 250.74,-35.6 263.98,-25.81"/>
<polygon fill="midnightblue" stroke="midnightblue" points="266.1,-28.59 272.06,-19.83 261.94,-22.97 266.1,-28.59"/>
</g>
<!-- Node4&#45;&gt;Node6 -->
<g id="edge5" class="edge">
<title>Node4&#45;&gt;Node6</title>
<path fill="none" stroke="midnightblue" d="M189.61,-56.44C167.29,-47.52 132.1,-33.44 106.79,-23.32"/>
<polygon fill="midnightblue" stroke="midnightblue" points="107.88,-19.98 97.29,-19.52 105.28,-26.48 107.88,-19.98"/>
</g>
<!-- Node7 -->
<g id="node7" class="node">
<title>Node7</title>
<g id="a_node7"><a xlink:title=" ">
<polygon fill="none" stroke="#bfbfbf" points="187.5,-0.5 187.5,-19.5 244.5,-19.5 244.5,-0.5 187.5,-0.5"/>
<text text-anchor="middle" x="216" y="-7.5" font-family="Helvetica,sans-Serif" font-size="10.00">ostream</text>
</a>
</g>
</g>
<!-- Node4&#45;&gt;Node7 -->
<g id="edge6" class="edge">
<title>Node4&#45;&gt;Node7</title>
<path fill="none" stroke="midnightblue" d="M211.83,-56.08C212.48,-49.01 213.42,-38.86 214.24,-29.99"/>
<polygon fill="midnightblue" stroke="midnightblue" points="217.75,-30.03 215.19,-19.75 210.78,-29.39 217.75,-30.03"/>
</g>
<!-- Node4&#45;&gt;Node8 -->
<g id="edge7" class="edge">
<title>Node4&#45;&gt;Node8</title>
<path fill="none" stroke="midnightblue" d="M200.72,-56.32C191.16,-48.26 176.72,-36.08 165.22,-26.37"/>
<polygon fill="midnightblue" stroke="midnightblue" points="167.37,-23.61 157.47,-19.83 162.86,-28.96 167.37,-23.61"/>
</g>
<!-- Node10&#45;&gt;Node3 -->
<g id="edge13" class="edge">
<title>Node10&#45;&gt;Node3</title>
<path fill="none" stroke="midnightblue" d="M129.8,-168.08C132.91,-160.77 137.42,-150.18 141.29,-141.1"/>
<polygon fill="midnightblue" stroke="midnightblue" points="144.57,-142.32 145.27,-131.75 138.13,-139.58 144.57,-142.32"/>
</g>
<!-- Node10&#45;&gt;Node6 -->
<g id="edge14" class="edge">
<title>Node10&#45;&gt;Node6</title>
<path fill="none" stroke="midnightblue" d="M121.55,-168.22C117.14,-159.28 110.44,-144.94 106,-132 93.81,-96.48 84.36,-53.52 79.54,-29.53"/>
<polygon fill="midnightblue" stroke="midnightblue" points="82.96,-28.8 77.6,-19.66 76.09,-30.14 82.96,-28.8"/>
</g>
<!-- Node10&#45;&gt;Node9 -->
<g id="edge15" class="edge">
<title>Node10&#45;&gt;Node9</title>
<path fill="none" stroke="midnightblue" d="M139.95,-168.31C160.53,-155.58 200.34,-131.28 235,-112 255.06,-100.84 278.16,-88.94 295.51,-80.18"/>
<polygon fill="midnightblue" stroke="midnightblue" points="297.14,-83.28 304.5,-75.66 294,-77.02 297.14,-83.28"/>
</g>
</g>
</svg>
