<?xml version="1.0" encoding="UTF-8" standalone="no"?>
<!DOCTYPE svg PUBLIC "-//W3C//DTD SVG 1.1//EN"
 "http://www.w3.org/Graphics/SVG/1.1/DTD/svg11.dtd">
<!-- Generated by graphviz version 2.43.0 (0)
 -->
<!-- Title: Sensor::getMaterial Pages: 1 -->
<svg width="444pt" height="104pt"
 viewBox="0.00 0.00 444.00 104.00" xmlns="http://www.w3.org/2000/svg" xmlns:xlink="http://www.w3.org/1999/xlink">
<g id="graph0" class="graph" transform="scale(1 1) rotate(0) translate(4 100)">
<title>Sensor::getMaterial</title>
<!-- Node1 -->
<g id="node1" class="node">
<title>Node1</title>
<g id="a_node1"><a xlink:title=" ">
<polygon fill="#bfbfbf" stroke="black" points="324,-19.5 324,-38.5 436,-38.5 436,-19.5 324,-19.5"/>
<text text-anchor="middle" x="380" y="-26.5" font-family="Helvetica,sans-Serif" font-size="10.00">Sensor::getMaterial</text>
</a>
</g>
</g>
<!-- Node2 -->
<g id="node2" class="node">
<title>Node2</title>
<g id="a_node2"><a xlink:href="../../de/dfd/classCell.html#a0d7a245c41acd87a2d2de2813644a228" target="_top" xlink:title=" ">
<polygon fill="none" stroke="black" points="185,-38.5 185,-57.5 283,-57.5 283,-38.5 185,-38.5"/>
<text text-anchor="middle" x="234" y="-45.5" font-family="Helvetica,sans-Serif" font-size="10.00">Cell::getMaterial</text>
</a>
</g>
</g>
<!-- Node1&#45;&gt;Node2 -->
<g id="edge1" class="edge">
<title>Node1&#45;&gt;Node2</title>
<path fill="none" stroke="midnightblue" d="M313.62,-37.63C303.42,-38.97 293.03,-40.34 283.3,-41.63"/>
<polygon fill="midnightblue" stroke="midnightblue" points="314.28,-41.07 323.74,-36.29 313.37,-34.13 314.28,-41.07"/>
</g>
<!-- Node5 -->
<g id="node5" class="node">
<title>Node5</title>
<g id="a_node5"><a xlink:href="../../de/dfd/classCell.html#a13a66a71a76c6742a3faeb603d7d0d4c" target="_top" xlink:title=" ">
<polygon fill="none" stroke="black" points="180,-0.5 180,-19.5 288,-19.5 288,-0.5 180,-0.5"/>
<text text-anchor="middle" x="234" y="-7.5" font-family="Helvetica,sans-Serif" font-size="10.00">Cell::getMaterialID</text>
</a>
</g>
</g>
<!-- Node1&#45;&gt;Node5 -->
<g id="edge4" class="edge">
<title>Node1&#45;&gt;Node5</title>
<path fill="none" stroke="midnightblue" d="M313.57,-20.37C305.17,-19.26 296.64,-18.13 288.45,-17.05"/>
<polygon fill="midnightblue" stroke="midnightblue" points="313.37,-23.87 323.74,-21.71 314.28,-16.93 313.37,-23.87"/>
</g>
<!-- Node3 -->
<g id="node3" class="node">
<title>Node3</title>
<g id="a_node3"><a xlink:href="../../d2/db2/classPhonon.html#a12b7b5f838bafe13f280fd0ec2329fdb" target="_top" xlink:title=" ">
<polygon fill="none" stroke="black" points="7,-76.5 7,-95.5 137,-95.5 137,-76.5 7,-76.5"/>
<text text-anchor="middle" x="72" y="-83.5" font-family="Helvetica,sans-Serif" font-size="10.00">Phonon::getRelaxRates</text>
</a>
</g>
</g>
<!-- Node2&#45;&gt;Node3 -->
<g id="edge2" class="edge">
<title>Node2&#45;&gt;Node3</title>
<path fill="none" stroke="midnightblue" d="M182.61,-59.97C160.19,-65.29 134.15,-71.48 113.08,-76.48"/>
<polygon fill="midnightblue" stroke="midnightblue" points="183.7,-63.31 192.63,-57.59 182.09,-56.49 183.7,-63.31"/>
</g>
<!-- Node4 -->
<g id="node4" class="node">
<title>Node4</title>
<g id="a_node4"><a xlink:href="../../de/dfd/classCell.html#adc37505f7f3f8fb4cac7a4451ef7d8be" target="_top" xlink:title=" ">
<polygon fill="none" stroke="black" points="14,-38.5 14,-57.5 130,-57.5 130,-38.5 14,-38.5"/>
<text text-anchor="middle" x="72" y="-45.5" font-family="Helvetica,sans-Serif" font-size="10.00">Cell::setEmitSurface</text>
</a>
</g>
</g>
<!-- Node2&#45;&gt;Node4 -->
<g id="edge3" class="edge">
<title>Node2&#45;&gt;Node4</title>
<path fill="none" stroke="midnightblue" d="M174.67,-48C160.2,-48 144.7,-48 130.28,-48"/>
<polygon fill="midnightblue" stroke="midnightblue" points="174.99,-51.5 184.99,-48 174.99,-44.5 174.99,-51.5"/>
</g>
<!-- Node6 -->
<g id="node6" class="node">
<title>Node6</title>
<g id="a_node6"><a xlink:href="../../d2/db2/classPhonon.html#a5e51f19252827fdaad408c5353bdf94d" target="_top" xlink:title=" ">
<polygon fill="none" stroke="black" points="0,-0.5 0,-19.5 144,-19.5 144,-0.5 0,-0.5"/>
<text text-anchor="middle" x="72" y="-7.5" font-family="Helvetica,sans-Serif" font-size="10.00">Phonon::getCellMaterialID</text>
</a>
</g>
</g>
<!-- Node5&#45;&gt;Node6 -->
<g id="edge5" class="edge">
<title>Node5&#45;&gt;Node6</title>
<path fill="none" stroke="midnightblue" d="M169.69,-10C161.34,-10 152.74,-10 144.27,-10"/>
<polygon fill="midnightblue" stroke="midnightblue" points="169.72,-13.5 179.72,-10 169.72,-6.5 169.72,-13.5"/>
</g>
</g>
</svg>
