<?xml version="1.0" encoding="UTF-8" standalone="no"?>
<!DOCTYPE svg PUBLIC "-//W3C//DTD SVG 1.1//EN"
 "http://www.w3.org/Graphics/SVG/1.1/DTD/svg11.dtd">
<!-- Generated by graphviz version 2.43.0 (0)
 -->
<!-- Title: Sensor::getSteadyTemp Pages: 1 -->
<svg width="458pt" height="28pt"
 viewBox="0.00 0.00 458.00 28.00" xmlns="http://www.w3.org/2000/svg" xmlns:xlink="http://www.w3.org/1999/xlink">
<g id="graph0" class="graph" transform="scale(1 1) rotate(0) translate(4 24)">
<title>Sensor::getSteadyTemp</title>
<!-- Node1 -->
<g id="node1" class="node">
<title>Node1</title>
<g id="a_node1"><a xlink:title=" ">
<polygon fill="#bfbfbf" stroke="black" points="319,-0.5 319,-19.5 450,-19.5 450,-0.5 319,-0.5"/>
<text text-anchor="middle" x="384.5" y="-7.5" font-family="Helvetica,sans-Serif" font-size="10.00">Sensor::getSteadyTemp</text>
</a>
</g>
</g>
<!-- Node2 -->
<g id="node2" class="node">
<title>Node2</title>
<g id="a_node2"><a xlink:href="../../de/dfd/classCell.html#ad9aeee386c8119dcd4680a5f3da6f2fe" target="_top" xlink:title=" ">
<polygon fill="none" stroke="black" points="166,-0.5 166,-19.5 283,-19.5 283,-0.5 166,-0.5"/>
<text text-anchor="middle" x="224.5" y="-7.5" font-family="Helvetica,sans-Serif" font-size="10.00">Cell::getSteadyTemp</text>
</a>
</g>
</g>
<!-- Node1&#45;&gt;Node2 -->
<g id="edge1" class="edge">
<title>Node1&#45;&gt;Node2</title>
<path fill="none" stroke="midnightblue" d="M308.7,-10C300.07,-10 291.38,-10 283.03,-10"/>
<polygon fill="midnightblue" stroke="midnightblue" points="308.78,-13.5 318.78,-10 308.78,-6.5 308.78,-13.5"/>
</g>
<!-- Node3 -->
<g id="node3" class="node">
<title>Node3</title>
<g id="a_node3"><a xlink:href="../../d2/db2/classPhonon.html#a12b7b5f838bafe13f280fd0ec2329fdb" target="_top" xlink:title=" ">
<polygon fill="none" stroke="black" points="0,-0.5 0,-19.5 130,-19.5 130,-0.5 0,-0.5"/>
<text text-anchor="middle" x="65" y="-7.5" font-family="Helvetica,sans-Serif" font-size="10.00">Phonon::getRelaxRates</text>
</a>
</g>
</g>
<!-- Node2&#45;&gt;Node3 -->
<g id="edge2" class="edge">
<title>Node2&#45;&gt;Node3</title>
<path fill="none" stroke="midnightblue" d="M155.56,-10C147.12,-10 138.51,-10 130.13,-10"/>
<polygon fill="midnightblue" stroke="midnightblue" points="155.75,-13.5 165.75,-10 155.75,-6.5 155.75,-13.5"/>
</g>
</g>
</svg>
