<?xml version="1.0" encoding="UTF-8" standalone="no"?>
<!DOCTYPE svg PUBLIC "-//W3C//DTD SVG 1.1//EN"
 "http://www.w3.org/Graphics/SVG/1.1/DTD/svg11.dtd">
<!-- Generated by graphviz version 2.43.0 (0)
 -->
<!-- Title: Cell::Cell Pages: 1 -->
<svg width="501pt" height="72pt"
 viewBox="0.00 0.00 501.00 71.50" xmlns="http://www.w3.org/2000/svg" xmlns:xlink="http://www.w3.org/1999/xlink">
<g id="graph0" class="graph" transform="scale(1 1) rotate(0) translate(4 67.5)">
<title>Cell::Cell</title>
<!-- Node1 -->
<g id="node1" class="node">
<title>Node1</title>
<g id="a_node1"><a xlink:title=" ">
<polygon fill="#bfbfbf" stroke="black" points="0,-25 0,-44 60,-44 60,-25 0,-25"/>
<text text-anchor="middle" x="30" y="-32" font-family="Helvetica,sans-Serif" font-size="10.00">Cell::Cell</text>
</a>
</g>
</g>
<!-- Node2 -->
<g id="node2" class="node">
<title>Node2</title>
<g id="a_node2"><a xlink:href="../../d1/dd6/classSensor.html#abb037160a60301199c3ab55b14eb4f88" target="_top" xlink:title=" ">
<polygon fill="none" stroke="black" points="96,-44 96,-63 203,-63 203,-44 96,-44"/>
<text text-anchor="middle" x="149.5" y="-51" font-family="Helvetica,sans-Serif" font-size="10.00">Sensor::addToArea</text>
</a>
</g>
</g>
<!-- Node1&#45;&gt;Node2 -->
<g id="edge1" class="edge">
<title>Node1&#45;&gt;Node2</title>
<path fill="none" stroke="midnightblue" d="M60.04,-39.2C68.03,-40.49 77.01,-41.94 86.1,-43.41"/>
<polygon fill="midnightblue" stroke="midnightblue" points="85.55,-46.87 95.98,-45.01 86.67,-39.96 85.55,-46.87"/>
</g>
<!-- Node3 -->
<g id="node3" class="node">
<title>Node3</title>
<g id="a_node3"><a xlink:href="../../de/dfd/classCell.html#ac670755528db61a6ae3f0336ca1b9f3c" target="_top" xlink:title=" ">
<polygon fill="none" stroke="black" points="109.5,-6 109.5,-25 189.5,-25 189.5,-6 109.5,-6"/>
<text text-anchor="middle" x="149.5" y="-13" font-family="Helvetica,sans-Serif" font-size="10.00">Cell::getArea</text>
</a>
</g>
</g>
<!-- Node1&#45;&gt;Node3 -->
<g id="edge2" class="edge">
<title>Node1&#45;&gt;Node3</title>
<path fill="none" stroke="midnightblue" d="M60.04,-29.8C71.85,-27.89 85.83,-25.63 99.14,-23.48"/>
<polygon fill="midnightblue" stroke="midnightblue" points="99.84,-26.91 109.15,-21.86 98.72,-20 99.84,-26.91"/>
</g>
<!-- Node4 -->
<g id="node4" class="node">
<title>Node4</title>
<g id="a_node4"><a xlink:href="../../d9/d10/structGeometry_1_1Triangle.html#ac3110759da55ec56b4997a01b39917ad" target="_top" xlink:title=" ">
<polygon fill="none" stroke="black" points="239,-0.5 239,-30.5 348,-30.5 348,-0.5 239,-0.5"/>
<text text-anchor="start" x="247" y="-18.5" font-family="Helvetica,sans-Serif" font-size="10.00">Geometry::Triangle</text>
<text text-anchor="middle" x="293.5" y="-7.5" font-family="Helvetica,sans-Serif" font-size="10.00">::area</text>
</a>
</g>
</g>
<!-- Node3&#45;&gt;Node4 -->
<g id="edge3" class="edge">
<title>Node3&#45;&gt;Node4</title>
<path fill="none" stroke="midnightblue" d="M189.68,-15.5C201.78,-15.5 215.44,-15.5 228.75,-15.5"/>
<polygon fill="midnightblue" stroke="midnightblue" points="228.83,-19 238.83,-15.5 228.83,-12 228.83,-19"/>
</g>
<!-- Node5 -->
<g id="node5" class="node">
<title>Node5</title>
<g id="a_node5"><a xlink:href="../../d9/d10/structGeometry_1_1Triangle.html#a8e15f67560cfc1bffc07d0ffd8964159" target="_top" xlink:title=" ">
<polygon fill="none" stroke="black" points="384,-0.5 384,-30.5 493,-30.5 493,-0.5 384,-0.5"/>
<text text-anchor="start" x="392" y="-18.5" font-family="Helvetica,sans-Serif" font-size="10.00">Geometry::Triangle</text>
<text text-anchor="middle" x="438.5" y="-7.5" font-family="Helvetica,sans-Serif" font-size="10.00">::lines</text>
</a>
</g>
</g>
<!-- Node4&#45;&gt;Node5 -->
<g id="edge4" class="edge">
<title>Node4&#45;&gt;Node5</title>
<path fill="none" stroke="midnightblue" d="M348.15,-15.5C356.38,-15.5 364.94,-15.5 373.37,-15.5"/>
<polygon fill="midnightblue" stroke="midnightblue" points="373.54,-19 383.54,-15.5 373.54,-12 373.54,-19"/>
</g>
</g>
</svg>
