<?xml version="1.0" encoding="UTF-8" standalone="no"?>
<!DOCTYPE svg PUBLIC "-//W3C//DTD SVG 1.1//EN"
 "http://www.w3.org/Graphics/SVG/1.1/DTD/svg11.dtd">
<!-- Generated by graphviz version 2.43.0 (0)
 -->
<!-- Title: Cell::setEmitSurface Pages: 1 -->
<svg width="417pt" height="78pt"
 viewBox="0.00 0.00 417.00 77.50" xmlns="http://www.w3.org/2000/svg" xmlns:xlink="http://www.w3.org/1999/xlink">
<g id="graph0" class="graph" transform="scale(1 1) rotate(0) translate(4 73.5)">
<title>Cell::setEmitSurface</title>
<!-- Node1 -->
<g id="node1" class="node">
<title>Node1</title>
<g id="a_node1"><a xlink:title=" ">
<polygon fill="#bfbfbf" stroke="black" points="0,-28 0,-47 116,-47 116,-28 0,-28"/>
<text text-anchor="middle" x="58" y="-35" font-family="Helvetica,sans-Serif" font-size="10.00">Cell::setEmitSurface</text>
</a>
</g>
</g>
<!-- Node2 -->
<g id="node2" class="node">
<title>Node2</title>
<g id="a_node2"><a xlink:href="../../de/dfd/classCell.html#a0d7a245c41acd87a2d2de2813644a228" target="_top" xlink:title=" ">
<polygon fill="none" stroke="black" points="157.5,-50 157.5,-69 255.5,-69 255.5,-50 157.5,-50"/>
<text text-anchor="middle" x="206.5" y="-57" font-family="Helvetica,sans-Serif" font-size="10.00">Cell::getMaterial</text>
</a>
</g>
</g>
<!-- Node1&#45;&gt;Node2 -->
<g id="edge1" class="edge">
<title>Node1&#45;&gt;Node2</title>
<path fill="none" stroke="midnightblue" d="M116.06,-46.07C126.3,-47.61 136.99,-49.21 147.27,-50.76"/>
<polygon fill="midnightblue" stroke="midnightblue" points="146.97,-54.25 157.38,-52.27 148.01,-47.33 146.97,-54.25"/>
</g>
<!-- Node4 -->
<g id="node4" class="node">
<title>Node4</title>
<g id="a_node4"><a xlink:href="../../d9/d10/structGeometry_1_1Triangle.html#ad63a2b6840269e11ea8e48937baf5756" target="_top" xlink:title=" ">
<polygon fill="none" stroke="black" points="152,-0.5 152,-30.5 261,-30.5 261,-0.5 152,-0.5"/>
<text text-anchor="start" x="160" y="-18.5" font-family="Helvetica,sans-Serif" font-size="10.00">Geometry::Triangle</text>
<text text-anchor="middle" x="206.5" y="-7.5" font-family="Helvetica,sans-Serif" font-size="10.00">::isClockwise</text>
</a>
</g>
</g>
<!-- Node1&#45;&gt;Node4 -->
<g id="edge3" class="edge">
<title>Node1&#45;&gt;Node4</title>
<path fill="none" stroke="midnightblue" d="M116.06,-28.93C124.49,-27.67 133.22,-26.35 141.78,-25.07"/>
<polygon fill="midnightblue" stroke="midnightblue" points="142.34,-28.52 151.71,-23.58 141.3,-21.6 142.34,-28.52"/>
</g>
<!-- Node3 -->
<g id="node3" class="node">
<title>Node3</title>
<g id="a_node3"><a xlink:href="../../d1/dd6/classSensor.html#ac6d0d5438d629573ead2a0319cbac540" target="_top" xlink:title=" ">
<polygon fill="none" stroke="black" points="297,-50 297,-69 409,-69 409,-50 297,-50"/>
<text text-anchor="middle" x="353" y="-57" font-family="Helvetica,sans-Serif" font-size="10.00">Sensor::getMaterial</text>
</a>
</g>
</g>
<!-- Node2&#45;&gt;Node3 -->
<g id="edge2" class="edge">
<title>Node2&#45;&gt;Node3</title>
<path fill="none" stroke="midnightblue" d="M255.62,-59.5C265.53,-59.5 276.13,-59.5 286.54,-59.5"/>
<polygon fill="midnightblue" stroke="midnightblue" points="286.85,-63 296.85,-59.5 286.85,-56 286.85,-63"/>
</g>
</g>
</svg>
