<?xml version="1.0" encoding="UTF-8" standalone="no"?>
<!DOCTYPE svg PUBLIC "-//W3C//DTD SVG 1.1//EN"
 "http://www.w3.org/Graphics/SVG/1.1/DTD/svg11.dtd">
<!-- Generated by graphviz version 2.43.0 (0)
 -->
<!-- Title: Cell::validate Pages: 1 -->
<svg width="440pt" height="88pt"
 viewBox="0.00 0.00 440.00 88.00" xmlns="http://www.w3.org/2000/svg" xmlns:xlink="http://www.w3.org/1999/xlink">
<g id="graph0" class="graph" transform="scale(1 1) rotate(0) translate(4 84)">
<title>Cell::validate</title>
<!-- Node1 -->
<g id="node1" class="node">
<title>Node1</title>
<g id="a_node1"><a xlink:title=" ">
<polygon fill="#bfbfbf" stroke="black" points="0,-30 0,-49 81,-49 81,-30 0,-30"/>
<text text-anchor="middle" x="40.5" y="-37" font-family="Helvetica,sans-Serif" font-size="10.00">Cell::validate</text>
</a>
</g>
</g>
<!-- Node2 -->
<g id="node2" class="node">
<title>Node2</title>
<g id="a_node2"><a xlink:href="../../d9/d10/structGeometry_1_1Triangle.html#ac527aee8f182051052aa2bb775c5f074" target="_top" xlink:title=" ">
<polygon fill="none" stroke="black" points="117,-49.5 117,-79.5 226,-79.5 226,-49.5 117,-49.5"/>
<text text-anchor="start" x="125" y="-67.5" font-family="Helvetica,sans-Serif" font-size="10.00">Geometry::Triangle</text>
<text text-anchor="middle" x="171.5" y="-56.5" font-family="Helvetica,sans-Serif" font-size="10.00">::contains</text>
</a>
</g>
</g>
<!-- Node1&#45;&gt;Node2 -->
<g id="edge1" class="edge">
<title>Node1&#45;&gt;Node2</title>
<path fill="none" stroke="midnightblue" d="M81.26,-47.2C89.43,-48.79 98.23,-50.49 107.01,-52.2"/>
<polygon fill="midnightblue" stroke="midnightblue" points="106.39,-55.64 116.87,-54.11 107.72,-48.77 106.39,-55.64"/>
</g>
<!-- Node3 -->
<g id="node3" class="node">
<title>Node3</title>
<g id="a_node3"><a xlink:href="../../d9/d10/structGeometry_1_1Triangle.html#a6ae6d3c182510419ac7f3a0f1e0358f0" target="_top" xlink:title=" ">
<polygon fill="none" stroke="black" points="117,-0.5 117,-30.5 226,-30.5 226,-0.5 117,-0.5"/>
<text text-anchor="start" x="125" y="-18.5" font-family="Helvetica,sans-Serif" font-size="10.00">Geometry::Triangle</text>
<text text-anchor="middle" x="171.5" y="-7.5" font-family="Helvetica,sans-Serif" font-size="10.00">::intersects</text>
</a>
</g>
</g>
<!-- Node1&#45;&gt;Node3 -->
<g id="edge2" class="edge">
<title>Node1&#45;&gt;Node3</title>
<path fill="none" stroke="midnightblue" d="M81.26,-32.1C89.43,-30.58 98.23,-28.94 107.01,-27.31"/>
<polygon fill="midnightblue" stroke="midnightblue" points="107.68,-30.75 116.87,-25.48 106.4,-23.87 107.68,-30.75"/>
</g>
<!-- Node4 -->
<g id="node4" class="node">
<title>Node4</title>
<g id="a_node4"><a xlink:href="../../d1/d2a/structGeometry_1_1Line.html#ae966bdee0ed4b93828819766a677090c" target="_top" xlink:title=" ">
<polygon fill="none" stroke="black" points="262,-6 262,-25 432,-25 432,-6 262,-6"/>
<text text-anchor="middle" x="347" y="-13" font-family="Helvetica,sans-Serif" font-size="10.00">Geometry::Line::getIntersection</text>
</a>
</g>
</g>
<!-- Node3&#45;&gt;Node4 -->
<g id="edge3" class="edge">
<title>Node3&#45;&gt;Node4</title>
<path fill="none" stroke="midnightblue" d="M226.45,-15.5C234.52,-15.5 243.05,-15.5 251.67,-15.5"/>
<polygon fill="midnightblue" stroke="midnightblue" points="251.82,-19 261.82,-15.5 251.82,-12 251.82,-19"/>
</g>
</g>
</svg>
