<?xml version="1.0" encoding="UTF-8" standalone="no"?>
<!DOCTYPE svg PUBLIC "-//W3C//DTD SVG 1.1//EN"
 "http://www.w3.org/Graphics/SVG/1.1/DTD/svg11.dtd">
<!-- Generated by graphviz version 2.43.0 (0)
 -->
<!-- Title: Cell::getBoundaryLines Pages: 1 -->
<svg width="588pt" height="66pt"
 viewBox="0.00 0.00 588.00 66.00" xmlns="http://www.w3.org/2000/svg" xmlns:xlink="http://www.w3.org/1999/xlink">
<g id="graph0" class="graph" transform="scale(1 1) rotate(0) translate(4 62)">
<title>Cell::getBoundaryLines</title>
<!-- Node1 -->
<g id="node1" class="node">
<title>Node1</title>
<g id="a_node1"><a xlink:title=" ">
<polygon fill="#bfbfbf" stroke="black" points="451,-19.5 451,-38.5 580,-38.5 580,-19.5 451,-19.5"/>
<text text-anchor="middle" x="515.5" y="-26.5" font-family="Helvetica,sans-Serif" font-size="10.00">Cell::getBoundaryLines</text>
</a>
</g>
</g>
<!-- Node2 -->
<g id="node2" class="node">
<title>Node2</title>
<g id="a_node2"><a xlink:href="../../de/dfd/classCell.html#ad8ab033d3db9b26d175b2c8481235acf" target="_top" xlink:title=" ">
<polygon fill="none" stroke="black" points="261,-38.5 261,-57.5 404,-57.5 404,-38.5 261,-38.5"/>
<text text-anchor="middle" x="332.5" y="-45.5" font-family="Helvetica,sans-Serif" font-size="10.00">Cell::findTransitionSurface</text>
</a>
</g>
</g>
<!-- Node1&#45;&gt;Node2 -->
<g id="edge1" class="edge">
<title>Node1&#45;&gt;Node2</title>
<path fill="none" stroke="midnightblue" d="M440.84,-36.73C428.68,-38.01 416.09,-39.33 404,-40.6"/>
<polygon fill="midnightblue" stroke="midnightblue" points="441.36,-40.2 450.94,-35.67 440.63,-33.24 441.36,-40.2"/>
</g>
<!-- Node5 -->
<g id="node5" class="node">
<title>Node5</title>
<g id="a_node5"><a xlink:href="../../d2/db2/classPhonon.html#a380e5da148b57c40be6c78d17c76968f" target="_top" xlink:title=" ">
<polygon fill="none" stroke="black" points="250,-0.5 250,-19.5 415,-19.5 415,-0.5 250,-0.5"/>
<text text-anchor="middle" x="332.5" y="-7.5" font-family="Helvetica,sans-Serif" font-size="10.00">Phonon::getCellBoundaryLines</text>
</a>
</g>
</g>
<!-- Node1&#45;&gt;Node5 -->
<g id="edge4" class="edge">
<title>Node1&#45;&gt;Node5</title>
<path fill="none" stroke="midnightblue" d="M440.73,-21.26C432.26,-20.37 423.58,-19.46 415.02,-18.56"/>
<polygon fill="midnightblue" stroke="midnightblue" points="440.63,-24.76 450.94,-22.33 441.36,-17.8 440.63,-24.76"/>
</g>
<!-- Node3 -->
<g id="node3" class="node">
<title>Node3</title>
<g id="a_node3"><a xlink:href="../../d6/d18/classModel.html#af1a3ec716c6789100bffad58515b3fd1" target="_top" xlink:title=" ">
<polygon fill="none" stroke="black" points="125,-38.5 125,-57.5 214,-57.5 214,-38.5 125,-38.5"/>
<text text-anchor="middle" x="169.5" y="-45.5" font-family="Helvetica,sans-Serif" font-size="10.00">Model::addCell</text>
</a>
</g>
</g>
<!-- Node2&#45;&gt;Node3 -->
<g id="edge2" class="edge">
<title>Node2&#45;&gt;Node3</title>
<path fill="none" stroke="midnightblue" d="M250.79,-48C238.17,-48 225.56,-48 214.19,-48"/>
<polygon fill="midnightblue" stroke="midnightblue" points="250.88,-51.5 260.88,-48 250.88,-44.5 250.88,-51.5"/>
</g>
<!-- Node4 -->
<g id="node4" class="node">
<title>Node4</title>
<g id="a_node4"><a xlink:href="../../d6/d18/classModel.html#aea0e28728148047d926ae8eb9e162994" target="_top" xlink:title=" ">
<polygon fill="none" stroke="black" points="0,-38.5 0,-57.5 89,-57.5 89,-38.5 0,-38.5"/>
<text text-anchor="middle" x="44.5" y="-45.5" font-family="Helvetica,sans-Serif" font-size="10.00">Model::addCell</text>
</a>
</g>
</g>
<!-- Node3&#45;&gt;Node4 -->
<g id="edge3" class="edge">
<title>Node3&#45;&gt;Node4</title>
<path fill="none" stroke="midnightblue" d="M114.54,-48C106.03,-48 97.31,-48 89.07,-48"/>
<polygon fill="midnightblue" stroke="midnightblue" points="114.79,-51.5 124.79,-48 114.79,-44.5 114.79,-51.5"/>
</g>
</g>
</svg>
