<?xml version="1.0" encoding="UTF-8" standalone="no"?>
<!DOCTYPE svg PUBLIC "-//W3C//DTD SVG 1.1//EN"
 "http://www.w3.org/Graphics/SVG/1.1/DTD/svg11.dtd">
<!-- Generated by graphviz version 2.43.0 (0)
 -->
<!-- Title: psim/include/psim/surface.h Pages: 1 -->
<svg width="578pt" height="196pt"
 viewBox="0.00 0.00 578.00 196.00" xmlns="http://www.w3.org/2000/svg" xmlns:xlink="http://www.w3.org/1999/xlink">
<g id="graph0" class="graph" transform="scale(1 1) rotate(0) translate(4 192)">
<title>psim/include/psim/surface.h</title>
<!-- Node1 -->
<g id="node1" class="node">
<title>Node1</title>
<g id="a_node1"><a xlink:title=" ">
<polygon fill="#bfbfbf" stroke="black" points="97.5,-168.5 97.5,-187.5 251.5,-187.5 251.5,-168.5 97.5,-168.5"/>
<text text-anchor="middle" x="174.5" y="-175.5" font-family="Helvetica,sans-Serif" font-size="10.00">psim/include/psim/surface.h</text>
</a>
</g>
</g>
<!-- Node2 -->
<g id="node2" class="node">
<title>Node2</title>
<g id="a_node2"><a xlink:href="../../d4/d67/geometry_8h.html" target="_top" xlink:title=" ">
<polygon fill="none" stroke="black" points="272,-56.5 272,-75.5 343,-75.5 343,-56.5 272,-56.5"/>
<text text-anchor="middle" x="307.5" y="-63.5" font-family="Helvetica,sans-Serif" font-size="10.00">geometry.h</text>
</a>
</g>
</g>
<!-- Node1&#45;&gt;Node2 -->
<g id="edge1" class="edge">
<title>Node1&#45;&gt;Node2</title>
<path fill="none" stroke="midnightblue" d="M184.94,-168.37C207.47,-149.73 260.91,-105.53 289.2,-82.13"/>
<polygon fill="midnightblue" stroke="midnightblue" points="291.64,-84.66 297.11,-75.59 287.18,-79.27 291.64,-84.66"/>
</g>
<!-- Node10 -->
<g id="node10" class="node">
<title>Node10</title>
<g id="a_node10"><a xlink:href="../../d3/d65/material_8h.html" target="_top" xlink:title=" ">
<polygon fill="none" stroke="black" points="110,-112.5 110,-131.5 177,-131.5 177,-112.5 110,-112.5"/>
<text text-anchor="middle" x="143.5" y="-119.5" font-family="Helvetica,sans-Serif" font-size="10.00">material.h</text>
</a>
</g>
</g>
<!-- Node1&#45;&gt;Node10 -->
<g id="edge9" class="edge">
<title>Node1&#45;&gt;Node10</title>
<path fill="none" stroke="midnightblue" d="M169.38,-168.08C165.09,-160.61 158.84,-149.72 153.56,-140.52"/>
<polygon fill="midnightblue" stroke="midnightblue" points="156.54,-138.68 148.52,-131.75 150.47,-142.17 156.54,-138.68"/>
</g>
<!-- Node3 -->
<g id="node3" class="node">
<title>Node3</title>
<g id="a_node3"><a xlink:title=" ">
<polygon fill="none" stroke="#bfbfbf" points="216.5,-0.5 216.5,-19.5 258.5,-19.5 258.5,-0.5 216.5,-0.5"/>
<text text-anchor="middle" x="237.5" y="-7.5" font-family="Helvetica,sans-Serif" font-size="10.00">array</text>
</a>
</g>
</g>
<!-- Node2&#45;&gt;Node3 -->
<g id="edge2" class="edge">
<title>Node2&#45;&gt;Node3</title>
<path fill="none" stroke="midnightblue" d="M296.25,-56.32C285.7,-48.18 269.7,-35.84 257.06,-26.09"/>
<polygon fill="midnightblue" stroke="midnightblue" points="259.01,-23.17 248.95,-19.83 254.73,-28.71 259.01,-23.17"/>
</g>
<!-- Node4 -->
<g id="node4" class="node">
<title>Node4</title>
<g id="a_node4"><a xlink:title=" ">
<polygon fill="none" stroke="#bfbfbf" points="277,-0.5 277,-19.5 342,-19.5 342,-0.5 277,-0.5"/>
<text text-anchor="middle" x="309.5" y="-7.5" font-family="Helvetica,sans-Serif" font-size="10.00">exception</text>
</a>
</g>
</g>
<!-- Node2&#45;&gt;Node4 -->
<g id="edge3" class="edge">
<title>Node2&#45;&gt;Node4</title>
<path fill="none" stroke="midnightblue" d="M307.83,-56.08C308.09,-49.01 308.47,-38.86 308.8,-29.99"/>
<polygon fill="midnightblue" stroke="midnightblue" points="312.3,-29.87 309.18,-19.75 305.31,-29.61 312.3,-29.87"/>
</g>
<!-- Node5 -->
<g id="node5" class="node">
<title>Node5</title>
<g id="a_node5"><a xlink:title=" ">
<polygon fill="none" stroke="#bfbfbf" points="360.5,-0.5 360.5,-19.5 416.5,-19.5 416.5,-0.5 360.5,-0.5"/>
<text text-anchor="middle" x="388.5" y="-7.5" font-family="Helvetica,sans-Serif" font-size="10.00">optional</text>
</a>
</g>
</g>
<!-- Node2&#45;&gt;Node5 -->
<g id="edge4" class="edge">
<title>Node2&#45;&gt;Node5</title>
<path fill="none" stroke="midnightblue" d="M320.51,-56.32C333.03,-47.98 352.18,-35.21 366.97,-25.35"/>
<polygon fill="midnightblue" stroke="midnightblue" points="369.14,-28.11 375.52,-19.65 365.26,-22.29 369.14,-28.11"/>
</g>
<!-- Node6 -->
<g id="node6" class="node">
<title>Node6</title>
<g id="a_node6"><a xlink:title=" ">
<polygon fill="none" stroke="#bfbfbf" points="141,-0.5 141,-19.5 198,-19.5 198,-0.5 141,-0.5"/>
<text text-anchor="middle" x="169.5" y="-7.5" font-family="Helvetica,sans-Serif" font-size="10.00">ostream</text>
</a>
</g>
</g>
<!-- Node2&#45;&gt;Node6 -->
<g id="edge5" class="edge">
<title>Node2&#45;&gt;Node6</title>
<path fill="none" stroke="midnightblue" d="M285.63,-56.44C262.72,-47.48 226.52,-33.31 200.63,-23.18"/>
<polygon fill="midnightblue" stroke="midnightblue" points="201.85,-19.9 191.26,-19.52 199.3,-26.42 201.85,-19.9"/>
</g>
<!-- Node7 -->
<g id="node7" class="node">
<title>Node7</title>
<g id="a_node7"><a xlink:title=" ">
<polygon fill="none" stroke="#bfbfbf" points="434.5,-0.5 434.5,-19.5 478.5,-19.5 478.5,-0.5 434.5,-0.5"/>
<text text-anchor="middle" x="456.5" y="-7.5" font-family="Helvetica,sans-Serif" font-size="10.00">string</text>
</a>
</g>
</g>
<!-- Node2&#45;&gt;Node7 -->
<g id="edge6" class="edge">
<title>Node2&#45;&gt;Node7</title>
<path fill="none" stroke="midnightblue" d="M331.11,-56.44C356.4,-47.28 396.67,-32.68 424.72,-22.52"/>
<polygon fill="midnightblue" stroke="midnightblue" points="426.25,-25.69 434.46,-18.99 423.86,-19.11 426.25,-25.69"/>
</g>
<!-- Node8 -->
<g id="node8" class="node">
<title>Node8</title>
<g id="a_node8"><a xlink:title=" ">
<polygon fill="none" stroke="#bfbfbf" points="497,-0.5 497,-19.5 570,-19.5 570,-0.5 497,-0.5"/>
<text text-anchor="middle" x="533.5" y="-7.5" font-family="Helvetica,sans-Serif" font-size="10.00">string_view</text>
</a>
</g>
</g>
<!-- Node2&#45;&gt;Node8 -->
<g id="edge7" class="edge">
<title>Node2&#45;&gt;Node8</title>
<path fill="none" stroke="midnightblue" d="M343.06,-56.5C382.19,-47.15 445.18,-32.1 487.91,-21.89"/>
<polygon fill="midnightblue" stroke="midnightblue" points="488.86,-25.26 497.77,-19.54 487.23,-18.46 488.86,-25.26"/>
</g>
<!-- Node9 -->
<g id="node9" class="node">
<title>Node9</title>
<g id="a_node9"><a xlink:title=" ">
<polygon fill="none" stroke="#bfbfbf" points="78,-0.5 78,-19.5 123,-19.5 123,-0.5 78,-0.5"/>
<text text-anchor="middle" x="100.5" y="-7.5" font-family="Helvetica,sans-Serif" font-size="10.00">utility</text>
</a>
</g>
</g>
<!-- Node2&#45;&gt;Node9 -->
<g id="edge8" class="edge">
<title>Node2&#45;&gt;Node9</title>
<path fill="none" stroke="midnightblue" d="M273.24,-56.43C239.91,-48.04 187.62,-34.74 133.06,-20.1"/>
<polygon fill="midnightblue" stroke="midnightblue" points="133.77,-16.67 123.21,-17.45 131.96,-23.43 133.77,-16.67"/>
</g>
<!-- Node10&#45;&gt;Node3 -->
<g id="edge15" class="edge">
<title>Node10&#45;&gt;Node3</title>
<path fill="none" stroke="midnightblue" d="M168.17,-112.45C185.29,-105.28 207.31,-93.39 220.5,-76 230.52,-62.79 234.66,-44.2 236.35,-30.28"/>
<polygon fill="midnightblue" stroke="midnightblue" points="239.87,-30.19 237.28,-19.91 232.9,-29.56 239.87,-30.19"/>
</g>
<!-- Node10&#45;&gt;Node9 -->
<g id="edge17" class="edge">
<title>Node10&#45;&gt;Node9</title>
<path fill="none" stroke="midnightblue" d="M119.71,-112.5C103.78,-105.41 84.04,-93.61 74.5,-76 65.95,-60.22 75.91,-41.02 85.88,-27.59"/>
<polygon fill="midnightblue" stroke="midnightblue" points="88.69,-29.68 92.23,-19.7 83.23,-25.3 88.69,-29.68"/>
</g>
<!-- Node11 -->
<g id="node11" class="node">
<title>Node11</title>
<g id="a_node11"><a xlink:href="../../d3/d34/phonon_8h.html" target="_top" xlink:title=" ">
<polygon fill="none" stroke="black" points="149.5,-56.5 149.5,-75.5 211.5,-75.5 211.5,-56.5 149.5,-56.5"/>
<text text-anchor="middle" x="180.5" y="-63.5" font-family="Helvetica,sans-Serif" font-size="10.00">phonon.h</text>
</a>
</g>
</g>
<!-- Node10&#45;&gt;Node11 -->
<g id="edge10" class="edge">
<title>Node10&#45;&gt;Node11</title>
<path fill="none" stroke="midnightblue" d="M149.61,-112.08C154.78,-104.53 162.35,-93.49 168.69,-84.23"/>
<polygon fill="midnightblue" stroke="midnightblue" points="171.74,-85.98 174.5,-75.75 165.96,-82.02 171.74,-85.98"/>
</g>
<!-- Node12 -->
<g id="node12" class="node">
<title>Node12</title>
<g id="a_node12"><a xlink:title=" ">
<polygon fill="none" stroke="#bfbfbf" points="0,-0.5 0,-19.5 53,-19.5 53,-0.5 0,-0.5"/>
<text text-anchor="middle" x="26.5" y="-7.5" font-family="Helvetica,sans-Serif" font-size="10.00">cstddef</text>
</a>
</g>
</g>
<!-- Node10&#45;&gt;Node12 -->
<g id="edge16" class="edge">
<title>Node10&#45;&gt;Node12</title>
<path fill="none" stroke="midnightblue" d="M123.68,-112.49C107.25,-104.73 83.99,-92.03 67.5,-76 53.49,-62.38 42.09,-43.07 34.9,-29.04"/>
<polygon fill="midnightblue" stroke="midnightblue" points="37.97,-27.35 30.43,-19.91 31.69,-30.43 37.97,-27.35"/>
</g>
<!-- Node13 -->
<g id="node13" class="node">
<title>Node13</title>
<g id="a_node13"><a xlink:title=" ">
<polygon fill="none" stroke="#bfbfbf" points="84,-56.5 84,-75.5 131,-75.5 131,-56.5 84,-56.5"/>
<text text-anchor="middle" x="107.5" y="-63.5" font-family="Helvetica,sans-Serif" font-size="10.00">vector</text>
</a>
</g>
</g>
<!-- Node10&#45;&gt;Node13 -->
<g id="edge18" class="edge">
<title>Node10&#45;&gt;Node13</title>
<path fill="none" stroke="midnightblue" d="M137.56,-112.08C132.52,-104.53 125.16,-93.49 118.99,-84.23"/>
<polygon fill="midnightblue" stroke="midnightblue" points="121.79,-82.13 113.33,-75.75 115.97,-86.01 121.79,-82.13"/>
</g>
<!-- Node11&#45;&gt;Node3 -->
<g id="edge11" class="edge">
<title>Node11&#45;&gt;Node3</title>
<path fill="none" stroke="midnightblue" d="M189.66,-56.32C198,-48.42 210.53,-36.55 220.68,-26.94"/>
<polygon fill="midnightblue" stroke="midnightblue" points="223.32,-29.25 228.18,-19.83 218.51,-24.17 223.32,-29.25"/>
</g>
<!-- Node11&#45;&gt;Node6 -->
<g id="edge13" class="edge">
<title>Node11&#45;&gt;Node6</title>
<path fill="none" stroke="midnightblue" d="M178.68,-56.08C177.23,-48.93 175.13,-38.64 173.31,-29.69"/>
<polygon fill="midnightblue" stroke="midnightblue" points="176.71,-28.85 171.28,-19.75 169.85,-30.25 176.71,-28.85"/>
</g>
<!-- Node11&#45;&gt;Node9 -->
<g id="edge14" class="edge">
<title>Node11&#45;&gt;Node9</title>
<path fill="none" stroke="midnightblue" d="M167.65,-56.32C155.28,-47.98 136.37,-35.21 121.76,-25.35"/>
<polygon fill="midnightblue" stroke="midnightblue" points="123.57,-22.35 113.32,-19.65 119.65,-28.15 123.57,-22.35"/>
</g>
<!-- Node11&#45;&gt;Node12 -->
<g id="edge12" class="edge">
<title>Node11&#45;&gt;Node12</title>
<path fill="none" stroke="midnightblue" d="M156.1,-56.44C130.3,-47.4 89.42,-33.06 60.48,-22.92"/>
<polygon fill="midnightblue" stroke="midnightblue" points="61.38,-19.52 50.79,-19.52 59.07,-26.13 61.38,-19.52"/>
</g>
</g>
</svg>
