<?xml version="1.0" encoding="UTF-8" standalone="no"?>
<!DOCTYPE svg PUBLIC "-//W3C//DTD SVG 1.1//EN"
 "http://www.w3.org/Graphics/SVG/1.1/DTD/svg11.dtd">
<!-- Generated by graphviz version 2.43.0 (0)
 -->
<!-- Title: psim/src/sensorController.cpp Pages: 1 -->
<svg width="518pt" height="252pt"
 viewBox="0.00 0.00 518.07 252.00" xmlns="http://www.w3.org/2000/svg" xmlns:xlink="http://www.w3.org/1999/xlink">
<g id="graph0" class="graph" transform="scale(1 1) rotate(0) translate(4 248)">
<title>psim/src/sensorController.cpp</title>
<!-- Node1 -->
<g id="node1" class="node">
<title>Node1</title>
<g id="a_node1"><a xlink:title=" ">
<polygon fill="#bfbfbf" stroke="black" points="201.07,-224.5 201.07,-243.5 362.07,-243.5 362.07,-224.5 201.07,-224.5"/>
<text text-anchor="middle" x="281.57" y="-231.5" font-family="Helvetica,sans-Serif" font-size="10.00">psim/src/sensorController.cpp</text>
</a>
</g>
</g>
<!-- Node2 -->
<g id="node2" class="node">
<title>Node2</title>
<g id="a_node2"><a xlink:href="../../da/d16/sensorController_8h.html" target="_top" xlink:title=" ">
<polygon fill="none" stroke="black" points="2.57,-168.5 2.57,-187.5 134.57,-187.5 134.57,-168.5 2.57,-168.5"/>
<text text-anchor="middle" x="68.57" y="-175.5" font-family="Helvetica,sans-Serif" font-size="10.00">psim/sensorController.h</text>
</a>
</g>
</g>
<!-- Node1&#45;&gt;Node2 -->
<g id="edge1" class="edge">
<title>Node1&#45;&gt;Node2</title>
<path fill="none" stroke="midnightblue" d="M247.82,-224.44C211.05,-215.12 152.13,-200.18 111.95,-190"/>
<polygon fill="midnightblue" stroke="midnightblue" points="112.72,-186.58 102.16,-187.52 111,-193.37 112.72,-186.58"/>
</g>
<!-- Node3 -->
<g id="node3" class="node">
<title>Node3</title>
<g id="a_node3"><a xlink:href="../../d3/d65/material_8h.html" target="_top" xlink:title=" ">
<polygon fill="none" stroke="black" points="92.07,-112.5 92.07,-131.5 159.07,-131.5 159.07,-112.5 92.07,-112.5"/>
<text text-anchor="middle" x="125.57" y="-119.5" font-family="Helvetica,sans-Serif" font-size="10.00">material.h</text>
</a>
</g>
</g>
<!-- Node1&#45;&gt;Node3 -->
<g id="edge14" class="edge">
<title>Node1&#45;&gt;Node3</title>
<path fill="none" stroke="midnightblue" d="M264.13,-224.45C247.52,-216.01 222.08,-202.33 201.57,-188 179.72,-172.73 156.74,-152.39 141.84,-138.56"/>
<polygon fill="midnightblue" stroke="midnightblue" points="144.14,-135.92 134.46,-131.62 139.35,-141.02 144.14,-135.92"/>
</g>
<!-- Node4 -->
<g id="node4" class="node">
<title>Node4</title>
<g id="a_node4"><a xlink:href="../../d3/d34/phonon_8h.html" target="_top" xlink:title=" ">
<polygon fill="none" stroke="black" points="153.57,-56.5 153.57,-75.5 215.57,-75.5 215.57,-56.5 153.57,-56.5"/>
<text text-anchor="middle" x="184.57" y="-63.5" font-family="Helvetica,sans-Serif" font-size="10.00">phonon.h</text>
</a>
</g>
</g>
<!-- Node1&#45;&gt;Node4 -->
<g id="edge15" class="edge">
<title>Node1&#45;&gt;Node4</title>
<path fill="none" stroke="midnightblue" d="M276.36,-224.08C260.89,-197.61 215.08,-119.21 194.63,-84.21"/>
<polygon fill="midnightblue" stroke="midnightblue" points="197.65,-82.44 189.58,-75.57 191.6,-85.97 197.65,-82.44"/>
</g>
<!-- Node8 -->
<g id="node8" class="node">
<title>Node8</title>
<g id="a_node8"><a xlink:title=" ">
<polygon fill="none" stroke="#bfbfbf" points="240.07,-0.5 240.07,-19.5 285.07,-19.5 285.07,-0.5 240.07,-0.5"/>
<text text-anchor="middle" x="262.57" y="-7.5" font-family="Helvetica,sans-Serif" font-size="10.00">utility</text>
</a>
</g>
</g>
<!-- Node1&#45;&gt;Node8 -->
<g id="edge19" class="edge">
<title>Node1&#45;&gt;Node8</title>
<path fill="none" stroke="midnightblue" d="M280.83,-224.3C278.03,-191.63 268.12,-75.87 264.19,-29.96"/>
<polygon fill="midnightblue" stroke="midnightblue" points="267.67,-29.55 263.33,-19.88 260.7,-30.15 267.67,-29.55"/>
</g>
<!-- Node10 -->
<g id="node10" class="node">
<title>Node10</title>
<g id="a_node10"><a xlink:title=" ">
<polygon fill="none" stroke="#bfbfbf" points="309.57,-168.5 309.57,-187.5 373.57,-187.5 373.57,-168.5 309.57,-168.5"/>
<text text-anchor="middle" x="341.57" y="-175.5" font-family="Helvetica,sans-Serif" font-size="10.00">algorithm</text>
</a>
</g>
</g>
<!-- Node1&#45;&gt;Node10 -->
<g id="edge16" class="edge">
<title>Node1&#45;&gt;Node10</title>
<path fill="none" stroke="midnightblue" d="M291.21,-224.32C300.08,-216.34 313.45,-204.31 324.18,-194.65"/>
<polygon fill="midnightblue" stroke="midnightblue" points="326.67,-197.13 331.76,-187.83 321.98,-191.92 326.67,-197.13"/>
</g>
<!-- Node11 -->
<g id="node11" class="node">
<title>Node11</title>
<g id="a_node11"><a xlink:title=" ">
<polygon fill="none" stroke="#bfbfbf" points="392.07,-168.5 392.07,-187.5 439.07,-187.5 439.07,-168.5 392.07,-168.5"/>
<text text-anchor="middle" x="415.57" y="-175.5" font-family="Helvetica,sans-Serif" font-size="10.00">cmath</text>
</a>
</g>
</g>
<!-- Node1&#45;&gt;Node11 -->
<g id="edge17" class="edge">
<title>Node1&#45;&gt;Node11</title>
<path fill="none" stroke="midnightblue" d="M302.81,-224.44C324.96,-215.52 359.89,-201.44 385.01,-191.32"/>
<polygon fill="midnightblue" stroke="midnightblue" points="386.47,-194.5 394.44,-187.52 383.86,-188.01 386.47,-194.5"/>
</g>
<!-- Node12 -->
<g id="node12" class="node">
<title>Node12</title>
<g id="a_node12"><a xlink:title=" ">
<polygon fill="none" stroke="#bfbfbf" points="457.07,-168.5 457.07,-187.5 510.07,-187.5 510.07,-168.5 457.07,-168.5"/>
<text text-anchor="middle" x="483.57" y="-175.5" font-family="Helvetica,sans-Serif" font-size="10.00">iterator</text>
</a>
</g>
</g>
<!-- Node1&#45;&gt;Node12 -->
<g id="edge18" class="edge">
<title>Node1&#45;&gt;Node12</title>
<path fill="none" stroke="midnightblue" d="M313.58,-224.44C349.94,-214.72 409.14,-198.9 447.21,-188.72"/>
<polygon fill="midnightblue" stroke="midnightblue" points="448.12,-192.1 456.88,-186.14 446.31,-185.34 448.12,-192.1"/>
</g>
<!-- Node2&#45;&gt;Node3 -->
<g id="edge2" class="edge">
<title>Node2&#45;&gt;Node3</title>
<path fill="none" stroke="midnightblue" d="M77.73,-168.32C86.07,-160.42 98.6,-148.55 108.75,-138.94"/>
<polygon fill="midnightblue" stroke="midnightblue" points="111.4,-141.25 116.25,-131.83 106.58,-136.17 111.4,-141.25"/>
</g>
<!-- Node6 -->
<g id="node6" class="node">
<title>Node6</title>
<g id="a_node6"><a xlink:title=" ">
<polygon fill="none" stroke="#bfbfbf" points="33.07,-0.5 33.07,-19.5 86.07,-19.5 86.07,-0.5 33.07,-0.5"/>
<text text-anchor="middle" x="59.57" y="-7.5" font-family="Helvetica,sans-Serif" font-size="10.00">cstddef</text>
</a>
</g>
</g>
<!-- Node2&#45;&gt;Node6 -->
<g id="edge12" class="edge">
<title>Node2&#45;&gt;Node6</title>
<path fill="none" stroke="midnightblue" d="M60.41,-168.45C45.44,-152.08 14.05,-114.54 2.57,-76 0.04,-67.48 -1.3,-64 2.57,-56 8.97,-42.8 21.32,-32.3 32.9,-24.78"/>
<polygon fill="midnightblue" stroke="midnightblue" points="34.73,-27.77 41.49,-19.61 31.12,-21.77 34.73,-27.77"/>
</g>
<!-- Node9 -->
<g id="node9" class="node">
<title>Node9</title>
<g id="a_node9"><a xlink:title=" ">
<polygon fill="none" stroke="#bfbfbf" points="12.07,-56.5 12.07,-75.5 59.07,-75.5 59.07,-56.5 12.07,-56.5"/>
<text text-anchor="middle" x="35.57" y="-63.5" font-family="Helvetica,sans-Serif" font-size="10.00">vector</text>
</a>
</g>
</g>
<!-- Node2&#45;&gt;Node9 -->
<g id="edge13" class="edge">
<title>Node2&#45;&gt;Node9</title>
<path fill="none" stroke="midnightblue" d="M65.98,-168.37C60.63,-150.54 48.26,-109.3 41.05,-85.27"/>
<polygon fill="midnightblue" stroke="midnightblue" points="44.38,-84.16 38.15,-75.59 37.67,-86.18 44.38,-84.16"/>
</g>
<!-- Node3&#45;&gt;Node4 -->
<g id="edge3" class="edge">
<title>Node3&#45;&gt;Node4</title>
<path fill="none" stroke="midnightblue" d="M135.05,-112.32C143.77,-104.34 156.92,-92.31 167.47,-82.65"/>
<polygon fill="midnightblue" stroke="midnightblue" points="169.91,-85.17 174.92,-75.83 165.18,-80 169.91,-85.17"/>
</g>
<!-- Node5 -->
<g id="node5" class="node">
<title>Node5</title>
<g id="a_node5"><a xlink:title=" ">
<polygon fill="none" stroke="#bfbfbf" points="104.57,-0.5 104.57,-19.5 146.57,-19.5 146.57,-0.5 104.57,-0.5"/>
<text text-anchor="middle" x="125.57" y="-7.5" font-family="Helvetica,sans-Serif" font-size="10.00">array</text>
</a>
</g>
</g>
<!-- Node3&#45;&gt;Node5 -->
<g id="edge8" class="edge">
<title>Node3&#45;&gt;Node5</title>
<path fill="none" stroke="midnightblue" d="M125.57,-112.37C125.57,-94.62 125.57,-53.67 125.57,-29.6"/>
<polygon fill="midnightblue" stroke="midnightblue" points="129.07,-29.59 125.57,-19.59 122.07,-29.59 129.07,-29.59"/>
</g>
<!-- Node3&#45;&gt;Node6 -->
<g id="edge9" class="edge">
<title>Node3&#45;&gt;Node6</title>
<path fill="none" stroke="midnightblue" d="M120.39,-112.37C109.55,-94.3 84.28,-52.18 69.96,-28.31"/>
<polygon fill="midnightblue" stroke="midnightblue" points="72.87,-26.37 64.73,-19.59 66.87,-29.97 72.87,-26.37"/>
</g>
<!-- Node3&#45;&gt;Node8 -->
<g id="edge10" class="edge">
<title>Node3&#45;&gt;Node8</title>
<path fill="none" stroke="midnightblue" d="M156.5,-112.41C177.58,-105.34 205.09,-93.58 224.57,-76 238.94,-63.03 249.4,-43.32 255.67,-29.01"/>
<polygon fill="midnightblue" stroke="midnightblue" points="258.92,-30.29 259.48,-19.71 252.45,-27.63 258.92,-30.29"/>
</g>
<!-- Node3&#45;&gt;Node9 -->
<g id="edge11" class="edge">
<title>Node3&#45;&gt;Node9</title>
<path fill="none" stroke="midnightblue" d="M111.11,-112.32C97.07,-103.9 75.52,-90.97 59.03,-81.07"/>
<polygon fill="midnightblue" stroke="midnightblue" points="60.37,-77.8 50,-75.65 56.77,-83.8 60.37,-77.8"/>
</g>
<!-- Node4&#45;&gt;Node5 -->
<g id="edge4" class="edge">
<title>Node4&#45;&gt;Node5</title>
<path fill="none" stroke="midnightblue" d="M175.09,-56.32C166.37,-48.34 153.23,-36.31 142.67,-26.65"/>
<polygon fill="midnightblue" stroke="midnightblue" points="144.96,-24 135.22,-19.83 140.24,-29.17 144.96,-24"/>
</g>
<!-- Node4&#45;&gt;Node6 -->
<g id="edge5" class="edge">
<title>Node4&#45;&gt;Node6</title>
<path fill="none" stroke="midnightblue" d="M164.77,-56.44C144.29,-47.6 112.09,-33.69 88.71,-23.59"/>
<polygon fill="midnightblue" stroke="midnightblue" points="89.85,-20.27 79.29,-19.52 87.08,-26.7 89.85,-20.27"/>
</g>
<!-- Node7 -->
<g id="node7" class="node">
<title>Node7</title>
<g id="a_node7"><a xlink:title=" ">
<polygon fill="none" stroke="#bfbfbf" points="165.07,-0.5 165.07,-19.5 222.07,-19.5 222.07,-0.5 165.07,-0.5"/>
<text text-anchor="middle" x="193.57" y="-7.5" font-family="Helvetica,sans-Serif" font-size="10.00">ostream</text>
</a>
</g>
</g>
<!-- Node4&#45;&gt;Node7 -->
<g id="edge6" class="edge">
<title>Node4&#45;&gt;Node7</title>
<path fill="none" stroke="midnightblue" d="M186.06,-56.08C187.25,-48.93 188.97,-38.64 190.46,-29.69"/>
<polygon fill="midnightblue" stroke="midnightblue" points="193.92,-30.19 192.11,-19.75 187.02,-29.04 193.92,-30.19"/>
</g>
<!-- Node4&#45;&gt;Node8 -->
<g id="edge7" class="edge">
<title>Node4&#45;&gt;Node8</title>
<path fill="none" stroke="midnightblue" d="M197.1,-56.32C209.16,-47.98 227.6,-35.21 241.84,-25.35"/>
<polygon fill="midnightblue" stroke="midnightblue" points="243.84,-28.22 250.07,-19.65 239.86,-22.47 243.84,-28.22"/>
</g>
</g>
</svg>
