<?xml version="1.0" encoding="UTF-8" standalone="no"?>
<!DOCTYPE svg PUBLIC "-//W3C//DTD SVG 1.1//EN"
 "http://www.w3.org/Graphics/SVG/1.1/DTD/svg11.dtd">
<!-- Generated by graphviz version 2.43.0 (0)
 -->
<!-- Title: psim/include/psim/phononBuilder.h Pages: 1 -->
<svg width="625pt" height="207pt"
 viewBox="0.00 0.00 625.00 207.00" xmlns="http://www.w3.org/2000/svg" xmlns:xlink="http://www.w3.org/1999/xlink">
<g id="graph0" class="graph" transform="scale(1 1) rotate(0) translate(4 203)">
<title>psim/include/psim/phononBuilder.h</title>
<!-- Node1 -->
<g id="node1" class="node">
<title>Node1</title>
<g id="a_node1"><a xlink:title=" ">
<polygon fill="#bfbfbf" stroke="black" points="365,-168.5 365,-198.5 510,-198.5 510,-168.5 365,-168.5"/>
<text text-anchor="start" x="373" y="-186.5" font-family="Helvetica,sans-Serif" font-size="10.00">psim/include/psim/phonon</text>
<text text-anchor="middle" x="437.5" y="-175.5" font-family="Helvetica,sans-Serif" font-size="10.00">Builder.h</text>
</a>
</g>
</g>
<!-- Node2 -->
<g id="node2" class="node">
<title>Node2</title>
<g id="a_node2"><a xlink:href="../../db/d26/modelSimulator_8h.html" target="_top" xlink:title=" ">
<polygon fill="none" stroke="black" points="215,-112.5 215,-131.5 410,-131.5 410,-112.5 215,-112.5"/>
<text text-anchor="middle" x="312.5" y="-119.5" font-family="Helvetica,sans-Serif" font-size="10.00">psim/include/psim/modelSimulator.h</text>
</a>
</g>
</g>
<!-- Node1&#45;&gt;Node2 -->
<g id="edge1" class="edge">
<title>Node1&#45;&gt;Node2</title>
<path fill="none" stroke="midnightblue" d="M398.81,-164.08C376.11,-153.28 348.47,-140.12 330.69,-131.66"/>
<polygon fill="midnightblue" stroke="midnightblue" points="397.34,-167.26 407.88,-168.4 400.35,-160.94 397.34,-167.26"/>
</g>
<!-- Node7 -->
<g id="node7" class="node">
<title>Node7</title>
<g id="a_node7"><a xlink:href="../../d1/d3b/modelSimulator_8cpp.html" target="_top" xlink:title=" ">
<polygon fill="none" stroke="black" points="354.5,-56.5 354.5,-75.5 512.5,-75.5 512.5,-56.5 354.5,-56.5"/>
<text text-anchor="middle" x="433.5" y="-63.5" font-family="Helvetica,sans-Serif" font-size="10.00">psim/src/modelSimulator.cpp</text>
</a>
</g>
</g>
<!-- Node1&#45;&gt;Node7 -->
<g id="edge8" class="edge">
<title>Node1&#45;&gt;Node7</title>
<path fill="none" stroke="midnightblue" d="M436.66,-158.21C435.77,-132.41 434.4,-92.99 433.8,-75.67"/>
<polygon fill="midnightblue" stroke="midnightblue" points="433.17,-158.46 437.01,-168.34 440.16,-158.22 433.17,-158.46"/>
</g>
<!-- Node8 -->
<g id="node8" class="node">
<title>Node8</title>
<g id="a_node8"><a xlink:href="../../d5/d8a/phononBuilder_8cpp.html" target="_top" xlink:title=" ">
<polygon fill="none" stroke="black" points="466,-112.5 466,-131.5 617,-131.5 617,-112.5 466,-112.5"/>
<text text-anchor="middle" x="541.5" y="-119.5" font-family="Helvetica,sans-Serif" font-size="10.00">psim/src/phononBuilder.cpp</text>
</a>
</g>
</g>
<!-- Node1&#45;&gt;Node8 -->
<g id="edge9" class="edge">
<title>Node1&#45;&gt;Node8</title>
<path fill="none" stroke="midnightblue" d="M470.95,-163.36C489.6,-152.69 511.9,-139.93 526.37,-131.66"/>
<polygon fill="midnightblue" stroke="midnightblue" points="469.09,-160.4 462.15,-168.4 472.56,-166.47 469.09,-160.4"/>
</g>
<!-- Node3 -->
<g id="node3" class="node">
<title>Node3</title>
<g id="a_node3"><a xlink:href="../../dc/d51/model_8h.html" target="_top" xlink:title=" ">
<polygon fill="none" stroke="black" points="130,-56.5 130,-75.5 279,-75.5 279,-56.5 130,-56.5"/>
<text text-anchor="middle" x="204.5" y="-63.5" font-family="Helvetica,sans-Serif" font-size="10.00">psim/include/psim/model.h</text>
</a>
</g>
</g>
<!-- Node2&#45;&gt;Node3 -->
<g id="edge2" class="edge">
<title>Node2&#45;&gt;Node3</title>
<path fill="none" stroke="midnightblue" d="M285.95,-107.73C265.95,-97.73 239.11,-84.31 221.81,-75.65"/>
<polygon fill="midnightblue" stroke="midnightblue" points="284.64,-110.98 295.15,-112.32 287.77,-104.72 284.64,-110.98"/>
</g>
<!-- Node6 -->
<g id="node6" class="node">
<title>Node6</title>
<g id="a_node6"><a xlink:href="../../d6/db4/model_8cpp.html" target="_top" xlink:title=" ">
<polygon fill="none" stroke="black" points="273.5,-0.5 273.5,-19.5 385.5,-19.5 385.5,-0.5 273.5,-0.5"/>
<text text-anchor="middle" x="329.5" y="-7.5" font-family="Helvetica,sans-Serif" font-size="10.00">psim/src/model.cpp</text>
</a>
</g>
</g>
<!-- Node2&#45;&gt;Node6 -->
<g id="edge6" class="edge">
<title>Node2&#45;&gt;Node6</title>
<path fill="none" stroke="midnightblue" d="M315.38,-102.35C319.11,-78.25 325.43,-37.31 328.17,-19.59"/>
<polygon fill="midnightblue" stroke="midnightblue" points="311.9,-101.95 313.83,-112.37 318.82,-103.02 311.9,-101.95"/>
</g>
<!-- Node2&#45;&gt;Node7 -->
<g id="edge7" class="edge">
<title>Node2&#45;&gt;Node7</title>
<path fill="none" stroke="midnightblue" d="M340.81,-108.37C363.47,-98.26 394.63,-84.35 414.42,-75.52"/>
<polygon fill="midnightblue" stroke="midnightblue" points="339.38,-105.17 331.67,-112.44 342.23,-111.56 339.38,-105.17"/>
</g>
<!-- Node4 -->
<g id="node4" class="node">
<title>Node4</title>
<g id="a_node4"><a xlink:href="../../df/d0a/main_8cpp.html" target="_top" xlink:title=" ">
<polygon fill="none" stroke="black" points="0,-0.5 0,-19.5 89,-19.5 89,-0.5 0,-0.5"/>
<text text-anchor="middle" x="44.5" y="-7.5" font-family="Helvetica,sans-Serif" font-size="10.00">psim/main.cpp</text>
</a>
</g>
</g>
<!-- Node3&#45;&gt;Node4 -->
<g id="edge3" class="edge">
<title>Node3&#45;&gt;Node4</title>
<path fill="none" stroke="midnightblue" d="M169.45,-53.17C139.33,-43 96.6,-28.59 69.73,-19.52"/>
<polygon fill="midnightblue" stroke="midnightblue" points="168.55,-56.56 179.15,-56.44 170.79,-49.93 168.55,-56.56"/>
</g>
<!-- Node5 -->
<g id="node5" class="node">
<title>Node5</title>
<g id="a_node5"><a xlink:href="../../d4/d02/inputManager_8cpp.html" target="_top" xlink:title=" ">
<polygon fill="none" stroke="black" points="107.5,-0.5 107.5,-19.5 255.5,-19.5 255.5,-0.5 107.5,-0.5"/>
<text text-anchor="middle" x="181.5" y="-7.5" font-family="Helvetica,sans-Serif" font-size="10.00">psim/src/inputManager.cpp</text>
</a>
</g>
</g>
<!-- Node3&#45;&gt;Node5 -->
<g id="edge4" class="edge">
<title>Node3&#45;&gt;Node5</title>
<path fill="none" stroke="midnightblue" d="M196.7,-46.69C192.82,-37.59 188.32,-27.01 185.23,-19.75"/>
<polygon fill="midnightblue" stroke="midnightblue" points="193.56,-48.25 200.7,-56.08 200,-45.51 193.56,-48.25"/>
</g>
<!-- Node3&#45;&gt;Node6 -->
<g id="edge5" class="edge">
<title>Node3&#45;&gt;Node6</title>
<path fill="none" stroke="midnightblue" d="M233.74,-52.37C257.15,-42.26 289.34,-28.35 309.79,-19.52"/>
<polygon fill="midnightblue" stroke="midnightblue" points="232.1,-49.26 224.31,-56.44 234.87,-55.69 232.1,-49.26"/>
</g>
</g>
</svg>
