<?xml version="1.0" encoding="UTF-8" standalone="no"?>
<!DOCTYPE svg PUBLIC "-//W3C//DTD SVG 1.1//EN"
 "http://www.w3.org/Graphics/SVG/1.1/DTD/svg11.dtd">
<!-- Generated by graphviz version 2.43.0 (0)
 -->
<!-- Title: psim/include/psim/phononBuilder.h Pages: 1 -->
<svg width="647pt" height="207pt"
 viewBox="0.00 0.00 646.50 207.00" xmlns="http://www.w3.org/2000/svg" xmlns:xlink="http://www.w3.org/1999/xlink">
<g id="graph0" class="graph" transform="scale(1 1) rotate(0) translate(4 203)">
<title>psim/include/psim/phononBuilder.h</title>
<!-- Node1 -->
<g id="node1" class="node">
<title>Node1</title>
<g id="a_node1"><a xlink:title=" ">
<polygon fill="#bfbfbf" stroke="black" points="386.5,-168.5 386.5,-198.5 531.5,-198.5 531.5,-168.5 386.5,-168.5"/>
<text text-anchor="start" x="394.5" y="-186.5" font-family="Helvetica,sans-Serif" font-size="10.00">psim/include/psim/phonon</text>
<text text-anchor="middle" x="459" y="-175.5" font-family="Helvetica,sans-Serif" font-size="10.00">Builder.h</text>
</a>
</g>
</g>
<!-- Node2 -->
<g id="node2" class="node">
<title>Node2</title>
<g id="a_node2"><a xlink:href="../../db/d26/modelSimulator_8h.html" target="_top" xlink:title=" ">
<polygon fill="none" stroke="black" points="236.5,-112.5 236.5,-131.5 431.5,-131.5 431.5,-112.5 236.5,-112.5"/>
<text text-anchor="middle" x="334" y="-119.5" font-family="Helvetica,sans-Serif" font-size="10.00">psim/include/psim/modelSimulator.h</text>
</a>
</g>
</g>
<!-- Node1&#45;&gt;Node2 -->
<g id="edge1" class="edge">
<title>Node1&#45;&gt;Node2</title>
<path fill="none" stroke="midnightblue" d="M420.31,-164.08C397.61,-153.28 369.97,-140.12 352.19,-131.66"/>
<polygon fill="midnightblue" stroke="midnightblue" points="418.84,-167.26 429.38,-168.4 421.85,-160.94 418.84,-167.26"/>
</g>
<!-- Node7 -->
<g id="node7" class="node">
<title>Node7</title>
<g id="a_node7"><a xlink:href="../../d1/d3b/modelSimulator_8cpp.html" target="_top" xlink:title=" ">
<polygon fill="none" stroke="black" points="376,-56.5 376,-75.5 534,-75.5 534,-56.5 376,-56.5"/>
<text text-anchor="middle" x="455" y="-63.5" font-family="Helvetica,sans-Serif" font-size="10.00">psim/src/modelSimulator.cpp</text>
</a>
</g>
</g>
<!-- Node1&#45;&gt;Node7 -->
<g id="edge8" class="edge">
<title>Node1&#45;&gt;Node7</title>
<path fill="none" stroke="midnightblue" d="M458.16,-158.21C457.27,-132.41 455.9,-92.99 455.3,-75.67"/>
<polygon fill="midnightblue" stroke="midnightblue" points="454.67,-158.46 458.51,-168.34 461.66,-158.22 454.67,-158.46"/>
</g>
<!-- Node8 -->
<g id="node8" class="node">
<title>Node8</title>
<g id="a_node8"><a xlink:href="../../d5/d8a/phononBuilder_8cpp.html" target="_top" xlink:title=" ">
<polygon fill="none" stroke="black" points="487.5,-112.5 487.5,-131.5 638.5,-131.5 638.5,-112.5 487.5,-112.5"/>
<text text-anchor="middle" x="563" y="-119.5" font-family="Helvetica,sans-Serif" font-size="10.00">psim/src/phononBuilder.cpp</text>
</a>
</g>
</g>
<!-- Node1&#45;&gt;Node8 -->
<g id="edge9" class="edge">
<title>Node1&#45;&gt;Node8</title>
<path fill="none" stroke="midnightblue" d="M492.45,-163.36C511.1,-152.69 533.4,-139.93 547.87,-131.66"/>
<polygon fill="midnightblue" stroke="midnightblue" points="490.59,-160.4 483.65,-168.4 494.06,-166.47 490.59,-160.4"/>
</g>
<!-- Node3 -->
<g id="node3" class="node">
<title>Node3</title>
<g id="a_node3"><a xlink:href="../../dc/d51/model_8h.html" target="_top" xlink:title=" ">
<polygon fill="none" stroke="black" points="156.5,-56.5 156.5,-75.5 305.5,-75.5 305.5,-56.5 156.5,-56.5"/>
<text text-anchor="middle" x="231" y="-63.5" font-family="Helvetica,sans-Serif" font-size="10.00">psim/include/psim/model.h</text>
</a>
</g>
</g>
<!-- Node2&#45;&gt;Node3 -->
<g id="edge2" class="edge">
<title>Node2&#45;&gt;Node3</title>
<path fill="none" stroke="midnightblue" d="M308.42,-107.59C289.38,-97.61 263.94,-84.27 247.51,-75.65"/>
<polygon fill="midnightblue" stroke="midnightblue" points="306.97,-110.78 317.45,-112.32 310.22,-104.58 306.97,-110.78"/>
</g>
<!-- Node6 -->
<g id="node6" class="node">
<title>Node6</title>
<g id="a_node6"><a xlink:href="../../d6/db4/model_8cpp.html" target="_top" xlink:title=" ">
<polygon fill="none" stroke="black" points="290,-0.5 290,-19.5 402,-19.5 402,-0.5 290,-0.5"/>
<text text-anchor="middle" x="346" y="-7.5" font-family="Helvetica,sans-Serif" font-size="10.00">psim/src/model.cpp</text>
</a>
</g>
</g>
<!-- Node2&#45;&gt;Node6 -->
<g id="edge6" class="edge">
<title>Node2&#45;&gt;Node6</title>
<path fill="none" stroke="midnightblue" d="M336.03,-102.35C338.66,-78.25 343.13,-37.31 345.06,-19.59"/>
<polygon fill="midnightblue" stroke="midnightblue" points="332.55,-102.05 334.94,-112.37 339.51,-102.81 332.55,-102.05"/>
</g>
<!-- Node2&#45;&gt;Node7 -->
<g id="edge7" class="edge">
<title>Node2&#45;&gt;Node7</title>
<path fill="none" stroke="midnightblue" d="M362.31,-108.37C384.97,-98.26 416.13,-84.35 435.92,-75.52"/>
<polygon fill="midnightblue" stroke="midnightblue" points="360.88,-105.17 353.17,-112.44 363.73,-111.56 360.88,-105.17"/>
</g>
<!-- Node4 -->
<g id="node4" class="node">
<title>Node4</title>
<g id="a_node4"><a xlink:href="../../d4/d02/inputManager_8cpp.html" target="_top" xlink:title=" ">
<polygon fill="none" stroke="black" points="0,-0.5 0,-19.5 148,-19.5 148,-0.5 0,-0.5"/>
<text text-anchor="middle" x="74" y="-7.5" font-family="Helvetica,sans-Serif" font-size="10.00">psim/src/inputManager.cpp</text>
</a>
</g>
</g>
<!-- Node3&#45;&gt;Node4 -->
<g id="edge3" class="edge">
<title>Node3&#45;&gt;Node4</title>
<path fill="none" stroke="midnightblue" d="M196.61,-53.17C167.05,-43 125.13,-28.59 98.76,-19.52"/>
<polygon fill="midnightblue" stroke="midnightblue" points="195.53,-56.5 206.12,-56.44 197.8,-49.88 195.53,-56.5"/>
</g>
<!-- Node5 -->
<g id="node5" class="node">
<title>Node5</title>
<g id="a_node5"><a xlink:href="../../df/d0a/main_8cpp.html" target="_top" xlink:title=" ">
<polygon fill="none" stroke="black" points="166,-0.5 166,-19.5 272,-19.5 272,-0.5 166,-0.5"/>
<text text-anchor="middle" x="219" y="-7.5" font-family="Helvetica,sans-Serif" font-size="10.00">psim/src/main.cpp</text>
</a>
</g>
</g>
<!-- Node3&#45;&gt;Node5 -->
<g id="edge4" class="edge">
<title>Node3&#45;&gt;Node5</title>
<path fill="none" stroke="midnightblue" d="M226.8,-46.1C224.81,-37.14 222.52,-26.86 220.94,-19.75"/>
<polygon fill="midnightblue" stroke="midnightblue" points="223.43,-47.08 229.02,-56.08 230.27,-45.56 223.43,-47.08"/>
</g>
<!-- Node3&#45;&gt;Node6 -->
<g id="edge5" class="edge">
<title>Node3&#45;&gt;Node6</title>
<path fill="none" stroke="midnightblue" d="M258.48,-52.1C279.97,-42.01 309.22,-28.27 327.86,-19.52"/>
<polygon fill="midnightblue" stroke="midnightblue" points="256.79,-49.02 249.22,-56.44 259.76,-55.36 256.79,-49.02"/>
</g>
</g>
</svg>
