<?xml version="1.0" encoding="UTF-8" standalone="no"?>
<!DOCTYPE svg PUBLIC "-//W3C//DTD SVG 1.1//EN"
 "http://www.w3.org/Graphics/SVG/1.1/DTD/svg11.dtd">
<!-- Generated by graphviz version 2.43.0 (0)
 -->
<!-- Title: psim/include/psim/sensorInterpreter.h Pages: 1 -->
<svg width="438pt" height="319pt"
 viewBox="0.00 0.00 437.76 319.00" xmlns="http://www.w3.org/2000/svg" xmlns:xlink="http://www.w3.org/1999/xlink">
<g id="graph0" class="graph" transform="scale(1 1) rotate(0) translate(4 315)">
<title>psim/include/psim/sensorInterpreter.h</title>
<!-- Node1 -->
<g id="node1" class="node">
<title>Node1</title>
<g id="a_node1"><a xlink:title=" ">
<polygon fill="#bfbfbf" stroke="black" points="174.5,-280.5 174.5,-310.5 315.5,-310.5 315.5,-280.5 174.5,-280.5"/>
<text text-anchor="start" x="182.5" y="-298.5" font-family="Helvetica,sans-Serif" font-size="10.00">psim/include/psim/sensor</text>
<text text-anchor="middle" x="245" y="-287.5" font-family="Helvetica,sans-Serif" font-size="10.00">Interpreter.h</text>
</a>
</g>
</g>
<!-- Node2 -->
<g id="node2" class="node">
<title>Node2</title>
<g id="a_node2"><a xlink:href="../../d5/d2e/sensor_8h.html" target="_top" xlink:title=" ">
<polygon fill="none" stroke="black" points="216.5,-224.5 216.5,-243.5 273.5,-243.5 273.5,-224.5 216.5,-224.5"/>
<text text-anchor="middle" x="245" y="-231.5" font-family="Helvetica,sans-Serif" font-size="10.00">sensor.h</text>
</a>
</g>
</g>
<!-- Node1&#45;&gt;Node2 -->
<g id="edge1" class="edge">
<title>Node1&#45;&gt;Node2</title>
<path fill="none" stroke="midnightblue" d="M245,-280.4C245,-272.47 245,-262.46 245,-253.86"/>
<polygon fill="midnightblue" stroke="midnightblue" points="248.5,-253.66 245,-243.66 241.5,-253.66 248.5,-253.66"/>
</g>
<!-- Node6 -->
<g id="node6" class="node">
<title>Node6</title>
<g id="a_node6"><a xlink:title=" ">
<polygon fill="none" stroke="#bfbfbf" points="49.5,-0.5 49.5,-19.5 102.5,-19.5 102.5,-0.5 49.5,-0.5"/>
<text text-anchor="middle" x="76" y="-7.5" font-family="Helvetica,sans-Serif" font-size="10.00">cstddef</text>
</a>
</g>
</g>
<!-- Node1&#45;&gt;Node6 -->
<g id="edge21" class="edge">
<title>Node1&#45;&gt;Node6</title>
<path fill="none" stroke="midnightblue" d="M174.46,-290.54C102.09,-282.22 0,-256.71 0,-179 0,-179 0,-179 0,-121 0,-81.28 33.96,-45.5 56.48,-26.15"/>
<polygon fill="midnightblue" stroke="midnightblue" points="58.98,-28.63 64.46,-19.57 54.52,-23.24 58.98,-28.63"/>
</g>
<!-- Node9 -->
<g id="node9" class="node">
<title>Node9</title>
<g id="a_node9"><a xlink:title=" ">
<polygon fill="none" stroke="#bfbfbf" points="298.5,-56.5 298.5,-75.5 345.5,-75.5 345.5,-56.5 298.5,-56.5"/>
<text text-anchor="middle" x="322" y="-63.5" font-family="Helvetica,sans-Serif" font-size="10.00">vector</text>
</a>
</g>
</g>
<!-- Node1&#45;&gt;Node9 -->
<g id="edge22" class="edge">
<title>Node1&#45;&gt;Node9</title>
<path fill="none" stroke="midnightblue" d="M285.96,-280.43C324.78,-264.65 380.77,-234.94 406,-188 428.02,-147.03 376.34,-103.19 344.58,-81.25"/>
<polygon fill="midnightblue" stroke="midnightblue" points="346.48,-78.31 336.22,-75.66 342.59,-84.13 346.48,-78.31"/>
</g>
<!-- Node3 -->
<g id="node3" class="node">
<title>Node3</title>
<g id="a_node3"><a xlink:href="../../d3/d65/material_8h.html" target="_top" xlink:title=" ">
<polygon fill="none" stroke="black" points="115.5,-112.5 115.5,-131.5 182.5,-131.5 182.5,-112.5 115.5,-112.5"/>
<text text-anchor="middle" x="149" y="-119.5" font-family="Helvetica,sans-Serif" font-size="10.00">material.h</text>
</a>
</g>
</g>
<!-- Node2&#45;&gt;Node3 -->
<g id="edge2" class="edge">
<title>Node2&#45;&gt;Node3</title>
<path fill="none" stroke="midnightblue" d="M237.47,-224.37C221.48,-206.05 183.95,-163.05 163.28,-139.36"/>
<polygon fill="midnightblue" stroke="midnightblue" points="165.71,-136.82 156.5,-131.59 160.44,-141.43 165.71,-136.82"/>
</g>
<!-- Node5 -->
<g id="node5" class="node">
<title>Node5</title>
<g id="a_node5"><a xlink:title=" ">
<polygon fill="none" stroke="#bfbfbf" points="263,-0.5 263,-19.5 305,-19.5 305,-0.5 263,-0.5"/>
<text text-anchor="middle" x="284" y="-7.5" font-family="Helvetica,sans-Serif" font-size="10.00">array</text>
</a>
</g>
</g>
<!-- Node2&#45;&gt;Node5 -->
<g id="edge16" class="edge">
<title>Node2&#45;&gt;Node5</title>
<path fill="none" stroke="midnightblue" d="M273.58,-229.17C315.4,-222.91 390.04,-209.04 406,-188 434.04,-151.04 455.88,-171.81 355,-56 343.36,-42.64 326.79,-31.83 312.59,-24.16"/>
<polygon fill="midnightblue" stroke="midnightblue" points="314.17,-21.03 303.67,-19.57 310.97,-27.26 314.17,-21.03"/>
</g>
<!-- Node2&#45;&gt;Node6 -->
<g id="edge17" class="edge">
<title>Node2&#45;&gt;Node6</title>
<path fill="none" stroke="midnightblue" d="M216.33,-230.11C170.16,-224.8 82.6,-211.79 64,-188 27.21,-140.94 53.05,-63.6 67.74,-28.87"/>
<polygon fill="midnightblue" stroke="midnightblue" points="71.02,-30.1 71.86,-19.54 64.62,-27.27 71.02,-30.1"/>
</g>
<!-- Node2&#45;&gt;Node9 -->
<g id="edge20" class="edge">
<title>Node2&#45;&gt;Node9</title>
<path fill="none" stroke="midnightblue" d="M246.84,-224.36C249.68,-211.69 255.7,-187.47 264,-168 277.22,-136.99 297.82,-103.53 310.58,-83.97"/>
<polygon fill="midnightblue" stroke="midnightblue" points="313.55,-85.82 316.15,-75.55 307.71,-81.96 313.55,-85.82"/>
</g>
<!-- Node10 -->
<g id="node10" class="node">
<title>Node10</title>
<g id="a_node10"><a xlink:href="../../da/d16/sensorController_8h.html" target="_top" xlink:title=" ">
<polygon fill="none" stroke="black" points="73.5,-168.5 73.5,-187.5 178.5,-187.5 178.5,-168.5 73.5,-168.5"/>
<text text-anchor="middle" x="126" y="-175.5" font-family="Helvetica,sans-Serif" font-size="10.00">sensorController.h</text>
</a>
</g>
</g>
<!-- Node2&#45;&gt;Node10 -->
<g id="edge12" class="edge">
<title>Node2&#45;&gt;Node10</title>
<path fill="none" stroke="midnightblue" d="M226.14,-224.44C206.73,-215.64 176.27,-201.81 154.04,-191.72"/>
<polygon fill="midnightblue" stroke="midnightblue" points="155.32,-188.46 144.77,-187.52 152.43,-194.84 155.32,-188.46"/>
</g>
<!-- Node11 -->
<g id="node11" class="node">
<title>Node11</title>
<g id="a_node11"><a xlink:title=" ">
<polygon fill="none" stroke="#bfbfbf" points="273,-168.5 273,-187.5 331,-187.5 331,-168.5 273,-168.5"/>
<text text-anchor="middle" x="302" y="-175.5" font-family="Helvetica,sans-Serif" font-size="10.00">memory</text>
</a>
</g>
</g>
<!-- Node2&#45;&gt;Node11 -->
<g id="edge18" class="edge">
<title>Node2&#45;&gt;Node11</title>
<path fill="none" stroke="midnightblue" d="M254.16,-224.32C262.5,-216.42 275.03,-204.55 285.18,-194.94"/>
<polygon fill="midnightblue" stroke="midnightblue" points="287.82,-197.25 292.68,-187.83 283.01,-192.17 287.82,-197.25"/>
</g>
<!-- Node12 -->
<g id="node12" class="node">
<title>Node12</title>
<g id="a_node12"><a xlink:title=" ">
<polygon fill="none" stroke="#bfbfbf" points="349,-168.5 349,-187.5 397,-187.5 397,-168.5 349,-168.5"/>
<text text-anchor="middle" x="373" y="-175.5" font-family="Helvetica,sans-Serif" font-size="10.00">mutex</text>
</a>
</g>
</g>
<!-- Node2&#45;&gt;Node12 -->
<g id="edge19" class="edge">
<title>Node2&#45;&gt;Node12</title>
<path fill="none" stroke="midnightblue" d="M265.28,-224.44C286.35,-215.56 319.52,-201.56 343.49,-191.45"/>
<polygon fill="midnightblue" stroke="midnightblue" points="344.96,-194.63 352.81,-187.52 342.24,-188.18 344.96,-194.63"/>
</g>
<!-- Node4 -->
<g id="node4" class="node">
<title>Node4</title>
<g id="a_node4"><a xlink:href="../../d3/d34/phonon_8h.html" target="_top" xlink:title=" ">
<polygon fill="none" stroke="black" points="180,-56.5 180,-75.5 242,-75.5 242,-56.5 180,-56.5"/>
<text text-anchor="middle" x="211" y="-63.5" font-family="Helvetica,sans-Serif" font-size="10.00">phonon.h</text>
</a>
</g>
</g>
<!-- Node3&#45;&gt;Node4 -->
<g id="edge3" class="edge">
<title>Node3&#45;&gt;Node4</title>
<path fill="none" stroke="midnightblue" d="M158.96,-112.32C168.13,-104.34 181.94,-92.31 193.03,-82.65"/>
<polygon fill="midnightblue" stroke="midnightblue" points="195.62,-85.04 200.86,-75.83 191.02,-79.76 195.62,-85.04"/>
</g>
<!-- Node3&#45;&gt;Node5 -->
<g id="edge8" class="edge">
<title>Node3&#45;&gt;Node5</title>
<path fill="none" stroke="midnightblue" d="M182.63,-112.54C204.3,-105.67 231.89,-94.1 251,-76 264.47,-63.24 273.34,-43.77 278.45,-29.47"/>
<polygon fill="midnightblue" stroke="midnightblue" points="281.86,-30.33 281.65,-19.73 275.21,-28.14 281.86,-30.33"/>
</g>
<!-- Node3&#45;&gt;Node6 -->
<g id="edge9" class="edge">
<title>Node3&#45;&gt;Node6</title>
<path fill="none" stroke="midnightblue" d="M143.27,-112.37C131.22,-94.22 103.08,-51.8 87.28,-27.99"/>
<polygon fill="midnightblue" stroke="midnightblue" points="90.15,-25.99 81.7,-19.59 84.31,-29.86 90.15,-25.99"/>
</g>
<!-- Node8 -->
<g id="node8" class="node">
<title>Node8</title>
<g id="a_node8"><a xlink:title=" ">
<polygon fill="none" stroke="#bfbfbf" points="124.5,-0.5 124.5,-19.5 169.5,-19.5 169.5,-0.5 124.5,-0.5"/>
<text text-anchor="middle" x="147" y="-7.5" font-family="Helvetica,sans-Serif" font-size="10.00">utility</text>
</a>
</g>
</g>
<!-- Node3&#45;&gt;Node8 -->
<g id="edge10" class="edge">
<title>Node3&#45;&gt;Node8</title>
<path fill="none" stroke="midnightblue" d="M148.84,-112.37C148.52,-94.62 147.78,-53.67 147.34,-29.6"/>
<polygon fill="midnightblue" stroke="midnightblue" points="150.84,-29.53 147.16,-19.59 143.84,-29.65 150.84,-29.53"/>
</g>
<!-- Node3&#45;&gt;Node9 -->
<g id="edge11" class="edge">
<title>Node3&#45;&gt;Node9</title>
<path fill="none" stroke="midnightblue" d="M176.41,-112.44C206.89,-102.93 256.12,-87.56 288.77,-77.37"/>
<polygon fill="midnightblue" stroke="midnightblue" points="289.83,-80.71 298.33,-74.39 287.74,-74.03 289.83,-80.71"/>
</g>
<!-- Node4&#45;&gt;Node5 -->
<g id="edge4" class="edge">
<title>Node4&#45;&gt;Node5</title>
<path fill="none" stroke="midnightblue" d="M222.73,-56.32C233.84,-48.11 250.74,-35.6 263.98,-25.81"/>
<polygon fill="midnightblue" stroke="midnightblue" points="266.1,-28.59 272.06,-19.83 261.94,-22.97 266.1,-28.59"/>
</g>
<!-- Node4&#45;&gt;Node6 -->
<g id="edge5" class="edge">
<title>Node4&#45;&gt;Node6</title>
<path fill="none" stroke="midnightblue" d="M189.61,-56.44C167.29,-47.52 132.1,-33.44 106.79,-23.32"/>
<polygon fill="midnightblue" stroke="midnightblue" points="107.88,-19.98 97.29,-19.52 105.28,-26.48 107.88,-19.98"/>
</g>
<!-- Node7 -->
<g id="node7" class="node">
<title>Node7</title>
<g id="a_node7"><a xlink:title=" ">
<polygon fill="none" stroke="#bfbfbf" points="187.5,-0.5 187.5,-19.5 244.5,-19.5 244.5,-0.5 187.5,-0.5"/>
<text text-anchor="middle" x="216" y="-7.5" font-family="Helvetica,sans-Serif" font-size="10.00">ostream</text>
</a>
</g>
</g>
<!-- Node4&#45;&gt;Node7 -->
<g id="edge6" class="edge">
<title>Node4&#45;&gt;Node7</title>
<path fill="none" stroke="midnightblue" d="M211.83,-56.08C212.48,-49.01 213.42,-38.86 214.24,-29.99"/>
<polygon fill="midnightblue" stroke="midnightblue" points="217.75,-30.03 215.19,-19.75 210.78,-29.39 217.75,-30.03"/>
</g>
<!-- Node4&#45;&gt;Node8 -->
<g id="edge7" class="edge">
<title>Node4&#45;&gt;Node8</title>
<path fill="none" stroke="midnightblue" d="M200.72,-56.32C191.16,-48.26 176.72,-36.08 165.22,-26.37"/>
<polygon fill="midnightblue" stroke="midnightblue" points="167.37,-23.61 157.47,-19.83 162.86,-28.96 167.37,-23.61"/>
</g>
<!-- Node10&#45;&gt;Node3 -->
<g id="edge13" class="edge">
<title>Node10&#45;&gt;Node3</title>
<path fill="none" stroke="midnightblue" d="M129.8,-168.08C132.91,-160.77 137.42,-150.18 141.29,-141.1"/>
<polygon fill="midnightblue" stroke="midnightblue" points="144.57,-142.32 145.27,-131.75 138.13,-139.58 144.57,-142.32"/>
</g>
<!-- Node10&#45;&gt;Node6 -->
<g id="edge14" class="edge">
<title>Node10&#45;&gt;Node6</title>
<path fill="none" stroke="midnightblue" d="M121.55,-168.22C117.14,-159.28 110.44,-144.94 106,-132 93.81,-96.48 84.36,-53.52 79.54,-29.53"/>
<polygon fill="midnightblue" stroke="midnightblue" points="82.96,-28.8 77.6,-19.66 76.09,-30.14 82.96,-28.8"/>
</g>
<!-- Node10&#45;&gt;Node9 -->
<g id="edge15" class="edge">
<title>Node10&#45;&gt;Node9</title>
<path fill="none" stroke="midnightblue" d="M139.95,-168.31C160.53,-155.58 200.34,-131.28 235,-112 255.06,-100.84 278.16,-88.94 295.51,-80.18"/>
<polygon fill="midnightblue" stroke="midnightblue" points="297.14,-83.28 304.5,-75.66 294,-77.02 297.14,-83.28"/>
</g>
</g>
</svg>
