<?xml version="1.0" encoding="UTF-8" standalone="no"?>
<!DOCTYPE svg PUBLIC "-//W3C//DTD SVG 1.1//EN"
 "http://www.w3.org/Graphics/SVG/1.1/DTD/svg11.dtd">
<!-- Generated by graphviz version 2.43.0 (0)
 -->
<!-- Title: psim/include/psim/phonon.h Pages: 1 -->
<svg width="2086pt" height="397pt"
 viewBox="0.00 0.00 2085.61 397.00" xmlns="http://www.w3.org/2000/svg" xmlns:xlink="http://www.w3.org/1999/xlink">
<g id="graph0" class="graph" transform="scale(1 1) rotate(0) translate(4 393)">
<title>psim/include/psim/phonon.h</title>
<!-- Node1 -->
<g id="node1" class="node">
<title>Node1</title>
<g id="a_node1"><a xlink:title=" ">
<polygon fill="#bfbfbf" stroke="black" points="1542.11,-369.5 1542.11,-388.5 1696.11,-388.5 1696.11,-369.5 1542.11,-369.5"/>
<text text-anchor="middle" x="1619.11" y="-376.5" font-family="Helvetica,sans-Serif" font-size="10.00">psim/include/psim/phonon.h</text>
</a>
</g>
</g>
<!-- Node2 -->
<g id="node2" class="node">
<title>Node2</title>
<g id="a_node2"><a xlink:href="../../d3/d65/material_8h.html" target="_top" xlink:title=" ">
<polygon fill="none" stroke="black" points="762.61,-313.5 762.61,-332.5 921.61,-332.5 921.61,-313.5 762.61,-313.5"/>
<text text-anchor="middle" x="842.11" y="-320.5" font-family="Helvetica,sans-Serif" font-size="10.00">psim/include/psim/material.h</text>
</a>
</g>
</g>
<!-- Node1&#45;&gt;Node2 -->
<g id="edge1" class="edge">
<title>Node1&#45;&gt;Node2</title>
<path fill="none" stroke="midnightblue" d="M1531.53,-371.91C1379.31,-361.33 1068.22,-339.71 921.74,-329.53"/>
<polygon fill="midnightblue" stroke="midnightblue" points="1531.55,-375.42 1541.77,-372.62 1532.03,-368.44 1531.55,-375.42"/>
</g>
<!-- Node9 -->
<g id="node9" class="node">
<title>Node9</title>
<g id="a_node9"><a xlink:href="../../d1/d3b/modelSimulator_8cpp.html" target="_top" xlink:title=" ">
<polygon fill="none" stroke="black" points="1620.11,-56.5 1620.11,-75.5 1778.11,-75.5 1778.11,-56.5 1620.11,-56.5"/>
<text text-anchor="middle" x="1699.11" y="-63.5" font-family="Helvetica,sans-Serif" font-size="10.00">psim/src/modelSimulator.cpp</text>
</a>
</g>
</g>
<!-- Node1&#45;&gt;Node9 -->
<g id="edge65" class="edge">
<title>Node1&#45;&gt;Node9</title>
<path fill="none" stroke="midnightblue" d="M1637.63,-362.78C1660.13,-342.47 1695.11,-304.19 1695.11,-262.5 1695.11,-262.5 1695.11,-262.5 1695.11,-193.5 1695.11,-149.11 1697.6,-96.01 1698.65,-75.59"/>
<polygon fill="midnightblue" stroke="midnightblue" points="1635.24,-360.22 1630,-369.42 1639.84,-365.5 1635.24,-360.22"/>
</g>
<!-- Node10 -->
<g id="node10" class="node">
<title>Node10</title>
<g id="a_node10"><a xlink:href="../../d6/d7d/phonon_8cpp.html" target="_top" xlink:title=" ">
<polygon fill="none" stroke="black" points="1484.61,-56.5 1484.61,-75.5 1601.61,-75.5 1601.61,-56.5 1484.61,-56.5"/>
<text text-anchor="middle" x="1543.11" y="-63.5" font-family="Helvetica,sans-Serif" font-size="10.00">psim/src/phonon.cpp</text>
</a>
</g>
</g>
<!-- Node1&#45;&gt;Node10 -->
<g id="edge66" class="edge">
<title>Node1&#45;&gt;Node10</title>
<path fill="none" stroke="midnightblue" d="M1628.76,-360.47C1640.01,-338.33 1657.11,-298.75 1657.11,-262.5 1657.11,-262.5 1657.11,-262.5 1657.11,-193.5 1657.11,-136.15 1591.64,-93.07 1559.93,-75.57"/>
<polygon fill="midnightblue" stroke="midnightblue" points="1625.65,-358.86 1624.08,-369.34 1631.84,-362.13 1625.65,-358.86"/>
</g>
<!-- Node11 -->
<g id="node11" class="node">
<title>Node11</title>
<g id="a_node11"><a xlink:href="../../d5/d8a/phononBuilder_8cpp.html" target="_top" xlink:title=" ">
<polygon fill="none" stroke="black" points="1926.61,-56.5 1926.61,-75.5 2077.61,-75.5 2077.61,-56.5 1926.61,-56.5"/>
<text text-anchor="middle" x="2002.11" y="-63.5" font-family="Helvetica,sans-Serif" font-size="10.00">psim/src/phononBuilder.cpp</text>
</a>
</g>
</g>
<!-- Node1&#45;&gt;Node11 -->
<g id="edge67" class="edge">
<title>Node1&#45;&gt;Node11</title>
<path fill="none" stroke="midnightblue" d="M1706.46,-372.78C1834.76,-362.67 2059.11,-334.68 2059.11,-262.5 2059.11,-262.5 2059.11,-262.5 2059.11,-193.5 2059.11,-145.32 2024.32,-95.21 2009.1,-75.6"/>
<polygon fill="midnightblue" stroke="midnightblue" points="1705.96,-369.3 1696.25,-373.56 1706.49,-376.28 1705.96,-369.3"/>
</g>
<!-- Node12 -->
<g id="node12" class="node">
<title>Node12</title>
<g id="a_node12"><a xlink:href="../../d7/d13/surface_8cpp.html" target="_top" xlink:title=" ">
<polygon fill="none" stroke="black" points="1349.61,-56.5 1349.61,-75.5 1466.61,-75.5 1466.61,-56.5 1349.61,-56.5"/>
<text text-anchor="middle" x="1408.11" y="-63.5" font-family="Helvetica,sans-Serif" font-size="10.00">psim/src/surface.cpp</text>
</a>
</g>
</g>
<!-- Node1&#45;&gt;Node12 -->
<g id="edge70" class="edge">
<title>Node1&#45;&gt;Node12</title>
<path fill="none" stroke="midnightblue" d="M1620.2,-359.14C1620.94,-332.39 1619.26,-282.64 1600.11,-246 1556.83,-163.21 1459.74,-98.23 1422.78,-75.62"/>
<polygon fill="midnightblue" stroke="midnightblue" points="1616.69,-359.24 1619.76,-369.38 1623.69,-359.54 1616.69,-359.24"/>
</g>
<!-- Node18 -->
<g id="node18" class="node">
<title>Node18</title>
<g id="a_node18"><a xlink:href="../../da/dfa/sensor_8cpp.html" target="_top" xlink:title=" ">
<polygon fill="none" stroke="black" points="681.61,-118 681.61,-137 794.61,-137 794.61,-118 681.61,-118"/>
<text text-anchor="middle" x="738.11" y="-125" font-family="Helvetica,sans-Serif" font-size="10.00">psim/src/sensor.cpp</text>
</a>
</g>
</g>
<!-- Node1&#45;&gt;Node18 -->
<g id="edge68" class="edge">
<title>Node1&#45;&gt;Node18</title>
<path fill="none" stroke="midnightblue" d="M1531.96,-377.09C1284.27,-373.54 590.18,-356.53 530.11,-277 501.33,-238.9 571.71,-182.95 577.11,-179 597.03,-164.43 660.48,-147.16 701.52,-137.06"/>
<polygon fill="midnightblue" stroke="midnightblue" points="1531.95,-380.59 1542,-377.23 1532.05,-373.59 1531.95,-380.59"/>
</g>
<!-- Node20 -->
<g id="node20" class="node">
<title>Node20</title>
<g id="a_node20"><a xlink:href="../../d8/db6/sensorController_8cpp.html" target="_top" xlink:title=" ">
<polygon fill="none" stroke="black" points="595.61,-185 595.61,-204 756.61,-204 756.61,-185 595.61,-185"/>
<text text-anchor="middle" x="676.11" y="-192" font-family="Helvetica,sans-Serif" font-size="10.00">psim/src/sensorController.cpp</text>
</a>
</g>
</g>
<!-- Node1&#45;&gt;Node20 -->
<g id="edge69" class="edge">
<title>Node1&#45;&gt;Node20</title>
<path fill="none" stroke="midnightblue" d="M1531.69,-378.2C1324.88,-378 818.02,-373.35 753.11,-333 704.31,-302.67 683.76,-229.57 677.95,-204.29"/>
<polygon fill="midnightblue" stroke="midnightblue" points="1531.9,-381.7 1541.9,-378.21 1531.9,-374.7 1531.9,-381.7"/>
</g>
<!-- Node24 -->
<g id="node24" class="node">
<title>Node24</title>
<g id="a_node24"><a xlink:href="../../d7/d5c/material_8cpp.html" target="_top" xlink:title=" ">
<polygon fill="none" stroke="black" points="1469.11,-252 1469.11,-271 1591.11,-271 1591.11,-252 1469.11,-252"/>
<text text-anchor="middle" x="1530.11" y="-259" font-family="Helvetica,sans-Serif" font-size="10.00">psim/src/material.cpp</text>
</a>
</g>
</g>
<!-- Node1&#45;&gt;Node24 -->
<g id="edge64" class="edge">
<title>Node1&#45;&gt;Node24</title>
<path fill="none" stroke="midnightblue" d="M1606.14,-361.17C1586.94,-336.26 1551.64,-290.44 1536.88,-271.28"/>
<polygon fill="midnightblue" stroke="midnightblue" points="1603.54,-363.53 1612.42,-369.32 1609.09,-359.26 1603.54,-363.53"/>
</g>
<!-- Node25 -->
<g id="node25" class="node">
<title>Node25</title>
<g id="a_node25"><a xlink:href="../../db/dd3/phononBuilder_8h.html" target="_top" xlink:title=" ">
<polygon fill="none" stroke="black" points="1754.61,-179.5 1754.61,-209.5 1899.61,-209.5 1899.61,-179.5 1754.61,-179.5"/>
<text text-anchor="start" x="1762.61" y="-197.5" font-family="Helvetica,sans-Serif" font-size="10.00">psim/include/psim/phonon</text>
<text text-anchor="middle" x="1827.11" y="-186.5" font-family="Helvetica,sans-Serif" font-size="10.00">Builder.h</text>
</a>
</g>
</g>
<!-- Node1&#45;&gt;Node25 -->
<g id="edge57" class="edge">
<title>Node1&#45;&gt;Node25</title>
<path fill="none" stroke="midnightblue" d="M1651.86,-365.4C1669.78,-357.6 1691.79,-346.51 1709.11,-333 1756.97,-295.65 1799.74,-236.47 1817.88,-209.6"/>
<polygon fill="midnightblue" stroke="midnightblue" points="1650.24,-362.28 1642.38,-369.38 1652.95,-368.73 1650.24,-362.28"/>
</g>
<!-- Node3 -->
<g id="node3" class="node">
<title>Node3</title>
<g id="a_node3"><a xlink:href="../../d0/ddd/cell_8h.html" target="_top" xlink:title=" ">
<polygon fill="none" stroke="black" points="965.61,-118 965.61,-137 1100.61,-137 1100.61,-118 965.61,-118"/>
<text text-anchor="middle" x="1033.11" y="-125" font-family="Helvetica,sans-Serif" font-size="10.00">psim/include/psim/cell.h</text>
</a>
</g>
</g>
<!-- Node2&#45;&gt;Node3 -->
<g id="edge2" class="edge">
<title>Node2&#45;&gt;Node3</title>
<path fill="none" stroke="midnightblue" d="M857.83,-306.07C896.34,-267.06 994.41,-167.71 1024.32,-137.41"/>
<polygon fill="midnightblue" stroke="midnightblue" points="855.1,-303.86 850.56,-313.44 860.08,-308.78 855.1,-303.86"/>
</g>
<!-- Node4 -->
<g id="node4" class="node">
<title>Node4</title>
<g id="a_node4"><a xlink:href="../../dc/d51/model_8h.html" target="_top" xlink:title=" ">
<polygon fill="none" stroke="black" points="517.61,-56.5 517.61,-75.5 666.61,-75.5 666.61,-56.5 517.61,-56.5"/>
<text text-anchor="middle" x="592.11" y="-63.5" font-family="Helvetica,sans-Serif" font-size="10.00">psim/include/psim/model.h</text>
</a>
</g>
</g>
<!-- Node2&#45;&gt;Node4 -->
<g id="edge13" class="edge">
<title>Node2&#45;&gt;Node4</title>
<path fill="none" stroke="midnightblue" d="M752.46,-318.05C679.79,-313.08 575.32,-301.95 487.11,-277 417.63,-257.35 402.12,-245.25 339.11,-210 292.74,-184.06 265.01,-189.93 240.11,-143 233.65,-130.83 231,-122.34 240.11,-112 244.67,-106.82 415.42,-86.83 517.39,-75.31"/>
<polygon fill="midnightblue" stroke="midnightblue" points="752.29,-321.54 762.5,-318.71 752.75,-314.56 752.29,-321.54"/>
</g>
<!-- Node5 -->
<g id="node5" class="node">
<title>Node5</title>
<g id="a_node5"><a xlink:href="../../d4/d02/inputManager_8cpp.html" target="_top" xlink:title=" ">
<polygon fill="none" stroke="black" points="147.11,-0.5 147.11,-19.5 295.11,-19.5 295.11,-0.5 147.11,-0.5"/>
<text text-anchor="middle" x="221.11" y="-7.5" font-family="Helvetica,sans-Serif" font-size="10.00">psim/src/inputManager.cpp</text>
</a>
</g>
</g>
<!-- Node2&#45;&gt;Node5 -->
<g id="edge48" class="edge">
<title>Node2&#45;&gt;Node5</title>
<path fill="none" stroke="midnightblue" d="M752.14,-317.78C535.21,-306.42 1.11,-270.81 1.11,-195.5 1.11,-195.5 1.11,-195.5 1.11,-126.5 1.11,-94.05 -3.33,-78.45 20.11,-56 38.31,-38.56 97.44,-26.68 146.89,-19.53"/>
<polygon fill="midnightblue" stroke="midnightblue" points="752.06,-321.29 762.23,-318.31 752.43,-314.29 752.06,-321.29"/>
</g>
<!-- Node7 -->
<g id="node7" class="node">
<title>Node7</title>
<g id="a_node7"><a xlink:href="../../d6/db4/model_8cpp.html" target="_top" xlink:title=" ">
<polygon fill="none" stroke="black" points="843.11,-0.5 843.11,-19.5 955.11,-19.5 955.11,-0.5 843.11,-0.5"/>
<text text-anchor="middle" x="899.11" y="-7.5" font-family="Helvetica,sans-Serif" font-size="10.00">psim/src/model.cpp</text>
</a>
</g>
</g>
<!-- Node2&#45;&gt;Node7 -->
<g id="edge50" class="edge">
<title>Node2&#45;&gt;Node7</title>
<path fill="none" stroke="midnightblue" d="M836.66,-303.22C824.62,-257.9 799.91,-140.11 841.11,-56 849.29,-39.29 867.01,-27 880.72,-19.53"/>
<polygon fill="midnightblue" stroke="midnightblue" points="833.36,-304.41 839.4,-313.11 840.11,-302.54 833.36,-304.41"/>
</g>
<!-- Node8 -->
<g id="node8" class="node">
<title>Node8</title>
<g id="a_node8"><a xlink:href="../../d6/d68/cell_8cpp.html" target="_top" xlink:title=" ">
<polygon fill="none" stroke="black" points="850.11,-56.5 850.11,-75.5 948.11,-75.5 948.11,-56.5 850.11,-56.5"/>
<text text-anchor="middle" x="899.11" y="-63.5" font-family="Helvetica,sans-Serif" font-size="10.00">psim/src/cell.cpp</text>
</a>
</g>
</g>
<!-- Node2&#45;&gt;Node8 -->
<g id="edge47" class="edge">
<title>Node2&#45;&gt;Node8</title>
<path fill="none" stroke="midnightblue" d="M846.3,-303.25C857.71,-252.21 889.02,-112.15 897.15,-75.74"/>
<polygon fill="midnightblue" stroke="midnightblue" points="842.84,-302.7 844.07,-313.22 849.67,-304.23 842.84,-302.7"/>
</g>
<!-- Node2&#45;&gt;Node9 -->
<g id="edge51" class="edge">
<title>Node2&#45;&gt;Node9</title>
<path fill="none" stroke="midnightblue" d="M931.94,-320.04C1064.48,-316.23 1305.55,-305.52 1387.11,-277 1522.09,-229.81 1654.46,-109.67 1689.9,-75.93"/>
<polygon fill="midnightblue" stroke="midnightblue" points="931.7,-316.55 921.8,-320.33 931.9,-323.54 931.7,-316.55"/>
</g>
<!-- Node2&#45;&gt;Node10 -->
<g id="edge52" class="edge">
<title>Node2&#45;&gt;Node10</title>
<path fill="none" stroke="midnightblue" d="M932.16,-321.18C1057.46,-318.84 1277.12,-309.98 1349.11,-277 1448.38,-231.52 1520.3,-109.12 1538.57,-75.59"/>
<polygon fill="midnightblue" stroke="midnightblue" points="931.76,-317.69 921.82,-321.37 931.88,-324.69 931.76,-317.69"/>
</g>
<!-- Node2&#45;&gt;Node12 -->
<g id="edge56" class="edge">
<title>Node2&#45;&gt;Node12</title>
<path fill="none" stroke="midnightblue" d="M931.86,-318.86C1046.57,-313.88 1238.21,-302.05 1304.11,-277 1351.39,-259.03 1367.18,-251.49 1396.11,-210 1425.75,-167.49 1415.14,-99.66 1410.13,-75.71"/>
<polygon fill="midnightblue" stroke="midnightblue" points="931.53,-315.37 921.69,-319.29 931.83,-322.36 931.53,-315.37"/>
</g>
<!-- Node13 -->
<g id="node13" class="node">
<title>Node13</title>
<g id="a_node13"><a xlink:href="../../d5/d2e/sensor_8h.html" target="_top" xlink:title=" ">
<polygon fill="none" stroke="black" points="348.61,-185 348.61,-204 497.61,-204 497.61,-185 348.61,-185"/>
<text text-anchor="middle" x="423.11" y="-192" font-family="Helvetica,sans-Serif" font-size="10.00">psim/include/psim/sensor.h</text>
</a>
</g>
</g>
<!-- Node2&#45;&gt;Node13 -->
<g id="edge14" class="edge">
<title>Node2&#45;&gt;Node13</title>
<path fill="none" stroke="midnightblue" d="M752.49,-320.96C688.35,-317.42 601.13,-306.78 530.11,-277 524.64,-274.71 460.56,-224.8 434.27,-204.24"/>
<polygon fill="midnightblue" stroke="midnightblue" points="752.42,-324.46 762.58,-321.47 752.77,-317.47 752.42,-324.46"/>
</g>
<!-- Node17 -->
<g id="node17" class="node">
<title>Node17</title>
<g id="a_node17"><a xlink:href="../../d1/d97/sensorInterpreter_8cpp.html" target="_top" xlink:title=" ">
<polygon fill="none" stroke="black" points="29.11,-56.5 29.11,-75.5 193.11,-75.5 193.11,-56.5 29.11,-56.5"/>
<text text-anchor="middle" x="111.11" y="-63.5" font-family="Helvetica,sans-Serif" font-size="10.00">psim/src/sensorInterpreter.cpp</text>
</a>
</g>
</g>
<!-- Node2&#45;&gt;Node17 -->
<g id="edge55" class="edge">
<title>Node2&#45;&gt;Node17</title>
<path fill="none" stroke="midnightblue" d="M752.37,-322.29C662.14,-320.4 519.92,-311.42 402.11,-277 338.58,-258.44 323.69,-247.43 269.11,-210 205.64,-166.48 141.01,-99.28 119,-75.61"/>
<polygon fill="midnightblue" stroke="midnightblue" points="752.5,-325.8 762.57,-322.48 752.63,-318.8 752.5,-325.8"/>
</g>
<!-- Node2&#45;&gt;Node18 -->
<g id="edge53" class="edge">
<title>Node2&#45;&gt;Node18</title>
<path fill="none" stroke="midnightblue" d="M828.61,-305.38C822.26,-297.12 814.84,-286.84 809.11,-277 785.08,-235.74 786.15,-221.86 765.11,-179 757.83,-164.19 748.64,-147.35 743.08,-137.34"/>
<polygon fill="midnightblue" stroke="midnightblue" points="826.01,-307.73 834.96,-313.41 831.51,-303.39 826.01,-307.73"/>
</g>
<!-- Node19 -->
<g id="node19" class="node">
<title>Node19</title>
<g id="a_node19"><a xlink:href="../../da/d16/sensorController_8h.html" target="_top" xlink:title=" ">
<polygon fill="none" stroke="black" points="539.61,-246.5 539.61,-276.5 680.61,-276.5 680.61,-246.5 539.61,-246.5"/>
<text text-anchor="start" x="547.61" y="-264.5" font-family="Helvetica,sans-Serif" font-size="10.00">psim/include/psim/sensor</text>
<text text-anchor="middle" x="610.11" y="-253.5" font-family="Helvetica,sans-Serif" font-size="10.00">Controller.h</text>
</a>
</g>
</g>
<!-- Node2&#45;&gt;Node19 -->
<g id="edge30" class="edge">
<title>Node2&#45;&gt;Node19</title>
<path fill="none" stroke="midnightblue" d="M799.15,-310.98C761.26,-301.27 705.83,-287.05 664.79,-276.52"/>
<polygon fill="midnightblue" stroke="midnightblue" points="798.31,-314.38 808.87,-313.48 800.05,-307.6 798.31,-314.38"/>
</g>
<!-- Node2&#45;&gt;Node20 -->
<g id="edge54" class="edge">
<title>Node2&#45;&gt;Node20</title>
<path fill="none" stroke="midnightblue" d="M818.66,-308.31C804.55,-299.79 786.41,-288.32 771.11,-277 737.92,-252.44 701.66,-219.44 685.18,-204.06"/>
<polygon fill="midnightblue" stroke="midnightblue" points="816.91,-311.34 827.29,-313.46 820.49,-305.33 816.91,-311.34"/>
</g>
<!-- Node21 -->
<g id="node21" class="node">
<title>Node21</title>
<g id="a_node21"><a xlink:href="../../d2/d69/surface_8h.html" target="_top" xlink:title=" ">
<polygon fill="none" stroke="black" points="1141.11,-252 1141.11,-271 1295.11,-271 1295.11,-252 1141.11,-252"/>
<text text-anchor="middle" x="1218.11" y="-259" font-family="Helvetica,sans-Serif" font-size="10.00">psim/include/psim/surface.h</text>
</a>
</g>
</g>
<!-- Node2&#45;&gt;Node21 -->
<g id="edge34" class="edge">
<title>Node2&#45;&gt;Node21</title>
<path fill="none" stroke="midnightblue" d="M905.93,-311.9C978.62,-300.4 1096.12,-281.8 1164.34,-271.01"/>
<polygon fill="midnightblue" stroke="midnightblue" points="905.31,-308.46 895.98,-313.48 906.4,-315.37 905.31,-308.46"/>
</g>
<!-- Node2&#45;&gt;Node24 -->
<g id="edge49" class="edge">
<title>Node2&#45;&gt;Node24</title>
<path fill="none" stroke="midnightblue" d="M931.98,-318.72C1051.75,-313.58 1270.1,-301.59 1455.11,-277 1466.68,-275.46 1479.15,-273.27 1490.55,-271.05"/>
<polygon fill="midnightblue" stroke="midnightblue" points="931.61,-315.23 921.77,-319.15 931.91,-322.22 931.61,-315.23"/>
</g>
<!-- Node3&#45;&gt;Node4 -->
<g id="edge3" class="edge">
<title>Node3&#45;&gt;Node4</title>
<path fill="none" stroke="midnightblue" d="M959.82,-116.61C874.69,-105.13 735.68,-86.37 655.18,-75.51"/>
<polygon fill="midnightblue" stroke="midnightblue" points="959.55,-120.11 969.92,-117.98 960.48,-113.17 959.55,-120.11"/>
</g>
<!-- Node3&#45;&gt;Node7 -->
<g id="edge8" class="edge">
<title>Node3&#45;&gt;Node7</title>
<path fill="none" stroke="midnightblue" d="M1025.42,-108.06C1018.19,-92.55 1006.09,-70.63 990.11,-56 971.52,-38.98 945.3,-26.94 925.78,-19.62"/>
<polygon fill="midnightblue" stroke="midnightblue" points="1022.39,-109.87 1029.63,-117.61 1028.8,-107.05 1022.39,-109.87"/>
</g>
<!-- Node3&#45;&gt;Node8 -->
<g id="edge7" class="edge">
<title>Node3&#45;&gt;Node8</title>
<path fill="none" stroke="midnightblue" d="M1004.57,-113.83C978.55,-102.28 940.84,-85.53 918.27,-75.51"/>
<polygon fill="midnightblue" stroke="midnightblue" points="1003.35,-117.12 1013.91,-117.98 1006.19,-110.72 1003.35,-117.12"/>
</g>
<!-- Node3&#45;&gt;Node9 -->
<g id="edge9" class="edge">
<title>Node3&#45;&gt;Node9</title>
<path fill="none" stroke="midnightblue" d="M1083.16,-116.09C1091.78,-114.55 1100.68,-113.1 1109.11,-112 1330.46,-83.03 1387.7,-95.23 1610.11,-76 1613.36,-75.72 1616.67,-75.42 1620.02,-75.12"/>
<polygon fill="midnightblue" stroke="midnightblue" points="1082.39,-112.68 1073.2,-117.94 1083.67,-119.56 1082.39,-112.68"/>
</g>
<!-- Node3&#45;&gt;Node10 -->
<g id="edge10" class="edge">
<title>Node3&#45;&gt;Node10</title>
<path fill="none" stroke="midnightblue" d="M1084.05,-116.12C1092.4,-114.61 1100.98,-113.17 1109.11,-112 1270.89,-88.66 1312.73,-94.73 1475.11,-76 1478.18,-75.65 1481.34,-75.27 1484.52,-74.88"/>
<polygon fill="midnightblue" stroke="midnightblue" points="1083.21,-112.72 1074.01,-117.99 1084.49,-119.6 1083.21,-112.72"/>
</g>
<!-- Node3&#45;&gt;Node11 -->
<g id="edge11" class="edge">
<title>Node3&#45;&gt;Node11</title>
<path fill="none" stroke="midnightblue" d="M1082.26,-116.1C1091.16,-114.5 1100.39,-113.05 1109.11,-112 1189.01,-102.41 1725.45,-78.83 1926.34,-70.22"/>
<polygon fill="midnightblue" stroke="midnightblue" points="1081.58,-112.66 1072.39,-117.93 1082.86,-119.54 1081.58,-112.66"/>
</g>
<!-- Node3&#45;&gt;Node12 -->
<g id="edge12" class="edge">
<title>Node3&#45;&gt;Node12</title>
<path fill="none" stroke="midnightblue" d="M1086.37,-116.07C1093.99,-114.65 1101.74,-113.26 1109.11,-112 1192.42,-97.79 1289.2,-83.65 1349.56,-75.12"/>
<polygon fill="midnightblue" stroke="midnightblue" points="1085.64,-112.64 1076.46,-117.93 1086.94,-119.52 1085.64,-112.64"/>
</g>
<!-- Node4&#45;&gt;Node5 -->
<g id="edge4" class="edge">
<title>Node4&#45;&gt;Node5</title>
<path fill="none" stroke="midnightblue" d="M523.26,-54.98C453.18,-44.78 345.72,-29.14 279.62,-19.52"/>
<polygon fill="midnightblue" stroke="midnightblue" points="522.92,-58.47 533.32,-56.44 523.93,-51.54 522.92,-58.47"/>
</g>
<!-- Node6 -->
<g id="node6" class="node">
<title>Node6</title>
<g id="a_node6"><a xlink:href="../../df/d0a/main_8cpp.html" target="_top" xlink:title=" ">
<polygon fill="none" stroke="black" points="539.11,-0.5 539.11,-19.5 645.11,-19.5 645.11,-0.5 539.11,-0.5"/>
<text text-anchor="middle" x="592.11" y="-7.5" font-family="Helvetica,sans-Serif" font-size="10.00">psim/src/main.cpp</text>
</a>
</g>
</g>
<!-- Node4&#45;&gt;Node6 -->
<g id="edge5" class="edge">
<title>Node4&#45;&gt;Node6</title>
<path fill="none" stroke="midnightblue" d="M592.11,-45.8C592.11,-36.91 592.11,-26.78 592.11,-19.75"/>
<polygon fill="midnightblue" stroke="midnightblue" points="588.61,-46.08 592.11,-56.08 595.61,-46.08 588.61,-46.08"/>
</g>
<!-- Node4&#45;&gt;Node7 -->
<g id="edge6" class="edge">
<title>Node4&#45;&gt;Node7</title>
<path fill="none" stroke="midnightblue" d="M650.87,-54.66C708.89,-44.46 796.56,-29.04 850.69,-19.52"/>
<polygon fill="midnightblue" stroke="midnightblue" points="650,-51.26 640.75,-56.44 651.21,-58.16 650,-51.26"/>
</g>
<!-- Node13&#45;&gt;Node3 -->
<g id="edge15" class="edge">
<title>Node13&#45;&gt;Node3</title>
<path fill="none" stroke="midnightblue" d="M507.97,-184.46C630.16,-171.44 853.24,-147.67 965.2,-135.74"/>
<polygon fill="midnightblue" stroke="midnightblue" points="507.48,-180.99 497.91,-185.53 508.22,-187.95 507.48,-180.99"/>
</g>
<!-- Node13&#45;&gt;Node4 -->
<g id="edge16" class="edge">
<title>Node13&#45;&gt;Node4</title>
<path fill="none" stroke="midnightblue" d="M430.83,-175.32C439.44,-157.04 454.98,-129.16 476.11,-112 498.49,-93.82 529.08,-82.36 553.22,-75.56"/>
<polygon fill="midnightblue" stroke="midnightblue" points="427.57,-174.04 426.67,-184.6 433.96,-176.9 427.57,-174.04"/>
</g>
<!-- Node13&#45;&gt;Node5 -->
<g id="edge26" class="edge">
<title>Node13&#45;&gt;Node5</title>
<path fill="none" stroke="midnightblue" d="M357.62,-183.17C311.69,-174.55 255.79,-160.8 240.11,-143 208.43,-107.04 215.56,-42.93 219.45,-19.7"/>
<polygon fill="midnightblue" stroke="midnightblue" points="357.09,-186.63 367.56,-184.99 358.35,-179.75 357.09,-186.63"/>
</g>
<!-- Node13&#45;&gt;Node8 -->
<g id="edge25" class="edge">
<title>Node13&#45;&gt;Node8</title>
<path fill="none" stroke="midnightblue" d="M479.24,-183.01C532.15,-172.6 607.23,-156.3 634.11,-143 653.64,-133.33 652.39,-121.28 672.11,-112 729.54,-84.96 802.55,-74.16 850.03,-69.85"/>
<polygon fill="midnightblue" stroke="midnightblue" points="478.44,-179.6 469.3,-184.95 479.78,-186.47 478.44,-179.6"/>
</g>
<!-- Node14 -->
<g id="node14" class="node">
<title>Node14</title>
<g id="a_node14"><a xlink:href="../../df/d92/outputManager_8h.html" target="_top" xlink:title=" ">
<polygon fill="none" stroke="black" points="485.11,-112.5 485.11,-142.5 625.11,-142.5 625.11,-112.5 485.11,-112.5"/>
<text text-anchor="start" x="493.11" y="-130.5" font-family="Helvetica,sans-Serif" font-size="10.00">psim/include/psim/output</text>
<text text-anchor="middle" x="555.11" y="-119.5" font-family="Helvetica,sans-Serif" font-size="10.00">Manager.h</text>
</a>
</g>
</g>
<!-- Node13&#45;&gt;Node14 -->
<g id="edge17" class="edge">
<title>Node13&#45;&gt;Node14</title>
<path fill="none" stroke="midnightblue" d="M449.83,-180.34C472.05,-169.4 503.61,-153.86 526.37,-142.65"/>
<polygon fill="midnightblue" stroke="midnightblue" points="448.06,-177.31 440.64,-184.87 451.15,-183.59 448.06,-177.31"/>
</g>
<!-- Node15 -->
<g id="node15" class="node">
<title>Node15</title>
<g id="a_node15"><a xlink:href="../../d4/d91/outputManager_8cpp.html" target="_top" xlink:title=" ">
<polygon fill="none" stroke="black" points="344.61,-56.5 344.61,-75.5 499.61,-75.5 499.61,-56.5 344.61,-56.5"/>
<text text-anchor="middle" x="422.11" y="-63.5" font-family="Helvetica,sans-Serif" font-size="10.00">psim/src/outputManager.cpp</text>
</a>
</g>
</g>
<!-- Node13&#45;&gt;Node15 -->
<g id="edge27" class="edge">
<title>Node13&#45;&gt;Node15</title>
<path fill="none" stroke="midnightblue" d="M422.96,-174.44C422.74,-146.62 422.34,-96.04 422.18,-75.76"/>
<polygon fill="midnightblue" stroke="midnightblue" points="419.46,-174.83 423.04,-184.81 426.46,-174.78 419.46,-174.83"/>
</g>
<!-- Node16 -->
<g id="node16" class="node">
<title>Node16</title>
<g id="a_node16"><a xlink:href="../../d6/d53/sensorInterpreter_8h.html" target="_top" xlink:title=" ">
<polygon fill="none" stroke="black" points="249.61,-112.5 249.61,-142.5 390.61,-142.5 390.61,-112.5 249.61,-112.5"/>
<text text-anchor="start" x="257.61" y="-130.5" font-family="Helvetica,sans-Serif" font-size="10.00">psim/include/psim/sensor</text>
<text text-anchor="middle" x="320.11" y="-119.5" font-family="Helvetica,sans-Serif" font-size="10.00">Interpreter.h</text>
</a>
</g>
</g>
<!-- Node13&#45;&gt;Node16 -->
<g id="edge21" class="edge">
<title>Node13&#45;&gt;Node16</title>
<path fill="none" stroke="midnightblue" d="M400.37,-179.15C383.14,-168.27 359.57,-153.4 342.43,-142.59"/>
<polygon fill="midnightblue" stroke="midnightblue" points="398.89,-182.36 409.22,-184.73 402.63,-176.44 398.89,-182.36"/>
</g>
<!-- Node13&#45;&gt;Node17 -->
<g id="edge29" class="edge">
<title>Node13&#45;&gt;Node17</title>
<path fill="none" stroke="midnightblue" d="M342.51,-183.3C300.63,-175.89 249.49,-163.46 207.11,-143 170.35,-125.26 134.73,-91.38 119.22,-75.55"/>
<polygon fill="midnightblue" stroke="midnightblue" points="341.95,-186.75 352.39,-184.99 343.12,-179.85 341.95,-186.75"/>
</g>
<!-- Node13&#45;&gt;Node18 -->
<g id="edge28" class="edge">
<title>Node13&#45;&gt;Node18</title>
<path fill="none" stroke="midnightblue" d="M474.58,-182.88C536.62,-170.08 639.64,-148.82 696.76,-137.03"/>
<polygon fill="midnightblue" stroke="midnightblue" points="473.7,-179.49 464.61,-184.94 475.11,-186.34 473.7,-179.49"/>
</g>
<!-- Node14&#45;&gt;Node4 -->
<g id="edge18" class="edge">
<title>Node14&#45;&gt;Node4</title>
<path fill="none" stroke="midnightblue" d="M569.22,-103.8C575.34,-93.96 582.14,-83.03 586.72,-75.66"/>
<polygon fill="midnightblue" stroke="midnightblue" points="566.19,-102.06 563.88,-112.4 572.13,-105.76 566.19,-102.06"/>
</g>
<!-- Node14&#45;&gt;Node7 -->
<g id="edge19" class="edge">
<title>Node14&#45;&gt;Node7</title>
<path fill="none" stroke="midnightblue" d="M606.64,-109.2C681.47,-84.07 817.4,-38.43 873.67,-19.54"/>
<polygon fill="midnightblue" stroke="midnightblue" points="605.31,-105.95 596.95,-112.45 607.54,-112.59 605.31,-105.95"/>
</g>
<!-- Node14&#45;&gt;Node15 -->
<g id="edge20" class="edge">
<title>Node14&#45;&gt;Node15</title>
<path fill="none" stroke="midnightblue" d="M514.27,-108.23C490.05,-97.39 460.47,-84.16 441.46,-75.66"/>
<polygon fill="midnightblue" stroke="midnightblue" points="513.03,-111.51 523.59,-112.4 515.89,-105.12 513.03,-111.51"/>
</g>
<!-- Node16&#45;&gt;Node4 -->
<g id="edge22" class="edge">
<title>Node16&#45;&gt;Node4</title>
<path fill="none" stroke="midnightblue" d="M394.28,-110.27C445.63,-99.04 511.92,-84.54 553.22,-75.51"/>
<polygon fill="midnightblue" stroke="midnightblue" points="393.25,-106.92 384.22,-112.47 394.74,-113.76 393.25,-106.92"/>
</g>
<!-- Node16&#45;&gt;Node7 -->
<g id="edge23" class="edge">
<title>Node16&#45;&gt;Node7</title>
<path fill="none" stroke="midnightblue" d="M318.46,-102.4C318.82,-86.79 322.19,-67.33 335.11,-56 354.01,-39.41 703.88,-20.55 842.87,-13.68"/>
<polygon fill="midnightblue" stroke="midnightblue" points="314.97,-102.5 318.62,-112.44 321.96,-102.39 314.97,-102.5"/>
</g>
<!-- Node16&#45;&gt;Node17 -->
<g id="edge24" class="edge">
<title>Node16&#45;&gt;Node17</title>
<path fill="none" stroke="midnightblue" d="M261.13,-109.71C221.97,-98.56 172.2,-84.39 140.99,-75.51"/>
<polygon fill="midnightblue" stroke="midnightblue" points="260.27,-113.1 270.84,-112.47 262.18,-106.37 260.27,-113.1"/>
</g>
<!-- Node19&#45;&gt;Node13 -->
<g id="edge31" class="edge">
<title>Node19&#45;&gt;Node13</title>
<path fill="none" stroke="midnightblue" d="M560.07,-243.11C523.69,-230.46 476.02,-213.89 447.58,-204.01"/>
<polygon fill="midnightblue" stroke="midnightblue" points="558.94,-246.42 569.53,-246.4 561.24,-239.81 558.94,-246.42"/>
</g>
<!-- Node19&#45;&gt;Node18 -->
<g id="edge32" class="edge">
<title>Node19&#45;&gt;Node18</title>
<path fill="none" stroke="midnightblue" d="M593.56,-237.82C583.04,-220.39 573.54,-196.42 586.11,-179 599.04,-161.07 654.55,-145.93 694.75,-137.03"/>
<polygon fill="midnightblue" stroke="midnightblue" points="590.67,-239.79 599.05,-246.28 596.54,-235.98 590.67,-239.79"/>
</g>
<!-- Node19&#45;&gt;Node20 -->
<g id="edge33" class="edge">
<title>Node19&#45;&gt;Node20</title>
<path fill="none" stroke="midnightblue" d="M631.6,-239.34C643.72,-227.4 658.2,-213.14 667.28,-204.19"/>
<polygon fill="midnightblue" stroke="midnightblue" points="629.1,-236.89 624.43,-246.4 634.01,-241.87 629.1,-236.89"/>
</g>
<!-- Node21&#45;&gt;Node7 -->
<g id="edge43" class="edge">
<title>Node21&#45;&gt;Node7</title>
<path fill="none" stroke="midnightblue" d="M1145.4,-249.89C1083.3,-236.57 997.62,-207.12 956.11,-143 935.09,-110.54 974.12,-90.73 957.11,-56 948.92,-39.29 931.21,-27 917.5,-19.53"/>
<polygon fill="midnightblue" stroke="midnightblue" points="1145.04,-253.39 1155.54,-251.97 1146.45,-246.53 1145.04,-253.39"/>
</g>
<!-- Node21&#45;&gt;Node8 -->
<g id="edge41" class="edge">
<title>Node21&#45;&gt;Node8</title>
<path fill="none" stroke="midnightblue" d="M1130.76,-251.2C1067.26,-243 987.94,-229.34 961.11,-210 914.79,-176.62 902.71,-101.12 899.89,-75.61"/>
<polygon fill="midnightblue" stroke="midnightblue" points="1130.44,-254.69 1140.8,-252.47 1131.32,-247.74 1130.44,-254.69"/>
</g>
<!-- Node21&#45;&gt;Node9 -->
<g id="edge44" class="edge">
<title>Node21&#45;&gt;Node9</title>
<path fill="none" stroke="midnightblue" d="M1264.63,-249.54C1300.94,-240.45 1352.39,-226.39 1396.11,-210 1410.88,-204.46 1618.32,-105.56 1681.18,-75.56"/>
<polygon fill="midnightblue" stroke="midnightblue" points="1263.68,-246.17 1254.81,-251.97 1265.36,-252.96 1263.68,-246.17"/>
</g>
<!-- Node21&#45;&gt;Node11 -->
<g id="edge45" class="edge">
<title>Node21&#45;&gt;Node11</title>
<path fill="none" stroke="midnightblue" d="M1305.49,-254.8C1488.07,-242.79 1894.3,-215.55 1908.11,-210 1951.46,-192.58 1965.71,-183.44 1989.11,-143 2001.71,-121.22 2002.82,-90.44 2002.51,-75.63"/>
<polygon fill="midnightblue" stroke="midnightblue" points="1305.13,-251.31 1295.38,-255.46 1305.59,-258.3 1305.13,-251.31"/>
</g>
<!-- Node21&#45;&gt;Node12 -->
<g id="edge46" class="edge">
<title>Node21&#45;&gt;Node12</title>
<path fill="none" stroke="midnightblue" d="M1300.92,-249.38C1326.83,-242.07 1353.48,-229.98 1372.11,-210 1408.59,-170.86 1409.5,-100.32 1408.6,-75.73"/>
<polygon fill="midnightblue" stroke="midnightblue" points="1299.84,-246.05 1291.05,-251.96 1301.61,-252.82 1299.84,-246.05"/>
</g>
<!-- Node22 -->
<g id="node22" class="node">
<title>Node22</title>
<g id="a_node22"><a xlink:href="../../d8/d77/compositeSurface_8h.html" target="_top" xlink:title=" ">
<polygon fill="none" stroke="black" points="1203.11,-179.5 1203.11,-209.5 1363.11,-209.5 1363.11,-179.5 1203.11,-179.5"/>
<text text-anchor="start" x="1211.11" y="-197.5" font-family="Helvetica,sans-Serif" font-size="10.00">psim/include/psim/composite</text>
<text text-anchor="middle" x="1283.11" y="-186.5" font-family="Helvetica,sans-Serif" font-size="10.00">Surface.h</text>
</a>
</g>
</g>
<!-- Node21&#45;&gt;Node22 -->
<g id="edge35" class="edge">
<title>Node21&#45;&gt;Node22</title>
<path fill="none" stroke="midnightblue" d="M1233.99,-244.62C1244.7,-233.91 1258.71,-219.9 1269.02,-209.59"/>
<polygon fill="midnightblue" stroke="midnightblue" points="1231.47,-242.19 1226.87,-251.73 1236.42,-247.14 1231.47,-242.19"/>
</g>
<!-- Node23 -->
<g id="node23" class="node">
<title>Node23</title>
<g id="a_node23"><a xlink:href="../../dc/d09/compositeSurface_8cpp.html" target="_top" xlink:title=" ">
<polygon fill="none" stroke="black" points="1118.61,-118 1118.61,-137 1287.61,-137 1287.61,-118 1118.61,-118"/>
<text text-anchor="middle" x="1203.11" y="-125" font-family="Helvetica,sans-Serif" font-size="10.00">psim/src/compositeSurface.cpp</text>
</a>
</g>
</g>
<!-- Node21&#45;&gt;Node23 -->
<g id="edge42" class="edge">
<title>Node21&#45;&gt;Node23</title>
<path fill="none" stroke="midnightblue" d="M1207.56,-243.25C1202.4,-233.8 1196.74,-221.67 1194.11,-210 1188.22,-183.89 1195.83,-152.18 1200.29,-137.17"/>
<polygon fill="midnightblue" stroke="midnightblue" points="1204.58,-245.08 1212.61,-251.99 1210.64,-241.58 1204.58,-245.08"/>
</g>
<!-- Node22&#45;&gt;Node3 -->
<g id="edge36" class="edge">
<title>Node22&#45;&gt;Node3</title>
<path fill="none" stroke="midnightblue" d="M1219.3,-176.91C1170.34,-164.18 1104.75,-147.13 1065.91,-137.03"/>
<polygon fill="midnightblue" stroke="midnightblue" points="1218.61,-180.35 1229.17,-179.48 1220.37,-173.57 1218.61,-180.35"/>
</g>
<!-- Node22&#45;&gt;Node7 -->
<g id="edge39" class="edge">
<title>Node22&#45;&gt;Node7</title>
<path fill="none" stroke="midnightblue" d="M1303.1,-171.29C1316.33,-153.82 1328.92,-129.56 1315.11,-112 1270.95,-55.84 1058.51,-27.07 955.44,-16.22"/>
<polygon fill="midnightblue" stroke="midnightblue" points="1300.22,-169.29 1296.66,-179.27 1305.67,-173.68 1300.22,-169.29"/>
</g>
<!-- Node22&#45;&gt;Node8 -->
<g id="edge37" class="edge">
<title>Node22&#45;&gt;Node8</title>
<path fill="none" stroke="midnightblue" d="M1295.83,-170.23C1303.79,-152.19 1310.12,-127.69 1296.11,-112 1273.3,-86.45 1049.39,-73.54 948.25,-68.97"/>
<polygon fill="midnightblue" stroke="midnightblue" points="1292.56,-168.97 1291.37,-179.49 1298.86,-172.01 1292.56,-168.97"/>
</g>
<!-- Node22&#45;&gt;Node9 -->
<g id="edge40" class="edge">
<title>Node22&#45;&gt;Node9</title>
<path fill="none" stroke="midnightblue" d="M1338.98,-176.51C1429.04,-149.12 1603.06,-96.21 1670.99,-75.55"/>
<polygon fill="midnightblue" stroke="midnightblue" points="1337.77,-173.22 1329.22,-179.48 1339.8,-179.92 1337.77,-173.22"/>
</g>
<!-- Node22&#45;&gt;Node23 -->
<g id="edge38" class="edge">
<title>Node22&#45;&gt;Node23</title>
<path fill="none" stroke="midnightblue" d="M1257.89,-173.01C1243.04,-160.94 1225.02,-146.3 1213.81,-137.19"/>
<polygon fill="midnightblue" stroke="midnightblue" points="1255.78,-175.81 1265.75,-179.4 1260.2,-170.37 1255.78,-175.81"/>
</g>
<!-- Node25&#45;&gt;Node9 -->
<g id="edge62" class="edge">
<title>Node25&#45;&gt;Node9</title>
<path fill="none" stroke="midnightblue" d="M1791.97,-174.1C1778.33,-165.61 1763.14,-154.86 1751.11,-143 1729.71,-121.89 1711.7,-90.8 1703.64,-75.77"/>
<polygon fill="midnightblue" stroke="midnightblue" points="1790.28,-177.18 1800.65,-179.35 1793.9,-171.19 1790.28,-177.18"/>
</g>
<!-- Node25&#45;&gt;Node11 -->
<g id="edge63" class="edge">
<title>Node25&#45;&gt;Node11</title>
<path fill="none" stroke="midnightblue" d="M1904.57,-176.25C1925.67,-168.71 1947.32,-158.03 1964.11,-143 1985.1,-124.21 1995.92,-91.15 2000.06,-75.58"/>
<polygon fill="midnightblue" stroke="midnightblue" points="1903.29,-172.99 1894.93,-179.5 1905.52,-179.62 1903.29,-172.99"/>
</g>
<!-- Node26 -->
<g id="node26" class="node">
<title>Node26</title>
<g id="a_node26"><a xlink:href="../../db/d26/modelSimulator_8h.html" target="_top" xlink:title=" ">
<polygon fill="none" stroke="black" points="1760.61,-118 1760.61,-137 1955.61,-137 1955.61,-118 1760.61,-118"/>
<text text-anchor="middle" x="1858.11" y="-125" font-family="Helvetica,sans-Serif" font-size="10.00">psim/include/psim/modelSimulator.h</text>
</a>
</g>
</g>
<!-- Node25&#45;&gt;Node26 -->
<g id="edge58" class="edge">
<title>Node25&#45;&gt;Node26</title>
<path fill="none" stroke="midnightblue" d="M1838.18,-170.29C1843.66,-158.8 1849.94,-145.63 1853.96,-137.19"/>
<polygon fill="midnightblue" stroke="midnightblue" points="1834.98,-168.86 1833.84,-179.4 1841.3,-171.88 1834.98,-168.86"/>
</g>
<!-- Node26&#45;&gt;Node4 -->
<g id="edge59" class="edge">
<title>Node26&#45;&gt;Node4</title>
<path fill="none" stroke="midnightblue" d="M1750.39,-121.44C1499.58,-109.65 881.62,-80.61 666.99,-70.52"/>
<polygon fill="midnightblue" stroke="midnightblue" points="1750.45,-124.94 1760.61,-121.92 1750.78,-117.95 1750.45,-124.94"/>
</g>
<!-- Node26&#45;&gt;Node7 -->
<g id="edge60" class="edge">
<title>Node26&#45;&gt;Node7</title>
<path fill="none" stroke="midnightblue" d="M1846.64,-109.3C1834.22,-92.33 1812.71,-67.32 1787.11,-56 1711.35,-22.51 1138.47,-13.55 955.26,-11.52"/>
<polygon fill="midnightblue" stroke="midnightblue" points="1843.96,-111.59 1852.57,-117.77 1849.7,-107.57 1843.96,-111.59"/>
</g>
<!-- Node26&#45;&gt;Node9 -->
<g id="edge61" class="edge">
<title>Node26&#45;&gt;Node9</title>
<path fill="none" stroke="midnightblue" d="M1825.86,-114.43C1794.96,-102.87 1749.1,-85.71 1721.85,-75.51"/>
<polygon fill="midnightblue" stroke="midnightblue" points="1824.74,-117.75 1835.33,-117.98 1827.19,-111.19 1824.74,-117.75"/>
</g>
</g>
</svg>
