<?xml version="1.0" encoding="UTF-8" standalone="no"?>
<!DOCTYPE svg PUBLIC "-//W3C//DTD SVG 1.1//EN"
 "http://www.w3.org/Graphics/SVG/1.1/DTD/svg11.dtd">
<!-- Generated by graphviz version 2.43.0 (0)
 -->
<!-- Title: TransitionSurface Pages: 1 -->
<svg width="176pt" height="152pt"
 viewBox="0.00 0.00 176.00 152.00" xmlns="http://www.w3.org/2000/svg" xmlns:xlink="http://www.w3.org/1999/xlink">
<g id="graph0" class="graph" transform="scale(1 1) rotate(0) translate(4 148)">
<title>TransitionSurface</title>
<!-- Node1 -->
<g id="node1" class="node">
<title>Node1</title>
<g id="a_node1"><a xlink:title=" ">
<polygon fill="#bfbfbf" stroke="black" points="13,-0.5 13,-19.5 114,-19.5 114,-0.5 13,-0.5"/>
<text text-anchor="middle" x="63.5" y="-7.5" font-family="Helvetica,sans-Serif" font-size="10.00">TransitionSurface</text>
</a>
</g>
</g>
<!-- Node2 -->
<g id="node2" class="node">
<title>Node2</title>
<g id="a_node2"><a xlink:href="../../de/d10/classSurface.html" target="_top" xlink:title=" ">
<polygon fill="none" stroke="black" points="37,-57.5 37,-76.5 90,-76.5 90,-57.5 37,-57.5"/>
<text text-anchor="middle" x="63.5" y="-64.5" font-family="Helvetica,sans-Serif" font-size="10.00">Surface</text>
</a>
</g>
</g>
<!-- Node2&#45;&gt;Node1 -->
<g id="edge1" class="edge">
<title>Node2&#45;&gt;Node1</title>
<path fill="none" stroke="midnightblue" d="M63.5,-47.12C63.5,-37.82 63.5,-27.06 63.5,-19.71"/>
<polygon fill="midnightblue" stroke="midnightblue" points="60,-47.41 63.5,-57.41 67,-47.41 60,-47.41"/>
</g>
<!-- Node3 -->
<g id="node3" class="node">
<title>Node3</title>
<g id="a_node3"><a xlink:href="../../de/dfd/classCell.html" target="_top" xlink:title=" ">
<polygon fill="none" stroke="black" points="0,-124.5 0,-143.5 35,-143.5 35,-124.5 0,-124.5"/>
<text text-anchor="middle" x="17.5" y="-131.5" font-family="Helvetica,sans-Serif" font-size="10.00">Cell</text>
</a>
</g>
</g>
<!-- Node3&#45;&gt;Node2 -->
<g id="edge2" class="edge">
<title>Node3&#45;&gt;Node2</title>
<path fill="none" stroke="#9a32cd" stroke-dasharray="5,2" d="M29.6,-115.9C38.54,-103.27 50.33,-86.6 57.39,-76.63"/>
<polygon fill="#9a32cd" stroke="#9a32cd" points="26.62,-114.05 23.7,-124.23 32.34,-118.09 26.62,-114.05"/>
<text text-anchor="middle" x="56.5" y="-98" font-family="Helvetica,sans-Serif" font-size="10.00"> cell_</text>
</g>
<!-- Node4 -->
<g id="node4" class="node">
<title>Node4</title>
<g id="a_node4"><a xlink:href="../../dc/d33/structGeometry_1_1Vector2D.html" target="_top" xlink:title=" ">
<polygon fill="none" stroke="black" points="53,-124.5 53,-143.5 168,-143.5 168,-124.5 53,-124.5"/>
<text text-anchor="middle" x="110.5" y="-131.5" font-family="Helvetica,sans-Serif" font-size="10.00">Geometry::Vector2D</text>
</a>
</g>
</g>
<!-- Node4&#45;&gt;Node2 -->
<g id="edge3" class="edge">
<title>Node4&#45;&gt;Node2</title>
<path fill="none" stroke="#9a32cd" stroke-dasharray="5,2" d="M98.14,-115.9C89.01,-103.27 76.95,-86.6 69.74,-76.63"/>
<polygon fill="#9a32cd" stroke="#9a32cd" points="95.47,-118.18 104.16,-124.23 101.14,-114.08 95.47,-118.18"/>
<text text-anchor="middle" x="111" y="-98" font-family="Helvetica,sans-Serif" font-size="10.00"> normal_</text>
</g>
</g>
</svg>
