<?xml version="1.0" encoding="UTF-8" standalone="no"?>
<!DOCTYPE svg PUBLIC "-//W3C//DTD SVG 1.1//EN"
 "http://www.w3.org/Graphics/SVG/1.1/DTD/svg11.dtd">
<!-- Generated by graphviz version 2.43.0 (0)
 -->
<!-- Title: Geometry::Triangle::lines Pages: 1 -->
<svg width="474pt" height="39pt"
 viewBox="0.00 0.00 474.00 39.00" xmlns="http://www.w3.org/2000/svg" xmlns:xlink="http://www.w3.org/1999/xlink">
<g id="graph0" class="graph" transform="scale(1 1) rotate(0) translate(4 35)">
<title>Geometry::Triangle::lines</title>
<!-- Node1 -->
<g id="node1" class="node">
<title>Node1</title>
<g id="a_node1"><a xlink:title=" ">
<polygon fill="#bfbfbf" stroke="black" points="357,-0.5 357,-30.5 466,-30.5 466,-0.5 357,-0.5"/>
<text text-anchor="start" x="365" y="-18.5" font-family="Helvetica,sans-Serif" font-size="10.00">Geometry::Triangle</text>
<text text-anchor="middle" x="411.5" y="-7.5" font-family="Helvetica,sans-Serif" font-size="10.00">::lines</text>
</a>
</g>
</g>
<!-- Node2 -->
<g id="node2" class="node">
<title>Node2</title>
<g id="a_node2"><a xlink:href="../../d9/d10/structGeometry_1_1Triangle.html#ac3110759da55ec56b4997a01b39917ad" target="_top" xlink:title=" ">
<polygon fill="none" stroke="black" points="212,-0.5 212,-30.5 321,-30.5 321,-0.5 212,-0.5"/>
<text text-anchor="start" x="220" y="-18.5" font-family="Helvetica,sans-Serif" font-size="10.00">Geometry::Triangle</text>
<text text-anchor="middle" x="266.5" y="-7.5" font-family="Helvetica,sans-Serif" font-size="10.00">::area</text>
</a>
</g>
</g>
<!-- Node1&#45;&gt;Node2 -->
<g id="edge1" class="edge">
<title>Node1&#45;&gt;Node2</title>
<path fill="none" stroke="midnightblue" d="M346.68,-15.5C338.25,-15.5 329.69,-15.5 321.46,-15.5"/>
<polygon fill="midnightblue" stroke="midnightblue" points="346.85,-19 356.85,-15.5 346.85,-12 346.85,-19"/>
</g>
<!-- Node3 -->
<g id="node3" class="node">
<title>Node3</title>
<g id="a_node3"><a xlink:href="../../de/dfd/classCell.html#ac670755528db61a6ae3f0336ca1b9f3c" target="_top" xlink:title=" ">
<polygon fill="none" stroke="black" points="96,-6 96,-25 176,-25 176,-6 96,-6"/>
<text text-anchor="middle" x="136" y="-13" font-family="Helvetica,sans-Serif" font-size="10.00">Cell::getArea</text>
</a>
</g>
</g>
<!-- Node2&#45;&gt;Node3 -->
<g id="edge2" class="edge">
<title>Node2&#45;&gt;Node3</title>
<path fill="none" stroke="midnightblue" d="M201.57,-15.5C192.87,-15.5 184.15,-15.5 176.07,-15.5"/>
<polygon fill="midnightblue" stroke="midnightblue" points="201.75,-19 211.75,-15.5 201.75,-12 201.75,-19"/>
</g>
<!-- Node4 -->
<g id="node4" class="node">
<title>Node4</title>
<g id="a_node4"><a xlink:href="../../de/dfd/classCell.html#a2406c2164fba8d979a5ee4228582ac06" target="_top" xlink:title=" ">
<polygon fill="none" stroke="black" points="0,-6 0,-25 60,-25 60,-6 0,-6"/>
<text text-anchor="middle" x="30" y="-13" font-family="Helvetica,sans-Serif" font-size="10.00">Cell::Cell</text>
</a>
</g>
</g>
<!-- Node3&#45;&gt;Node4 -->
<g id="edge3" class="edge">
<title>Node3&#45;&gt;Node4</title>
<path fill="none" stroke="midnightblue" d="M85.79,-15.5C77.02,-15.5 68.14,-15.5 60.16,-15.5"/>
<polygon fill="midnightblue" stroke="midnightblue" points="85.98,-19 95.98,-15.5 85.98,-12 85.98,-19"/>
</g>
</g>
</svg>
