<?xml version="1.0" encoding="UTF-8" standalone="no"?>
<!DOCTYPE svg PUBLIC "-//W3C//DTD SVG 1.1//EN"
 "http://www.w3.org/Graphics/SVG/1.1/DTD/svg11.dtd">
<!-- Generated by graphviz version 2.43.0 (0)
 -->
<!-- Title: Geometry::Triangle::contains Pages: 1 -->
<svg width="512pt" height="78pt"
 viewBox="0.00 0.00 512.00 77.50" xmlns="http://www.w3.org/2000/svg" xmlns:xlink="http://www.w3.org/1999/xlink">
<g id="graph0" class="graph" transform="scale(1 1) rotate(0) translate(4 73.5)">
<title>Geometry::Triangle::contains</title>
<!-- Node1 -->
<g id="node1" class="node">
<title>Node1</title>
<g id="a_node1"><a xlink:title=" ">
<polygon fill="#bfbfbf" stroke="black" points="395,-17 395,-47 504,-47 504,-17 395,-17"/>
<text text-anchor="start" x="403" y="-35" font-family="Helvetica,sans-Serif" font-size="10.00">Geometry::Triangle</text>
<text text-anchor="middle" x="449.5" y="-24" font-family="Helvetica,sans-Serif" font-size="10.00">::contains</text>
</a>
</g>
</g>
<!-- Node2 -->
<g id="node2" class="node">
<title>Node2</title>
<g id="a_node2"><a xlink:href="../../d9/d10/structGeometry_1_1Triangle.html#afc738e9f2cbb1f0502a4688722a66176" target="_top" xlink:title=" ">
<polygon fill="none" stroke="black" points="250,-39 250,-69 359,-69 359,-39 250,-39"/>
<text text-anchor="start" x="258" y="-57" font-family="Helvetica,sans-Serif" font-size="10.00">Geometry::Triangle</text>
<text text-anchor="middle" x="304.5" y="-46" font-family="Helvetica,sans-Serif" font-size="10.00">::operator==</text>
</a>
</g>
</g>
<!-- Node1&#45;&gt;Node2 -->
<g id="edge1" class="edge">
<title>Node1&#45;&gt;Node2</title>
<path fill="none" stroke="midnightblue" d="M384.95,-41.78C376.44,-43.09 367.78,-44.42 359.46,-45.7"/>
<polygon fill="midnightblue" stroke="midnightblue" points="385.49,-45.23 394.85,-40.25 384.43,-38.32 385.49,-45.23"/>
</g>
<!-- Node3 -->
<g id="node3" class="node">
<title>Node3</title>
<g id="a_node3"><a xlink:href="../../de/dfd/classCell.html#a0e3a7f08a0e22182119f37c2d2ab66c1" target="_top" xlink:title=" ">
<polygon fill="none" stroke="black" points="264,-0.5 264,-19.5 345,-19.5 345,-0.5 264,-0.5"/>
<text text-anchor="middle" x="304.5" y="-7.5" font-family="Helvetica,sans-Serif" font-size="10.00">Cell::validate</text>
</a>
</g>
</g>
<!-- Node1&#45;&gt;Node3 -->
<g id="edge2" class="edge">
<title>Node1&#45;&gt;Node3</title>
<path fill="none" stroke="midnightblue" d="M384.66,-22.18C371.22,-20.11 357.4,-17.99 345.16,-16.1"/>
<polygon fill="midnightblue" stroke="midnightblue" points="384.43,-25.68 394.85,-23.75 385.49,-18.77 384.43,-25.68"/>
</g>
<!-- Node4 -->
<g id="node4" class="node">
<title>Node4</title>
<g id="a_node4"><a xlink:href="../../d6/d18/classModel.html#af1a3ec716c6789100bffad58515b3fd1" target="_top" xlink:title=" ">
<polygon fill="none" stroke="black" points="125,-0.5 125,-19.5 214,-19.5 214,-0.5 125,-0.5"/>
<text text-anchor="middle" x="169.5" y="-7.5" font-family="Helvetica,sans-Serif" font-size="10.00">Model::addCell</text>
</a>
</g>
</g>
<!-- Node3&#45;&gt;Node4 -->
<g id="edge3" class="edge">
<title>Node3&#45;&gt;Node4</title>
<path fill="none" stroke="midnightblue" d="M253.79,-10C240.83,-10 226.95,-10 214.31,-10"/>
<polygon fill="midnightblue" stroke="midnightblue" points="253.96,-13.5 263.96,-10 253.96,-6.5 253.96,-13.5"/>
</g>
<!-- Node5 -->
<g id="node5" class="node">
<title>Node5</title>
<g id="a_node5"><a xlink:href="../../d6/d18/classModel.html#aea0e28728148047d926ae8eb9e162994" target="_top" xlink:title=" ">
<polygon fill="none" stroke="black" points="0,-0.5 0,-19.5 89,-19.5 89,-0.5 0,-0.5"/>
<text text-anchor="middle" x="44.5" y="-7.5" font-family="Helvetica,sans-Serif" font-size="10.00">Model::addCell</text>
</a>
</g>
</g>
<!-- Node4&#45;&gt;Node5 -->
<g id="edge4" class="edge">
<title>Node4&#45;&gt;Node5</title>
<path fill="none" stroke="midnightblue" d="M114.54,-10C106.03,-10 97.31,-10 89.07,-10"/>
<polygon fill="midnightblue" stroke="midnightblue" points="114.79,-13.5 124.79,-10 114.79,-6.5 114.79,-13.5"/>
</g>
</g>
</svg>
