<?xml version="1.0" encoding="UTF-8" standalone="no"?>
<!DOCTYPE svg PUBLIC "-//W3C//DTD SVG 1.1//EN"
 "http://www.w3.org/Graphics/SVG/1.1/DTD/svg11.dtd">
<!-- Generated by graphviz version 2.43.0 (0)
 -->
<!-- Title: SurfaceOriginBuilder Pages: 1 -->
<svg width="217pt" height="229pt"
 viewBox="0.00 0.00 216.50 229.00" xmlns="http://www.w3.org/2000/svg" xmlns:xlink="http://www.w3.org/1999/xlink">
<g id="graph0" class="graph" transform="scale(1 1) rotate(0) translate(4 225)">
<title>SurfaceOriginBuilder</title>
<!-- Node1 -->
<g id="node1" class="node">
<title>Node1</title>
<g id="a_node1"><a xlink:title=" ">
<polygon fill="#bfbfbf" stroke="black" points="1,-0.5 1,-19.5 118,-19.5 118,-0.5 1,-0.5"/>
<text text-anchor="middle" x="59.5" y="-7.5" font-family="Helvetica,sans-Serif" font-size="10.00">SurfaceOriginBuilder</text>
</a>
</g>
</g>
<!-- Node2 -->
<g id="node2" class="node">
<title>Node2</title>
<g id="a_node2"><a xlink:href="../../d2/d07/classPhononBuilder.html" target="_top" xlink:title=" ">
<polygon fill="none" stroke="black" points="0,-67.5 0,-86.5 87,-86.5 87,-67.5 0,-67.5"/>
<text text-anchor="middle" x="43.5" y="-74.5" font-family="Helvetica,sans-Serif" font-size="10.00">PhononBuilder</text>
</a>
</g>
</g>
<!-- Node2&#45;&gt;Node1 -->
<g id="edge1" class="edge">
<title>Node2&#45;&gt;Node1</title>
<path fill="none" stroke="midnightblue" d="M48.07,-57.41C51.13,-44.99 55.02,-29.22 57.38,-19.63"/>
<polygon fill="midnightblue" stroke="midnightblue" points="44.65,-56.69 45.66,-67.23 51.45,-58.36 44.65,-56.69"/>
</g>
<!-- Node3 -->
<g id="node3" class="node">
<title>Node3</title>
<g id="a_node3"><a xlink:href="../../d4/de9/classEmitSurface.html" target="_top" xlink:title=" ">
<polygon fill="none" stroke="black" points="105.5,-67.5 105.5,-86.5 181.5,-86.5 181.5,-67.5 105.5,-67.5"/>
<text text-anchor="middle" x="143.5" y="-74.5" font-family="Helvetica,sans-Serif" font-size="10.00">EmitSurface</text>
</a>
</g>
</g>
<!-- Node3&#45;&gt;Node1 -->
<g id="edge2" class="edge">
<title>Node3&#45;&gt;Node1</title>
<path fill="none" stroke="#9a32cd" stroke-dasharray="5,2" d="M124.2,-61.07C107.62,-48.24 84.29,-30.19 70.65,-19.63"/>
<polygon fill="#9a32cd" stroke="#9a32cd" points="122.12,-63.88 132.17,-67.23 126.4,-58.35 122.12,-63.88"/>
<text text-anchor="middle" x="130" y="-41" font-family="Helvetica,sans-Serif" font-size="10.00"> surface_</text>
</g>
<!-- Node4 -->
<g id="node4" class="node">
<title>Node4</title>
<g id="a_node4"><a xlink:href="../../de/d10/classSurface.html" target="_top" xlink:title=" ">
<polygon fill="none" stroke="black" points="71,-134.5 71,-153.5 124,-153.5 124,-134.5 71,-134.5"/>
<text text-anchor="middle" x="97.5" y="-141.5" font-family="Helvetica,sans-Serif" font-size="10.00">Surface</text>
</a>
</g>
</g>
<!-- Node4&#45;&gt;Node3 -->
<g id="edge3" class="edge">
<title>Node4&#45;&gt;Node3</title>
<path fill="none" stroke="midnightblue" d="M109.6,-125.9C118.54,-113.27 130.33,-96.6 137.39,-86.63"/>
<polygon fill="midnightblue" stroke="midnightblue" points="106.62,-124.05 103.7,-134.23 112.34,-128.09 106.62,-124.05"/>
</g>
<!-- Node5 -->
<g id="node5" class="node">
<title>Node5</title>
<g id="a_node5"><a xlink:href="../../de/dfd/classCell.html" target="_top" xlink:title=" ">
<polygon fill="none" stroke="black" points="34,-201.5 34,-220.5 69,-220.5 69,-201.5 34,-201.5"/>
<text text-anchor="middle" x="51.5" y="-208.5" font-family="Helvetica,sans-Serif" font-size="10.00">Cell</text>
</a>
</g>
</g>
<!-- Node5&#45;&gt;Node4 -->
<g id="edge4" class="edge">
<title>Node5&#45;&gt;Node4</title>
<path fill="none" stroke="#9a32cd" stroke-dasharray="5,2" d="M63.6,-192.9C72.54,-180.27 84.33,-163.6 91.39,-153.63"/>
<polygon fill="#9a32cd" stroke="#9a32cd" points="60.62,-191.05 57.7,-201.23 66.34,-195.09 60.62,-191.05"/>
<text text-anchor="middle" x="90.5" y="-175" font-family="Helvetica,sans-Serif" font-size="10.00"> cell_</text>
</g>
<!-- Node6 -->
<g id="node6" class="node">
<title>Node6</title>
<g id="a_node6"><a xlink:href="../../dc/d33/structGeometry_1_1Vector2D.html" target="_top" xlink:title=" ">
<polygon fill="none" stroke="black" points="87,-201.5 87,-220.5 202,-220.5 202,-201.5 87,-201.5"/>
<text text-anchor="middle" x="144.5" y="-208.5" font-family="Helvetica,sans-Serif" font-size="10.00">Geometry::Vector2D</text>
</a>
</g>
</g>
<!-- Node6&#45;&gt;Node4 -->
<g id="edge5" class="edge">
<title>Node6&#45;&gt;Node4</title>
<path fill="none" stroke="#9a32cd" stroke-dasharray="5,2" d="M132.14,-192.9C123.01,-180.27 110.95,-163.6 103.74,-153.63"/>
<polygon fill="#9a32cd" stroke="#9a32cd" points="129.47,-195.18 138.16,-201.23 135.14,-191.08 129.47,-195.18"/>
<text text-anchor="middle" x="146" y="-175" font-family="Helvetica,sans-Serif" font-size="10.00"> normal_</text>
</g>
<!-- Node7 -->
<g id="node7" class="node">
<title>Node7</title>
<g id="a_node7"><a xlink:href="../../d3/d89/classMaterial.html" target="_top" xlink:title=" ">
<polygon fill="none" stroke="black" points="142,-134.5 142,-153.5 199,-153.5 199,-134.5 142,-134.5"/>
<text text-anchor="middle" x="170.5" y="-141.5" font-family="Helvetica,sans-Serif" font-size="10.00">Material</text>
</a>
</g>
</g>
<!-- Node7&#45;&gt;Node3 -->
<g id="edge6" class="edge">
<title>Node7&#45;&gt;Node3</title>
<path fill="none" stroke="#9a32cd" stroke-dasharray="5,2" d="M162.94,-124.79C157.75,-112.31 151.11,-96.31 147.08,-86.63"/>
<polygon fill="#9a32cd" stroke="#9a32cd" points="159.79,-126.34 166.86,-134.23 166.25,-123.66 159.79,-126.34"/>
<text text-anchor="middle" x="183.5" y="-108" font-family="Helvetica,sans-Serif" font-size="10.00"> material_</text>
</g>
</g>
</svg>
