<?xml version="1.0" encoding="UTF-8" standalone="no"?>
<!DOCTYPE svg PUBLIC "-//W3C//DTD SVG 1.1//EN"
 "http://www.w3.org/Graphics/SVG/1.1/DTD/svg11.dtd">
<!-- Generated by graphviz version 2.43.0 (0)
 -->
<!-- Title: psim/include/psim/sensorInterpreter.h Pages: 1 -->
<svg width="539pt" height="151pt"
 viewBox="0.00 0.00 539.00 151.00" xmlns="http://www.w3.org/2000/svg" xmlns:xlink="http://www.w3.org/1999/xlink">
<g id="graph0" class="graph" transform="scale(1 1) rotate(0) translate(4 147)">
<title>psim/include/psim/sensorInterpreter.h</title>
<!-- Node1 -->
<g id="node1" class="node">
<title>Node1</title>
<g id="a_node1"><a xlink:title=" ">
<polygon fill="#bfbfbf" stroke="black" points="268.5,-112.5 268.5,-142.5 409.5,-142.5 409.5,-112.5 268.5,-112.5"/>
<text text-anchor="start" x="276.5" y="-130.5" font-family="Helvetica,sans-Serif" font-size="10.00">psim/include/psim/sensor</text>
<text text-anchor="middle" x="339" y="-119.5" font-family="Helvetica,sans-Serif" font-size="10.00">Interpreter.h</text>
</a>
</g>
</g>
<!-- Node2 -->
<g id="node2" class="node">
<title>Node2</title>
<g id="a_node2"><a xlink:href="../../dc/d51/model_8h.html" target="_top" xlink:title=" ">
<polygon fill="none" stroke="black" points="150.5,-56.5 150.5,-75.5 299.5,-75.5 299.5,-56.5 150.5,-56.5"/>
<text text-anchor="middle" x="225" y="-63.5" font-family="Helvetica,sans-Serif" font-size="10.00">psim/include/psim/model.h</text>
</a>
</g>
</g>
<!-- Node1&#45;&gt;Node2 -->
<g id="edge1" class="edge">
<title>Node1&#45;&gt;Node2</title>
<path fill="none" stroke="midnightblue" d="M302.89,-107.65C282.34,-96.93 257.59,-84.01 241.59,-75.66"/>
<polygon fill="midnightblue" stroke="midnightblue" points="301.5,-110.88 311.98,-112.4 304.74,-104.67 301.5,-110.88"/>
</g>
<!-- Node5 -->
<g id="node5" class="node">
<title>Node5</title>
<g id="a_node5"><a xlink:href="../../d6/db4/model_8cpp.html" target="_top" xlink:title=" ">
<polygon fill="none" stroke="black" points="290,-0.5 290,-19.5 402,-19.5 402,-0.5 290,-0.5"/>
<text text-anchor="middle" x="346" y="-7.5" font-family="Helvetica,sans-Serif" font-size="10.00">psim/src/model.cpp</text>
</a>
</g>
</g>
<!-- Node1&#45;&gt;Node5 -->
<g id="edge5" class="edge">
<title>Node1&#45;&gt;Node5</title>
<path fill="none" stroke="midnightblue" d="M340.47,-102.21C342.04,-76.41 344.43,-36.99 345.47,-19.67"/>
<polygon fill="midnightblue" stroke="midnightblue" points="336.97,-102.14 339.86,-112.34 343.96,-102.57 336.97,-102.14"/>
</g>
<!-- Node6 -->
<g id="node6" class="node">
<title>Node6</title>
<g id="a_node6"><a xlink:href="../../d1/d97/sensorInterpreter_8cpp.html" target="_top" xlink:title=" ">
<polygon fill="none" stroke="black" points="367,-56.5 367,-75.5 531,-75.5 531,-56.5 367,-56.5"/>
<text text-anchor="middle" x="449" y="-63.5" font-family="Helvetica,sans-Serif" font-size="10.00">psim/src/sensorInterpreter.cpp</text>
</a>
</g>
</g>
<!-- Node1&#45;&gt;Node6 -->
<g id="edge6" class="edge">
<title>Node1&#45;&gt;Node6</title>
<path fill="none" stroke="midnightblue" d="M374.12,-107.51C393.89,-96.81 417.62,-83.97 432.99,-75.66"/>
<polygon fill="midnightblue" stroke="midnightblue" points="372.2,-104.56 365.07,-112.4 375.53,-110.72 372.2,-104.56"/>
</g>
<!-- Node3 -->
<g id="node3" class="node">
<title>Node3</title>
<g id="a_node3"><a xlink:href="../../d4/d02/inputManager_8cpp.html" target="_top" xlink:title=" ">
<polygon fill="none" stroke="black" points="0,-0.5 0,-19.5 148,-19.5 148,-0.5 0,-0.5"/>
<text text-anchor="middle" x="74" y="-7.5" font-family="Helvetica,sans-Serif" font-size="10.00">psim/src/inputManager.cpp</text>
</a>
</g>
</g>
<!-- Node2&#45;&gt;Node3 -->
<g id="edge2" class="edge">
<title>Node2&#45;&gt;Node3</title>
<path fill="none" stroke="midnightblue" d="M191.55,-53.04C163.14,-42.88 123.06,-28.55 97.81,-19.52"/>
<polygon fill="midnightblue" stroke="midnightblue" points="190.48,-56.37 201.07,-56.44 192.84,-49.78 190.48,-56.37"/>
</g>
<!-- Node4 -->
<g id="node4" class="node">
<title>Node4</title>
<g id="a_node4"><a xlink:href="../../df/d0a/main_8cpp.html" target="_top" xlink:title=" ">
<polygon fill="none" stroke="black" points="166,-0.5 166,-19.5 272,-19.5 272,-0.5 166,-0.5"/>
<text text-anchor="middle" x="219" y="-7.5" font-family="Helvetica,sans-Serif" font-size="10.00">psim/src/main.cpp</text>
</a>
</g>
</g>
<!-- Node2&#45;&gt;Node4 -->
<g id="edge3" class="edge">
<title>Node2&#45;&gt;Node4</title>
<path fill="none" stroke="midnightblue" d="M222.9,-46.1C221.9,-37.14 220.76,-26.86 219.97,-19.75"/>
<polygon fill="midnightblue" stroke="midnightblue" points="219.43,-46.53 224.01,-56.08 226.38,-45.76 219.43,-46.53"/>
</g>
<!-- Node2&#45;&gt;Node5 -->
<g id="edge4" class="edge">
<title>Node2&#45;&gt;Node5</title>
<path fill="none" stroke="midnightblue" d="M253.31,-52.37C275.97,-42.26 307.13,-28.35 326.92,-19.52"/>
<polygon fill="midnightblue" stroke="midnightblue" points="251.88,-49.17 244.17,-56.44 254.73,-55.56 251.88,-49.17"/>
</g>
</g>
</svg>
