<?xml version="1.0" encoding="UTF-8" standalone="no"?>
<!DOCTYPE svg PUBLIC "-//W3C//DTD SVG 1.1//EN"
 "http://www.w3.org/Graphics/SVG/1.1/DTD/svg11.dtd">
<!-- Generated by graphviz version 2.43.0 (0)
 -->
<!-- Title: psim/include/psim/sensorInterpreter.h Pages: 1 -->
<svg width="518pt" height="151pt"
 viewBox="0.00 0.00 517.50 151.00" xmlns="http://www.w3.org/2000/svg" xmlns:xlink="http://www.w3.org/1999/xlink">
<g id="graph0" class="graph" transform="scale(1 1) rotate(0) translate(4 147)">
<title>psim/include/psim/sensorInterpreter.h</title>
<!-- Node1 -->
<g id="node1" class="node">
<title>Node1</title>
<g id="a_node1"><a xlink:title=" ">
<polygon fill="#bfbfbf" stroke="black" points="247,-112.5 247,-142.5 388,-142.5 388,-112.5 247,-112.5"/>
<text text-anchor="start" x="255" y="-130.5" font-family="Helvetica,sans-Serif" font-size="10.00">psim/include/psim/sensor</text>
<text text-anchor="middle" x="317.5" y="-119.5" font-family="Helvetica,sans-Serif" font-size="10.00">Interpreter.h</text>
</a>
</g>
</g>
<!-- Node2 -->
<g id="node2" class="node">
<title>Node2</title>
<g id="a_node2"><a xlink:href="../../dc/d51/model_8h.html" target="_top" xlink:title=" ">
<polygon fill="none" stroke="black" points="130,-56.5 130,-75.5 279,-75.5 279,-56.5 130,-56.5"/>
<text text-anchor="middle" x="204.5" y="-63.5" font-family="Helvetica,sans-Serif" font-size="10.00">psim/include/psim/model.h</text>
</a>
</g>
</g>
<!-- Node1&#45;&gt;Node2 -->
<g id="edge1" class="edge">
<title>Node1&#45;&gt;Node2</title>
<path fill="none" stroke="midnightblue" d="M281.7,-107.65C261.33,-96.93 236.8,-84.01 220.94,-75.66"/>
<polygon fill="midnightblue" stroke="midnightblue" points="280.24,-110.84 290.72,-112.4 283.5,-104.64 280.24,-110.84"/>
</g>
<!-- Node5 -->
<g id="node5" class="node">
<title>Node5</title>
<g id="a_node5"><a xlink:href="../../d6/db4/model_8cpp.html" target="_top" xlink:title=" ">
<polygon fill="none" stroke="black" points="273.5,-0.5 273.5,-19.5 385.5,-19.5 385.5,-0.5 273.5,-0.5"/>
<text text-anchor="middle" x="329.5" y="-7.5" font-family="Helvetica,sans-Serif" font-size="10.00">psim/src/model.cpp</text>
</a>
</g>
</g>
<!-- Node1&#45;&gt;Node5 -->
<g id="edge5" class="edge">
<title>Node1&#45;&gt;Node5</title>
<path fill="none" stroke="midnightblue" d="M320.02,-102.21C322.7,-76.41 326.8,-36.99 328.6,-19.67"/>
<polygon fill="midnightblue" stroke="midnightblue" points="316.52,-102.03 318.97,-112.34 323.49,-102.75 316.52,-102.03"/>
</g>
<!-- Node6 -->
<g id="node6" class="node">
<title>Node6</title>
<g id="a_node6"><a xlink:href="../../d1/d97/sensorInterpreter_8cpp.html" target="_top" xlink:title=" ">
<polygon fill="none" stroke="black" points="345.5,-56.5 345.5,-75.5 509.5,-75.5 509.5,-56.5 345.5,-56.5"/>
<text text-anchor="middle" x="427.5" y="-63.5" font-family="Helvetica,sans-Serif" font-size="10.00">psim/src/sensorInterpreter.cpp</text>
</a>
</g>
</g>
<!-- Node1&#45;&gt;Node6 -->
<g id="edge6" class="edge">
<title>Node1&#45;&gt;Node6</title>
<path fill="none" stroke="midnightblue" d="M352.62,-107.51C372.39,-96.81 396.12,-83.97 411.49,-75.66"/>
<polygon fill="midnightblue" stroke="midnightblue" points="350.7,-104.56 343.57,-112.4 354.03,-110.72 350.7,-104.56"/>
</g>
<!-- Node3 -->
<g id="node3" class="node">
<title>Node3</title>
<g id="a_node3"><a xlink:href="../../df/d0a/main_8cpp.html" target="_top" xlink:title=" ">
<polygon fill="none" stroke="black" points="0,-0.5 0,-19.5 89,-19.5 89,-0.5 0,-0.5"/>
<text text-anchor="middle" x="44.5" y="-7.5" font-family="Helvetica,sans-Serif" font-size="10.00">psim/main.cpp</text>
</a>
</g>
</g>
<!-- Node2&#45;&gt;Node3 -->
<g id="edge2" class="edge">
<title>Node2&#45;&gt;Node3</title>
<path fill="none" stroke="midnightblue" d="M169.45,-53.17C139.33,-43 96.6,-28.59 69.73,-19.52"/>
<polygon fill="midnightblue" stroke="midnightblue" points="168.55,-56.56 179.15,-56.44 170.79,-49.93 168.55,-56.56"/>
</g>
<!-- Node4 -->
<g id="node4" class="node">
<title>Node4</title>
<g id="a_node4"><a xlink:href="../../d4/d02/inputManager_8cpp.html" target="_top" xlink:title=" ">
<polygon fill="none" stroke="black" points="107.5,-0.5 107.5,-19.5 255.5,-19.5 255.5,-0.5 107.5,-0.5"/>
<text text-anchor="middle" x="181.5" y="-7.5" font-family="Helvetica,sans-Serif" font-size="10.00">psim/src/inputManager.cpp</text>
</a>
</g>
</g>
<!-- Node2&#45;&gt;Node4 -->
<g id="edge3" class="edge">
<title>Node2&#45;&gt;Node4</title>
<path fill="none" stroke="midnightblue" d="M196.7,-46.69C192.82,-37.59 188.32,-27.01 185.23,-19.75"/>
<polygon fill="midnightblue" stroke="midnightblue" points="193.56,-48.25 200.7,-56.08 200,-45.51 193.56,-48.25"/>
</g>
<!-- Node2&#45;&gt;Node5 -->
<g id="edge4" class="edge">
<title>Node2&#45;&gt;Node5</title>
<path fill="none" stroke="midnightblue" d="M233.74,-52.37C257.15,-42.26 289.34,-28.35 309.79,-19.52"/>
<polygon fill="midnightblue" stroke="midnightblue" points="232.1,-49.26 224.31,-56.44 234.87,-55.69 232.1,-49.26"/>
</g>
</g>
</svg>
