<?xml version="1.0" encoding="UTF-8" standalone="no"?>
<!DOCTYPE svg PUBLIC "-//W3C//DTD SVG 1.1//EN"
 "http://www.w3.org/Graphics/SVG/1.1/DTD/svg11.dtd">
<!-- Generated by graphviz version 2.43.0 (0)
 -->
<!-- Title: psim/src/phonon.cpp Pages: 1 -->
<svg width="1469pt" height="364pt"
 viewBox="0.00 0.00 1468.50 364.00" xmlns="http://www.w3.org/2000/svg" xmlns:xlink="http://www.w3.org/1999/xlink">
<g id="graph0" class="graph" transform="scale(1 1) rotate(0) translate(4 360)">
<title>psim/src/phonon.cpp</title>
<!-- Node1 -->
<g id="node1" class="node">
<title>Node1</title>
<g id="a_node1"><a xlink:title=" ">
<polygon fill="#bfbfbf" stroke="black" points="1075.5,-336.5 1075.5,-355.5 1192.5,-355.5 1192.5,-336.5 1075.5,-336.5"/>
<text text-anchor="middle" x="1134" y="-343.5" font-family="Helvetica,sans-Serif" font-size="10.00">psim/src/phonon.cpp</text>
</a>
</g>
</g>
<!-- Node2 -->
<g id="node2" class="node">
<title>Node2</title>
<g id="a_node2"><a xlink:href="../../d3/d34/phonon_8h.html" target="_top" xlink:title=" ">
<polygon fill="none" stroke="black" points="294.5,-56.5 294.5,-75.5 383.5,-75.5 383.5,-56.5 294.5,-56.5"/>
<text text-anchor="middle" x="339" y="-63.5" font-family="Helvetica,sans-Serif" font-size="10.00">psim/phonon.h</text>
</a>
</g>
</g>
<!-- Node1&#45;&gt;Node2 -->
<g id="edge1" class="edge">
<title>Node1&#45;&gt;Node2</title>
<path fill="none" stroke="midnightblue" d="M1075.23,-345.11C852.93,-344.76 76,-336.28 76,-235 76,-235 76,-235 76,-177 76,-87.48 207.3,-69.55 284.35,-66.73"/>
<polygon fill="midnightblue" stroke="midnightblue" points="284.49,-70.23 294.39,-66.44 284.29,-63.23 284.49,-70.23"/>
</g>
<!-- Node3 -->
<g id="node3" class="node">
<title>Node3</title>
<g id="a_node3"><a xlink:title=" ">
<polygon fill="none" stroke="#bfbfbf" points="785,-0.5 785,-19.5 827,-19.5 827,-0.5 785,-0.5"/>
<text text-anchor="middle" x="806" y="-7.5" font-family="Helvetica,sans-Serif" font-size="10.00">array</text>
</a>
</g>
</g>
<!-- Node1&#45;&gt;Node3 -->
<g id="edge53" class="edge">
<title>Node1&#45;&gt;Node3</title>
<path fill="none" stroke="midnightblue" d="M1145.54,-336.43C1166.8,-319.57 1210,-279.8 1210,-235 1210,-235 1210,-235 1210,-121 1210,-43.83 932.11,-19 837.27,-12.77"/>
<polygon fill="midnightblue" stroke="midnightblue" points="837.35,-9.27 827.15,-12.14 836.91,-16.26 837.35,-9.27"/>
</g>
<!-- Node4 -->
<g id="node4" class="node">
<title>Node4</title>
<g id="a_node4"><a xlink:title=" ">
<polygon fill="none" stroke="#bfbfbf" points="144.5,-0.5 144.5,-19.5 197.5,-19.5 197.5,-0.5 144.5,-0.5"/>
<text text-anchor="middle" x="171" y="-7.5" font-family="Helvetica,sans-Serif" font-size="10.00">cstddef</text>
</a>
</g>
</g>
<!-- Node1&#45;&gt;Node4 -->
<g id="edge55" class="edge">
<title>Node1&#45;&gt;Node4</title>
<path fill="none" stroke="midnightblue" d="M1075.42,-345.53C843.21,-346.85 0,-344.16 0,-235 0,-235 0,-235 0,-121 0,-57.59 84.19,-29.01 134.42,-17.6"/>
<polygon fill="midnightblue" stroke="midnightblue" points="135.24,-21 144.28,-15.48 133.77,-14.16 135.24,-21"/>
</g>
<!-- Node7 -->
<g id="node7" class="node">
<title>Node7</title>
<g id="a_node7"><a xlink:href="../../d0/ddd/cell_8h.html" target="_top" xlink:title=" ">
<polygon fill="none" stroke="black" points="805,-280.5 805,-299.5 875,-299.5 875,-280.5 805,-280.5"/>
<text text-anchor="middle" x="840" y="-287.5" font-family="Helvetica,sans-Serif" font-size="10.00">psim/cell.h</text>
</a>
</g>
</g>
<!-- Node1&#45;&gt;Node7 -->
<g id="edge6" class="edge">
<title>Node1&#45;&gt;Node7</title>
<path fill="none" stroke="midnightblue" d="M1087.41,-336.44C1032.05,-326.27 940.27,-309.42 885.42,-299.34"/>
<polygon fill="midnightblue" stroke="midnightblue" points="885.76,-295.85 875.29,-297.48 884.5,-302.73 885.76,-295.85"/>
</g>
<!-- Node9 -->
<g id="node9" class="node">
<title>Node9</title>
<g id="a_node9"><a xlink:href="../../d4/d67/geometry_8h.html" target="_top" xlink:title=" ">
<polygon fill="none" stroke="black" points="778.5,-112.5 778.5,-131.5 849.5,-131.5 849.5,-112.5 778.5,-112.5"/>
<text text-anchor="middle" x="814" y="-119.5" font-family="Helvetica,sans-Serif" font-size="10.00">geometry.h</text>
</a>
</g>
</g>
<!-- Node1&#45;&gt;Node9 -->
<g id="edge48" class="edge">
<title>Node1&#45;&gt;Node9</title>
<path fill="none" stroke="midnightblue" d="M1130.17,-336.33C1116.93,-307.38 1070.07,-213.38 1001,-168 958.25,-139.92 899.72,-129.33 859.59,-125.36"/>
<polygon fill="midnightblue" stroke="midnightblue" points="859.82,-121.86 849.55,-124.46 859.2,-128.83 859.82,-121.86"/>
</g>
<!-- Node12 -->
<g id="node12" class="node">
<title>Node12</title>
<g id="a_node12"><a xlink:title=" ">
<polygon fill="none" stroke="#bfbfbf" points="1031,-56.5 1031,-75.5 1075,-75.5 1075,-56.5 1031,-56.5"/>
<text text-anchor="middle" x="1053" y="-63.5" font-family="Helvetica,sans-Serif" font-size="10.00">string</text>
</a>
</g>
</g>
<!-- Node1&#45;&gt;Node12 -->
<g id="edge57" class="edge">
<title>Node1&#45;&gt;Node12</title>
<path fill="none" stroke="midnightblue" d="M1139.28,-336.23C1149.73,-318.04 1172,-274.6 1172,-235 1172,-235 1172,-235 1172,-177 1172,-129.3 1119.8,-96.53 1084.54,-79.84"/>
<polygon fill="midnightblue" stroke="midnightblue" points="1085.66,-76.5 1075.1,-75.56 1082.77,-82.88 1085.66,-76.5"/>
</g>
<!-- Node15 -->
<g id="node15" class="node">
<title>Node15</title>
<g id="a_node15"><a xlink:href="../../d3/d65/material_8h.html" target="_top" xlink:title=" ">
<polygon fill="none" stroke="black" points="242.5,-112.5 242.5,-131.5 309.5,-131.5 309.5,-112.5 242.5,-112.5"/>
<text text-anchor="middle" x="276" y="-119.5" font-family="Helvetica,sans-Serif" font-size="10.00">material.h</text>
</a>
</g>
</g>
<!-- Node1&#45;&gt;Node15 -->
<g id="edge49" class="edge">
<title>Node1&#45;&gt;Node15</title>
<path fill="none" stroke="midnightblue" d="M1075.31,-343.1C903.52,-336.79 404.69,-312.84 259,-244 220.58,-225.85 180.07,-204.98 201,-168 209.35,-153.26 224.66,-142.82 239.29,-135.73"/>
<polygon fill="midnightblue" stroke="midnightblue" points="241,-138.8 248.72,-131.55 238.16,-132.4 241,-138.8"/>
</g>
<!-- Node22 -->
<g id="node22" class="node">
<title>Node22</title>
<g id="a_node22"><a xlink:href="../../d5/d60/utils_8h.html" target="_top" xlink:title=" ">
<polygon fill="none" stroke="black" points="1238,-280.5 1238,-299.5 1312,-299.5 1312,-280.5 1238,-280.5"/>
<text text-anchor="middle" x="1275" y="-287.5" font-family="Helvetica,sans-Serif" font-size="10.00">psim/utils.h</text>
</a>
</g>
</g>
<!-- Node1&#45;&gt;Node22 -->
<g id="edge50" class="edge">
<title>Node1&#45;&gt;Node22</title>
<path fill="none" stroke="midnightblue" d="M1156.34,-336.44C1179.75,-327.48 1216.74,-313.31 1243.19,-303.18"/>
<polygon fill="midnightblue" stroke="midnightblue" points="1244.68,-306.36 1252.76,-299.52 1242.17,-299.82 1244.68,-306.36"/>
</g>
<!-- Node24 -->
<g id="node24" class="node">
<title>Node24</title>
<g id="a_node24"><a xlink:title=" ">
<polygon fill="none" stroke="#bfbfbf" points="1330.5,-280.5 1330.5,-299.5 1377.5,-299.5 1377.5,-280.5 1330.5,-280.5"/>
<text text-anchor="middle" x="1354" y="-287.5" font-family="Helvetica,sans-Serif" font-size="10.00">cmath</text>
</a>
</g>
</g>
<!-- Node1&#45;&gt;Node24 -->
<g id="edge54" class="edge">
<title>Node1&#45;&gt;Node24</title>
<path fill="none" stroke="midnightblue" d="M1170.98,-336.45C1206.7,-328.11 1262.56,-314.87 1320.21,-300.14"/>
<polygon fill="midnightblue" stroke="midnightblue" points="1321.41,-303.45 1330.23,-297.57 1319.67,-296.67 1321.41,-303.45"/>
</g>
<!-- Node25 -->
<g id="node25" class="node">
<title>Node25</title>
<g id="a_node25"><a xlink:title=" ">
<polygon fill="none" stroke="#bfbfbf" points="1395.5,-280.5 1395.5,-299.5 1460.5,-299.5 1460.5,-280.5 1395.5,-280.5"/>
<text text-anchor="middle" x="1428" y="-287.5" font-family="Helvetica,sans-Serif" font-size="10.00">stdexcept</text>
</a>
</g>
</g>
<!-- Node1&#45;&gt;Node25 -->
<g id="edge56" class="edge">
<title>Node1&#45;&gt;Node25</title>
<path fill="none" stroke="midnightblue" d="M1185.48,-336.47C1234.48,-328.2 1310.54,-315.01 1385.29,-300.28"/>
<polygon fill="midnightblue" stroke="midnightblue" points="1386.22,-303.67 1395.35,-298.29 1384.86,-296.8 1386.22,-303.67"/>
</g>
<!-- Node2&#45;&gt;Node3 -->
<g id="edge2" class="edge">
<title>Node2&#45;&gt;Node3</title>
<path fill="none" stroke="midnightblue" d="M383.75,-57.97C388.56,-57.28 393.38,-56.61 398,-56 538.17,-37.59 706.11,-20.69 774.61,-14.01"/>
<polygon fill="midnightblue" stroke="midnightblue" points="775.11,-17.48 784.73,-13.03 774.43,-10.51 775.11,-17.48"/>
</g>
<!-- Node2&#45;&gt;Node4 -->
<g id="edge3" class="edge">
<title>Node2&#45;&gt;Node4</title>
<path fill="none" stroke="midnightblue" d="M312.38,-56.44C283.99,-47.32 238.86,-32.81 207.25,-22.65"/>
<polygon fill="midnightblue" stroke="midnightblue" points="208.09,-19.24 197.5,-19.52 205.94,-25.91 208.09,-19.24"/>
</g>
<!-- Node5 -->
<g id="node5" class="node">
<title>Node5</title>
<g id="a_node5"><a xlink:title=" ">
<polygon fill="none" stroke="#bfbfbf" points="544.5,-0.5 544.5,-19.5 601.5,-19.5 601.5,-0.5 544.5,-0.5"/>
<text text-anchor="middle" x="573" y="-7.5" font-family="Helvetica,sans-Serif" font-size="10.00">ostream</text>
</a>
</g>
</g>
<!-- Node2&#45;&gt;Node5 -->
<g id="edge4" class="edge">
<title>Node2&#45;&gt;Node5</title>
<path fill="none" stroke="midnightblue" d="M376.08,-56.44C419.27,-46.48 490.29,-30.09 534.2,-19.95"/>
<polygon fill="midnightblue" stroke="midnightblue" points="535.25,-23.3 544.21,-17.64 533.68,-16.48 535.25,-23.3"/>
</g>
<!-- Node6 -->
<g id="node6" class="node">
<title>Node6</title>
<g id="a_node6"><a xlink:title=" ">
<polygon fill="none" stroke="#bfbfbf" points="316.5,-0.5 316.5,-19.5 361.5,-19.5 361.5,-0.5 316.5,-0.5"/>
<text text-anchor="middle" x="339" y="-7.5" font-family="Helvetica,sans-Serif" font-size="10.00">utility</text>
</a>
</g>
</g>
<!-- Node2&#45;&gt;Node6 -->
<g id="edge5" class="edge">
<title>Node2&#45;&gt;Node6</title>
<path fill="none" stroke="midnightblue" d="M339,-56.08C339,-49.01 339,-38.86 339,-29.99"/>
<polygon fill="midnightblue" stroke="midnightblue" points="342.5,-29.75 339,-19.75 335.5,-29.75 342.5,-29.75"/>
</g>
<!-- Node7&#45;&gt;Node3 -->
<g id="edge42" class="edge">
<title>Node7&#45;&gt;Node3</title>
<path fill="none" stroke="midnightblue" d="M875.17,-283.48C953.21,-270.25 1134,-233.7 1134,-179 1134,-179 1134,-179 1134,-121 1134,-84.55 1115.3,-74.67 1084,-56 1042.72,-31.38 900.85,-18.03 837.26,-13.17"/>
<polygon fill="midnightblue" stroke="midnightblue" points="837.28,-9.66 827.05,-12.41 836.76,-16.64 837.28,-9.66"/>
</g>
<!-- Node7&#45;&gt;Node4 -->
<g id="edge43" class="edge">
<title>Node7&#45;&gt;Node4</title>
<path fill="none" stroke="midnightblue" d="M804.79,-289.03C694.78,-288.68 358.94,-284.28 259,-244 200.03,-220.23 184.67,-193.87 170,-132 162.18,-99.03 161.39,-89.78 164,-56 164.68,-47.22 166.09,-37.56 167.47,-29.45"/>
<polygon fill="midnightblue" stroke="midnightblue" points="170.92,-30.04 169.26,-19.58 164.03,-28.8 170.92,-30.04"/>
</g>
<!-- Node8 -->
<g id="node8" class="node">
<title>Node8</title>
<g id="a_node8"><a xlink:href="../../d8/d77/compositeSurface_8h.html" target="_top" xlink:title=" ">
<polygon fill="none" stroke="black" points="783.5,-224.5 783.5,-243.5 896.5,-243.5 896.5,-224.5 783.5,-224.5"/>
<text text-anchor="middle" x="840" y="-231.5" font-family="Helvetica,sans-Serif" font-size="10.00">compositeSurface.h</text>
</a>
</g>
</g>
<!-- Node7&#45;&gt;Node8 -->
<g id="edge7" class="edge">
<title>Node7&#45;&gt;Node8</title>
<path fill="none" stroke="midnightblue" d="M840,-280.08C840,-273.01 840,-262.86 840,-253.99"/>
<polygon fill="midnightblue" stroke="midnightblue" points="843.5,-253.75 840,-243.75 836.5,-253.75 843.5,-253.75"/>
</g>
<!-- Node7&#45;&gt;Node9 -->
<g id="edge29" class="edge">
<title>Node7&#45;&gt;Node9</title>
<path fill="none" stroke="midnightblue" d="M817.54,-280.38C802.23,-273.18 783.14,-261.29 774,-244 755.48,-208.96 782.46,-163.72 800.33,-139.7"/>
<polygon fill="midnightblue" stroke="midnightblue" points="803.25,-141.65 806.62,-131.61 797.73,-137.36 803.25,-141.65"/>
</g>
<!-- Node10 -->
<g id="node10" class="node">
<title>Node10</title>
<g id="a_node10"><a xlink:title=" ">
<polygon fill="none" stroke="#bfbfbf" points="636.5,-56.5 636.5,-75.5 701.5,-75.5 701.5,-56.5 636.5,-56.5"/>
<text text-anchor="middle" x="669" y="-63.5" font-family="Helvetica,sans-Serif" font-size="10.00">exception</text>
</a>
</g>
</g>
<!-- Node7&#45;&gt;Node10 -->
<g id="edge44" class="edge">
<title>Node7&#45;&gt;Node10</title>
<path fill="none" stroke="midnightblue" d="M804.83,-283.96C755.19,-274.76 666.27,-250.08 627,-188 605.51,-154.02 635.32,-107.69 654.69,-83.39"/>
<polygon fill="midnightblue" stroke="midnightblue" points="657.55,-85.44 661.24,-75.51 652.16,-80.96 657.55,-85.44"/>
</g>
<!-- Node7&#45;&gt;Node12 -->
<g id="edge46" class="edge">
<title>Node7&#45;&gt;Node12</title>
<path fill="none" stroke="midnightblue" d="M875.06,-283.45C904.23,-277.49 945.71,-265.78 976,-244 1029.03,-205.87 1045.94,-123.2 1051,-85.92"/>
<polygon fill="midnightblue" stroke="midnightblue" points="1054.53,-85.87 1052.25,-75.52 1047.58,-85.03 1054.53,-85.87"/>
</g>
<!-- Node13 -->
<g id="node13" class="node">
<title>Node13</title>
<g id="a_node13"><a xlink:title=" ">
<polygon fill="none" stroke="#bfbfbf" points="908.5,-56.5 908.5,-75.5 981.5,-75.5 981.5,-56.5 908.5,-56.5"/>
<text text-anchor="middle" x="945" y="-63.5" font-family="Helvetica,sans-Serif" font-size="10.00">string_view</text>
</a>
</g>
</g>
<!-- Node7&#45;&gt;Node13 -->
<g id="edge47" class="edge">
<title>Node7&#45;&gt;Node13</title>
<path fill="none" stroke="midnightblue" d="M871.26,-280.45C910.57,-267.75 975.95,-239.66 1001,-188 1019.16,-150.55 984.19,-106.02 961.76,-82.83"/>
<polygon fill="midnightblue" stroke="midnightblue" points="964.01,-80.13 954.45,-75.56 959.07,-85.09 964.01,-80.13"/>
</g>
<!-- Node7&#45;&gt;Node15 -->
<g id="edge30" class="edge">
<title>Node7&#45;&gt;Node15</title>
<path fill="none" stroke="midnightblue" d="M804.61,-289.47C682.07,-290.23 279.56,-285.18 209,-188 194.29,-167.74 221.74,-148.26 245.81,-136"/>
<polygon fill="midnightblue" stroke="midnightblue" points="247.63,-139.01 255.12,-131.51 244.59,-132.7 247.63,-139.01"/>
</g>
<!-- Node17 -->
<g id="node17" class="node">
<title>Node17</title>
<g id="a_node17"><a xlink:title=" ">
<polygon fill="none" stroke="#bfbfbf" points="944,-168.5 944,-187.5 992,-187.5 992,-168.5 944,-168.5"/>
<text text-anchor="middle" x="968" y="-175.5" font-family="Helvetica,sans-Serif" font-size="10.00">iosfwd</text>
</a>
</g>
</g>
<!-- Node7&#45;&gt;Node17 -->
<g id="edge45" class="edge">
<title>Node7&#45;&gt;Node17</title>
<path fill="none" stroke="midnightblue" d="M854.01,-280.43C867.58,-271.88 888.46,-258.02 905,-244 923.07,-228.68 941.7,-208.87 953.96,-195.17"/>
<polygon fill="midnightblue" stroke="midnightblue" points="956.72,-197.33 960.72,-187.52 951.48,-192.7 956.72,-197.33"/>
</g>
<!-- Node18 -->
<g id="node18" class="node">
<title>Node18</title>
<g id="a_node18"><a xlink:href="../../d5/d2e/sensor_8h.html" target="_top" xlink:title=" ">
<polygon fill="none" stroke="black" points="390.5,-224.5 390.5,-243.5 447.5,-243.5 447.5,-224.5 390.5,-224.5"/>
<text text-anchor="middle" x="419" y="-231.5" font-family="Helvetica,sans-Serif" font-size="10.00">sensor.h</text>
</a>
</g>
</g>
<!-- Node7&#45;&gt;Node18 -->
<g id="edge31" class="edge">
<title>Node7&#45;&gt;Node18</title>
<path fill="none" stroke="midnightblue" d="M804.83,-284.49C726.72,-274.47 539.27,-250.43 457.85,-239.98"/>
<polygon fill="midnightblue" stroke="midnightblue" points="457.91,-236.46 447.54,-238.66 457.02,-243.4 457.91,-236.46"/>
</g>
<!-- Node8&#45;&gt;Node9 -->
<g id="edge8" class="edge">
<title>Node8&#45;&gt;Node9</title>
<path fill="none" stroke="midnightblue" d="M837.96,-224.37C833.76,-206.62 824.08,-165.67 818.4,-141.6"/>
<polygon fill="midnightblue" stroke="midnightblue" points="821.74,-140.52 816.03,-131.59 814.92,-142.13 821.74,-140.52"/>
</g>
<!-- Node8&#45;&gt;Node10 -->
<g id="edge24" class="edge">
<title>Node8&#45;&gt;Node10</title>
<path fill="none" stroke="midnightblue" d="M832.14,-224.43C820.52,-211.84 797.99,-187.71 778,-168 746.39,-136.85 708.05,-101.96 686.29,-82.42"/>
<polygon fill="midnightblue" stroke="midnightblue" points="688.6,-79.78 678.81,-75.72 683.93,-85 688.6,-79.78"/>
</g>
<!-- Node8&#45;&gt;Node12 -->
<g id="edge26" class="edge">
<title>Node8&#45;&gt;Node12</title>
<path fill="none" stroke="midnightblue" d="M851.15,-224.31C885.59,-197.47 990.52,-115.69 1033.91,-81.88"/>
<polygon fill="midnightblue" stroke="midnightblue" points="1036.22,-84.51 1041.96,-75.61 1031.92,-78.99 1036.22,-84.51"/>
</g>
<!-- Node8&#45;&gt;Node13 -->
<g id="edge27" class="edge">
<title>Node8&#45;&gt;Node13</title>
<path fill="none" stroke="midnightblue" d="M845.65,-224.08C862.39,-197.61 911.98,-119.21 934.11,-84.21"/>
<polygon fill="midnightblue" stroke="midnightblue" points="937.19,-85.89 939.58,-75.57 931.28,-82.15 937.19,-85.89"/>
</g>
<!-- Node14 -->
<g id="node14" class="node">
<title>Node14</title>
<g id="a_node14"><a xlink:href="../../d2/d69/surface_8h.html" target="_top" xlink:title=" ">
<polygon fill="none" stroke="black" points="636,-168.5 636,-187.5 698,-187.5 698,-168.5 636,-168.5"/>
<text text-anchor="middle" x="667" y="-175.5" font-family="Helvetica,sans-Serif" font-size="10.00">surface.h</text>
</a>
</g>
</g>
<!-- Node8&#45;&gt;Node14 -->
<g id="edge16" class="edge">
<title>Node8&#45;&gt;Node14</title>
<path fill="none" stroke="midnightblue" d="M812.59,-224.44C783.23,-215.28 736.48,-200.69 703.9,-190.52"/>
<polygon fill="midnightblue" stroke="midnightblue" points="704.87,-187.16 694.28,-187.52 702.79,-193.84 704.87,-187.16"/>
</g>
<!-- Node16 -->
<g id="node16" class="node">
<title>Node16</title>
<g id="a_node16"><a xlink:title=" ">
<polygon fill="none" stroke="#bfbfbf" points="440.5,-56.5 440.5,-75.5 487.5,-75.5 487.5,-56.5 440.5,-56.5"/>
<text text-anchor="middle" x="464" y="-63.5" font-family="Helvetica,sans-Serif" font-size="10.00">vector</text>
</a>
</g>
</g>
<!-- Node8&#45;&gt;Node16 -->
<g id="edge28" class="edge">
<title>Node8&#45;&gt;Node16</title>
<path fill="none" stroke="midnightblue" d="M823.36,-224.46C798.33,-211.71 749.39,-187.15 707,-168 631.94,-134.1 542.09,-97.86 495.51,-79.39"/>
<polygon fill="midnightblue" stroke="midnightblue" points="496.56,-76.04 485.97,-75.61 493.98,-82.55 496.56,-76.04"/>
</g>
<!-- Node8&#45;&gt;Node17 -->
<g id="edge25" class="edge">
<title>Node8&#45;&gt;Node17</title>
<path fill="none" stroke="midnightblue" d="M860.28,-224.44C881.35,-215.56 914.52,-201.56 938.49,-191.45"/>
<polygon fill="midnightblue" stroke="midnightblue" points="939.96,-194.63 947.81,-187.52 937.24,-188.18 939.96,-194.63"/>
</g>
<!-- Node9&#45;&gt;Node3 -->
<g id="edge9" class="edge">
<title>Node9&#45;&gt;Node3</title>
<path fill="none" stroke="midnightblue" d="M813.37,-112.37C812.08,-94.62 809.1,-53.67 807.35,-29.6"/>
<polygon fill="midnightblue" stroke="midnightblue" points="810.84,-29.31 806.62,-19.59 803.86,-29.82 810.84,-29.31"/>
</g>
<!-- Node9&#45;&gt;Node5 -->
<g id="edge12" class="edge">
<title>Node9&#45;&gt;Node5</title>
<path fill="none" stroke="midnightblue" d="M807.22,-112.41C795.73,-98.44 771.03,-70.87 744,-56 702.01,-32.91 647.66,-21.25 611.62,-15.66"/>
<polygon fill="midnightblue" stroke="midnightblue" points="611.92,-12.17 601.52,-14.18 610.9,-19.09 611.92,-12.17"/>
</g>
<!-- Node9&#45;&gt;Node6 -->
<g id="edge15" class="edge">
<title>Node9&#45;&gt;Node6</title>
<path fill="none" stroke="midnightblue" d="M800.35,-112.25C773.27,-94.92 714.92,-57.74 710,-56 647.92,-34.06 451.09,-18.63 372.19,-13.17"/>
<polygon fill="midnightblue" stroke="midnightblue" points="372.08,-9.65 361.87,-12.47 371.6,-16.64 372.08,-9.65"/>
</g>
<!-- Node9&#45;&gt;Node10 -->
<g id="edge10" class="edge">
<title>Node9&#45;&gt;Node10</title>
<path fill="none" stroke="midnightblue" d="M791.02,-112.44C766.84,-103.44 728.58,-89.19 701.35,-79.05"/>
<polygon fill="midnightblue" stroke="midnightblue" points="702.46,-75.73 691.87,-75.52 700.02,-82.29 702.46,-75.73"/>
</g>
<!-- Node11 -->
<g id="node11" class="node">
<title>Node11</title>
<g id="a_node11"><a xlink:title=" ">
<polygon fill="none" stroke="#bfbfbf" points="834,-56.5 834,-75.5 890,-75.5 890,-56.5 834,-56.5"/>
<text text-anchor="middle" x="862" y="-63.5" font-family="Helvetica,sans-Serif" font-size="10.00">optional</text>
</a>
</g>
</g>
<!-- Node9&#45;&gt;Node11 -->
<g id="edge11" class="edge">
<title>Node9&#45;&gt;Node11</title>
<path fill="none" stroke="midnightblue" d="M821.93,-112.08C828.85,-104.3 839.07,-92.8 847.45,-83.37"/>
<polygon fill="midnightblue" stroke="midnightblue" points="850.19,-85.55 854.22,-75.75 844.96,-80.9 850.19,-85.55"/>
</g>
<!-- Node9&#45;&gt;Node12 -->
<g id="edge13" class="edge">
<title>Node9&#45;&gt;Node12</title>
<path fill="none" stroke="midnightblue" d="M849.52,-112.97C895.87,-102.5 976.3,-84.33 1020.89,-74.25"/>
<polygon fill="midnightblue" stroke="midnightblue" points="1021.91,-77.61 1030.89,-71.99 1020.37,-70.78 1021.91,-77.61"/>
</g>
<!-- Node9&#45;&gt;Node13 -->
<g id="edge14" class="edge">
<title>Node9&#45;&gt;Node13</title>
<path fill="none" stroke="midnightblue" d="M834.76,-112.44C856.32,-103.56 890.26,-89.56 914.79,-79.45"/>
<polygon fill="midnightblue" stroke="midnightblue" points="916.43,-82.56 924.34,-75.52 913.76,-76.09 916.43,-82.56"/>
</g>
<!-- Node14&#45;&gt;Node9 -->
<g id="edge17" class="edge">
<title>Node14&#45;&gt;Node9</title>
<path fill="none" stroke="midnightblue" d="M690.29,-168.44C714.81,-159.44 753.6,-145.19 781.2,-135.05"/>
<polygon fill="midnightblue" stroke="midnightblue" points="782.64,-138.25 790.82,-131.52 780.22,-131.68 782.64,-138.25"/>
</g>
<!-- Node14&#45;&gt;Node15 -->
<g id="edge18" class="edge">
<title>Node14&#45;&gt;Node15</title>
<path fill="none" stroke="midnightblue" d="M635.99,-172.72C566.85,-163.17 399.85,-140.11 319.98,-129.07"/>
<polygon fill="midnightblue" stroke="midnightblue" points="320.16,-125.57 309.77,-127.66 319.2,-132.5 320.16,-125.57"/>
</g>
<!-- Node15&#45;&gt;Node2 -->
<g id="edge19" class="edge">
<title>Node15&#45;&gt;Node2</title>
<path fill="none" stroke="midnightblue" d="M286.12,-112.32C295.53,-104.26 309.74,-92.08 321.07,-82.37"/>
<polygon fill="midnightblue" stroke="midnightblue" points="323.38,-85 328.69,-75.83 318.82,-79.68 323.38,-85"/>
</g>
<!-- Node15&#45;&gt;Node3 -->
<g id="edge20" class="edge">
<title>Node15&#45;&gt;Node3</title>
<path fill="none" stroke="midnightblue" d="M300.29,-112.41C323.97,-103.84 360.86,-89.98 392,-76 409.77,-68.02 412.37,-61.69 431,-56 554.26,-18.33 709.31,-11.98 774.67,-11.06"/>
<polygon fill="midnightblue" stroke="midnightblue" points="774.77,-14.56 784.73,-10.95 774.69,-7.56 774.77,-14.56"/>
</g>
<!-- Node15&#45;&gt;Node4 -->
<g id="edge21" class="edge">
<title>Node15&#45;&gt;Node4</title>
<path fill="none" stroke="midnightblue" d="M267.76,-112.37C250.2,-93.97 208.87,-50.67 186.32,-27.05"/>
<polygon fill="midnightblue" stroke="midnightblue" points="188.64,-24.41 179.2,-19.59 183.57,-29.24 188.64,-24.41"/>
</g>
<!-- Node15&#45;&gt;Node6 -->
<g id="edge22" class="edge">
<title>Node15&#45;&gt;Node6</title>
<path fill="none" stroke="midnightblue" d="M275.3,-112.39C274.63,-99.33 274.94,-74.13 285,-56 292.01,-43.37 304.08,-32.8 315.04,-25.09"/>
<polygon fill="midnightblue" stroke="midnightblue" points="317.04,-27.95 323.46,-19.52 313.19,-22.11 317.04,-27.95"/>
</g>
<!-- Node15&#45;&gt;Node16 -->
<g id="edge23" class="edge">
<title>Node15&#45;&gt;Node16</title>
<path fill="none" stroke="midnightblue" d="M305.79,-112.44C339.71,-102.7 395.01,-86.82 430.43,-76.64"/>
<polygon fill="midnightblue" stroke="midnightblue" points="431.66,-79.93 440.3,-73.81 429.73,-73.2 431.66,-79.93"/>
</g>
<!-- Node18&#45;&gt;Node3 -->
<g id="edge37" class="edge">
<title>Node18&#45;&gt;Node3</title>
<path fill="none" stroke="midnightblue" d="M447.61,-229.24C476.45,-224.18 520.9,-212.77 551,-188 603.28,-144.99 573,-96.83 627,-56 670.92,-22.79 736.54,-13.89 774.93,-11.63"/>
<polygon fill="midnightblue" stroke="midnightblue" points="775.17,-15.12 784.99,-11.15 774.84,-8.13 775.17,-15.12"/>
</g>
<!-- Node18&#45;&gt;Node4 -->
<g id="edge38" class="edge">
<title>Node18&#45;&gt;Node4</title>
<path fill="none" stroke="midnightblue" d="M390.13,-230.64C338.69,-225.83 234.18,-213.17 209,-188 166.08,-145.09 166.29,-66.21 168.98,-30.03"/>
<polygon fill="midnightblue" stroke="midnightblue" points="172.48,-30.16 169.89,-19.89 165.51,-29.54 172.48,-30.16"/>
</g>
<!-- Node18&#45;&gt;Node15 -->
<g id="edge32" class="edge">
<title>Node18&#45;&gt;Node15</title>
<path fill="none" stroke="midnightblue" d="M407.78,-224.37C383.45,-205.65 325.6,-161.15 295.28,-137.83"/>
<polygon fill="midnightblue" stroke="midnightblue" points="297.23,-134.91 287.17,-131.59 292.96,-140.46 297.23,-134.91"/>
</g>
<!-- Node18&#45;&gt;Node16 -->
<g id="edge41" class="edge">
<title>Node18&#45;&gt;Node16</title>
<path fill="none" stroke="midnightblue" d="M415.54,-224.48C410.93,-211.96 403.93,-187.92 409,-168 417.17,-135.91 437.84,-103 451.38,-83.81"/>
<polygon fill="midnightblue" stroke="midnightblue" points="454.34,-85.7 457.37,-75.56 448.67,-81.59 454.34,-85.7"/>
</g>
<!-- Node19 -->
<g id="node19" class="node">
<title>Node19</title>
<g id="a_node19"><a xlink:href="../../da/d16/sensorController_8h.html" target="_top" xlink:title=" ">
<polygon fill="none" stroke="black" points="218.5,-168.5 218.5,-187.5 323.5,-187.5 323.5,-168.5 218.5,-168.5"/>
<text text-anchor="middle" x="271" y="-175.5" font-family="Helvetica,sans-Serif" font-size="10.00">sensorController.h</text>
</a>
</g>
</g>
<!-- Node18&#45;&gt;Node19 -->
<g id="edge33" class="edge">
<title>Node18&#45;&gt;Node19</title>
<path fill="none" stroke="midnightblue" d="M395.55,-224.44C370.87,-215.44 331.81,-201.19 304.02,-191.05"/>
<polygon fill="midnightblue" stroke="midnightblue" points="304.94,-187.66 294.34,-187.52 302.54,-194.23 304.94,-187.66"/>
</g>
<!-- Node20 -->
<g id="node20" class="node">
<title>Node20</title>
<g id="a_node20"><a xlink:title=" ">
<polygon fill="none" stroke="#bfbfbf" points="418,-168.5 418,-187.5 476,-187.5 476,-168.5 418,-168.5"/>
<text text-anchor="middle" x="447" y="-175.5" font-family="Helvetica,sans-Serif" font-size="10.00">memory</text>
</a>
</g>
</g>
<!-- Node18&#45;&gt;Node20 -->
<g id="edge39" class="edge">
<title>Node18&#45;&gt;Node20</title>
<path fill="none" stroke="midnightblue" d="M423.62,-224.08C427.46,-216.69 433.02,-205.95 437.76,-196.81"/>
<polygon fill="midnightblue" stroke="midnightblue" points="440.97,-198.24 442.46,-187.75 434.75,-195.02 440.97,-198.24"/>
</g>
<!-- Node21 -->
<g id="node21" class="node">
<title>Node21</title>
<g id="a_node21"><a xlink:title=" ">
<polygon fill="none" stroke="#bfbfbf" points="494,-168.5 494,-187.5 542,-187.5 542,-168.5 494,-168.5"/>
<text text-anchor="middle" x="518" y="-175.5" font-family="Helvetica,sans-Serif" font-size="10.00">mutex</text>
</a>
</g>
</g>
<!-- Node18&#45;&gt;Node21 -->
<g id="edge40" class="edge">
<title>Node18&#45;&gt;Node21</title>
<path fill="none" stroke="midnightblue" d="M434.91,-224.32C450.64,-215.74 474.94,-202.49 493.21,-192.52"/>
<polygon fill="midnightblue" stroke="midnightblue" points="495.03,-195.52 502.13,-187.65 491.68,-189.37 495.03,-195.52"/>
</g>
<!-- Node19&#45;&gt;Node4 -->
<g id="edge35" class="edge">
<title>Node19&#45;&gt;Node4</title>
<path fill="none" stroke="midnightblue" d="M262.49,-168.18C254.33,-159.44 241.95,-145.45 233,-132 209.98,-97.43 189.32,-53.22 178.64,-28.95"/>
<polygon fill="midnightblue" stroke="midnightblue" points="181.77,-27.37 174.59,-19.58 175.35,-30.15 181.77,-27.37"/>
</g>
<!-- Node19&#45;&gt;Node15 -->
<g id="edge34" class="edge">
<title>Node19&#45;&gt;Node15</title>
<path fill="none" stroke="midnightblue" d="M271.83,-168.08C272.48,-161.01 273.42,-150.86 274.24,-141.99"/>
<polygon fill="midnightblue" stroke="midnightblue" points="277.75,-142.03 275.19,-131.75 270.78,-141.39 277.75,-142.03"/>
</g>
<!-- Node19&#45;&gt;Node16 -->
<g id="edge36" class="edge">
<title>Node19&#45;&gt;Node16</title>
<path fill="none" stroke="midnightblue" d="M284.05,-168.44C303.71,-155.66 342.2,-131.06 376,-112 396.18,-100.62 419.55,-88.73 437.13,-80.03"/>
<polygon fill="midnightblue" stroke="midnightblue" points="438.81,-83.1 446.25,-75.55 435.73,-76.82 438.81,-83.1"/>
</g>
<!-- Node22&#45;&gt;Node3 -->
<g id="edge51" class="edge">
<title>Node22&#45;&gt;Node3</title>
<path fill="none" stroke="midnightblue" d="M1271.36,-280.34C1263.99,-262 1248,-217.74 1248,-179 1248,-179 1248,-179 1248,-121 1248,-90.2 1248.29,-74.93 1224,-56 1193.62,-32.31 929.01,-17.09 837.21,-12.48"/>
<polygon fill="midnightblue" stroke="midnightblue" points="837.3,-8.98 827.14,-11.98 836.96,-15.97 837.3,-8.98"/>
</g>
<!-- Node23 -->
<g id="node23" class="node">
<title>Node23</title>
<g id="a_node23"><a xlink:title=" ">
<polygon fill="none" stroke="#bfbfbf" points="1276,-224.5 1276,-243.5 1330,-243.5 1330,-224.5 1276,-224.5"/>
<text text-anchor="middle" x="1303" y="-231.5" font-family="Helvetica,sans-Serif" font-size="10.00">random</text>
</a>
</g>
</g>
<!-- Node22&#45;&gt;Node23 -->
<g id="edge52" class="edge">
<title>Node22&#45;&gt;Node23</title>
<path fill="none" stroke="midnightblue" d="M1279.62,-280.08C1283.46,-272.69 1289.02,-261.95 1293.76,-252.81"/>
<polygon fill="midnightblue" stroke="midnightblue" points="1296.97,-254.24 1298.46,-243.75 1290.75,-251.02 1296.97,-254.24"/>
</g>
</g>
</svg>
