<?xml version="1.0" encoding="UTF-8" standalone="no"?>
<!DOCTYPE svg PUBLIC "-//W3C//DTD SVG 1.1//EN"
 "http://www.w3.org/Graphics/SVG/1.1/DTD/svg11.dtd">
<!-- Generated by graphviz version 2.43.0 (0)
 -->
<!-- Title: psim/include/psim/phononBuilder.h Pages: 1 -->
<svg width="265pt" height="151pt"
 viewBox="0.00 0.00 265.00 151.00" xmlns="http://www.w3.org/2000/svg" xmlns:xlink="http://www.w3.org/1999/xlink">
<g id="graph0" class="graph" transform="scale(1 1) rotate(0) translate(4 147)">
<title>psim/include/psim/phononBuilder.h</title>
<!-- Node1 -->
<g id="node1" class="node">
<title>Node1</title>
<g id="a_node1"><a xlink:title=" ">
<polygon fill="#bfbfbf" stroke="black" points="83,-112.5 83,-142.5 228,-142.5 228,-112.5 83,-112.5"/>
<text text-anchor="start" x="91" y="-130.5" font-family="Helvetica,sans-Serif" font-size="10.00">psim/include/psim/phonon</text>
<text text-anchor="middle" x="155.5" y="-119.5" font-family="Helvetica,sans-Serif" font-size="10.00">Builder.h</text>
</a>
</g>
</g>
<!-- Node2 -->
<g id="node2" class="node">
<title>Node2</title>
<g id="a_node2"><a xlink:href="../../d3/d34/phonon_8h.html" target="_top" xlink:title=" ">
<polygon fill="none" stroke="black" points="95.5,-56.5 95.5,-75.5 157.5,-75.5 157.5,-56.5 95.5,-56.5"/>
<text text-anchor="middle" x="126.5" y="-63.5" font-family="Helvetica,sans-Serif" font-size="10.00">phonon.h</text>
</a>
</g>
</g>
<!-- Node1&#45;&gt;Node2 -->
<g id="edge1" class="edge">
<title>Node1&#45;&gt;Node2</title>
<path fill="none" stroke="midnightblue" d="M148.63,-112.4C144.59,-104.11 139.44,-93.55 135.13,-84.71"/>
<polygon fill="midnightblue" stroke="midnightblue" points="138.25,-83.11 130.72,-75.66 131.95,-86.18 138.25,-83.11"/>
</g>
<!-- Node4 -->
<g id="node4" class="node">
<title>Node4</title>
<g id="a_node4"><a xlink:title=" ">
<polygon fill="none" stroke="#bfbfbf" points="0,-0.5 0,-19.5 53,-19.5 53,-0.5 0,-0.5"/>
<text text-anchor="middle" x="26.5" y="-7.5" font-family="Helvetica,sans-Serif" font-size="10.00">cstddef</text>
</a>
</g>
</g>
<!-- Node1&#45;&gt;Node4 -->
<g id="edge6" class="edge">
<title>Node1&#45;&gt;Node4</title>
<path fill="none" stroke="midnightblue" d="M134.16,-112.47C120.1,-102.85 101.56,-89.44 86.5,-76 69.42,-60.76 51.89,-41.23 40.22,-27.57"/>
<polygon fill="midnightblue" stroke="midnightblue" points="42.89,-25.31 33.77,-19.92 37.54,-29.82 42.89,-25.31"/>
</g>
<!-- Node6 -->
<g id="node6" class="node">
<title>Node6</title>
<g id="a_node6"><a xlink:title=" ">
<polygon fill="none" stroke="#bfbfbf" points="207,-0.5 207,-19.5 252,-19.5 252,-0.5 207,-0.5"/>
<text text-anchor="middle" x="229.5" y="-7.5" font-family="Helvetica,sans-Serif" font-size="10.00">utility</text>
</a>
</g>
</g>
<!-- Node1&#45;&gt;Node6 -->
<g id="edge8" class="edge">
<title>Node1&#45;&gt;Node6</title>
<path fill="none" stroke="midnightblue" d="M164.57,-112.34C178.15,-91.15 203.72,-51.24 218.39,-28.34"/>
<polygon fill="midnightblue" stroke="midnightblue" points="221.5,-29.98 223.95,-19.67 215.6,-26.2 221.5,-29.98"/>
</g>
<!-- Node7 -->
<g id="node7" class="node">
<title>Node7</title>
<g id="a_node7"><a xlink:title=" ">
<polygon fill="none" stroke="#bfbfbf" points="214,-56.5 214,-75.5 257,-75.5 257,-56.5 214,-56.5"/>
<text text-anchor="middle" x="235.5" y="-63.5" font-family="Helvetica,sans-Serif" font-size="10.00">stack</text>
</a>
</g>
</g>
<!-- Node1&#45;&gt;Node7 -->
<g id="edge7" class="edge">
<title>Node1&#45;&gt;Node7</title>
<path fill="none" stroke="midnightblue" d="M174.46,-112.4C186.92,-103.13 203.2,-91.03 215.81,-81.65"/>
<polygon fill="midnightblue" stroke="midnightblue" points="217.92,-84.43 223.86,-75.66 213.75,-78.82 217.92,-84.43"/>
</g>
<!-- Node3 -->
<g id="node3" class="node">
<title>Node3</title>
<g id="a_node3"><a xlink:title=" ">
<polygon fill="none" stroke="#bfbfbf" points="71.5,-0.5 71.5,-19.5 113.5,-19.5 113.5,-0.5 71.5,-0.5"/>
<text text-anchor="middle" x="92.5" y="-7.5" font-family="Helvetica,sans-Serif" font-size="10.00">array</text>
</a>
</g>
</g>
<!-- Node2&#45;&gt;Node3 -->
<g id="edge2" class="edge">
<title>Node2&#45;&gt;Node3</title>
<path fill="none" stroke="midnightblue" d="M120.89,-56.08C116.13,-48.53 109.18,-37.49 103.35,-28.23"/>
<polygon fill="midnightblue" stroke="midnightblue" points="106.3,-26.35 98.01,-19.75 100.38,-30.08 106.3,-26.35"/>
</g>
<!-- Node2&#45;&gt;Node4 -->
<g id="edge3" class="edge">
<title>Node2&#45;&gt;Node4</title>
<path fill="none" stroke="midnightblue" d="M110.43,-56.32C94.54,-47.74 69.99,-34.49 51.54,-24.52"/>
<polygon fill="midnightblue" stroke="midnightblue" points="52.99,-21.33 42.53,-19.65 49.66,-27.49 52.99,-21.33"/>
</g>
<!-- Node5 -->
<g id="node5" class="node">
<title>Node5</title>
<g id="a_node5"><a xlink:title=" ">
<polygon fill="none" stroke="#bfbfbf" points="132,-0.5 132,-19.5 189,-19.5 189,-0.5 132,-0.5"/>
<text text-anchor="middle" x="160.5" y="-7.5" font-family="Helvetica,sans-Serif" font-size="10.00">ostream</text>
</a>
</g>
</g>
<!-- Node2&#45;&gt;Node5 -->
<g id="edge4" class="edge">
<title>Node2&#45;&gt;Node5</title>
<path fill="none" stroke="midnightblue" d="M132.11,-56.08C136.87,-48.53 143.82,-37.49 149.65,-28.23"/>
<polygon fill="midnightblue" stroke="midnightblue" points="152.62,-30.08 154.99,-19.75 146.7,-26.35 152.62,-30.08"/>
</g>
<!-- Node2&#45;&gt;Node6 -->
<g id="edge5" class="edge">
<title>Node2&#45;&gt;Node6</title>
<path fill="none" stroke="midnightblue" d="M143.05,-56.32C159.49,-47.7 184.93,-34.36 203.97,-24.39"/>
<polygon fill="midnightblue" stroke="midnightblue" points="205.76,-27.4 212.99,-19.65 202.51,-21.2 205.76,-27.4"/>
</g>
</g>
</svg>
