<?xml version="1.0" encoding="UTF-8" standalone="no"?>
<!DOCTYPE svg PUBLIC "-//W3C//DTD SVG 1.1//EN"
 "http://www.w3.org/Graphics/SVG/1.1/DTD/svg11.dtd">
<!-- Generated by graphviz version 2.43.0 (0)
 -->
<!-- Title: psim/include/psim/utils.h Pages: 1 -->
<svg width="746pt" height="84pt"
 viewBox="0.00 0.00 745.50 84.00" xmlns="http://www.w3.org/2000/svg" xmlns:xlink="http://www.w3.org/1999/xlink">
<g id="graph0" class="graph" transform="scale(1 1) rotate(0) translate(4 80)">
<title>psim/include/psim/utils.h</title>
<!-- Node1 -->
<g id="node1" class="node">
<title>Node1</title>
<g id="a_node1"><a xlink:title=" ">
<polygon fill="#bfbfbf" stroke="black" points="305.5,-56.5 305.5,-75.5 444.5,-75.5 444.5,-56.5 305.5,-56.5"/>
<text text-anchor="middle" x="375" y="-63.5" font-family="Helvetica,sans-Serif" font-size="10.00">psim/include/psim/utils.h</text>
</a>
</g>
</g>
<!-- Node2 -->
<g id="node2" class="node">
<title>Node2</title>
<g id="a_node2"><a xlink:href="../../d7/d5c/material_8cpp.html" target="_top" xlink:title=" ">
<polygon fill="none" stroke="black" points="0,-0.5 0,-19.5 122,-19.5 122,-0.5 0,-0.5"/>
<text text-anchor="middle" x="61" y="-7.5" font-family="Helvetica,sans-Serif" font-size="10.00">psim/src/material.cpp</text>
</a>
</g>
</g>
<!-- Node1&#45;&gt;Node2 -->
<g id="edge1" class="edge">
<title>Node1&#45;&gt;Node2</title>
<path fill="none" stroke="midnightblue" d="M315.27,-54.73C255.93,-44.52 166.01,-29.06 110.52,-19.52"/>
<polygon fill="midnightblue" stroke="midnightblue" points="314.8,-58.2 325.25,-56.44 315.98,-51.3 314.8,-58.2"/>
</g>
<!-- Node3 -->
<g id="node3" class="node">
<title>Node3</title>
<g id="a_node3"><a xlink:href="../../d1/d3b/modelSimulator_8cpp.html" target="_top" xlink:title=" ">
<polygon fill="none" stroke="black" points="140,-0.5 140,-19.5 298,-19.5 298,-0.5 140,-0.5"/>
<text text-anchor="middle" x="219" y="-7.5" font-family="Helvetica,sans-Serif" font-size="10.00">psim/src/modelSimulator.cpp</text>
</a>
</g>
</g>
<!-- Node1&#45;&gt;Node3 -->
<g id="edge2" class="edge">
<title>Node1&#45;&gt;Node3</title>
<path fill="none" stroke="midnightblue" d="M340.83,-53.17C311.46,-43 269.8,-28.59 243.6,-19.52"/>
<polygon fill="midnightblue" stroke="midnightblue" points="339.69,-56.48 350.28,-56.44 341.98,-49.86 339.69,-56.48"/>
</g>
<!-- Node4 -->
<g id="node4" class="node">
<title>Node4</title>
<g id="a_node4"><a xlink:href="../../d6/d7d/phonon_8cpp.html" target="_top" xlink:title=" ">
<polygon fill="none" stroke="black" points="316.5,-0.5 316.5,-19.5 433.5,-19.5 433.5,-0.5 316.5,-0.5"/>
<text text-anchor="middle" x="375" y="-7.5" font-family="Helvetica,sans-Serif" font-size="10.00">psim/src/phonon.cpp</text>
</a>
</g>
</g>
<!-- Node1&#45;&gt;Node4 -->
<g id="edge3" class="edge">
<title>Node1&#45;&gt;Node4</title>
<path fill="none" stroke="midnightblue" d="M375,-45.8C375,-36.91 375,-26.78 375,-19.75"/>
<polygon fill="midnightblue" stroke="midnightblue" points="371.5,-46.08 375,-56.08 378.5,-46.08 371.5,-46.08"/>
</g>
<!-- Node5 -->
<g id="node5" class="node">
<title>Node5</title>
<g id="a_node5"><a xlink:href="../../d5/d8a/phononBuilder_8cpp.html" target="_top" xlink:title=" ">
<polygon fill="none" stroke="black" points="451.5,-0.5 451.5,-19.5 602.5,-19.5 602.5,-0.5 451.5,-0.5"/>
<text text-anchor="middle" x="527" y="-7.5" font-family="Helvetica,sans-Serif" font-size="10.00">psim/src/phononBuilder.cpp</text>
</a>
</g>
</g>
<!-- Node1&#45;&gt;Node5 -->
<g id="edge4" class="edge">
<title>Node1&#45;&gt;Node5</title>
<path fill="none" stroke="midnightblue" d="M408.67,-53.04C437.27,-42.88 477.61,-28.55 503.03,-19.52"/>
<polygon fill="midnightblue" stroke="midnightblue" points="407.34,-49.8 399.08,-56.44 409.68,-56.39 407.34,-49.8"/>
</g>
<!-- Node6 -->
<g id="node6" class="node">
<title>Node6</title>
<g id="a_node6"><a xlink:href="../../d7/d13/surface_8cpp.html" target="_top" xlink:title=" ">
<polygon fill="none" stroke="black" points="620.5,-0.5 620.5,-19.5 737.5,-19.5 737.5,-0.5 620.5,-0.5"/>
<text text-anchor="middle" x="679" y="-7.5" font-family="Helvetica,sans-Serif" font-size="10.00">psim/src/surface.cpp</text>
</a>
</g>
</g>
<!-- Node1&#45;&gt;Node6 -->
<g id="edge5" class="edge">
<title>Node1&#45;&gt;Node6</title>
<path fill="none" stroke="midnightblue" d="M433.19,-54.66C490.64,-44.46 577.45,-29.04 631.06,-19.52"/>
<polygon fill="midnightblue" stroke="midnightblue" points="432.4,-51.25 423.17,-56.44 433.63,-58.14 432.4,-51.25"/>
</g>
</g>
</svg>
