<?xml version="1.0" encoding="UTF-8" standalone="no"?>
<!DOCTYPE svg PUBLIC "-//W3C//DTD SVG 1.1//EN"
 "http://www.w3.org/Graphics/SVG/1.1/DTD/svg11.dtd">
<!-- Generated by graphviz version 2.43.0 (0)
 -->
<!-- Title: CellError::setMessage Pages: 1 -->
<svg width="313pt" height="78pt"
 viewBox="0.00 0.00 313.00 77.50" xmlns="http://www.w3.org/2000/svg" xmlns:xlink="http://www.w3.org/1999/xlink">
<g id="graph0" class="graph" transform="scale(1 1) rotate(0) translate(4 73.5)">
<title>CellError::setMessage</title>
<!-- Node1 -->
<g id="node1" class="node">
<title>Node1</title>
<g id="a_node1"><a xlink:title=" ">
<polygon fill="#bfbfbf" stroke="black" points="182,-22.5 182,-41.5 305,-41.5 305,-22.5 182,-22.5"/>
<text text-anchor="middle" x="243.5" y="-29.5" font-family="Helvetica,sans-Serif" font-size="10.00">CellError::setMessage</text>
</a>
</g>
</g>
<!-- Node2 -->
<g id="node2" class="node">
<title>Node2</title>
<g id="a_node2"><a xlink:href="../../db/d99/classIntersectError.html#a2b3afdfed7eed3b3743cd425b8c4bce3" target="_top" xlink:title=" ">
<polygon fill="none" stroke="black" points="7.5,-39 7.5,-69 138.5,-69 138.5,-39 7.5,-39"/>
<text text-anchor="start" x="15.5" y="-57" font-family="Helvetica,sans-Serif" font-size="10.00">IntersectError::Intersect</text>
<text text-anchor="middle" x="73" y="-46" font-family="Helvetica,sans-Serif" font-size="10.00">Error</text>
</a>
</g>
</g>
<!-- Node1&#45;&gt;Node2 -->
<g id="edge1" class="edge">
<title>Node1&#45;&gt;Node2</title>
<path fill="none" stroke="midnightblue" d="M171.73,-41.24C160.78,-42.67 149.53,-44.14 138.72,-45.55"/>
<polygon fill="midnightblue" stroke="midnightblue" points="172.2,-44.71 181.67,-39.94 171.3,-37.77 172.2,-44.71"/>
</g>
<!-- Node3 -->
<g id="node3" class="node">
<title>Node3</title>
<g id="a_node3"><a xlink:href="../../db/d85/classOverlapError.html#a2dbf19979d34da2ecca8757664f68766" target="_top" xlink:title=" ">
<polygon fill="none" stroke="black" points="0,-0.5 0,-19.5 146,-19.5 146,-0.5 0,-0.5"/>
<text text-anchor="middle" x="73" y="-7.5" font-family="Helvetica,sans-Serif" font-size="10.00">OverlapError::OverlapError</text>
</a>
</g>
</g>
<!-- Node1&#45;&gt;Node3 -->
<g id="edge2" class="edge">
<title>Node1&#45;&gt;Node3</title>
<path fill="none" stroke="midnightblue" d="M171.56,-22.74C163.18,-21.64 154.62,-20.53 146.22,-19.43"/>
<polygon fill="midnightblue" stroke="midnightblue" points="171.3,-26.23 181.67,-24.06 172.2,-19.29 171.3,-26.23"/>
</g>
</g>
</svg>
