<?xml version="1.0" encoding="UTF-8" standalone="no"?>
<!DOCTYPE svg PUBLIC "-//W3C//DTD SVG 1.1//EN"
 "http://www.w3.org/Graphics/SVG/1.1/DTD/svg11.dtd">
<!-- Generated by graphviz version 2.43.0 (0)
 -->
<!-- Title: psim/include/psim/sensorController.h Pages: 1 -->
<svg width="1528pt" height="274pt"
 viewBox="0.00 0.00 1528.00 274.00" xmlns="http://www.w3.org/2000/svg" xmlns:xlink="http://www.w3.org/1999/xlink">
<g id="graph0" class="graph" transform="scale(1 1) rotate(0) translate(4 270)">
<title>psim/include/psim/sensorController.h</title>
<!-- Node1 -->
<g id="node1" class="node">
<title>Node1</title>
<g id="a_node1"><a xlink:title=" ">
<polygon fill="#bfbfbf" stroke="black" points="1022,-235.5 1022,-265.5 1163,-265.5 1163,-235.5 1022,-235.5"/>
<text text-anchor="start" x="1030" y="-253.5" font-family="Helvetica,sans-Serif" font-size="10.00">psim/include/psim/sensor</text>
<text text-anchor="middle" x="1092.5" y="-242.5" font-family="Helvetica,sans-Serif" font-size="10.00">Controller.h</text>
</a>
</g>
</g>
<!-- Node2 -->
<g id="node2" class="node">
<title>Node2</title>
<g id="a_node2"><a xlink:href="../../d5/d2e/sensor_8h.html" target="_top" xlink:title=" ">
<polygon fill="none" stroke="black" points="519,-179.5 519,-198.5 668,-198.5 668,-179.5 519,-179.5"/>
<text text-anchor="middle" x="593.5" y="-186.5" font-family="Helvetica,sans-Serif" font-size="10.00">psim/include/psim/sensor.h</text>
</a>
</g>
</g>
<!-- Node1&#45;&gt;Node2 -->
<g id="edge1" class="edge">
<title>Node1&#45;&gt;Node2</title>
<path fill="none" stroke="midnightblue" d="M1011.85,-239.88C915.83,-228.43 756.96,-209.49 665.11,-198.54"/>
<polygon fill="midnightblue" stroke="midnightblue" points="1011.46,-243.36 1021.8,-241.07 1012.28,-236.41 1011.46,-243.36"/>
</g>
<!-- Node17 -->
<g id="node17" class="node">
<title>Node17</title>
<g id="a_node17"><a xlink:href="../../da/dfa/sensor_8cpp.html" target="_top" xlink:title=" ">
<polygon fill="none" stroke="black" points="1407,-118 1407,-137 1520,-137 1520,-118 1407,-118"/>
<text text-anchor="middle" x="1463.5" y="-125" font-family="Helvetica,sans-Serif" font-size="10.00">psim/src/sensor.cpp</text>
</a>
</g>
</g>
<!-- Node1&#45;&gt;Node17 -->
<g id="edge27" class="edge">
<title>Node1&#45;&gt;Node17</title>
<path fill="none" stroke="midnightblue" d="M1092.51,-225.47C1093.87,-209.89 1098.39,-190.44 1111.5,-179 1158.93,-137.61 1330.39,-153.31 1392.5,-143 1402.8,-141.29 1413.89,-139.17 1424.16,-137.07"/>
<polygon fill="midnightblue" stroke="midnightblue" points="1089.01,-225.32 1092,-235.49 1096,-225.68 1089.01,-225.32"/>
</g>
<!-- Node18 -->
<g id="node18" class="node">
<title>Node18</title>
<g id="a_node18"><a xlink:href="../../d8/db6/sensorController_8cpp.html" target="_top" xlink:title=" ">
<polygon fill="none" stroke="black" points="1121,-179.5 1121,-198.5 1282,-198.5 1282,-179.5 1121,-179.5"/>
<text text-anchor="middle" x="1201.5" y="-186.5" font-family="Helvetica,sans-Serif" font-size="10.00">psim/src/sensorController.cpp</text>
</a>
</g>
</g>
<!-- Node1&#45;&gt;Node18 -->
<g id="edge28" class="edge">
<title>Node1&#45;&gt;Node18</title>
<path fill="none" stroke="midnightblue" d="M1127.3,-230.51C1146.89,-219.81 1170.41,-206.97 1185.64,-198.66"/>
<polygon fill="midnightblue" stroke="midnightblue" points="1125.43,-227.54 1118.33,-235.4 1128.79,-233.68 1125.43,-227.54"/>
</g>
<!-- Node3 -->
<g id="node3" class="node">
<title>Node3</title>
<g id="a_node3"><a xlink:href="../../d0/ddd/cell_8h.html" target="_top" xlink:title=" ">
<polygon fill="none" stroke="black" points="680,-118 680,-137 815,-137 815,-118 680,-118"/>
<text text-anchor="middle" x="747.5" y="-125" font-family="Helvetica,sans-Serif" font-size="10.00">psim/include/psim/cell.h</text>
</a>
</g>
</g>
<!-- Node2&#45;&gt;Node3 -->
<g id="edge2" class="edge">
<title>Node2&#45;&gt;Node3</title>
<path fill="none" stroke="midnightblue" d="M625.12,-175.78C655.05,-164.22 699.19,-147.16 725.48,-137.01"/>
<polygon fill="midnightblue" stroke="midnightblue" points="623.63,-172.61 615.56,-179.48 626.15,-179.14 623.63,-172.61"/>
</g>
<!-- Node4 -->
<g id="node4" class="node">
<title>Node4</title>
<g id="a_node4"><a xlink:href="../../dc/d51/model_8h.html" target="_top" xlink:title=" ">
<polygon fill="none" stroke="black" points="431,-56.5 431,-75.5 580,-75.5 580,-56.5 431,-56.5"/>
<text text-anchor="middle" x="505.5" y="-63.5" font-family="Helvetica,sans-Serif" font-size="10.00">psim/include/psim/model.h</text>
</a>
</g>
</g>
<!-- Node2&#45;&gt;Node4 -->
<g id="edge13" class="edge">
<title>Node2&#45;&gt;Node4</title>
<path fill="none" stroke="midnightblue" d="M581.2,-171.09C562.16,-144.91 526.24,-95.52 511.77,-75.62"/>
<polygon fill="midnightblue" stroke="midnightblue" points="578.46,-173.27 587.17,-179.3 584.12,-169.15 578.46,-173.27"/>
</g>
<!-- Node6 -->
<g id="node6" class="node">
<title>Node6</title>
<g id="a_node6"><a xlink:href="../../d4/d02/inputManager_8cpp.html" target="_top" xlink:title=" ">
<polygon fill="none" stroke="black" points="944.5,-0.5 944.5,-19.5 1092.5,-19.5 1092.5,-0.5 944.5,-0.5"/>
<text text-anchor="middle" x="1018.5" y="-7.5" font-family="Helvetica,sans-Serif" font-size="10.00">psim/src/inputManager.cpp</text>
</a>
</g>
</g>
<!-- Node2&#45;&gt;Node6 -->
<g id="edge23" class="edge">
<title>Node2&#45;&gt;Node6</title>
<path fill="none" stroke="midnightblue" d="M678.37,-188.84C858.83,-188.63 1271.32,-176.87 1358.5,-76 1364.31,-69.27 1364.36,-62.69 1358.5,-56 1341.26,-36.32 1187.44,-22.46 1092.7,-15.69"/>
<polygon fill="midnightblue" stroke="midnightblue" points="678.12,-185.34 668.12,-188.84 678.12,-192.34 678.12,-185.34"/>
</g>
<!-- Node8 -->
<g id="node8" class="node">
<title>Node8</title>
<g id="a_node8"><a xlink:href="../../d6/d68/cell_8cpp.html" target="_top" xlink:title=" ">
<polygon fill="none" stroke="black" points="597.5,-56.5 597.5,-75.5 695.5,-75.5 695.5,-56.5 597.5,-56.5"/>
<text text-anchor="middle" x="646.5" y="-63.5" font-family="Helvetica,sans-Serif" font-size="10.00">psim/src/cell.cpp</text>
</a>
</g>
</g>
<!-- Node2&#45;&gt;Node8 -->
<g id="edge22" class="edge">
<title>Node2&#45;&gt;Node8</title>
<path fill="none" stroke="midnightblue" d="M601.36,-170.05C612.94,-143.62 634.12,-95.26 642.72,-75.62"/>
<polygon fill="midnightblue" stroke="midnightblue" points="598.12,-168.73 597.31,-179.3 604.53,-171.54 598.12,-168.73"/>
</g>
<!-- Node13 -->
<g id="node13" class="node">
<title>Node13</title>
<g id="a_node13"><a xlink:href="../../df/d92/outputManager_8h.html" target="_top" xlink:title=" ">
<polygon fill="none" stroke="black" points="153.5,-112.5 153.5,-142.5 293.5,-142.5 293.5,-112.5 153.5,-112.5"/>
<text text-anchor="start" x="161.5" y="-130.5" font-family="Helvetica,sans-Serif" font-size="10.00">psim/include/psim/output</text>
<text text-anchor="middle" x="223.5" y="-119.5" font-family="Helvetica,sans-Serif" font-size="10.00">Manager.h</text>
</a>
</g>
</g>
<!-- Node2&#45;&gt;Node13 -->
<g id="edge14" class="edge">
<title>Node2&#45;&gt;Node13</title>
<path fill="none" stroke="midnightblue" d="M530.27,-177.83C464.57,-167.27 362.02,-150.78 293.81,-139.81"/>
<polygon fill="midnightblue" stroke="midnightblue" points="530.06,-181.34 540.49,-179.48 531.17,-174.43 530.06,-181.34"/>
</g>
<!-- Node14 -->
<g id="node14" class="node">
<title>Node14</title>
<g id="a_node14"><a xlink:href="../../d4/d91/outputManager_8cpp.html" target="_top" xlink:title=" ">
<polygon fill="none" stroke="black" points="0,-56.5 0,-75.5 155,-75.5 155,-56.5 0,-56.5"/>
<text text-anchor="middle" x="77.5" y="-63.5" font-family="Helvetica,sans-Serif" font-size="10.00">psim/src/outputManager.cpp</text>
</a>
</g>
</g>
<!-- Node2&#45;&gt;Node14 -->
<g id="edge24" class="edge">
<title>Node2&#45;&gt;Node14</title>
<path fill="none" stroke="midnightblue" d="M508.73,-186.82C396.64,-184.02 206.09,-174.6 144.5,-143 114.45,-127.58 91.79,-92.54 82.33,-75.98"/>
<polygon fill="midnightblue" stroke="midnightblue" points="508.91,-190.32 518.99,-187.06 509.08,-183.33 508.91,-190.32"/>
</g>
<!-- Node15 -->
<g id="node15" class="node">
<title>Node15</title>
<g id="a_node15"><a xlink:href="../../d6/d53/sensorInterpreter_8h.html" target="_top" xlink:title=" ">
<polygon fill="none" stroke="black" points="362,-112.5 362,-142.5 503,-142.5 503,-112.5 362,-112.5"/>
<text text-anchor="start" x="370" y="-130.5" font-family="Helvetica,sans-Serif" font-size="10.00">psim/include/psim/sensor</text>
<text text-anchor="middle" x="432.5" y="-119.5" font-family="Helvetica,sans-Serif" font-size="10.00">Interpreter.h</text>
</a>
</g>
</g>
<!-- Node2&#45;&gt;Node15 -->
<g id="edge18" class="edge">
<title>Node2&#45;&gt;Node15</title>
<path fill="none" stroke="midnightblue" d="M560.96,-175.98C534.79,-166.3 497.96,-152.69 470.44,-142.52"/>
<polygon fill="midnightblue" stroke="midnightblue" points="559.84,-179.29 570.43,-179.48 562.27,-172.73 559.84,-179.29"/>
</g>
<!-- Node16 -->
<g id="node16" class="node">
<title>Node16</title>
<g id="a_node16"><a xlink:href="../../d1/d97/sensorInterpreter_8cpp.html" target="_top" xlink:title=" ">
<polygon fill="none" stroke="black" points="211.5,-56.5 211.5,-75.5 375.5,-75.5 375.5,-56.5 211.5,-56.5"/>
<text text-anchor="middle" x="293.5" y="-63.5" font-family="Helvetica,sans-Serif" font-size="10.00">psim/src/sensorInterpreter.cpp</text>
</a>
</g>
</g>
<!-- Node2&#45;&gt;Node16 -->
<g id="edge26" class="edge">
<title>Node2&#45;&gt;Node16</title>
<path fill="none" stroke="midnightblue" d="M508.95,-178.66C450.38,-170.99 378.44,-158.82 352.5,-143 325.12,-126.3 305.62,-91.9 297.58,-75.74"/>
<polygon fill="midnightblue" stroke="midnightblue" points="508.61,-182.14 518.98,-179.94 509.5,-175.2 508.61,-182.14"/>
</g>
<!-- Node2&#45;&gt;Node17 -->
<g id="edge25" class="edge">
<title>Node2&#45;&gt;Node17</title>
<path fill="none" stroke="midnightblue" d="M678.44,-187.26C824.83,-185.08 1133.82,-176.52 1392.5,-143 1403.73,-141.55 1415.84,-139.32 1426.82,-137.05"/>
<polygon fill="midnightblue" stroke="midnightblue" points="678.14,-183.76 668.19,-187.4 678.24,-190.76 678.14,-183.76"/>
</g>
<!-- Node3&#45;&gt;Node4 -->
<g id="edge3" class="edge">
<title>Node3&#45;&gt;Node4</title>
<path fill="none" stroke="midnightblue" d="M702.93,-115.54C655.95,-103.99 582.94,-86.04 540.11,-75.51"/>
<polygon fill="midnightblue" stroke="midnightblue" points="702.28,-118.99 712.83,-117.98 703.95,-112.19 702.28,-118.99"/>
</g>
<!-- Node7 -->
<g id="node7" class="node">
<title>Node7</title>
<g id="a_node7"><a xlink:href="../../d6/db4/model_8cpp.html" target="_top" xlink:title=" ">
<polygon fill="none" stroke="black" points="347.5,-0.5 347.5,-19.5 459.5,-19.5 459.5,-0.5 347.5,-0.5"/>
<text text-anchor="middle" x="403.5" y="-7.5" font-family="Helvetica,sans-Serif" font-size="10.00">psim/src/model.cpp</text>
</a>
</g>
</g>
<!-- Node3&#45;&gt;Node7 -->
<g id="edge8" class="edge">
<title>Node3&#45;&gt;Node7</title>
<path fill="none" stroke="midnightblue" d="M741.46,-108.25C735.01,-91.8 723.12,-68.35 704.5,-56 699.42,-52.63 545.32,-30.74 459.64,-18.78"/>
<polygon fill="midnightblue" stroke="midnightblue" points="738.24,-109.64 744.93,-117.86 744.82,-107.27 738.24,-109.64"/>
</g>
<!-- Node3&#45;&gt;Node8 -->
<g id="edge7" class="edge">
<title>Node3&#45;&gt;Node8</title>
<path fill="none" stroke="midnightblue" d="M724.15,-112.74C704.64,-101.25 677.43,-85.22 660.94,-75.51"/>
<polygon fill="midnightblue" stroke="midnightblue" points="722.64,-115.91 733.03,-117.98 726.19,-109.88 722.64,-115.91"/>
</g>
<!-- Node9 -->
<g id="node9" class="node">
<title>Node9</title>
<g id="a_node9"><a xlink:href="../../d1/d3b/modelSimulator_8cpp.html" target="_top" xlink:title=" ">
<polygon fill="none" stroke="black" points="1056.5,-56.5 1056.5,-75.5 1214.5,-75.5 1214.5,-56.5 1056.5,-56.5"/>
<text text-anchor="middle" x="1135.5" y="-63.5" font-family="Helvetica,sans-Serif" font-size="10.00">psim/src/modelSimulator.cpp</text>
</a>
</g>
</g>
<!-- Node3&#45;&gt;Node9 -->
<g id="edge9" class="edge">
<title>Node3&#45;&gt;Node9</title>
<path fill="none" stroke="midnightblue" d="M813.36,-116.4C888.37,-104.9 1009.62,-86.3 1080.01,-75.51"/>
<polygon fill="midnightblue" stroke="midnightblue" points="812.44,-113 803.09,-117.98 813.51,-119.92 812.44,-113"/>
</g>
<!-- Node10 -->
<g id="node10" class="node">
<title>Node10</title>
<g id="a_node10"><a xlink:href="../../d6/d7d/phonon_8cpp.html" target="_top" xlink:title=" ">
<polygon fill="none" stroke="black" points="1233,-56.5 1233,-75.5 1350,-75.5 1350,-56.5 1233,-56.5"/>
<text text-anchor="middle" x="1291.5" y="-63.5" font-family="Helvetica,sans-Serif" font-size="10.00">psim/src/phonon.cpp</text>
</a>
</g>
</g>
<!-- Node3&#45;&gt;Node10 -->
<g id="edge10" class="edge">
<title>Node3&#45;&gt;Node10</title>
<path fill="none" stroke="midnightblue" d="M825.38,-118.86C919.7,-109.47 1083.37,-92.7 1223.5,-76 1226.57,-75.63 1229.73,-75.25 1232.91,-74.85"/>
<polygon fill="midnightblue" stroke="midnightblue" points="824.96,-115.39 815.35,-119.86 825.65,-122.35 824.96,-115.39"/>
</g>
<!-- Node11 -->
<g id="node11" class="node">
<title>Node11</title>
<g id="a_node11"><a xlink:href="../../d5/d8a/phononBuilder_8cpp.html" target="_top" xlink:title=" ">
<polygon fill="none" stroke="black" points="752,-56.5 752,-75.5 903,-75.5 903,-56.5 752,-56.5"/>
<text text-anchor="middle" x="827.5" y="-63.5" font-family="Helvetica,sans-Serif" font-size="10.00">psim/src/phononBuilder.cpp</text>
</a>
</g>
</g>
<!-- Node3&#45;&gt;Node11 -->
<g id="edge11" class="edge">
<title>Node3&#45;&gt;Node11</title>
<path fill="none" stroke="midnightblue" d="M767.27,-111.79C782.62,-100.38 803.36,-84.96 816.06,-75.51"/>
<polygon fill="midnightblue" stroke="midnightblue" points="764.9,-109.2 758.96,-117.98 769.07,-114.82 764.9,-109.2"/>
</g>
<!-- Node12 -->
<g id="node12" class="node">
<title>Node12</title>
<g id="a_node12"><a xlink:href="../../d7/d13/surface_8cpp.html" target="_top" xlink:title=" ">
<polygon fill="none" stroke="black" points="921,-56.5 921,-75.5 1038,-75.5 1038,-56.5 921,-56.5"/>
<text text-anchor="middle" x="979.5" y="-63.5" font-family="Helvetica,sans-Serif" font-size="10.00">psim/src/surface.cpp</text>
</a>
</g>
</g>
<!-- Node3&#45;&gt;Node12 -->
<g id="edge12" class="edge">
<title>Node3&#45;&gt;Node12</title>
<path fill="none" stroke="midnightblue" d="M790.51,-115.47C835.56,-103.91 905.35,-86.02 946.32,-75.51"/>
<polygon fill="midnightblue" stroke="midnightblue" points="789.56,-112.1 780.74,-117.98 791.3,-118.88 789.56,-112.1"/>
</g>
<!-- Node5 -->
<g id="node5" class="node">
<title>Node5</title>
<g id="a_node5"><a xlink:href="../../df/d0a/main_8cpp.html" target="_top" xlink:title=" ">
<polygon fill="none" stroke="black" points="478,-0.5 478,-19.5 567,-19.5 567,-0.5 478,-0.5"/>
<text text-anchor="middle" x="522.5" y="-7.5" font-family="Helvetica,sans-Serif" font-size="10.00">psim/main.cpp</text>
</a>
</g>
</g>
<!-- Node4&#45;&gt;Node5 -->
<g id="edge4" class="edge">
<title>Node4&#45;&gt;Node5</title>
<path fill="none" stroke="midnightblue" d="M511.36,-46.4C514.2,-37.36 517.48,-26.94 519.75,-19.75"/>
<polygon fill="midnightblue" stroke="midnightblue" points="507.97,-45.49 508.31,-56.08 514.65,-47.6 507.97,-45.49"/>
</g>
<!-- Node4&#45;&gt;Node6 -->
<g id="edge5" class="edge">
<title>Node4&#45;&gt;Node6</title>
<path fill="none" stroke="midnightblue" d="M590.32,-55.81C720.67,-41.94 860.77,-27.35 944.3,-18.68"/>
<polygon fill="midnightblue" stroke="midnightblue" points="589.73,-52.35 580.16,-56.89 590.47,-59.31 589.73,-52.35"/>
</g>
<!-- Node4&#45;&gt;Node7 -->
<g id="edge6" class="edge">
<title>Node4&#45;&gt;Node7</title>
<path fill="none" stroke="midnightblue" d="M480.17,-51.59C461.31,-41.61 436.12,-28.27 419.85,-19.65"/>
<polygon fill="midnightblue" stroke="midnightblue" points="478.64,-54.74 489.11,-56.32 481.91,-48.55 478.64,-54.74"/>
</g>
<!-- Node13&#45;&gt;Node4 -->
<g id="edge15" class="edge">
<title>Node13&#45;&gt;Node4</title>
<path fill="none" stroke="midnightblue" d="M300.07,-110.34C353.35,-99.1 422.27,-84.56 465.18,-75.51"/>
<polygon fill="midnightblue" stroke="midnightblue" points="299.03,-106.99 289.97,-112.47 300.48,-113.83 299.03,-106.99"/>
</g>
<!-- Node13&#45;&gt;Node7 -->
<g id="edge16" class="edge">
<title>Node13&#45;&gt;Node7</title>
<path fill="none" stroke="midnightblue" d="M206.95,-103.7C198.31,-88.79 191.59,-69.62 202.5,-56 220.38,-33.67 294.43,-21.67 347.45,-15.82"/>
<polygon fill="midnightblue" stroke="midnightblue" points="204.12,-105.77 212.43,-112.34 210.03,-102.02 204.12,-105.77"/>
</g>
<!-- Node13&#45;&gt;Node14 -->
<g id="edge17" class="edge">
<title>Node13&#45;&gt;Node14</title>
<path fill="none" stroke="midnightblue" d="M179.37,-108.52C152.65,-97.63 119.79,-84.23 98.74,-75.66"/>
<polygon fill="midnightblue" stroke="midnightblue" points="178.32,-111.87 188.9,-112.4 180.96,-105.38 178.32,-111.87"/>
</g>
<!-- Node15&#45;&gt;Node4 -->
<g id="edge19" class="edge">
<title>Node15&#45;&gt;Node4</title>
<path fill="none" stroke="midnightblue" d="M457.78,-105.89C470.48,-95.54 485.19,-83.56 494.88,-75.66"/>
<polygon fill="midnightblue" stroke="midnightblue" points="455.34,-103.37 449.8,-112.4 459.76,-108.79 455.34,-103.37"/>
</g>
<!-- Node15&#45;&gt;Node7 -->
<g id="edge20" class="edge">
<title>Node15&#45;&gt;Node7</title>
<path fill="none" stroke="midnightblue" d="M426.49,-102.56C420.01,-76.76 410.04,-37.06 405.68,-19.67"/>
<polygon fill="midnightblue" stroke="midnightblue" points="423.11,-103.49 428.94,-112.34 429.9,-101.79 423.11,-103.49"/>
</g>
<!-- Node15&#45;&gt;Node16 -->
<g id="edge21" class="edge">
<title>Node15&#45;&gt;Node16</title>
<path fill="none" stroke="midnightblue" d="M390.15,-108.37C364.78,-97.51 333.67,-84.2 313.73,-75.66"/>
<polygon fill="midnightblue" stroke="midnightblue" points="388.99,-111.68 399.56,-112.4 391.74,-105.25 388.99,-111.68"/>
</g>
</g>
</svg>
