<?xml version="1.0" encoding="UTF-8" standalone="no"?>
<!DOCTYPE svg PUBLIC "-//W3C//DTD SVG 1.1//EN"
 "http://www.w3.org/Graphics/SVG/1.1/DTD/svg11.dtd">
<!-- Generated by graphviz version 2.43.0 (0)
 -->
<!-- Title: Geometry::Line::getIntersection Pages: 1 -->
<svg width="690pt" height="39pt"
 viewBox="0.00 0.00 690.00 39.00" xmlns="http://www.w3.org/2000/svg" xmlns:xlink="http://www.w3.org/1999/xlink">
<g id="graph0" class="graph" transform="scale(1 1) rotate(0) translate(4 35)">
<title>Geometry::Line::getIntersection</title>
<!-- Node1 -->
<g id="node1" class="node">
<title>Node1</title>
<g id="a_node1"><a xlink:title=" ">
<polygon fill="#bfbfbf" stroke="black" points="512,-6 512,-25 682,-25 682,-6 512,-6"/>
<text text-anchor="middle" x="597" y="-13" font-family="Helvetica,sans-Serif" font-size="10.00">Geometry::Line::getIntersection</text>
</a>
</g>
</g>
<!-- Node2 -->
<g id="node2" class="node">
<title>Node2</title>
<g id="a_node2"><a xlink:href="../../d9/d10/structGeometry_1_1Triangle.html#a6ae6d3c182510419ac7f3a0f1e0358f0" target="_top" xlink:title=" ">
<polygon fill="none" stroke="black" points="367,-0.5 367,-30.5 476,-30.5 476,-0.5 367,-0.5"/>
<text text-anchor="start" x="375" y="-18.5" font-family="Helvetica,sans-Serif" font-size="10.00">Geometry::Triangle</text>
<text text-anchor="middle" x="421.5" y="-7.5" font-family="Helvetica,sans-Serif" font-size="10.00">::intersects</text>
</a>
</g>
</g>
<!-- Node1&#45;&gt;Node2 -->
<g id="edge1" class="edge">
<title>Node1&#45;&gt;Node2</title>
<path fill="none" stroke="midnightblue" d="M501.6,-15.5C492.94,-15.5 484.38,-15.5 476.27,-15.5"/>
<polygon fill="midnightblue" stroke="midnightblue" points="501.79,-19 511.79,-15.5 501.79,-12 501.79,-19"/>
</g>
<!-- Node3 -->
<g id="node3" class="node">
<title>Node3</title>
<g id="a_node3"><a xlink:href="../../de/dfd/classCell.html#a0e3a7f08a0e22182119f37c2d2ab66c1" target="_top" xlink:title=" ">
<polygon fill="none" stroke="black" points="250,-6 250,-25 331,-25 331,-6 250,-6"/>
<text text-anchor="middle" x="290.5" y="-13" font-family="Helvetica,sans-Serif" font-size="10.00">Cell::validate</text>
</a>
</g>
</g>
<!-- Node2&#45;&gt;Node3 -->
<g id="edge2" class="edge">
<title>Node2&#45;&gt;Node3</title>
<path fill="none" stroke="midnightblue" d="M356.78,-15.5C348.11,-15.5 339.43,-15.5 331.35,-15.5"/>
<polygon fill="midnightblue" stroke="midnightblue" points="356.91,-19 366.91,-15.5 356.91,-12 356.91,-19"/>
</g>
<!-- Node4 -->
<g id="node4" class="node">
<title>Node4</title>
<g id="a_node4"><a xlink:href="../../d6/d18/classModel.html#af1a3ec716c6789100bffad58515b3fd1" target="_top" xlink:title=" ">
<polygon fill="none" stroke="black" points="125,-6 125,-25 214,-25 214,-6 125,-6"/>
<text text-anchor="middle" x="169.5" y="-13" font-family="Helvetica,sans-Serif" font-size="10.00">Model::addCell</text>
</a>
</g>
</g>
<!-- Node3&#45;&gt;Node4 -->
<g id="edge3" class="edge">
<title>Node3&#45;&gt;Node4</title>
<path fill="none" stroke="midnightblue" d="M239.68,-15.5C231.16,-15.5 222.38,-15.5 214.05,-15.5"/>
<polygon fill="midnightblue" stroke="midnightblue" points="239.87,-19 249.87,-15.5 239.87,-12 239.87,-19"/>
</g>
<!-- Node5 -->
<g id="node5" class="node">
<title>Node5</title>
<g id="a_node5"><a xlink:href="../../d6/d18/classModel.html#aea0e28728148047d926ae8eb9e162994" target="_top" xlink:title=" ">
<polygon fill="none" stroke="black" points="0,-6 0,-25 89,-25 89,-6 0,-6"/>
<text text-anchor="middle" x="44.5" y="-13" font-family="Helvetica,sans-Serif" font-size="10.00">Model::addCell</text>
</a>
</g>
</g>
<!-- Node4&#45;&gt;Node5 -->
<g id="edge4" class="edge">
<title>Node4&#45;&gt;Node5</title>
<path fill="none" stroke="midnightblue" d="M114.54,-15.5C106.03,-15.5 97.31,-15.5 89.07,-15.5"/>
<polygon fill="midnightblue" stroke="midnightblue" points="114.79,-19 124.79,-15.5 114.79,-12 114.79,-19"/>
</g>
</g>
</svg>
