<?xml version="1.0" encoding="UTF-8" standalone="no"?>
<!DOCTYPE svg PUBLIC "-//W3C//DTD SVG 1.1//EN"
 "http://www.w3.org/Graphics/SVG/1.1/DTD/svg11.dtd">
<!-- Generated by graphviz version 2.43.0 (0)
 -->
<!-- Title: ShapeError::setMessage Pages: 1 -->
<svg width="324pt" height="66pt"
 viewBox="0.00 0.00 324.00 66.00" xmlns="http://www.w3.org/2000/svg" xmlns:xlink="http://www.w3.org/1999/xlink">
<g id="graph0" class="graph" transform="scale(1 1) rotate(0) translate(4 62)">
<title>ShapeError::setMessage</title>
<!-- Node1 -->
<g id="node1" class="node">
<title>Node1</title>
<g id="a_node1"><a xlink:title=" ">
<polygon fill="#bfbfbf" stroke="black" points="182,-19.5 182,-38.5 316,-38.5 316,-19.5 182,-19.5"/>
<text text-anchor="middle" x="249" y="-26.5" font-family="Helvetica,sans-Serif" font-size="10.00">ShapeError::setMessage</text>
</a>
</g>
</g>
<!-- Node2 -->
<g id="node2" class="node">
<title>Node2</title>
<g id="a_node2"><a xlink:href="../../dc/d35/classLineError.html#a384f0e353d21b22b36e9336671b0bb05" target="_top" xlink:title=" ">
<polygon fill="none" stroke="black" points="18,-38.5 18,-57.5 128,-57.5 128,-38.5 18,-38.5"/>
<text text-anchor="middle" x="73" y="-45.5" font-family="Helvetica,sans-Serif" font-size="10.00">LineError::LineError</text>
</a>
</g>
</g>
<!-- Node1&#45;&gt;Node2 -->
<g id="edge1" class="edge">
<title>Node1&#45;&gt;Node2</title>
<path fill="none" stroke="midnightblue" d="M171.67,-37.33C157.04,-38.93 141.99,-40.58 128.23,-42.08"/>
<polygon fill="midnightblue" stroke="midnightblue" points="172.16,-40.8 181.72,-36.24 171.4,-33.84 172.16,-40.8"/>
</g>
<!-- Node3 -->
<g id="node3" class="node">
<title>Node3</title>
<g id="a_node3"><a xlink:href="../../d3/d45/classTriangleError.html#a0db3af9775c0ebdf86ec2b2e9c6edb3b" target="_top" xlink:title=" ">
<polygon fill="none" stroke="black" points="0,-0.5 0,-19.5 146,-19.5 146,-0.5 0,-0.5"/>
<text text-anchor="middle" x="73" y="-7.5" font-family="Helvetica,sans-Serif" font-size="10.00">TriangleError::TriangleError</text>
</a>
</g>
</g>
<!-- Node1&#45;&gt;Node3 -->
<g id="edge2" class="edge">
<title>Node1&#45;&gt;Node3</title>
<path fill="none" stroke="midnightblue" d="M171.53,-20.65C163.11,-19.73 154.55,-18.8 146.18,-17.88"/>
<polygon fill="midnightblue" stroke="midnightblue" points="171.4,-24.16 181.72,-21.76 172.16,-17.2 171.4,-24.16"/>
</g>
</g>
</svg>
