<?xml version="1.0" encoding="UTF-8" standalone="no"?>
<!DOCTYPE svg PUBLIC "-//W3C//DTD SVG 1.1//EN"
 "http://www.w3.org/Graphics/SVG/1.1/DTD/svg11.dtd">
<!-- Generated by graphviz version 2.43.0 (0)
 -->
<!-- Title: PhasorBuilder::operator() Pages: 1 -->
<svg width="460pt" height="129pt"
 viewBox="0.00 0.00 460.00 129.00" xmlns="http://www.w3.org/2000/svg" xmlns:xlink="http://www.w3.org/1999/xlink">
<g id="graph0" class="graph" transform="scale(1 1) rotate(0) translate(4 125)">
<title>PhasorBuilder::operator()</title>
<!-- Node1 -->
<g id="node1" class="node">
<title>Node1</title>
<g id="a_node1"><a xlink:title=" ">
<polygon fill="#bfbfbf" stroke="black" points="0,-38.5 0,-57.5 139,-57.5 139,-38.5 0,-38.5"/>
<text text-anchor="middle" x="69.5" y="-45.5" font-family="Helvetica,sans-Serif" font-size="10.00">PhasorBuilder::operator()</text>
</a>
</g>
</g>
<!-- Node2 -->
<g id="node2" class="node">
<title>Node2</title>
<g id="a_node2"><a xlink:href="../../d5/dea/classSurfaceOriginBuilder.html#a984740642c40ced8bcbde51f6230c191" target="_top" xlink:title=" ">
<polygon fill="none" stroke="black" points="180.5,-77 180.5,-107 297.5,-107 297.5,-77 180.5,-77"/>
<text text-anchor="start" x="188.5" y="-95" font-family="Helvetica,sans-Serif" font-size="10.00">SurfaceOriginBuilder</text>
<text text-anchor="middle" x="239" y="-84" font-family="Helvetica,sans-Serif" font-size="10.00">::operator()</text>
</a>
</g>
</g>
<!-- Node1&#45;&gt;Node2 -->
<g id="edge1" class="edge">
<title>Node1&#45;&gt;Node2</title>
<path fill="none" stroke="midnightblue" d="M106.85,-57.55C125.54,-62.46 148.92,-68.6 170.75,-74.33"/>
<polygon fill="midnightblue" stroke="midnightblue" points="170.09,-77.78 180.65,-76.93 171.87,-71.01 170.09,-77.78"/>
</g>
<!-- Node5 -->
<g id="node5" class="node">
<title>Node5</title>
<g id="a_node5"><a xlink:href="../../d2/db2/classPhonon.html#ad168708bad851ab9dd22af0dc773349a" target="_top" xlink:title=" ">
<polygon fill="none" stroke="black" points="175,-38.5 175,-57.5 303,-57.5 303,-38.5 175,-38.5"/>
<text text-anchor="middle" x="239" y="-45.5" font-family="Helvetica,sans-Serif" font-size="10.00">Phonon::scatterUpdate</text>
</a>
</g>
</g>
<!-- Node1&#45;&gt;Node5 -->
<g id="edge4" class="edge">
<title>Node1&#45;&gt;Node5</title>
<path fill="none" stroke="midnightblue" d="M139.11,-48C147.53,-48 156.15,-48 164.63,-48"/>
<polygon fill="midnightblue" stroke="midnightblue" points="164.88,-51.5 174.88,-48 164.88,-44.5 164.88,-51.5"/>
</g>
<!-- Node6 -->
<g id="node6" class="node">
<title>Node6</title>
<g id="a_node6"><a xlink:href="../../d2/db2/classPhonon.html#a85e3deb3380544fe94c090dc1ca921ad" target="_top" xlink:title=" ">
<polygon fill="none" stroke="black" points="180,-0.5 180,-19.5 298,-19.5 298,-0.5 180,-0.5"/>
<text text-anchor="middle" x="239" y="-7.5" font-family="Helvetica,sans-Serif" font-size="10.00">Phonon::setDirection</text>
</a>
</g>
</g>
<!-- Node1&#45;&gt;Node6 -->
<g id="edge5" class="edge">
<title>Node1&#45;&gt;Node6</title>
<path fill="none" stroke="midnightblue" d="M112.77,-38.41C135.07,-33.35 162.62,-27.1 186.2,-21.75"/>
<polygon fill="midnightblue" stroke="midnightblue" points="187.06,-25.15 196.04,-19.52 185.51,-18.32 187.06,-25.15"/>
</g>
<!-- Node3 -->
<g id="node3" class="node">
<title>Node3</title>
<g id="a_node3"><a xlink:href="../../d2/db2/classPhonon.html#ad8de3544825fdae2b8d0c5ac1baeb9db" target="_top" xlink:title=" ">
<polygon fill="none" stroke="black" points="339,-101.5 339,-120.5 452,-120.5 452,-101.5 339,-101.5"/>
<text text-anchor="middle" x="395.5" y="-108.5" font-family="Helvetica,sans-Serif" font-size="10.00">Phonon::setPosition</text>
</a>
</g>
</g>
<!-- Node2&#45;&gt;Node3 -->
<g id="edge2" class="edge">
<title>Node2&#45;&gt;Node3</title>
<path fill="none" stroke="midnightblue" d="M297.53,-99.07C307.8,-100.34 318.57,-101.66 329.05,-102.95"/>
<polygon fill="midnightblue" stroke="midnightblue" points="328.62,-106.42 338.97,-104.17 329.48,-99.48 328.62,-106.42"/>
</g>
<!-- Node4 -->
<g id="node4" class="node">
<title>Node4</title>
<g id="a_node4"><a xlink:href="../../d4/d3d/namespaceUtils.html#a43e50478f64886919d326da79ac1921b" target="_top" xlink:title=" ">
<polygon fill="none" stroke="black" points="359,-63.5 359,-82.5 432,-82.5 432,-63.5 359,-63.5"/>
<text text-anchor="middle" x="395.5" y="-70.5" font-family="Helvetica,sans-Serif" font-size="10.00">Utils::urand</text>
</a>
</g>
</g>
<!-- Node2&#45;&gt;Node4 -->
<g id="edge3" class="edge">
<title>Node2&#45;&gt;Node4</title>
<path fill="none" stroke="midnightblue" d="M297.53,-84.93C314.42,-82.85 332.66,-80.6 348.71,-78.63"/>
<polygon fill="midnightblue" stroke="midnightblue" points="349.41,-82.07 358.91,-77.38 348.56,-75.12 349.41,-82.07"/>
</g>
</g>
</svg>
