<?xml version="1.0" encoding="UTF-8" standalone="no"?>
<!DOCTYPE svg PUBLIC "-//W3C//DTD SVG 1.1//EN"
 "http://www.w3.org/Graphics/SVG/1.1/DTD/svg11.dtd">
<!-- Generated by graphviz version 2.43.0 (0)
 -->
<!-- Title: PhasorBuilder Pages: 1 -->
<svg width="217pt" height="286pt"
 viewBox="0.00 0.00 216.50 286.00" xmlns="http://www.w3.org/2000/svg" xmlns:xlink="http://www.w3.org/1999/xlink">
<g id="graph0" class="graph" transform="scale(1 1) rotate(0) translate(4 282)">
<title>PhasorBuilder</title>
<!-- Node1 -->
<g id="node1" class="node">
<title>Node1</title>
<g id="a_node1"><a xlink:title=" ">
<polygon fill="#bfbfbf" stroke="black" points="17.5,-0.5 17.5,-19.5 101.5,-19.5 101.5,-0.5 17.5,-0.5"/>
<text text-anchor="middle" x="59.5" y="-7.5" font-family="Helvetica,sans-Serif" font-size="10.00">PhasorBuilder</text>
</a>
</g>
</g>
<!-- Node2 -->
<g id="node2" class="node">
<title>Node2</title>
<g id="a_node2"><a xlink:href="../../d5/dea/classSurfaceOriginBuilder.html" target="_top" xlink:title=" ">
<polygon fill="none" stroke="black" points="1,-57.5 1,-76.5 118,-76.5 118,-57.5 1,-57.5"/>
<text text-anchor="middle" x="59.5" y="-64.5" font-family="Helvetica,sans-Serif" font-size="10.00">SurfaceOriginBuilder</text>
</a>
</g>
</g>
<!-- Node2&#45;&gt;Node1 -->
<g id="edge1" class="edge">
<title>Node2&#45;&gt;Node1</title>
<path fill="none" stroke="midnightblue" d="M59.5,-47.12C59.5,-37.82 59.5,-27.06 59.5,-19.71"/>
<polygon fill="midnightblue" stroke="midnightblue" points="56,-47.41 59.5,-57.41 63,-47.41 56,-47.41"/>
</g>
<!-- Node3 -->
<g id="node3" class="node">
<title>Node3</title>
<g id="a_node3"><a xlink:href="../../d2/d07/classPhononBuilder.html" target="_top" xlink:title=" ">
<polygon fill="none" stroke="black" points="0,-124.5 0,-143.5 87,-143.5 87,-124.5 0,-124.5"/>
<text text-anchor="middle" x="43.5" y="-131.5" font-family="Helvetica,sans-Serif" font-size="10.00">PhononBuilder</text>
</a>
</g>
</g>
<!-- Node3&#45;&gt;Node2 -->
<g id="edge2" class="edge">
<title>Node3&#45;&gt;Node2</title>
<path fill="none" stroke="midnightblue" d="M48.07,-114.41C51.13,-101.99 55.02,-86.22 57.38,-76.63"/>
<polygon fill="midnightblue" stroke="midnightblue" points="44.65,-113.69 45.66,-124.23 51.45,-115.36 44.65,-113.69"/>
</g>
<!-- Node4 -->
<g id="node4" class="node">
<title>Node4</title>
<g id="a_node4"><a xlink:href="../../d4/de9/classEmitSurface.html" target="_top" xlink:title=" ">
<polygon fill="none" stroke="black" points="105.5,-124.5 105.5,-143.5 181.5,-143.5 181.5,-124.5 105.5,-124.5"/>
<text text-anchor="middle" x="143.5" y="-131.5" font-family="Helvetica,sans-Serif" font-size="10.00">EmitSurface</text>
</a>
</g>
</g>
<!-- Node4&#45;&gt;Node2 -->
<g id="edge3" class="edge">
<title>Node4&#45;&gt;Node2</title>
<path fill="none" stroke="#9a32cd" stroke-dasharray="5,2" d="M124.2,-118.07C107.62,-105.24 84.29,-87.19 70.65,-76.63"/>
<polygon fill="#9a32cd" stroke="#9a32cd" points="122.12,-120.88 132.17,-124.23 126.4,-115.35 122.12,-120.88"/>
<text text-anchor="middle" x="130" y="-98" font-family="Helvetica,sans-Serif" font-size="10.00"> surface_</text>
</g>
<!-- Node5 -->
<g id="node5" class="node">
<title>Node5</title>
<g id="a_node5"><a xlink:href="../../de/d10/classSurface.html" target="_top" xlink:title=" ">
<polygon fill="none" stroke="black" points="71,-191.5 71,-210.5 124,-210.5 124,-191.5 71,-191.5"/>
<text text-anchor="middle" x="97.5" y="-198.5" font-family="Helvetica,sans-Serif" font-size="10.00">Surface</text>
</a>
</g>
</g>
<!-- Node5&#45;&gt;Node4 -->
<g id="edge4" class="edge">
<title>Node5&#45;&gt;Node4</title>
<path fill="none" stroke="midnightblue" d="M109.6,-182.9C118.54,-170.27 130.33,-153.6 137.39,-143.63"/>
<polygon fill="midnightblue" stroke="midnightblue" points="106.62,-181.05 103.7,-191.23 112.34,-185.09 106.62,-181.05"/>
</g>
<!-- Node6 -->
<g id="node6" class="node">
<title>Node6</title>
<g id="a_node6"><a xlink:href="../../de/dfd/classCell.html" target="_top" xlink:title=" ">
<polygon fill="none" stroke="black" points="34,-258.5 34,-277.5 69,-277.5 69,-258.5 34,-258.5"/>
<text text-anchor="middle" x="51.5" y="-265.5" font-family="Helvetica,sans-Serif" font-size="10.00">Cell</text>
</a>
</g>
</g>
<!-- Node6&#45;&gt;Node5 -->
<g id="edge5" class="edge">
<title>Node6&#45;&gt;Node5</title>
<path fill="none" stroke="#9a32cd" stroke-dasharray="5,2" d="M63.6,-249.9C72.54,-237.27 84.33,-220.6 91.39,-210.63"/>
<polygon fill="#9a32cd" stroke="#9a32cd" points="60.62,-248.05 57.7,-258.23 66.34,-252.09 60.62,-248.05"/>
<text text-anchor="middle" x="90.5" y="-232" font-family="Helvetica,sans-Serif" font-size="10.00"> cell_</text>
</g>
<!-- Node7 -->
<g id="node7" class="node">
<title>Node7</title>
<g id="a_node7"><a xlink:href="../../dc/d33/structGeometry_1_1Vector2D.html" target="_top" xlink:title=" ">
<polygon fill="none" stroke="black" points="87,-258.5 87,-277.5 202,-277.5 202,-258.5 87,-258.5"/>
<text text-anchor="middle" x="144.5" y="-265.5" font-family="Helvetica,sans-Serif" font-size="10.00">Geometry::Vector2D</text>
</a>
</g>
</g>
<!-- Node7&#45;&gt;Node5 -->
<g id="edge6" class="edge">
<title>Node7&#45;&gt;Node5</title>
<path fill="none" stroke="#9a32cd" stroke-dasharray="5,2" d="M132.14,-249.9C123.01,-237.27 110.95,-220.6 103.74,-210.63"/>
<polygon fill="#9a32cd" stroke="#9a32cd" points="129.47,-252.18 138.16,-258.23 135.14,-248.08 129.47,-252.18"/>
<text text-anchor="middle" x="146" y="-232" font-family="Helvetica,sans-Serif" font-size="10.00"> normal_</text>
</g>
<!-- Node8 -->
<g id="node8" class="node">
<title>Node8</title>
<g id="a_node8"><a xlink:href="../../d3/d89/classMaterial.html" target="_top" xlink:title=" ">
<polygon fill="none" stroke="black" points="142,-191.5 142,-210.5 199,-210.5 199,-191.5 142,-191.5"/>
<text text-anchor="middle" x="170.5" y="-198.5" font-family="Helvetica,sans-Serif" font-size="10.00">Material</text>
</a>
</g>
</g>
<!-- Node8&#45;&gt;Node4 -->
<g id="edge7" class="edge">
<title>Node8&#45;&gt;Node4</title>
<path fill="none" stroke="#9a32cd" stroke-dasharray="5,2" d="M162.94,-181.79C157.75,-169.31 151.11,-153.31 147.08,-143.63"/>
<polygon fill="#9a32cd" stroke="#9a32cd" points="159.79,-183.34 166.86,-191.23 166.25,-180.66 159.79,-183.34"/>
<text text-anchor="middle" x="183.5" y="-165" font-family="Helvetica,sans-Serif" font-size="10.00"> material_</text>
</g>
</g>
</svg>
