<?xml version="1.0" encoding="UTF-8" standalone="no"?>
<!DOCTYPE svg PUBLIC "-//W3C//DTD SVG 1.1//EN"
 "http://www.w3.org/Graphics/SVG/1.1/DTD/svg11.dtd">
<!-- Generated by graphviz version 2.43.0 (0)
 -->
<!-- Title: psim/include/psim/compositeSurface.h Pages: 1 -->
<svg width="1152pt" height="207pt"
 viewBox="0.00 0.00 1151.50 207.00" xmlns="http://www.w3.org/2000/svg" xmlns:xlink="http://www.w3.org/1999/xlink">
<g id="graph0" class="graph" transform="scale(1 1) rotate(0) translate(4 203)">
<title>psim/include/psim/compositeSurface.h</title>
<!-- Node1 -->
<g id="node1" class="node">
<title>Node1</title>
<g id="a_node1"><a xlink:title=" ">
<polygon fill="#bfbfbf" stroke="black" points="760,-168.5 760,-198.5 920,-198.5 920,-168.5 760,-168.5"/>
<text text-anchor="start" x="768" y="-186.5" font-family="Helvetica,sans-Serif" font-size="10.00">psim/include/psim/composite</text>
<text text-anchor="middle" x="840" y="-175.5" font-family="Helvetica,sans-Serif" font-size="10.00">Surface.h</text>
</a>
</g>
</g>
<!-- Node2 -->
<g id="node2" class="node">
<title>Node2</title>
<g id="a_node2"><a xlink:href="../../d0/ddd/cell_8h.html" target="_top" xlink:title=" ">
<polygon fill="none" stroke="black" points="388.5,-112.5 388.5,-131.5 523.5,-131.5 523.5,-112.5 388.5,-112.5"/>
<text text-anchor="middle" x="456" y="-119.5" font-family="Helvetica,sans-Serif" font-size="10.00">psim/include/psim/cell.h</text>
</a>
</g>
</g>
<!-- Node1&#45;&gt;Node2 -->
<g id="edge1" class="edge">
<title>Node1&#45;&gt;Node2</title>
<path fill="none" stroke="midnightblue" d="M749.72,-168.51C675.74,-157.05 573.43,-141.2 511.14,-131.54"/>
<polygon fill="midnightblue" stroke="midnightblue" points="749.55,-172.03 759.97,-170.1 750.62,-165.11 749.55,-172.03"/>
</g>
<!-- Node6 -->
<g id="node6" class="node">
<title>Node6</title>
<g id="a_node6"><a xlink:href="../../d6/db4/model_8cpp.html" target="_top" xlink:title=" ">
<polygon fill="none" stroke="black" points="283,-0.5 283,-19.5 395,-19.5 395,-0.5 283,-0.5"/>
<text text-anchor="middle" x="339" y="-7.5" font-family="Helvetica,sans-Serif" font-size="10.00">psim/src/model.cpp</text>
</a>
</g>
</g>
<!-- Node1&#45;&gt;Node6 -->
<g id="edge14" class="edge">
<title>Node1&#45;&gt;Node6</title>
<path fill="none" stroke="midnightblue" d="M870.72,-162.62C907.31,-136.59 959.73,-90.25 928,-56 892.23,-17.4 535.2,-11.77 395.05,-11.05"/>
<polygon fill="midnightblue" stroke="midnightblue" points="868.5,-159.9 862.28,-168.47 872.49,-165.65 868.5,-159.9"/>
</g>
<!-- Node7 -->
<g id="node7" class="node">
<title>Node7</title>
<g id="a_node7"><a xlink:href="../../d6/d68/cell_8cpp.html" target="_top" xlink:title=" ">
<polygon fill="none" stroke="black" points="0,-56.5 0,-75.5 98,-75.5 98,-56.5 0,-56.5"/>
<text text-anchor="middle" x="49" y="-63.5" font-family="Helvetica,sans-Serif" font-size="10.00">psim/src/cell.cpp</text>
</a>
</g>
</g>
<!-- Node1&#45;&gt;Node7 -->
<g id="edge12" class="edge">
<title>Node1&#45;&gt;Node7</title>
<path fill="none" stroke="midnightblue" d="M749.54,-174.89C656.37,-166.52 507.11,-151.6 379,-132 272.5,-115.71 148.11,-89.14 86.93,-75.57"/>
<polygon fill="midnightblue" stroke="midnightblue" points="749.51,-178.4 759.78,-175.81 750.13,-171.43 749.51,-178.4"/>
</g>
<!-- Node8 -->
<g id="node8" class="node">
<title>Node8</title>
<g id="a_node8"><a xlink:href="../../d1/d3b/modelSimulator_8cpp.html" target="_top" xlink:title=" ">
<polygon fill="none" stroke="black" points="761,-56.5 761,-75.5 919,-75.5 919,-56.5 761,-56.5"/>
<text text-anchor="middle" x="840" y="-63.5" font-family="Helvetica,sans-Serif" font-size="10.00">psim/src/modelSimulator.cpp</text>
</a>
</g>
</g>
<!-- Node1&#45;&gt;Node8 -->
<g id="edge15" class="edge">
<title>Node1&#45;&gt;Node8</title>
<path fill="none" stroke="midnightblue" d="M840,-158.21C840,-132.41 840,-92.99 840,-75.67"/>
<polygon fill="midnightblue" stroke="midnightblue" points="836.5,-158.34 840,-168.34 843.5,-158.34 836.5,-158.34"/>
</g>
<!-- Node12 -->
<g id="node12" class="node">
<title>Node12</title>
<g id="a_node12"><a xlink:href="../../dc/d09/compositeSurface_8cpp.html" target="_top" xlink:title=" ">
<polygon fill="none" stroke="black" points="974.5,-112.5 974.5,-131.5 1143.5,-131.5 1143.5,-112.5 974.5,-112.5"/>
<text text-anchor="middle" x="1059" y="-119.5" font-family="Helvetica,sans-Serif" font-size="10.00">psim/src/compositeSurface.cpp</text>
</a>
</g>
</g>
<!-- Node1&#45;&gt;Node12 -->
<g id="edge13" class="edge">
<title>Node1&#45;&gt;Node12</title>
<path fill="none" stroke="midnightblue" d="M901.28,-165.85C942.4,-154.68 994.85,-140.43 1027.69,-131.51"/>
<polygon fill="midnightblue" stroke="midnightblue" points="900.36,-162.48 891.62,-168.47 902.19,-169.23 900.36,-162.48"/>
</g>
<!-- Node3 -->
<g id="node3" class="node">
<title>Node3</title>
<g id="a_node3"><a xlink:href="../../dc/d51/model_8h.html" target="_top" xlink:title=" ">
<polygon fill="none" stroke="black" points="116.5,-56.5 116.5,-75.5 265.5,-75.5 265.5,-56.5 116.5,-56.5"/>
<text text-anchor="middle" x="191" y="-63.5" font-family="Helvetica,sans-Serif" font-size="10.00">psim/include/psim/model.h</text>
</a>
</g>
</g>
<!-- Node2&#45;&gt;Node3 -->
<g id="edge2" class="edge">
<title>Node2&#45;&gt;Node3</title>
<path fill="none" stroke="midnightblue" d="M404.03,-110.41C353.95,-100.2 279.14,-84.96 232.79,-75.52"/>
<polygon fill="midnightblue" stroke="midnightblue" points="403.51,-113.88 414.01,-112.44 404.91,-107.02 403.51,-113.88"/>
</g>
<!-- Node2&#45;&gt;Node6 -->
<g id="edge7" class="edge">
<title>Node2&#45;&gt;Node6</title>
<path fill="none" stroke="midnightblue" d="M378.19,-114.78C352.98,-108.63 327.55,-97.14 312,-76 298.83,-58.08 318.03,-32.79 330.23,-19.66"/>
<polygon fill="midnightblue" stroke="midnightblue" points="377.67,-118.25 388.19,-116.96 379.16,-111.41 377.67,-118.25"/>
</g>
<!-- Node2&#45;&gt;Node7 -->
<g id="edge6" class="edge">
<title>Node2&#45;&gt;Node7</title>
<path fill="none" stroke="midnightblue" d="M378.2,-111.55C307.42,-102.81 200.1,-89.22 107,-76 104.07,-75.58 101.07,-75.15 98.03,-74.7"/>
<polygon fill="midnightblue" stroke="midnightblue" points="378.02,-115.05 388.37,-112.8 378.88,-108.11 378.02,-115.05"/>
</g>
<!-- Node2&#45;&gt;Node8 -->
<g id="edge8" class="edge">
<title>Node2&#45;&gt;Node8</title>
<path fill="none" stroke="midnightblue" d="M526.81,-111.04C599.34,-100.84 710.88,-85.16 779.44,-75.52"/>
<polygon fill="midnightblue" stroke="midnightblue" points="526.26,-107.59 516.85,-112.44 527.24,-114.52 526.26,-107.59"/>
</g>
<!-- Node9 -->
<g id="node9" class="node">
<title>Node9</title>
<g id="a_node9"><a xlink:href="../../d6/d7d/phonon_8cpp.html" target="_top" xlink:title=" ">
<polygon fill="none" stroke="black" points="321.5,-56.5 321.5,-75.5 438.5,-75.5 438.5,-56.5 321.5,-56.5"/>
<text text-anchor="middle" x="380" y="-63.5" font-family="Helvetica,sans-Serif" font-size="10.00">psim/src/phonon.cpp</text>
</a>
</g>
</g>
<!-- Node2&#45;&gt;Node9 -->
<g id="edge9" class="edge">
<title>Node2&#45;&gt;Node9</title>
<path fill="none" stroke="midnightblue" d="M435.42,-106.38C421.69,-96.62 404.07,-84.11 392.43,-75.83"/>
<polygon fill="midnightblue" stroke="midnightblue" points="433.61,-109.38 443.79,-112.32 437.66,-103.68 433.61,-109.38"/>
</g>
<!-- Node10 -->
<g id="node10" class="node">
<title>Node10</title>
<g id="a_node10"><a xlink:href="../../d5/d8a/phononBuilder_8cpp.html" target="_top" xlink:title=" ">
<polygon fill="none" stroke="black" points="456.5,-56.5 456.5,-75.5 607.5,-75.5 607.5,-56.5 456.5,-56.5"/>
<text text-anchor="middle" x="532" y="-63.5" font-family="Helvetica,sans-Serif" font-size="10.00">psim/src/phononBuilder.cpp</text>
</a>
</g>
</g>
<!-- Node2&#45;&gt;Node10 -->
<g id="edge10" class="edge">
<title>Node2&#45;&gt;Node10</title>
<path fill="none" stroke="midnightblue" d="M476.58,-106.38C490.31,-96.62 507.93,-84.11 519.57,-75.83"/>
<polygon fill="midnightblue" stroke="midnightblue" points="474.34,-103.68 468.21,-112.32 478.39,-109.38 474.34,-103.68"/>
</g>
<!-- Node11 -->
<g id="node11" class="node">
<title>Node11</title>
<g id="a_node11"><a xlink:href="../../d7/d13/surface_8cpp.html" target="_top" xlink:title=" ">
<polygon fill="none" stroke="black" points="625.5,-56.5 625.5,-75.5 742.5,-75.5 742.5,-56.5 625.5,-56.5"/>
<text text-anchor="middle" x="684" y="-63.5" font-family="Helvetica,sans-Serif" font-size="10.00">psim/src/surface.cpp</text>
</a>
</g>
</g>
<!-- Node2&#45;&gt;Node11 -->
<g id="edge11" class="edge">
<title>Node2&#45;&gt;Node11</title>
<path fill="none" stroke="midnightblue" d="M502.07,-110.09C545.15,-99.89 608.59,-84.86 648.04,-75.52"/>
<polygon fill="midnightblue" stroke="midnightblue" points="501.05,-106.73 492.13,-112.44 502.66,-113.54 501.05,-106.73"/>
</g>
<!-- Node4 -->
<g id="node4" class="node">
<title>Node4</title>
<g id="a_node4"><a xlink:href="../../df/d0a/main_8cpp.html" target="_top" xlink:title=" ">
<polygon fill="none" stroke="black" points="9.5,-0.5 9.5,-19.5 98.5,-19.5 98.5,-0.5 9.5,-0.5"/>
<text text-anchor="middle" x="54" y="-7.5" font-family="Helvetica,sans-Serif" font-size="10.00">psim/main.cpp</text>
</a>
</g>
</g>
<!-- Node3&#45;&gt;Node4 -->
<g id="edge3" class="edge">
<title>Node3&#45;&gt;Node4</title>
<path fill="none" stroke="midnightblue" d="M159.98,-52.77C134.24,-42.63 98.31,-28.47 75.61,-19.52"/>
<polygon fill="midnightblue" stroke="midnightblue" points="158.71,-56.03 169.29,-56.44 161.27,-49.52 158.71,-56.03"/>
</g>
<!-- Node5 -->
<g id="node5" class="node">
<title>Node5</title>
<g id="a_node5"><a xlink:href="../../d4/d02/inputManager_8cpp.html" target="_top" xlink:title=" ">
<polygon fill="none" stroke="black" points="117,-0.5 117,-19.5 265,-19.5 265,-0.5 117,-0.5"/>
<text text-anchor="middle" x="191" y="-7.5" font-family="Helvetica,sans-Serif" font-size="10.00">psim/src/inputManager.cpp</text>
</a>
</g>
</g>
<!-- Node3&#45;&gt;Node5 -->
<g id="edge4" class="edge">
<title>Node3&#45;&gt;Node5</title>
<path fill="none" stroke="midnightblue" d="M191,-45.8C191,-36.91 191,-26.78 191,-19.75"/>
<polygon fill="midnightblue" stroke="midnightblue" points="187.5,-46.08 191,-56.08 194.5,-46.08 187.5,-46.08"/>
</g>
<!-- Node3&#45;&gt;Node6 -->
<g id="edge5" class="edge">
<title>Node3&#45;&gt;Node6</title>
<path fill="none" stroke="midnightblue" d="M224.15,-52.91C251.97,-42.75 291.02,-28.51 315.66,-19.52"/>
<polygon fill="midnightblue" stroke="midnightblue" points="222.65,-49.73 214.45,-56.44 225.04,-56.3 222.65,-49.73"/>
</g>
</g>
</svg>
