<?xml version="1.0" encoding="UTF-8" standalone="no"?>
<!DOCTYPE svg PUBLIC "-//W3C//DTD SVG 1.1//EN"
 "http://www.w3.org/Graphics/SVG/1.1/DTD/svg11.dtd">
<!-- Generated by graphviz version 2.43.0 (0)
 -->
<!-- Title: psim/include/psim/compositeSurface.h Pages: 1 -->
<svg width="1180pt" height="207pt"
 viewBox="0.00 0.00 1179.50 207.00" xmlns="http://www.w3.org/2000/svg" xmlns:xlink="http://www.w3.org/1999/xlink">
<g id="graph0" class="graph" transform="scale(1 1) rotate(0) translate(4 203)">
<title>psim/include/psim/compositeSurface.h</title>
<!-- Node1 -->
<g id="node1" class="node">
<title>Node1</title>
<g id="a_node1"><a xlink:title=" ">
<polygon fill="#bfbfbf" stroke="black" points="788,-168.5 788,-198.5 948,-198.5 948,-168.5 788,-168.5"/>
<text text-anchor="start" x="796" y="-186.5" font-family="Helvetica,sans-Serif" font-size="10.00">psim/include/psim/composite</text>
<text text-anchor="middle" x="868" y="-175.5" font-family="Helvetica,sans-Serif" font-size="10.00">Surface.h</text>
</a>
</g>
</g>
<!-- Node2 -->
<g id="node2" class="node">
<title>Node2</title>
<g id="a_node2"><a xlink:href="../../d0/ddd/cell_8h.html" target="_top" xlink:title=" ">
<polygon fill="none" stroke="black" points="416.5,-112.5 416.5,-131.5 551.5,-131.5 551.5,-112.5 416.5,-112.5"/>
<text text-anchor="middle" x="484" y="-119.5" font-family="Helvetica,sans-Serif" font-size="10.00">psim/include/psim/cell.h</text>
</a>
</g>
</g>
<!-- Node1&#45;&gt;Node2 -->
<g id="edge1" class="edge">
<title>Node1&#45;&gt;Node2</title>
<path fill="none" stroke="midnightblue" d="M777.72,-168.51C703.74,-157.05 601.43,-141.2 539.14,-131.54"/>
<polygon fill="midnightblue" stroke="midnightblue" points="777.55,-172.03 787.97,-170.1 778.62,-165.11 777.55,-172.03"/>
</g>
<!-- Node6 -->
<g id="node6" class="node">
<title>Node6</title>
<g id="a_node6"><a xlink:href="../../d6/db4/model_8cpp.html" target="_top" xlink:title=" ">
<polygon fill="none" stroke="black" points="290,-0.5 290,-19.5 402,-19.5 402,-0.5 290,-0.5"/>
<text text-anchor="middle" x="346" y="-7.5" font-family="Helvetica,sans-Serif" font-size="10.00">psim/src/model.cpp</text>
</a>
</g>
</g>
<!-- Node1&#45;&gt;Node6 -->
<g id="edge14" class="edge">
<title>Node1&#45;&gt;Node6</title>
<path fill="none" stroke="midnightblue" d="M898.73,-162.6C935.34,-136.56 987.78,-90.21 956,-56 918.76,-15.91 546.02,-11.2 402.2,-10.89"/>
<polygon fill="midnightblue" stroke="midnightblue" points="896.51,-159.89 890.29,-168.46 900.5,-165.64 896.51,-159.89"/>
</g>
<!-- Node7 -->
<g id="node7" class="node">
<title>Node7</title>
<g id="a_node7"><a xlink:href="../../d6/d68/cell_8cpp.html" target="_top" xlink:title=" ">
<polygon fill="none" stroke="black" points="28,-56.5 28,-75.5 126,-75.5 126,-56.5 28,-56.5"/>
<text text-anchor="middle" x="77" y="-63.5" font-family="Helvetica,sans-Serif" font-size="10.00">psim/src/cell.cpp</text>
</a>
</g>
</g>
<!-- Node1&#45;&gt;Node7 -->
<g id="edge12" class="edge">
<title>Node1&#45;&gt;Node7</title>
<path fill="none" stroke="midnightblue" d="M777.54,-174.89C684.37,-166.52 535.11,-151.6 407,-132 300.5,-115.71 176.11,-89.14 114.93,-75.57"/>
<polygon fill="midnightblue" stroke="midnightblue" points="777.51,-178.4 787.78,-175.81 778.13,-171.43 777.51,-178.4"/>
</g>
<!-- Node8 -->
<g id="node8" class="node">
<title>Node8</title>
<g id="a_node8"><a xlink:href="../../d1/d3b/modelSimulator_8cpp.html" target="_top" xlink:title=" ">
<polygon fill="none" stroke="black" points="789,-56.5 789,-75.5 947,-75.5 947,-56.5 789,-56.5"/>
<text text-anchor="middle" x="868" y="-63.5" font-family="Helvetica,sans-Serif" font-size="10.00">psim/src/modelSimulator.cpp</text>
</a>
</g>
</g>
<!-- Node1&#45;&gt;Node8 -->
<g id="edge15" class="edge">
<title>Node1&#45;&gt;Node8</title>
<path fill="none" stroke="midnightblue" d="M868,-158.21C868,-132.41 868,-92.99 868,-75.67"/>
<polygon fill="midnightblue" stroke="midnightblue" points="864.5,-158.34 868,-168.34 871.5,-158.34 864.5,-158.34"/>
</g>
<!-- Node12 -->
<g id="node12" class="node">
<title>Node12</title>
<g id="a_node12"><a xlink:href="../../dc/d09/compositeSurface_8cpp.html" target="_top" xlink:title=" ">
<polygon fill="none" stroke="black" points="1002.5,-112.5 1002.5,-131.5 1171.5,-131.5 1171.5,-112.5 1002.5,-112.5"/>
<text text-anchor="middle" x="1087" y="-119.5" font-family="Helvetica,sans-Serif" font-size="10.00">psim/src/compositeSurface.cpp</text>
</a>
</g>
</g>
<!-- Node1&#45;&gt;Node12 -->
<g id="edge13" class="edge">
<title>Node1&#45;&gt;Node12</title>
<path fill="none" stroke="midnightblue" d="M929.28,-165.85C970.4,-154.68 1022.85,-140.43 1055.69,-131.51"/>
<polygon fill="midnightblue" stroke="midnightblue" points="928.36,-162.48 919.62,-168.47 930.19,-169.23 928.36,-162.48"/>
</g>
<!-- Node3 -->
<g id="node3" class="node">
<title>Node3</title>
<g id="a_node3"><a xlink:href="../../dc/d51/model_8h.html" target="_top" xlink:title=" ">
<polygon fill="none" stroke="black" points="144.5,-56.5 144.5,-75.5 293.5,-75.5 293.5,-56.5 144.5,-56.5"/>
<text text-anchor="middle" x="219" y="-63.5" font-family="Helvetica,sans-Serif" font-size="10.00">psim/include/psim/model.h</text>
</a>
</g>
</g>
<!-- Node2&#45;&gt;Node3 -->
<g id="edge2" class="edge">
<title>Node2&#45;&gt;Node3</title>
<path fill="none" stroke="midnightblue" d="M432.03,-110.41C381.95,-100.2 307.14,-84.96 260.79,-75.52"/>
<polygon fill="midnightblue" stroke="midnightblue" points="431.51,-113.88 442.01,-112.44 432.91,-107.02 431.51,-113.88"/>
</g>
<!-- Node2&#45;&gt;Node6 -->
<g id="edge7" class="edge">
<title>Node2&#45;&gt;Node6</title>
<path fill="none" stroke="midnightblue" d="M406.19,-114.78C380.98,-108.63 355.55,-97.14 340,-76 327.65,-59.2 336.15,-32.97 341.91,-19.55"/>
<polygon fill="midnightblue" stroke="midnightblue" points="405.67,-118.25 416.19,-116.96 407.16,-111.41 405.67,-118.25"/>
</g>
<!-- Node2&#45;&gt;Node7 -->
<g id="edge6" class="edge">
<title>Node2&#45;&gt;Node7</title>
<path fill="none" stroke="midnightblue" d="M406.2,-111.55C335.42,-102.81 228.1,-89.22 135,-76 132.07,-75.58 129.07,-75.15 126.03,-74.7"/>
<polygon fill="midnightblue" stroke="midnightblue" points="406.02,-115.05 416.37,-112.8 406.88,-108.11 406.02,-115.05"/>
</g>
<!-- Node2&#45;&gt;Node8 -->
<g id="edge8" class="edge">
<title>Node2&#45;&gt;Node8</title>
<path fill="none" stroke="midnightblue" d="M554.81,-111.04C627.34,-100.84 738.88,-85.16 807.44,-75.52"/>
<polygon fill="midnightblue" stroke="midnightblue" points="554.26,-107.59 544.85,-112.44 555.24,-114.52 554.26,-107.59"/>
</g>
<!-- Node9 -->
<g id="node9" class="node">
<title>Node9</title>
<g id="a_node9"><a xlink:href="../../d6/d7d/phonon_8cpp.html" target="_top" xlink:title=" ">
<polygon fill="none" stroke="black" points="349.5,-56.5 349.5,-75.5 466.5,-75.5 466.5,-56.5 349.5,-56.5"/>
<text text-anchor="middle" x="408" y="-63.5" font-family="Helvetica,sans-Serif" font-size="10.00">psim/src/phonon.cpp</text>
</a>
</g>
</g>
<!-- Node2&#45;&gt;Node9 -->
<g id="edge9" class="edge">
<title>Node2&#45;&gt;Node9</title>
<path fill="none" stroke="midnightblue" d="M463.42,-106.38C449.69,-96.62 432.07,-84.11 420.43,-75.83"/>
<polygon fill="midnightblue" stroke="midnightblue" points="461.61,-109.38 471.79,-112.32 465.66,-103.68 461.61,-109.38"/>
</g>
<!-- Node10 -->
<g id="node10" class="node">
<title>Node10</title>
<g id="a_node10"><a xlink:href="../../d5/d8a/phononBuilder_8cpp.html" target="_top" xlink:title=" ">
<polygon fill="none" stroke="black" points="484.5,-56.5 484.5,-75.5 635.5,-75.5 635.5,-56.5 484.5,-56.5"/>
<text text-anchor="middle" x="560" y="-63.5" font-family="Helvetica,sans-Serif" font-size="10.00">psim/src/phononBuilder.cpp</text>
</a>
</g>
</g>
<!-- Node2&#45;&gt;Node10 -->
<g id="edge10" class="edge">
<title>Node2&#45;&gt;Node10</title>
<path fill="none" stroke="midnightblue" d="M504.58,-106.38C518.31,-96.62 535.93,-84.11 547.57,-75.83"/>
<polygon fill="midnightblue" stroke="midnightblue" points="502.34,-103.68 496.21,-112.32 506.39,-109.38 502.34,-103.68"/>
</g>
<!-- Node11 -->
<g id="node11" class="node">
<title>Node11</title>
<g id="a_node11"><a xlink:href="../../d7/d13/surface_8cpp.html" target="_top" xlink:title=" ">
<polygon fill="none" stroke="black" points="653.5,-56.5 653.5,-75.5 770.5,-75.5 770.5,-56.5 653.5,-56.5"/>
<text text-anchor="middle" x="712" y="-63.5" font-family="Helvetica,sans-Serif" font-size="10.00">psim/src/surface.cpp</text>
</a>
</g>
</g>
<!-- Node2&#45;&gt;Node11 -->
<g id="edge11" class="edge">
<title>Node2&#45;&gt;Node11</title>
<path fill="none" stroke="midnightblue" d="M530.07,-110.09C573.15,-99.89 636.59,-84.86 676.04,-75.52"/>
<polygon fill="midnightblue" stroke="midnightblue" points="529.05,-106.73 520.13,-112.44 530.66,-113.54 529.05,-106.73"/>
</g>
<!-- Node4 -->
<g id="node4" class="node">
<title>Node4</title>
<g id="a_node4"><a xlink:href="../../d4/d02/inputManager_8cpp.html" target="_top" xlink:title=" ">
<polygon fill="none" stroke="black" points="0,-0.5 0,-19.5 148,-19.5 148,-0.5 0,-0.5"/>
<text text-anchor="middle" x="74" y="-7.5" font-family="Helvetica,sans-Serif" font-size="10.00">psim/src/inputManager.cpp</text>
</a>
</g>
</g>
<!-- Node3&#45;&gt;Node4 -->
<g id="edge3" class="edge">
<title>Node3&#45;&gt;Node4</title>
<path fill="none" stroke="midnightblue" d="M186.52,-52.91C159.26,-42.75 121.01,-28.51 96.87,-19.52"/>
<polygon fill="midnightblue" stroke="midnightblue" points="185.43,-56.23 196.02,-56.44 187.87,-49.67 185.43,-56.23"/>
</g>
<!-- Node5 -->
<g id="node5" class="node">
<title>Node5</title>
<g id="a_node5"><a xlink:href="../../df/d0a/main_8cpp.html" target="_top" xlink:title=" ">
<polygon fill="none" stroke="black" points="166,-0.5 166,-19.5 272,-19.5 272,-0.5 166,-0.5"/>
<text text-anchor="middle" x="219" y="-7.5" font-family="Helvetica,sans-Serif" font-size="10.00">psim/src/main.cpp</text>
</a>
</g>
</g>
<!-- Node3&#45;&gt;Node5 -->
<g id="edge4" class="edge">
<title>Node3&#45;&gt;Node5</title>
<path fill="none" stroke="midnightblue" d="M219,-45.8C219,-36.91 219,-26.78 219,-19.75"/>
<polygon fill="midnightblue" stroke="midnightblue" points="215.5,-46.08 219,-56.08 222.5,-46.08 215.5,-46.08"/>
</g>
<!-- Node3&#45;&gt;Node6 -->
<g id="edge5" class="edge">
<title>Node3&#45;&gt;Node6</title>
<path fill="none" stroke="midnightblue" d="M248.39,-52.5C272.2,-42.38 305.11,-28.39 325.97,-19.52"/>
<polygon fill="midnightblue" stroke="midnightblue" points="246.96,-49.31 239.12,-56.44 249.7,-55.75 246.96,-49.31"/>
</g>
</g>
</svg>
