<?xml version="1.0" encoding="UTF-8" standalone="no"?>
<!DOCTYPE svg PUBLIC "-//W3C//DTD SVG 1.1//EN"
 "http://www.w3.org/Graphics/SVG/1.1/DTD/svg11.dtd">
<!-- Generated by graphviz version 2.43.0 (0)
 -->
<!-- Title: EmitSurface Pages: 1 -->
<svg width="186pt" height="162pt"
 viewBox="0.00 0.00 185.50 162.00" xmlns="http://www.w3.org/2000/svg" xmlns:xlink="http://www.w3.org/1999/xlink">
<g id="graph0" class="graph" transform="scale(1 1) rotate(0) translate(4 158)">
<title>EmitSurface</title>
<!-- Node1 -->
<g id="node1" class="node">
<title>Node1</title>
<g id="a_node1"><a xlink:title=" ">
<polygon fill="#bfbfbf" stroke="black" points="79.5,-0.5 79.5,-19.5 155.5,-19.5 155.5,-0.5 79.5,-0.5"/>
<text text-anchor="middle" x="117.5" y="-7.5" font-family="Helvetica,sans-Serif" font-size="10.00">EmitSurface</text>
</a>
</g>
</g>
<!-- Node2 -->
<g id="node2" class="node">
<title>Node2</title>
<g id="a_node2"><a xlink:href="../../de/d10/classSurface.html" target="_top" xlink:title=" ">
<polygon fill="none" stroke="black" points="37,-67.5 37,-86.5 90,-86.5 90,-67.5 37,-67.5"/>
<text text-anchor="middle" x="63.5" y="-74.5" font-family="Helvetica,sans-Serif" font-size="10.00">Surface</text>
</a>
</g>
</g>
<!-- Node2&#45;&gt;Node1 -->
<g id="edge1" class="edge">
<title>Node2&#45;&gt;Node1</title>
<path fill="none" stroke="midnightblue" d="M77.4,-59.27C87.93,-46.6 101.96,-29.7 110.33,-19.63"/>
<polygon fill="midnightblue" stroke="midnightblue" points="74.48,-57.31 70.78,-67.23 79.87,-61.78 74.48,-57.31"/>
</g>
<!-- Node3 -->
<g id="node3" class="node">
<title>Node3</title>
<g id="a_node3"><a xlink:href="../../de/dfd/classCell.html" target="_top" xlink:title=" ">
<polygon fill="none" stroke="black" points="0,-134.5 0,-153.5 35,-153.5 35,-134.5 0,-134.5"/>
<text text-anchor="middle" x="17.5" y="-141.5" font-family="Helvetica,sans-Serif" font-size="10.00">Cell</text>
</a>
</g>
</g>
<!-- Node3&#45;&gt;Node2 -->
<g id="edge2" class="edge">
<title>Node3&#45;&gt;Node2</title>
<path fill="none" stroke="#9a32cd" stroke-dasharray="5,2" d="M29.6,-125.9C38.54,-113.27 50.33,-96.6 57.39,-86.63"/>
<polygon fill="#9a32cd" stroke="#9a32cd" points="26.62,-124.05 23.7,-134.23 32.34,-128.09 26.62,-124.05"/>
<text text-anchor="middle" x="56.5" y="-108" font-family="Helvetica,sans-Serif" font-size="10.00"> cell_</text>
</g>
<!-- Node4 -->
<g id="node4" class="node">
<title>Node4</title>
<g id="a_node4"><a xlink:href="../../dc/d33/structGeometry_1_1Vector2D.html" target="_top" xlink:title=" ">
<polygon fill="none" stroke="black" points="53,-134.5 53,-153.5 168,-153.5 168,-134.5 53,-134.5"/>
<text text-anchor="middle" x="110.5" y="-141.5" font-family="Helvetica,sans-Serif" font-size="10.00">Geometry::Vector2D</text>
</a>
</g>
</g>
<!-- Node4&#45;&gt;Node2 -->
<g id="edge3" class="edge">
<title>Node4&#45;&gt;Node2</title>
<path fill="none" stroke="#9a32cd" stroke-dasharray="5,2" d="M98.14,-125.9C89.01,-113.27 76.95,-96.6 69.74,-86.63"/>
<polygon fill="#9a32cd" stroke="#9a32cd" points="95.47,-128.18 104.16,-134.23 101.14,-124.08 95.47,-128.18"/>
<text text-anchor="middle" x="112" y="-108" font-family="Helvetica,sans-Serif" font-size="10.00"> normal_</text>
</g>
<!-- Node5 -->
<g id="node5" class="node">
<title>Node5</title>
<g id="a_node5"><a xlink:href="../../d3/d89/classMaterial.html" target="_top" xlink:title=" ">
<polygon fill="none" stroke="black" points="108,-67.5 108,-86.5 165,-86.5 165,-67.5 108,-67.5"/>
<text text-anchor="middle" x="136.5" y="-74.5" font-family="Helvetica,sans-Serif" font-size="10.00">Material</text>
</a>
</g>
</g>
<!-- Node5&#45;&gt;Node1 -->
<g id="edge4" class="edge">
<title>Node5&#45;&gt;Node1</title>
<path fill="none" stroke="#9a32cd" stroke-dasharray="5,2" d="M131.07,-57.41C127.44,-44.99 122.82,-29.22 120.02,-19.63"/>
<polygon fill="#9a32cd" stroke="#9a32cd" points="127.77,-58.62 133.94,-67.23 134.49,-56.65 127.77,-58.62"/>
<text text-anchor="middle" x="152.5" y="-41" font-family="Helvetica,sans-Serif" font-size="10.00"> material_</text>
</g>
</g>
</svg>
