<?xml version="1.0" encoding="UTF-8" standalone="no"?>
<!DOCTYPE svg PUBLIC "-//W3C//DTD SVG 1.1//EN"
 "http://www.w3.org/Graphics/SVG/1.1/DTD/svg11.dtd">
<!-- Generated by graphviz version 2.43.0 (0)
 -->
<!-- Title: psim/src/sensor.cpp Pages: 1 -->
<svg width="805pt" height="308pt"
 viewBox="0.00 0.00 805.09 308.00" xmlns="http://www.w3.org/2000/svg" xmlns:xlink="http://www.w3.org/1999/xlink">
<g id="graph0" class="graph" transform="scale(1 1) rotate(0) translate(4 304)">
<title>psim/src/sensor.cpp</title>
<!-- Node1 -->
<g id="node1" class="node">
<title>Node1</title>
<g id="a_node1"><a xlink:title=" ">
<polygon fill="#bfbfbf" stroke="black" points="431.59,-280.5 431.59,-299.5 544.59,-299.5 544.59,-280.5 431.59,-280.5"/>
<text text-anchor="middle" x="488.09" y="-287.5" font-family="Helvetica,sans-Serif" font-size="10.00">psim/src/sensor.cpp</text>
</a>
</g>
</g>
<!-- Node2 -->
<g id="node2" class="node">
<title>Node2</title>
<g id="a_node2"><a xlink:href="../../d5/d2e/sensor_8h.html" target="_top" xlink:title=" ">
<polygon fill="none" stroke="black" points="207.09,-224.5 207.09,-243.5 291.09,-243.5 291.09,-224.5 207.09,-224.5"/>
<text text-anchor="middle" x="249.09" y="-231.5" font-family="Helvetica,sans-Serif" font-size="10.00">psim/sensor.h</text>
</a>
</g>
</g>
<!-- Node1&#45;&gt;Node2 -->
<g id="edge1" class="edge">
<title>Node1&#45;&gt;Node2</title>
<path fill="none" stroke="midnightblue" d="M450.22,-280.44C408.61,-271.04 341.72,-255.93 296.62,-245.74"/>
<polygon fill="midnightblue" stroke="midnightblue" points="297.31,-242.31 286.78,-243.52 295.77,-249.13 297.31,-242.31"/>
</g>
<!-- Node3 -->
<g id="node3" class="node">
<title>Node3</title>
<g id="a_node3"><a xlink:href="../../d3/d65/material_8h.html" target="_top" xlink:title=" ">
<polygon fill="none" stroke="black" points="336.59,-112.5 336.59,-131.5 403.59,-131.5 403.59,-112.5 336.59,-112.5"/>
<text text-anchor="middle" x="370.09" y="-119.5" font-family="Helvetica,sans-Serif" font-size="10.00">material.h</text>
</a>
</g>
</g>
<!-- Node1&#45;&gt;Node3 -->
<g id="edge21" class="edge">
<title>Node1&#45;&gt;Node3</title>
<path fill="none" stroke="midnightblue" d="M475.83,-280.4C464.53,-272.04 447.78,-258.5 436.09,-244 409.42,-210.91 387.98,-165.48 377.36,-140.77"/>
<polygon fill="midnightblue" stroke="midnightblue" points="380.58,-139.41 373.49,-131.55 374.13,-142.12 380.58,-139.41"/>
</g>
<!-- Node4 -->
<g id="node4" class="node">
<title>Node4</title>
<g id="a_node4"><a xlink:href="../../d3/d34/phonon_8h.html" target="_top" xlink:title=" ">
<polygon fill="none" stroke="black" points="360.09,-56.5 360.09,-75.5 422.09,-75.5 422.09,-56.5 360.09,-56.5"/>
<text text-anchor="middle" x="391.09" y="-63.5" font-family="Helvetica,sans-Serif" font-size="10.00">phonon.h</text>
</a>
</g>
</g>
<!-- Node1&#45;&gt;Node4 -->
<g id="edge22" class="edge">
<title>Node1&#45;&gt;Node4</title>
<path fill="none" stroke="midnightblue" d="M484.54,-280.48C473.86,-254.88 440.93,-176.4 412.09,-112 408.03,-102.94 403.37,-92.92 399.48,-84.64"/>
<polygon fill="midnightblue" stroke="midnightblue" points="402.64,-83.13 395.2,-75.59 396.31,-86.13 402.64,-83.13"/>
</g>
<!-- Node8 -->
<g id="node8" class="node">
<title>Node8</title>
<g id="a_node8"><a xlink:title=" ">
<polygon fill="none" stroke="#bfbfbf" points="437.59,-0.5 437.59,-19.5 482.59,-19.5 482.59,-0.5 437.59,-0.5"/>
<text text-anchor="middle" x="460.09" y="-7.5" font-family="Helvetica,sans-Serif" font-size="10.00">utility</text>
</a>
</g>
</g>
<!-- Node1&#45;&gt;Node8 -->
<g id="edge28" class="edge">
<title>Node1&#45;&gt;Node8</title>
<path fill="none" stroke="midnightblue" d="M488.09,-280.44C488.09,-261.94 488.09,-216.81 488.09,-179 488.09,-179 488.09,-179 488.09,-121 488.09,-87.79 475.96,-50.63 467.66,-29.12"/>
<polygon fill="midnightblue" stroke="midnightblue" points="470.84,-27.63 463.87,-19.65 464.34,-30.23 470.84,-27.63"/>
</g>
<!-- Node10 -->
<g id="node10" class="node">
<title>Node10</title>
<g id="a_node10"><a xlink:href="../../da/d16/sensorController_8h.html" target="_top" xlink:title=" ">
<polygon fill="none" stroke="black" points="22.59,-168.5 22.59,-187.5 127.59,-187.5 127.59,-168.5 22.59,-168.5"/>
<text text-anchor="middle" x="75.09" y="-175.5" font-family="Helvetica,sans-Serif" font-size="10.00">sensorController.h</text>
</a>
</g>
</g>
<!-- Node1&#45;&gt;Node10 -->
<g id="edge23" class="edge">
<title>Node1&#45;&gt;Node10</title>
<path fill="none" stroke="midnightblue" d="M431.47,-285.78C372.05,-281.12 276.56,-270.01 198.09,-244 160.24,-231.46 120.06,-208.06 96.29,-193.02"/>
<polygon fill="midnightblue" stroke="midnightblue" points="98.04,-189.99 87.74,-187.52 94.25,-195.88 98.04,-189.99"/>
</g>
<!-- Node13 -->
<g id="node13" class="node">
<title>Node13</title>
<g id="a_node13"><a xlink:title=" ">
<polygon fill="none" stroke="#bfbfbf" points="516.09,-224.5 516.09,-243.5 580.09,-243.5 580.09,-224.5 516.09,-224.5"/>
<text text-anchor="middle" x="548.09" y="-231.5" font-family="Helvetica,sans-Serif" font-size="10.00">algorithm</text>
</a>
</g>
</g>
<!-- Node1&#45;&gt;Node13 -->
<g id="edge24" class="edge">
<title>Node1&#45;&gt;Node13</title>
<path fill="none" stroke="midnightblue" d="M497.73,-280.32C506.6,-272.34 519.96,-260.31 530.7,-250.65"/>
<polygon fill="midnightblue" stroke="midnightblue" points="533.18,-253.13 538.27,-243.83 528.5,-247.92 533.18,-253.13"/>
</g>
<!-- Node14 -->
<g id="node14" class="node">
<title>Node14</title>
<g id="a_node14"><a xlink:title=" ">
<polygon fill="none" stroke="#bfbfbf" points="598.59,-224.5 598.59,-243.5 651.59,-243.5 651.59,-224.5 598.59,-224.5"/>
<text text-anchor="middle" x="625.09" y="-231.5" font-family="Helvetica,sans-Serif" font-size="10.00">iterator</text>
</a>
</g>
</g>
<!-- Node1&#45;&gt;Node14 -->
<g id="edge25" class="edge">
<title>Node1&#45;&gt;Node14</title>
<path fill="none" stroke="midnightblue" d="M509.8,-280.44C532.44,-271.52 568.16,-257.44 593.84,-247.32"/>
<polygon fill="midnightblue" stroke="midnightblue" points="595.46,-250.44 603.48,-243.52 592.9,-243.93 595.46,-250.44"/>
</g>
<!-- Node15 -->
<g id="node15" class="node">
<title>Node15</title>
<g id="a_node15"><a xlink:title=" ">
<polygon fill="none" stroke="#bfbfbf" points="669.59,-224.5 669.59,-243.5 734.59,-243.5 734.59,-224.5 669.59,-224.5"/>
<text text-anchor="middle" x="702.09" y="-231.5" font-family="Helvetica,sans-Serif" font-size="10.00">stdexcept</text>
</a>
</g>
</g>
<!-- Node1&#45;&gt;Node15 -->
<g id="edge26" class="edge">
<title>Node1&#45;&gt;Node15</title>
<path fill="none" stroke="midnightblue" d="M522,-280.44C559.26,-271.04 619.19,-255.92 659.57,-245.73"/>
<polygon fill="midnightblue" stroke="midnightblue" points="660.55,-249.09 669.39,-243.25 658.84,-242.3 660.55,-249.09"/>
</g>
<!-- Node16 -->
<g id="node16" class="node">
<title>Node16</title>
<g id="a_node16"><a xlink:title=" ">
<polygon fill="none" stroke="#bfbfbf" points="753.09,-224.5 753.09,-243.5 797.09,-243.5 797.09,-224.5 753.09,-224.5"/>
<text text-anchor="middle" x="775.09" y="-231.5" font-family="Helvetica,sans-Serif" font-size="10.00">string</text>
</a>
</g>
</g>
<!-- Node1&#45;&gt;Node16 -->
<g id="edge27" class="edge">
<title>Node1&#45;&gt;Node16</title>
<path fill="none" stroke="midnightblue" d="M544.63,-280.87C594.5,-273.28 669.3,-260.92 742.91,-244.08"/>
<polygon fill="midnightblue" stroke="midnightblue" points="743.86,-247.45 752.81,-241.78 742.28,-240.63 743.86,-247.45"/>
</g>
<!-- Node2&#45;&gt;Node3 -->
<g id="edge2" class="edge">
<title>Node2&#45;&gt;Node3</title>
<path fill="none" stroke="midnightblue" d="M286.87,-224.45C308.15,-217.82 333.67,-206.53 350.09,-188 361.46,-175.17 366.36,-155.99 368.48,-141.78"/>
<polygon fill="midnightblue" stroke="midnightblue" points="371.98,-142.01 369.65,-131.67 365.03,-141.21 371.98,-142.01"/>
</g>
<!-- Node5 -->
<g id="node5" class="node">
<title>Node5</title>
<g id="a_node5"><a xlink:title=" ">
<polygon fill="none" stroke="#bfbfbf" points="302.09,-0.5 302.09,-19.5 344.09,-19.5 344.09,-0.5 302.09,-0.5"/>
<text text-anchor="middle" x="323.09" y="-7.5" font-family="Helvetica,sans-Serif" font-size="10.00">array</text>
</a>
</g>
</g>
<!-- Node2&#45;&gt;Node5 -->
<g id="edge16" class="edge">
<title>Node2&#45;&gt;Node5</title>
<path fill="none" stroke="midnightblue" d="M272.03,-224.46C287.71,-217.3 307.34,-205.42 317.09,-188 324.65,-174.48 324.03,-72.56 323.42,-29.8"/>
<polygon fill="midnightblue" stroke="midnightblue" points="326.91,-29.58 323.26,-19.64 319.92,-29.69 326.91,-29.58"/>
</g>
<!-- Node6 -->
<g id="node6" class="node">
<title>Node6</title>
<g id="a_node6"><a xlink:title=" ">
<polygon fill="none" stroke="#bfbfbf" points="128.59,-0.5 128.59,-19.5 181.59,-19.5 181.59,-0.5 128.59,-0.5"/>
<text text-anchor="middle" x="155.09" y="-7.5" font-family="Helvetica,sans-Serif" font-size="10.00">cstddef</text>
</a>
</g>
</g>
<!-- Node2&#45;&gt;Node6 -->
<g id="edge17" class="edge">
<title>Node2&#45;&gt;Node6</title>
<path fill="none" stroke="midnightblue" d="M206.89,-231.19C145.76,-227.59 37.22,-217.16 13.09,-188 -36.9,-127.58 76.7,-54.11 129.71,-24.41"/>
<polygon fill="midnightblue" stroke="midnightblue" points="131.48,-27.43 138.56,-19.55 128.11,-21.3 131.48,-27.43"/>
</g>
<!-- Node9 -->
<g id="node9" class="node">
<title>Node9</title>
<g id="a_node9"><a xlink:title=" ">
<polygon fill="none" stroke="#bfbfbf" points="132.59,-56.5 132.59,-75.5 179.59,-75.5 179.59,-56.5 132.59,-56.5"/>
<text text-anchor="middle" x="156.09" y="-63.5" font-family="Helvetica,sans-Serif" font-size="10.00">vector</text>
</a>
</g>
</g>
<!-- Node2&#45;&gt;Node9 -->
<g id="edge20" class="edge">
<title>Node2&#45;&gt;Node9</title>
<path fill="none" stroke="midnightblue" d="M224.49,-224.43C207.84,-217.31 186.8,-205.49 175.09,-188 154.26,-156.9 153.09,-111.35 154.4,-85.94"/>
<polygon fill="midnightblue" stroke="midnightblue" points="157.9,-86.02 155.11,-75.8 150.92,-85.53 157.9,-86.02"/>
</g>
<!-- Node2&#45;&gt;Node10 -->
<g id="edge12" class="edge">
<title>Node2&#45;&gt;Node10</title>
<path fill="none" stroke="midnightblue" d="M221.52,-224.44C191.99,-215.28 144.97,-200.69 112.21,-190.52"/>
<polygon fill="midnightblue" stroke="midnightblue" points="113.12,-187.14 102.53,-187.52 111.04,-193.82 113.12,-187.14"/>
</g>
<!-- Node11 -->
<g id="node11" class="node">
<title>Node11</title>
<g id="a_node11"><a xlink:title=" ">
<polygon fill="none" stroke="#bfbfbf" points="184.09,-168.5 184.09,-187.5 242.09,-187.5 242.09,-168.5 184.09,-168.5"/>
<text text-anchor="middle" x="213.09" y="-175.5" font-family="Helvetica,sans-Serif" font-size="10.00">memory</text>
</a>
</g>
</g>
<!-- Node2&#45;&gt;Node11 -->
<g id="edge18" class="edge">
<title>Node2&#45;&gt;Node11</title>
<path fill="none" stroke="midnightblue" d="M243.14,-224.08C238.11,-216.53 230.75,-205.49 224.58,-196.23"/>
<polygon fill="midnightblue" stroke="midnightblue" points="227.38,-194.13 218.92,-187.75 221.56,-198.01 227.38,-194.13"/>
</g>
<!-- Node12 -->
<g id="node12" class="node">
<title>Node12</title>
<g id="a_node12"><a xlink:title=" ">
<polygon fill="none" stroke="#bfbfbf" points="260.09,-168.5 260.09,-187.5 308.09,-187.5 308.09,-168.5 260.09,-168.5"/>
<text text-anchor="middle" x="284.09" y="-175.5" font-family="Helvetica,sans-Serif" font-size="10.00">mutex</text>
</a>
</g>
</g>
<!-- Node2&#45;&gt;Node12 -->
<g id="edge19" class="edge">
<title>Node2&#45;&gt;Node12</title>
<path fill="none" stroke="midnightblue" d="M254.87,-224.08C259.76,-216.53 266.92,-205.49 272.92,-196.23"/>
<polygon fill="midnightblue" stroke="midnightblue" points="275.92,-198.05 278.42,-187.75 270.04,-194.24 275.92,-198.05"/>
</g>
<!-- Node3&#45;&gt;Node4 -->
<g id="edge3" class="edge">
<title>Node3&#45;&gt;Node4</title>
<path fill="none" stroke="midnightblue" d="M373.56,-112.08C376.4,-104.77 380.52,-94.18 384.05,-85.1"/>
<polygon fill="midnightblue" stroke="midnightblue" points="387.32,-86.34 387.69,-75.75 380.8,-83.8 387.32,-86.34"/>
</g>
<!-- Node3&#45;&gt;Node5 -->
<g id="edge8" class="edge">
<title>Node3&#45;&gt;Node5</title>
<path fill="none" stroke="midnightblue" d="M366.4,-112.37C358.75,-94.46 341,-52.92 330.76,-28.95"/>
<polygon fill="midnightblue" stroke="midnightblue" points="333.91,-27.41 326.76,-19.59 327.47,-30.16 333.91,-27.41"/>
</g>
<!-- Node3&#45;&gt;Node6 -->
<g id="edge9" class="edge">
<title>Node3&#45;&gt;Node6</title>
<path fill="none" stroke="midnightblue" d="M353.22,-112.37C315.78,-93.21 225.52,-47.04 180.92,-24.22"/>
<polygon fill="midnightblue" stroke="midnightblue" points="182.38,-21.03 171.88,-19.59 179.19,-27.26 182.38,-21.03"/>
</g>
<!-- Node3&#45;&gt;Node8 -->
<g id="edge10" class="edge">
<title>Node3&#45;&gt;Node8</title>
<path fill="none" stroke="midnightblue" d="M385.9,-112.47C399.4,-104.53 418.55,-91.59 431.09,-76 442.21,-62.17 449.98,-43.4 454.66,-29.59"/>
<polygon fill="midnightblue" stroke="midnightblue" points="458.09,-30.35 457.75,-19.76 451.41,-28.25 458.09,-30.35"/>
</g>
<!-- Node3&#45;&gt;Node9 -->
<g id="edge11" class="edge">
<title>Node3&#45;&gt;Node9</title>
<path fill="none" stroke="midnightblue" d="M336.18,-112.44C295.96,-102.29 229.34,-85.48 189.39,-75.4"/>
<polygon fill="midnightblue" stroke="midnightblue" points="190.15,-71.98 179.59,-72.93 188.43,-78.77 190.15,-71.98"/>
</g>
<!-- Node4&#45;&gt;Node5 -->
<g id="edge4" class="edge">
<title>Node4&#45;&gt;Node5</title>
<path fill="none" stroke="midnightblue" d="M380.16,-56.32C369.91,-48.18 354.37,-35.84 342.09,-26.09"/>
<polygon fill="midnightblue" stroke="midnightblue" points="344.22,-23.31 334.21,-19.83 339.87,-28.79 344.22,-23.31"/>
</g>
<!-- Node4&#45;&gt;Node6 -->
<g id="edge5" class="edge">
<title>Node4&#45;&gt;Node6</title>
<path fill="none" stroke="midnightblue" d="M359.75,-57.83C316.27,-47.88 237.8,-29.93 191.69,-19.37"/>
<polygon fill="midnightblue" stroke="midnightblue" points="192.34,-15.93 181.81,-17.11 190.78,-22.76 192.34,-15.93"/>
</g>
<!-- Node7 -->
<g id="node7" class="node">
<title>Node7</title>
<g id="a_node7"><a xlink:title=" ">
<polygon fill="none" stroke="#bfbfbf" points="362.59,-0.5 362.59,-19.5 419.59,-19.5 419.59,-0.5 362.59,-0.5"/>
<text text-anchor="middle" x="391.09" y="-7.5" font-family="Helvetica,sans-Serif" font-size="10.00">ostream</text>
</a>
</g>
</g>
<!-- Node4&#45;&gt;Node7 -->
<g id="edge6" class="edge">
<title>Node4&#45;&gt;Node7</title>
<path fill="none" stroke="midnightblue" d="M391.09,-56.08C391.09,-49.01 391.09,-38.86 391.09,-29.99"/>
<polygon fill="midnightblue" stroke="midnightblue" points="394.59,-29.75 391.09,-19.75 387.59,-29.75 394.59,-29.75"/>
</g>
<!-- Node4&#45;&gt;Node8 -->
<g id="edge7" class="edge">
<title>Node4&#45;&gt;Node8</title>
<path fill="none" stroke="midnightblue" d="M402.18,-56.32C412.58,-48.18 428.35,-35.84 440.81,-26.09"/>
<polygon fill="midnightblue" stroke="midnightblue" points="443.08,-28.75 448.8,-19.83 438.77,-23.24 443.08,-28.75"/>
</g>
<!-- Node10&#45;&gt;Node3 -->
<g id="edge13" class="edge">
<title>Node10&#45;&gt;Node3</title>
<path fill="none" stroke="midnightblue" d="M121.83,-168.44C178,-158.16 271.51,-141.05 326.32,-131.01"/>
<polygon fill="midnightblue" stroke="midnightblue" points="327.2,-134.41 336.41,-129.16 325.94,-127.52 327.2,-134.41"/>
</g>
<!-- Node10&#45;&gt;Node6 -->
<g id="edge14" class="edge">
<title>Node10&#45;&gt;Node6</title>
<path fill="none" stroke="midnightblue" d="M77.69,-168.47C84.01,-148.26 101.29,-96.11 123.09,-56 128.47,-46.1 135.65,-35.81 141.85,-27.57"/>
<polygon fill="midnightblue" stroke="midnightblue" points="144.7,-29.6 148.05,-19.55 139.17,-25.32 144.7,-29.6"/>
</g>
<!-- Node10&#45;&gt;Node9 -->
<g id="edge15" class="edge">
<title>Node10&#45;&gt;Node9</title>
<path fill="none" stroke="midnightblue" d="M81.45,-168.37C94.87,-150.14 126.32,-107.43 143.81,-83.68"/>
<polygon fill="midnightblue" stroke="midnightblue" points="146.65,-85.72 149.76,-75.59 141.02,-81.57 146.65,-85.72"/>
</g>
</g>
</svg>
