<?xml version="1.0" encoding="UTF-8" standalone="no"?>
<!DOCTYPE svg PUBLIC "-//W3C//DTD SVG 1.1//EN"
 "http://www.w3.org/Graphics/SVG/1.1/DTD/svg11.dtd">
<!-- Generated by graphviz version 2.43.0 (0)
 -->
<!-- Title: psim/src/material.cpp Pages: 1 -->
<svg width="774pt" height="196pt"
 viewBox="0.00 0.00 774.00 196.00" xmlns="http://www.w3.org/2000/svg" xmlns:xlink="http://www.w3.org/1999/xlink">
<g id="graph0" class="graph" transform="scale(1 1) rotate(0) translate(4 192)">
<title>psim/src/material.cpp</title>
<!-- Node1 -->
<g id="node1" class="node">
<title>Node1</title>
<g id="a_node1"><a xlink:title=" ">
<polygon fill="#bfbfbf" stroke="black" points="379,-168.5 379,-187.5 501,-187.5 501,-168.5 379,-168.5"/>
<text text-anchor="middle" x="440" y="-175.5" font-family="Helvetica,sans-Serif" font-size="10.00">psim/src/material.cpp</text>
</a>
</g>
</g>
<!-- Node2 -->
<g id="node2" class="node">
<title>Node2</title>
<g id="a_node2"><a xlink:href="../../d3/d65/material_8h.html" target="_top" xlink:title=" ">
<polygon fill="none" stroke="black" points="218,-112.5 218,-131.5 312,-131.5 312,-112.5 218,-112.5"/>
<text text-anchor="middle" x="265" y="-119.5" font-family="Helvetica,sans-Serif" font-size="10.00">psim/material.h</text>
</a>
</g>
</g>
<!-- Node1&#45;&gt;Node2 -->
<g id="edge1" class="edge">
<title>Node1&#45;&gt;Node2</title>
<path fill="none" stroke="midnightblue" d="M412.27,-168.44C382.57,-159.28 335.28,-144.69 302.33,-134.52"/>
<polygon fill="midnightblue" stroke="midnightblue" points="303.19,-131.12 292.6,-131.52 301.12,-137.81 303.19,-131.12"/>
</g>
<!-- Node3 -->
<g id="node3" class="node">
<title>Node3</title>
<g id="a_node3"><a xlink:href="../../d3/d34/phonon_8h.html" target="_top" xlink:title=" ">
<polygon fill="none" stroke="black" points="148,-56.5 148,-75.5 210,-75.5 210,-56.5 148,-56.5"/>
<text text-anchor="middle" x="179" y="-63.5" font-family="Helvetica,sans-Serif" font-size="10.00">phonon.h</text>
</a>
</g>
</g>
<!-- Node1&#45;&gt;Node3 -->
<g id="edge11" class="edge">
<title>Node1&#45;&gt;Node3</title>
<path fill="none" stroke="midnightblue" d="M378.87,-171.4C319.57,-164.87 234.87,-152.31 209,-132 194.51,-120.63 186.74,-100.63 182.77,-85.82"/>
<polygon fill="midnightblue" stroke="midnightblue" points="186.1,-84.67 180.42,-75.72 179.28,-86.25 186.1,-84.67"/>
</g>
<!-- Node7 -->
<g id="node7" class="node">
<title>Node7</title>
<g id="a_node7"><a xlink:title=" ">
<polygon fill="none" stroke="#bfbfbf" points="282.5,-0.5 282.5,-19.5 327.5,-19.5 327.5,-0.5 282.5,-0.5"/>
<text text-anchor="middle" x="305" y="-7.5" font-family="Helvetica,sans-Serif" font-size="10.00">utility</text>
</a>
</g>
</g>
<!-- Node1&#45;&gt;Node7 -->
<g id="edge20" class="edge">
<title>Node1&#45;&gt;Node7</title>
<path fill="none" stroke="midnightblue" d="M430.73,-168.32C421.85,-159.68 408.45,-145.77 399,-132 377.64,-100.86 384.71,-85.39 361,-56 351.48,-44.2 338.39,-33.47 327.25,-25.44"/>
<polygon fill="midnightblue" stroke="midnightblue" points="329.06,-22.44 318.84,-19.62 325.07,-28.19 329.06,-22.44"/>
</g>
<!-- Node9 -->
<g id="node9" class="node">
<title>Node9</title>
<g id="a_node9"><a xlink:href="../../d5/d60/utils_8h.html" target="_top" xlink:title=" ">
<polygon fill="none" stroke="black" points="45,-112.5 45,-131.5 119,-131.5 119,-112.5 45,-112.5"/>
<text text-anchor="middle" x="82" y="-119.5" font-family="Helvetica,sans-Serif" font-size="10.00">psim/utils.h</text>
</a>
</g>
</g>
<!-- Node1&#45;&gt;Node9 -->
<g id="edge12" class="edge">
<title>Node1&#45;&gt;Node9</title>
<path fill="none" stroke="midnightblue" d="M383.27,-168.44C313,-157.84 194.56,-139.98 129.08,-130.1"/>
<polygon fill="midnightblue" stroke="midnightblue" points="129.45,-126.62 119.04,-128.59 128.4,-133.54 129.45,-126.62"/>
</g>
<!-- Node11 -->
<g id="node11" class="node">
<title>Node11</title>
<g id="a_node11"><a xlink:title=" ">
<polygon fill="none" stroke="#bfbfbf" points="408,-112.5 408,-131.5 472,-131.5 472,-112.5 408,-112.5"/>
<text text-anchor="middle" x="440" y="-119.5" font-family="Helvetica,sans-Serif" font-size="10.00">algorithm</text>
</a>
</g>
</g>
<!-- Node1&#45;&gt;Node11 -->
<g id="edge15" class="edge">
<title>Node1&#45;&gt;Node11</title>
<path fill="none" stroke="midnightblue" d="M440,-168.08C440,-161.01 440,-150.86 440,-141.99"/>
<polygon fill="midnightblue" stroke="midnightblue" points="443.5,-141.75 440,-131.75 436.5,-141.75 443.5,-141.75"/>
</g>
<!-- Node12 -->
<g id="node12" class="node">
<title>Node12</title>
<g id="a_node12"><a xlink:title=" ">
<polygon fill="none" stroke="#bfbfbf" points="490.5,-112.5 490.5,-131.5 537.5,-131.5 537.5,-112.5 490.5,-112.5"/>
<text text-anchor="middle" x="514" y="-119.5" font-family="Helvetica,sans-Serif" font-size="10.00">cmath</text>
</a>
</g>
</g>
<!-- Node1&#45;&gt;Node12 -->
<g id="edge16" class="edge">
<title>Node1&#45;&gt;Node12</title>
<path fill="none" stroke="midnightblue" d="M451.89,-168.32C463.15,-160.11 480.29,-147.6 493.71,-137.81"/>
<polygon fill="midnightblue" stroke="midnightblue" points="495.88,-140.56 501.89,-131.83 491.75,-134.9 495.88,-140.56"/>
</g>
<!-- Node13 -->
<g id="node13" class="node">
<title>Node13</title>
<g id="a_node13"><a xlink:title=" ">
<polygon fill="none" stroke="#bfbfbf" points="555.5,-112.5 555.5,-131.5 620.5,-131.5 620.5,-112.5 555.5,-112.5"/>
<text text-anchor="middle" x="588" y="-119.5" font-family="Helvetica,sans-Serif" font-size="10.00">functional</text>
</a>
</g>
</g>
<!-- Node1&#45;&gt;Node13 -->
<g id="edge17" class="edge">
<title>Node1&#45;&gt;Node13</title>
<path fill="none" stroke="midnightblue" d="M463.45,-168.44C488.13,-159.44 527.19,-145.19 554.98,-135.05"/>
<polygon fill="midnightblue" stroke="midnightblue" points="556.46,-138.23 564.66,-131.52 554.06,-131.66 556.46,-138.23"/>
</g>
<!-- Node14 -->
<g id="node14" class="node">
<title>Node14</title>
<g id="a_node14"><a xlink:title=" ">
<polygon fill="none" stroke="#bfbfbf" points="638.5,-112.5 638.5,-131.5 691.5,-131.5 691.5,-112.5 638.5,-112.5"/>
<text text-anchor="middle" x="665" y="-119.5" font-family="Helvetica,sans-Serif" font-size="10.00">iterator</text>
</a>
</g>
</g>
<!-- Node1&#45;&gt;Node14 -->
<g id="edge18" class="edge">
<title>Node1&#45;&gt;Node14</title>
<path fill="none" stroke="midnightblue" d="M476.83,-168.5C513.12,-160.07 570.41,-146.64 628.55,-132.33"/>
<polygon fill="midnightblue" stroke="midnightblue" points="629.39,-135.73 638.26,-129.93 627.71,-128.93 629.39,-135.73"/>
</g>
<!-- Node15 -->
<g id="node15" class="node">
<title>Node15</title>
<g id="a_node15"><a xlink:title=" ">
<polygon fill="none" stroke="#bfbfbf" points="710,-112.5 710,-131.5 766,-131.5 766,-112.5 710,-112.5"/>
<text text-anchor="middle" x="738" y="-119.5" font-family="Helvetica,sans-Serif" font-size="10.00">numeric</text>
</a>
</g>
</g>
<!-- Node1&#45;&gt;Node15 -->
<g id="edge19" class="edge">
<title>Node1&#45;&gt;Node15</title>
<path fill="none" stroke="midnightblue" d="M495.96,-168.48C546.67,-160.5 623.69,-147.76 699.55,-132.19"/>
<polygon fill="midnightblue" stroke="midnightblue" points="700.68,-135.53 709.76,-130.08 699.26,-128.68 700.68,-135.53"/>
</g>
<!-- Node2&#45;&gt;Node3 -->
<g id="edge2" class="edge">
<title>Node2&#45;&gt;Node3</title>
<path fill="none" stroke="midnightblue" d="M251.18,-112.32C237.77,-103.9 217.18,-90.97 201.41,-81.07"/>
<polygon fill="midnightblue" stroke="midnightblue" points="203.11,-78.01 192.78,-75.65 199.39,-83.94 203.11,-78.01"/>
</g>
<!-- Node4 -->
<g id="node4" class="node">
<title>Node4</title>
<g id="a_node4"><a xlink:title=" ">
<polygon fill="none" stroke="#bfbfbf" points="76,-0.5 76,-19.5 118,-19.5 118,-0.5 76,-0.5"/>
<text text-anchor="middle" x="97" y="-7.5" font-family="Helvetica,sans-Serif" font-size="10.00">array</text>
</a>
</g>
</g>
<!-- Node2&#45;&gt;Node4 -->
<g id="edge7" class="edge">
<title>Node2&#45;&gt;Node4</title>
<path fill="none" stroke="midnightblue" d="M219.78,-112.43C194.05,-105.8 162.39,-94.54 139,-76 123.41,-63.65 111.8,-43.84 104.79,-29.33"/>
<polygon fill="midnightblue" stroke="midnightblue" points="107.82,-27.55 100.5,-19.89 101.45,-30.44 107.82,-27.55"/>
</g>
<!-- Node5 -->
<g id="node5" class="node">
<title>Node5</title>
<g id="a_node5"><a xlink:title=" ">
<polygon fill="none" stroke="#bfbfbf" points="211.5,-0.5 211.5,-19.5 264.5,-19.5 264.5,-0.5 211.5,-0.5"/>
<text text-anchor="middle" x="238" y="-7.5" font-family="Helvetica,sans-Serif" font-size="10.00">cstddef</text>
</a>
</g>
</g>
<!-- Node2&#45;&gt;Node5 -->
<g id="edge8" class="edge">
<title>Node2&#45;&gt;Node5</title>
<path fill="none" stroke="midnightblue" d="M262.88,-112.37C258.52,-94.62 248.47,-53.67 242.56,-29.6"/>
<polygon fill="midnightblue" stroke="midnightblue" points="245.89,-28.47 240.11,-19.59 239.09,-30.14 245.89,-28.47"/>
</g>
<!-- Node2&#45;&gt;Node7 -->
<g id="edge9" class="edge">
<title>Node2&#45;&gt;Node7</title>
<path fill="none" stroke="midnightblue" d="M268.14,-112.37C274.62,-94.54 289.62,-53.3 298.36,-29.27"/>
<polygon fill="midnightblue" stroke="midnightblue" points="301.75,-30.19 301.88,-19.59 295.17,-27.79 301.75,-30.19"/>
</g>
<!-- Node8 -->
<g id="node8" class="node">
<title>Node8</title>
<g id="a_node8"><a xlink:title=" ">
<polygon fill="none" stroke="#bfbfbf" points="304.5,-56.5 304.5,-75.5 351.5,-75.5 351.5,-56.5 304.5,-56.5"/>
<text text-anchor="middle" x="328" y="-63.5" font-family="Helvetica,sans-Serif" font-size="10.00">vector</text>
</a>
</g>
</g>
<!-- Node2&#45;&gt;Node8 -->
<g id="edge10" class="edge">
<title>Node2&#45;&gt;Node8</title>
<path fill="none" stroke="midnightblue" d="M275.12,-112.32C284.53,-104.26 298.74,-92.08 310.07,-82.37"/>
<polygon fill="midnightblue" stroke="midnightblue" points="312.38,-85 317.69,-75.83 307.82,-79.68 312.38,-85"/>
</g>
<!-- Node3&#45;&gt;Node4 -->
<g id="edge3" class="edge">
<title>Node3&#45;&gt;Node4</title>
<path fill="none" stroke="midnightblue" d="M165.83,-56.32C153.15,-47.98 133.77,-35.21 118.79,-25.35"/>
<polygon fill="midnightblue" stroke="midnightblue" points="120.42,-22.23 110.14,-19.65 116.57,-28.08 120.42,-22.23"/>
</g>
<!-- Node3&#45;&gt;Node5 -->
<g id="edge4" class="edge">
<title>Node3&#45;&gt;Node5</title>
<path fill="none" stroke="midnightblue" d="M188.48,-56.32C197.2,-48.34 210.34,-36.31 220.9,-26.65"/>
<polygon fill="midnightblue" stroke="midnightblue" points="223.33,-29.17 228.35,-19.83 218.61,-24 223.33,-29.17"/>
</g>
<!-- Node6 -->
<g id="node6" class="node">
<title>Node6</title>
<g id="a_node6"><a xlink:title=" ">
<polygon fill="none" stroke="#bfbfbf" points="136.5,-0.5 136.5,-19.5 193.5,-19.5 193.5,-0.5 136.5,-0.5"/>
<text text-anchor="middle" x="165" y="-7.5" font-family="Helvetica,sans-Serif" font-size="10.00">ostream</text>
</a>
</g>
</g>
<!-- Node3&#45;&gt;Node6 -->
<g id="edge5" class="edge">
<title>Node3&#45;&gt;Node6</title>
<path fill="none" stroke="midnightblue" d="M176.69,-56.08C174.83,-48.93 172.16,-38.64 169.85,-29.69"/>
<polygon fill="midnightblue" stroke="midnightblue" points="173.17,-28.55 167.27,-19.75 166.39,-30.31 173.17,-28.55"/>
</g>
<!-- Node3&#45;&gt;Node7 -->
<g id="edge6" class="edge">
<title>Node3&#45;&gt;Node7</title>
<path fill="none" stroke="midnightblue" d="M198.97,-56.44C219.61,-47.6 252.06,-33.69 275.63,-23.59"/>
<polygon fill="midnightblue" stroke="midnightblue" points="277.32,-26.67 285.13,-19.52 274.56,-20.24 277.32,-26.67"/>
</g>
<!-- Node9&#45;&gt;Node4 -->
<g id="edge13" class="edge">
<title>Node9&#45;&gt;Node4</title>
<path fill="none" stroke="midnightblue" d="M83.18,-112.37C85.6,-94.62 91.18,-53.67 94.46,-29.6"/>
<polygon fill="midnightblue" stroke="midnightblue" points="97.95,-29.97 95.83,-19.59 91.01,-29.03 97.95,-29.97"/>
</g>
<!-- Node10 -->
<g id="node10" class="node">
<title>Node10</title>
<g id="a_node10"><a xlink:title=" ">
<polygon fill="none" stroke="#bfbfbf" points="0,-56.5 0,-75.5 54,-75.5 54,-56.5 0,-56.5"/>
<text text-anchor="middle" x="27" y="-63.5" font-family="Helvetica,sans-Serif" font-size="10.00">random</text>
</a>
</g>
</g>
<!-- Node9&#45;&gt;Node10 -->
<g id="edge14" class="edge">
<title>Node9&#45;&gt;Node10</title>
<path fill="none" stroke="midnightblue" d="M72.92,-112.08C64.83,-104.14 52.8,-92.34 43.09,-82.8"/>
<polygon fill="midnightblue" stroke="midnightblue" points="45.5,-80.26 35.91,-75.75 40.6,-85.25 45.5,-80.26"/>
</g>
</g>
</svg>
