<?xml version="1.0" encoding="UTF-8" standalone="no"?>
<!DOCTYPE svg PUBLIC "-//W3C//DTD SVG 1.1//EN"
 "http://www.w3.org/Graphics/SVG/1.1/DTD/svg11.dtd">
<!-- Generated by graphviz version 2.43.0 (0)
 -->
<!-- Title: psim/src/modelSimulator.cpp Pages: 1 -->
<svg width="2229pt" height="364pt"
 viewBox="0.00 0.00 2228.50 364.00" xmlns="http://www.w3.org/2000/svg" xmlns:xlink="http://www.w3.org/1999/xlink">
<g id="graph0" class="graph" transform="scale(1 1) rotate(0) translate(4 360)">
<title>psim/src/modelSimulator.cpp</title>
<!-- Node1 -->
<g id="node1" class="node">
<title>Node1</title>
<g id="a_node1"><a xlink:title=" ">
<polygon fill="#bfbfbf" stroke="black" points="1367,-336.5 1367,-355.5 1525,-355.5 1525,-336.5 1367,-336.5"/>
<text text-anchor="middle" x="1446" y="-343.5" font-family="Helvetica,sans-Serif" font-size="10.00">psim/src/modelSimulator.cpp</text>
</a>
</g>
</g>
<!-- Node2 -->
<g id="node2" class="node">
<title>Node2</title>
<g id="a_node2"><a xlink:href="../../db/d26/modelSimulator_8h.html" target="_top" xlink:title=" ">
<polygon fill="none" stroke="black" points="172,-168.5 172,-187.5 302,-187.5 302,-168.5 172,-168.5"/>
<text text-anchor="middle" x="237" y="-175.5" font-family="Helvetica,sans-Serif" font-size="10.00">psim/modelSimulator.h</text>
</a>
</g>
</g>
<!-- Node1&#45;&gt;Node2 -->
<g id="edge1" class="edge">
<title>Node1&#45;&gt;Node2</title>
<path fill="none" stroke="midnightblue" d="M1366.68,-343.83C1117.08,-339.88 361.57,-325.86 316,-300 276.13,-277.38 252.92,-225.39 242.91,-197.5"/>
<polygon fill="midnightblue" stroke="midnightblue" points="246.14,-196.13 239.61,-187.79 239.51,-198.38 246.14,-196.13"/>
</g>
<!-- Node3 -->
<g id="node3" class="node">
<title>Node3</title>
<g id="a_node3"><a xlink:href="../../db/dd3/phononBuilder_8h.html" target="_top" xlink:title=" ">
<polygon fill="none" stroke="black" points="28.5,-112.5 28.5,-131.5 123.5,-131.5 123.5,-112.5 28.5,-112.5"/>
<text text-anchor="middle" x="76" y="-119.5" font-family="Helvetica,sans-Serif" font-size="10.00">phononBuilder.h</text>
</a>
</g>
</g>
<!-- Node1&#45;&gt;Node3 -->
<g id="edge62" class="edge">
<title>Node1&#45;&gt;Node3</title>
<path fill="none" stroke="midnightblue" d="M1366.77,-345.17C1115.01,-345.28 343.73,-342.15 240,-300 162.69,-268.59 106.4,-178.89 85.22,-140.63"/>
<polygon fill="midnightblue" stroke="midnightblue" points="88.22,-138.83 80.4,-131.69 82.06,-142.15 88.22,-138.83"/>
</g>
<!-- Node4 -->
<g id="node4" class="node">
<title>Node4</title>
<g id="a_node4"><a xlink:href="../../d3/d34/phonon_8h.html" target="_top" xlink:title=" ">
<polygon fill="none" stroke="black" points="439,-56.5 439,-75.5 501,-75.5 501,-56.5 439,-56.5"/>
<text text-anchor="middle" x="470" y="-63.5" font-family="Helvetica,sans-Serif" font-size="10.00">phonon.h</text>
</a>
</g>
</g>
<!-- Node1&#45;&gt;Node4 -->
<g id="edge61" class="edge">
<title>Node1&#45;&gt;Node4</title>
<path fill="none" stroke="midnightblue" d="M1366.95,-344.59C1194.93,-343.03 791.53,-335.56 660,-300 607.04,-285.68 589.72,-281.84 550,-244 502.86,-199.08 481.32,-121.22 473.58,-85.67"/>
<polygon fill="midnightblue" stroke="midnightblue" points="476.97,-84.8 471.53,-75.71 470.12,-86.21 476.97,-84.8"/>
</g>
<!-- Node5 -->
<g id="node5" class="node">
<title>Node5</title>
<g id="a_node5"><a xlink:title=" ">
<polygon fill="none" stroke="#bfbfbf" points="860,-0.5 860,-19.5 902,-19.5 902,-0.5 860,-0.5"/>
<text text-anchor="middle" x="881" y="-7.5" font-family="Helvetica,sans-Serif" font-size="10.00">array</text>
</a>
</g>
</g>
<!-- Node1&#45;&gt;Node5 -->
<g id="edge68" class="edge">
<title>Node1&#45;&gt;Node5</title>
<path fill="none" stroke="midnightblue" d="M1456.67,-336.43C1466.39,-328.08 1480.5,-314.56 1489,-300 1502.12,-277.54 1502.18,-269.73 1506,-244 1518.98,-156.55 1514.8,-104.68 1441,-56 1396.78,-26.83 1024.26,-14.76 912.54,-11.78"/>
<polygon fill="midnightblue" stroke="midnightblue" points="912.36,-8.27 902.27,-11.51 912.18,-15.27 912.36,-8.27"/>
</g>
<!-- Node6 -->
<g id="node6" class="node">
<title>Node6</title>
<g id="a_node6"><a xlink:title=" ">
<polygon fill="none" stroke="#bfbfbf" points="270.5,-0.5 270.5,-19.5 323.5,-19.5 323.5,-0.5 270.5,-0.5"/>
<text text-anchor="middle" x="297" y="-7.5" font-family="Helvetica,sans-Serif" font-size="10.00">cstddef</text>
</a>
</g>
</g>
<!-- Node1&#45;&gt;Node6 -->
<g id="edge70" class="edge">
<title>Node1&#45;&gt;Node6</title>
<path fill="none" stroke="midnightblue" d="M1366.64,-344.99C1129.1,-344.52 426.25,-339.7 201,-300 108.54,-283.7 0,-328.89 0,-235 0,-235 0,-235 0,-121 0,-75.53 37.98,-75.61 79,-56 138.39,-27.6 215.27,-17.07 260.06,-13.2"/>
<polygon fill="midnightblue" stroke="midnightblue" points="260.5,-16.68 270.19,-12.4 259.94,-9.7 260.5,-16.68"/>
</g>
<!-- Node8 -->
<g id="node8" class="node">
<title>Node8</title>
<g id="a_node8"><a xlink:title=" ">
<polygon fill="none" stroke="#bfbfbf" points="447.5,-0.5 447.5,-19.5 492.5,-19.5 492.5,-0.5 447.5,-0.5"/>
<text text-anchor="middle" x="470" y="-7.5" font-family="Helvetica,sans-Serif" font-size="10.00">utility</text>
</a>
</g>
</g>
<!-- Node1&#45;&gt;Node8 -->
<g id="edge79" class="edge">
<title>Node1&#45;&gt;Node8</title>
<path fill="none" stroke="midnightblue" d="M1366.9,-343.66C1169.44,-339.92 665.61,-327.76 595,-300 479.92,-254.77 462.27,-195.36 430,-76 427.68,-67.42 426.84,-64.31 430,-56 434.34,-44.6 443.03,-34.24 451.21,-26.34"/>
<polygon fill="midnightblue" stroke="midnightblue" points="453.64,-28.86 458.73,-19.57 448.96,-23.66 453.64,-28.86"/>
</g>
<!-- Node11 -->
<g id="node11" class="node">
<title>Node11</title>
<g id="a_node11"><a xlink:title=" ">
<polygon fill="none" stroke="#bfbfbf" points="141.5,-112.5 141.5,-131.5 192.5,-131.5 192.5,-112.5 141.5,-112.5"/>
<text text-anchor="middle" x="167" y="-119.5" font-family="Helvetica,sans-Serif" font-size="10.00">variant</text>
</a>
</g>
</g>
<!-- Node1&#45;&gt;Node11 -->
<g id="edge80" class="edge">
<title>Node1&#45;&gt;Node11</title>
<path fill="none" stroke="midnightblue" d="M1366.94,-345.02C1122.15,-344.65 387.25,-340.18 288,-300 218.86,-272 193.42,-256.11 163,-188 156.52,-173.48 158.36,-155.3 161.34,-141.86"/>
<polygon fill="midnightblue" stroke="midnightblue" points="164.81,-142.43 163.96,-131.87 158.04,-140.66 164.81,-142.43"/>
</g>
<!-- Node12 -->
<g id="node12" class="node">
<title>Node12</title>
<g id="a_node12"><a xlink:title=" ">
<polygon fill="none" stroke="#bfbfbf" points="557.5,-56.5 557.5,-75.5 604.5,-75.5 604.5,-56.5 557.5,-56.5"/>
<text text-anchor="middle" x="581" y="-63.5" font-family="Helvetica,sans-Serif" font-size="10.00">vector</text>
</a>
</g>
</g>
<!-- Node1&#45;&gt;Node12 -->
<g id="edge81" class="edge">
<title>Node1&#45;&gt;Node12</title>
<path fill="none" stroke="midnightblue" d="M1366.83,-343.79C1210.16,-340.75 865.88,-330.7 752,-300 644.15,-270.93 585.81,-282.97 527,-188 519.15,-175.33 519.85,-138.4 533,-112 538.99,-99.98 549.6,-89.51 559.32,-81.7"/>
<polygon fill="midnightblue" stroke="midnightblue" points="561.61,-84.36 567.5,-75.55 557.41,-78.76 561.61,-84.36"/>
</g>
<!-- Node13 -->
<g id="node13" class="node">
<title>Node13</title>
<g id="a_node13"><a xlink:href="../../d0/ddd/cell_8h.html" target="_top" xlink:title=" ">
<polygon fill="none" stroke="black" points="941,-280.5 941,-299.5 1011,-299.5 1011,-280.5 941,-280.5"/>
<text text-anchor="middle" x="976" y="-287.5" font-family="Helvetica,sans-Serif" font-size="10.00">psim/cell.h</text>
</a>
</g>
</g>
<!-- Node1&#45;&gt;Node13 -->
<g id="edge16" class="edge">
<title>Node1&#45;&gt;Node13</title>
<path fill="none" stroke="midnightblue" d="M1371.79,-336.47C1273.38,-325.17 1102.71,-305.56 1021.49,-296.23"/>
<polygon fill="midnightblue" stroke="midnightblue" points="1021.44,-292.7 1011.1,-295.03 1020.64,-299.65 1021.44,-292.7"/>
</g>
<!-- Node14 -->
<g id="node14" class="node">
<title>Node14</title>
<g id="a_node14"><a xlink:href="../../d8/d77/compositeSurface_8h.html" target="_top" xlink:title=" ">
<polygon fill="none" stroke="black" points="1251.5,-224.5 1251.5,-243.5 1364.5,-243.5 1364.5,-224.5 1251.5,-224.5"/>
<text text-anchor="middle" x="1308" y="-231.5" font-family="Helvetica,sans-Serif" font-size="10.00">compositeSurface.h</text>
</a>
</g>
</g>
<!-- Node1&#45;&gt;Node14 -->
<g id="edge58" class="edge">
<title>Node1&#45;&gt;Node14</title>
<path fill="none" stroke="midnightblue" d="M1435.17,-336.37C1411.69,-317.65 1355.86,-273.15 1326.61,-249.83"/>
<polygon fill="midnightblue" stroke="midnightblue" points="1328.78,-247.09 1318.78,-243.59 1324.42,-252.56 1328.78,-247.09"/>
</g>
<!-- Node15 -->
<g id="node15" class="node">
<title>Node15</title>
<g id="a_node15"><a xlink:href="../../d4/d67/geometry_8h.html" target="_top" xlink:title=" ">
<polygon fill="none" stroke="black" points="1374.5,-112.5 1374.5,-131.5 1445.5,-131.5 1445.5,-112.5 1374.5,-112.5"/>
<text text-anchor="middle" x="1410" y="-119.5" font-family="Helvetica,sans-Serif" font-size="10.00">geometry.h</text>
</a>
</g>
</g>
<!-- Node1&#45;&gt;Node15 -->
<g id="edge59" class="edge">
<title>Node1&#45;&gt;Node15</title>
<path fill="none" stroke="midnightblue" d="M1451.78,-336.26C1468.78,-309.36 1515.44,-226.11 1483,-168 1474.84,-153.39 1459.78,-142.94 1445.45,-135.8"/>
<polygon fill="midnightblue" stroke="midnightblue" points="1446.76,-132.56 1436.21,-131.59 1443.85,-138.92 1446.76,-132.56"/>
</g>
<!-- Node19 -->
<g id="node19" class="node">
<title>Node19</title>
<g id="a_node19"><a xlink:href="../../d2/d69/surface_8h.html" target="_top" xlink:title=" ">
<polygon fill="none" stroke="black" points="1412,-168.5 1412,-187.5 1474,-187.5 1474,-168.5 1412,-168.5"/>
<text text-anchor="middle" x="1443" y="-175.5" font-family="Helvetica,sans-Serif" font-size="10.00">surface.h</text>
</a>
</g>
</g>
<!-- Node1&#45;&gt;Node19 -->
<g id="edge63" class="edge">
<title>Node1&#45;&gt;Node19</title>
<path fill="none" stroke="midnightblue" d="M1445.84,-336.08C1445.37,-309.95 1443.98,-233.21 1443.34,-197.58"/>
<polygon fill="midnightblue" stroke="midnightblue" points="1446.84,-197.5 1443.15,-187.57 1439.84,-197.63 1446.84,-197.5"/>
</g>
<!-- Node20 -->
<g id="node20" class="node">
<title>Node20</title>
<g id="a_node20"><a xlink:href="../../d3/d65/material_8h.html" target="_top" xlink:title=" ">
<polygon fill="none" stroke="black" points="679.5,-112.5 679.5,-131.5 746.5,-131.5 746.5,-112.5 679.5,-112.5"/>
<text text-anchor="middle" x="713" y="-119.5" font-family="Helvetica,sans-Serif" font-size="10.00">material.h</text>
</a>
</g>
</g>
<!-- Node1&#45;&gt;Node20 -->
<g id="edge60" class="edge">
<title>Node1&#45;&gt;Node20</title>
<path fill="none" stroke="midnightblue" d="M1366.67,-342.15C1265.24,-337.57 1084.5,-326.26 932,-300 834.26,-283.17 777.66,-321.68 716,-244 692.68,-214.62 700.42,-167.38 707.25,-141.48"/>
<polygon fill="midnightblue" stroke="midnightblue" points="710.63,-142.37 710.02,-131.79 703.9,-140.44 710.63,-142.37"/>
</g>
<!-- Node24 -->
<g id="node24" class="node">
<title>Node24</title>
<g id="a_node24"><a xlink:title=" ">
<polygon fill="none" stroke="#bfbfbf" points="1042,-168.5 1042,-187.5 1100,-187.5 1100,-168.5 1042,-168.5"/>
<text text-anchor="middle" x="1071" y="-175.5" font-family="Helvetica,sans-Serif" font-size="10.00">memory</text>
</a>
</g>
</g>
<!-- Node1&#45;&gt;Node24 -->
<g id="edge73" class="edge">
<title>Node1&#45;&gt;Node24</title>
<path fill="none" stroke="midnightblue" d="M1426.63,-336.42C1365.03,-309.16 1173.44,-224.35 1100.03,-191.85"/>
<polygon fill="midnightblue" stroke="midnightblue" points="1101.04,-188.47 1090.48,-187.62 1098.21,-194.87 1101.04,-188.47"/>
</g>
<!-- Node26 -->
<g id="node26" class="node">
<title>Node26</title>
<g id="a_node26"><a xlink:href="../../d5/d60/utils_8h.html" target="_top" xlink:title=" ">
<polygon fill="none" stroke="black" points="1531,-280.5 1531,-299.5 1605,-299.5 1605,-280.5 1531,-280.5"/>
<text text-anchor="middle" x="1568" y="-287.5" font-family="Helvetica,sans-Serif" font-size="10.00">psim/utils.h</text>
</a>
</g>
</g>
<!-- Node1&#45;&gt;Node26 -->
<g id="edge64" class="edge">
<title>Node1&#45;&gt;Node26</title>
<path fill="none" stroke="midnightblue" d="M1465.33,-336.44C1485.32,-327.6 1516.74,-313.69 1539.56,-303.59"/>
<polygon fill="midnightblue" stroke="midnightblue" points="1541.03,-306.76 1548.76,-299.52 1538.2,-300.36 1541.03,-306.76"/>
</g>
<!-- Node27 -->
<g id="node27" class="node">
<title>Node27</title>
<g id="a_node27"><a xlink:title=" ">
<polygon fill="none" stroke="#bfbfbf" points="1606,-224.5 1606,-243.5 1660,-243.5 1660,-224.5 1606,-224.5"/>
<text text-anchor="middle" x="1633" y="-231.5" font-family="Helvetica,sans-Serif" font-size="10.00">random</text>
</a>
</g>
</g>
<!-- Node1&#45;&gt;Node27 -->
<g id="edge76" class="edge">
<title>Node1&#45;&gt;Node27</title>
<path fill="none" stroke="midnightblue" d="M1525.29,-340.29C1556.51,-334.58 1590.47,-323.01 1614,-300 1626.21,-288.07 1630.68,-268.76 1632.26,-254.29"/>
<polygon fill="midnightblue" stroke="midnightblue" points="1635.78,-254.17 1633.01,-243.94 1628.8,-253.67 1635.78,-254.17"/>
</g>
<!-- Node28 -->
<g id="node28" class="node">
<title>Node28</title>
<g id="a_node28"><a xlink:title=" ">
<polygon fill="none" stroke="#bfbfbf" points="1661,-280.5 1661,-299.5 1725,-299.5 1725,-280.5 1661,-280.5"/>
<text text-anchor="middle" x="1693" y="-287.5" font-family="Helvetica,sans-Serif" font-size="10.00">algorithm</text>
</a>
</g>
</g>
<!-- Node1&#45;&gt;Node28 -->
<g id="edge67" class="edge">
<title>Node1&#45;&gt;Node28</title>
<path fill="none" stroke="midnightblue" d="M1485.14,-336.44C1530.29,-326.57 1604.25,-310.4 1650.69,-300.25"/>
<polygon fill="midnightblue" stroke="midnightblue" points="1651.71,-303.61 1660.74,-298.05 1650.22,-296.77 1651.71,-303.61"/>
</g>
<!-- Node29 -->
<g id="node29" class="node">
<title>Node29</title>
<g id="a_node29"><a xlink:title=" ">
<polygon fill="none" stroke="#bfbfbf" points="1743.5,-280.5 1743.5,-299.5 1790.5,-299.5 1790.5,-280.5 1743.5,-280.5"/>
<text text-anchor="middle" x="1767" y="-287.5" font-family="Helvetica,sans-Serif" font-size="10.00">cmath</text>
</a>
</g>
</g>
<!-- Node1&#45;&gt;Node29 -->
<g id="edge69" class="edge">
<title>Node1&#45;&gt;Node29</title>
<path fill="none" stroke="midnightblue" d="M1514.47,-336.48C1570.79,-328.98 1652.81,-316.91 1733.46,-299.91"/>
<polygon fill="midnightblue" stroke="midnightblue" points="1734.24,-303.32 1743.28,-297.81 1732.77,-296.47 1734.24,-303.32"/>
</g>
<!-- Node30 -->
<g id="node30" class="node">
<title>Node30</title>
<g id="a_node30"><a xlink:title=" ">
<polygon fill="none" stroke="#bfbfbf" points="1809,-280.5 1809,-299.5 1873,-299.5 1873,-280.5 1809,-280.5"/>
<text text-anchor="middle" x="1841" y="-287.5" font-family="Helvetica,sans-Serif" font-size="10.00">execution</text>
</a>
</g>
</g>
<!-- Node1&#45;&gt;Node30 -->
<g id="edge71" class="edge">
<title>Node1&#45;&gt;Node30</title>
<path fill="none" stroke="midnightblue" d="M1525.04,-337.01C1594.66,-329.49 1699,-317.09 1798.86,-300.06"/>
<polygon fill="midnightblue" stroke="midnightblue" points="1799.56,-303.5 1808.82,-298.35 1798.38,-296.6 1799.56,-303.5"/>
</g>
<!-- Node31 -->
<g id="node31" class="node">
<title>Node31</title>
<g id="a_node31"><a xlink:title=" ">
<polygon fill="none" stroke="#bfbfbf" points="1891.5,-280.5 1891.5,-299.5 1944.5,-299.5 1944.5,-280.5 1891.5,-280.5"/>
<text text-anchor="middle" x="1918" y="-287.5" font-family="Helvetica,sans-Serif" font-size="10.00">iterator</text>
</a>
</g>
</g>
<!-- Node1&#45;&gt;Node31 -->
<g id="edge72" class="edge">
<title>Node1&#45;&gt;Node31</title>
<path fill="none" stroke="midnightblue" d="M1525.23,-340.22C1610.73,-334.29 1750.99,-322.35 1881.2,-299.89"/>
<polygon fill="midnightblue" stroke="midnightblue" points="1882.11,-303.28 1891.35,-298.11 1880.9,-296.39 1882.11,-303.28"/>
</g>
<!-- Node32 -->
<g id="node32" class="node">
<title>Node32</title>
<g id="a_node32"><a xlink:title=" ">
<polygon fill="none" stroke="#bfbfbf" points="1962.5,-280.5 1962.5,-299.5 1999.5,-299.5 1999.5,-280.5 1962.5,-280.5"/>
<text text-anchor="middle" x="1981" y="-287.5" font-family="Helvetica,sans-Serif" font-size="10.00">new</text>
</a>
</g>
</g>
<!-- Node1&#45;&gt;Node32 -->
<g id="edge74" class="edge">
<title>Node1&#45;&gt;Node32</title>
<path fill="none" stroke="midnightblue" d="M1525.15,-343.69C1623.64,-340.78 1796.83,-331.51 1952.07,-299.97"/>
<polygon fill="midnightblue" stroke="midnightblue" points="1953.19,-303.32 1962.27,-297.86 1951.77,-296.46 1953.19,-303.32"/>
</g>
<!-- Node33 -->
<g id="node33" class="node">
<title>Node33</title>
<g id="a_node33"><a xlink:title=" ">
<polygon fill="none" stroke="#bfbfbf" points="2018,-280.5 2018,-299.5 2074,-299.5 2074,-280.5 2018,-280.5"/>
<text text-anchor="middle" x="2046" y="-287.5" font-family="Helvetica,sans-Serif" font-size="10.00">numeric</text>
</a>
</g>
</g>
<!-- Node1&#45;&gt;Node33 -->
<g id="edge75" class="edge">
<title>Node1&#45;&gt;Node33</title>
<path fill="none" stroke="midnightblue" d="M1525.26,-342.63C1632.64,-338.54 1830.37,-327.88 2007.77,-299.95"/>
<polygon fill="midnightblue" stroke="midnightblue" points="2008.49,-303.38 2017.81,-298.35 2007.39,-296.47 2008.49,-303.38"/>
</g>
<!-- Node34 -->
<g id="node34" class="node">
<title>Node34</title>
<g id="a_node34"><a xlink:title=" ">
<polygon fill="none" stroke="#bfbfbf" points="2092.5,-280.5 2092.5,-299.5 2133.5,-299.5 2133.5,-280.5 2092.5,-280.5"/>
<text text-anchor="middle" x="2113" y="-287.5" font-family="Helvetica,sans-Serif" font-size="10.00">tuple</text>
</a>
</g>
</g>
<!-- Node1&#45;&gt;Node34 -->
<g id="edge77" class="edge">
<title>Node1&#45;&gt;Node34</title>
<path fill="none" stroke="midnightblue" d="M1525.15,-345C1644.34,-343.76 1876.87,-336.56 2082.41,-299.64"/>
<polygon fill="midnightblue" stroke="midnightblue" points="2083.28,-303.04 2092.49,-297.8 2082.02,-296.16 2083.28,-303.04"/>
</g>
<!-- Node35 -->
<g id="node35" class="node">
<title>Node35</title>
<g id="a_node35"><a xlink:title=" ">
<polygon fill="none" stroke="#bfbfbf" points="2151.5,-280.5 2151.5,-299.5 2220.5,-299.5 2220.5,-280.5 2151.5,-280.5"/>
<text text-anchor="middle" x="2186" y="-287.5" font-family="Helvetica,sans-Serif" font-size="10.00">type_traits</text>
</a>
</g>
</g>
<!-- Node1&#45;&gt;Node35 -->
<g id="edge78" class="edge">
<title>Node1&#45;&gt;Node35</title>
<path fill="none" stroke="midnightblue" d="M1525.02,-343.54C1652.74,-340.38 1912.52,-330.63 2141.16,-300.07"/>
<polygon fill="midnightblue" stroke="midnightblue" points="2141.9,-303.5 2151.34,-298.69 2140.96,-296.57 2141.9,-303.5"/>
</g>
<!-- Node2&#45;&gt;Node3 -->
<g id="edge2" class="edge">
<title>Node2&#45;&gt;Node3</title>
<path fill="none" stroke="midnightblue" d="M211.49,-168.44C184.4,-159.36 141.41,-144.94 111.13,-134.78"/>
<polygon fill="midnightblue" stroke="midnightblue" points="111.99,-131.38 101.39,-131.52 109.76,-138.01 111.99,-131.38"/>
</g>
<!-- Node2&#45;&gt;Node5 -->
<g id="edge11" class="edge">
<title>Node2&#45;&gt;Node5</title>
<path fill="none" stroke="midnightblue" d="M252.62,-168.42C277.64,-154.94 328.51,-128.65 374,-112 432.72,-90.51 451.62,-98.4 510,-76 528.19,-69.02 530.42,-61.84 549,-56 655.84,-22.45 789.74,-13.91 849.59,-11.74"/>
<polygon fill="midnightblue" stroke="midnightblue" points="850,-15.23 859.88,-11.4 849.77,-8.23 850,-15.23"/>
</g>
<!-- Node2&#45;&gt;Node6 -->
<g id="edge12" class="edge">
<title>Node2&#45;&gt;Node6</title>
<path fill="none" stroke="midnightblue" d="M235.39,-168.2C232.03,-147.4 226.05,-94.07 245,-56 251.23,-43.47 262.66,-32.99 273.21,-25.3"/>
<polygon fill="midnightblue" stroke="midnightblue" points="275.43,-28.02 281.74,-19.51 271.5,-22.23 275.43,-28.02"/>
</g>
<!-- Node10 -->
<g id="node10" class="node">
<title>Node10</title>
<g id="a_node10"><a xlink:title=" ">
<polygon fill="none" stroke="#bfbfbf" points="623,-56.5 623,-75.5 679,-75.5 679,-56.5 623,-56.5"/>
<text text-anchor="middle" x="651" y="-63.5" font-family="Helvetica,sans-Serif" font-size="10.00">optional</text>
</a>
</g>
</g>
<!-- Node2&#45;&gt;Node10 -->
<g id="edge13" class="edge">
<title>Node2&#45;&gt;Node10</title>
<path fill="none" stroke="midnightblue" d="M274.17,-168.47C311.79,-159.73 371.6,-145.54 423,-132 490.16,-114.31 567.84,-91.7 613,-78.34"/>
<polygon fill="midnightblue" stroke="midnightblue" points="614.07,-81.67 622.67,-75.48 612.08,-74.96 614.07,-81.67"/>
</g>
<!-- Node2&#45;&gt;Node11 -->
<g id="edge14" class="edge">
<title>Node2&#45;&gt;Node11</title>
<path fill="none" stroke="midnightblue" d="M225.75,-168.32C215.2,-160.18 199.2,-147.84 186.56,-138.09"/>
<polygon fill="midnightblue" stroke="midnightblue" points="188.51,-135.17 178.45,-131.83 184.23,-140.71 188.51,-135.17"/>
</g>
<!-- Node2&#45;&gt;Node12 -->
<g id="edge15" class="edge">
<title>Node2&#45;&gt;Node12</title>
<path fill="none" stroke="midnightblue" d="M263.71,-168.46C325.72,-148.63 479.36,-99.5 547.51,-77.71"/>
<polygon fill="midnightblue" stroke="midnightblue" points="548.85,-80.95 557.31,-74.57 546.72,-74.29 548.85,-80.95"/>
</g>
<!-- Node3&#45;&gt;Node4 -->
<g id="edge3" class="edge">
<title>Node3&#45;&gt;Node4</title>
<path fill="none" stroke="midnightblue" d="M123.57,-113.4C126.76,-112.92 129.93,-112.45 133,-112 239.51,-96.48 365.27,-80.24 428.82,-72.18"/>
<polygon fill="midnightblue" stroke="midnightblue" points="429.36,-75.64 438.84,-70.91 428.48,-68.69 429.36,-75.64"/>
</g>
<!-- Node3&#45;&gt;Node6 -->
<g id="edge8" class="edge">
<title>Node3&#45;&gt;Node6</title>
<path fill="none" stroke="midnightblue" d="M75.91,-112.43C76.24,-98.49 79.04,-70.95 95,-56 118.55,-33.94 208.5,-20.68 260.08,-14.74"/>
<polygon fill="midnightblue" stroke="midnightblue" points="260.61,-18.2 270.16,-13.61 259.83,-11.24 260.61,-18.2"/>
</g>
<!-- Node3&#45;&gt;Node8 -->
<g id="edge10" class="edge">
<title>Node3&#45;&gt;Node8</title>
<path fill="none" stroke="midnightblue" d="M106.59,-112.46C179.46,-92.12 362.8,-40.93 437.53,-20.06"/>
<polygon fill="midnightblue" stroke="midnightblue" points="438.64,-23.39 447.33,-17.33 436.76,-16.65 438.64,-23.39"/>
</g>
<!-- Node9 -->
<g id="node9" class="node">
<title>Node9</title>
<g id="a_node9"><a xlink:title=" ">
<polygon fill="none" stroke="#bfbfbf" points="104.5,-56.5 104.5,-75.5 147.5,-75.5 147.5,-56.5 104.5,-56.5"/>
<text text-anchor="middle" x="126" y="-63.5" font-family="Helvetica,sans-Serif" font-size="10.00">stack</text>
</a>
</g>
</g>
<!-- Node3&#45;&gt;Node9 -->
<g id="edge9" class="edge">
<title>Node3&#45;&gt;Node9</title>
<path fill="none" stroke="midnightblue" d="M84.26,-112.08C91.46,-104.3 102.11,-92.8 110.85,-83.37"/>
<polygon fill="midnightblue" stroke="midnightblue" points="113.67,-85.47 117.9,-75.75 108.53,-80.71 113.67,-85.47"/>
</g>
<!-- Node4&#45;&gt;Node5 -->
<g id="edge4" class="edge">
<title>Node4&#45;&gt;Node5</title>
<path fill="none" stroke="midnightblue" d="M501.42,-58.4C505.96,-57.54 510.6,-56.71 515,-56 638.38,-36.11 786.41,-20.39 849.76,-14.04"/>
<polygon fill="midnightblue" stroke="midnightblue" points="850.27,-17.51 859.88,-13.04 849.58,-10.54 850.27,-17.51"/>
</g>
<!-- Node4&#45;&gt;Node6 -->
<g id="edge5" class="edge">
<title>Node4&#45;&gt;Node6</title>
<path fill="none" stroke="midnightblue" d="M442.59,-56.44C413.06,-47.23 365.93,-32.52 333.33,-22.34"/>
<polygon fill="midnightblue" stroke="midnightblue" points="334.3,-18.98 323.72,-19.34 332.22,-25.66 334.3,-18.98"/>
</g>
<!-- Node7 -->
<g id="node7" class="node">
<title>Node7</title>
<g id="a_node7"><a xlink:title=" ">
<polygon fill="none" stroke="#bfbfbf" points="657.5,-0.5 657.5,-19.5 714.5,-19.5 714.5,-0.5 657.5,-0.5"/>
<text text-anchor="middle" x="686" y="-7.5" font-family="Helvetica,sans-Serif" font-size="10.00">ostream</text>
</a>
</g>
</g>
<!-- Node4&#45;&gt;Node7 -->
<g id="edge6" class="edge">
<title>Node4&#45;&gt;Node7</title>
<path fill="none" stroke="midnightblue" d="M501.41,-57.15C540.11,-47.47 605.83,-31.04 647.52,-20.62"/>
<polygon fill="midnightblue" stroke="midnightblue" points="648.46,-23.99 657.32,-18.17 646.76,-17.2 648.46,-23.99"/>
</g>
<!-- Node4&#45;&gt;Node8 -->
<g id="edge7" class="edge">
<title>Node4&#45;&gt;Node8</title>
<path fill="none" stroke="midnightblue" d="M470,-56.08C470,-49.01 470,-38.86 470,-29.99"/>
<polygon fill="midnightblue" stroke="midnightblue" points="473.5,-29.75 470,-19.75 466.5,-29.75 473.5,-29.75"/>
</g>
<!-- Node13&#45;&gt;Node5 -->
<g id="edge52" class="edge">
<title>Node13&#45;&gt;Node5</title>
<path fill="none" stroke="midnightblue" d="M973.05,-280.38C959.81,-241.62 905.65,-83.13 887.19,-29.13"/>
<polygon fill="midnightblue" stroke="midnightblue" points="890.46,-27.86 883.91,-19.52 883.83,-30.12 890.46,-27.86"/>
</g>
<!-- Node13&#45;&gt;Node6 -->
<g id="edge53" class="edge">
<title>Node13&#45;&gt;Node6</title>
<path fill="none" stroke="midnightblue" d="M940.99,-287.08C858.06,-281.44 644.56,-260.43 484,-188 409.13,-154.22 390.73,-138.12 337,-76 324.43,-61.47 313.26,-42.54 305.95,-28.86"/>
<polygon fill="midnightblue" stroke="midnightblue" points="308.85,-26.85 301.14,-19.58 302.63,-30.07 308.85,-26.85"/>
</g>
<!-- Node13&#45;&gt;Node14 -->
<g id="edge17" class="edge">
<title>Node13&#45;&gt;Node14</title>
<path fill="none" stroke="midnightblue" d="M1011.22,-283.27C1066.97,-274.2 1176.31,-256.42 1245.58,-245.15"/>
<polygon fill="midnightblue" stroke="midnightblue" points="1246.19,-248.6 1255.5,-243.54 1245.07,-241.69 1246.19,-248.6"/>
</g>
<!-- Node13&#45;&gt;Node15 -->
<g id="edge39" class="edge">
<title>Node13&#45;&gt;Node15</title>
<path fill="none" stroke="midnightblue" d="M986.71,-280.46C1018.37,-255.36 1111.55,-182.68 1147,-168 1219.02,-138.17 1310,-128.11 1363.89,-124.72"/>
<polygon fill="midnightblue" stroke="midnightblue" points="1364.38,-128.2 1374.16,-124.13 1363.98,-121.21 1364.38,-128.2"/>
</g>
<!-- Node16 -->
<g id="node16" class="node">
<title>Node16</title>
<g id="a_node16"><a xlink:title=" ">
<polygon fill="none" stroke="#bfbfbf" points="1216.5,-56.5 1216.5,-75.5 1281.5,-75.5 1281.5,-56.5 1216.5,-56.5"/>
<text text-anchor="middle" x="1249" y="-63.5" font-family="Helvetica,sans-Serif" font-size="10.00">exception</text>
</a>
</g>
</g>
<!-- Node13&#45;&gt;Node16 -->
<g id="edge54" class="edge">
<title>Node13&#45;&gt;Node16</title>
<path fill="none" stroke="midnightblue" d="M975.79,-280.26C975.62,-250.27 979.62,-151.22 1038,-112 1099.47,-70.69 1129.95,-90.48 1206.28,-76.22"/>
<polygon fill="midnightblue" stroke="midnightblue" points="1207.22,-79.6 1216.33,-74.19 1205.84,-72.74 1207.22,-79.6"/>
</g>
<!-- Node17 -->
<g id="node17" class="node">
<title>Node17</title>
<g id="a_node17"><a xlink:title=" ">
<polygon fill="none" stroke="#bfbfbf" points="1300,-56.5 1300,-75.5 1344,-75.5 1344,-56.5 1300,-56.5"/>
<text text-anchor="middle" x="1322" y="-63.5" font-family="Helvetica,sans-Serif" font-size="10.00">string</text>
</a>
</g>
</g>
<!-- Node13&#45;&gt;Node17 -->
<g id="edge56" class="edge">
<title>Node13&#45;&gt;Node17</title>
<path fill="none" stroke="midnightblue" d="M979.11,-280.26C988.13,-255.29 1014.89,-184.32 1033,-168 1052.81,-150.15 1219.08,-98.24 1290.07,-76.63"/>
<polygon fill="midnightblue" stroke="midnightblue" points="1291.27,-79.92 1299.83,-73.66 1289.24,-73.22 1291.27,-79.92"/>
</g>
<!-- Node18 -->
<g id="node18" class="node">
<title>Node18</title>
<g id="a_node18"><a xlink:title=" ">
<polygon fill="none" stroke="#bfbfbf" points="1125.5,-56.5 1125.5,-75.5 1198.5,-75.5 1198.5,-56.5 1125.5,-56.5"/>
<text text-anchor="middle" x="1162" y="-63.5" font-family="Helvetica,sans-Serif" font-size="10.00">string_view</text>
</a>
</g>
</g>
<!-- Node13&#45;&gt;Node18 -->
<g id="edge57" class="edge">
<title>Node13&#45;&gt;Node18</title>
<path fill="none" stroke="midnightblue" d="M972.4,-280.22C968.94,-271.28 963.97,-256.94 962,-244 952.83,-183.64 950.41,-147.61 1000,-112 1033.95,-87.62 1080.6,-76.44 1115.13,-71.31"/>
<polygon fill="midnightblue" stroke="midnightblue" points="1115.99,-74.73 1125.42,-69.91 1115.04,-67.79 1115.99,-74.73"/>
</g>
<!-- Node13&#45;&gt;Node20 -->
<g id="edge40" class="edge">
<title>Node13&#45;&gt;Node20</title>
<path fill="none" stroke="midnightblue" d="M954.67,-280.43C935.79,-272.37 907.93,-259.28 886,-244 845.5,-215.78 845.62,-196.05 805,-168 786.15,-154.98 762.97,-143.67 744.59,-135.64"/>
<polygon fill="midnightblue" stroke="midnightblue" points="745.77,-132.34 735.2,-131.64 743.03,-138.78 745.77,-132.34"/>
</g>
<!-- Node21 -->
<g id="node21" class="node">
<title>Node21</title>
<g id="a_node21"><a xlink:title=" ">
<polygon fill="none" stroke="#bfbfbf" points="1156,-168.5 1156,-187.5 1204,-187.5 1204,-168.5 1156,-168.5"/>
<text text-anchor="middle" x="1180" y="-175.5" font-family="Helvetica,sans-Serif" font-size="10.00">iosfwd</text>
</a>
</g>
</g>
<!-- Node13&#45;&gt;Node21 -->
<g id="edge55" class="edge">
<title>Node13&#45;&gt;Node21</title>
<path fill="none" stroke="midnightblue" d="M1011.17,-287.15C1047.32,-283.61 1103.59,-273.4 1142,-244 1157.54,-232.11 1167.9,-211.9 1173.82,-197.17"/>
<polygon fill="midnightblue" stroke="midnightblue" points="1177.17,-198.2 1177.36,-187.61 1170.61,-195.77 1177.17,-198.2"/>
</g>
<!-- Node22 -->
<g id="node22" class="node">
<title>Node22</title>
<g id="a_node22"><a xlink:href="../../d5/d2e/sensor_8h.html" target="_top" xlink:title=" ">
<polygon fill="none" stroke="black" points="724.5,-224.5 724.5,-243.5 781.5,-243.5 781.5,-224.5 724.5,-224.5"/>
<text text-anchor="middle" x="753" y="-231.5" font-family="Helvetica,sans-Serif" font-size="10.00">sensor.h</text>
</a>
</g>
</g>
<!-- Node13&#45;&gt;Node22 -->
<g id="edge41" class="edge">
<title>Node13&#45;&gt;Node22</title>
<path fill="none" stroke="midnightblue" d="M940.66,-280.44C900.05,-270.61 833.6,-254.52 791.64,-244.36"/>
<polygon fill="midnightblue" stroke="midnightblue" points="792.33,-240.92 781.79,-241.97 790.68,-247.73 792.33,-240.92"/>
</g>
<!-- Node14&#45;&gt;Node12 -->
<g id="edge38" class="edge">
<title>Node14&#45;&gt;Node12</title>
<path fill="none" stroke="midnightblue" d="M1296.83,-224.42C1275.82,-208.43 1230.94,-175.09 1213,-168 965.55,-70.25 879.57,-130.46 614.62,-75.89"/>
<polygon fill="midnightblue" stroke="midnightblue" points="615.22,-72.44 604.71,-73.81 613.78,-79.29 615.22,-72.44"/>
</g>
<!-- Node14&#45;&gt;Node15 -->
<g id="edge18" class="edge">
<title>Node14&#45;&gt;Node15</title>
<path fill="none" stroke="midnightblue" d="M1319.33,-224.3C1330.28,-215.64 1347.05,-201.72 1360,-188 1374.29,-172.86 1388.57,-153.8 1398.19,-140.25"/>
<polygon fill="midnightblue" stroke="midnightblue" points="1401.19,-142.06 1404.05,-131.86 1395.45,-138.05 1401.19,-142.06"/>
</g>
<!-- Node14&#45;&gt;Node16 -->
<g id="edge34" class="edge">
<title>Node14&#45;&gt;Node16</title>
<path fill="none" stroke="midnightblue" d="M1307.65,-224.37C1306.52,-203.94 1301.97,-151.35 1284,-112 1279.24,-101.58 1271.63,-91.38 1264.71,-83.33"/>
<polygon fill="midnightblue" stroke="midnightblue" points="1267.21,-80.88 1257.91,-75.81 1262.02,-85.57 1267.21,-80.88"/>
</g>
<!-- Node14&#45;&gt;Node17 -->
<g id="edge36" class="edge">
<title>Node14&#45;&gt;Node17</title>
<path fill="none" stroke="midnightblue" d="M1311.6,-224.22C1315.06,-215.28 1320.03,-200.94 1322,-188 1327.45,-152.13 1325.55,-109.57 1323.73,-85.69"/>
<polygon fill="midnightblue" stroke="midnightblue" points="1327.21,-85.25 1322.88,-75.57 1320.23,-85.83 1327.21,-85.25"/>
</g>
<!-- Node14&#45;&gt;Node18 -->
<g id="edge37" class="edge">
<title>Node14&#45;&gt;Node18</title>
<path fill="none" stroke="midnightblue" d="M1300.15,-224.08C1276.67,-197.38 1206.74,-117.87 1176.36,-83.32"/>
<polygon fill="midnightblue" stroke="midnightblue" points="1178.77,-80.77 1169.54,-75.57 1173.51,-85.39 1178.77,-80.77"/>
</g>
<!-- Node14&#45;&gt;Node19 -->
<g id="edge26" class="edge">
<title>Node14&#45;&gt;Node19</title>
<path fill="none" stroke="midnightblue" d="M1329.39,-224.44C1351.71,-215.52 1386.9,-201.44 1412.21,-191.32"/>
<polygon fill="midnightblue" stroke="midnightblue" points="1413.72,-194.48 1421.71,-187.52 1411.12,-187.98 1413.72,-194.48"/>
</g>
<!-- Node14&#45;&gt;Node21 -->
<g id="edge35" class="edge">
<title>Node14&#45;&gt;Node21</title>
<path fill="none" stroke="midnightblue" d="M1287.72,-224.44C1266.65,-215.56 1233.48,-201.56 1209.51,-191.45"/>
<polygon fill="midnightblue" stroke="midnightblue" points="1210.76,-188.18 1200.19,-187.52 1208.04,-194.63 1210.76,-188.18"/>
</g>
<!-- Node15&#45;&gt;Node5 -->
<g id="edge19" class="edge">
<title>Node15&#45;&gt;Node5</title>
<path fill="none" stroke="midnightblue" d="M1416.11,-112.18C1424.86,-98.37 1438.39,-71.63 1424,-56 1389.2,-18.2 1022.36,-12.15 912.14,-11.18"/>
<polygon fill="midnightblue" stroke="midnightblue" points="912.04,-7.68 902.01,-11.1 911.98,-14.68 912.04,-7.68"/>
</g>
<!-- Node15&#45;&gt;Node7 -->
<g id="edge22" class="edge">
<title>Node15&#45;&gt;Node7</title>
<path fill="none" stroke="midnightblue" d="M1409.62,-112.08C1408.48,-97.63 1403.94,-69.37 1386,-56 1379.32,-51.02 871.7,-21.62 725.18,-13.23"/>
<polygon fill="midnightblue" stroke="midnightblue" points="725.06,-9.72 714.88,-12.64 724.66,-16.71 725.06,-9.72"/>
</g>
<!-- Node15&#45;&gt;Node8 -->
<g id="edge25" class="edge">
<title>Node15&#45;&gt;Node8</title>
<path fill="none" stroke="midnightblue" d="M1405.45,-112.28C1397.23,-97.59 1378.4,-68.3 1353,-56 1351.78,-55.41 662.71,-20.7 502.85,-12.65"/>
<polygon fill="midnightblue" stroke="midnightblue" points="502.84,-9.15 492.68,-12.14 502.49,-16.14 502.84,-9.15"/>
</g>
<!-- Node15&#45;&gt;Node10 -->
<g id="edge21" class="edge">
<title>Node15&#45;&gt;Node10</title>
<path fill="none" stroke="midnightblue" d="M1374.41,-118.47C1247.84,-109.46 820.12,-79.03 689.32,-69.73"/>
<polygon fill="midnightblue" stroke="midnightblue" points="689.23,-66.21 679.01,-68.99 688.73,-73.19 689.23,-66.21"/>
</g>
<!-- Node15&#45;&gt;Node16 -->
<g id="edge20" class="edge">
<title>Node15&#45;&gt;Node16</title>
<path fill="none" stroke="midnightblue" d="M1384.49,-112.44C1357.4,-103.36 1314.41,-88.94 1284.13,-78.78"/>
<polygon fill="midnightblue" stroke="midnightblue" points="1284.99,-75.38 1274.39,-75.52 1282.76,-82.01 1284.99,-75.38"/>
</g>
<!-- Node15&#45;&gt;Node17 -->
<g id="edge23" class="edge">
<title>Node15&#45;&gt;Node17</title>
<path fill="none" stroke="midnightblue" d="M1395.86,-112.32C1382.13,-103.9 1361.06,-90.97 1344.94,-81.07"/>
<polygon fill="midnightblue" stroke="midnightblue" points="1346.46,-77.9 1336.1,-75.65 1342.8,-83.87 1346.46,-77.9"/>
</g>
<!-- Node15&#45;&gt;Node18 -->
<g id="edge24" class="edge">
<title>Node15&#45;&gt;Node18</title>
<path fill="none" stroke="midnightblue" d="M1374.47,-113.26C1330.83,-103.76 1256.69,-87.62 1208.54,-77.13"/>
<polygon fill="midnightblue" stroke="midnightblue" points="1209.19,-73.69 1198.68,-74.99 1207.71,-80.53 1209.19,-73.69"/>
</g>
<!-- Node19&#45;&gt;Node15 -->
<g id="edge27" class="edge">
<title>Node19&#45;&gt;Node15</title>
<path fill="none" stroke="midnightblue" d="M1437.55,-168.08C1432.99,-160.61 1426.33,-149.72 1420.71,-140.52"/>
<polygon fill="midnightblue" stroke="midnightblue" points="1423.55,-138.46 1415.35,-131.75 1417.58,-142.11 1423.55,-138.46"/>
</g>
<!-- Node19&#45;&gt;Node20 -->
<g id="edge28" class="edge">
<title>Node19&#45;&gt;Node20</title>
<path fill="none" stroke="midnightblue" d="M1411.63,-174.68C1295.78,-166.11 891.78,-136.22 757.09,-126.26"/>
<polygon fill="midnightblue" stroke="midnightblue" points="756.98,-122.74 746.75,-125.5 756.46,-129.72 756.98,-122.74"/>
</g>
<!-- Node20&#45;&gt;Node4 -->
<g id="edge29" class="edge">
<title>Node20&#45;&gt;Node4</title>
<path fill="none" stroke="midnightblue" d="M679.47,-113.55C635.56,-103.79 558.61,-86.69 511.2,-76.16"/>
<polygon fill="midnightblue" stroke="midnightblue" points="511.79,-72.7 501.27,-73.95 510.27,-79.53 511.79,-72.7"/>
</g>
<!-- Node20&#45;&gt;Node5 -->
<g id="edge30" class="edge">
<title>Node20&#45;&gt;Node5</title>
<path fill="none" stroke="midnightblue" d="M726.18,-112.37C755.01,-93.49 823.9,-48.38 859.26,-25.24"/>
<polygon fill="midnightblue" stroke="midnightblue" points="861.43,-28 867.88,-19.59 857.6,-22.14 861.43,-28"/>
</g>
<!-- Node20&#45;&gt;Node6 -->
<g id="edge31" class="edge">
<title>Node20&#45;&gt;Node6</title>
<path fill="none" stroke="midnightblue" d="M712.4,-112.17C710.92,-97.84 705.78,-69.77 688,-56 660.3,-34.54 425.95,-18.58 333.9,-13.08"/>
<polygon fill="midnightblue" stroke="midnightblue" points="333.85,-9.57 323.66,-12.48 333.44,-16.56 333.85,-9.57"/>
</g>
<!-- Node20&#45;&gt;Node8 -->
<g id="edge32" class="edge">
<title>Node20&#45;&gt;Node8</title>
<path fill="none" stroke="midnightblue" d="M717.73,-112.27C724.42,-98.6 734.42,-72.05 721,-56 693.6,-23.25 564.96,-14.3 503.22,-11.88"/>
<polygon fill="midnightblue" stroke="midnightblue" points="502.98,-8.37 492.86,-11.52 502.73,-15.37 502.98,-8.37"/>
</g>
<!-- Node20&#45;&gt;Node12 -->
<g id="edge33" class="edge">
<title>Node20&#45;&gt;Node12</title>
<path fill="none" stroke="midnightblue" d="M692.08,-112.44C670.26,-103.52 635.85,-89.44 611.11,-79.32"/>
<polygon fill="midnightblue" stroke="midnightblue" points="612.4,-76.06 601.82,-75.52 609.75,-82.54 612.4,-76.06"/>
</g>
<!-- Node22&#45;&gt;Node5 -->
<g id="edge47" class="edge">
<title>Node22&#45;&gt;Node5</title>
<path fill="none" stroke="midnightblue" d="M766.02,-224.33C777.53,-216.11 794.15,-202.84 805,-188 842.6,-136.59 866.32,-63.7 876,-29.75"/>
<polygon fill="midnightblue" stroke="midnightblue" points="879.46,-30.39 878.75,-19.82 872.71,-28.52 879.46,-30.39"/>
</g>
<!-- Node22&#45;&gt;Node6 -->
<g id="edge48" class="edge">
<title>Node22&#45;&gt;Node6</title>
<path fill="none" stroke="midnightblue" d="M724.33,-231.29C680.21,-227.8 593.79,-217.49 527,-188 435.26,-147.49 347.14,-62.97 312.47,-27.37"/>
<polygon fill="midnightblue" stroke="midnightblue" points="314.64,-24.58 305.18,-19.8 309.59,-29.43 314.64,-24.58"/>
</g>
<!-- Node22&#45;&gt;Node12 -->
<g id="edge51" class="edge">
<title>Node22&#45;&gt;Node12</title>
<path fill="none" stroke="midnightblue" d="M724.41,-231.28C671.8,-227.46 562.91,-216.26 540,-188 514.51,-156.56 546.19,-108.46 566.49,-83.43"/>
<polygon fill="midnightblue" stroke="midnightblue" points="569.32,-85.5 573.08,-75.6 563.97,-80.99 569.32,-85.5"/>
</g>
<!-- Node22&#45;&gt;Node20 -->
<g id="edge42" class="edge">
<title>Node22&#45;&gt;Node20</title>
<path fill="none" stroke="midnightblue" d="M749.86,-224.37C743.38,-206.54 728.38,-165.3 719.64,-141.27"/>
<polygon fill="midnightblue" stroke="midnightblue" points="722.83,-139.79 716.12,-131.59 716.25,-142.19 722.83,-139.79"/>
</g>
<!-- Node23 -->
<g id="node23" class="node">
<title>Node23</title>
<g id="a_node23"><a xlink:href="../../da/d16/sensorController_8h.html" target="_top" xlink:title=" ">
<polygon fill="none" stroke="black" points="548.5,-168.5 548.5,-187.5 653.5,-187.5 653.5,-168.5 548.5,-168.5"/>
<text text-anchor="middle" x="601" y="-175.5" font-family="Helvetica,sans-Serif" font-size="10.00">sensorController.h</text>
</a>
</g>
</g>
<!-- Node22&#45;&gt;Node23 -->
<g id="edge43" class="edge">
<title>Node22&#45;&gt;Node23</title>
<path fill="none" stroke="midnightblue" d="M728.92,-224.44C703.46,-215.4 663.11,-201.06 634.54,-190.92"/>
<polygon fill="midnightblue" stroke="midnightblue" points="635.57,-187.57 624.97,-187.52 633.22,-194.16 635.57,-187.57"/>
</g>
<!-- Node22&#45;&gt;Node24 -->
<g id="edge49" class="edge">
<title>Node22&#45;&gt;Node24</title>
<path fill="none" stroke="midnightblue" d="M781.5,-228.16C838.54,-218.47 966.82,-196.69 1031.76,-185.66"/>
<polygon fill="midnightblue" stroke="midnightblue" points="1032.72,-189.05 1041.99,-183.93 1031.55,-182.15 1032.72,-189.05"/>
</g>
<!-- Node25 -->
<g id="node25" class="node">
<title>Node25</title>
<g id="a_node25"><a xlink:title=" ">
<polygon fill="none" stroke="#bfbfbf" points="748,-168.5 748,-187.5 796,-187.5 796,-168.5 748,-168.5"/>
<text text-anchor="middle" x="772" y="-175.5" font-family="Helvetica,sans-Serif" font-size="10.00">mutex</text>
</a>
</g>
</g>
<!-- Node22&#45;&gt;Node25 -->
<g id="edge50" class="edge">
<title>Node22&#45;&gt;Node25</title>
<path fill="none" stroke="midnightblue" d="M756.14,-224.08C758.68,-216.85 762.36,-206.41 765.53,-197.4"/>
<polygon fill="midnightblue" stroke="midnightblue" points="768.9,-198.35 768.92,-187.75 762.3,-196.02 768.9,-198.35"/>
</g>
<!-- Node23&#45;&gt;Node6 -->
<g id="edge45" class="edge">
<title>Node23&#45;&gt;Node6</title>
<path fill="none" stroke="midnightblue" d="M585.08,-168.31C535.22,-141.08 381.77,-57.29 321.59,-24.43"/>
<polygon fill="midnightblue" stroke="midnightblue" points="323.21,-21.33 312.76,-19.61 319.86,-27.47 323.21,-21.33"/>
</g>
<!-- Node23&#45;&gt;Node12 -->
<g id="edge46" class="edge">
<title>Node23&#45;&gt;Node12</title>
<path fill="none" stroke="midnightblue" d="M605.72,-168.42C612,-155.83 621.61,-131.7 615,-112 611.4,-101.25 604.1,-91.02 597.18,-83.04"/>
<polygon fill="midnightblue" stroke="midnightblue" points="599.65,-80.56 590.29,-75.61 594.52,-85.32 599.65,-80.56"/>
</g>
<!-- Node23&#45;&gt;Node20 -->
<g id="edge44" class="edge">
<title>Node23&#45;&gt;Node20</title>
<path fill="none" stroke="midnightblue" d="M618.99,-168.32C637.04,-159.62 665.05,-146.12 685.8,-136.11"/>
<polygon fill="midnightblue" stroke="midnightblue" points="687.56,-139.15 695.05,-131.65 684.52,-132.84 687.56,-139.15"/>
</g>
<!-- Node26&#45;&gt;Node5 -->
<g id="edge65" class="edge">
<title>Node26&#45;&gt;Node5</title>
<path fill="none" stroke="midnightblue" d="M1569.31,-280.47C1572.02,-262.01 1578,-216.97 1578,-179 1578,-179 1578,-179 1578,-121 1578,-90.2 1578.67,-74.44 1554,-56 1502.17,-17.25 1038.03,-11.87 912.3,-11.12"/>
<polygon fill="midnightblue" stroke="midnightblue" points="912.2,-7.62 902.18,-11.07 912.16,-14.62 912.2,-7.62"/>
</g>
<!-- Node26&#45;&gt;Node27 -->
<g id="edge66" class="edge">
<title>Node26&#45;&gt;Node27</title>
<path fill="none" stroke="midnightblue" d="M1578.44,-280.32C1588.15,-272.26 1602.82,-260.08 1614.5,-250.37"/>
<polygon fill="midnightblue" stroke="midnightblue" points="1616.91,-252.92 1622.37,-243.83 1612.44,-247.53 1616.91,-252.92"/>
</g>
</g>
</svg>
