<?xml version="1.0" encoding="UTF-8" standalone="no"?>
<!DOCTYPE svg PUBLIC "-//W3C//DTD SVG 1.1//EN"
 "http://www.w3.org/Graphics/SVG/1.1/DTD/svg11.dtd">
<!-- Generated by graphviz version 2.43.0 (0)
 -->
<!-- Title: psim/include/psim/surface.h Pages: 1 -->
<svg width="955pt" height="263pt"
 viewBox="0.00 0.00 955.12 263.00" xmlns="http://www.w3.org/2000/svg" xmlns:xlink="http://www.w3.org/1999/xlink">
<g id="graph0" class="graph" transform="scale(1 1) rotate(0) translate(4 259)">
<title>psim/include/psim/surface.h</title>
<!-- Node1 -->
<g id="node1" class="node">
<title>Node1</title>
<g id="a_node1"><a xlink:title=" ">
<polygon fill="#bfbfbf" stroke="black" points="633,-235.5 633,-254.5 787,-254.5 787,-235.5 633,-235.5"/>
<text text-anchor="middle" x="710" y="-242.5" font-family="Helvetica,sans-Serif" font-size="10.00">psim/include/psim/surface.h</text>
</a>
</g>
</g>
<!-- Node2 -->
<g id="node2" class="node">
<title>Node2</title>
<g id="a_node2"><a xlink:href="../../d8/d77/compositeSurface_8h.html" target="_top" xlink:title=" ">
<polygon fill="none" stroke="black" points="470,-168.5 470,-198.5 630,-198.5 630,-168.5 470,-168.5"/>
<text text-anchor="start" x="478" y="-186.5" font-family="Helvetica,sans-Serif" font-size="10.00">psim/include/psim/composite</text>
<text text-anchor="middle" x="550" y="-175.5" font-family="Helvetica,sans-Serif" font-size="10.00">Surface.h</text>
</a>
</g>
</g>
<!-- Node1&#45;&gt;Node2 -->
<g id="edge1" class="edge">
<title>Node1&#45;&gt;Node2</title>
<path fill="none" stroke="midnightblue" d="M677.67,-231.98C651.65,-222.3 615.05,-208.69 587.71,-198.52"/>
<polygon fill="midnightblue" stroke="midnightblue" points="676.48,-235.27 687.08,-235.48 678.92,-228.71 676.48,-235.27"/>
</g>
<!-- Node7 -->
<g id="node7" class="node">
<title>Node7</title>
<g id="a_node7"><a xlink:href="../../d6/db4/model_8cpp.html" target="_top" xlink:title=" ">
<polygon fill="none" stroke="black" points="804,-0.5 804,-19.5 916,-19.5 916,-0.5 804,-0.5"/>
<text text-anchor="middle" x="860" y="-7.5" font-family="Helvetica,sans-Serif" font-size="10.00">psim/src/model.cpp</text>
</a>
</g>
</g>
<!-- Node1&#45;&gt;Node7 -->
<g id="edge19" class="edge">
<title>Node1&#45;&gt;Node7</title>
<path fill="none" stroke="midnightblue" d="M751.37,-232.36C773.96,-224.88 801.78,-213.78 824,-199 887.6,-156.71 915.21,-146.74 944,-76 947.35,-67.77 948.57,-63.63 944,-56 932.95,-37.55 911.46,-26.23 892.99,-19.56"/>
<polygon fill="midnightblue" stroke="midnightblue" points="750.18,-229.06 741.72,-235.44 752.31,-235.73 750.18,-229.06"/>
</g>
<!-- Node8 -->
<g id="node8" class="node">
<title>Node8</title>
<g id="a_node8"><a xlink:href="../../d6/d68/cell_8cpp.html" target="_top" xlink:title=" ">
<polygon fill="none" stroke="black" points="0,-56.5 0,-75.5 98,-75.5 98,-56.5 0,-56.5"/>
<text text-anchor="middle" x="49" y="-63.5" font-family="Helvetica,sans-Serif" font-size="10.00">psim/src/cell.cpp</text>
</a>
</g>
</g>
<!-- Node1&#45;&gt;Node8 -->
<g id="edge17" class="edge">
<title>Node1&#45;&gt;Node8</title>
<path fill="none" stroke="midnightblue" d="M622.7,-237.78C555.96,-231.65 462.11,-220.04 382,-199 256.59,-166.06 114.57,-99.22 66.19,-75.54"/>
<polygon fill="midnightblue" stroke="midnightblue" points="622.49,-241.28 632.76,-238.69 623.11,-234.31 622.49,-241.28"/>
</g>
<!-- Node9 -->
<g id="node9" class="node">
<title>Node9</title>
<g id="a_node9"><a xlink:href="../../d1/d3b/modelSimulator_8cpp.html" target="_top" xlink:title=" ">
<polygon fill="none" stroke="black" points="116,-56.5 116,-75.5 274,-75.5 274,-56.5 116,-56.5"/>
<text text-anchor="middle" x="195" y="-63.5" font-family="Helvetica,sans-Serif" font-size="10.00">psim/src/modelSimulator.cpp</text>
</a>
</g>
</g>
<!-- Node1&#45;&gt;Node9 -->
<g id="edge20" class="edge">
<title>Node1&#45;&gt;Node9</title>
<path fill="none" stroke="midnightblue" d="M622.73,-234.36C574.27,-227.49 513.37,-216.34 461,-199 359.2,-165.3 247.22,-99.22 208.81,-75.63"/>
<polygon fill="midnightblue" stroke="midnightblue" points="622.49,-237.86 632.88,-235.76 623.45,-230.93 622.49,-237.86"/>
</g>
<!-- Node11 -->
<g id="node11" class="node">
<title>Node11</title>
<g id="a_node11"><a xlink:href="../../d5/d8a/phononBuilder_8cpp.html" target="_top" xlink:title=" ">
<polygon fill="none" stroke="black" points="632.5,-56.5 632.5,-75.5 783.5,-75.5 783.5,-56.5 632.5,-56.5"/>
<text text-anchor="middle" x="708" y="-63.5" font-family="Helvetica,sans-Serif" font-size="10.00">psim/src/phononBuilder.cpp</text>
</a>
</g>
</g>
<!-- Node1&#45;&gt;Node11 -->
<g id="edge21" class="edge">
<title>Node1&#45;&gt;Node11</title>
<path fill="none" stroke="midnightblue" d="M733.19,-229.76C769.01,-205.89 830.92,-156.11 803,-112 791.09,-93.19 768.96,-82.08 749.05,-75.62"/>
<polygon fill="midnightblue" stroke="midnightblue" points="731.2,-226.87 724.71,-235.25 735.01,-232.75 731.2,-226.87"/>
</g>
<!-- Node12 -->
<g id="node12" class="node">
<title>Node12</title>
<g id="a_node12"><a xlink:href="../../d7/d13/surface_8cpp.html" target="_top" xlink:title=" ">
<polygon fill="none" stroke="black" points="801.5,-56.5 801.5,-75.5 918.5,-75.5 918.5,-56.5 801.5,-56.5"/>
<text text-anchor="middle" x="860" y="-63.5" font-family="Helvetica,sans-Serif" font-size="10.00">psim/src/surface.cpp</text>
</a>
</g>
</g>
<!-- Node1&#45;&gt;Node12 -->
<g id="edge22" class="edge">
<title>Node1&#45;&gt;Node12</title>
<path fill="none" stroke="midnightblue" d="M747.28,-231.71C764.75,-224.43 784.8,-213.71 799,-199 835.3,-161.4 852.78,-98.3 858.14,-75.52"/>
<polygon fill="midnightblue" stroke="midnightblue" points="745.92,-228.48 737.89,-235.4 748.48,-235 745.92,-228.48"/>
</g>
<!-- Node13 -->
<g id="node13" class="node">
<title>Node13</title>
<g id="a_node13"><a xlink:href="../../dc/d09/compositeSurface_8cpp.html" target="_top" xlink:title=" ">
<polygon fill="none" stroke="black" points="625.5,-112.5 625.5,-131.5 794.5,-131.5 794.5,-112.5 625.5,-112.5"/>
<text text-anchor="middle" x="710" y="-119.5" font-family="Helvetica,sans-Serif" font-size="10.00">psim/src/compositeSurface.cpp</text>
</a>
</g>
</g>
<!-- Node1&#45;&gt;Node13 -->
<g id="edge18" class="edge">
<title>Node1&#45;&gt;Node13</title>
<path fill="none" stroke="midnightblue" d="M710,-224.99C710,-198.35 710,-151 710,-131.62"/>
<polygon fill="midnightblue" stroke="midnightblue" points="706.5,-225.3 710,-235.3 713.5,-225.3 706.5,-225.3"/>
</g>
<!-- Node3 -->
<g id="node3" class="node">
<title>Node3</title>
<g id="a_node3"><a xlink:href="../../d0/ddd/cell_8h.html" target="_top" xlink:title=" ">
<polygon fill="none" stroke="black" points="434.5,-112.5 434.5,-131.5 569.5,-131.5 569.5,-112.5 434.5,-112.5"/>
<text text-anchor="middle" x="502" y="-119.5" font-family="Helvetica,sans-Serif" font-size="10.00">psim/include/psim/cell.h</text>
</a>
</g>
</g>
<!-- Node2&#45;&gt;Node3 -->
<g id="edge2" class="edge">
<title>Node2&#45;&gt;Node3</title>
<path fill="none" stroke="midnightblue" d="M532.17,-160.4C524.11,-150.41 515.05,-139.18 508.98,-131.66"/>
<polygon fill="midnightblue" stroke="midnightblue" points="529.62,-162.81 538.62,-168.4 535.07,-158.42 529.62,-162.81"/>
</g>
<!-- Node2&#45;&gt;Node7 -->
<g id="edge15" class="edge">
<title>Node2&#45;&gt;Node7</title>
<path fill="none" stroke="midnightblue" d="M564.6,-159.87C576.39,-143.65 594.52,-122.82 616,-112 678.33,-80.6 881.56,-128.1 928,-76 947.23,-54.42 907.36,-31.61 880.92,-19.58"/>
<polygon fill="midnightblue" stroke="midnightblue" points="561.56,-158.11 558.72,-168.32 567.31,-162.11 561.56,-158.11"/>
</g>
<!-- Node2&#45;&gt;Node8 -->
<g id="edge13" class="edge">
<title>Node2&#45;&gt;Node8</title>
<path fill="none" stroke="midnightblue" d="M479.24,-166.19C371.24,-141.29 169.09,-94.69 86.05,-75.54"/>
<polygon fill="midnightblue" stroke="midnightblue" points="478.54,-169.62 489.07,-168.45 480.11,-162.8 478.54,-169.62"/>
</g>
<!-- Node2&#45;&gt;Node9 -->
<g id="edge16" class="edge">
<title>Node2&#45;&gt;Node9</title>
<path fill="none" stroke="midnightblue" d="M498.33,-165.19C455.23,-150.81 392.18,-129.87 337,-112 297.14,-99.09 250.87,-84.5 222.26,-75.52"/>
<polygon fill="midnightblue" stroke="midnightblue" points="497.43,-168.58 508.02,-168.43 499.64,-161.94 497.43,-168.58"/>
</g>
<!-- Node2&#45;&gt;Node13 -->
<g id="edge14" class="edge">
<title>Node2&#45;&gt;Node13</title>
<path fill="none" stroke="midnightblue" d="M597.59,-164.8C627.01,-153.86 663.45,-140.31 686.72,-131.66"/>
<polygon fill="midnightblue" stroke="midnightblue" points="596.07,-161.63 587.92,-168.4 598.51,-168.19 596.07,-161.63"/>
</g>
<!-- Node4 -->
<g id="node4" class="node">
<title>Node4</title>
<g id="a_node4"><a xlink:href="../../dc/d51/model_8h.html" target="_top" xlink:title=" ">
<polygon fill="none" stroke="black" points="427.5,-56.5 427.5,-75.5 576.5,-75.5 576.5,-56.5 427.5,-56.5"/>
<text text-anchor="middle" x="502" y="-63.5" font-family="Helvetica,sans-Serif" font-size="10.00">psim/include/psim/model.h</text>
</a>
</g>
</g>
<!-- Node3&#45;&gt;Node4 -->
<g id="edge3" class="edge">
<title>Node3&#45;&gt;Node4</title>
<path fill="none" stroke="midnightblue" d="M502,-101.8C502,-92.91 502,-82.78 502,-75.75"/>
<polygon fill="midnightblue" stroke="midnightblue" points="498.5,-102.08 502,-112.08 505.5,-102.08 498.5,-102.08"/>
</g>
<!-- Node3&#45;&gt;Node7 -->
<g id="edge8" class="edge">
<title>Node3&#45;&gt;Node7</title>
<path fill="none" stroke="midnightblue" d="M526.95,-107.47C561.63,-88.69 620.47,-56.9 623,-56 682.81,-34.82 754.83,-22.95 803.67,-16.79"/>
<polygon fill="midnightblue" stroke="midnightblue" points="525,-104.55 517.88,-112.39 528.34,-110.7 525,-104.55"/>
</g>
<!-- Node3&#45;&gt;Node8 -->
<g id="edge7" class="edge">
<title>Node3&#45;&gt;Node8</title>
<path fill="none" stroke="midnightblue" d="M424.49,-113.11C344.76,-104.77 217.04,-90.8 107,-76 104.07,-75.61 101.06,-75.19 98.03,-74.75"/>
<polygon fill="midnightblue" stroke="midnightblue" points="424.14,-116.59 434.45,-114.15 424.87,-109.63 424.14,-116.59"/>
</g>
<!-- Node3&#45;&gt;Node9 -->
<g id="edge9" class="edge">
<title>Node3&#45;&gt;Node9</title>
<path fill="none" stroke="midnightblue" d="M443.24,-110.66C385.22,-100.46 297.55,-85.04 243.42,-75.52"/>
<polygon fill="midnightblue" stroke="midnightblue" points="442.9,-114.16 453.35,-112.44 444.11,-107.26 442.9,-114.16"/>
</g>
<!-- Node10 -->
<g id="node10" class="node">
<title>Node10</title>
<g id="a_node10"><a xlink:href="../../d6/d7d/phonon_8cpp.html" target="_top" xlink:title=" ">
<polygon fill="none" stroke="black" points="292.5,-56.5 292.5,-75.5 409.5,-75.5 409.5,-56.5 292.5,-56.5"/>
<text text-anchor="middle" x="351" y="-63.5" font-family="Helvetica,sans-Serif" font-size="10.00">psim/src/phonon.cpp</text>
</a>
</g>
</g>
<!-- Node3&#45;&gt;Node10 -->
<g id="edge10" class="edge">
<title>Node3&#45;&gt;Node10</title>
<path fill="none" stroke="midnightblue" d="M468.55,-109.04C440.14,-98.88 400.06,-84.55 374.81,-75.52"/>
<polygon fill="midnightblue" stroke="midnightblue" points="467.48,-112.37 478.07,-112.44 469.84,-105.78 467.48,-112.37"/>
</g>
<!-- Node3&#45;&gt;Node11 -->
<g id="edge11" class="edge">
<title>Node3&#45;&gt;Node11</title>
<path fill="none" stroke="midnightblue" d="M544.62,-109.83C583.51,-99.63 640.16,-84.78 675.51,-75.52"/>
<polygon fill="midnightblue" stroke="midnightblue" points="543.43,-106.52 534.64,-112.44 545.2,-113.29 543.43,-106.52"/>
</g>
<!-- Node3&#45;&gt;Node12 -->
<g id="edge12" class="edge">
<title>Node3&#45;&gt;Node12</title>
<path fill="none" stroke="midnightblue" d="M568.85,-110.92C636.48,-100.71 739.89,-85.12 803.54,-75.52"/>
<polygon fill="midnightblue" stroke="midnightblue" points="568.09,-107.49 558.73,-112.44 569.14,-114.41 568.09,-107.49"/>
</g>
<!-- Node5 -->
<g id="node5" class="node">
<title>Node5</title>
<g id="a_node5"><a xlink:href="../../d4/d02/inputManager_8cpp.html" target="_top" xlink:title=" ">
<polygon fill="none" stroke="black" points="355,-0.5 355,-19.5 503,-19.5 503,-0.5 355,-0.5"/>
<text text-anchor="middle" x="429" y="-7.5" font-family="Helvetica,sans-Serif" font-size="10.00">psim/src/inputManager.cpp</text>
</a>
</g>
</g>
<!-- Node4&#45;&gt;Node5 -->
<g id="edge4" class="edge">
<title>Node4&#45;&gt;Node5</title>
<path fill="none" stroke="midnightblue" d="M481.86,-50.1C468.72,-40.38 452.02,-28.03 440.94,-19.83"/>
<polygon fill="midnightblue" stroke="midnightblue" points="480.15,-53.19 490.27,-56.32 484.31,-47.56 480.15,-53.19"/>
</g>
<!-- Node6 -->
<g id="node6" class="node">
<title>Node6</title>
<g id="a_node6"><a xlink:href="../../df/d0a/main_8cpp.html" target="_top" xlink:title=" ">
<polygon fill="none" stroke="black" points="521,-0.5 521,-19.5 627,-19.5 627,-0.5 521,-0.5"/>
<text text-anchor="middle" x="574" y="-7.5" font-family="Helvetica,sans-Serif" font-size="10.00">psim/src/main.cpp</text>
</a>
</g>
</g>
<!-- Node4&#45;&gt;Node6 -->
<g id="edge5" class="edge">
<title>Node4&#45;&gt;Node6</title>
<path fill="none" stroke="midnightblue" d="M521.87,-50.1C534.82,-40.38 551.3,-28.03 562.22,-19.83"/>
<polygon fill="midnightblue" stroke="midnightblue" points="519.47,-47.52 513.57,-56.32 523.67,-53.12 519.47,-47.52"/>
</g>
<!-- Node4&#45;&gt;Node7 -->
<g id="edge6" class="edge">
<title>Node4&#45;&gt;Node7</title>
<path fill="none" stroke="midnightblue" d="M568.86,-54.91C636.6,-44.7 740.21,-29.07 803.83,-19.47"/>
<polygon fill="midnightblue" stroke="midnightblue" points="568.09,-51.49 558.73,-56.44 569.14,-58.41 568.09,-51.49"/>
</g>
</g>
</svg>
