<?xml version="1.0" encoding="UTF-8" standalone="no"?>
<!DOCTYPE svg PUBLIC "-//W3C//DTD SVG 1.1//EN"
 "http://www.w3.org/Graphics/SVG/1.1/DTD/svg11.dtd">
<!-- Generated by graphviz version 2.43.0 (0)
 -->
<!-- Title: psim/src/phononBuilder.cpp Pages: 1 -->
<svg width="1440pt" height="364pt"
 viewBox="0.00 0.00 1440.00 364.00" xmlns="http://www.w3.org/2000/svg" xmlns:xlink="http://www.w3.org/1999/xlink">
<g id="graph0" class="graph" transform="scale(1 1) rotate(0) translate(4 360)">
<title>psim/src/phononBuilder.cpp</title>
<!-- Node1 -->
<g id="node1" class="node">
<title>Node1</title>
<g id="a_node1"><a xlink:title=" ">
<polygon fill="#bfbfbf" stroke="black" points="178.5,-336.5 178.5,-355.5 329.5,-355.5 329.5,-336.5 178.5,-336.5"/>
<text text-anchor="middle" x="254" y="-343.5" font-family="Helvetica,sans-Serif" font-size="10.00">psim/src/phononBuilder.cpp</text>
</a>
</g>
</g>
<!-- Node2 -->
<g id="node2" class="node">
<title>Node2</title>
<g id="a_node2"><a xlink:href="../../db/dd3/phononBuilder_8h.html" target="_top" xlink:title=" ">
<polygon fill="none" stroke="black" points="66,-112.5 66,-131.5 188,-131.5 188,-112.5 66,-112.5"/>
<text text-anchor="middle" x="127" y="-119.5" font-family="Helvetica,sans-Serif" font-size="10.00">psim/phononBuilder.h</text>
</a>
</g>
</g>
<!-- Node1&#45;&gt;Node2 -->
<g id="edge1" class="edge">
<title>Node1&#45;&gt;Node2</title>
<path fill="none" stroke="midnightblue" d="M240.97,-336.34C229.44,-328.13 212.82,-314.87 202,-300 164.6,-248.6 141.33,-175.71 131.87,-141.75"/>
<polygon fill="midnightblue" stroke="midnightblue" points="135.18,-140.56 129.2,-131.82 128.42,-142.39 135.18,-140.56"/>
</g>
<!-- Node3 -->
<g id="node3" class="node">
<title>Node3</title>
<g id="a_node3"><a xlink:href="../../d3/d34/phonon_8h.html" target="_top" xlink:title=" ">
<polygon fill="none" stroke="black" points="358,-56.5 358,-75.5 420,-75.5 420,-56.5 358,-56.5"/>
<text text-anchor="middle" x="389" y="-63.5" font-family="Helvetica,sans-Serif" font-size="10.00">phonon.h</text>
</a>
</g>
</g>
<!-- Node1&#45;&gt;Node3 -->
<g id="edge53" class="edge">
<title>Node1&#45;&gt;Node3</title>
<path fill="none" stroke="midnightblue" d="M258.19,-336.38C277.05,-297.54 354.29,-138.47 380.36,-84.79"/>
<polygon fill="midnightblue" stroke="midnightblue" points="383.64,-86.05 384.86,-75.52 377.34,-82.99 383.64,-86.05"/>
</g>
<!-- Node5 -->
<g id="node5" class="node">
<title>Node5</title>
<g id="a_node5"><a xlink:title=" ">
<polygon fill="none" stroke="#bfbfbf" points="303.5,-0.5 303.5,-19.5 356.5,-19.5 356.5,-0.5 303.5,-0.5"/>
<text text-anchor="middle" x="330" y="-7.5" font-family="Helvetica,sans-Serif" font-size="10.00">cstddef</text>
</a>
</g>
</g>
<!-- Node1&#45;&gt;Node5 -->
<g id="edge58" class="edge">
<title>Node1&#45;&gt;Node5</title>
<path fill="none" stroke="midnightblue" d="M248.72,-336.23C238.27,-318.04 216,-274.6 216,-235 216,-235 216,-235 216,-121 216,-74.11 266.55,-40.89 300.33,-23.93"/>
<polygon fill="midnightblue" stroke="midnightblue" points="301.87,-27.07 309.36,-19.58 298.83,-20.77 301.87,-27.07"/>
</g>
<!-- Node7 -->
<g id="node7" class="node">
<title>Node7</title>
<g id="a_node7"><a xlink:title=" ">
<polygon fill="none" stroke="#bfbfbf" points="231.5,-0.5 231.5,-19.5 276.5,-19.5 276.5,-0.5 231.5,-0.5"/>
<text text-anchor="middle" x="254" y="-7.5" font-family="Helvetica,sans-Serif" font-size="10.00">utility</text>
</a>
</g>
</g>
<!-- Node1&#45;&gt;Node7 -->
<g id="edge60" class="edge">
<title>Node1&#45;&gt;Node7</title>
<path fill="none" stroke="midnightblue" d="M178.48,-343.07C103.61,-336.65 0,-313.57 0,-235 0,-235 0,-235 0,-121 0,-25.67 152.54,-12.03 221.2,-10.72"/>
<polygon fill="midnightblue" stroke="midnightblue" points="221.5,-14.22 231.46,-10.61 221.42,-7.22 221.5,-14.22"/>
</g>
<!-- Node8 -->
<g id="node8" class="node">
<title>Node8</title>
<g id="a_node8"><a xlink:title=" ">
<polygon fill="none" stroke="#bfbfbf" points="45.5,-56.5 45.5,-75.5 88.5,-75.5 88.5,-56.5 45.5,-56.5"/>
<text text-anchor="middle" x="67" y="-63.5" font-family="Helvetica,sans-Serif" font-size="10.00">stack</text>
</a>
</g>
</g>
<!-- Node1&#45;&gt;Node8 -->
<g id="edge59" class="edge">
<title>Node1&#45;&gt;Node8</title>
<path fill="none" stroke="midnightblue" d="M178.45,-337.39C116.17,-326.45 38,-299.81 38,-235 38,-235 38,-235 38,-177 38,-143.72 50.57,-106.58 59.16,-85.09"/>
<polygon fill="midnightblue" stroke="midnightblue" points="62.48,-86.21 63.09,-75.64 56.02,-83.53 62.48,-86.21"/>
</g>
<!-- Node9 -->
<g id="node9" class="node">
<title>Node9</title>
<g id="a_node9"><a xlink:href="../../d0/ddd/cell_8h.html" target="_top" xlink:title=" ">
<polygon fill="none" stroke="black" points="975,-280.5 975,-299.5 1045,-299.5 1045,-280.5 975,-280.5"/>
<text text-anchor="middle" x="1010" y="-287.5" font-family="Helvetica,sans-Serif" font-size="10.00">psim/cell.h</text>
</a>
</g>
</g>
<!-- Node1&#45;&gt;Node9 -->
<g id="edge10" class="edge">
<title>Node1&#45;&gt;Node9</title>
<path fill="none" stroke="midnightblue" d="M329.5,-339.9C449.37,-331.75 690.57,-315.17 895,-300 918,-298.29 943.58,-296.3 964.76,-294.62"/>
<polygon fill="midnightblue" stroke="midnightblue" points="965.08,-298.11 974.77,-293.83 964.53,-291.13 965.08,-298.11"/>
</g>
<!-- Node11 -->
<g id="node11" class="node">
<title>Node11</title>
<g id="a_node11"><a xlink:href="../../d4/d67/geometry_8h.html" target="_top" xlink:title=" ">
<polygon fill="none" stroke="black" points="970.5,-112.5 970.5,-131.5 1041.5,-131.5 1041.5,-112.5 970.5,-112.5"/>
<text text-anchor="middle" x="1006" y="-119.5" font-family="Helvetica,sans-Serif" font-size="10.00">geometry.h</text>
</a>
</g>
</g>
<!-- Node1&#45;&gt;Node11 -->
<g id="edge52" class="edge">
<title>Node1&#45;&gt;Node11</title>
<path fill="none" stroke="midnightblue" d="M307.07,-336.43C354.91,-328.32 427.07,-315.16 489,-300 650.93,-260.36 690.52,-245.52 847,-188 892.72,-171.19 944.82,-149.38 976.55,-135.78"/>
<polygon fill="midnightblue" stroke="midnightblue" points="978.3,-138.84 986.1,-131.67 975.53,-132.41 978.3,-138.84"/>
</g>
<!-- Node16 -->
<g id="node16" class="node">
<title>Node16</title>
<g id="a_node16"><a xlink:href="../../d2/d69/surface_8h.html" target="_top" xlink:title=" ">
<polygon fill="none" stroke="black" points="776,-168.5 776,-187.5 838,-187.5 838,-168.5 776,-168.5"/>
<text text-anchor="middle" x="807" y="-175.5" font-family="Helvetica,sans-Serif" font-size="10.00">surface.h</text>
</a>
</g>
</g>
<!-- Node1&#45;&gt;Node16 -->
<g id="edge54" class="edge">
<title>Node1&#45;&gt;Node16</title>
<path fill="none" stroke="midnightblue" d="M291.14,-336.49C359.71,-320.48 510.54,-283.9 635,-244 685.49,-227.81 742.87,-205.27 776.95,-191.43"/>
<polygon fill="midnightblue" stroke="midnightblue" points="778.39,-194.62 786.33,-187.6 775.74,-188.14 778.39,-194.62"/>
</g>
<!-- Node24 -->
<g id="node24" class="node">
<title>Node24</title>
<g id="a_node24"><a xlink:href="../../d5/d60/utils_8h.html" target="_top" xlink:title=" ">
<polygon fill="none" stroke="black" points="1313,-280.5 1313,-299.5 1387,-299.5 1387,-280.5 1313,-280.5"/>
<text text-anchor="middle" x="1350" y="-287.5" font-family="Helvetica,sans-Serif" font-size="10.00">psim/utils.h</text>
</a>
</g>
</g>
<!-- Node1&#45;&gt;Node24 -->
<g id="edge55" class="edge">
<title>Node1&#45;&gt;Node24</title>
<path fill="none" stroke="midnightblue" d="M329.76,-341.27C540.84,-330.87 1131.31,-301.77 1302.76,-293.33"/>
<polygon fill="midnightblue" stroke="midnightblue" points="1303.16,-296.81 1312.97,-292.82 1302.81,-289.82 1303.16,-296.81"/>
</g>
<!-- Node2&#45;&gt;Node3 -->
<g id="edge2" class="edge">
<title>Node2&#45;&gt;Node3</title>
<path fill="none" stroke="midnightblue" d="M168.51,-112.44C217.68,-102.31 299.07,-85.54 348.01,-75.45"/>
<polygon fill="midnightblue" stroke="midnightblue" points="348.85,-78.85 357.94,-73.4 347.43,-71.99 348.85,-78.85"/>
</g>
<!-- Node2&#45;&gt;Node5 -->
<g id="edge7" class="edge">
<title>Node2&#45;&gt;Node5</title>
<path fill="none" stroke="midnightblue" d="M134.95,-112.25C147.83,-98.53 174.58,-71.92 202,-56 230.77,-39.29 266.76,-27.32 293.25,-19.95"/>
<polygon fill="midnightblue" stroke="midnightblue" points="294.5,-23.23 303.25,-17.25 292.68,-16.47 294.5,-23.23"/>
</g>
<!-- Node2&#45;&gt;Node7 -->
<g id="edge9" class="edge">
<title>Node2&#45;&gt;Node7</title>
<path fill="none" stroke="midnightblue" d="M129.1,-112.31C132.8,-98.7 141.68,-72.21 158,-56 175.62,-38.5 201.33,-26.94 221.71,-19.93"/>
<polygon fill="midnightblue" stroke="midnightblue" points="222.8,-23.26 231.23,-16.85 220.64,-16.6 222.8,-23.26"/>
</g>
<!-- Node2&#45;&gt;Node8 -->
<g id="edge8" class="edge">
<title>Node2&#45;&gt;Node8</title>
<path fill="none" stroke="midnightblue" d="M117.36,-112.32C108.49,-104.34 95.13,-92.31 84.39,-82.65"/>
<polygon fill="midnightblue" stroke="midnightblue" points="86.59,-79.92 76.82,-75.83 81.91,-85.13 86.59,-79.92"/>
</g>
<!-- Node4 -->
<g id="node4" class="node">
<title>Node4</title>
<g id="a_node4"><a xlink:title=" ">
<polygon fill="none" stroke="#bfbfbf" points="903,-0.5 903,-19.5 945,-19.5 945,-0.5 903,-0.5"/>
<text text-anchor="middle" x="924" y="-7.5" font-family="Helvetica,sans-Serif" font-size="10.00">array</text>
</a>
</g>
</g>
<!-- Node3&#45;&gt;Node4 -->
<g id="edge3" class="edge">
<title>Node3&#45;&gt;Node4</title>
<path fill="none" stroke="midnightblue" d="M420.13,-61.56C435.7,-59.85 454.84,-57.78 472,-56 630.12,-39.56 819.49,-21.11 892.85,-14.01"/>
<polygon fill="midnightblue" stroke="midnightblue" points="893.2,-17.49 902.81,-13.04 892.52,-10.52 893.2,-17.49"/>
</g>
<!-- Node3&#45;&gt;Node5 -->
<g id="edge4" class="edge">
<title>Node3&#45;&gt;Node5</title>
<path fill="none" stroke="midnightblue" d="M379.52,-56.32C370.8,-48.34 357.66,-36.31 347.1,-26.65"/>
<polygon fill="midnightblue" stroke="midnightblue" points="349.39,-24 339.65,-19.83 344.67,-29.17 349.39,-24"/>
</g>
<!-- Node6 -->
<g id="node6" class="node">
<title>Node6</title>
<g id="a_node6"><a xlink:title=" ">
<polygon fill="none" stroke="#bfbfbf" points="642.5,-0.5 642.5,-19.5 699.5,-19.5 699.5,-0.5 642.5,-0.5"/>
<text text-anchor="middle" x="671" y="-7.5" font-family="Helvetica,sans-Serif" font-size="10.00">ostream</text>
</a>
</g>
</g>
<!-- Node3&#45;&gt;Node6 -->
<g id="edge5" class="edge">
<title>Node3&#45;&gt;Node6</title>
<path fill="none" stroke="midnightblue" d="M420.26,-59.01C472.1,-49.09 575.73,-29.24 632.18,-18.43"/>
<polygon fill="midnightblue" stroke="midnightblue" points="632.98,-21.84 642.15,-16.53 631.67,-14.97 632.98,-21.84"/>
</g>
<!-- Node3&#45;&gt;Node7 -->
<g id="edge6" class="edge">
<title>Node3&#45;&gt;Node7</title>
<path fill="none" stroke="midnightblue" d="M367.61,-56.44C345.29,-47.52 310.1,-33.44 284.79,-23.32"/>
<polygon fill="midnightblue" stroke="midnightblue" points="285.88,-19.98 275.29,-19.52 283.28,-26.48 285.88,-19.98"/>
</g>
<!-- Node9&#45;&gt;Node4 -->
<g id="edge46" class="edge">
<title>Node9&#45;&gt;Node4</title>
<path fill="none" stroke="midnightblue" d="M1045.3,-286.74C1089.93,-282.78 1168.24,-272.13 1229,-244 1271.52,-224.32 1312,-225.85 1312,-179 1312,-179 1312,-179 1312,-121 1312,-47 1047.47,-20.21 955.25,-13.12"/>
<polygon fill="midnightblue" stroke="midnightblue" points="955.37,-9.62 945.14,-12.36 954.85,-16.6 955.37,-9.62"/>
</g>
<!-- Node9&#45;&gt;Node5 -->
<g id="edge47" class="edge">
<title>Node9&#45;&gt;Node5</title>
<path fill="none" stroke="midnightblue" d="M974.72,-287.56C868.38,-283.01 552.11,-267.78 452,-244 377.32,-226.26 292,-255.76 292,-179 292,-179 292,-179 292,-121 292,-86.81 308.6,-49.76 319.86,-28.57"/>
<polygon fill="midnightblue" stroke="midnightblue" points="322.95,-30.22 324.72,-19.77 316.82,-26.83 322.95,-30.22"/>
</g>
<!-- Node10 -->
<g id="node10" class="node">
<title>Node10</title>
<g id="a_node10"><a xlink:href="../../d8/d77/compositeSurface_8h.html" target="_top" xlink:title=" ">
<polygon fill="none" stroke="black" points="1038.5,-224.5 1038.5,-243.5 1151.5,-243.5 1151.5,-224.5 1038.5,-224.5"/>
<text text-anchor="middle" x="1095" y="-231.5" font-family="Helvetica,sans-Serif" font-size="10.00">compositeSurface.h</text>
</a>
</g>
</g>
<!-- Node9&#45;&gt;Node10 -->
<g id="edge11" class="edge">
<title>Node9&#45;&gt;Node10</title>
<path fill="none" stroke="midnightblue" d="M1023.66,-280.32C1036.92,-271.9 1057.27,-258.97 1072.85,-249.07"/>
<polygon fill="midnightblue" stroke="midnightblue" points="1074.81,-251.97 1081.38,-243.65 1071.06,-246.06 1074.81,-251.97"/>
</g>
<!-- Node9&#45;&gt;Node11 -->
<g id="edge33" class="edge">
<title>Node9&#45;&gt;Node11</title>
<path fill="none" stroke="midnightblue" d="M1009.78,-280.08C1009.16,-253.95 1007.31,-177.21 1006.45,-141.58"/>
<polygon fill="midnightblue" stroke="midnightblue" points="1009.95,-141.48 1006.21,-131.57 1002.95,-141.65 1009.95,-141.48"/>
</g>
<!-- Node12 -->
<g id="node12" class="node">
<title>Node12</title>
<g id="a_node12"><a xlink:title=" ">
<polygon fill="none" stroke="#bfbfbf" points="1137.5,-56.5 1137.5,-75.5 1202.5,-75.5 1202.5,-56.5 1137.5,-56.5"/>
<text text-anchor="middle" x="1170" y="-63.5" font-family="Helvetica,sans-Serif" font-size="10.00">exception</text>
</a>
</g>
</g>
<!-- Node9&#45;&gt;Node12 -->
<g id="edge48" class="edge">
<title>Node9&#45;&gt;Node12</title>
<path fill="none" stroke="midnightblue" d="M1045.24,-289.67C1087.59,-288.66 1158.72,-280.98 1205,-244 1233,-221.62 1241.74,-202.5 1232,-168 1222.73,-135.18 1199.47,-102.52 1184.23,-83.57"/>
<polygon fill="midnightblue" stroke="midnightblue" points="1186.75,-81.13 1177.67,-75.65 1181.35,-85.59 1186.75,-81.13"/>
</g>
<!-- Node14 -->
<g id="node14" class="node">
<title>Node14</title>
<g id="a_node14"><a xlink:title=" ">
<polygon fill="none" stroke="#bfbfbf" points="1072,-56.5 1072,-75.5 1116,-75.5 1116,-56.5 1072,-56.5"/>
<text text-anchor="middle" x="1094" y="-63.5" font-family="Helvetica,sans-Serif" font-size="10.00">string</text>
</a>
</g>
</g>
<!-- Node9&#45;&gt;Node14 -->
<g id="edge50" class="edge">
<title>Node9&#45;&gt;Node14</title>
<path fill="none" stroke="midnightblue" d="M1045.28,-287.14C1082.26,-283.62 1140.52,-273.41 1181,-244 1204.94,-226.61 1208.66,-216.39 1217,-188 1232,-136.91 1166.87,-98.43 1125.66,-79.68"/>
<polygon fill="midnightblue" stroke="midnightblue" points="1126.82,-76.37 1116.26,-75.56 1124.01,-82.78 1126.82,-76.37"/>
</g>
<!-- Node15 -->
<g id="node15" class="node">
<title>Node15</title>
<g id="a_node15"><a xlink:title=" ">
<polygon fill="none" stroke="#bfbfbf" points="702.5,-56.5 702.5,-75.5 775.5,-75.5 775.5,-56.5 702.5,-56.5"/>
<text text-anchor="middle" x="739" y="-63.5" font-family="Helvetica,sans-Serif" font-size="10.00">string_view</text>
</a>
</g>
</g>
<!-- Node9&#45;&gt;Node15 -->
<g id="edge51" class="edge">
<title>Node9&#45;&gt;Node15</title>
<path fill="none" stroke="midnightblue" d="M999.38,-280.3C958.31,-246.66 809.65,-124.88 757.35,-82.03"/>
<polygon fill="midnightblue" stroke="midnightblue" points="759.5,-79.27 749.55,-75.64 755.07,-84.69 759.5,-79.27"/>
</g>
<!-- Node17 -->
<g id="node17" class="node">
<title>Node17</title>
<g id="a_node17"><a xlink:href="../../d3/d65/material_8h.html" target="_top" xlink:title=" ">
<polygon fill="none" stroke="black" points="404.5,-112.5 404.5,-131.5 471.5,-131.5 471.5,-112.5 404.5,-112.5"/>
<text text-anchor="middle" x="438" y="-119.5" font-family="Helvetica,sans-Serif" font-size="10.00">material.h</text>
</a>
</g>
</g>
<!-- Node9&#45;&gt;Node17 -->
<g id="edge34" class="edge">
<title>Node9&#45;&gt;Node17</title>
<path fill="none" stroke="midnightblue" d="M974.74,-288.7C898.17,-287.36 711.37,-280.29 560,-244 493.22,-227.99 454.77,-244.68 416,-188 405.96,-173.32 415.11,-153.65 424.49,-139.81"/>
<polygon fill="midnightblue" stroke="midnightblue" points="427.37,-141.8 430.48,-131.67 421.73,-137.65 427.37,-141.8"/>
</g>
<!-- Node19 -->
<g id="node19" class="node">
<title>Node19</title>
<g id="a_node19"><a xlink:title=" ">
<polygon fill="none" stroke="#bfbfbf" points="1160,-168.5 1160,-187.5 1208,-187.5 1208,-168.5 1160,-168.5"/>
<text text-anchor="middle" x="1184" y="-175.5" font-family="Helvetica,sans-Serif" font-size="10.00">iosfwd</text>
</a>
</g>
</g>
<!-- Node9&#45;&gt;Node19 -->
<g id="edge49" class="edge">
<title>Node9&#45;&gt;Node19</title>
<path fill="none" stroke="midnightblue" d="M1045.03,-287.42C1078.86,-284.07 1129.48,-273.97 1161,-244 1173.72,-231.91 1179.41,-212.34 1181.96,-197.83"/>
<polygon fill="midnightblue" stroke="midnightblue" points="1185.42,-198.32 1183.35,-187.93 1178.49,-197.35 1185.42,-198.32"/>
</g>
<!-- Node20 -->
<g id="node20" class="node">
<title>Node20</title>
<g id="a_node20"><a xlink:href="../../d5/d2e/sensor_8h.html" target="_top" xlink:title=" ">
<polygon fill="none" stroke="black" points="568.5,-224.5 568.5,-243.5 625.5,-243.5 625.5,-224.5 568.5,-224.5"/>
<text text-anchor="middle" x="597" y="-231.5" font-family="Helvetica,sans-Serif" font-size="10.00">sensor.h</text>
</a>
</g>
</g>
<!-- Node9&#45;&gt;Node20 -->
<g id="edge35" class="edge">
<title>Node9&#45;&gt;Node20</title>
<path fill="none" stroke="midnightblue" d="M974.79,-284.4C897.97,-274.35 715.81,-250.53 635.81,-240.07"/>
<polygon fill="midnightblue" stroke="midnightblue" points="636.04,-236.58 625.68,-238.75 635.14,-243.52 636.04,-236.58"/>
</g>
<!-- Node10&#45;&gt;Node11 -->
<g id="edge12" class="edge">
<title>Node10&#45;&gt;Node11</title>
<path fill="none" stroke="midnightblue" d="M1088.02,-224.37C1073.26,-206.14 1038.71,-163.43 1019.49,-139.68"/>
<polygon fill="midnightblue" stroke="midnightblue" points="1021.96,-137.16 1012.95,-131.59 1016.52,-141.57 1021.96,-137.16"/>
</g>
<!-- Node10&#45;&gt;Node12 -->
<g id="edge28" class="edge">
<title>Node10&#45;&gt;Node12</title>
<path fill="none" stroke="midnightblue" d="M1099.03,-224.08C1110.89,-197.83 1145.81,-120.55 1161.81,-85.12"/>
<polygon fill="midnightblue" stroke="midnightblue" points="1165.2,-86.12 1166.13,-75.57 1158.82,-83.24 1165.2,-86.12"/>
</g>
<!-- Node10&#45;&gt;Node14 -->
<g id="edge30" class="edge">
<title>Node10&#45;&gt;Node14</title>
<path fill="none" stroke="midnightblue" d="M1094.95,-224.08C1094.79,-197.95 1094.33,-121.21 1094.11,-85.58"/>
<polygon fill="midnightblue" stroke="midnightblue" points="1097.61,-85.55 1094.05,-75.57 1090.61,-85.59 1097.61,-85.55"/>
</g>
<!-- Node10&#45;&gt;Node15 -->
<g id="edge31" class="edge">
<title>Node10&#45;&gt;Node15</title>
<path fill="none" stroke="midnightblue" d="M1081.91,-224.37C1049.07,-203.01 960.11,-146.89 880,-112 848.11,-98.11 810.52,-86.33 782.17,-78.31"/>
<polygon fill="midnightblue" stroke="midnightblue" points="782.75,-74.83 772.17,-75.52 780.87,-81.58 782.75,-74.83"/>
</g>
<!-- Node10&#45;&gt;Node16 -->
<g id="edge20" class="edge">
<title>Node10&#45;&gt;Node16</title>
<path fill="none" stroke="midnightblue" d="M1049.37,-224.44C994.05,-214.07 901.64,-196.75 848.34,-186.75"/>
<polygon fill="midnightblue" stroke="midnightblue" points="848.69,-183.26 838.22,-184.85 847.4,-190.14 848.69,-183.26"/>
</g>
<!-- Node18 -->
<g id="node18" class="node">
<title>Node18</title>
<g id="a_node18"><a xlink:title=" ">
<polygon fill="none" stroke="#bfbfbf" points="552.5,-56.5 552.5,-75.5 599.5,-75.5 599.5,-56.5 552.5,-56.5"/>
<text text-anchor="middle" x="576" y="-63.5" font-family="Helvetica,sans-Serif" font-size="10.00">vector</text>
</a>
</g>
</g>
<!-- Node10&#45;&gt;Node18 -->
<g id="edge32" class="edge">
<title>Node10&#45;&gt;Node18</title>
<path fill="none" stroke="midnightblue" d="M1068.19,-224.42C980.97,-196.53 705.41,-108.39 609.39,-77.68"/>
<polygon fill="midnightblue" stroke="midnightblue" points="610.22,-74.27 599.63,-74.56 608.08,-80.94 610.22,-74.27"/>
</g>
<!-- Node10&#45;&gt;Node19 -->
<g id="edge29" class="edge">
<title>Node10&#45;&gt;Node19</title>
<path fill="none" stroke="midnightblue" d="M1109.3,-224.32C1123.18,-215.9 1144.49,-202.97 1160.8,-193.07"/>
<polygon fill="midnightblue" stroke="midnightblue" points="1163,-195.83 1169.74,-187.65 1159.37,-189.85 1163,-195.83"/>
</g>
<!-- Node11&#45;&gt;Node4 -->
<g id="edge13" class="edge">
<title>Node11&#45;&gt;Node4</title>
<path fill="none" stroke="midnightblue" d="M1005.26,-112.22C1003.77,-98.94 999.39,-73.45 987,-56 977.73,-42.95 963.45,-32.3 950.83,-24.65"/>
<polygon fill="midnightblue" stroke="midnightblue" points="952.45,-21.54 942.03,-19.61 948.97,-27.61 952.45,-21.54"/>
</g>
<!-- Node11&#45;&gt;Node6 -->
<g id="edge16" class="edge">
<title>Node11&#45;&gt;Node6</title>
<path fill="none" stroke="midnightblue" d="M982.05,-112.41C946.42,-99.7 877.27,-75.31 818,-56 781.34,-44.06 739.24,-31.26 709.52,-22.38"/>
<polygon fill="midnightblue" stroke="midnightblue" points="710.13,-18.91 699.55,-19.41 708.13,-25.62 710.13,-18.91"/>
</g>
<!-- Node11&#45;&gt;Node7 -->
<g id="edge19" class="edge">
<title>Node11&#45;&gt;Node7</title>
<path fill="none" stroke="midnightblue" d="M970.4,-113.85C923.93,-104.29 845.32,-87.23 818,-76 802.14,-69.48 801.34,-61.22 785,-56 576.98,10.43 511.08,-51.49 295,-20 292.32,-19.61 289.56,-19.14 286.79,-18.63"/>
<polygon fill="midnightblue" stroke="midnightblue" points="287.37,-15.18 276.88,-16.63 285.99,-22.04 287.37,-15.18"/>
</g>
<!-- Node11&#45;&gt;Node12 -->
<g id="edge14" class="edge">
<title>Node11&#45;&gt;Node12</title>
<path fill="none" stroke="midnightblue" d="M1031.99,-112.44C1059.7,-103.32 1103.75,-88.81 1134.62,-78.65"/>
<polygon fill="midnightblue" stroke="midnightblue" points="1135.73,-81.97 1144.14,-75.52 1133.54,-75.32 1135.73,-81.97"/>
</g>
<!-- Node13 -->
<g id="node13" class="node">
<title>Node13</title>
<g id="a_node13"><a xlink:title=" ">
<polygon fill="none" stroke="#bfbfbf" points="922,-56.5 922,-75.5 978,-75.5 978,-56.5 922,-56.5"/>
<text text-anchor="middle" x="950" y="-63.5" font-family="Helvetica,sans-Serif" font-size="10.00">optional</text>
</a>
</g>
</g>
<!-- Node11&#45;&gt;Node13 -->
<g id="edge15" class="edge">
<title>Node11&#45;&gt;Node13</title>
<path fill="none" stroke="midnightblue" d="M997,-112.32C988.81,-104.42 976.49,-92.55 966.53,-82.94"/>
<polygon fill="midnightblue" stroke="midnightblue" points="968.79,-80.26 959.16,-75.83 963.93,-85.29 968.79,-80.26"/>
</g>
<!-- Node11&#45;&gt;Node14 -->
<g id="edge17" class="edge">
<title>Node11&#45;&gt;Node14</title>
<path fill="none" stroke="midnightblue" d="M1020.14,-112.32C1033.87,-103.9 1054.94,-90.97 1071.06,-81.07"/>
<polygon fill="midnightblue" stroke="midnightblue" points="1073.2,-83.87 1079.9,-75.65 1069.54,-77.9 1073.2,-83.87"/>
</g>
<!-- Node11&#45;&gt;Node15 -->
<g id="edge18" class="edge">
<title>Node11&#45;&gt;Node15</title>
<path fill="none" stroke="midnightblue" d="M970.27,-113.77C922.71,-104.15 838.51,-87.12 785.89,-76.48"/>
<polygon fill="midnightblue" stroke="midnightblue" points="786.3,-73 775.8,-74.44 784.91,-79.86 786.3,-73"/>
</g>
<!-- Node16&#45;&gt;Node11 -->
<g id="edge21" class="edge">
<title>Node16&#45;&gt;Node11</title>
<path fill="none" stroke="midnightblue" d="M838.09,-168.56C872.21,-159.3 927.13,-144.4 964.81,-134.18"/>
<polygon fill="midnightblue" stroke="midnightblue" points="965.73,-137.55 974.47,-131.56 963.9,-130.8 965.73,-137.55"/>
</g>
<!-- Node16&#45;&gt;Node17 -->
<g id="edge22" class="edge">
<title>Node16&#45;&gt;Node17</title>
<path fill="none" stroke="midnightblue" d="M775.86,-172.44C710.14,-162.83 557.16,-140.44 481.69,-129.39"/>
<polygon fill="midnightblue" stroke="midnightblue" points="481.97,-125.9 471.57,-127.91 480.96,-132.82 481.97,-125.9"/>
</g>
<!-- Node17&#45;&gt;Node3 -->
<g id="edge23" class="edge">
<title>Node17&#45;&gt;Node3</title>
<path fill="none" stroke="midnightblue" d="M429.91,-112.08C422.84,-104.3 412.41,-92.8 403.85,-83.37"/>
<polygon fill="midnightblue" stroke="midnightblue" points="406.25,-80.8 396.94,-75.75 401.07,-85.51 406.25,-80.8"/>
</g>
<!-- Node17&#45;&gt;Node4 -->
<g id="edge24" class="edge">
<title>Node17&#45;&gt;Node4</title>
<path fill="none" stroke="midnightblue" d="M448.35,-112.49C466.46,-98.12 505.66,-69.3 544,-56 667.66,-13.09 826.07,-9.58 892.49,-10.23"/>
<polygon fill="midnightblue" stroke="midnightblue" points="892.65,-13.74 902.7,-10.38 892.75,-6.74 892.65,-13.74"/>
</g>
<!-- Node17&#45;&gt;Node5 -->
<g id="edge25" class="edge">
<title>Node17&#45;&gt;Node5</title>
<path fill="none" stroke="midnightblue" d="M439.24,-112.45C440.7,-99.03 441.53,-72.8 429,-56 414.09,-36.01 388.21,-24.67 366.65,-18.37"/>
<polygon fill="midnightblue" stroke="midnightblue" points="367.36,-14.94 356.79,-15.75 365.56,-21.7 367.36,-14.94"/>
</g>
<!-- Node17&#45;&gt;Node7 -->
<g id="edge26" class="edge">
<title>Node17&#45;&gt;Node7</title>
<path fill="none" stroke="midnightblue" d="M419.21,-112.39C400.93,-103.8 372.55,-89.93 349,-76 321.97,-60.02 292.34,-39.17 273.48,-25.45"/>
<polygon fill="midnightblue" stroke="midnightblue" points="275.51,-22.6 265.38,-19.51 271.37,-28.25 275.51,-22.6"/>
</g>
<!-- Node17&#45;&gt;Node18 -->
<g id="edge27" class="edge">
<title>Node17&#45;&gt;Node18</title>
<path fill="none" stroke="midnightblue" d="M459.87,-112.44C482.78,-103.48 518.98,-89.31 544.87,-79.18"/>
<polygon fill="midnightblue" stroke="midnightblue" points="546.2,-82.42 554.24,-75.52 543.65,-75.9 546.2,-82.42"/>
</g>
<!-- Node20&#45;&gt;Node4 -->
<g id="edge41" class="edge">
<title>Node20&#45;&gt;Node4</title>
<path fill="none" stroke="midnightblue" d="M625.68,-224.72C658.88,-214.87 711.27,-198.45 729,-188 806.7,-142.18 880.45,-61.87 910.19,-27.43"/>
<polygon fill="midnightblue" stroke="midnightblue" points="912.95,-29.59 916.78,-19.72 907.63,-25.05 912.95,-29.59"/>
</g>
<!-- Node20&#45;&gt;Node5 -->
<g id="edge42" class="edge">
<title>Node20&#45;&gt;Node5</title>
<path fill="none" stroke="midnightblue" d="M568.43,-232.5C530.17,-230.47 461.79,-221.93 416,-188 362.51,-148.37 340.63,-66.53 333.22,-29.69"/>
<polygon fill="midnightblue" stroke="midnightblue" points="336.65,-28.99 331.37,-19.8 329.77,-30.27 336.65,-28.99"/>
</g>
<!-- Node20&#45;&gt;Node17 -->
<g id="edge36" class="edge">
<title>Node20&#45;&gt;Node17</title>
<path fill="none" stroke="midnightblue" d="M568.48,-229.68C524.48,-223.9 443.29,-210.43 426,-188 415.63,-174.54 421.27,-154.91 427.87,-140.74"/>
<polygon fill="midnightblue" stroke="midnightblue" points="431.13,-142.05 432.63,-131.56 424.92,-138.83 431.13,-142.05"/>
</g>
<!-- Node20&#45;&gt;Node18 -->
<g id="edge45" class="edge">
<title>Node20&#45;&gt;Node18</title>
<path fill="none" stroke="midnightblue" d="M594.75,-224.44C592.47,-215.43 589,-200.81 587,-188 581.39,-152 578.34,-109.49 576.95,-85.65"/>
<polygon fill="midnightblue" stroke="midnightblue" points="580.44,-85.35 576.4,-75.55 573.45,-85.73 580.44,-85.35"/>
</g>
<!-- Node21 -->
<g id="node21" class="node">
<title>Node21</title>
<g id="a_node21"><a xlink:href="../../da/d16/sensorController_8h.html" target="_top" xlink:title=" ">
<polygon fill="none" stroke="black" points="434.5,-168.5 434.5,-187.5 539.5,-187.5 539.5,-168.5 434.5,-168.5"/>
<text text-anchor="middle" x="487" y="-175.5" font-family="Helvetica,sans-Serif" font-size="10.00">sensorController.h</text>
</a>
</g>
</g>
<!-- Node20&#45;&gt;Node21 -->
<g id="edge37" class="edge">
<title>Node20&#45;&gt;Node21</title>
<path fill="none" stroke="midnightblue" d="M579.33,-224.32C561.61,-215.62 534.1,-202.12 513.71,-192.11"/>
<polygon fill="midnightblue" stroke="midnightblue" points="515.15,-188.92 504.63,-187.65 512.06,-195.2 515.15,-188.92"/>
</g>
<!-- Node22 -->
<g id="node22" class="node">
<title>Node22</title>
<g id="a_node22"><a xlink:title=" ">
<polygon fill="none" stroke="#bfbfbf" points="596,-168.5 596,-187.5 654,-187.5 654,-168.5 596,-168.5"/>
<text text-anchor="middle" x="625" y="-175.5" font-family="Helvetica,sans-Serif" font-size="10.00">memory</text>
</a>
</g>
</g>
<!-- Node20&#45;&gt;Node22 -->
<g id="edge43" class="edge">
<title>Node20&#45;&gt;Node22</title>
<path fill="none" stroke="midnightblue" d="M601.62,-224.08C605.46,-216.69 611.02,-205.95 615.76,-196.81"/>
<polygon fill="midnightblue" stroke="midnightblue" points="618.97,-198.24 620.46,-187.75 612.75,-195.02 618.97,-198.24"/>
</g>
<!-- Node23 -->
<g id="node23" class="node">
<title>Node23</title>
<g id="a_node23"><a xlink:title=" ">
<polygon fill="none" stroke="#bfbfbf" points="672,-168.5 672,-187.5 720,-187.5 720,-168.5 672,-168.5"/>
<text text-anchor="middle" x="696" y="-175.5" font-family="Helvetica,sans-Serif" font-size="10.00">mutex</text>
</a>
</g>
</g>
<!-- Node20&#45;&gt;Node23 -->
<g id="edge44" class="edge">
<title>Node20&#45;&gt;Node23</title>
<path fill="none" stroke="midnightblue" d="M612.91,-224.32C628.64,-215.74 652.94,-202.49 671.21,-192.52"/>
<polygon fill="midnightblue" stroke="midnightblue" points="673.03,-195.52 680.13,-187.65 669.68,-189.37 673.03,-195.52"/>
</g>
<!-- Node21&#45;&gt;Node5 -->
<g id="edge39" class="edge">
<title>Node21&#45;&gt;Node5</title>
<path fill="none" stroke="midnightblue" d="M487.42,-168.34C487.76,-155.64 487.39,-131.37 481,-112 471.87,-84.35 469.34,-74.67 447,-56 423.81,-36.62 391.35,-25.02 366.5,-18.47"/>
<polygon fill="midnightblue" stroke="midnightblue" points="367.26,-15.05 356.71,-16.04 365.57,-21.85 367.26,-15.05"/>
</g>
<!-- Node21&#45;&gt;Node17 -->
<g id="edge38" class="edge">
<title>Node21&#45;&gt;Node17</title>
<path fill="none" stroke="midnightblue" d="M478.91,-168.08C471.84,-160.3 461.41,-148.8 452.85,-139.37"/>
<polygon fill="midnightblue" stroke="midnightblue" points="455.25,-136.8 445.94,-131.75 450.07,-141.51 455.25,-136.8"/>
</g>
<!-- Node21&#45;&gt;Node18 -->
<g id="edge40" class="edge">
<title>Node21&#45;&gt;Node18</title>
<path fill="none" stroke="midnightblue" d="M493.98,-168.37C508.74,-150.14 543.29,-107.43 562.51,-83.68"/>
<polygon fill="midnightblue" stroke="midnightblue" points="565.48,-85.57 569.05,-75.59 560.04,-81.16 565.48,-85.57"/>
</g>
<!-- Node24&#45;&gt;Node4 -->
<g id="edge56" class="edge">
<title>Node24&#45;&gt;Node4</title>
<path fill="none" stroke="midnightblue" d="M1350,-280.44C1350,-261.94 1350,-216.81 1350,-179 1350,-179 1350,-179 1350,-121 1350,-39.46 1053.71,-17.42 955.33,-12.35"/>
<polygon fill="midnightblue" stroke="midnightblue" points="955.29,-8.84 945.13,-11.85 954.94,-15.83 955.29,-8.84"/>
</g>
<!-- Node25 -->
<g id="node25" class="node">
<title>Node25</title>
<g id="a_node25"><a xlink:title=" ">
<polygon fill="none" stroke="#bfbfbf" points="1378,-224.5 1378,-243.5 1432,-243.5 1432,-224.5 1378,-224.5"/>
<text text-anchor="middle" x="1405" y="-231.5" font-family="Helvetica,sans-Serif" font-size="10.00">random</text>
</a>
</g>
</g>
<!-- Node24&#45;&gt;Node25 -->
<g id="edge57" class="edge">
<title>Node24&#45;&gt;Node25</title>
<path fill="none" stroke="midnightblue" d="M1359.08,-280.08C1367.17,-272.14 1379.2,-260.34 1388.91,-250.8"/>
<polygon fill="midnightblue" stroke="midnightblue" points="1391.4,-253.25 1396.09,-243.75 1386.5,-248.26 1391.4,-253.25"/>
</g>
</g>
</svg>
