<?xml version="1.0" encoding="UTF-8" standalone="no"?>
<!DOCTYPE svg PUBLIC "-//W3C//DTD SVG 1.1//EN"
 "http://www.w3.org/Graphics/SVG/1.1/DTD/svg11.dtd">
<!-- Generated by graphviz version 2.43.0 (0)
 -->
<!-- Title: InputManager::deserialize Pages: 1 -->
<svg width="559pt" height="123pt"
 viewBox="0.00 0.00 559.00 123.00" xmlns="http://www.w3.org/2000/svg" xmlns:xlink="http://www.w3.org/1999/xlink">
<g id="graph0" class="graph" transform="scale(1 1) rotate(0) translate(4 119)">
<title>InputManager::deserialize</title>
<!-- Node1 -->
<g id="node1" class="node">
<title>Node1</title>
<g id="a_node1"><a xlink:title=" ">
<polygon fill="#bfbfbf" stroke="black" points="0,-57.5 0,-76.5 143,-76.5 143,-57.5 0,-57.5"/>
<text text-anchor="middle" x="71.5" y="-64.5" font-family="Helvetica,sans-Serif" font-size="10.00">InputManager::deserialize</text>
</a>
</g>
</g>
<!-- Node2 -->
<g id="node2" class="node">
<title>Node2</title>
<g id="a_node2"><a xlink:href="../../d6/d18/classModel.html#ae01870b09072266df016ee00c7753f49" target="_top" xlink:title=" ">
<polygon fill="none" stroke="black" points="198.5,-95.5 198.5,-114.5 302.5,-114.5 302.5,-95.5 198.5,-95.5"/>
<text text-anchor="middle" x="250.5" y="-102.5" font-family="Helvetica,sans-Serif" font-size="10.00">Model::addSensor</text>
</a>
</g>
</g>
<!-- Node1&#45;&gt;Node2 -->
<g id="edge1" class="edge">
<title>Node1&#45;&gt;Node2</title>
<path fill="none" stroke="midnightblue" d="M117.16,-76.59C140.84,-81.67 170.11,-87.96 195.1,-93.32"/>
<polygon fill="midnightblue" stroke="midnightblue" points="194.64,-96.8 205.16,-95.48 196.11,-89.96 194.64,-96.8"/>
</g>
<!-- Node3 -->
<g id="node3" class="node">
<title>Node3</title>
<g id="a_node3"><a xlink:href="../../d6/d18/classModel.html#ad5a2ea46701f29eadc1a5a236bb12eb8" target="_top" xlink:title=" ">
<polygon fill="none" stroke="black" points="187,-57.5 187,-76.5 314,-76.5 314,-57.5 187,-57.5"/>
<text text-anchor="middle" x="250.5" y="-64.5" font-family="Helvetica,sans-Serif" font-size="10.00">Model::setEmitSurface</text>
</a>
</g>
</g>
<!-- Node1&#45;&gt;Node3 -->
<g id="edge2" class="edge">
<title>Node1&#45;&gt;Node3</title>
<path fill="none" stroke="midnightblue" d="M143.22,-67C154.28,-67 165.72,-67 176.82,-67"/>
<polygon fill="midnightblue" stroke="midnightblue" points="176.9,-70.5 186.9,-67 176.9,-63.5 176.9,-70.5"/>
</g>
<!-- Node4 -->
<g id="node4" class="node">
<title>Node4</title>
<g id="a_node4"><a xlink:href="../../d6/d18/classModel.html#a5a1a8f2b95d4ae9931313225278bd715" target="_top" xlink:title=" ">
<polygon fill="none" stroke="black" points="179,-19.5 179,-38.5 322,-38.5 322,-19.5 179,-19.5"/>
<text text-anchor="middle" x="250.5" y="-26.5" font-family="Helvetica,sans-Serif" font-size="10.00">Model::setSimulationType</text>
</a>
</g>
</g>
<!-- Node1&#45;&gt;Node4 -->
<g id="edge3" class="edge">
<title>Node1&#45;&gt;Node4</title>
<path fill="none" stroke="midnightblue" d="M117.16,-57.41C140.84,-52.33 170.11,-46.04 195.1,-40.68"/>
<polygon fill="midnightblue" stroke="midnightblue" points="196.11,-44.04 205.16,-38.52 194.64,-37.2 196.11,-44.04"/>
</g>
<!-- Node5 -->
<g id="node5" class="node">
<title>Node5</title>
<g id="a_node5"><a xlink:href="../../df/dce/classModelSimulator.html#a0936c8625ed5b91e568b01e13ebe9ab0" target="_top" xlink:title=" ">
<polygon fill="none" stroke="black" points="358,-38.5 358,-57.5 551,-57.5 551,-38.5 358,-38.5"/>
<text text-anchor="middle" x="454.5" y="-45.5" font-family="Helvetica,sans-Serif" font-size="10.00">ModelSimulator::setStepAdjustment</text>
</a>
</g>
</g>
<!-- Node4&#45;&gt;Node5 -->
<g id="edge4" class="edge">
<title>Node4&#45;&gt;Node5</title>
<path fill="none" stroke="midnightblue" d="M322.15,-35.65C330.41,-36.42 338.97,-37.23 347.57,-38.04"/>
<polygon fill="midnightblue" stroke="midnightblue" points="347.4,-41.54 357.68,-38.99 348.05,-34.57 347.4,-41.54"/>
</g>
<!-- Node6 -->
<g id="node6" class="node">
<title>Node6</title>
<g id="a_node6"><a xlink:href="../../d1/d22/classOutputManager.html#a8422b62b1bd3f6136fdf971bebaca414" target="_top" xlink:title=" ">
<polygon fill="none" stroke="black" points="368,-0.5 368,-19.5 541,-19.5 541,-0.5 368,-0.5"/>
<text text-anchor="middle" x="454.5" y="-7.5" font-family="Helvetica,sans-Serif" font-size="10.00">OutputManager::setStepInterval</text>
</a>
</g>
</g>
<!-- Node4&#45;&gt;Node6 -->
<g id="edge5" class="edge">
<title>Node4&#45;&gt;Node6</title>
<path fill="none" stroke="midnightblue" d="M322.15,-22.35C333.7,-21.27 345.84,-20.13 357.88,-18.99"/>
<polygon fill="midnightblue" stroke="midnightblue" points="358.32,-22.47 367.95,-18.05 357.67,-15.5 358.32,-22.47"/>
</g>
</g>
</svg>
