<?xml version="1.0" encoding="UTF-8" standalone="no"?>
<!DOCTYPE svg PUBLIC "-//W3C//DTD SVG 1.1//EN"
 "http://www.w3.org/Graphics/SVG/1.1/DTD/svg11.dtd">
<!-- Generated by graphviz version 2.43.0 (0)
 -->
<!-- Title: TransientController Pages: 1 -->
<svg width="117pt" height="152pt"
 viewBox="0.00 0.00 117.00 152.00" xmlns="http://www.w3.org/2000/svg" xmlns:xlink="http://www.w3.org/1999/xlink">
<g id="graph0" class="graph" transform="scale(1 1) rotate(0) translate(4 148)">
<title>TransientController</title>
<!-- Node1 -->
<g id="node1" class="node">
<title>Node1</title>
<g id="a_node1"><a xlink:title=" ">
<polygon fill="#bfbfbf" stroke="black" points="0,-0.5 0,-19.5 109,-19.5 109,-0.5 0,-0.5"/>
<text text-anchor="middle" x="54.5" y="-7.5" font-family="Helvetica,sans-Serif" font-size="10.00">TransientController</text>
</a>
</g>
</g>
<!-- Node2 -->
<g id="node2" class="node">
<title>Node2</title>
<g id="a_node2"><a xlink:href="../../df/d30/classSensorController.html" target="_top" xlink:title=" ">
<polygon fill="none" stroke="black" points="5.5,-57.5 5.5,-76.5 103.5,-76.5 103.5,-57.5 5.5,-57.5"/>
<text text-anchor="middle" x="54.5" y="-64.5" font-family="Helvetica,sans-Serif" font-size="10.00">SensorController</text>
</a>
</g>
</g>
<!-- Node2&#45;&gt;Node1 -->
<g id="edge1" class="edge">
<title>Node2&#45;&gt;Node1</title>
<path fill="none" stroke="midnightblue" d="M54.5,-47.12C54.5,-37.82 54.5,-27.06 54.5,-19.71"/>
<polygon fill="midnightblue" stroke="midnightblue" points="51,-47.41 54.5,-57.41 58,-47.41 51,-47.41"/>
</g>
<!-- Node3 -->
<g id="node3" class="node">
<title>Node3</title>
<g id="a_node3"><a xlink:href="../../d3/d89/classMaterial.html" target="_top" xlink:title=" ">
<polygon fill="none" stroke="black" points="26,-124.5 26,-143.5 83,-143.5 83,-124.5 26,-124.5"/>
<text text-anchor="middle" x="54.5" y="-131.5" font-family="Helvetica,sans-Serif" font-size="10.00">Material</text>
</a>
</g>
</g>
<!-- Node3&#45;&gt;Node2 -->
<g id="edge2" class="edge">
<title>Node3&#45;&gt;Node2</title>
<path fill="none" stroke="#9a32cd" stroke-dasharray="5,2" d="M54.5,-114.04C54.5,-101.67 54.5,-86.12 54.5,-76.63"/>
<polygon fill="#9a32cd" stroke="#9a32cd" points="51,-114.23 54.5,-124.23 58,-114.23 51,-114.23"/>
<text text-anchor="middle" x="79.5" y="-98" font-family="Helvetica,sans-Serif" font-size="10.00"> material_</text>
</g>
</g>
</svg>
