<?xml version="1.0" encoding="UTF-8" standalone="no"?>
<!DOCTYPE svg PUBLIC "-//W3C//DTD SVG 1.1//EN"
 "http://www.w3.org/Graphics/SVG/1.1/DTD/svg11.dtd">
<!-- Generated by graphviz version 2.43.0 (0)
 -->
<!-- Title: psim/src/main.cpp Pages: 1 -->
<svg width="2030pt" height="420pt"
 viewBox="0.00 0.00 2030.00 420.00" xmlns="http://www.w3.org/2000/svg" xmlns:xlink="http://www.w3.org/1999/xlink">
<g id="graph0" class="graph" transform="scale(1 1) rotate(0) translate(4 416)">
<title>psim/src/main.cpp</title>
<!-- Node1 -->
<g id="node1" class="node">
<title>Node1</title>
<g id="a_node1"><a xlink:title=" ">
<polygon fill="#bfbfbf" stroke="black" points="699,-392.5 699,-411.5 805,-411.5 805,-392.5 699,-392.5"/>
<text text-anchor="middle" x="752" y="-399.5" font-family="Helvetica,sans-Serif" font-size="10.00">psim/src/main.cpp</text>
</a>
</g>
</g>
<!-- Node2 -->
<g id="node2" class="node">
<title>Node2</title>
<g id="a_node2"><a xlink:href="../../dc/d0e/inputManager_8h.html" target="_top" xlink:title=" ">
<polygon fill="none" stroke="black" points="28.5,-280.5 28.5,-299.5 147.5,-299.5 147.5,-280.5 28.5,-280.5"/>
<text text-anchor="middle" x="88" y="-287.5" font-family="Helvetica,sans-Serif" font-size="10.00">psim/inputManager.h</text>
</a>
</g>
</g>
<!-- Node1&#45;&gt;Node2 -->
<g id="edge1" class="edge">
<title>Node1&#45;&gt;Node2</title>
<path fill="none" stroke="midnightblue" d="M698.96,-401.21C572.78,-401.05 258.1,-396.45 162,-356 137,-345.48 114.57,-323.04 101.12,-307.49"/>
<polygon fill="midnightblue" stroke="midnightblue" points="103.71,-305.13 94.62,-299.68 98.33,-309.61 103.71,-305.13"/>
</g>
<!-- Node3 -->
<g id="node3" class="node">
<title>Node3</title>
<g id="a_node3"><a xlink:title=" ">
<polygon fill="none" stroke="#bfbfbf" points="194,-224.5 194,-243.5 262,-243.5 262,-224.5 194,-224.5"/>
<text text-anchor="middle" x="228" y="-231.5" font-family="Helvetica,sans-Serif" font-size="10.00">filesystem</text>
</a>
</g>
</g>
<!-- Node1&#45;&gt;Node3 -->
<g id="edge91" class="edge">
<title>Node1&#45;&gt;Node3</title>
<path fill="none" stroke="midnightblue" d="M698.87,-401.51C620.95,-400.82 471.9,-394.02 352,-356 302.7,-340.37 283.22,-339.64 250,-300 238.89,-286.74 233.31,-267.62 230.55,-253.54"/>
<polygon fill="midnightblue" stroke="midnightblue" points="233.98,-252.84 228.9,-243.55 227.08,-253.98 233.98,-252.84"/>
</g>
<!-- Node4 -->
<g id="node4" class="node">
<title>Node4</title>
<g id="a_node4"><a xlink:title=" ">
<polygon fill="none" stroke="#bfbfbf" points="125,-56.5 125,-75.5 181,-75.5 181,-56.5 125,-56.5"/>
<text text-anchor="middle" x="153" y="-63.5" font-family="Helvetica,sans-Serif" font-size="10.00">optional</text>
</a>
</g>
</g>
<!-- Node1&#45;&gt;Node4 -->
<g id="edge93" class="edge">
<title>Node1&#45;&gt;Node4</title>
<path fill="none" stroke="midnightblue" d="M698.82,-399.89C568.11,-396.73 234,-385.9 127,-356 65.93,-338.94 0,-354.41 0,-291 0,-291 0,-291 0,-177 0,-120.43 69.81,-90.09 115.12,-76.36"/>
<polygon fill="midnightblue" stroke="midnightblue" points="116.3,-79.66 124.94,-73.53 114.36,-72.94 116.3,-79.66"/>
</g>
<!-- Node5 -->
<g id="node5" class="node">
<title>Node5</title>
<g id="a_node5"><a xlink:href="../../dc/d51/model_8h.html" target="_top" xlink:title=" ">
<polygon fill="none" stroke="black" points="1081.5,-336.5 1081.5,-355.5 1164.5,-355.5 1164.5,-336.5 1081.5,-336.5"/>
<text text-anchor="middle" x="1123" y="-343.5" font-family="Helvetica,sans-Serif" font-size="10.00">psim/model.h</text>
</a>
</g>
</g>
<!-- Node1&#45;&gt;Node5 -->
<g id="edge4" class="edge">
<title>Node1&#45;&gt;Node5</title>
<path fill="none" stroke="midnightblue" d="M805.16,-393.26C876.2,-382.92 1001.27,-364.72 1071.47,-354.5"/>
<polygon fill="midnightblue" stroke="midnightblue" points="1072.03,-357.96 1081.42,-353.05 1071.02,-351.03 1072.03,-357.96"/>
</g>
<!-- Node10 -->
<g id="node10" class="node">
<title>Node10</title>
<g id="a_node10"><a xlink:title=" ">
<polygon fill="none" stroke="#bfbfbf" points="369.5,-56.5 369.5,-75.5 434.5,-75.5 434.5,-56.5 369.5,-56.5"/>
<text text-anchor="middle" x="402" y="-63.5" font-family="Helvetica,sans-Serif" font-size="10.00">exception</text>
</a>
</g>
</g>
<!-- Node1&#45;&gt;Node10 -->
<g id="edge90" class="edge">
<title>Node1&#45;&gt;Node10</title>
<path fill="none" stroke="midnightblue" d="M698.99,-399.1C604.23,-393.85 401.54,-374.11 250,-300 215.75,-283.25 200.89,-278.66 185,-244 146.01,-158.95 288.28,-101.74 361.31,-78.58"/>
<polygon fill="midnightblue" stroke="midnightblue" points="362.62,-81.84 371.13,-75.54 360.54,-75.16 362.62,-81.84"/>
</g>
<!-- Node12 -->
<g id="node12" class="node">
<title>Node12</title>
<g id="a_node12"><a xlink:title=" ">
<polygon fill="none" stroke="#bfbfbf" points="750,-56.5 750,-75.5 794,-75.5 794,-56.5 750,-56.5"/>
<text text-anchor="middle" x="772" y="-63.5" font-family="Helvetica,sans-Serif" font-size="10.00">string</text>
</a>
</g>
</g>
<!-- Node1&#45;&gt;Node12 -->
<g id="edge95" class="edge">
<title>Node1&#45;&gt;Node12</title>
<path fill="none" stroke="midnightblue" d="M726.83,-392.44C646.8,-363.94 408.18,-268.39 491,-168 544.58,-103.05 599.3,-164.45 677,-132 685.04,-128.64 726.23,-99.68 751.66,-81.57"/>
<polygon fill="midnightblue" stroke="midnightblue" points="753.81,-84.33 759.92,-75.67 749.75,-78.63 753.81,-84.33"/>
</g>
<!-- Node19 -->
<g id="node19" class="node">
<title>Node19</title>
<g id="a_node19"><a xlink:title=" ">
<polygon fill="none" stroke="#bfbfbf" points="1465.5,-56.5 1465.5,-75.5 1512.5,-75.5 1512.5,-56.5 1465.5,-56.5"/>
<text text-anchor="middle" x="1489" y="-63.5" font-family="Helvetica,sans-Serif" font-size="10.00">vector</text>
</a>
</g>
</g>
<!-- Node1&#45;&gt;Node19 -->
<g id="edge96" class="edge">
<title>Node1&#45;&gt;Node19</title>
<path fill="none" stroke="midnightblue" d="M805.15,-400.92C1014.93,-399.9 1774,-389.43 1774,-291 1774,-291 1774,-291 1774,-233 1774,-117.88 1598.23,-81.2 1522.76,-70.75"/>
<polygon fill="midnightblue" stroke="midnightblue" points="1523.18,-67.27 1512.81,-69.44 1522.27,-74.22 1523.18,-67.27"/>
</g>
<!-- Node33 -->
<g id="node33" class="node">
<title>Node33</title>
<g id="a_node33"><a xlink:href="../../d5/dd0/timer_8h.html" target="_top" xlink:title=" ">
<polygon fill="none" stroke="black" points="1818,-336.5 1818,-355.5 1896,-355.5 1896,-336.5 1818,-336.5"/>
<text text-anchor="middle" x="1857" y="-343.5" font-family="Helvetica,sans-Serif" font-size="10.00">psim/timer.h</text>
</a>
</g>
</g>
<!-- Node1&#45;&gt;Node33 -->
<g id="edge85" class="edge">
<title>Node1&#45;&gt;Node33</title>
<path fill="none" stroke="midnightblue" d="M805.21,-400.31C958.22,-397.97 1412.47,-388.59 1788,-356 1794.32,-355.45 1800.95,-354.75 1807.49,-353.98"/>
<polygon fill="midnightblue" stroke="midnightblue" points="1808.16,-357.42 1817.66,-352.73 1807.3,-350.48 1808.16,-357.42"/>
</g>
<!-- Node35 -->
<g id="node35" class="node">
<title>Node35</title>
<g id="a_node35"><a xlink:title=" ">
<polygon fill="none" stroke="#bfbfbf" points="1962,-280.5 1962,-299.5 2022,-299.5 2022,-280.5 1962,-280.5"/>
<text text-anchor="middle" x="1992" y="-287.5" font-family="Helvetica,sans-Serif" font-size="10.00">iostream</text>
</a>
</g>
</g>
<!-- Node1&#45;&gt;Node35 -->
<g id="edge92" class="edge">
<title>Node1&#45;&gt;Node35</title>
<path fill="none" stroke="midnightblue" d="M805.27,-400.78C1018.08,-399.63 1800.73,-392.92 1905,-356 1933.45,-345.92 1960.34,-323.03 1976.5,-307.29"/>
<polygon fill="midnightblue" stroke="midnightblue" points="1979.36,-309.38 1983.92,-299.82 1974.39,-304.45 1979.36,-309.38"/>
</g>
<!-- Node36 -->
<g id="node36" class="node">
<title>Node36</title>
<g id="a_node36"><a xlink:title=" ">
<polygon fill="none" stroke="#bfbfbf" points="1952,-336.5 1952,-355.5 2008,-355.5 2008,-336.5 1952,-336.5"/>
<text text-anchor="middle" x="1980" y="-343.5" font-family="Helvetica,sans-Serif" font-size="10.00">sstream</text>
</a>
</g>
</g>
<!-- Node1&#45;&gt;Node36 -->
<g id="edge94" class="edge">
<title>Node1&#45;&gt;Node36</title>
<path fill="none" stroke="midnightblue" d="M805.13,-400.21C1005.34,-397.03 1714.12,-384.02 1938,-356 1939.25,-355.84 1940.52,-355.67 1941.79,-355.48"/>
<polygon fill="midnightblue" stroke="midnightblue" points="1942.39,-358.93 1951.65,-353.77 1941.2,-352.03 1942.39,-358.93"/>
</g>
<!-- Node2&#45;&gt;Node3 -->
<g id="edge2" class="edge">
<title>Node2&#45;&gt;Node3</title>
<path fill="none" stroke="midnightblue" d="M110.18,-280.44C133.43,-271.48 170.15,-257.31 196.42,-247.18"/>
<polygon fill="midnightblue" stroke="midnightblue" points="197.85,-250.38 205.92,-243.52 195.33,-243.85 197.85,-250.38"/>
</g>
<!-- Node2&#45;&gt;Node4 -->
<g id="edge3" class="edge">
<title>Node2&#45;&gt;Node4</title>
<path fill="none" stroke="midnightblue" d="M90.55,-280.3C100.13,-247.56 134.15,-131.38 147.53,-85.67"/>
<polygon fill="midnightblue" stroke="midnightblue" points="150.95,-86.46 150.4,-75.88 144.23,-84.5 150.95,-86.46"/>
</g>
<!-- Node5&#45;&gt;Node3 -->
<g id="edge77" class="edge">
<title>Node5&#45;&gt;Node3</title>
<path fill="none" stroke="midnightblue" d="M1081.42,-344.86C920.93,-344.03 347.27,-338.37 276,-300 256.95,-289.74 243.43,-268.26 235.7,-252.79"/>
<polygon fill="midnightblue" stroke="midnightblue" points="238.84,-251.26 231.45,-243.68 232.5,-254.22 238.84,-251.26"/>
</g>
<!-- Node5&#45;&gt;Node4 -->
<g id="edge80" class="edge">
<title>Node5&#45;&gt;Node4</title>
<path fill="none" stroke="midnightblue" d="M1081.29,-345C924.96,-344.68 379.43,-340.63 314,-300 281.03,-279.53 299.42,-250.43 271,-224 243.63,-198.55 219.96,-215.82 195,-188 168.61,-158.59 158.62,-111.71 154.98,-85.78"/>
<polygon fill="midnightblue" stroke="midnightblue" points="158.44,-85.27 153.75,-75.77 151.49,-86.12 158.44,-85.27"/>
</g>
<!-- Node6 -->
<g id="node6" class="node">
<title>Node6</title>
<g id="a_node6"><a xlink:href="../../d0/ddd/cell_8h.html" target="_top" xlink:title=" ">
<polygon fill="none" stroke="black" points="794.5,-280.5 794.5,-299.5 837.5,-299.5 837.5,-280.5 794.5,-280.5"/>
<text text-anchor="middle" x="816" y="-287.5" font-family="Helvetica,sans-Serif" font-size="10.00">cell.h</text>
</a>
</g>
</g>
<!-- Node5&#45;&gt;Node6 -->
<g id="edge5" class="edge">
<title>Node5&#45;&gt;Node6</title>
<path fill="none" stroke="midnightblue" d="M1081.28,-337.66C1019.05,-326.72 903.31,-306.36 847.59,-296.56"/>
<polygon fill="midnightblue" stroke="midnightblue" points="848.04,-293.08 837.59,-294.8 846.83,-299.98 848.04,-293.08"/>
</g>
<!-- Node8 -->
<g id="node8" class="node">
<title>Node8</title>
<g id="a_node8"><a xlink:href="../../d4/d67/geometry_8h.html" target="_top" xlink:title=" ">
<polygon fill="none" stroke="black" points="596.5,-112.5 596.5,-131.5 667.5,-131.5 667.5,-112.5 596.5,-112.5"/>
<text text-anchor="middle" x="632" y="-119.5" font-family="Helvetica,sans-Serif" font-size="10.00">geometry.h</text>
</a>
</g>
</g>
<!-- Node5&#45;&gt;Node8 -->
<g id="edge70" class="edge">
<title>Node5&#45;&gt;Node8</title>
<path fill="none" stroke="midnightblue" d="M1081.17,-345.53C937.81,-346.92 472.7,-347.69 428,-300 387.88,-257.2 391.26,-213.73 428,-168 447.47,-143.76 532.36,-131.81 586.31,-126.55"/>
<polygon fill="midnightblue" stroke="midnightblue" points="586.7,-130.03 596.33,-125.62 586.05,-123.06 586.7,-130.03"/>
</g>
<!-- Node5&#45;&gt;Node12 -->
<g id="edge81" class="edge">
<title>Node5&#45;&gt;Node12</title>
<path fill="none" stroke="midnightblue" d="M1081.49,-342.01C951.48,-331.62 557.36,-291.84 499,-188 494.65,-180.25 493.27,-174.79 499,-168 560.35,-95.29 626.02,-176.69 710,-132 731.21,-120.72 749.34,-99.48 760.42,-84.35"/>
<polygon fill="midnightblue" stroke="midnightblue" points="763.49,-86.06 766.37,-75.87 757.76,-82.04 763.49,-86.06"/>
</g>
<!-- Node14 -->
<g id="node14" class="node">
<title>Node14</title>
<g id="a_node14"><a xlink:title=" ">
<polygon fill="none" stroke="#bfbfbf" points="839.5,-0.5 839.5,-19.5 884.5,-19.5 884.5,-0.5 839.5,-0.5"/>
<text text-anchor="middle" x="862" y="-7.5" font-family="Helvetica,sans-Serif" font-size="10.00">utility</text>
</a>
</g>
</g>
<!-- Node5&#45;&gt;Node14 -->
<g id="edge83" class="edge">
<title>Node5&#45;&gt;Node14</title>
<path fill="none" stroke="midnightblue" d="M1081.44,-345.19C936.7,-345.47 460.72,-343.07 409,-300 324.07,-229.28 286.43,-137.57 361,-56 392.58,-21.45 722.63,-13.21 829.09,-11.44"/>
<polygon fill="midnightblue" stroke="midnightblue" points="829.31,-14.94 839.25,-11.28 829.2,-7.94 829.31,-14.94"/>
</g>
<!-- Node16 -->
<g id="node16" class="node">
<title>Node16</title>
<g id="a_node16"><a xlink:href="../../d3/d65/material_8h.html" target="_top" xlink:title=" ">
<polygon fill="none" stroke="black" points="1212.5,-112.5 1212.5,-131.5 1279.5,-131.5 1279.5,-112.5 1212.5,-112.5"/>
<text text-anchor="middle" x="1246" y="-119.5" font-family="Helvetica,sans-Serif" font-size="10.00">material.h</text>
</a>
</g>
</g>
<!-- Node5&#45;&gt;Node16 -->
<g id="edge51" class="edge">
<title>Node5&#45;&gt;Node16</title>
<path fill="none" stroke="midnightblue" d="M1127.34,-336.09C1133.52,-323.5 1145.3,-299.82 1156,-280 1183.64,-228.81 1218.38,-169.53 1235.49,-140.65"/>
<polygon fill="midnightblue" stroke="midnightblue" points="1238.67,-142.15 1240.77,-131.76 1232.65,-138.58 1238.67,-142.15"/>
</g>
<!-- Node18 -->
<g id="node18" class="node">
<title>Node18</title>
<g id="a_node18"><a xlink:title=" ">
<polygon fill="none" stroke="#bfbfbf" points="1397.5,-0.5 1397.5,-19.5 1450.5,-19.5 1450.5,-0.5 1397.5,-0.5"/>
<text text-anchor="middle" x="1424" y="-7.5" font-family="Helvetica,sans-Serif" font-size="10.00">cstddef</text>
</a>
</g>
</g>
<!-- Node5&#45;&gt;Node18 -->
<g id="edge76" class="edge">
<title>Node5&#45;&gt;Node18</title>
<path fill="none" stroke="midnightblue" d="M1164.84,-343.68C1281.55,-339.69 1608.95,-326.42 1713,-300 1804.65,-276.73 1888,-273.56 1888,-179 1888,-179 1888,-179 1888,-121 1888,-33.37 1570.69,-15.45 1460.87,-11.87"/>
<polygon fill="midnightblue" stroke="midnightblue" points="1460.71,-8.36 1450.61,-11.56 1460.5,-15.36 1460.71,-8.36"/>
</g>
<!-- Node5&#45;&gt;Node19 -->
<g id="edge84" class="edge">
<title>Node5&#45;&gt;Node19</title>
<path fill="none" stroke="midnightblue" d="M1164.87,-344.83C1290.16,-343.89 1655.72,-337.89 1692,-300 1753.78,-235.49 1695.93,-160.61 1621,-112 1590.74,-92.37 1551,-80.35 1523.06,-73.73"/>
<polygon fill="midnightblue" stroke="midnightblue" points="1523.5,-70.24 1512.97,-71.45 1521.96,-77.07 1523.5,-70.24"/>
</g>
<!-- Node21 -->
<g id="node21" class="node">
<title>Node21</title>
<g id="a_node21"><a xlink:href="../../d5/d2e/sensor_8h.html" target="_top" xlink:title=" ">
<polygon fill="none" stroke="black" points="1393.5,-224.5 1393.5,-243.5 1450.5,-243.5 1450.5,-224.5 1393.5,-224.5"/>
<text text-anchor="middle" x="1422" y="-231.5" font-family="Helvetica,sans-Serif" font-size="10.00">sensor.h</text>
</a>
</g>
</g>
<!-- Node5&#45;&gt;Node21 -->
<g id="edge71" class="edge">
<title>Node5&#45;&gt;Node21</title>
<path fill="none" stroke="midnightblue" d="M1164.76,-345.08C1214.9,-343.46 1300.09,-335.15 1363,-300 1383.49,-288.55 1400.68,-267.35 1411.13,-252.27"/>
<polygon fill="midnightblue" stroke="midnightblue" points="1414.12,-254.09 1416.73,-243.82 1408.29,-250.22 1414.12,-254.09"/>
</g>
<!-- Node23 -->
<g id="node23" class="node">
<title>Node23</title>
<g id="a_node23"><a xlink:title=" ">
<polygon fill="none" stroke="#bfbfbf" points="1232,-168.5 1232,-187.5 1290,-187.5 1290,-168.5 1232,-168.5"/>
<text text-anchor="middle" x="1261" y="-175.5" font-family="Helvetica,sans-Serif" font-size="10.00">memory</text>
</a>
</g>
</g>
<!-- Node5&#45;&gt;Node23 -->
<g id="edge78" class="edge">
<title>Node5&#45;&gt;Node23</title>
<path fill="none" stroke="midnightblue" d="M1130.42,-336.08C1152.61,-309.38 1218.71,-229.87 1247.43,-195.32"/>
<polygon fill="midnightblue" stroke="midnightblue" points="1250.18,-197.5 1253.88,-187.57 1244.79,-193.02 1250.18,-197.5"/>
</g>
<!-- Node24 -->
<g id="node24" class="node">
<title>Node24</title>
<g id="a_node24"><a xlink:title=" ">
<polygon fill="none" stroke="#bfbfbf" points="1308,-168.5 1308,-187.5 1356,-187.5 1356,-168.5 1308,-168.5"/>
<text text-anchor="middle" x="1332" y="-175.5" font-family="Helvetica,sans-Serif" font-size="10.00">mutex</text>
</a>
</g>
</g>
<!-- Node5&#45;&gt;Node24 -->
<g id="edge79" class="edge">
<title>Node5&#45;&gt;Node24</title>
<path fill="none" stroke="midnightblue" d="M1164.8,-344.61C1202.67,-342.03 1257.64,-332.39 1292,-300 1320.75,-272.9 1328.85,-224.73 1331.13,-198.07"/>
<polygon fill="midnightblue" stroke="midnightblue" points="1334.64,-198 1331.8,-187.79 1327.65,-197.54 1334.64,-198"/>
</g>
<!-- Node25 -->
<g id="node25" class="node">
<title>Node25</title>
<g id="a_node25"><a xlink:href="../../db/d26/modelSimulator_8h.html" target="_top" xlink:title=" ">
<polygon fill="none" stroke="black" points="958.5,-168.5 958.5,-187.5 1061.5,-187.5 1061.5,-168.5 958.5,-168.5"/>
<text text-anchor="middle" x="1010" y="-175.5" font-family="Helvetica,sans-Serif" font-size="10.00">modelSimulator.h</text>
</a>
</g>
</g>
<!-- Node5&#45;&gt;Node25 -->
<g id="edge52" class="edge">
<title>Node5&#45;&gt;Node25</title>
<path fill="none" stroke="midnightblue" d="M1116.92,-336.08C1098.91,-309.61 1045.54,-231.21 1021.72,-196.21"/>
<polygon fill="midnightblue" stroke="midnightblue" points="1024.35,-193.87 1015.83,-187.57 1018.57,-197.8 1024.35,-193.87"/>
</g>
<!-- Node29 -->
<g id="node29" class="node">
<title>Node29</title>
<g id="a_node29"><a xlink:href="../../df/d92/outputManager_8h.html" target="_top" xlink:title=" ">
<polygon fill="none" stroke="black" points="1415.5,-280.5 1415.5,-299.5 1514.5,-299.5 1514.5,-280.5 1415.5,-280.5"/>
<text text-anchor="middle" x="1465" y="-287.5" font-family="Helvetica,sans-Serif" font-size="10.00">outputManager.h</text>
</a>
</g>
</g>
<!-- Node5&#45;&gt;Node29 -->
<g id="edge63" class="edge">
<title>Node5&#45;&gt;Node29</title>
<path fill="none" stroke="midnightblue" d="M1164.59,-338.43C1224.7,-328.94 1336.19,-311.34 1405.14,-300.45"/>
<polygon fill="midnightblue" stroke="midnightblue" points="1406.08,-303.85 1415.41,-298.83 1404.99,-296.93 1406.08,-303.85"/>
</g>
<!-- Node31 -->
<g id="node31" class="node">
<title>Node31</title>
<g id="a_node31"><a xlink:href="../../d6/d53/sensorInterpreter_8h.html" target="_top" xlink:title=" ">
<polygon fill="none" stroke="black" points="1573.5,-280.5 1573.5,-299.5 1682.5,-299.5 1682.5,-280.5 1573.5,-280.5"/>
<text text-anchor="middle" x="1628" y="-287.5" font-family="Helvetica,sans-Serif" font-size="10.00">sensorInterpreter.h</text>
</a>
</g>
</g>
<!-- Node5&#45;&gt;Node31 -->
<g id="edge72" class="edge">
<title>Node5&#45;&gt;Node31</title>
<path fill="none" stroke="midnightblue" d="M1164.76,-340.54C1252.8,-331.12 1458.03,-309.18 1563.26,-297.92"/>
<polygon fill="midnightblue" stroke="midnightblue" points="1563.86,-301.38 1573.43,-296.84 1563.11,-294.42 1563.86,-301.38"/>
</g>
<!-- Node32 -->
<g id="node32" class="node">
<title>Node32</title>
<g id="a_node32"><a xlink:title=" ">
<polygon fill="none" stroke="#bfbfbf" points="1189.5,-280.5 1189.5,-299.5 1282.5,-299.5 1282.5,-280.5 1189.5,-280.5"/>
<text text-anchor="middle" x="1236" y="-287.5" font-family="Helvetica,sans-Serif" font-size="10.00">unordered_map</text>
</a>
</g>
</g>
<!-- Node5&#45;&gt;Node32 -->
<g id="edge82" class="edge">
<title>Node5&#45;&gt;Node32</title>
<path fill="none" stroke="midnightblue" d="M1140.91,-336.44C1159.25,-327.68 1188.01,-313.94 1209.09,-303.86"/>
<polygon fill="midnightblue" stroke="midnightblue" points="1210.67,-306.99 1218.18,-299.52 1207.65,-300.67 1210.67,-306.99"/>
</g>
<!-- Node7 -->
<g id="node7" class="node">
<title>Node7</title>
<g id="a_node7"><a xlink:href="../../d8/d77/compositeSurface_8h.html" target="_top" xlink:title=" ">
<polygon fill="none" stroke="black" points="642.5,-224.5 642.5,-243.5 755.5,-243.5 755.5,-224.5 642.5,-224.5"/>
<text text-anchor="middle" x="699" y="-231.5" font-family="Helvetica,sans-Serif" font-size="10.00">compositeSurface.h</text>
</a>
</g>
</g>
<!-- Node6&#45;&gt;Node7 -->
<g id="edge6" class="edge">
<title>Node6&#45;&gt;Node7</title>
<path fill="none" stroke="midnightblue" d="M797.46,-280.44C778.38,-271.64 748.43,-257.81 726.56,-247.72"/>
<polygon fill="midnightblue" stroke="midnightblue" points="728,-244.53 717.45,-243.52 725.07,-250.88 728,-244.53"/>
</g>
<!-- Node6&#45;&gt;Node8 -->
<g id="edge32" class="edge">
<title>Node6&#45;&gt;Node8</title>
<path fill="none" stroke="midnightblue" d="M794.2,-287.18C753.19,-283.22 662.25,-271.81 591,-244 546.41,-226.6 522.45,-229.73 499,-188 478.16,-150.92 539.84,-134.62 586.06,-127.73"/>
<polygon fill="midnightblue" stroke="midnightblue" points="586.81,-131.16 596.24,-126.32 585.86,-124.22 586.81,-131.16"/>
</g>
<!-- Node9 -->
<g id="node9" class="node">
<title>Node9</title>
<g id="a_node9"><a xlink:title=" ">
<polygon fill="none" stroke="#bfbfbf" points="1039,-0.5 1039,-19.5 1081,-19.5 1081,-0.5 1039,-0.5"/>
<text text-anchor="middle" x="1060" y="-7.5" font-family="Helvetica,sans-Serif" font-size="10.00">array</text>
</a>
</g>
</g>
<!-- Node6&#45;&gt;Node9 -->
<g id="edge45" class="edge">
<title>Node6&#45;&gt;Node9</title>
<path fill="none" stroke="midnightblue" d="M817.92,-280.3C826.91,-239.98 865.04,-72.48 882,-56 902.74,-35.84 983.5,-21.65 1028.78,-15.1"/>
<polygon fill="midnightblue" stroke="midnightblue" points="1029.53,-18.53 1038.94,-13.67 1028.55,-11.6 1029.53,-18.53"/>
</g>
<!-- Node6&#45;&gt;Node10 -->
<g id="edge47" class="edge">
<title>Node6&#45;&gt;Node10</title>
<path fill="none" stroke="midnightblue" d="M794.15,-288.38C730.73,-286.19 548.03,-277.09 500,-244 443.64,-205.17 416.3,-122.91 406.46,-85.83"/>
<polygon fill="midnightblue" stroke="midnightblue" points="409.79,-84.71 403.95,-75.87 403,-86.42 409.79,-84.71"/>
</g>
<!-- Node6&#45;&gt;Node12 -->
<g id="edge49" class="edge">
<title>Node6&#45;&gt;Node12</title>
<path fill="none" stroke="midnightblue" d="M815.33,-280.4C813.19,-254.55 805.63,-175.45 789,-112 786.64,-103.01 783.13,-93.34 779.9,-85.27"/>
<polygon fill="midnightblue" stroke="midnightblue" points="783.03,-83.67 775.95,-75.79 776.56,-86.36 783.03,-83.67"/>
</g>
<!-- Node13 -->
<g id="node13" class="node">
<title>Node13</title>
<g id="a_node13"><a xlink:title=" ">
<polygon fill="none" stroke="#bfbfbf" points="531.5,-56.5 531.5,-75.5 604.5,-75.5 604.5,-56.5 531.5,-56.5"/>
<text text-anchor="middle" x="568" y="-63.5" font-family="Helvetica,sans-Serif" font-size="10.00">string_view</text>
</a>
</g>
</g>
<!-- Node6&#45;&gt;Node13 -->
<g id="edge50" class="edge">
<title>Node6&#45;&gt;Node13</title>
<path fill="none" stroke="midnightblue" d="M794.48,-287.67C736.16,-283.75 576.47,-270.79 532,-244 498.94,-224.08 477.54,-204.53 490,-168 501.89,-133.14 531.24,-100.96 550.35,-82.68"/>
<polygon fill="midnightblue" stroke="midnightblue" points="552.88,-85.1 557.83,-75.73 548.12,-79.97 552.88,-85.1"/>
</g>
<!-- Node6&#45;&gt;Node16 -->
<g id="edge33" class="edge">
<title>Node6&#45;&gt;Node16</title>
<path fill="none" stroke="midnightblue" d="M837.67,-280.91C881.87,-264.29 985.49,-224.79 1071,-188 1090.36,-179.67 1094.44,-175.86 1114,-168 1145.38,-155.4 1181.8,-143.15 1208.43,-134.63"/>
<polygon fill="midnightblue" stroke="midnightblue" points="1209.66,-137.91 1218.13,-131.55 1207.54,-131.24 1209.66,-137.91"/>
</g>
<!-- Node6&#45;&gt;Node18 -->
<g id="edge46" class="edge">
<title>Node6&#45;&gt;Node18</title>
<path fill="none" stroke="midnightblue" d="M837.65,-285.25C907.27,-272.51 1130.15,-226.29 1289,-132 1338.85,-102.41 1386.85,-52.77 1409.86,-27.24"/>
<polygon fill="midnightblue" stroke="midnightblue" points="1412.64,-29.37 1416.67,-19.57 1407.41,-24.72 1412.64,-29.37"/>
</g>
<!-- Node20 -->
<g id="node20" class="node">
<title>Node20</title>
<g id="a_node20"><a xlink:title=" ">
<polygon fill="none" stroke="#bfbfbf" points="508,-168.5 508,-187.5 556,-187.5 556,-168.5 508,-168.5"/>
<text text-anchor="middle" x="532" y="-175.5" font-family="Helvetica,sans-Serif" font-size="10.00">iosfwd</text>
</a>
</g>
</g>
<!-- Node6&#45;&gt;Node20 -->
<g id="edge48" class="edge">
<title>Node6&#45;&gt;Node20</title>
<path fill="none" stroke="midnightblue" d="M794.26,-285.97C759.37,-280.59 689.2,-267.66 634,-244 603.04,-230.73 570.82,-208.57 551.09,-193.86"/>
<polygon fill="midnightblue" stroke="midnightblue" points="553.03,-190.95 542.95,-187.69 548.8,-196.52 553.03,-190.95"/>
</g>
<!-- Node6&#45;&gt;Node21 -->
<g id="edge34" class="edge">
<title>Node6&#45;&gt;Node21</title>
<path fill="none" stroke="midnightblue" d="M837.57,-287.08C926.71,-279.13 1267.16,-248.8 1383.08,-238.47"/>
<polygon fill="midnightblue" stroke="midnightblue" points="1383.62,-241.93 1393.27,-237.56 1383,-234.96 1383.62,-241.93"/>
</g>
<!-- Node7&#45;&gt;Node8 -->
<g id="edge7" class="edge">
<title>Node7&#45;&gt;Node8</title>
<path fill="none" stroke="midnightblue" d="M693.74,-224.37C682.73,-206.3 657.08,-164.18 642.54,-140.31"/>
<polygon fill="midnightblue" stroke="midnightblue" points="645.42,-138.31 637.23,-131.59 639.45,-141.95 645.42,-138.31"/>
</g>
<!-- Node7&#45;&gt;Node10 -->
<g id="edge27" class="edge">
<title>Node7&#45;&gt;Node10</title>
<path fill="none" stroke="midnightblue" d="M682.09,-224.4C664.67,-215.48 636.79,-201.04 613,-188 544.21,-150.3 464.16,-103.6 425.4,-80.81"/>
<polygon fill="midnightblue" stroke="midnightblue" points="426.87,-77.61 416.47,-75.56 423.31,-83.65 426.87,-77.61"/>
</g>
<!-- Node7&#45;&gt;Node12 -->
<g id="edge29" class="edge">
<title>Node7&#45;&gt;Node12</title>
<path fill="none" stroke="midnightblue" d="M717.51,-224.37C731.41,-216.84 749.6,-204.52 759,-188 777.39,-155.67 776.63,-110.59 774.37,-85.58"/>
<polygon fill="midnightblue" stroke="midnightblue" points="777.85,-85.18 773.29,-75.62 770.89,-85.94 777.85,-85.18"/>
</g>
<!-- Node7&#45;&gt;Node13 -->
<g id="edge30" class="edge">
<title>Node7&#45;&gt;Node13</title>
<path fill="none" stroke="midnightblue" d="M685.59,-224.41C662.31,-208.81 614.39,-173.58 588,-132 579,-117.83 573.83,-99.34 571.01,-85.71"/>
<polygon fill="midnightblue" stroke="midnightblue" points="574.4,-84.81 569.16,-75.61 567.52,-86.07 574.4,-84.81"/>
</g>
<!-- Node15 -->
<g id="node15" class="node">
<title>Node15</title>
<g id="a_node15"><a xlink:href="../../d2/d69/surface_8h.html" target="_top" xlink:title=" ">
<polygon fill="none" stroke="black" points="688,-168.5 688,-187.5 750,-187.5 750,-168.5 688,-168.5"/>
<text text-anchor="middle" x="719" y="-175.5" font-family="Helvetica,sans-Serif" font-size="10.00">surface.h</text>
</a>
</g>
</g>
<!-- Node7&#45;&gt;Node15 -->
<g id="edge15" class="edge">
<title>Node7&#45;&gt;Node15</title>
<path fill="none" stroke="midnightblue" d="M702.3,-224.08C704.98,-216.85 708.85,-206.41 712.19,-197.4"/>
<polygon fill="midnightblue" stroke="midnightblue" points="715.57,-198.34 715.76,-187.75 709,-195.91 715.57,-198.34"/>
</g>
<!-- Node7&#45;&gt;Node19 -->
<g id="edge31" class="edge">
<title>Node7&#45;&gt;Node19</title>
<path fill="none" stroke="midnightblue" d="M755.66,-229.64C868.49,-221.72 1128.27,-197.4 1336,-132 1381.75,-117.6 1432.59,-94.5 1462.62,-80.06"/>
<polygon fill="midnightblue" stroke="midnightblue" points="1464.51,-83.04 1471.97,-75.53 1461.45,-76.74 1464.51,-83.04"/>
</g>
<!-- Node7&#45;&gt;Node20 -->
<g id="edge28" class="edge">
<title>Node7&#45;&gt;Node20</title>
<path fill="none" stroke="midnightblue" d="M672.54,-224.44C643.66,-215.1 597.34,-200.13 565.84,-189.94"/>
<polygon fill="midnightblue" stroke="midnightblue" points="566.76,-186.56 556.17,-186.82 564.61,-193.22 566.76,-186.56"/>
</g>
<!-- Node8&#45;&gt;Node4 -->
<g id="edge10" class="edge">
<title>Node8&#45;&gt;Node4</title>
<path fill="none" stroke="midnightblue" d="M596.39,-116.99C508.48,-107.08 281.76,-81.52 191.2,-71.31"/>
<polygon fill="midnightblue" stroke="midnightblue" points="191.42,-67.81 181.1,-70.17 190.64,-74.77 191.42,-67.81"/>
</g>
<!-- Node8&#45;&gt;Node9 -->
<g id="edge8" class="edge">
<title>Node8&#45;&gt;Node9</title>
<path fill="none" stroke="midnightblue" d="M645.89,-112.3C672.93,-95.42 730.87,-59.57 741,-56 754.51,-51.24 950.68,-25.28 1028.52,-15.1"/>
<polygon fill="midnightblue" stroke="midnightblue" points="1029.22,-18.54 1038.68,-13.77 1028.31,-11.6 1029.22,-18.54"/>
</g>
<!-- Node8&#45;&gt;Node10 -->
<g id="edge9" class="edge">
<title>Node8&#45;&gt;Node10</title>
<path fill="none" stroke="midnightblue" d="M596.31,-112.62C555.34,-103 488.19,-87.24 444.54,-76.99"/>
<polygon fill="midnightblue" stroke="midnightblue" points="445.32,-73.58 434.79,-74.7 443.72,-80.39 445.32,-73.58"/>
</g>
<!-- Node11 -->
<g id="node11" class="node">
<title>Node11</title>
<g id="a_node11"><a xlink:title=" ">
<polygon fill="none" stroke="#bfbfbf" points="923.5,-0.5 923.5,-19.5 980.5,-19.5 980.5,-0.5 923.5,-0.5"/>
<text text-anchor="middle" x="952" y="-7.5" font-family="Helvetica,sans-Serif" font-size="10.00">ostream</text>
</a>
</g>
</g>
<!-- Node8&#45;&gt;Node11 -->
<g id="edge11" class="edge">
<title>Node8&#45;&gt;Node11</title>
<path fill="none" stroke="midnightblue" d="M639.03,-112.18C650.95,-97.88 676.63,-69.84 705,-56 714.3,-51.47 845.64,-28.91 912.9,-17.55"/>
<polygon fill="midnightblue" stroke="midnightblue" points="913.84,-20.95 923.12,-15.83 912.68,-14.04 913.84,-20.95"/>
</g>
<!-- Node8&#45;&gt;Node12 -->
<g id="edge12" class="edge">
<title>Node8&#45;&gt;Node12</title>
<path fill="none" stroke="midnightblue" d="M654.18,-112.44C677.43,-103.48 714.15,-89.31 740.42,-79.18"/>
<polygon fill="midnightblue" stroke="midnightblue" points="741.85,-82.38 749.92,-75.52 739.33,-75.85 741.85,-82.38"/>
</g>
<!-- Node8&#45;&gt;Node13 -->
<g id="edge13" class="edge">
<title>Node8&#45;&gt;Node13</title>
<path fill="none" stroke="midnightblue" d="M621.72,-112.32C612.16,-104.26 597.72,-92.08 586.22,-82.37"/>
<polygon fill="midnightblue" stroke="midnightblue" points="588.37,-79.61 578.47,-75.83 583.86,-84.96 588.37,-79.61"/>
</g>
<!-- Node8&#45;&gt;Node14 -->
<g id="edge14" class="edge">
<title>Node8&#45;&gt;Node14</title>
<path fill="none" stroke="midnightblue" d="M633.33,-112.34C635.96,-98.27 643.21,-70.55 661,-56 686.45,-35.18 779.08,-21.05 829.22,-14.74"/>
<polygon fill="midnightblue" stroke="midnightblue" points="829.74,-18.2 839.24,-13.51 828.89,-11.26 829.74,-18.2"/>
</g>
<!-- Node15&#45;&gt;Node8 -->
<g id="edge16" class="edge">
<title>Node15&#45;&gt;Node8</title>
<path fill="none" stroke="midnightblue" d="M705.02,-168.32C691.45,-159.9 670.62,-146.97 654.68,-137.07"/>
<polygon fill="midnightblue" stroke="midnightblue" points="656.29,-133.95 645.94,-131.65 652.59,-139.9 656.29,-133.95"/>
</g>
<!-- Node15&#45;&gt;Node16 -->
<g id="edge17" class="edge">
<title>Node15&#45;&gt;Node16</title>
<path fill="none" stroke="midnightblue" d="M750.1,-173.97C822.75,-166.87 1009.25,-148.51 1165,-132 1176.97,-130.73 1189.93,-129.31 1201.9,-127.98"/>
<polygon fill="midnightblue" stroke="midnightblue" points="1202.57,-131.43 1212.12,-126.84 1201.79,-124.47 1202.57,-131.43"/>
</g>
<!-- Node16&#45;&gt;Node9 -->
<g id="edge23" class="edge">
<title>Node16&#45;&gt;Node9</title>
<path fill="none" stroke="midnightblue" d="M1221.16,-112.36C1199.51,-104.34 1167.66,-91.36 1142,-76 1117.84,-61.54 1092.88,-40.77 1076.94,-26.62"/>
<polygon fill="midnightblue" stroke="midnightblue" points="1079.25,-23.99 1069.48,-19.9 1074.57,-29.19 1079.25,-23.99"/>
</g>
<!-- Node16&#45;&gt;Node14 -->
<g id="edge25" class="edge">
<title>Node16&#45;&gt;Node14</title>
<path fill="none" stroke="midnightblue" d="M1212.05,-116.66C1150.56,-108.56 1023.21,-90.65 981,-76 976.04,-74.28 920.21,-43.39 886.81,-24.83"/>
<polygon fill="midnightblue" stroke="midnightblue" points="888.09,-21.53 877.65,-19.73 884.69,-27.65 888.09,-21.53"/>
</g>
<!-- Node17 -->
<g id="node17" class="node">
<title>Node17</title>
<g id="a_node17"><a xlink:href="../../d3/d34/phonon_8h.html" target="_top" xlink:title=" ">
<polygon fill="none" stroke="black" points="990,-56.5 990,-75.5 1052,-75.5 1052,-56.5 990,-56.5"/>
<text text-anchor="middle" x="1021" y="-63.5" font-family="Helvetica,sans-Serif" font-size="10.00">phonon.h</text>
</a>
</g>
</g>
<!-- Node16&#45;&gt;Node17 -->
<g id="edge18" class="edge">
<title>Node16&#45;&gt;Node17</title>
<path fill="none" stroke="midnightblue" d="M1212.32,-112.92C1172.14,-103.27 1105.01,-87.16 1061.89,-76.81"/>
<polygon fill="midnightblue" stroke="midnightblue" points="1062.55,-73.37 1052.01,-74.44 1060.92,-80.18 1062.55,-73.37"/>
</g>
<!-- Node16&#45;&gt;Node18 -->
<g id="edge24" class="edge">
<title>Node16&#45;&gt;Node18</title>
<path fill="none" stroke="midnightblue" d="M1250.32,-112.1C1257.51,-98.18 1273.2,-71.29 1294,-56 1321.81,-35.55 1359.66,-23.85 1387.34,-17.53"/>
<polygon fill="midnightblue" stroke="midnightblue" points="1388.37,-20.89 1397.41,-15.37 1386.9,-14.05 1388.37,-20.89"/>
</g>
<!-- Node16&#45;&gt;Node19 -->
<g id="edge26" class="edge">
<title>Node16&#45;&gt;Node19</title>
<path fill="none" stroke="midnightblue" d="M1279.53,-113.55C1325.89,-103.25 1409.08,-84.76 1455.45,-74.46"/>
<polygon fill="midnightblue" stroke="midnightblue" points="1456.3,-77.85 1465.31,-72.27 1454.78,-71.02 1456.3,-77.85"/>
</g>
<!-- Node17&#45;&gt;Node9 -->
<g id="edge19" class="edge">
<title>Node17&#45;&gt;Node9</title>
<path fill="none" stroke="midnightblue" d="M1027.44,-56.08C1032.95,-48.46 1041.03,-37.26 1047.76,-27.94"/>
<polygon fill="midnightblue" stroke="midnightblue" points="1050.66,-29.91 1053.68,-19.75 1044.99,-25.81 1050.66,-29.91"/>
</g>
<!-- Node17&#45;&gt;Node11 -->
<g id="edge21" class="edge">
<title>Node17&#45;&gt;Node11</title>
<path fill="none" stroke="midnightblue" d="M1009.91,-56.32C999.51,-48.18 983.74,-35.84 971.28,-26.09"/>
<polygon fill="midnightblue" stroke="midnightblue" points="973.32,-23.24 963.29,-19.83 969.01,-28.75 973.32,-23.24"/>
</g>
<!-- Node17&#45;&gt;Node14 -->
<g id="edge22" class="edge">
<title>Node17&#45;&gt;Node14</title>
<path fill="none" stroke="midnightblue" d="M995.81,-56.44C968.27,-47.09 924.09,-32.09 894.09,-21.9"/>
<polygon fill="midnightblue" stroke="midnightblue" points="895.1,-18.55 884.51,-18.64 892.85,-25.17 895.1,-18.55"/>
</g>
<!-- Node17&#45;&gt;Node18 -->
<g id="edge20" class="edge">
<title>Node17&#45;&gt;Node18</title>
<path fill="none" stroke="midnightblue" d="M1052.29,-60.81C1125.74,-50.97 1308.91,-26.42 1387.38,-15.91"/>
<polygon fill="midnightblue" stroke="midnightblue" points="1387.85,-19.38 1397.29,-14.58 1386.92,-12.44 1387.85,-19.38"/>
</g>
<!-- Node21&#45;&gt;Node9 -->
<g id="edge40" class="edge">
<title>Node21&#45;&gt;Node9</title>
<path fill="none" stroke="midnightblue" d="M1419.46,-224.45C1415.12,-211.03 1405.13,-184.8 1389,-168 1302.85,-78.27 1155.04,-33.77 1091.04,-17.95"/>
<polygon fill="midnightblue" stroke="midnightblue" points="1091.7,-14.51 1081.16,-15.57 1090.06,-21.31 1091.7,-14.51"/>
</g>
<!-- Node21&#45;&gt;Node16 -->
<g id="edge35" class="edge">
<title>Node21&#45;&gt;Node16</title>
<path fill="none" stroke="midnightblue" d="M1416.4,-224.2C1407.21,-210.43 1387.7,-183.73 1365,-168 1342.21,-152.2 1313.15,-141.07 1289.45,-133.84"/>
<polygon fill="midnightblue" stroke="midnightblue" points="1290.23,-130.42 1279.65,-130.97 1288.27,-137.14 1290.23,-130.42"/>
</g>
<!-- Node21&#45;&gt;Node18 -->
<g id="edge41" class="edge">
<title>Node21&#45;&gt;Node18</title>
<path fill="none" stroke="midnightblue" d="M1450.67,-230.11C1496.84,-224.8 1584.4,-211.79 1603,-188 1635.96,-145.84 1664.99,-163.92 1541,-56 1518.2,-36.16 1485.71,-24.6 1460.75,-18.18"/>
<polygon fill="midnightblue" stroke="midnightblue" points="1461.45,-14.75 1450.91,-15.81 1459.81,-21.55 1461.45,-14.75"/>
</g>
<!-- Node21&#45;&gt;Node19 -->
<g id="edge44" class="edge">
<title>Node21&#45;&gt;Node19</title>
<path fill="none" stroke="midnightblue" d="M1425.6,-224.08C1436.19,-197.83 1467.39,-120.55 1481.69,-85.12"/>
<polygon fill="midnightblue" stroke="midnightblue" points="1485.04,-86.15 1485.54,-75.57 1478.55,-83.53 1485.04,-86.15"/>
</g>
<!-- Node22 -->
<g id="node22" class="node">
<title>Node22</title>
<g id="a_node22"><a xlink:href="../../da/d16/sensorController_8h.html" target="_top" xlink:title=" ">
<polygon fill="none" stroke="black" points="1488.5,-168.5 1488.5,-187.5 1593.5,-187.5 1593.5,-168.5 1488.5,-168.5"/>
<text text-anchor="middle" x="1541" y="-175.5" font-family="Helvetica,sans-Serif" font-size="10.00">sensorController.h</text>
</a>
</g>
</g>
<!-- Node21&#45;&gt;Node22 -->
<g id="edge36" class="edge">
<title>Node21&#45;&gt;Node22</title>
<path fill="none" stroke="midnightblue" d="M1440.86,-224.44C1460.27,-215.64 1490.73,-201.81 1512.96,-191.72"/>
<polygon fill="midnightblue" stroke="midnightblue" points="1514.57,-194.84 1522.23,-187.52 1511.68,-188.46 1514.57,-194.84"/>
</g>
<!-- Node21&#45;&gt;Node23 -->
<g id="edge42" class="edge">
<title>Node21&#45;&gt;Node23</title>
<path fill="none" stroke="midnightblue" d="M1396.49,-224.44C1369.4,-215.36 1326.41,-200.94 1296.13,-190.78"/>
<polygon fill="midnightblue" stroke="midnightblue" points="1296.99,-187.38 1286.39,-187.52 1294.76,-194.01 1296.99,-187.38"/>
</g>
<!-- Node21&#45;&gt;Node24 -->
<g id="edge43" class="edge">
<title>Node21&#45;&gt;Node24</title>
<path fill="none" stroke="midnightblue" d="M1407.54,-224.32C1393.5,-215.9 1371.95,-202.97 1355.46,-193.07"/>
<polygon fill="midnightblue" stroke="midnightblue" points="1356.8,-189.8 1346.42,-187.65 1353.2,-195.8 1356.8,-189.8"/>
</g>
<!-- Node22&#45;&gt;Node16 -->
<g id="edge37" class="edge">
<title>Node22&#45;&gt;Node16</title>
<path fill="none" stroke="midnightblue" d="M1494.26,-168.44C1438.09,-158.16 1344.58,-141.05 1289.77,-131.01"/>
<polygon fill="midnightblue" stroke="midnightblue" points="1290.15,-127.52 1279.68,-129.16 1288.88,-134.41 1290.15,-127.52"/>
</g>
<!-- Node22&#45;&gt;Node18 -->
<g id="edge38" class="edge">
<title>Node22&#45;&gt;Node18</title>
<path fill="none" stroke="midnightblue" d="M1542.21,-168.33C1544.7,-146.89 1548.18,-90.58 1522,-56 1507.17,-36.41 1481.8,-25.08 1460.58,-18.69"/>
<polygon fill="midnightblue" stroke="midnightblue" points="1461.45,-15.3 1450.88,-16.01 1459.58,-22.05 1461.45,-15.3"/>
</g>
<!-- Node22&#45;&gt;Node19 -->
<g id="edge39" class="edge">
<title>Node22&#45;&gt;Node19</title>
<path fill="none" stroke="midnightblue" d="M1536.92,-168.37C1528.45,-150.46 1508.82,-108.92 1497.48,-84.95"/>
<polygon fill="midnightblue" stroke="midnightblue" points="1500.5,-83.14 1493.06,-75.59 1494.17,-86.13 1500.5,-83.14"/>
</g>
<!-- Node25&#45;&gt;Node4 -->
<g id="edge60" class="edge">
<title>Node25&#45;&gt;Node4</title>
<path fill="none" stroke="midnightblue" d="M958.27,-172.19C878.62,-164.63 721.19,-149.05 588,-132 440.97,-113.18 266.8,-85.53 191.19,-73.26"/>
<polygon fill="midnightblue" stroke="midnightblue" points="191.62,-69.78 181.19,-71.63 190.5,-76.69 191.62,-69.78"/>
</g>
<!-- Node25&#45;&gt;Node9 -->
<g id="edge58" class="edge">
<title>Node25&#45;&gt;Node9</title>
<path fill="none" stroke="midnightblue" d="M1023.35,-168.45C1034.5,-160.49 1049.7,-147.54 1057,-132 1072.65,-98.68 1068.29,-54.31 1063.97,-29.61"/>
<polygon fill="midnightblue" stroke="midnightblue" points="1067.4,-28.9 1062.07,-19.75 1060.53,-30.23 1067.4,-28.9"/>
</g>
<!-- Node25&#45;&gt;Node18 -->
<g id="edge59" class="edge">
<title>Node25&#45;&gt;Node18</title>
<path fill="none" stroke="midnightblue" d="M1054.27,-168.47C1086.12,-161.31 1129.54,-149.43 1165,-132 1216.38,-106.75 1217.62,-81.25 1269,-56 1307.46,-37.1 1355.29,-24.72 1387.57,-17.82"/>
<polygon fill="midnightblue" stroke="midnightblue" points="1388.39,-21.22 1397.47,-15.77 1386.97,-14.37 1388.39,-21.22"/>
</g>
<!-- Node25&#45;&gt;Node19 -->
<g id="edge62" class="edge">
<title>Node25&#45;&gt;Node19</title>
<path fill="none" stroke="midnightblue" d="M1061.64,-171.1C1118,-164.09 1210.67,-150.93 1289,-132 1349.4,-117.41 1417.88,-93.49 1457.01,-79.1"/>
<polygon fill="midnightblue" stroke="midnightblue" points="1458.37,-82.32 1466.53,-75.57 1455.94,-75.76 1458.37,-82.32"/>
</g>
<!-- Node26 -->
<g id="node26" class="node">
<title>Node26</title>
<g id="a_node26"><a xlink:href="../../db/dd3/phononBuilder_8h.html" target="_top" xlink:title=" ">
<polygon fill="none" stroke="black" points="952.5,-112.5 952.5,-131.5 1047.5,-131.5 1047.5,-112.5 952.5,-112.5"/>
<text text-anchor="middle" x="1000" y="-119.5" font-family="Helvetica,sans-Serif" font-size="10.00">phononBuilder.h</text>
</a>
</g>
</g>
<!-- Node25&#45;&gt;Node26 -->
<g id="edge53" class="edge">
<title>Node25&#45;&gt;Node26</title>
<path fill="none" stroke="midnightblue" d="M1008.35,-168.08C1007.02,-160.93 1005.12,-150.64 1003.46,-141.69"/>
<polygon fill="midnightblue" stroke="midnightblue" points="1006.88,-140.95 1001.62,-131.75 1000,-142.22 1006.88,-140.95"/>
</g>
<!-- Node28 -->
<g id="node28" class="node">
<title>Node28</title>
<g id="a_node28"><a xlink:title=" ">
<polygon fill="none" stroke="#bfbfbf" points="1104.5,-112.5 1104.5,-131.5 1155.5,-131.5 1155.5,-112.5 1104.5,-112.5"/>
<text text-anchor="middle" x="1130" y="-119.5" font-family="Helvetica,sans-Serif" font-size="10.00">variant</text>
</a>
</g>
</g>
<!-- Node25&#45;&gt;Node28 -->
<g id="edge61" class="edge">
<title>Node25&#45;&gt;Node28</title>
<path fill="none" stroke="midnightblue" d="M1029.01,-168.44C1048.59,-159.64 1079.31,-145.81 1101.73,-135.72"/>
<polygon fill="midnightblue" stroke="midnightblue" points="1103.39,-138.81 1111.07,-131.52 1100.52,-132.43 1103.39,-138.81"/>
</g>
<!-- Node26&#45;&gt;Node14 -->
<g id="edge57" class="edge">
<title>Node26&#45;&gt;Node14</title>
<path fill="none" stroke="midnightblue" d="M952.47,-113.12C928.39,-106.84 900.43,-95.69 882,-76 870.28,-63.49 865.42,-44.26 863.41,-29.96"/>
<polygon fill="midnightblue" stroke="midnightblue" points="866.87,-29.34 862.33,-19.77 859.91,-30.08 866.87,-29.34"/>
</g>
<!-- Node26&#45;&gt;Node17 -->
<g id="edge54" class="edge">
<title>Node26&#45;&gt;Node17</title>
<path fill="none" stroke="midnightblue" d="M1003.47,-112.08C1006.31,-104.77 1010.43,-94.18 1013.96,-85.1"/>
<polygon fill="midnightblue" stroke="midnightblue" points="1017.23,-86.34 1017.6,-75.75 1010.71,-83.8 1017.23,-86.34"/>
</g>
<!-- Node26&#45;&gt;Node18 -->
<g id="edge55" class="edge">
<title>Node26&#45;&gt;Node18</title>
<path fill="none" stroke="midnightblue" d="M1026.33,-112.45C1067.13,-99.37 1148.21,-74 1218,-56 1276.82,-40.83 1345.94,-26.42 1387.29,-18.16"/>
<polygon fill="midnightblue" stroke="midnightblue" points="1388.06,-21.57 1397.18,-16.19 1386.69,-14.71 1388.06,-21.57"/>
</g>
<!-- Node27 -->
<g id="node27" class="node">
<title>Node27</title>
<g id="a_node27"><a xlink:title=" ">
<polygon fill="none" stroke="#bfbfbf" points="890.5,-56.5 890.5,-75.5 933.5,-75.5 933.5,-56.5 890.5,-56.5"/>
<text text-anchor="middle" x="912" y="-63.5" font-family="Helvetica,sans-Serif" font-size="10.00">stack</text>
</a>
</g>
</g>
<!-- Node26&#45;&gt;Node27 -->
<g id="edge56" class="edge">
<title>Node26&#45;&gt;Node27</title>
<path fill="none" stroke="midnightblue" d="M985.86,-112.32C972.13,-103.9 951.06,-90.97 934.94,-81.07"/>
<polygon fill="midnightblue" stroke="midnightblue" points="936.46,-77.9 926.1,-75.65 932.8,-83.87 936.46,-77.9"/>
</g>
<!-- Node29&#45;&gt;Node3 -->
<g id="edge67" class="edge">
<title>Node29&#45;&gt;Node3</title>
<path fill="none" stroke="midnightblue" d="M1415.42,-286.29C1380.83,-284.44 1333.61,-281.96 1292,-280 896.97,-261.37 419.26,-242.46 272.82,-236.74"/>
<polygon fill="midnightblue" stroke="midnightblue" points="272.58,-233.23 262.45,-236.34 272.31,-240.22 272.58,-233.23"/>
</g>
<!-- Node29&#45;&gt;Node12 -->
<g id="edge68" class="edge">
<title>Node29&#45;&gt;Node12</title>
<path fill="none" stroke="midnightblue" d="M1415.06,-280.71C1294,-260.4 991.78,-208.34 950,-188 903.53,-165.38 905,-140.67 862,-112 843.11,-99.41 820.21,-88.01 802.24,-79.83"/>
<polygon fill="midnightblue" stroke="midnightblue" points="803.38,-76.5 792.82,-75.63 800.53,-82.9 803.38,-76.5"/>
</g>
<!-- Node29&#45;&gt;Node18 -->
<g id="edge66" class="edge">
<title>Node29&#45;&gt;Node18</title>
<path fill="none" stroke="midnightblue" d="M1500.46,-280.43C1524.15,-273.44 1555.04,-261.78 1578,-244 1627.48,-205.69 1652.18,-169.29 1627,-112 1598.76,-47.74 1511.37,-24 1460.93,-15.5"/>
<polygon fill="midnightblue" stroke="midnightblue" points="1461.19,-12 1450.77,-13.91 1460.1,-18.92 1461.19,-12"/>
</g>
<!-- Node29&#45;&gt;Node19 -->
<g id="edge69" class="edge">
<title>Node29&#45;&gt;Node19</title>
<path fill="none" stroke="midnightblue" d="M1487.33,-280.41C1519.77,-266.57 1578.69,-235.92 1603,-188 1626.74,-141.2 1559.24,-99.84 1518.14,-79.8"/>
<polygon fill="midnightblue" stroke="midnightblue" points="1519.61,-76.62 1509.07,-75.51 1516.61,-82.95 1519.61,-76.62"/>
</g>
<!-- Node29&#45;&gt;Node21 -->
<g id="edge64" class="edge">
<title>Node29&#45;&gt;Node21</title>
<path fill="none" stroke="midnightblue" d="M1457.9,-280.08C1451.76,-272.38 1442.73,-261.03 1435.26,-251.65"/>
<polygon fill="midnightblue" stroke="midnightblue" points="1437.94,-249.39 1428.97,-243.75 1432.46,-253.75 1437.94,-249.39"/>
</g>
<!-- Node30 -->
<g id="node30" class="node">
<title>Node30</title>
<g id="a_node30"><a xlink:title=" ">
<polygon fill="none" stroke="#bfbfbf" points="1620,-224.5 1620,-243.5 1670,-243.5 1670,-224.5 1620,-224.5"/>
<text text-anchor="middle" x="1645" y="-231.5" font-family="Helvetica,sans-Serif" font-size="10.00">chrono</text>
</a>
</g>
</g>
<!-- Node29&#45;&gt;Node30 -->
<g id="edge65" class="edge">
<title>Node29&#45;&gt;Node30</title>
<path fill="none" stroke="midnightblue" d="M1493.52,-280.44C1525.05,-270.98 1575.87,-255.74 1609.85,-245.55"/>
<polygon fill="midnightblue" stroke="midnightblue" points="1611.23,-248.78 1619.81,-242.56 1609.22,-242.08 1611.23,-248.78"/>
</g>
<!-- Node31&#45;&gt;Node18 -->
<g id="edge74" class="edge">
<title>Node31&#45;&gt;Node18</title>
<path fill="none" stroke="midnightblue" d="M1682.59,-285.31C1748.32,-277.56 1850,-253.52 1850,-179 1850,-179 1850,-179 1850,-121 1850,-40.96 1564.48,-18.25 1460.94,-12.64"/>
<polygon fill="midnightblue" stroke="midnightblue" points="1460.82,-9.13 1450.65,-12.11 1460.45,-16.12 1460.82,-9.13"/>
</g>
<!-- Node31&#45;&gt;Node19 -->
<g id="edge75" class="edge">
<title>Node31&#45;&gt;Node19</title>
<path fill="none" stroke="midnightblue" d="M1643.73,-280.24C1655.89,-272.48 1671.81,-259.93 1679,-244 1682.66,-235.9 1681.81,-232.43 1679,-224 1659.32,-164.97 1643.99,-150.36 1595,-112 1573.43,-95.11 1544.59,-83.41 1522.43,-76.18"/>
<polygon fill="midnightblue" stroke="midnightblue" points="1523.36,-72.81 1512.77,-73.17 1521.28,-79.49 1523.36,-72.81"/>
</g>
<!-- Node31&#45;&gt;Node21 -->
<g id="edge73" class="edge">
<title>Node31&#45;&gt;Node21</title>
<path fill="none" stroke="midnightblue" d="M1595.36,-280.44C1558.7,-270.83 1499.26,-255.25 1460.4,-245.07"/>
<polygon fill="midnightblue" stroke="midnightblue" points="1461.07,-241.62 1450.51,-242.47 1459.29,-248.39 1461.07,-241.62"/>
</g>
<!-- Node33&#45;&gt;Node12 -->
<g id="edge89" class="edge">
<title>Node33&#45;&gt;Node12</title>
<path fill="none" stroke="midnightblue" d="M1817.75,-342.11C1739.43,-336.12 1558.25,-321.1 1407,-300 1389.56,-297.57 1112.1,-248.19 1095,-244 1014.04,-224.15 989.11,-228.04 916,-188 863.02,-158.99 811.42,-108.73 786.87,-83.07"/>
<polygon fill="midnightblue" stroke="midnightblue" points="789.29,-80.54 779.88,-75.67 784.19,-85.34 789.29,-80.54"/>
</g>
<!-- Node33&#45;&gt;Node30 -->
<g id="edge86" class="edge">
<title>Node33&#45;&gt;Node30</title>
<path fill="none" stroke="midnightblue" d="M1874.72,-336.3C1897.56,-323.94 1932.4,-300.54 1915,-280 1885.32,-244.97 1746.6,-237.18 1680.37,-235.47"/>
<polygon fill="midnightblue" stroke="midnightblue" points="1680.09,-231.96 1670.02,-235.24 1679.94,-238.96 1680.09,-231.96"/>
</g>
<!-- Node34 -->
<g id="node34" class="node">
<title>Node34</title>
<g id="a_node34"><a xlink:title=" ">
<polygon fill="none" stroke="#bfbfbf" points="1840.5,-280.5 1840.5,-299.5 1905.5,-299.5 1905.5,-280.5 1840.5,-280.5"/>
<text text-anchor="middle" x="1873" y="-287.5" font-family="Helvetica,sans-Serif" font-size="10.00">functional</text>
</a>
</g>
</g>
<!-- Node33&#45;&gt;Node34 -->
<g id="edge87" class="edge">
<title>Node33&#45;&gt;Node34</title>
<path fill="none" stroke="midnightblue" d="M1859.64,-336.08C1861.79,-328.85 1864.88,-318.41 1867.55,-309.4"/>
<polygon fill="midnightblue" stroke="midnightblue" points="1870.92,-310.33 1870.41,-299.75 1864.21,-308.34 1870.92,-310.33"/>
</g>
<!-- Node33&#45;&gt;Node35 -->
<g id="edge88" class="edge">
<title>Node33&#45;&gt;Node35</title>
<path fill="none" stroke="midnightblue" d="M1878.39,-336.44C1900.71,-327.52 1935.9,-313.44 1961.21,-303.32"/>
<polygon fill="midnightblue" stroke="midnightblue" points="1962.72,-306.48 1970.71,-299.52 1960.12,-299.98 1962.72,-306.48"/>
</g>
</g>
</svg>
